<?xml version="1.0" encoding="UTF-8" standalone="no"?>
<!-- Created with Inkscape (http://www.inkscape.org/) -->

<svg
   xmlns:dc="http://purl.org/dc/elements/1.1/"
   xmlns:cc="http://creativecommons.org/ns#"
   xmlns:rdf="http://www.w3.org/1999/02/22-rdf-syntax-ns#"
   xmlns:svg="http://www.w3.org/2000/svg"
   xmlns="http://www.w3.org/2000/svg"
   xmlns:sodipodi="http://sodipodi.sourceforge.net/DTD/sodipodi-0.dtd"
   xmlns:inkscape="http://www.inkscape.org/namespaces/inkscape"
   width="200"
   height="150"
   viewBox="0 0 200 150"
   id="svg2"
   version="1.1"
   inkscape:version="0.91 r13725"
   sodipodi:docname="1949ers.svg">
  <defs
     id="defs4">
    <pattern
       y="0"
       x="0"
       height="6"
       width="6"
       patternUnits="userSpaceOnUse"
       id="EMFhbasepattern" />
    <pattern
       y="0"
       x="0"
       height="6"
       width="6"
       patternUnits="userSpaceOnUse"
       id="EMFhbasepattern-5" />
    <pattern
       y="0"
       x="0"
       height="6"
       width="6"
       patternUnits="userSpaceOnUse"
       id="EMFhbasepattern-52" />
  </defs>
  <sodipodi:namedview
     id="base"
     pagecolor="#ffffff"
     bordercolor="#666666"
     borderopacity="1.0"
     inkscape:pageopacity="0.0"
     inkscape:pageshadow="2"
     inkscape:zoom="1.979899"
     inkscape:cx="110.574"
     inkscape:cy="35.722924"
     inkscape:document-units="px"
     inkscape:current-layer="layer1"
     showgrid="false"
     fit-margin-top="0"
     fit-margin-left="0"
     fit-margin-right="0"
     fit-margin-bottom="0"
     units="px"
     inkscape:window-width="1440"
     inkscape:window-height="837"
     inkscape:window-x="1432"
     inkscape:window-y="-8"
     inkscape:window-maximized="1" />
  <metadata
     id="metadata7">
    <rdf:RDF>
      <cc:Work
         rdf:about="">
        <dc:format>image/svg+xml</dc:format>
        <dc:type
           rdf:resource="http://purl.org/dc/dcmitype/StillImage" />
        <dc:title></dc:title>
      </cc:Work>
    </rdf:RDF>
  </metadata>
  <g
     inkscape:label="Layer 1"
     inkscape:groupmode="layer"
     id="layer1"
     transform="translate(536.30539,-546.064)">
    <g
       id="g4275"
       transform="matrix(1.0671282,0,0,1.0671282,-19.225352,-32.793638)">
      <path
         style="fill:#ffffff;fill-opacity:1;fill-rule:nonzero;stroke:none"
         d="m -390.48506,542.46301 c -1.0795,-0.10584 -2.3495,0.25399 -3.06917,0.67732 -0.71938,0.40217 -1.03688,0.74083 -1.24855,0.97367 1.05805,-1.05833 0.4445,-0.381 0.127,-0.1905 -0.29633,0.1905 -0.80433,0.50799 -1.41817,0.86782 -1.22766,0.74083 -2.9845,1.77799 -5.10116,3.00566 -4.21217,2.4553 -9.86367,5.69377 -15.76917,9.03808 -11.81089,6.70978 -24.80714,13.94866 -29.33675,16.277 l -1.778,0.91016 c -1.39698,0.71967 -2.34948,2.07434 -2.56114,3.6195 l -0.254,1.778 c -0.59266,4.2545 -0.65616,13.94884 -0.33866,18.4785 0.65616,9.77872 1.86265,17.73739 3.83114,25.35739 4.14863,16.04405 11.30291,29.44255 21.50516,39.89888 8.25492,8.48784 18.16092,14.68939 29.48508,18.52055 0.48684,0.16934 0.99484,0.33867 1.37584,0.48684 0.35983,0.14816 1.12155,0.59266 0.14816,0.0212 1.05805,0.61384 2.94189,0.91017 4.06372,0.80434 1.12183,-0.10584 2.05317,-0.33867 3.45017,-0.67734 8.53016,-2.0955 16.891,-6.37116 24.59566,-12.44571 3.6195,-2.8575 9.31305,-8.636 12.14939,-12.319 10.795,-13.94884 17.37783,-31.68622 19.40983,-51.75222 0.1905,-1.79917 0.4445,-4.064 0.52917,-4.7625 0.27516,-1.96822 0.3175,-4.78339 0.381,-8.29705 0.0635,-3.4925 0.0635,-7.21784 -0.0423,-9.69434 l 0,0 -0.14816,-3.8735 c -0.0635,-1.62983 -0.97367,-3.13266 -2.39184,-3.95816 l -5.1435,-3.02684 c -18.77459,-11.04889 -36.21592,-21.10298 -45.12709,-26.03478 l 0,0 c -1.16416,-0.635 -2.26483,-1.26999 -3.1115,-1.73565 -0.42333,-0.254 -0.762,-0.4445 -0.99483,-0.59267 -0.127,-0.0635 -0.254,-0.14816 -0.3175,-0.21166 -0.40217,-0.35983 -0.97367,-0.97366 -2.89983,-1.14299 z"
         id="path4255"
         inkscape:connector-curvature="0" />
      <path
         style="fill:#bfa05b;fill-opacity:1;fill-rule:nonzero;stroke:none"
         d="m -390.92956,547.26781 c -0.14817,-0.0212 -0.27517,0.0635 -0.46567,0.254 -1.143,1.14297 -43.11605,24.93408 -52.70449,29.88708 l -1.77797,0.91017 -0.23284,1.778 c -0.381,2.6035 -0.5715,13.7795 -0.3175,17.4625 0.65617,9.58822 1.79914,17.18705 3.70414,24.48955 3.95814,15.367 10.73142,27.93972 20.27744,37.73988 7.747,7.95867 16.93334,13.716 27.58017,17.31405 1.10038,0.35984 2.17988,0.78317 2.39155,0.91017 0.59267,0.33867 1.22767,0.27517 3.95817,-0.40217 7.747,-1.90471 15.51516,-5.84171 22.733,-11.53555 2.87866,-2.286 9.03816,-8.509 11.34505,-11.4935 10.16,-13.12333 16.4465,-29.97171 18.415,-49.27571 0.1905,-1.8415 0.4445,-4.04284 0.55033,-4.91067 0.3175,-2.28572 0.48683,-12.65739 0.3175,-17.16589 l -0.16933,-3.8735 -5.16467,-3.02683 c -18.75338,-11.02772 -36.19472,-21.0818 -45.00005,-25.95011 -2.37067,-1.31233 -4.52967,-2.53997 -4.80483,-2.75163 -0.29634,-0.23284 -0.46567,-0.33867 -0.635,-0.35984 z m 0.16933,11.07008 c 0.16933,0 1.12183,0.4445 2.0955,0.97367 3.302,1.79914 19.05,10.81608 28.59617,16.38283 15.68421,9.16517 15.36671,8.9535 15.51488,9.56733 0.21167,0.889 -0.10583,12.17084 -0.4445,16.17106 -1.75683,19.6215 -7.45067,35.58116 -17.06005,47.70938 -2.18017,2.77283 -7.239,7.8105 -9.8425,9.8425 -5.43983,4.21217 -11.557,7.493 -16.637,8.97467 -2.39183,0.67733 -2.3495,0.67733 -5.0165,-0.29634 -13.16538,-4.8895 -23.93922,-13.9065 -31.1993,-26.0985 -6.26528,-10.56188 -10.28692,-23.53705 -11.91675,-38.56538 -0.40217,-3.61922 -0.65617,-16.95422 -0.35983,-18.09722 0.16933,-0.6985 0.52916,-0.91017 10.11761,-6.223 12.53055,-6.96383 23.66422,-13.25022 30.52222,-17.22952 2.92072,-1.7145 5.46072,-3.11148 5.63005,-3.11148 z"
         id="path4257"
         inkscape:connector-curvature="0" />
      <path
         style="fill:#c12428;fill-opacity:1;fill-rule:nonzero;stroke:none"
         d="m -390.76023,558.33789 c -0.16933,0 -2.70933,1.39698 -5.63005,3.11148 -6.858,3.9793 -17.99167,10.26569 -30.52222,17.22952 -9.58845,5.31283 -9.94828,5.5245 -10.11761,6.223 -0.29634,1.143 -0.0423,14.478 0.35983,18.09722 1.62983,15.02833 5.65147,28.0035 11.91675,38.56538 7.26008,12.192 18.03392,21.209 31.1993,26.0985 2.667,0.97367 2.62467,0.97367 5.0165,0.29634 5.08,-1.48167 11.19717,-4.7625 16.637,-8.97467 2.6035,-2.032 7.66233,-7.06967 9.8425,-9.8425 9.60938,-12.12822 15.30322,-28.08788 17.06005,-47.70938 0.33867,-4.00022 0.65617,-15.28206 0.4445,-16.17106 -0.14817,-0.61383 0.16933,-0.40216 -15.51488,-9.56733 -9.54617,-5.56675 -25.29417,-14.58369 -28.59617,-16.38283 -0.97367,-0.52917 -1.92617,-0.97367 -2.0955,-0.97367 z m 2.58233,9.10159 c 0.1905,-0.0212 0.6985,0.1905 1.35467,0.5715 0.67733,0.40216 6.96383,4.04274 13.99117,8.06441 7.00616,4.02167 13.92766,8.001 15.367,8.86883 l 2.62438,1.54517 0.0635,3.45017 c 0.10583,5.842 -0.46567,13.33472 -1.52372,19.66355 -2.413,14.32983 -7.45066,26.20433 -15.0495,35.36922 -3.78883,4.55083 -9.779,9.44033 -14.732,12.0015 -1.03716,0.52916 -1.94733,0.97366 -2.01083,0.97366 -0.29633,0 -0.33867,-0.71966 -0.29633,-4.48733 l 0.0635,-3.95817 2.01083,-1.37583 c 6.64633,-4.55083 11.8745,-10.66772 15.91733,-18.64755 2.01084,-3.95817 4.572,-10.87967 4.29684,-11.59933 -0.10584,-0.27517 -1.56634,-0.33867 -11.176,-0.381 l -11.049,-0.0423 -0.0423,-24.89172 c -0.0423,-15.0495 0.0212,-24.97658 0.127,-25.08242 0.0212,-0.0212 0.0423,-0.0212 0.0635,-0.0423 z m -9.01671,1.31233 c 0.10583,0.0847 0.16933,19.87541 0.127,44.51313 -0.0212,29.31555 -0.10584,44.34389 -0.254,44.38622 -0.46567,0.14817 -6.90034,-3.59833 -7.89517,-4.61433 -0.33867,-0.33867 -0.35983,-1.4605 -0.35983,-17.48339 0,-15.40933 -0.0423,-17.12383 -0.33867,-17.25083 -0.1905,-0.0635 -5.12233,-0.127 -10.9855,-0.127 l -10.64672,0 -0.21167,-0.78317 c -0.508,-1.82033 -1.50283,-6.985 -1.98967,-10.3505 -0.71963,-5.10116 -0.95247,-8.48755 -0.95247,-14.41422 l 0,-5.18583 0.57147,-0.40217 c 0.93134,-0.635 6.56164,-3.59833 6.83681,-3.59833 0.21158,0 0.29625,1.905 0.40208,8.636 0.0635,4.74133 0.23284,9.71522 0.35984,11.02755 0.23283,2.58234 0.71966,5.54567 1.03716,6.39234 l 0.21167,0.52916 7.9375,0 c 4.3815,0 7.97983,-0.0212 8.02217,-0.0635 0.0212,-0.0212 0.0847,-8.382 0.14816,-18.56288 l 0.10584,-18.52084 3.85233,-2.159 c 2.159,-1.20641 3.937,-2.07424 4.02167,-1.96841 z"
         id="path4259"
         inkscape:connector-curvature="0" />
      <path
         style="fill:#c12428;fill-opacity:1;fill-rule:nonzero;stroke:none"
         d="m -380.13456,609.26444 c -0.1905,-0.21166 -0.16934,-28.49005 0.0423,-28.61705 0.1905,-0.127 16.67933,8.6995 17.145,9.144 0.14816,0.14817 0.3175,1.016 0.381,1.92617 0.21166,2.62466 -0.80434,13.99088 -1.4605,16.53088 l -0.254,1.03717 -7.85284,0.0635 c -4.318,0.0212 -7.91633,-0.0212 -8.001,-0.0847 z"
         id="path4261"
         inkscape:connector-curvature="0" />
      <path
         style="fill:#2a2322;fill-opacity:1;fill-rule:nonzero;stroke:none"
         d="m -392.47473,678.01321 c -0.21167,-0.127 -1.29117,-0.55033 -2.41272,-0.91017 -10.62566,-3.59805 -19.812,-9.35538 -27.559,-17.31405 -9.54602,-9.80016 -16.3193,-22.37288 -20.27744,-37.73988 -1.905,-7.3025 -3.04797,-14.90133 -3.70414,-24.48955 -0.254,-3.683 -0.0635,-14.859 0.3175,-17.4625 l 0.23284,-1.778 1.77797,-0.91017 c 9.58844,-4.953 51.56149,-28.74411 52.70449,-29.88708 0.35983,-0.35983 0.508,-0.35983 1.10067,0.10584 0.27516,0.21166 2.43416,1.4393 4.80483,2.75163 8.80533,4.86831 26.24667,14.92239 45.00005,25.95011 l 5.16467,3.02683 0.14816,3.8735 c 0.1905,4.5085 0.0212,14.88017 -0.29633,17.16589 -0.10583,0.86783 -0.35983,3.06917 -0.55033,4.91067 -1.94734,19.304 -8.255,36.15238 -18.415,49.27571 -2.30689,2.9845 -8.46639,9.2075 -11.34505,11.4935 -7.21784,5.69384 -14.986,9.63084 -22.733,11.53555 -2.7305,0.67734 -3.3655,0.74084 -3.95817,0.40217 z m 4.04283,-6.58255 c 5.969,-1.60867 13.0175,-5.35517 19.05,-10.13883 2.921,-2.32834 7.83167,-7.28134 10.13884,-10.26584 10.09621,-13.0175 15.74771,-28.84988 17.61038,-49.38155 0.48683,-5.35488 0.55033,-18.45705 0.0847,-18.90155 -0.33867,-0.33867 -13.5255,-8.0645 -26.79672,-15.72672 -13.25036,-7.66228 -22.2462,-12.67875 -22.58486,-12.59408 -0.52917,0.127 -48.64052,27.34713 -49.04269,27.7493 -0.93133,0.91017 -0.9525,13.97 -0.0212,21.99189 3.51364,30.43766 16.86964,52.68355 38.14214,63.47855 4.14866,2.11666 9.60938,4.29683 10.81588,4.318 0.33867,0 1.524,-0.23284 2.6035,-0.52917 z m -6.05338,-8.128 c -2.26483,-0.99483 -5.12233,-2.45533 -7.26017,-3.70417 -1.69333,-0.99483 -4.91066,-3.1115 -5.41866,-3.57716 -0.12701,-0.127 -0.23284,-6.05367 -0.29634,-16.55234 l -0.10583,-16.36155 -9.35567,-0.10583 -9.37675,-0.10583 -1.26997,-1.27 c -0.6985,-0.67734 -1.37583,-1.48167 -1.48167,-1.778 -0.40216,-0.9525 -1.6298,-6.56167 -2.15897,-9.7155 -1.12183,-6.731 -1.75683,-15.79006 -1.48166,-20.95472 l 0.14816,-2.81517 0.65617,-0.48683 c 0.91017,-0.67734 10.49853,-5.7785 10.85836,-5.7785 0.14816,0 0.84667,0.5715 1.524,1.27 l 1.24883,1.24883 0.0423,9.67317 c 0.0423,9.16488 0.29633,15.32438 0.67733,15.68422 0.0847,0.10583 2.45534,0.14816 5.2705,0.10583 l 5.10117,-0.0423 0.0635,-18.03372 0.0423,-18.034 0.59267,-0.42333 c 0.3175,-0.21167 1.88383,-1.12175 3.4925,-2.03192 1.60866,-0.889 4.04283,-2.286 5.3975,-3.0903 l 2.4765,-1.4605 1.35438,1.3335 1.3335,1.33347 0,48.19613 c 0,38.41722 -0.0423,48.17505 -0.254,48.17505 -0.14817,0 -0.97366,-0.3175 -1.82005,-0.6985 z m -2.58234,-50.03772 c 0.0423,-24.63772 -0.0212,-44.42846 -0.127,-44.51313 -0.0847,-0.10583 -1.86266,0.762 -4.02166,1.96841 l -3.85233,2.159 -0.10584,18.52084 c -0.0635,10.18088 -0.127,18.54172 -0.14816,18.56288 -0.0423,0.0423 -3.64067,0.0635 -8.001,0.0635 l -7.95867,0 -0.21167,-0.52916 c -0.3175,-0.84667 -0.80433,-3.81 -1.03717,-6.39234 -0.12699,-1.31233 -0.29633,-6.28622 -0.35983,-11.02755 -0.10583,-6.731 -0.1905,-8.636 -0.40208,-8.636 -0.27517,0 -5.90547,2.96333 -6.83681,3.59833 l -0.57147,0.40217 0,5.18583 c 0,5.92667 0.23284,9.31306 0.95247,14.41422 0.48684,3.3655 1.48167,8.53017 1.98967,10.3505 l 0.21167,0.78317 10.64672,0 c 5.86317,0 10.795,0.0635 10.9855,0.127 0.29633,0.127 0.33867,1.8415 0.33867,17.25083 0,16.02289 0.0212,17.14472 0.35983,17.48339 0.99483,1.016 7.4295,4.7625 7.89517,4.61433 0.14816,-0.0423 0.23283,-15.07067 0.25399,-44.38622 z m 8.06422,49.21222 -1.31233,-1.31233 0,-6.39234 0,-6.4135 1.43933,-0.84666 c 4.93184,-2.921 10.11767,-8.04334 13.73717,-13.52522 2.05317,-3.13267 5.54567,-10.24467 5.54567,-11.303 0,-0.27517 -0.99484,-0.3175 -8.91117,-0.3175 l -8.91117,0 -1.4605,-1.397 -1.43933,-1.397 0,-27.79155 c 0,-19.47334 0.0635,-27.79172 0.23283,-27.79172 0.127,0 1.4605,0.74083 2.9845,1.62983 1.50284,0.91017 7.747,4.50847 13.843,8.00089 18.56289,10.6045 20.10805,11.557 21.71672,13.12333 l 1.397,1.397 0,4.93183 c 0,19.21906 -4.21217,36.40639 -12.02238,48.95794 -4.16984,6.70983 -10.26584,13.03867 -16.53117,17.145 -1.9685,1.31233 -8.27617,4.61433 -8.78417,4.61433 -0.127,0 -0.80433,-0.5715 -1.524,-1.31233 z m 2.921,-5.50333 c 4.953,-2.56117 10.94317,-7.45067 14.732,-12.0015 7.59884,-9.16489 12.6365,-21.03939 15.0495,-35.36922 1.05805,-6.32883 1.62955,-13.82155 1.52372,-19.66355 l -0.0635,-3.45017 -2.62438,-1.54517 c -1.43934,-0.86783 -8.36084,-4.84716 -15.367,-8.86883 -7.02734,-4.02167 -13.31384,-7.66225 -13.99117,-8.06441 -0.74083,-0.4445 -1.29117,-0.65617 -1.41817,-0.52917 -0.10583,0.10583 -0.16933,10.03291 -0.127,25.08241 l 0.0423,24.89172 11.049,0.0423 c 9.60967,0.0423 11.07017,0.10583 11.176,0.381 0.27517,0.71967 -2.286,7.64117 -4.29683,11.59934 -4.04284,7.97983 -9.271,14.09672 -15.91733,18.64755 l -2.01084,1.37583 -0.0635,3.95817 c -0.0423,3.76767 0,4.48733 0.29633,4.48733 0.0635,0 0.97367,-0.4445 2.01084,-0.97366 z m 5.94784,-47.70939 c -0.1905,-0.21166 -0.16934,-28.49005 0.0423,-28.61705 0.1905,-0.127 16.67933,8.6995 17.145,9.144 0.14816,0.14817 0.3175,1.016 0.381,1.92617 0.21166,2.62466 -0.80434,13.99088 -1.4605,16.53088 l -0.254,1.03717 -7.85284,0.0635 c -4.318,0.0212 -7.91633,-0.0212 -8.001,-0.0847 z m 14.39333,-2.0955 c 0.21167,-0.52916 0.67733,-4.93183 1.0795,-9.96922 0.3175,-3.937 0.3175,-4.61433 0.0635,-4.84716 -0.59267,-0.5715 -10.49867,-5.79967 -10.77383,-5.69384 -0.23284,0.10584 -0.29634,1.778 -0.29634,10.3505 0,5.60889 0.0635,10.28672 0.14817,10.35022 0.0635,0.0847 2.286,0.14817 4.8895,0.14817 4.23333,0 4.78367,-0.0423 4.8895,-0.33867 z"
         id="path4263"
         inkscape:connector-curvature="0" />
    </g>
  </g>
</svg>
