<?xml version="1.0" encoding="UTF-8" standalone="no"?>
<!-- Created with Inkscape (http://www.inkscape.org/) -->

<svg
   xmlns:dc="http://purl.org/dc/elements/1.1/"
   xmlns:cc="http://creativecommons.org/ns#"
   xmlns:rdf="http://www.w3.org/1999/02/22-rdf-syntax-ns#"
   xmlns:svg="http://www.w3.org/2000/svg"
   xmlns="http://www.w3.org/2000/svg"
   xmlns:xlink="http://www.w3.org/1999/xlink"
   xmlns:sodipodi="http://sodipodi.sourceforge.net/DTD/sodipodi-0.dtd"
   xmlns:inkscape="http://www.inkscape.org/namespaces/inkscape"
   width="46.05312mm"
   height="56.672855mm"
   viewBox="0 0 163.18035 200.80933"
   id="svg4643"
   version="1.1"
   inkscape:version="0.91 r13725"
   sodipodi:docname="banner-logo.svg">
  <defs
     id="defs4645">
    <linearGradient
       inkscape:collect="always"
       xlink:href="#linearGradient4648"
       id="linearGradient6962"
       gradientUnits="userSpaceOnUse"
       gradientTransform="matrix(0.99703105,0,0,0.99703105,-2403.0544,-12.952629)"
       x1="-730.87714"
       y1="67.567322"
       x2="-730.87714"
       y2="144.15427" />
    <linearGradient
       id="linearGradient4648"
       inkscape:collect="always">
      <stop
         id="stop4650"
         offset="0"
         style="stop-color:#221f54;stop-opacity:1" />
      <stop
         id="stop4652"
         offset="1"
         style="stop-color:#1a4f9d;stop-opacity:1" />
    </linearGradient>
    <linearGradient
       inkscape:collect="always"
       xlink:href="#linearGradient4642"
       id="linearGradient6964"
       gradientUnits="userSpaceOnUse"
       gradientTransform="matrix(0.99703105,0,0,0.99703105,-2403.0544,-12.952629)"
       x1="-731.98755"
       y1="121.65849"
       x2="-731.98755"
       y2="211.10085" />
    <linearGradient
       id="linearGradient4642"
       inkscape:collect="always">
      <stop
         id="stop4644"
         offset="0"
         style="stop-color:#4d4d4d;stop-opacity:1;" />
      <stop
         id="stop4646"
         offset="1"
         style="stop-color:#dcddde;stop-opacity:1" />
    </linearGradient>
    <linearGradient
       inkscape:collect="always"
       xlink:href="#linearGradient4642"
       id="linearGradient6800"
       gradientUnits="userSpaceOnUse"
       gradientTransform="matrix(0.99703105,0,0,0.99703105,-2403.0544,-12.952629)"
       x1="-720.31342"
       y1="196.31261"
       x2="-720.31342"
       y2="150.09636" />
    <linearGradient
       inkscape:collect="always"
       xlink:href="#linearGradient4648"
       id="linearGradient6802"
       gradientUnits="userSpaceOnUse"
       gradientTransform="matrix(0.99703105,0,0,0.99703105,-2403.0544,-12.952629)"
       x1="-732.19763"
       y1="137.55194"
       x2="-732.19763"
       y2="91.335678" />
  </defs>
  <sodipodi:namedview
     id="base"
     pagecolor="#ffffff"
     bordercolor="#666666"
     borderopacity="1.0"
     inkscape:pageopacity="0.0"
     inkscape:pageshadow="2"
     inkscape:zoom="2.8"
     inkscape:cx="63.147596"
     inkscape:cy="21.986473"
     inkscape:document-units="px"
     inkscape:current-layer="layer1"
     showgrid="false"
     fit-margin-top="0"
     fit-margin-left="0"
     fit-margin-right="0"
     fit-margin-bottom="0"
     inkscape:window-width="2454"
     inkscape:window-height="1652"
     inkscape:window-x="106"
     inkscape:window-y="48"
     inkscape:window-maximized="1" />
  <metadata
     id="metadata4648">
    <rdf:RDF>
      <cc:Work
         rdf:about="">
        <dc:format>image/svg+xml</dc:format>
        <dc:type
           rdf:resource="http://purl.org/dc/dcmitype/StillImage" />
        <dc:title></dc:title>
      </cc:Work>
    </rdf:RDF>
  </metadata>
  <g
     inkscape:label="Layer 1"
     inkscape:groupmode="layer"
     id="layer1"
     transform="translate(604.44731,93.756748)">
    <g
       id="g6830"
       transform="matrix(0.66530996,0,0,0.66530996,-456.55055,-331.91299)">
      <path
         d="m -2557.2949,23.697266 a 8.0565621,8.0565621 0 0 0 -7.8418,8.052734 l 0,227.61523 a 8.0565621,8.0565621 0 0 0 0.8066,3.51368 c 8.2973,17.11864 25.0515,29.28073 43.8985,31.86718 10.4698,1.43686 19.8035,0.11328 27.6875,0.74805 16.8853,1.35951 33.29,11.5609 41.9785,26.10352 a 8.0565621,8.0565621 0 0 0 13.832,0 c 8.6885,-14.54265 25.0932,-24.74402 41.9785,-26.10352 7.884,-0.63474 17.2177,0.68878 27.6875,-0.74805 18.8469,-2.58645 35.6013,-14.74844 43.8985,-31.86718 a 8.0565621,8.0565621 0 0 0 0.8066,-3.51368 l 0,-227.61523 a 8.0565621,8.0565621 0 0 0 -12.8457,-6.478516 c -14.8327,10.962982 -33.3821,17.074219 -51.8262,17.074219 -18.444,0 -36.9935,-6.111228 -51.8261,-17.074219 a 8.0565621,8.0565621 0 0 0 -9.5782,0 c -14.8327,10.962982 -33.3822,17.074219 -51.8261,17.074219 -7.626,0 -21.6331,-4.233037 -32.8868,-8.746094 -11.2536,-4.513056 -20.0546,-9.019531 -20.0546,-9.019531 a 8.0565621,8.0565621 0 0 0 -3.8887,-0.882812 z"
         id="path6766"
         style="fill:#ffffff;fill-opacity:1;fill-rule:evenodd;stroke:none;stroke-width:1px;stroke-linecap:butt;stroke-linejoin:miter;stroke-opacity:1"
         inkscape:original="M -2557.0801 31.75 L -2557.0801 259.36523 C -2550.0183 273.93492 -2535.3765 284.5643 -2519.3359 286.76562 C -2510.3303 288.00153 -2501.1584 286.73532 -2492.0977 287.46484 C -2472.4887 289.04364 -2453.9393 300.57883 -2443.8496 317.4668 C -2433.7599 300.57882 -2415.2106 289.04363 -2395.6016 287.46484 C -2386.5409 286.73536 -2377.369 288.00152 -2368.3633 286.76562 C -2352.3228 284.5643 -2337.6808 273.93492 -2330.6191 259.36523 L -2330.6191 31.75 C -2346.8707 43.76172 -2367.0256 50.402344 -2387.2344 50.402344 C -2407.4432 50.402344 -2427.598 43.76172 -2443.8496 31.75 C -2460.1012 43.76172 -2480.2561 50.402344 -2500.4648 50.402344 C -2520.6736 50.402344 -2557.0801 31.75 -2557.0801 31.75 z "
         inkscape:radius="8.0557566"
         sodipodi:type="inkscape:offset"
         transform="translate(2344.1869,334.26931)"
         inkscape:export-xdpi="4.7702599"
         inkscape:export-ydpi="4.7702599" />
      <path
         style="fill:#214f99;fill-opacity:1;fill-rule:evenodd;stroke:none;stroke-width:1px;stroke-linecap:butt;stroke-linejoin:miter;stroke-opacity:1"
         d="m -212.8932,366.0187 0,227.61523 c 7.0618,14.56969 21.7036,25.19907 37.7442,27.40039 9.0056,1.2359 18.1775,-0.0303 27.2382,0.69922 19.609,1.5788 38.1584,13.11398 48.2481,30.00195 10.0897,-16.88798 28.639,-28.42316 48.248,-30.00195 9.0607,-0.72948 18.2326,0.53667 27.2383,-0.69922 16.0404998,-2.20133 30.6824998,-12.8307 37.7442,-27.40039 l 0,-227.61523 c -16.2516002,12.01172 -36.4065,18.65234 -56.6153,18.65234 -20.2088,0 -40.3636,-6.64062 -56.6152,-18.65234 -16.2516,12.01172 -36.4065,18.65234 -56.6152,18.65234 -20.2088,0 -56.6153,-18.65234 -56.6153,-18.65234 z"
         id="path6768"
         inkscape:connector-curvature="0"
         sodipodi:nodetypes="ccsscssccscsc"
         inkscape:export-xdpi="4.7702599"
         inkscape:export-ydpi="4.7702599" />
      <path
         transform="translate(2344.1869,108.46987)"
         d="m -2443.8496,268.41602 c -16.7905,10.84435 -36.5928,16.78515 -56.6152,16.78515 -16.5387,0 -32.9432,-4.02848 -47.6153,-11.53906 l 0,209.1543 c 5.9894,10.92141 17.662,19.14117 29.9688,20.83007 7.3696,1.01139 16.3608,-0.19085 26.7363,0.64454 18.3298,1.4758 35.4487,10.37286 47.5254,24.01757 12.0766,-13.64471 29.1956,-22.54178 47.5254,-24.01757 10.3754,-0.83534 19.3665,0.36685 26.7363,-0.64454 12.3067,-1.68891 23.9795,-9.90875 29.9688,-20.83007 l 0,-209.1543 c -14.6722,7.51058 -31.0766,11.53906 -47.6153,11.53906 -20.0225,0 -39.8248,-5.94081 -56.6152,-16.78515 z"
         id="path6770"
         style="fill:#1a1818;fill-opacity:1;fill-rule:evenodd;stroke:none;stroke-width:1px;stroke-linecap:butt;stroke-linejoin:miter;stroke-opacity:1"
         inkscape:original="M -2557.0801 257.54883 L -2557.0801 485.16406 C -2550.0183 499.73375 -2535.3765 510.36313 -2519.3359 512.56445 C -2510.3303 513.80035 -2501.1584 512.53415 -2492.0977 513.26367 C -2472.4887 514.84247 -2453.9393 526.37766 -2443.8496 543.26562 C -2433.7599 526.37765 -2415.2106 514.84246 -2395.6016 513.26367 C -2386.5409 512.53419 -2377.369 513.80034 -2368.3633 512.56445 C -2352.3228 510.36312 -2337.6808 499.73375 -2330.6191 485.16406 L -2330.6191 257.54883 C -2346.8707 269.56055 -2367.0256 276.20117 -2387.2344 276.20117 C -2407.4432 276.20117 -2427.598 269.56055 -2443.8496 257.54883 C -2460.1012 269.56055 -2480.2561 276.20117 -2500.4648 276.20117 C -2520.6736 276.20117 -2540.8285 269.56055 -2557.0801 257.54883 z "
         inkscape:radius="-9.0009012"
         sodipodi:type="inkscape:offset"
         inkscape:export-xdpi="4.7702599"
         inkscape:export-ydpi="4.7702599" />
      <path
         inkscape:connector-curvature="0"
         id="path6772"
         d="m -108.46504,387.91719 c -35.5947,1.93252 -73.4359,11.16205 -99.2328,36.81225 -13.5997,13.573 -19.46,35.30697 -9.8802,52.65181 14.387,26.29747 44.5272,39.26077 72.7595,45.92003 43.8878,9.50176 92.1406,6.00498 131.8694,-15.68138 19.6264998,-10.95341 38.3454,-30.66194 35.664,-54.44196 -3.9942,-25.99893 -28.2255002,-42.86335 -51.2876,-52.31721 -25.1912,-10.1843 -52.7732,-13.86858 -79.8923,-12.94354 z"
         style="opacity:1;fill:#ffffff;fill-opacity:1;stroke:none;stroke-width:20;stroke-linecap:round;stroke-linejoin:round;stroke-miterlimit:4;stroke-dasharray:none;stroke-dashoffset:0;stroke-opacity:1"
         inkscape:export-xdpi="4.7702599"
         inkscape:export-ydpi="4.7702599" />
      <g
         id="g6774"
         transform="translate(3031.3966,334.26931)"
         inkscape:export-xdpi="4.7702599"
         inkscape:export-ydpi="4.7702599">
        <path
           inkscape:connector-curvature="0"
           style="opacity:1;fill:url(#linearGradient6962);fill-opacity:1;stroke:none;stroke-width:20;stroke-linecap:round;stroke-linejoin:round;stroke-miterlimit:4;stroke-dasharray:none;stroke-dashoffset:0;stroke-opacity:1"
           d="m -3131.0974,51.472713 a 122.63482,72.284751 0 0 0 -122.3777,69.268347 c 26.0966,16.33048 48.4638,21.1691 67.6929,19.81988 4.0237,-0.28232 7.9146,-0.84427 11.682,-1.63186 l -1.9668,-7.33947 c -0.4171,-1.55677 0.4996,-3.14647 2.0564,-3.5636 1.5567,-0.41714 3.1465,0.4996 3.5637,2.05637 l 1.9998,7.46021 c 2.041,-0.56778 4.0408,-1.20048 6.0036,-1.89281 l -2.1576,-8.04829 c -0.4171,-1.55677 0.4996,-3.14647 2.0563,-3.56361 1.5568,-0.41714 3.1466,0.4996 3.5637,2.05638 l 1.998,7.45826 c 2.0572,-0.86656 4.0677,-1.7941 6.0347,-2.77299 l -2.1869,-8.1632 c -0.417,-1.55677 0.4996,-3.14648 2.0564,-3.5636 1.5568,-0.41714 3.1465,0.4996 3.5637,2.05637 l 1.8382,6.86044 c 2.0745,-1.17118 4.0975,-2.38995 6.0659,-3.65124 l -2.0583,-7.68415 c -0.4171,-1.55677 0.4996,-3.14648 2.0563,-3.56361 1.5568,-0.41714 3.1466,0.4996 3.5638,2.05638 l 1.5422,5.75824 c 0.3663,-0.25769 0.7398,-0.51146 1.1022,-0.77114 l 0.037,-0.0253 0.039,-0.0272 c 1.105,-0.75446 2.2268,-1.49242 3.363,-2.21606 l -2.7302,-10.18452 c -0.417,-1.55677 0.4997,-3.14647 2.0564,-3.5636 1.5568,-0.41714 3.1465,0.4996 3.5637,2.05637 l 2.2978,8.57797 c 2.0159,-1.15223 4.0641,-2.26424 6.1594,-3.3124 l -2.6114,-9.74052 c -0.417,-1.55678 0.4996,-3.146474 2.0564,-3.563612 1.5568,-0.417138 3.1465,0.499603 3.5637,2.056382 l 2.3426,8.74155 c 2.007,-0.88823 4.0358,-1.74284 6.1009,-2.52764 l -2.5977,-9.691839 c -0.4171,-1.556775 0.4996,-3.146481 2.0563,-3.563607 1.5568,-0.417138 3.1466,0.499602 3.5637,2.056377 l 2.4848,9.275109 c 1.9894,-0.64858 3.9989,-1.25188 6.0309,-1.79738 l -2.6699,-9.958624 c -0.417,-1.556771 0.4997,-3.146477 2.0564,-3.563607 1.5568,-0.417138 3.1465,0.499602 3.5637,2.056377 l 2.7047,10.096884 c 6.903,-1.488358 14.0024,-2.367312 21.2182,-2.508154 19.5431,-0.38148 39.9159,4.577754 59.3954,16.990414 a 122.63482,72.284751 0 0 0 -121.7375,-64.304642 z"
           id="path6776" />
        <path
           inkscape:connector-curvature="0"
           style="opacity:1;fill:url(#linearGradient6964);fill-opacity:1;stroke:none;stroke-width:20;stroke-linecap:round;stroke-linejoin:round;stroke-miterlimit:4;stroke-dasharray:none;stroke-dashoffset:0;stroke-opacity:1"
           d="m -3066.9252,106.56841 c -7.1513,0.0143 -14.183,0.83645 -21.0174,2.30564 l 1.8908,7.05321 c 0.4171,1.55678 -0.5016,3.14648 -2.0583,3.56361 -1.5568,0.41714 -3.1446,-0.50156 -3.5617,-2.05832 l -1.9259,-7.18368 c -2.0283,0.55266 -4.0367,1.16033 -6.0211,1.82464 l 2.1011,7.84188 c 0.4171,1.55677 -0.5015,3.14647 -2.0583,3.56361 -1.5567,0.41713 -3.1445,-0.50156 -3.5617,-2.05832 l -1.9687,-7.34532 c -2.0567,0.80846 -4.0887,1.66519 -6.0854,2.5841 l 2.2083,8.24108 c 0.4171,1.55678 -0.5016,3.14648 -2.0583,3.56361 -1.5568,0.41714 -3.1446,-0.50156 -3.5617,-2.05832 l -1.9103,-7.12527 c -2.0824,1.08726 -4.1262,2.22882 -6.1263,3.42535 l 2.1907,8.17682 c 0.4172,1.55677 -0.5015,3.14647 -2.0583,3.56361 -1.5567,0.41714 -3.1445,-0.50156 -3.5617,-2.05832 l -1.7214,-6.42423 c -0.3356,0.22417 -0.6798,0.43893 -1.0126,0.66598 l -0.029,0.0195 c -1.1367,0.81349 -2.3022,1.61775 -3.4819,2.41468 l 2.8918,10.79208 c 0.4172,1.55677 -0.5015,3.14647 -2.0582,3.56361 -1.5568,0.41714 -3.1446,-0.50156 -3.5618,-2.05832 l -2.4068,-8.97912 c -1.9771,1.21626 -4.0115,2.39494 -6.099,3.52855 l 2.6599,9.92747 c 0.4172,1.55677 -0.5015,3.14647 -2.0582,3.56361 -1.5568,0.41713 -3.1446,-0.50156 -3.5617,-2.05832 l -2.3407,-8.73182 c -1.9739,0.94848 -3.9888,1.85317 -6.0542,2.699 l 2.549,9.51268 c 0.4171,1.55678 -0.5015,3.14647 -2.0583,3.56361 -1.5568,0.41714 -3.1445,-0.50156 -3.5617,-2.05832 l -2.401,-8.95575 c -1.9644,0.68 -3.9676,1.30456 -6.0094,1.87138 l 2.5645,9.56721 c 0.4172,1.55677 -0.5015,3.14647 -2.0582,3.56361 -1.5568,0.41713 -3.1446,-0.50156 -3.5617,-2.05833 l -2.5938,-9.68016 c -4.2412,0.90823 -8.6319,1.56135 -13.1893,1.88112 -19.8259,1.3911 -42.5002,-3.37525 -67.913,-18.2445 a 122.63482,72.284751 0 0 0 122.0389,65.769 122.63482,72.284751 0 0 0 122.4537,-70.16217 c -18.3862,-13.1845 -37.5816,-18.90847 -56.0791,-19.29216 -0.7353,-0.0153 -1.4694,-0.0209 -2.2024,-0.0195 z"
           id="path6778" />
        <path
           inkscape:connector-curvature="0"
           style="opacity:1;fill:url(#linearGradient6800);fill-opacity:1;stroke:none;stroke-width:20;stroke-linecap:round;stroke-linejoin:round;stroke-miterlimit:4;stroke-dasharray:none;stroke-dashoffset:0;stroke-opacity:1"
           d="m -3065.5289,114.53882 c -1.1422,-0.0125 -2.2842,-7.8e-4 -3.4273,0.0351 -5.7861,-0.0103 -11.4443,0.67435 -16.9768,1.90059 0.1,1.36593 -0.7721,2.64827 -2.146,3.01641 -1.3937,0.37347 -2.8069,-0.32771 -3.3883,-1.59486 -2.0305,0.58651 -4.0451,1.23412 -6.0406,1.94927 l 0.019,0.0701 c 0.4172,1.55678 -0.4996,3.14647 -2.0563,3.56361 -1.3705,0.36723 -2.7641,-0.3016 -3.363,-1.52865 -2.0542,0.85608 -4.0848,1.78021 -6.1011,2.74378 l 0.055,0.20642 c 0.4171,1.55677 -0.4996,3.14647 -2.0564,3.56361 -1.2348,0.33087 -2.4801,-0.18636 -3.1546,-1.18788 -2.1181,1.11204 -4.2185,2.2627 -6.2938,3.45846 l 0.039,0.148 c 0.4171,1.55677 -0.4997,3.14646 -2.0564,3.5636 -1.0698,0.28666 -2.1452,-0.0677 -2.8547,-0.81593 -1.6505,1.00765 -3.2847,2.0328 -4.9073,3.07094 l 0.8451,3.15466 c 0.4171,1.55678 -0.4996,3.14647 -2.0564,3.56361 -1.5567,0.41714 -3.1464,-0.50155 -3.5636,-2.05832 l -0.3524,-1.31834 c -1.7968,1.19299 -3.5819,2.39037 -5.3435,3.59087 -0.2147,0.11745 -0.433,0.2269 -0.6485,0.34273 l 0.4985,1.86164 c 0.4172,1.55677 -0.4996,3.14647 -2.0564,3.56361 -1.5567,0.41714 -3.1464,-0.50156 -3.5635,-2.05832 l -0.1889,-0.70689 c -2.0009,0.92898 -4.0318,1.78805 -6.0855,2.58605 l 0.4285,1.60071 c 0.4171,1.55677 -0.4996,3.14647 -2.0564,3.5636 -1.5568,0.41714 -3.1464,-0.50155 -3.5636,-2.05832 l -0.3057,-1.14113 c -1.994,0.65005 -4.0062,1.24215 -6.0348,1.77401 l 0.4946,1.84996 c 0.4172,1.55677 -0.4996,3.14647 -2.0564,3.56361 -1.5567,0.41714 -3.1464,-0.50156 -3.5636,-2.05832 l -0.5432,-2.02718 c -22.3886,4.60699 -46.2552,2.22435 -67.2062,-6.95194 17.1065,23.07304 46.1991,32.63614 73.2,37.78396 38.0779,5.89879 129.5023,-2.75122 129.5023,-48.89272 0,-14.42692 -13.9394,-21.5033 -31.0708,-21.69007 z"
           id="path6780"
           sodipodi:nodetypes="cccccccscccscccsccccccccccccccscccccccccscc" />
        <path
           inkscape:connector-curvature="0"
           style="opacity:1;fill:url(#linearGradient6802);fill-opacity:1;stroke:none;stroke-width:20;stroke-linecap:round;stroke-linejoin:round;stroke-miterlimit:4;stroke-dasharray:none;stroke-dashoffset:0;stroke-opacity:1"
           d="m -3129.5668,59.515173 c -1.47,-0.01395 -2.9396,-0.0125 -4.4088,0.0039 -29.1312,2.059966 -94.4923,16.600901 -92.173,51.762077 1.1826,17.92999 26.79,24.374 50.0622,19.993 -0.2241,-1.4507 0.6552,-2.85915 2.107,-3.24814 1.525,-0.40863 3.0735,0.46763 3.5285,1.96679 2.0255,-0.54438 4.0304,-1.17901 6.0134,-1.90059 l -0.1324,-0.49072 c -0.4172,-1.55677 0.4996,-3.14647 2.0563,-3.56361 1.479,-0.3963 2.9752,0.41965 3.4799,1.83632 2.0233,-0.93047 4.0138,-1.96613 5.9705,-3.10403 l -0.041,-0.15383 c -0.4171,-1.55678 0.4997,-3.14648 2.0564,-3.56361 1.0593,-0.28385 2.1255,0.0596 2.8353,0.79255 2.158,-1.31583 4.3208,-2.63293 6.4845,-3.9667 0,-1.28589 0.8423,-2.45871 2.1461,-2.80804 0.7225,-0.1936 1.448,-0.0898 2.0641,0.22199 1.8184,-1.1103 3.6434,-2.20967 5.4778,-3.29487 l -0.6251,-2.33679 c -0.4171,-1.55678 0.4997,-3.14648 2.0564,-3.56361 1.5568,-0.41714 3.1465,0.4996 3.5636,2.05638 l 0.222,0.8315 c 2.0355,-1.14423 4.0871,-2.25046 6.1574,-3.31629 l -0.5335,-1.99017 c -0.4172,-1.55677 0.4996,-3.146463 2.0564,-3.563601 1.5568,-0.417139 3.1464,0.499602 3.5636,2.056371 l 0.2376,0.88798 c 2.0021,-0.9298 4.0279,-1.803949 6.0756,-2.61915 l -0.4673,-1.746748 c -0.4172,-1.556775 0.4996,-3.146469 2.0563,-3.563608 1.5568,-0.417138 3.1465,0.499603 3.5636,2.056378 l 0.3349,1.25213 c 1.9868,-0.659438 3.9928,-1.267537 6.0329,-1.785703 l -0.5219,-1.947322 c -0.4171,-1.556775 0.4996,-3.146481 2.0564,-3.563608 1.5568,-0.417138 3.1464,0.499603 3.5636,2.056378 l 0.5939,2.219947 c 0.6808,-0.120681 1.3651,-0.232436 2.0525,-0.33494 21.0116,-4.137881 43.1989,-2.566648 63.2706,4.987108 -17.5445,-21.763939 -45.6252,-30.796466 -72.0471,-35.881433 -10.1967,-1.726568 -20.4993,-2.576192 -30.7893,-2.673681 z"
           id="path6782"
           sodipodi:nodetypes="ccacccccccccsccccccsccccscccccccccsccccccc" />
      </g>
      <g
         transform="translate(1638.9732,334.26931)"
         style="font-style:normal;font-weight:normal;font-size:107.76209259px;line-height:125%;font-family:sans-serif;letter-spacing:0px;word-spacing:0px;fill:#fdc115;fill-opacity:1;stroke:none;stroke-width:1px;stroke-linecap:butt;stroke-linejoin:miter;stroke-opacity:1"
         id="g6784"
         inkscape:export-xdpi="4.7702599"
         inkscape:export-ydpi="4.7702599">
        <path
           inkscape:connector-curvature="0"
           d="m -1797.5058,211.43329 0,9.35288 q -3.6406,-1.62787 -7.1035,-2.45661 -3.4629,-0.82874 -6.5411,-0.82874 -4.0845,0 -6.0379,1.12472 -1.9535,1.12471 -1.9535,3.49253 0,1.77587 1.3023,2.78219 1.3319,0.97673 4.7948,1.68707 l 4.8541,0.97673 q 7.3698,1.47988 10.4776,4.49885 3.1077,3.01897 3.1077,8.58335 0,7.31064 -4.3508,10.89197 -4.3213,3.55173 -13.2302,3.55173 -4.2029,0 -8.4354,-0.79914 -4.2324,-0.79914 -8.4649,-2.36782 l 0,-9.61927 q 4.2325,2.24943 8.169,3.40374 3.966,1.12472 7.6362,1.12472 3.7293,0 5.7123,-1.24311 1.9831,-1.2431 1.9831,-3.55173 0,-2.07184 -1.3615,-3.19655 -1.3319,-1.12472 -5.3572,-2.01265 l -4.4101,-0.97672 q -6.6299,-1.4207 -9.708,-4.52846 -3.0486,-3.10776 -3.0486,-8.37616 0,-6.6003 4.2621,-10.15203 4.2621,-3.55173 12.2534,-3.55173 3.6406,0 7.4883,0.56236 3.8477,0.53276 7.9618,1.62788 z"
           style="font-style:normal;font-variant:normal;font-weight:bold;font-stretch:normal;font-size:60.61617661px;font-family:sans-serif;-inkscape-font-specification:'sans-serif Bold';fill:#fdc115;fill-opacity:1"
           id="path6786" />
        <path
           inkscape:connector-curvature="0"
           d="m -1784.5716,210.04219 11.3951,0 0,39.89776 q 0,8.25777 -4.4988,12.34226 -4.4693,4.08449 -13.5558,4.08449 l -2.3086,0 0,-8.61295 1.7758,0 q 3.5518,0 5.3572,-1.98304 1.8351,-1.98305 1.8351,-5.83076 l 0,-39.89776 z"
           style="font-style:normal;font-variant:normal;font-weight:bold;font-stretch:normal;font-size:60.61617661px;font-family:sans-serif;-inkscape-font-specification:'sans-serif Bold';fill:#fdc115;fill-opacity:1"
           id="path6788" />
        <path
           inkscape:connector-curvature="0"
           d="m -1767.2273,210.04219 40.7264,0 0,8.61295 -14.6508,0 0,35.57648 -11.3952,0 0,-35.57648 -14.6804,0 0,-8.61295 z"
           style="font-style:normal;font-variant:normal;font-weight:bold;font-stretch:normal;font-size:60.61617661px;font-family:sans-serif;-inkscape-font-specification:'sans-serif Bold';fill:#fdc115;fill-opacity:1"
           id="path6790" />
        <path
           inkscape:connector-curvature="0"
           d="m -1720.6405,210.04219 30.7521,0 0,8.61295 -19.357,0 0,8.22817 18.2026,0 0,8.61294 -18.2026,0 0,18.73537 -11.3951,0 0,-44.18943 z"
           style="font-style:normal;font-variant:normal;font-weight:bold;font-stretch:normal;font-size:60.61617661px;font-family:sans-serif;-inkscape-font-specification:'sans-serif Bold';fill:#fdc115;fill-opacity:1"
           id="path6792" />
        <path
           inkscape:connector-curvature="0"
           d="m -1679.2037,210.04219 11.3952,0 0,35.57649 20.008,0 0,8.61294 -31.4032,0 0,-44.18943 z"
           style="font-style:normal;font-variant:normal;font-weight:bold;font-stretch:normal;font-size:60.61617661px;font-family:sans-serif;-inkscape-font-specification:'sans-serif Bold';fill:#fdc115;fill-opacity:1"
           id="path6794" />
      </g>
    </g>
  </g>
</svg>
