<?xml version="1.0" encoding="UTF-8" standalone="no"?>
<!-- Created with Inkscape (http://www.inkscape.org/) -->

<svg
   xmlns:dc="http://purl.org/dc/elements/1.1/"
   xmlns:cc="http://creativecommons.org/ns#"
   xmlns:rdf="http://www.w3.org/1999/02/22-rdf-syntax-ns#"
   xmlns:svg="http://www.w3.org/2000/svg"
   xmlns="http://www.w3.org/2000/svg"
   xmlns:sodipodi="http://sodipodi.sourceforge.net/DTD/sodipodi-0.dtd"
   xmlns:inkscape="http://www.inkscape.org/namespaces/inkscape"
   width="200"
   height="150"
   viewBox="0 0 200 150"
   id="svg2"
   version="1.1"
   inkscape:version="0.91 r13725"
   sodipodi:docname="Bears.svg">
  <defs
     id="defs4">
    <pattern
       y="0"
       x="0"
       height="6"
       width="6"
       patternUnits="userSpaceOnUse"
       id="EMFhbasepattern" />
    <pattern
       y="0"
       x="0"
       height="6"
       width="6"
       patternUnits="userSpaceOnUse"
       id="EMFhbasepattern-5" />
    <pattern
       y="0"
       x="0"
       height="6"
       width="6"
       patternUnits="userSpaceOnUse"
       id="EMFhbasepattern-52" />
    <pattern
       y="0"
       x="0"
       height="6"
       width="6"
       patternUnits="userSpaceOnUse"
       id="EMFhbasepattern-2" />
    <pattern
       y="0"
       x="0"
       height="6"
       width="6"
       patternUnits="userSpaceOnUse"
       id="EMFhbasepattern-1" />
    <pattern
       y="0"
       x="0"
       height="6"
       width="6"
       patternUnits="userSpaceOnUse"
       id="EMFhbasepattern-8" />
    <pattern
       y="0"
       x="0"
       height="6"
       width="6"
       patternUnits="userSpaceOnUse"
       id="EMFhbasepattern-4" />
    <inkscape:path-effect
       effect="spiro"
       id="path-effect5209"
       is_visible="true" />
    <inkscape:path-effect
       effect="spiro"
       id="path-effect5205"
       is_visible="true" />
  </defs>
  <sodipodi:namedview
     id="base"
     pagecolor="#ffffff"
     bordercolor="#666666"
     borderopacity="1.0"
     inkscape:pageopacity="0.0"
     inkscape:pageshadow="2"
     inkscape:zoom="0.98994949"
     inkscape:cx="106.68486"
     inkscape:cy="109.7295"
     inkscape:document-units="px"
     inkscape:current-layer="layer1"
     showgrid="false"
     fit-margin-top="0"
     fit-margin-left="0"
     fit-margin-right="0"
     fit-margin-bottom="0"
     units="px"
     inkscape:window-width="1440"
     inkscape:window-height="837"
     inkscape:window-x="1432"
     inkscape:window-y="-8"
     inkscape:window-maximized="1" />
  <metadata
     id="metadata7">
    <rdf:RDF>
      <cc:Work
         rdf:about="">
        <dc:format>image/svg+xml</dc:format>
        <dc:type
           rdf:resource="http://purl.org/dc/dcmitype/StillImage" />
        <dc:title></dc:title>
      </cc:Work>
    </rdf:RDF>
  </metadata>
  <g
     inkscape:label="Layer 1"
     inkscape:groupmode="layer"
     id="layer1"
     transform="translate(536.30539,-546.064)">
    <g
       id="g4427"
       transform="matrix(0.7398416,0,0,0.7398416,2.7523074,39.501168)">
      <path
         inkscape:export-ydpi="150.05879"
         inkscape:export-xdpi="150.05879"
         inkscape:export-filename="/home/chrx/Sites/sjtfl-env/sjtfl/static/img/Bears.png"
         d="m -1281.6445,2283.6191 a 13.602828,13.602828 0 0 0 -13.6563,13.6016 l 0,75.125 0,75.125 a 13.602828,13.602828 0 0 0 13.6446,13.6016 l 100.5312,-0.3203 a 13.602828,13.602828 0 0 0 0,0 l 100.5312,-0.3262 a 13.602828,13.602828 0 0 0 4.3027,-0.7129 l 8.0196,-2.7051 a 13.602828,13.602828 0 0 0 0,-0 c 18.4008,-6.2087 31.2656,-15.2537 38.0937,-28.92 l -0,0 c 6.5452,-13.0971 7.1006,-28.4048 0.623,-41.4043 -3.4311,-6.8855 -8.3072,-12.6599 -14.0762,-17.4433 8.7536,-9.2621 13.8301,-21.4874 13.8301,-34.4727 0,-11.5066 -4.6532,-22.8528 -12.9941,-30.8359 -8.3405,-7.9828 -19.4334,-12.9932 -32.9121,-16.5703 l -0,0 c -4.8272,-1.2818 -10.1332,-2.3045 -23.9531,-2.6817 -13.8215,-0.3772 -37.9304,-0.4783 -85.4609,-0.6699 l -96.5215,-0.3887 z"
         id="path4259"
         style="fill:#ffffff;fill-opacity:1"
         inkscape:original="M -1281.6992 2297.2207 L -1281.6992 2372.3457 L -1281.6992 2447.4707 L -1181.168 2447.1504 L -1080.6367 2446.8242 L -1072.6172 2444.1191 C -1055.6589 2438.3972 -1047.5883 2432.5026 -1042.3438 2422.0059 C -1037.5968 2412.5071 -1037.3649 2401.505 -1041.7285 2392.748 C -1045.1801 2385.8214 -1053.8116 2377.4034 -1061.0898 2373.8672 C -1063.9635 2372.4713 -1066.3145 2370.9455 -1066.3145 2370.4746 C -1066.3145 2370.0037 -1063.526 2367.7663 -1060.1172 2365.5039 C -1049.0631 2358.1664 -1043.4023 2347.7564 -1043.4023 2334.7656 C -1043.4023 2317.9775 -1054.9278 2306.9465 -1079.1973 2300.5059 C -1088.5125 2298.0323 -1090.1198 2297.9925 -1185.1777 2297.6094 L -1281.6992 2297.2207 z "
         inkscape:radius="13.601468"
         sodipodi:type="inkscape:offset"
         transform="translate(566.68849,-1586.2817)" />
      <path
         inkscape:connector-curvature="0"
         id="path4248"
         d="m -715.01011,786.06422 0,-75.1249 96.5216,0.3876 c 95.0579,0.3831 96.665,0.4233 105.9802,2.89691 24.2695,6.44059 35.7945,17.47159 35.7945,34.25969 0,12.9908 -5.6609,23.40111 -16.715,30.7386 -3.4088,2.2624 -6.1978,4.49901 -6.1978,4.9699 0,0.4709 2.3506,1.9982 5.2243,3.39411 7.2782,3.53619 15.9099,11.9528 19.3615,18.8794 4.3636,8.757 4.1328,19.7603 -0.614,29.2591 -5.2447,10.4967 -13.3147,16.3907 -30.273,22.1126 l -8.0196,2.7058 -100.5313,0.3252 -100.5314,0.3207 z m 135.8608,30.02221 c 3.3001,-3.8379 3.5553,-8.7289 0.6434,-12.3248 -1.9408,-2.3965 -3.4681,-2.7026 -18.0442,-3.616 -20.7364,-1.2987 -21.0794,-1.1499 -21.0794,9.1638 0,4.7088 0.5694,8.3956 1.4323,9.2764 1.0649,1.0866 5.6427,1.3656 17.8583,1.0884 16.3818,-0.3742 16.4335,-0.3831 19.1896,-3.5878 z m -2.5463,-48.99571 c 3.6811,-2.8955 4.1288,-8.8679 0.8853,-11.8031 -4.0837,-3.6961 -32.3136,-5.9086 -35.4443,-2.7783 -1.44,1.4399 -1.9461,14.85671 -0.6108,16.192 0.4187,0.4188 7.8257,0.7636 16.4575,0.7636 14.1421,0 15.9919,-0.2361 18.7123,-2.3742 z"
         style="fill:#d30d09;fill-opacity:1"
         sodipodi:nodetypes="ccccscscscccccccscsccccccssc"
         inkscape:export-filename="/home/chrx/Sites/sjtfl-env/sjtfl/static/img/Bears.png"
         inkscape:export-xdpi="150.05879"
         inkscape:export-ydpi="150.05879" />
    </g>
  </g>
</svg>
