<svg width="1160" height="1152" viewBox="0 0 1160 1152" fill="none" xmlns="http://www.w3.org/2000/svg">
<path d="M216.15 1099V1054.5C269.558 1040.12 306.097 1038.26 354.65 1048C368.846 1051.16 366.892 1054.52 370.15 1064V1117.5C365.673 1123.3 362.718 1124.7 356.65 1124.5C333.493 1119.31 321.199 1117.19 300.65 1115V1064C293.01 1054.38 288.843 1050.69 282.65 1064L278.15 1112C254.869 1105.61 241.348 1102.68 216.15 1099Z" fill="#2B9C4B" stroke="black" stroke-width="5"/>
<path fill-rule="evenodd" clip-rule="evenodd" d="M419.65 1050L477.15 926.002L585.65 896.502C594.696 895.415 597.062 897.822 599.15 904.502C597.856 978.154 595.918 1016.17 583.65 1060C510.387 1074.67 473.02 1075.42 419.65 1050ZM494.15 1042C495.75 1041.2 509.817 1014.34 516.65 1001V1039C508.735 1042.47 503.998 1043.61 494.15 1042Z" fill="white"/>
<path d="M477.15 926.002L476.494 923.589L475.372 923.895L474.882 924.95L477.15 926.002ZM419.65 1050L417.382 1048.95L416.341 1051.19L418.575 1052.26L419.65 1050ZM585.65 896.502L585.352 894.02L585.171 894.041L584.994 894.089L585.65 896.502ZM599.15 904.502L601.65 904.546L601.657 904.142L601.537 903.756L599.15 904.502ZM583.65 1060L584.141 1062.45L585.645 1062.15L586.058 1060.68L583.65 1060ZM516.65 1001H519.15L514.426 999.862L516.65 1001ZM494.15 1042L493.032 1039.77L486.116 1043.22L493.748 1044.47L494.15 1042ZM516.65 1039L517.654 1041.29L519.15 1040.64V1039H516.65ZM474.882 924.95L417.382 1048.95L421.918 1051.05L479.418 927.054L474.882 924.95ZM584.994 894.089L476.494 923.589L477.806 928.414L586.306 898.914L584.994 894.089ZM601.537 903.756C600.478 900.368 599.156 897.319 596.381 895.499C593.618 893.686 589.993 893.462 585.352 894.02L585.949 898.984C590.354 898.454 592.435 898.89 593.638 899.68C594.83 900.461 595.735 901.956 596.764 905.248L601.537 903.756ZM586.058 1060.68C598.422 1016.49 600.356 978.185 601.65 904.546L596.651 904.458C595.357 978.123 593.413 1015.84 581.243 1059.33L586.058 1060.68ZM418.575 1052.26C445.503 1065.09 468.513 1071.36 494.075 1072.53C519.566 1073.7 547.473 1069.8 584.141 1062.45L583.16 1057.55C546.564 1064.88 519.156 1068.68 494.305 1067.54C469.525 1066.4 447.167 1060.34 420.725 1047.74L418.575 1052.26ZM514.426 999.862C511.013 1006.52 505.797 1016.55 501.237 1025.02C498.955 1029.25 496.849 1033.07 495.219 1035.88C494.401 1037.28 493.721 1038.4 493.208 1039.18C492.949 1039.58 492.757 1039.84 492.629 1040.01C492.564 1040.09 492.542 1040.11 492.557 1040.1C492.566 1040.09 492.602 1040.05 492.663 1040C492.716 1039.96 492.842 1039.86 493.032 1039.77L495.268 1044.24C495.696 1044.02 495.993 1043.73 496.115 1043.61C496.278 1043.44 496.426 1043.27 496.554 1043.11C496.811 1042.78 497.092 1042.38 497.384 1041.93C497.974 1041.04 498.708 1039.82 499.541 1038.39C501.213 1035.51 503.35 1031.64 505.639 1027.39C510.221 1018.88 515.454 1008.82 518.875 1002.14L514.426 999.862ZM519.15 1039V1001H514.15V1039H519.15ZM493.748 1044.47C498.828 1045.3 502.753 1045.45 506.5 1044.88C510.233 1044.31 513.635 1043.05 517.654 1041.29L515.646 1036.71C511.75 1038.42 508.826 1039.47 505.75 1039.93C502.688 1040.4 499.32 1040.31 494.553 1039.53L493.748 1044.47Z" fill="black"/>
<path d="M582.65 1075.5C504.449 1090.4 468.333 1087.54 416.65 1064L380.15 1129C401.764 1136.51 417.075 1138.25 446.15 1140L466.15 1106H506.65L495.65 1145C518.423 1148.37 533.683 1148.79 562.65 1148.5L582.65 1075.5Z" fill="white" stroke="black" stroke-width="5"/>
<path d="M635.65 887.502C634.961 954.832 632.185 991.44 619.15 1053C699.128 1035.23 737.641 1038.83 800.15 1058.5C858.382 989.713 887.694 947.16 933.15 863.502H853.65L810.65 943.002L815.15 867.502H757.65L717.15 949.502V875.002L635.65 887.502Z" fill="#EA0061" stroke="black" stroke-width="5"/>
<path d="M616.15 1068L590.15 1148.5H642.65L709.65 1063L676.65 1148.5H730.15L793.65 1073.5C732.933 1049.41 692.593 1051.97 616.15 1068Z" fill="#EA0061" stroke="black" stroke-width="5"/>
<path d="M954.15 867.502C945.416 896.315 939.946 912.135 927.15 938.502H994.15L863.15 1071.5C927.641 1088.83 961.959 1083.5 1021.15 1057.5C1023.36 1050.01 1022.81 1046.78 1013.65 1045.5C994.997 1051.57 983.663 1053.84 960.15 1053.5L1127.65 887.002C1066.89 873.295 1027.57 870.183 954.15 867.502Z" fill="#EA0061" stroke="black" stroke-width="5"/>
<path d="M852.15 1085C834.15 1102.17 797.55 1137.5 795.15 1141.5C863.979 1133.93 902.281 1127.58 970.15 1113L998.65 1082C939.621 1096.89 907.338 1099.18 852.15 1085Z" fill="#EA0061" stroke="black" stroke-width="5"/>
<path fill-rule="evenodd" clip-rule="evenodd" d="M17.15 891.502C8.5483 1050.18 69.732 1053.59 195.15 1043C203.253 972.023 185.53 941.772 91.65 914.502C66.1033 909.123 51.4393 903.733 37.1956 898.498C30.7508 896.129 24.3919 893.792 17.15 891.502ZM102.65 983.002C112.125 986.976 116.585 989.775 122.65 996.002C124.656 1009.8 120.713 1013.29 107.15 1011.5C102.9 1000.78 102.249 994.491 102.65 983.002Z" fill="#2B9C4B"/>
<path d="M195.15 1043L195.36 1045.49L197.401 1045.32L197.634 1043.29L195.15 1043ZM17.15 891.502L17.9038 889.118L14.8283 888.146L14.6537 891.367L17.15 891.502ZM91.65 914.502L92.3474 912.101L92.2571 912.075L92.1651 912.056L91.65 914.502ZM37.1956 898.498L36.3332 900.845H36.3332L37.1956 898.498ZM122.65 996.002L125.124 995.642L125.007 994.839L124.441 994.258L122.65 996.002ZM102.65 983.002L103.617 980.696L100.278 979.296L100.152 982.915L102.65 983.002ZM107.15 1011.5L104.826 1012.42L105.368 1013.79L106.824 1013.98L107.15 1011.5ZM194.94 1040.51C163.577 1043.16 136.399 1044.91 113.358 1043.61C90.3131 1042.32 71.6767 1037.97 57.2516 1028.63C28.6157 1010.08 15.3481 970.928 19.6463 891.637L14.6537 891.367C10.3502 970.755 23.3736 1012.64 54.5336 1032.83C70.0065 1042.85 89.6443 1047.29 113.076 1048.61C136.512 1049.93 164.013 1048.14 195.36 1045.49L194.94 1040.51ZM90.9526 916.903C137.833 930.52 165.03 944.723 179.657 963.878C194.195 982.917 196.701 1007.38 192.666 1042.72L197.634 1043.29C201.703 1007.65 199.398 981.492 183.631 960.844C167.952 940.311 139.346 925.753 92.3474 912.101L90.9526 916.903ZM36.3332 900.845C50.6175 906.095 65.4131 911.533 91.1349 916.948L92.1651 912.056C66.7935 906.714 52.2611 901.372 38.0581 896.152L36.3332 900.845ZM16.3962 893.886C23.5759 896.156 29.8838 898.474 36.3332 900.845L38.0581 896.152C31.6177 893.784 25.208 891.428 17.9038 889.118L16.3962 893.886ZM124.441 994.258C118.088 987.735 113.321 984.766 103.617 980.696L101.683 985.307C110.93 989.185 115.083 991.816 120.859 997.746L124.441 994.258ZM106.824 1013.98C110.303 1014.44 113.339 1014.58 115.898 1014.25C118.476 1013.92 120.757 1013.07 122.485 1011.38C124.22 1009.69 125.112 1007.43 125.46 1004.83C125.803 1002.26 125.64 999.189 125.124 995.642L120.176 996.362C120.663 999.713 120.759 1002.26 120.504 1004.16C120.252 1006.04 119.687 1007.13 118.992 1007.81C118.29 1008.49 117.167 1009.05 115.254 1009.29C113.321 1009.54 110.779 1009.46 107.476 1009.02L106.824 1013.98ZM100.152 982.915C99.7416 994.661 100.42 1001.31 104.826 1012.42L109.474 1010.58C105.379 1000.25 104.757 994.321 105.149 983.089L100.152 982.915Z" fill="black"/>
<path d="M48.1506 1067.5C79.1509 1083.5 179.08 1088.7 187.651 1060.5C107.682 1068.93 77.9381 1061.07 38.1506 1036C37.9255 1044.18 45.1376 1066.4 48.1506 1067.5Z" fill="#2B9C4B" stroke="black" stroke-width="5"/>
<path fill-rule="evenodd" clip-rule="evenodd" d="M216.65 1037V939.002H350.65C398.382 972.965 392.105 994.147 356.15 1033.5C305 1029.7 274.941 1029.71 216.65 1037ZM290.15 977.002V1003.5H296.15C314.066 990.396 308.849 981.946 290.15 977.002Z" fill="#2B9C4B"/>
<path d="M216.65 939.002V936.502H214.15V939.002H216.65ZM216.65 1037H214.15V1039.83L216.961 1039.48L216.65 1037ZM350.65 939.002L352.1 936.965L351.449 936.502H350.65V939.002ZM356.15 1033.5L355.965 1036L357.177 1036.09L357.996 1035.19L356.15 1033.5ZM290.15 1003.5H287.65V1006H290.15V1003.5ZM290.15 977.002L290.789 974.585L287.65 973.755V977.002H290.15ZM296.15 1003.5V1006H296.967L297.626 1005.52L296.15 1003.5ZM214.15 939.002V1037H219.15V939.002H214.15ZM350.65 936.502H216.65V941.502H350.65V936.502ZM357.996 1035.19C367.016 1025.32 374.281 1016.47 379.308 1008.21C384.338 999.941 387.23 992.094 387.283 984.247C387.389 968.432 376.014 953.981 352.1 936.965L349.201 941.039C373.019 957.986 382.371 971.107 382.283 984.213C382.239 990.826 379.803 997.776 375.036 1005.61C370.265 1013.45 363.262 1022.01 354.305 1031.82L357.996 1035.19ZM216.961 1039.48C275.072 1032.22 304.965 1032.2 355.965 1036L356.336 1031.01C305.035 1027.19 274.809 1027.21 216.34 1034.52L216.961 1039.48ZM292.65 1003.5V977.002H287.65V1003.5H292.65ZM296.15 1001H290.15V1006H296.15V1001ZM289.511 979.419C294.072 980.625 297.656 982.007 300.216 983.533C302.801 985.074 304.063 986.593 304.5 987.955C304.906 989.219 304.769 990.88 303.296 993.179C301.795 995.52 299.039 998.291 294.674 1001.48L297.626 1005.52C302.219 1002.16 305.53 998.96 307.506 995.877C309.509 992.75 310.258 989.533 309.261 986.427C308.297 983.422 305.868 981.081 302.776 979.238C299.658 977.379 295.578 975.851 290.789 974.585L289.511 979.419Z" fill="black"/>
<path d="M377.651 33.4999C699.151 314.502 757.121 556.517 501.651 863C488.736 891.284 488.206 901.907 512.651 901C857.407 794.757 1003.15 765.335 1068.15 836.5C1080.42 848.325 1087.48 850.082 1100.65 836.5C1261.15 542.5 1097.69 274.91 391.651 3C368.598 5.31492 364.084 11.2404 377.651 33.4999Z" fill="#EA0061" stroke="black" stroke-width="5"/>
<path fill-rule="evenodd" clip-rule="evenodd" d="M135.149 554.505V703.005C130.102 712.488 126.96 716.89 118.649 717.005C111.413 723.57 114.149 730.005 127.149 730.005H248.149C311.413 692.601 312.649 634.505 258.149 613.005C299.061 571.882 279.649 535.502 235.649 525.505H107.649C95.446 527.219 99.6507 538.505 107.649 538.505C115.647 538.505 128.156 543.387 135.149 554.505ZM175.15 548.002V602.002C177.261 607.049 179.162 608.237 183.15 609.002H224.65C252.15 593.002 248.262 560.048 207.65 540.002H183.15C179.416 541.813 177.516 543.231 175.15 548.002ZM174.65 636.001V695.001C177.562 702.38 179.835 705.894 187.15 709.001H231.15C262.65 692.001 267.259 649.914 217.15 630.501H184.65C179.616 630.911 177.465 632.203 174.65 636.001Z" fill="#2B9B4C"/>
<path d="M135.149 703.005L137.356 704.18L137.649 703.629V703.005H135.149ZM135.149 554.505H137.649V553.784L137.265 553.174L135.149 554.505ZM118.649 717.005L118.614 714.505L117.669 714.518L116.969 715.153L118.649 717.005ZM248.149 730.005V732.505H248.833L249.421 732.157L248.149 730.005ZM258.149 613.005L256.377 611.242L253.696 613.936L257.232 615.33L258.149 613.005ZM235.649 525.505L236.203 523.067L235.93 523.005H235.649V525.505ZM107.649 525.505V523.005H107.474L107.301 523.029L107.649 525.505ZM175.15 602.002H172.65V602.504L172.844 602.966L175.15 602.002ZM175.15 548.002L172.911 546.891L172.65 547.416V548.002H175.15ZM183.15 609.002L182.679 611.457L182.913 611.502H183.15V609.002ZM224.65 609.002V611.502H225.325L225.908 611.163L224.65 609.002ZM207.65 540.002L208.757 537.76L208.234 537.502H207.65V540.002ZM183.15 540.002V537.502H182.576L182.06 537.752L183.15 540.002ZM174.65 695.001H172.15V695.476L172.325 695.919L174.65 695.001ZM174.65 636.001L172.642 634.512L172.15 635.176V636.001H174.65ZM187.15 709.001L186.173 711.302L186.641 711.501H187.15V709.001ZM231.15 709.001V711.501H231.782L232.338 711.201L231.15 709.001ZM217.15 630.501L218.054 628.17L217.618 628.001H217.15V630.501ZM184.65 630.501V628.001H184.549L184.448 628.009L184.65 630.501ZM137.649 703.005V554.505H132.649V703.005H137.649ZM118.684 719.505C123.369 719.44 126.858 718.128 129.832 715.342C132.635 712.717 134.856 708.876 137.356 704.18L132.942 701.83C130.395 706.616 128.521 709.719 126.413 711.693C124.477 713.508 122.24 714.455 118.614 714.505L118.684 719.505ZM127.149 727.505C124.083 727.505 121.78 727.123 120.162 726.543C118.531 725.959 117.783 725.249 117.475 724.715C117.026 723.938 116.892 721.975 120.329 718.856L116.969 715.153C113.17 718.6 110.787 723.136 113.146 727.218C114.242 729.114 116.164 730.423 118.476 731.25C120.801 732.083 123.715 732.505 127.149 732.505V727.505ZM248.149 727.505H127.149V732.505H248.149V727.505ZM257.232 615.33C283.718 625.779 296.135 644.819 294.816 665.381C293.483 686.146 278.098 709.393 246.877 727.853L249.421 732.157C281.464 713.212 298.329 688.71 299.806 665.701C301.295 642.489 287.08 621.731 259.067 610.679L257.232 615.33ZM235.095 527.943C256.636 532.837 271.52 544.041 276.373 558.384C281.187 572.611 276.481 591.034 256.377 611.242L259.921 614.768C280.729 593.853 286.774 573.524 281.109 556.781C275.484 540.154 258.662 528.17 236.203 523.067L235.095 527.943ZM107.649 528.005H235.649V523.005H107.649V528.005ZM107.649 536.005C104.801 536.005 102.844 533.996 102.537 532.221C102.398 531.42 102.577 530.646 103.215 529.953C103.898 529.212 105.309 528.358 107.997 527.981L107.301 523.029C103.887 523.509 101.249 524.708 99.5375 526.565C97.7816 528.471 97.2233 530.84 97.6102 533.074C98.3542 537.372 102.499 541.005 107.649 541.005V536.005ZM137.265 553.174C129.768 541.254 116.415 536.005 107.649 536.005V541.005C114.88 541.005 126.544 545.52 133.033 555.836L137.265 553.174ZM177.65 602.002V548.002H172.65V602.002H177.65ZM183.622 606.547C181.762 606.19 180.789 605.801 180.039 605.181C179.263 604.539 178.453 603.421 177.457 601.037L172.844 602.966C173.958 605.631 175.154 607.629 176.853 609.034C178.578 610.461 180.55 611.049 182.679 611.457L183.622 606.547ZM224.65 606.502H183.15V611.502H224.65V606.502ZM206.544 542.244C226.464 552.077 236.845 564.814 239.243 576.521C241.6 588.025 236.394 599.277 223.393 606.841L225.908 611.163C240.407 602.727 247.007 589.502 244.141 575.518C241.318 561.736 229.449 547.974 208.757 537.76L206.544 542.244ZM183.15 542.502H207.65V537.502H183.15V542.502ZM177.39 549.113C178.502 546.871 179.413 545.605 180.36 544.703C181.312 543.798 182.439 543.126 184.241 542.251L182.06 537.752C180.128 538.689 178.437 539.631 176.914 541.081C175.386 542.534 174.165 544.362 172.911 546.891L177.39 549.113ZM177.15 695.001V636.001H172.15V695.001H177.15ZM188.128 706.7C184.711 705.249 182.682 703.795 181.16 701.991C179.593 700.133 178.417 697.736 176.976 694.083L172.325 695.919C173.795 699.644 175.212 702.694 177.338 705.215C179.51 707.79 182.274 709.646 186.173 711.302L188.128 706.7ZM231.15 706.501H187.15V711.501H231.15V706.501ZM216.247 632.832C240.731 642.318 251.185 657.041 252.261 670.85C253.343 684.74 245.031 698.669 229.963 706.801L232.338 711.201C248.77 702.333 258.512 686.718 257.246 670.462C255.973 654.125 243.678 638.098 218.054 628.17L216.247 632.832ZM184.65 633.001H217.15V628.001H184.65V633.001ZM176.659 637.489C177.977 635.711 178.967 634.761 180.038 634.163C181.11 633.563 182.5 633.184 184.853 632.993L184.448 628.009C181.766 628.228 179.563 628.7 177.598 629.798C175.632 630.897 174.139 632.493 172.642 634.512L176.659 637.489Z" fill="black"/>
<path d="M374.648 222.504C428.131 294.74 424.88 337.231 363.648 416.504C268.28 531.009 293.915 603.136 381.648 736.004C382.87 770.665 382.751 790.429 381.648 826.004C385.39 839.415 395.025 841.781 406.648 820.004C422.58 770.687 418.541 738.74 392.648 675.504C382.584 627.796 386.114 601.063 406.648 553.504C494.988 398.454 497.196 319.902 396.648 198.504C375.157 198.538 371.175 204.504 374.648 222.504Z" fill="#2B9C4B" stroke="black" stroke-width="5"/>
<path d="M462.151 649.002C487.282 717.177 509.212 723.425 557.151 698.502V652.502C546.162 646.974 539.707 644.144 526.151 641.002C522.524 632.275 524.237 629.053 536.151 627.002H610.151C619.443 631.978 620.152 635.126 614.151 641.002C606.516 643.015 603.093 644.854 598.151 649.002L597.151 701.502C505.791 748.712 465.455 747.919 424.651 668.502C419.236 637.569 418.651 620.592 424.651 591.502C465.432 508.709 503.465 506.302 582.651 535.002C591.39 528.028 594.519 529.999 598.151 540.002V597.502C590.797 602.642 586.78 604.902 582.651 591.502C564.702 532.518 493.33 503.127 462.151 597.502V649.002Z" fill="white" stroke="black" stroke-width="5"/>
<path d="M383.151 429.002C322.384 509.333 331.468 563.545 367.651 664.502C362.948 606.925 359.543 574.577 391.151 520.502C441.144 422.59 444.765 382.43 437.651 319.002C423.764 361.492 411.725 385.672 383.151 429.002Z" fill="#C4C4C4" stroke="black" stroke-width="5"/>
<path fill-rule="evenodd" clip-rule="evenodd" d="M707.65 766.502V744.502C712.622 727.871 718.176 727.774 730.65 736.002C740.513 747.698 745.412 750.928 751.15 741.002V551.502L737.15 536.502H720.65C715.837 529.517 715.14 526.055 720.65 521.502H804.65C809.779 526.065 812.582 527.621 817.65 528.502C822.062 527.021 824.208 525.573 827.15 521.502H1017.15C1068.87 547.403 1070.65 586.502 1034.15 609.502C1095.23 629.562 1089.15 712.002 1019.65 725.502H821.65C813.801 724.252 811.02 722.565 810.15 717.002C819.244 713.163 822.873 710.162 827.15 702.502V551.502C825.569 542.68 823.316 539.64 817.65 536.502H799.65C792.309 540.117 790.544 543.76 789.15 551.502V722.002C777.787 750.499 768.542 762.588 746.15 776.002H720.65C715.646 773.514 712.785 771.271 707.65 766.502ZM869.15 546.003V694.003C889.811 720.972 899.841 719.47 916.15 699.503V554.503C893.845 534.101 882.924 529.498 869.15 546.003ZM957.15 601.502V550.502C958.323 543.9 959.609 540.8 964.65 538.002H993.65C1030.51 566.029 1030.65 597.002 1001.15 609.002H969.65C963.283 607.868 960.392 606.415 957.15 601.502ZM958.15 636.002V698.502C962.748 704.461 966.001 706.817 973.15 709.002H1011.65C1049.15 682.502 1045.95 644.81 1002.65 628.002H966.65C961.853 629.577 959.945 631.253 958.15 636.002Z" fill="white"/>
<path d="M707.65 744.502L705.255 743.786L705.15 744.136V744.502H707.65ZM707.65 766.502H705.15V767.592L705.949 768.334L707.65 766.502ZM730.65 736.002L732.562 734.39L732.329 734.114L732.027 733.915L730.65 736.002ZM751.15 741.002L753.315 742.253L753.65 741.673V741.002H751.15ZM751.15 551.502H753.65V550.517L752.978 549.796L751.15 551.502ZM737.15 536.502L738.978 534.796L738.237 534.002H737.15V536.502ZM720.65 536.502L718.592 537.921L719.337 539.002H720.65V536.502ZM720.65 521.502V519.002H719.751L719.058 519.575L720.65 521.502ZM804.65 521.502L806.312 519.634L805.602 519.002H804.65V521.502ZM817.65 528.502L817.222 530.965L817.846 531.073L818.446 530.872L817.65 528.502ZM827.15 521.502V519.002H825.873L825.124 520.037L827.15 521.502ZM1017.15 521.502L1018.27 519.267L1017.74 519.002H1017.15V521.502ZM1034.15 609.502L1032.82 607.387L1028.32 610.219L1033.37 611.877L1034.15 609.502ZM1019.65 725.502V728.002H1019.89L1020.13 727.956L1019.65 725.502ZM821.65 725.502L821.257 727.971L821.453 728.002H821.65V725.502ZM810.15 717.002L809.178 714.699L807.379 715.458L807.68 717.388L810.15 717.002ZM827.15 702.502L829.333 703.721L829.65 703.153V702.502H827.15ZM827.15 551.502H829.65V551.28L829.611 551.061L827.15 551.502ZM817.65 536.502L818.862 534.315L818.297 534.002H817.65V536.502ZM799.65 536.502V534.002H799.068L798.546 534.259L799.65 536.502ZM789.15 551.502L786.69 551.059L786.65 551.279V551.502H789.15ZM789.15 722.002L791.473 722.928L791.65 722.482V722.002H789.15ZM746.15 776.002V778.502H746.842L747.435 778.147L746.15 776.002ZM720.65 776.002L719.537 778.24L720.063 778.502H720.65V776.002ZM869.15 694.003H866.65V694.851L867.166 695.524L869.15 694.003ZM869.15 546.003L867.231 544.401L866.65 545.097V546.003H869.15ZM916.15 699.503L918.087 701.085L918.65 700.395V699.503H916.15ZM916.15 554.503H918.65V553.402L917.838 552.659L916.15 554.503ZM957.15 550.502L954.689 550.065L954.65 550.282V550.502H957.15ZM957.15 601.502H954.65V602.252L955.064 602.879L957.15 601.502ZM964.65 538.002V535.502H964.003L963.437 535.816L964.65 538.002ZM993.65 538.002L995.164 536.012L994.493 535.502H993.65V538.002ZM1001.15 609.002V611.502H1001.64L1002.09 611.318L1001.15 609.002ZM969.65 609.002L969.212 611.463L969.43 611.502H969.65V609.002ZM958.15 698.502H955.65V699.354L956.171 700.029L958.15 698.502ZM958.15 636.002L955.812 635.118L955.65 635.545V636.002H958.15ZM973.15 709.002L972.42 711.393L972.777 711.502H973.15V709.002ZM1011.65 709.002V711.502H1012.44L1013.09 711.044L1011.65 709.002ZM1002.65 628.002L1003.56 625.671L1003.12 625.502H1002.65V628.002ZM966.65 628.002V625.502H966.25L965.871 625.627L966.65 628.002ZM705.15 744.502V766.502H710.15V744.502H705.15ZM732.027 733.915C728.866 731.83 725.994 730.169 723.376 729.181C720.751 728.19 718.13 727.779 715.616 728.536C713.072 729.302 711.093 731.125 709.479 733.657C707.882 736.162 706.524 739.543 705.255 743.786L710.046 745.218C711.263 741.146 712.463 738.277 713.695 736.344C714.911 734.438 716.032 733.632 717.058 733.324C718.113 733.006 719.53 733.074 721.61 733.859C723.698 734.647 726.198 736.06 729.274 738.089L732.027 733.915ZM748.986 739.751C747.624 742.107 746.486 743.358 745.565 743.948C744.798 744.439 744.12 744.524 743.218 744.232C742.15 743.886 740.755 742.991 738.906 741.279C737.087 739.595 735.012 737.296 732.562 734.39L728.739 737.614C731.22 740.556 733.456 743.047 735.509 744.948C737.532 746.82 739.569 748.306 741.677 748.988C743.949 749.725 746.189 749.487 748.262 748.158C750.182 746.927 751.808 744.86 753.315 742.253L748.986 739.751ZM748.65 551.502V741.002H753.65V551.502H748.65ZM735.323 538.208L749.323 553.208L752.978 549.796L738.978 534.796L735.323 538.208ZM720.65 539.002H737.15V534.002H720.65V539.002ZM719.058 519.575C716.06 522.052 714.151 524.73 714.281 528.184C714.399 531.303 716.211 534.466 718.592 537.921L722.709 535.083C720.277 531.554 719.334 529.492 719.277 527.996C719.234 526.835 719.731 525.505 722.243 523.429L719.058 519.575ZM804.65 519.002H720.65V524.002H804.65V519.002ZM818.079 526.039C815.734 525.631 814.04 525.092 812.363 524.184C810.643 523.253 808.831 521.875 806.312 519.634L802.989 523.37C805.598 525.692 807.752 527.373 809.983 528.581C812.256 529.812 814.498 530.492 817.222 530.965L818.079 526.039ZM825.124 520.037C823.737 521.956 822.644 523.107 821.483 523.95C820.32 524.793 818.951 525.429 816.855 526.132L818.446 530.872C820.762 530.095 822.671 529.265 824.419 527.997C826.17 526.727 827.621 525.118 829.176 522.967L825.124 520.037ZM1017.15 519.002H827.15V524.002H1017.15V519.002ZM1035.48 611.617C1054.26 599.785 1063.74 583.409 1061.2 566.224C1058.69 549.183 1044.47 532.39 1018.27 519.267L1016.03 523.737C1041.54 536.515 1054.08 552.222 1056.26 566.955C1058.41 581.545 1050.54 596.219 1032.82 607.387L1035.48 611.617ZM1020.13 727.956C1055.89 721.009 1075.66 696.184 1078.36 670.22C1081.05 644.256 1066.6 617.527 1034.93 607.127L1033.37 611.877C1062.78 621.536 1075.84 646.057 1073.38 669.704C1070.93 693.35 1052.91 716.495 1019.17 723.048L1020.13 727.956ZM821.65 728.002H1019.65V723.002H821.65V728.002ZM807.68 717.388C808.178 720.57 809.314 723.109 811.831 724.905C814.137 726.55 817.324 727.345 821.257 727.971L822.044 723.033C818.127 722.409 815.999 721.736 814.735 720.834C813.682 720.083 812.993 718.997 812.62 716.616L807.68 717.388ZM824.968 701.283C822.91 704.969 821.107 707.355 818.839 709.278C816.548 711.222 813.641 712.815 809.178 714.699L811.123 719.305C815.753 717.35 819.208 715.523 822.074 713.091C824.964 710.639 827.114 707.696 829.333 703.721L824.968 701.283ZM824.65 551.502V702.502H829.65V551.502H824.65ZM816.439 538.689C819.09 540.157 820.679 541.458 821.837 543.235C823.033 545.07 823.919 547.643 824.69 551.943L829.611 551.061C828.8 546.539 827.769 543.181 826.027 540.506C824.246 537.773 821.876 535.985 818.862 534.315L816.439 538.689ZM799.65 539.002H817.65V534.002H799.65V539.002ZM791.611 551.945C792.297 548.132 793.019 545.712 794.258 543.828C795.459 542.003 797.311 540.44 800.755 538.745L798.546 534.259C794.648 536.178 791.947 538.245 790.081 541.08C788.254 543.858 787.397 547.13 786.69 551.059L791.611 551.945ZM791.65 722.002V551.502H786.65V722.002H791.65ZM747.435 778.147C758.796 771.341 766.971 764.781 773.747 756.209C780.5 747.667 785.758 737.259 791.473 722.928L786.828 721.076C781.18 735.242 776.134 745.127 769.825 753.108C763.54 761.058 755.897 767.249 744.866 773.857L747.435 778.147ZM720.65 778.502H746.15V773.502H720.65V778.502ZM705.949 768.334C711.171 773.183 714.232 775.602 719.537 778.24L721.764 773.763C717.061 771.425 714.399 769.358 709.352 764.67L705.949 768.334ZM871.65 694.003V546.003H866.65V694.003H871.65ZM914.214 697.922C910.181 702.859 906.665 706.49 903.383 708.822C900.14 711.126 897.276 712.058 894.457 711.86C891.594 711.66 888.373 710.267 884.496 707.11C880.615 703.949 876.252 699.162 871.135 692.483L867.166 695.524C872.379 702.329 877.017 707.467 881.338 710.986C885.662 714.508 889.841 716.549 894.107 716.848C898.417 717.15 902.409 715.648 906.28 712.898C910.112 710.175 913.965 706.13 918.087 701.085L914.214 697.922ZM913.65 554.503V699.503H918.65V554.503H913.65ZM871.07 547.605C874.393 543.623 877.385 541.113 880.24 539.758C883.023 538.437 885.803 538.151 888.899 538.851C892.075 539.57 895.656 541.344 899.906 544.3C904.145 547.247 908.913 551.272 914.463 556.348L917.838 552.659C912.235 547.534 907.273 543.332 902.761 540.194C898.259 537.064 894.068 534.894 890.003 533.975C885.859 533.037 881.932 533.42 878.096 535.241C874.333 537.027 870.795 540.131 867.231 544.401L871.07 547.605ZM954.65 550.502V601.502H959.65V550.502H954.65ZM963.437 535.816C960.621 537.379 958.651 539.15 957.271 541.599C955.949 543.946 955.28 546.737 954.689 550.065L959.612 550.939C960.194 547.665 960.754 545.605 961.628 544.053C962.445 542.601 963.638 541.423 965.864 540.188L963.437 535.816ZM993.65 535.502H964.65V540.502H993.65V535.502ZM1002.09 611.318C1017.6 605.008 1025.83 593.395 1024.78 579.325C1023.75 565.556 1013.86 550.227 995.164 536.012L992.137 539.992C1010.3 553.804 1018.91 567.975 1019.79 579.699C1020.65 591.123 1014.2 600.996 1000.21 606.686L1002.09 611.318ZM969.65 611.502H1001.15V606.502H969.65V611.502ZM955.064 602.879C956.817 605.536 958.608 607.455 960.971 608.83C963.283 610.175 965.95 610.882 969.212 611.463L970.089 606.541C966.984 605.988 965.021 605.401 963.486 604.508C962.001 603.645 960.726 602.381 959.237 600.125L955.064 602.879ZM960.65 698.502V636.002H955.65V698.502H960.65ZM973.881 706.611C970.443 705.561 968.117 704.521 966.133 703.124C964.143 701.722 962.357 699.862 960.13 696.975L956.171 700.029C958.541 703.101 960.681 705.399 963.254 707.211C965.833 709.028 968.708 710.259 972.42 711.393L973.881 706.611ZM1011.65 706.502H973.15V711.502H1011.65V706.502ZM1001.75 630.333C1022.88 638.537 1033.57 651.551 1034.96 665.123C1036.36 678.735 1028.53 694.01 1010.21 706.96L1013.09 711.044C1032.27 697.494 1041.59 680.673 1039.94 664.612C1038.28 648.511 1025.72 634.275 1003.56 625.671L1001.75 630.333ZM966.65 630.502H1002.65V625.502H966.65V630.502ZM960.489 636.886C961.323 634.678 962.078 633.478 962.976 632.643C963.886 631.797 965.159 631.123 967.43 630.377L965.871 625.627C963.344 626.456 961.264 627.407 959.572 628.981C957.868 630.564 956.772 632.577 955.812 635.118L960.489 636.886Z" fill="black"/>
<path fill-rule="evenodd" clip-rule="evenodd" d="M379.148 848.999C301.148 811.502 155.649 805.824 19.6482 829.499C-1.33295 845.624 -1.45473 855.34 11.6482 873.499C122.619 920.023 205.603 927.628 379.148 918.498C405.148 908.002 414.91 873.207 379.148 848.999ZM184.15 879C142.566 830.966 108.803 831.582 43.15 847C38.0435 854.431 37.6745 858.57 43.15 866C93.3674 887.39 124.027 894.256 181.15 901.5C189.672 895.564 189.01 890.126 184.15 879ZM207.65 835.502C244.983 859.168 260.142 873.829 274.65 903.002C256.106 907.206 240.362 906.609 207.65 903.002C207.059 868.124 194.206 854.038 156.15 835.502H207.65ZM246.65 840.502C272.495 864.803 283.383 879.393 297.15 907.002H347.65C350.953 904.752 351.953 903.062 351.65 899.002C337.206 878.191 321.444 865.464 280.65 840.502H246.65ZM370.15 896.002C354.64 876.583 345.541 866.235 327.65 850.002L346.15 854.002C362.366 862.183 365.095 874.038 369.744 894.237C369.878 894.819 370.013 895.407 370.15 896.002Z" fill="#2B9B4C"/>
<path d="M19.6482 829.499L19.2195 827.036L18.6129 827.141L18.1248 827.516L19.6482 829.499ZM379.148 848.999L380.549 846.928L380.397 846.825L380.231 846.745L379.148 848.999ZM11.6482 873.499L9.62092 874.961L10.0327 875.532L10.6816 875.804L11.6482 873.499ZM379.148 918.498L379.279 920.995L379.697 920.973L380.084 920.817L379.148 918.498ZM43.15 847L42.5785 844.566L41.6372 844.787L41.0896 845.584L43.15 847ZM184.15 879L186.441 877.999L186.289 877.651L186.04 877.364L184.15 879ZM43.15 866L41.1375 867.483L41.5424 868.033L42.1704 868.3L43.15 866ZM181.15 901.5L180.836 903.98L181.79 904.101L182.579 903.552L181.15 901.5ZM274.65 903.002L275.203 905.44L278.305 904.737L276.889 901.889L274.65 903.002ZM207.65 835.502L208.989 833.39L208.376 833.002H207.65V835.502ZM207.65 903.002L205.151 903.044L205.188 905.246L207.376 905.487L207.65 903.002ZM156.15 835.502V833.002L155.056 837.75L156.15 835.502ZM297.15 907.002L294.913 908.118L295.603 909.502H297.15V907.002ZM246.65 840.502V838.002H240.342L244.938 842.323L246.65 840.502ZM347.65 907.002V909.502H348.421L349.058 909.068L347.65 907.002ZM351.65 899.002L354.143 898.816L354.093 898.136L353.704 897.576L351.65 899.002ZM280.65 840.502L281.955 838.37L281.355 838.002H280.65V840.502ZM327.65 850.002L328.179 847.558L319.065 845.588L325.97 851.853L327.65 850.002ZM370.15 896.002L368.197 897.562L372.586 895.44L370.15 896.002ZM346.15 854.002L347.276 851.77L346.991 851.626L346.679 851.558L346.15 854.002ZM369.744 894.237L367.308 894.798L367.308 894.798L369.744 894.237ZM20.077 831.961C87.9073 820.154 158.096 815.669 221.024 818.806C284 821.946 339.496 832.71 378.065 851.252L380.231 846.745C340.801 827.79 284.547 816.967 221.273 813.812C157.951 810.655 87.3901 815.169 19.2195 827.036L20.077 831.961ZM13.6755 872.036C7.14288 862.983 4.48574 856.751 5.33858 851.11C6.19545 845.443 10.7274 839.508 21.1717 831.481L18.1248 827.516C7.5879 835.615 1.56835 842.601 0.394773 850.363C-0.782831 858.151 3.05062 865.856 9.62092 874.961L13.6755 872.036ZM379.017 916.002C205.633 925.123 123.084 917.507 12.6148 871.193L10.6816 875.804C122.154 922.539 205.573 930.133 379.279 920.995L379.017 916.002ZM377.747 851.069C395.06 862.789 400.936 876.735 399.82 888.657C398.695 900.669 390.437 911.245 378.212 916.18L380.084 920.817C393.859 915.256 403.482 903.186 404.798 889.123C406.123 874.972 398.998 859.416 380.549 846.928L377.747 851.069ZM43.7216 849.434C76.56 841.722 100.953 837.844 122.234 841.666C143.343 845.457 161.707 856.896 182.26 880.637L186.04 877.364C165.008 853.07 145.699 840.8 123.118 836.745C100.708 832.72 75.3931 836.86 42.5785 844.566L43.7216 849.434ZM45.1626 864.517C42.5348 860.951 41.6485 858.61 41.6815 856.541C41.7152 854.425 42.7125 852.051 45.2105 848.416L41.0896 845.584C38.4811 849.38 36.7406 852.792 36.6821 856.461C36.6229 860.177 38.2898 863.619 41.1375 867.483L45.1626 864.517ZM181.465 899.02C124.505 891.797 94.0818 884.977 44.1297 863.7L42.1704 868.3C92.653 889.803 123.548 896.716 180.836 903.98L181.465 899.02ZM181.859 880.001C184.309 885.61 185.41 889.205 185.177 891.988C184.971 894.45 183.657 896.707 179.721 899.449L182.579 903.552C187.165 900.357 189.781 896.927 190.159 892.405C190.511 888.202 188.851 883.516 186.441 877.999L181.859 880.001ZM276.889 901.889C269.543 887.118 261.98 875.922 251.478 865.419C241.011 854.952 227.703 845.254 208.989 833.39L206.312 837.613C224.931 849.416 237.869 858.881 247.942 868.955C257.979 878.993 265.249 889.713 272.412 904.115L276.889 901.889ZM207.376 905.487C240.109 909.096 256.217 909.744 275.203 905.44L274.098 900.564C255.994 904.668 240.615 904.121 207.924 900.517L207.376 905.487ZM155.056 837.75C174.034 846.994 186.315 854.947 193.987 864.672C201.571 874.287 204.86 885.919 205.151 903.044L210.15 902.96C209.849 885.208 206.416 872.357 197.912 861.576C189.495 850.905 176.322 842.546 157.245 833.254L155.056 837.75ZM207.65 833.002H156.15V838.002H207.65V833.002ZM299.388 905.886C285.476 877.987 274.401 863.163 248.363 838.681L244.938 842.323C270.589 866.442 281.29 880.798 294.913 908.118L299.388 905.886ZM347.65 904.502H297.15V909.502H347.65V904.502ZM349.157 899.188C349.294 901.017 349.1 901.916 348.781 902.534C348.447 903.181 347.794 903.879 346.242 904.936L349.058 909.068C350.809 907.875 352.308 906.602 353.224 904.827C354.155 903.023 354.31 901.047 354.143 898.816L349.157 899.188ZM279.345 842.634C320.077 867.559 335.462 880.063 349.597 900.427L353.704 897.576C338.95 876.319 322.811 863.37 281.955 838.37L279.345 842.634ZM246.65 843.002H280.65V838.002H246.65V843.002ZM325.97 851.853C343.734 867.971 352.742 878.213 368.197 897.562L372.104 894.442C356.538 874.954 347.348 864.499 329.33 848.15L325.97 851.853ZM346.679 851.558L328.179 847.558L327.122 852.445L345.622 856.445L346.679 851.558ZM372.18 893.677C369.877 883.672 367.972 875.325 364.516 868.485C360.976 861.48 355.843 856.092 347.276 851.77L345.024 856.234C352.673 860.093 357.013 864.724 360.053 870.74C363.177 876.923 364.961 884.603 367.308 894.798L372.18 893.677ZM372.586 895.44C372.449 894.845 372.314 894.258 372.18 893.677L367.308 894.798C367.441 895.379 367.577 895.968 367.714 896.564L372.586 895.44Z" fill="black"/>
</svg>
