<svg width="911" height="822" viewBox="0 0 911 822" fill="none" xmlns="http://www.w3.org/2000/svg">
<path d="M901.907 156.106L896.176 142.282L882.015 137.562C881.003 137.225 862.459 130.819 834.812 126.098C814.582 92.3823 759.962 19.5554 668.591 19.5554C652.071 19.5554 635.212 21.9155 618.354 26.9729C595.427 17.5324 544.853 0 483.827 0C441.007 0 400.885 8.42904 364.135 25.2871C347.614 18.8811 320.304 10.7892 285.239 10.7892C251.86 10.7892 218.144 17.8696 185.439 32.0304L180.719 34.0533L176.673 37.4249C174.65 39.1107 140.259 69.4553 126.098 116.321C42.1452 203.983 0 303.108 0 412.011C0 509.788 44.5053 606.217 121.378 684.438C121.378 684.438 202.971 772.1 339.185 822C337.162 815.257 336.15 808.176 336.15 801.096C336.15 742.43 411 702.982 503.045 713.097C508.777 713.771 514.509 714.445 520.24 715.457C550.585 746.139 596.439 764.008 648.025 764.008C653.082 764.008 658.139 763.671 663.197 763.334C758.951 756.591 831.778 691.856 829.08 615.657C828.069 590.37 818.291 566.094 801.433 545.865C807.165 503.045 796.713 466.632 770.751 441.007C794.69 429.881 828.069 408.303 854.367 366.832C873.586 353.345 908.988 316.595 904.267 231.967C909.325 217.469 915.731 188.473 901.907 156.106Z" fill="white"/>
<path d="M876.283 167.231L875.272 164.871L872.911 164.197C871.9 163.86 849.31 156.442 816.943 151.722C808.176 134.527 759.625 47.539 668.254 47.539C651.396 47.539 633.864 50.5735 616.331 56.6424C604.868 51.2478 551.596 27.6465 483.49 27.6465C440.67 27.6465 400.548 37.087 364.134 55.6309C355.368 51.2478 326.71 38.4357 284.902 38.4357C255.231 38.4357 225.561 44.8417 195.891 57.6539L194.542 58.6653C192.856 60.014 161.163 87.9984 151.048 129.469C69.4552 212.411 27.9844 307.153 27.9844 412.011C27.9844 557.664 138.573 704.33 302.771 776.82L308.84 779.517L310.526 773.111C328.395 697.587 394.816 685.449 463.597 683.426C486.861 682.751 509.788 684.1 532.041 687.135C555.979 717.479 599.473 736.36 647.687 736.36C652.071 736.36 656.454 736.36 660.837 736.023C740.07 730.628 802.782 677.357 800.422 617.342C799.41 594.078 789.295 572.837 770.751 555.304C777.157 525.971 779.855 476.071 734.001 448.761L727.595 445.053L725.572 452.133C725.572 452.133 722.874 461.911 712.085 474.386C702.308 450.784 696.576 412.011 737.035 373.574C738.384 383.352 738.384 399.873 728.943 416.394L722.874 426.846L734.675 424.486C737.035 424.149 794.69 412.685 832.789 347.276C841.893 342.218 882.015 315.245 874.934 228.258C878.643 221.177 888.758 196.227 876.283 167.231Z" fill="#720202"/>
<path d="M710.062 303.782C710.062 303.782 683.427 311.537 681.741 333.453L679.043 370.203L716.468 320.978L719.503 327.047C719.503 327.047 720.514 332.778 730.292 330.755C730.292 330.755 757.602 325.024 769.74 324.687C781.878 324.349 779.18 330.081 778.506 332.104L769.066 365.146C769.066 365.146 787.609 355.368 800.759 329.744C814.245 304.12 788.284 294.005 753.219 296.702C718.154 299.062 710.062 303.782 710.062 303.782ZM656.791 515.52C656.791 515.52 636.898 542.156 607.565 556.317C607.565 556.317 615.657 587.673 654.768 580.929L720.852 569.466C720.852 569.466 747.824 538.784 735.687 502.371C735.687 502.371 728.943 535.075 705.679 551.933L647.687 558.002C647.687 557.665 656.791 543.842 656.791 515.52Z" fill="white"/>
<path d="M620.04 623.074C618.354 626.445 617.343 629.817 616.669 633.189C611.948 658.813 636.224 678.368 670.952 677.02C705.342 675.671 737.035 654.093 741.756 628.805C742.767 623.074 742.43 617.679 740.744 612.622C675.335 635.886 638.921 631.503 620.04 623.074ZM742.093 232.303C725.572 219.154 721.863 203.307 721.863 190.832C628.807 174.312 586.661 224.549 568.792 252.87C563.06 224.886 578.907 194.541 578.907 194.541C535.413 210.051 502.708 240.395 485.176 257.253C479.444 223.874 504.057 196.227 504.057 196.227L466.969 197.239C478.432 167.906 528.332 127.109 594.416 150.71C660.163 174.649 699.948 138.572 699.948 138.572L708.039 156.779C735.012 154.082 751.196 137.898 751.196 137.898C698.262 71.4773 640.607 94.0671 640.607 94.0671C655.442 99.7989 669.266 110.588 678.369 118.343C659.825 117.331 627.458 110.251 569.129 89.0097C439.996 41.8071 363.123 106.542 363.123 106.542C291.645 56.9794 220.841 95.0786 220.841 95.0786C159.478 182.403 229.27 226.572 229.27 226.572C198.925 223.2 179.37 214.771 165.546 203.645C121.041 259.276 54.9574 383.015 128.121 529.68C128.121 529.68 125.761 483.489 139.585 439.658C152.397 540.132 208.366 582.614 233.99 596.775L224.55 578.906C224.55 578.906 124.75 449.435 243.094 329.743C243.094 329.743 215.446 408.976 243.431 483.152C249.162 496.975 255.569 509.113 262.649 519.565C274.787 536.76 291.308 552.944 312.886 566.768C374.249 600.821 443.03 577.894 443.03 577.894C432.916 488.209 471.015 452.807 471.015 452.807C478.095 539.458 532.715 573.511 572.5 587.335C534.064 555.979 504.057 494.615 562.386 397.85C661.174 234.326 792.667 267.031 792.667 267.031C797.05 253.207 798.062 231.292 798.062 231.292C771.089 211.737 742.093 232.303 742.093 232.303Z" fill="#FF0000"/>
<path d="M255.231 135.202C255.231 135.202 227.247 200.274 292.319 222.189L299.4 170.941L314.572 199.599L349.299 163.523C349.299 163.86 334.127 130.481 255.231 135.202Z" fill="#720202"/>
<path d="M461.237 757.602V762.322H451.797V786.597H446.065V762.322H436.961V757.602H461.237ZM492.593 786.26L491.582 769.402C491.582 767.042 491.582 764.345 491.244 761.31H490.907C490.233 764.008 489.221 767.379 488.547 770.077L483.153 786.26H477.084L472.026 769.739C471.352 767.716 470.678 764.008 470.003 761.647H469.666C469.666 764.345 469.666 767.042 469.329 769.739L468.317 786.597H462.923L464.946 757.602H473.712L478.769 771.762C479.444 774.122 479.781 776.145 480.792 779.18C481.467 776.483 482.141 774.122 482.815 772.1L487.873 757.602H496.302L498.662 786.597H492.593V786.26Z" fill="#D6BA8C"/>
</svg>
