<svg width="3314" height="455" viewBox="0 0 3314 455" fill="none" xmlns="http://www.w3.org/2000/svg">
<path fill-rule="evenodd" clip-rule="evenodd" d="M2724.79 397.127V274.102C2809.08 309.253 2910.15 310.228 2950.15 306.32C2975.91 292.261 2960.88 278.983 2950.15 274.102C2858.84 269.415 2800.89 250.667 2783.33 241.879C2663.92 164.549 2733.57 76.8711 2783.33 42.6982C2954.25 -34.6318 3182.34 10.4766 3275.02 42.6982V174.51C3218.83 139.36 3097.46 136.431 3043.81 139.36C3020.39 153.42 3034.05 168.652 3043.81 174.51C3158.54 183.884 3234.05 207.707 3257.46 218.447C3341.75 288.748 3292.58 366.858 3257.46 397.127C3037.37 483.83 2810.64 433.253 2724.79 397.127ZM0 432.276V4.61914H526.813C620.468 13.4043 759.196 93.665 599.981 215.519C679.003 233.092 765.635 387.753 526.813 432.276H0ZM714.124 432.276V4.61914H1252.64V127.644H1006.8C998.018 133.502 985.725 149.905 1006.8 168.652H1252.64V265.314H1006.8C999.969 272.149 990.408 289.919 1006.8 306.322H1252.64V432.276H714.124ZM1445.81 4.61914L1261.42 432.276H1533.61L1559.95 376.622H1688.73L1709.21 432.276H2001.89L1823.36 4.61914H1445.81ZM2016.52 432.276V4.61914H2537.48C2636.99 10.4756 2782.16 148.733 2590.16 279.96L2698.45 432.276H2391.14L2332.61 332.686H2288.71V432.276H2016.52ZM1627.27 168.651L1595.07 256.526H1656.53L1627.27 168.651ZM275.114 262.385V309.251H368.769C384.378 300.464 406.231 278.788 368.769 262.385H275.114ZM272.187 171.58V124.714H365.842C403.304 141.117 381.451 162.793 365.842 171.58H272.187ZM2288.71 200.872V130.572H2373.58C2392.12 144.241 2418.07 177.438 2373.58 200.872H2288.71Z" transform="translate(5 5)" fill="#FF0000" stroke="white" stroke-width="10"/>
</svg>
