<svg width="502" height="292" viewBox="0 0 502 292" fill="none" xmlns="http://www.w3.org/2000/svg">
<path d="M107 61.5039C74.526 63.5147 66.5146 48.5219 66 0.00390625C45.5 25.0007 39.0611 58.8926 61 88.0039C52.2238 88.1208 47.6904 90.0774 40 95.5039C23.8886 99.7439 15.1705 95.8635 0 79.0039C8.00013 143 46.4365 166.352 147 184.504C206.574 199.606 228.822 221.993 247.5 288.004C249 293.5 253.399 293.147 255 288.004C253.746 233.924 266.988 214.137 312 195.004C339.168 210.017 354.843 210.762 383.5 200.004C410.631 212.28 418.511 219.48 415.5 233.004L453 235.004L472.5 217.004C398 209 450 173.5 489.5 230.504L501.5 198.004C488.84 189.504 490.757 182.032 496.5 168.004L481 161.004L422.5 121.504L428.5 117.504L373 93.5039C352.981 72.2755 337.649 66.717 305 65.0039C252.5 -6.5 203.132 -13.6741 135.5 24.0039C115.608 32.4665 105.809 25.5601 89 7.5C85.8758 34.2252 88.6991 47.3268 107 61.5039Z" fill="#002244"/>
<path d="M143 29.4923C121.914 40.4702 111.364 39.6727 95.0005 24.4922C102 55.4927 116.932 63.4146 153 51.4922C197.462 34.9495 215.373 38.2309 234 67.9923C256.782 66.2377 296.065 71.1776 298 71.9923C254 6.5 201.777 -3.8675 143 29.4923Z" fill="#FB4F14"/>
<path d="M122.502 68C81.4347 73.9896 64.393 69.2159 59.5019 26C47.4999 65.4991 65.0988 94.5881 109.002 99C146.193 82.9069 168.565 76.3335 211.502 69.5C196.457 51.0471 174.676 52.7942 122.502 68Z" fill="#FB4F14"/>
<path d="M46 102.002C33.4457 107.639 26.3614 108.552 13.5 101.502C22.4998 129.501 47.7161 133.172 92 109.502L79 103.002C66.6247 95.6087 59.3404 95.4407 46 102.002Z" fill="#FB4F14"/>
<path d="M391.001 124L388.001 122.5C383 130.499 391.001 136 397.001 127.5L394.501 126L389.501 129.5L391.001 124Z" fill="#FB4F14"/>
<path fill-rule="evenodd" clip-rule="evenodd" d="M53 145.5C142.649 83.9061 236 64.5 326.5 87.5C328.236 82.3813 322.796 79.538 309.5 74.5C337.27 75.8039 350.352 80.5231 366.5 100.5L409.5 119L405.5 122C440.105 143.553 458.326 155.094 476 169L485 172.5C482.035 185.848 483.245 192.906 491.5 202L486.5 215C438 162.5 396 212.5 456.5 221L450 227.5L425.5 226C420.263 209.804 411.818 201.841 383 190.5C350.433 202.793 336.263 199.275 314 185.5C277.562 197.221 254 215.5 247.5 255.5C239.54 236.166 234.77 228.192 226 216.5C236.429 192.855 248.943 184.636 276.5 174C250.403 174.63 235.991 179.42 211 202.5C194.523 191.718 184.486 186.429 164 179.5C207.749 142.73 249 130 300 141.5C306.773 182.423 344 203.5 385.5 180L415.5 191L384.5 171.5C349.933 194.864 314 172.758 315 135C285.388 121.218 269.685 115.293 243 109L254 126.5C191.017 129.86 161.646 139.754 118.5 169.5C78.754 159.364 62.0357 153.975 53 145.5ZM334.5 82C344.85 87.9354 345.742 90.048 334.5 90.5C343.59 92.4052 348.549 93.9384 357 98C351.047 89.345 346.057 85.9301 334.5 82ZM391.5 137C381.161 125.922 374.988 120.914 363.5 113.5C387.302 119.268 406.061 130.728 445 159.5L441.112 157.4C425.004 148.701 414.778 143.178 397 133.5C394.546 134.329 393.423 135.236 391.5 137ZM478.5 191C471.854 182.959 468.289 178.49 475.5 174L468 173C459.967 174.118 465.678 179.3 473.595 186.483C475.173 187.914 476.838 189.426 478.5 191Z" fill="white"/>
</svg>
