<?xml version="1.0" encoding="UTF-8" standalone="no"?>
<!-- Created with Inkscape (http://www.inkscape.org/) -->

<svg
   xmlns:dc="http://purl.org/dc/elements/1.1/"
   xmlns:cc="http://creativecommons.org/ns#"
   xmlns:rdf="http://www.w3.org/1999/02/22-rdf-syntax-ns#"
   xmlns:svg="http://www.w3.org/2000/svg"
   xmlns="http://www.w3.org/2000/svg"
   xmlns:sodipodi="http://sodipodi.sourceforge.net/DTD/sodipodi-0.dtd"
   xmlns:inkscape="http://www.inkscape.org/namespaces/inkscape"
   width="200"
   height="150"
   viewBox="0 0 200 150"
   id="svg2"
   version="1.1"
   inkscape:version="0.91 r13725"
   sodipodi:docname="Buccaneers.svg">
  <defs
     id="defs4">
    <pattern
       y="0"
       x="0"
       height="6"
       width="6"
       patternUnits="userSpaceOnUse"
       id="EMFhbasepattern" />
    <pattern
       y="0"
       x="0"
       height="6"
       width="6"
       patternUnits="userSpaceOnUse"
       id="EMFhbasepattern-5" />
    <pattern
       y="0"
       x="0"
       height="6"
       width="6"
       patternUnits="userSpaceOnUse"
       id="EMFhbasepattern-52" />
    <pattern
       y="0"
       x="0"
       height="6"
       width="6"
       patternUnits="userSpaceOnUse"
       id="EMFhbasepattern-2" />
  </defs>
  <sodipodi:namedview
     id="base"
     pagecolor="#ffffff"
     bordercolor="#666666"
     borderopacity="1.0"
     inkscape:pageopacity="0.0"
     inkscape:pageshadow="2"
     inkscape:zoom="1.979899"
     inkscape:cx="110.574"
     inkscape:cy="35.722924"
     inkscape:document-units="px"
     inkscape:current-layer="layer1"
     showgrid="false"
     fit-margin-top="0"
     fit-margin-left="0"
     fit-margin-right="0"
     fit-margin-bottom="0"
     units="px"
     inkscape:window-width="1440"
     inkscape:window-height="837"
     inkscape:window-x="1432"
     inkscape:window-y="-8"
     inkscape:window-maximized="1" />
  <metadata
     id="metadata7">
    <rdf:RDF>
      <cc:Work
         rdf:about="">
        <dc:format>image/svg+xml</dc:format>
        <dc:type
           rdf:resource="http://purl.org/dc/dcmitype/StillImage" />
        <dc:title></dc:title>
      </cc:Work>
    </rdf:RDF>
  </metadata>
  <g
     inkscape:label="Layer 1"
     inkscape:groupmode="layer"
     id="layer1"
     transform="translate(536.30539,-546.064)">
    <g
       id="g4307"
       transform="matrix(1.0362497,0,0,1.0362497,23.13804,-19.107418)">
      <path
         style="fill:#ffffff;fill-opacity:1;fill-rule:nonzero;stroke:none"
         d="m -367.75698,545.4008 c -0.10583,0 -0.254,1.90499 -0.33867,4.25447 -0.0635,2.34947 -0.29633,5.24931 -0.508,6.43461 -0.55033,3.34431 -2.159,10.07528 -2.49766,10.47742 -0.40217,0.508 -4.064,2.18016 -6.37117,2.94216 -4.59317,1.50281 -9.24983,2.24364 -14.26633,2.24364 -7.40805,0 -14.39305,-1.56633 -25.08222,-5.63027 -14.24488,-5.39748 -21.44155,-7.40828 -31.07238,-8.61478 -3.1115,-0.40217 -11.09134,-0.40217 -13.88534,0 -11.30272,1.5663 -19.81172,4.88947 -29.82355,11.62041 -4.42383,2.98448 -6.32875,4.08514 -8.97455,5.16456 -0.93134,0.381 -0.61384,0.61383 1.71447,1.22766 1.10067,0.27517 2.07425,0.59267 2.20125,0.67734 0.10583,0.10583 0.0847,1.016 -0.0847,2.0955 -0.16925,1.22766 -0.19042,1.98966 -0.0635,2.13783 0.14816,0.14817 1.016,-0.0635 2.413,-0.59267 3.97933,-1.48166 5.82083,-1.651 6.1595,-0.5715 0.254,0.80434 -1.05834,1.8415 -3.32317,2.58234 -2.43416,0.80433 -4.42383,1.10066 -7.66225,1.10066 -1.41814,0 -2.66697,0.0635 -2.75164,0.16934 -0.0847,0.0847 0.59267,0.91016 1.50284,1.8415 1.07947,1.0795 1.6298,1.79916 1.54514,2.032 -0.29634,0.762 -5.24928,1.79916 -8.91111,1.86266 -2.30714,0.0423 -2.81514,0.127 -2.85748,0.42334 -0.127,0.59266 1.69334,3.06916 3.19614,4.3815 0.78317,0.67733 1.35467,1.31233 1.29117,1.43933 -0.0847,0.127 -0.65617,0.48683 -1.29117,0.80433 -0.63497,0.3175 -1.16414,0.67734 -1.16414,0.78317 0,0.10583 0.93131,0.254 2.07431,0.3175 5.60914,0.3175 9.01694,4.33917 7.06961,8.38172 -0.65617,1.3335 -1.71447,2.18017 -4.44497,3.53483 -10.09642,5.03767 -17.69519,16.23484 -20.08701,29.67567 -0.46566,2.51855 -1.22765,11.06988 -1.01599,11.26038 0.0423,0.0635 0.0847,-0.0635 0.0847,-0.254 0,-0.21166 0.10583,-0.42333 0.21166,-0.46566 0.127,-0.0423 1.22766,-1.48167 2.47649,-3.21734 2.85749,-3.97933 4.31796,-5.63005 7.21777,-8.23355 4.00047,-3.556 8.50894,-6.32883 12.72108,-7.8105 4.88947,-1.7145 8.93222,-2.24366 15.57855,-2.07433 4.953,0.10583 7.02733,0.381 11.2395,1.43933 4.84717,1.22767 6.83683,2.0955 14.11789,6.0325 12.08616,6.58255 19.09233,9.20722 28.21516,10.56189 3.302,0.508 14.83755,0.59266 17.94905,0.14816 1.05834,-0.14816 1.9685,-0.1905 2.07434,-0.0635 0.1905,0.1905 -4.2545,7.00617 -5.24934,8.04334 -0.42333,0.46566 -0.4445,0.4445 -1.778,-0.27517 -2.51883,-1.37583 -4.7625,-1.48167 -6.858,-0.35983 -3.23821,1.73566 -3.59805,6.35 -0.65616,8.72066 0.508,0.40217 0.93133,0.80434 0.93133,0.91017 0,0.0847 -0.59267,1.143 -1.3335,2.3495 -1.56633,2.58233 -3.06888,6.0325 -3.91555,8.9535 -0.508,1.778 -0.762,2.24367 -1.651,3.175 l -1.05833,1.05833 0.33866,1.31205 c 0.23284,0.889 0.29634,1.92617 0.21167,3.302 -0.0847,1.56634 -0.0423,2.2225 0.29633,3.06917 0.6985,1.82033 2.18017,3.15383 4.31772,3.85233 0.3175,0.10584 1.27,0.14817 2.13783,0.10584 1.92617,-0.0847 3.683,-0.99484 4.826,-2.49767 1.24884,-1.62983 1.60867,-1.778 4.29684,-1.778 4.191,0 7.4295,-1.143 9.9695,-3.4925 2.4765,-2.286 3.72533,-4.63522 4.21216,-7.87372 0.42334,-2.77283 -0.27516,-5.588 -1.94733,-7.83166 l -0.46567,-0.635 4.65667,-6.858 c 9.99067,-14.68967 15.68422,-23.38889 20.04455,-30.62789 13.462,-22.2885 20.17183,-42.16372 20.21417,-59.71077 0,-6.41344 -0.762,-11.62042 -2.45534,-16.42522 -1.0795,-3.04797 -3.15383,-7.00611 -3.66183,-7.00611 z"
         id="path4287"
         inkscape:connector-curvature="0" />
      <path
         style="fill:#ff7900;fill-opacity:1;fill-rule:evenodd;stroke:#000000;stroke-width:0.25399813px;stroke-linecap:butt;stroke-linejoin:miter;stroke-miterlimit:4;stroke-dasharray:none;stroke-opacity:1"
         d="m -455.13241,619.31424 c 0.14816,0.91016 0.5715,1.778 1.10066,2.54 0.52917,0.78316 1.16417,1.4605 1.79917,2.159 0.93133,1.03716 1.82033,2.07433 2.77283,3.09033 0.99484,1.0795 2.07434,2.13783 3.38667,2.81517 0.86783,0.46566 1.79917,0.74083 2.75167,0.9525 1.43933,0.29633 2.89983,0.42333 4.33916,0.48683 1.60867,0.0847 3.2385,0.0847 4.78367,-0.35983 1.35467,-0.40217 2.58233,-1.10067 3.83117,-1.778 0.63471,-0.33867 1.29088,-0.65617 1.88355,-1.10067 0.5715,-0.4445 1.0795,-1.016 1.31233,-1.7145 0.21167,-0.635 0.1905,-1.3335 0.0423,-1.9685 -0.14817,-0.65617 -0.42333,-1.27 -0.71967,-1.86267 -0.5715,-1.143 -1.2065,-2.24366 -1.94733,-3.25966 -0.90988,-1.24884 -1.98938,-2.39184 -3.15355,-3.40784 -1.05833,-0.93133 -2.2225,-1.778 -3.51367,-2.39183 -1.5875,-0.74083 -3.34433,-1.0795 -5.08,-1.24883 -1.62983,-0.14817 -3.25966,-0.127 -4.84716,0.127 -1.5875,0.254 -3.1115,0.762 -4.59317,1.37583 -1.03717,0.4445 -2.07433,0.9525 -2.87867,1.75683 -0.65616,0.65617 -1.10066,1.50284 -1.27,2.39184 -0.0635,0.46566 -0.0635,0.93133 0,1.397 z"
         id="path4289"
         inkscape:connector-curvature="0" />
      <path
         style="fill:#d30d09;fill-opacity:1;fill-rule:nonzero;stroke:none"
         d="m -366.42348,553.12658 c -0.254,0.0423 -0.42333,0.71966 -0.42333,1.79916 0,2.58231 -1.0795,8.44542 -2.11667,11.59922 -0.4445,1.3335 -0.55033,1.43934 -1.92617,2.24367 -3.64066,2.09547 -8.36083,3.72531 -12.99633,4.50847 -3.4925,0.59258 -10.28672,0.71958 -13.48288,0.254 -4.93184,-0.74083 -10.9855,-2.4765 -21.48417,-6.2018 -18.62638,-6.62511 -26.41572,-8.40311 -36.57572,-8.40311 -9.31333,0 -16.46738,1.67216 -24.89172,5.84197 -4.27566,2.11664 -10.9855,6.39228 -13.75833,8.74178 l -0.6985,0.59258 1.22767,-0.14817 c 0.67733,-0.0847 1.22766,-0.0847 1.22766,0 0,0.0635 -0.48683,0.78317 -1.05833,1.56633 -1.48167,2.01084 -1.37583,2.24367 0.52917,1.27 3.683,-1.8415 10.39283,-3.00566 7.66233,-1.31233 -1.2065,0.74083 -1.10067,1.16417 0.27517,1.16417 0.61383,0 1.24883,0.127 1.397,0.29633 0.48683,0.46567 0.3175,1.43933 -0.42334,2.45533 -1.56633,2.11667 -5.08,3.70417 -10.4775,4.74134 -3.93691,0.74083 -3.87341,0.67733 -1.8415,1.778 2.032,1.12183 2.56117,1.62983 2.05317,1.94733 -0.1905,0.127 -0.46567,0.21167 -0.61383,0.21167 -0.14817,0 -1.62984,0.42333 -3.25958,0.9525 -1.905,0.59266 -3.85231,1.03716 -5.37631,1.2065 -1.3123,0.14816 -2.3918,0.35983 -2.3918,0.4445 0,0.27516 1.8203,1.75683 4.38147,3.51366 2.73047,1.88384 3.95814,3.25967 4.69888,5.207 0.93134,2.49767 0.40217,5.79939 -1.33341,8.27589 -0.78317,1.12183 -1.05833,1.3335 -2.51881,1.86267 -8.76294,3.25966 -16.04422,11.66283 -19.66369,22.733 -0.889,2.7305 -1.92616,7.02733 -2.26482,9.31305 -0.21167,1.43933 -0.0212,1.35466 2.18016,-1.18505 2.0743,-2.3495 4.78363,-4.826 7.64111,-6.96384 7.15427,-5.334 14.58372,-7.64116 24.48963,-7.64116 4.10633,0 6.94267,0.29633 10.90083,1.12183 5.842,1.2065 9.82106,2.87867 19.53656,8.14917 7.1755,3.91583 14.478,6.83655 20.17183,8.04305 7.6835,1.67216 16.82722,1.8415 25.61138,0.508 1.50284,-0.21167 2.794,-0.3175 2.8575,-0.21167 0.0635,0.10583 -1.41816,2.45533 -3.302,5.22817 -4.80483,7.09083 -5.79966,8.46666 -6.01133,8.48783 -0.0847,0 -0.71967,-0.42333 -1.397,-0.93133 -1.651,-1.22767 -2.794,-1.69334 -4.3815,-1.69334 -0.97367,-0.0212 -1.48167,0.10584 -2.01083,0.48684 -2.39184,1.69333 -2.0955,4.80483 0.5715,6.096 1.94733,0.9525 1.94733,0.80433 0.10583,3.91583 -2.18017,3.6195 -3.302,6.05367 -4.46588,9.652 -0.78317,2.45533 -1.0795,3.048 -1.778,3.683 -0.635,0.57122 -0.80434,0.88872 -0.6985,1.26972 0.3175,1.16416 0.381,2.20133 0.1905,3.19616 -0.42334,2.18017 0.61383,4.191 2.62438,5.12234 1.88383,0.86783 4.14867,0.3175 5.3975,-1.31234 0.74083,-0.97366 1.03717,-1.27 2.0955,-2.0955 0.67733,-0.52916 0.91017,-0.55033 3.4925,-0.55033 5.18583,0 8.636,-1.56633 10.90083,-4.99533 1.37584,-2.05289 1.86267,-3.85205 1.73567,-6.45555 -0.10583,-2.413 -0.635,-3.83117 -2.05317,-5.43984 -0.381,-0.4445 -0.6985,-0.86783 -0.6985,-0.93133 0,-0.0847 1.778,-2.75167 3.95817,-5.92667 9.86367,-14.478 17.52572,-26.73321 26.79672,-42.86221 2.18016,-3.78884 5.69383,-10.96434 7.21783,-14.79522 3.3655,-8.36084 5.56683,-16.91217 6.731,-26.01384 0.59267,-4.74124 0.59267,-13.94869 0,-16.67916 -0.46567,-2.18014 -1.651,-5.96894 -2.01083,-6.51928 -0.10584,-0.14816 -0.1905,-0.21166 -0.27517,-0.21166 z m -65.21393,18.62652 c 3.06888,0.0212 6.47671,0.889 9.94805,2.60342 2.01083,0.97366 2.7305,1.50283 4.21216,2.96333 2.032,2.032 2.87867,3.556 3.28084,5.94783 0.46566,2.56117 -0.3175,5.50334 -1.9685,7.493 l -0.59267,0.6985 -0.80433,-0.93133 c -0.93134,-1.0795 -1.10067,-0.67733 -0.27517,0.67733 l 0.55033,0.91017 -0.5715,1.75683 c -0.4445,1.37584 -0.52916,2.032 -0.40216,3.00567 0.14816,1.18533 0.10583,1.29117 -0.71967,2.286 -1.48167,1.82033 -2.3495,2.032 -5.48217,1.37583 -2.58233,-0.55033 -4.97416,-0.14816 -3.89466,0.65617 0.33866,0.23283 0.381,0.508 0.254,1.39672 -0.0847,0.59267 -0.33867,1.41817 -0.5715,1.79917 -0.74084,1.2065 -1.43905,0.762 -0.80434,-0.508 0.23284,-0.46567 0.27517,-0.80434 0.127,-0.9525 -0.29633,-0.29634 -0.93105,0.23283 -0.93105,0.78316 0,0.6985 -0.635,1.03717 -1.31233,0.71967 -0.5715,-0.254 -0.59267,-0.35983 -0.4445,-1.31233 0.16933,-1.18506 -0.21167,-1.46022 -0.46567,-0.33867 -0.1905,0.8255 -0.55033,1.03717 -1.41816,0.8255 -0.52917,-0.127 -0.59267,-0.254 -0.48684,-0.91017 0.0635,-0.40188 0.1905,-0.99455 0.27517,-1.29088 0.29633,-0.91017 -0.40217,-0.48684 -0.6985,0.42333 -0.35983,1.05805 -0.84667,1.35439 -1.651,0.97339 -0.5715,-0.25372 -0.61383,-0.33839 -0.46567,-1.37556 l 0.127,-1.10066 -0.46566,0.86783 c -0.33867,0.635 -0.635,0.889 -1.016,0.889 -0.80434,0 -1.143,-0.508 -0.84667,-1.27 0.5715,-1.50283 -0.127,-1.8415 -0.74083,-0.381 -0.21167,0.52917 -0.508,0.93133 -0.635,0.93133 -0.46567,0 -0.27517,-1.60866 0.3175,-2.77283 0.46566,-0.93133 0.67733,-1.12183 1.05833,-1.016 0.78317,0.21167 0.55033,-0.508 -0.48683,-1.43933 -0.508,-0.46567 -1.7145,-1.22767 -2.667,-1.67217 -2.01084,-0.97367 -2.64584,-1.5875 -2.921,-2.794 -0.4445,-1.86267 -0.29634,-2.62467 0.6985,-3.7465 0.61383,-0.6985 1.12183,-1.60867 1.4605,-2.667 0.48683,-1.524 0.5715,-1.62983 1.50283,-1.98967 1.03717,-0.40216 1.79917,-1.016 1.24883,-1.016 -0.16933,0 -0.6985,0.127 -1.2065,0.27517 -1.31233,0.381 -1.43933,0.14817 -1.143,-2.05317 0.46567,-3.3655 2.43417,-6.20183 5.2705,-7.53524 1.69334,-0.80434 3.64067,-1.18534 5.75734,-1.18534 z m -36.04684,7.11192 c 0.14817,0.0212 0.29634,0.35983 0.42334,0.99483 0.33866,1.82033 2.2225,7.09083 3.47133,9.7155 3.34433,7.02733 8.382,13.73689 14.37217,19.13439 1.41816,1.27 2.56116,2.413 2.56116,2.51883 0,0.33867 -1.24883,0.6985 -1.79916,0.48683 -0.8255,-0.3175 -7.51417,-7.02733 -10.07534,-10.11738 -1.29116,-1.56634 -2.3495,-2.75167 -2.3495,-2.62467 0,0.381 2.30717,3.76739 4.14867,6.03222 1.03717,1.29117 2.96333,3.429 4.29683,4.74133 2.26484,2.26484 2.37067,2.413 1.94734,2.7305 l 0,0 c -0.86784,0.635 -1.4605,0.381 -3.45017,-1.43933 -7.53533,-6.94267 -12.55183,-15.28205 -13.96972,-23.19839 -0.35983,-2.05316 -0.35983,-7.51416 0.0212,-8.46666 0.127,-0.35984 0.27489,-0.52917 0.40189,-0.508 z m 27.26267,6.18066 c -0.4445,0 -1.05833,1.94734 -1.05833,3.40784 0,1.56633 0.6985,2.45533 2.667,3.38666 2.159,1.016 2.89983,0.93134 4.445,-0.5715 0.6985,-0.67733 1.27,-1.35466 1.27,-1.50283 0,-0.16933 -0.33867,-0.27517 -0.8255,-0.27517 -1.18534,0 -2.01084,-0.508 -4.21217,-2.6035 -1.0795,-1.016 -2.11667,-1.8415 -2.286,-1.8415 z m 12.08588,6.20184 c -0.27516,0.0423 -0.3175,0.508 -0.21166,1.4605 0.3175,2.56116 0.78316,3.1115 3.048,3.683 1.48166,0.381 3.02683,0.254 3.81,-0.3175 0.67733,-0.508 1.86266,-2.667 1.94733,-3.556 0.0635,-0.65617 0.46567,-0.61384 -4.953,-0.42334 -2.01083,0.0635 -2.286,0.0212 -2.87867,-0.4445 -0.35983,-0.27516 -0.61383,-0.42333 -0.762,-0.40216 z m -3.49221,1.73566 c -0.33867,0.0212 -0.74084,0.3175 -1.16417,0.86784 -0.35983,0.48683 -0.9525,1.16416 -1.3335,1.50283 -0.48683,0.46567 -0.635,0.8255 -0.59267,1.29117 0.0847,0.59266 0.16934,0.65616 1.016,0.65616 0.65617,0 1.0795,0.14817 1.4605,0.508 0.635,0.65617 0.86784,0.65617 1.29117,0.0423 0.27517,-0.35983 0.3175,-0.93133 0.23283,-2.39183 -0.0847,-1.03717 -0.23283,-2.032 -0.35983,-2.18017 -0.14817,-0.21166 -0.33867,-0.29633 -0.55033,-0.29633 z m -12.21317,1.92617 c 0.10583,0.0212 0.21167,0.0423 0.3175,0.0847 0.29633,0.10583 0.381,0.48683 0.381,1.79917 0,1.03716 0.10583,1.86266 0.3175,2.13783 0.16933,0.254 0.381,1.16417 0.48683,2.01083 0.1905,1.84122 0.5715,2.56089 1.143,2.09522 0.59267,-0.48655 0.91017,-0.0635 0.78317,1.05833 -0.127,1.18534 0.127,1.31234 0.635,0.3175 0.42333,-0.8255 0.59267,-0.84666 1.29117,-0.29633 0.42333,0.35983 0.46566,0.508 0.254,1.05833 -0.3175,0.80434 -0.3175,1.3335 -0.0423,1.3335 0.10583,0 0.3175,-0.46566 0.46566,-1.05833 0.1905,-0.762 0.381,-1.03717 0.6985,-1.03717 0.74084,0 1.03717,0.59267 0.84667,1.73567 -0.127,0.84667 -0.0847,1.05833 0.1905,1.05833 0.1905,0 0.42333,-0.29633 0.508,-0.67733 0.1905,-0.91017 0.65617,-1.27 1.41817,-1.0795 0.508,0.127 0.59266,0.23283 0.46566,0.71967 -0.0847,0.3175 -0.21166,0.8255 -0.27516,1.143 -0.23284,0.93133 0.29633,0.6985 0.8255,-0.33867 0.508,-0.97367 1.12183,-1.2065 1.62983,-0.59267 0.21167,0.254 0.21167,0.4445 0,0.8255 -0.14817,0.27517 -0.1905,0.5715 -0.10583,0.65617 0.14816,0.14817 0.3175,-0.0212 0.99483,-1.03717 0.254,-0.42333 0.29633,-0.42333 0.71967,0.0847 0.25371,0.29634 0.55005,0.52917 0.65588,0.52917 0.127,0 0.74083,-0.52917 1.37583,-1.18533 0.635,-0.65617 1.54517,-1.397 2.032,-1.651 0.55034,-0.27517 1.16417,-0.889 1.5875,-1.60867 0.6985,-1.12155 1.43933,-1.50255 1.67217,-0.86755 0.0635,0.16933 -0.35984,1.20622 -0.93134,2.32805 -0.99483,1.9685 -1.10066,2.07433 -3.04799,3.34433 -1.12184,0.74084 -2.70934,1.8415 -3.55572,2.45534 -0.84667,0.635 -2.01083,1.35467 -2.58233,1.60866 -2.54,1.143 -6.94267,-0.0847 -8.72067,-2.43416 -0.29633,-0.381 -1.22767,-2.81517 -2.0955,-5.37634 l -1.56633,-4.65638 0.40216,-2.159 c 0.21167,-1.18533 0.48684,-2.2225 0.59267,-2.286 0.0423,-0.0212 0.127,-0.0423 0.23283,-0.0423 z m 49.72022,8.57222 c 0.84666,0 -2.01084,4.2545 -4.61434,6.81567 -2.54,2.54 -5.37633,4.48733 -9.03816,6.24416 -4.7625,2.26484 -9.69434,3.64067 -15.51517,4.318 -3.3655,0.381 -3.556,0.40217 -3.91583,0.16934 -0.35984,-0.254 -0.8255,-1.2065 -0.67734,-1.43934 0.0635,-0.10583 0.86784,-0.27516 1.82034,-0.35983 2.45533,-0.23283 7.26016,-1.2065 10.01183,-2.032 2.39183,-0.6985 5.88433,-2.05317 5.73617,-2.20133 -0.0635,-0.0423 -1.9685,0.40216 -4.27567,0.97366 -4.318,1.0795 -8.48783,1.8415 -11.53583,2.07434 -0.9525,0.0847 -1.98967,0.1905 -2.26484,0.254 -0.635,0.127 -2.17988,-1.143 -1.82005,-1.50284 0.127,-0.10583 1.92589,-0.381 3.97905,-0.59266 11.51467,-1.18534 21.48417,-4.8895 29.718,-11.07017 1.2065,-0.91017 2.286,-1.651 2.39184,-1.651 z m -49.04289,8.6995 c 0.59267,0 1.2065,0.0212 1.82034,0.0847 1.73566,0.16933 3.4925,0.508 5.08,1.24883 1.29116,0.61383 2.45533,1.4605 3.51366,2.39184 1.16417,1.01599 2.24367,2.159 3.15355,3.40783 0.74084,1.016 1.37584,2.11667 1.94734,3.25966 0.29633,0.59267 0.5715,1.2065 0.71966,1.86267 0.14817,0.635 0.16934,1.3335 -0.0423,1.9685 -0.23283,0.6985 -0.74083,1.27 -1.31233,1.7145 -0.59267,0.4445 -1.24883,0.762 -1.88355,1.10067 -1.24883,0.67733 -2.4765,1.37583 -3.83117,1.778 -1.54516,0.4445 -3.175,0.4445 -4.78366,0.35983 -1.43934,-0.0635 -2.89984,-0.1905 -4.33917,-0.48683 -0.9525,-0.21167 -1.88383,-0.48684 -2.75167,-0.9525 -1.31233,-0.67734 -2.39183,-1.73567 -3.38666,-2.81517 -0.9525,-1.016 -1.8415,-2.05317 -2.77284,-3.09033 -0.635,-0.6985 -1.27,-1.37583 -1.79916,-2.159 -0.52917,-0.762 -0.9525,-1.62984 -1.10067,-2.54 -0.0635,-0.46567 -0.0635,-0.93134 0,-1.397 0.16933,-0.889 0.61383,-1.73567 1.27,-2.39184 0.80433,-0.80433 1.8415,-1.31233 2.87867,-1.75683 1.48166,-0.61383 3.00566,-1.12183 4.59316,-1.37583 0.99484,-0.16934 2.01084,-0.23284 3.02683,-0.21167 z m -11.89566,1.4605 c 0.0423,0.0423 -0.0847,0.48683 -0.29634,0.97367 -0.21166,0.46566 -0.65616,1.778 -0.9525,2.89983 -0.635,2.30717 -1.143,3.32317 -2.01083,3.937 -0.80433,0.59267 -2.032,0.71967 -3.13267,0.33867 l -0.93133,-0.3175 1.2065,-0.0212 c 0.91017,-0.0212 1.35467,-0.14817 1.88383,-0.61384 0.381,-0.3175 0.8255,-0.5715 0.9525,-0.5715 0.33867,0 0.33867,-0.35983 0,-0.91016 -0.23283,-0.33867 -0.1905,-0.80434 0.16934,-2.13784 0.42333,-1.60866 0.52916,-1.778 1.73566,-2.68816 0.6985,-0.55034 1.31234,-0.9525 1.37584,-0.889 z m -6.731,0.40217 c 0.8255,-0.0423 3.45016,0.23283 3.72533,0.40216 0.21167,0.127 0.0847,0.42334 -0.4445,1.0795 -0.40217,0.48684 -0.74083,1.016 -0.74083,1.16417 0,0.14817 -0.10584,0.33867 -0.23284,0.42333 -0.35983,0.23284 -4.74133,-0.381 -4.93183,-0.67733 -0.10583,-0.127 -0.127,-0.508 -0.0423,-0.8255 0.10583,-0.5715 0.10583,-0.5715 -0.27517,-0.127 -0.1905,0.254 -0.61383,0.80433 -0.91016,1.22767 l -0.52917,0.74083 -0.71967,-0.86783 c -0.59266,-0.71967 -0.71966,-0.78317 -0.74083,-0.40217 0,0.40217 -0.14789,0.46567 -0.95222,0.4445 -1.143,-0.0423 -1.48167,-0.33867 -1.27,-0.99483 0.10583,-0.35984 0.33867,-0.48684 0.86783,-0.48684 0.40217,0 0.889,-0.16933 1.10067,-0.33866 0.25372,-0.23284 1.20622,-0.40217 3.04772,-0.48684 1.4605,-0.0847 2.7305,-0.1905 2.81517,-0.254 0.0423,-0.0212 0.127,-0.0212 0.23283,-0.0212 z m 36.97788,9.54616 c 0.0635,0.0212 0.0847,0.14817 0.0847,0.42334 0,0.29633 0.16933,0.99483 0.381,1.56633 0.381,0.97367 0.381,1.03717 -0.254,2.64583 -0.4445,1.143 -0.84667,1.75684 -1.29117,2.032 -0.61383,0.381 -0.635,0.4445 -0.33867,0.97367 0.16934,0.3175 0.3175,0.78317 0.33867,1.016 0,0.254 0.381,0.80433 0.8255,1.22767 0.9525,0.889 0.8255,0.99483 -0.35983,0.35983 -1.82034,-0.97367 -2.286,-2.68817 -1.35467,-5.12233 0.27517,-0.74084 0.762,-2.13784 1.10067,-3.13267 0.46566,-1.35467 0.74083,-1.98967 0.86783,-1.98967 z m 1.56633,2.49767 c 0.381,0 2.58234,1.43933 3.70417,2.43417 0.59267,0.52916 1.778,1.524 2.6035,2.24366 1.05833,0.86784 1.54517,1.43934 1.54517,1.79917 0,0.3175 0.14816,0.52917 0.33866,0.52917 0.48684,0 0.8255,0.74083 0.55034,1.22766 l 0,0 c -0.29634,0.52917 -0.80434,0.508 -1.29117,-0.0635 -0.23283,-0.254 -0.55033,-0.46566 -0.74083,-0.46566 -0.27517,0 -0.29634,-0.0635 -0.0635,-0.27517 0.508,-0.52917 0.27516,-0.61383 -0.84667,-0.3175 l -1.12183,0.29633 0.14816,-1.10066 c 0.0635,-0.61384 0.0635,-1.29117 0,-1.50284 -0.127,-0.33866 -0.1905,-0.3175 -0.42333,0.1905 -0.14817,0.33867 -0.35983,0.61384 -0.46567,0.61384 -0.10583,0 -1.03716,-0.46567 -2.05316,-1.05834 -0.99484,-0.5715 -1.905,-1.03716 -1.9685,-1.03716 -0.0847,0 -0.14817,-0.78317 -0.127,-1.75684 0,-0.9525 0.10583,-1.75683 0.21166,-1.75683 z m 0.35984,8.42433 c 0.0847,0.0212 0.14816,0.0423 0.1905,0.0635 0.0847,0.0847 -0.0635,0.14817 -0.29634,0.127 -0.27516,0 -0.33866,-0.0635 -0.14816,-0.127 0.0847,-0.0423 0.1905,-0.0635 0.254,-0.0635 z m 28.1305,4.67784 c 0.10583,0 0.127,0.127 0.0635,0.381 -0.0635,0.254 -3.72534,5.88405 -8.10684,12.50921 -4.40266,6.604 -8.128,12.02267 -8.27616,12.02267 -0.14817,0 -0.52917,-0.254 -0.8255,-0.5715 l -0.55034,-0.5715 7.32367,-11.02783 c 4.02167,-6.07484 7.51417,-11.2395 7.747,-11.51439 0.23283,-0.27516 0.8255,-0.61383 1.29117,-0.78316 0.48683,-0.14817 1.016,-0.33867 1.18533,-0.40217 0.0635,-0.0212 0.10583,-0.0423 0.14817,-0.0423 z m -5.6515,1.84121 c 0.67733,-0.0212 -0.46567,1.7145 -11.32417,17.18734 -1.29117,1.8415 -2.413,3.32316 -2.49767,3.32316 -0.3175,0 -1.86266,-1.29116 -1.98966,-1.67216 -0.0847,-0.254 0.3175,-1.016 1.0795,-2.0955 0.65616,-0.93134 3.25966,-4.74134 5.7785,-8.4455 2.51883,-3.72534 4.6355,-6.858 4.72016,-6.96384 0.127,-0.1905 3.72534,-1.31233 4.23334,-1.3335 z m -23.5585,16.55234 c 0.635,0 2.68816,1.397 3.64066,2.4765 0.5715,0.635 1.29117,1.43933 1.62984,1.82033 0.33866,0.381 2.0955,1.92617 3.91583,3.429 5.03767,4.191 5.7785,5.207 5.7785,7.78933 0.0212,1.27 -0.127,1.905 -0.59267,2.94217 -0.71966,1.524 -2.0955,3.00538 -3.45016,3.68272 -2.49767,1.27 -6.37117,1.48166 -9.31334,0.48683 -1.3335,-0.4445 -1.50283,-0.4445 -2.13783,-0.127 -0.381,0.1905 -1.16417,0.42333 -1.73567,0.508 -0.59266,0.0847 -1.05833,0.21167 -1.05833,0.3175 0,0.46567 0.84667,0.80433 2.01083,0.78317 0.67734,-0.0212 1.24884,0.0635 1.24884,0.14816 0,0.33867 -0.59267,0.65617 -1.397,0.74084 -0.762,0.0635 -0.80434,0.127 -0.74084,0.8255 0.0423,0.55033 -0.0847,0.91016 -0.508,1.3335 -0.74083,0.74083 -1.18533,0.74083 -1.905,0.0212 -0.762,-0.762 -0.71966,-1.43933 0.10584,-2.159 l 0.67733,-0.59266 -0.5715,-0.889 -0.59267,-0.86784 0.5715,-0.91016 c 0.3175,-0.48684 0.80434,-1.62955 1.0795,-2.51855 0.86784,-2.77284 1.22767,-3.6195 1.43934,-3.4925 0.127,0.0847 0.21166,0.5715 0.21166,1.12183 0,1.4605 0.42334,2.667 1.0795,3.13267 0.33867,0.21166 0.80434,0.635 1.0795,0.93133 0.8255,0.86755 2.6035,1.33322 5.18584,1.33322 2.64583,-0.0212 3.85233,-0.42334 5.35516,-1.88355 1.98967,-1.92617 2.30717,-4.2545 0.86784,-6.30767 -0.635,-0.86783 -0.71967,-1.18533 -0.61384,-1.8415 0.16934,-0.889 0.0212,-0.97367 -0.93133,-0.52917 -0.8255,0.35984 -1.79917,-0.127 -4.14867,-2.07433 -2.11666,-1.778 -2.45533,-2.30717 -2.7305,-4.46617 -0.29633,-2.43416 -1.0795,-3.556 -2.9845,-4.36033 -0.74083,-0.3175 -1.03716,-0.80433 -0.46566,-0.80433 z m 2.83633,6.87916 c 0.1905,0 0.29633,0.42334 0.48683,1.69334 0.127,0.74083 0.4445,1.31233 1.31234,2.26483 l 1.143,1.24883 -1.86267,2.87867 c -1.016,1.5875 -2.032,3.1115 -2.2225,3.40783 -0.21167,0.27517 -0.508,0.508 -0.67733,0.508 -0.65617,0 -1.524,-0.99483 -2.01084,-2.26483 -0.762,-2.05317 -0.4445,-3.13267 2.11667,-7.4295 0.635,-1.03717 1.29117,-2.01083 1.48167,-2.18017 0.0847,-0.0635 0.16933,-0.127 0.23283,-0.127 z m 5.24933,8.04334 c 0.508,0 1.41817,1.03716 1.41817,1.60866 0,0.6985 -0.9525,1.92617 -1.75683,2.26484 -0.99484,0.40216 -2.43417,0.4445 -2.43417,0.0423 0,-0.16933 0.508,-1.12183 1.143,-2.11667 0.80433,-1.22766 1.31233,-1.79916 1.62983,-1.79916 z"
         id="path4291"
         inkscape:connector-curvature="0" />
      <path
         style="fill:#191111;fill-opacity:1;fill-rule:nonzero;stroke:none"
         d="m -429.71153,687.91484 c -2.01055,-0.93134 -3.04772,-2.94217 -2.62438,-5.12234 0.1905,-0.99483 0.127,-2.032 -0.1905,-3.19616 -0.10584,-0.381 0.0635,-0.6985 0.6985,-1.26972 0.6985,-0.635 0.99483,-1.22767 1.778,-3.683 1.16388,-3.59833 2.28571,-6.0325 4.46588,-9.652 1.8415,-3.1115 1.8415,-2.96333 -0.10583,-3.91583 -2.667,-1.29117 -2.96334,-4.40267 -0.5715,-6.096 0.52916,-0.381 1.03716,-0.508 2.01083,-0.48684 1.5875,0 2.7305,0.46567 4.3815,1.69334 0.67733,0.508 1.31233,0.93133 1.397,0.93133 0.21167,-0.0212 1.2065,-1.397 6.01133,-8.48783 1.88384,-2.77284 3.3655,-5.12234 3.302,-5.22817 -0.0635,-0.10583 -1.35466,0 -2.8575,0.21167 -8.78416,1.3335 -17.92788,1.16416 -25.61138,-0.508 -5.69383,-1.2065 -12.99633,-4.12722 -20.17183,-8.04305 -9.7155,-5.2705 -13.69456,-6.94267 -19.53656,-8.14917 -3.95816,-0.8255 -6.7945,-1.12183 -10.90083,-1.12183 -9.90591,0 -17.33536,2.30716 -24.48963,7.64116 -2.85748,2.13784 -5.56681,4.61434 -7.64111,6.96384 -2.20133,2.53971 -2.39183,2.62438 -2.18016,1.18505 0.33866,-2.28572 1.37582,-6.58255 2.26482,-9.31305 3.61947,-11.07017 10.90075,-19.47334 19.66369,-22.733 1.46048,-0.52917 1.73564,-0.74084 2.51881,-1.86267 1.73558,-2.4765 2.26475,-5.77822 1.33341,-8.27589 -0.74074,-1.94733 -1.96841,-3.32316 -4.69888,-5.207 -2.56117,-1.75683 -4.38147,-3.2385 -4.38147,-3.51366 0,-0.0847 1.0795,-0.29634 2.3918,-0.4445 1.524,-0.16934 3.49247,-0.61384 5.37631,-1.2065 1.62974,-0.52917 3.11141,-0.9525 3.25958,-0.9525 0.14816,0 0.42333,-0.0847 0.61383,-0.21167 0.508,-0.3175 -0.0212,-0.8255 -2.05317,-1.94733 -2.03191,-1.10067 -2.09541,-1.03717 1.8415,-1.778 5.3975,-1.03717 8.91117,-2.62467 10.4775,-4.74134 0.74084,-1.016 0.91017,-1.98966 0.42334,-2.45533 -0.14817,-0.16933 -0.78317,-0.29633 -1.397,-0.29633 -1.37584,0 -1.48167,-0.42334 -0.27517,-1.16417 2.7305,-1.69333 -3.97933,-0.52917 -7.66233,1.31233 -1.905,0.97367 -2.01084,0.74084 -0.52917,-1.27 0.5715,-0.78316 1.05833,-1.50283 1.05833,-1.56633 0,-0.0847 -0.55033,-0.0847 -1.22766,0 l -1.22767,0.14817 0.6985,-0.59258 c 2.77283,-2.3495 9.48267,-6.62514 13.75833,-8.74178 8.42434,-4.16981 15.57839,-5.84197 24.89172,-5.84197 10.16,0 17.94934,1.778 36.57572,8.40311 10.49867,3.7253 16.55233,5.46097 21.48417,6.2018 3.19616,0.46558 9.99038,0.33858 13.48288,-0.254 4.6355,-0.78316 9.35567,-2.413 12.99633,-4.50847 1.37584,-0.80433 1.48167,-0.91017 1.92617,-2.24367 1.03717,-3.1538 2.11667,-9.01691 2.11667,-11.59922 0,-1.43933 0.3175,-2.159 0.6985,-1.5875 0.35983,0.55034 1.54516,4.33914 2.01083,6.51928 0.59267,2.73047 0.59267,11.93792 0,16.67916 -1.16417,9.10167 -3.3655,17.653 -6.731,26.01384 -1.524,3.83088 -5.03767,11.00638 -7.21783,14.79522 -9.271,16.129 -16.93305,28.38421 -26.79672,42.86221 -2.18017,3.175 -3.95817,5.842 -3.95817,5.92667 0,0.0635 0.3175,0.48683 0.6985,0.93133 1.41817,1.60867 1.94734,3.02684 2.05317,5.43984 0.127,2.6035 -0.35983,4.40266 -1.73567,6.45555 -2.26483,3.429 -5.715,4.99533 -10.90083,4.99533 -2.58233,0 -2.81517,0.0212 -3.4925,0.55033 -1.05833,0.8255 -1.35467,1.12184 -2.0955,2.0955 -1.24883,1.62984 -3.51367,2.18017 -5.3975,1.31234 z m 2.83633,-3.175 c 0.42334,-0.42334 0.55034,-0.78317 0.508,-1.3335 -0.0635,-0.6985 -0.0212,-0.762 0.74084,-0.8255 0.80433,-0.0847 1.397,-0.40217 1.397,-0.74084 0,-0.0847 -0.5715,-0.16933 -1.24884,-0.14816 -1.16416,0.0212 -2.01083,-0.3175 -2.01083,-0.78317 0,-0.10583 0.46567,-0.23283 1.05833,-0.3175 0.5715,-0.0847 1.35467,-0.3175 1.73567,-0.508 0.635,-0.3175 0.80433,-0.3175 2.13783,0.127 2.94217,0.99483 6.81567,0.78317 9.31334,-0.48683 1.35466,-0.67734 2.7305,-2.15872 3.45016,-3.68272 0.46567,-1.03717 0.61384,-1.67217 0.59267,-2.94217 0,-2.58233 -0.74083,-3.59833 -5.7785,-7.78933 -1.82033,-1.50283 -3.57717,-3.048 -3.91583,-3.429 -0.33867,-0.381 -1.05834,-1.18533 -1.62984,-1.82033 -0.9525,-1.0795 -3.00566,-2.4765 -3.64066,-2.4765 -0.5715,0 -0.27517,0.48683 0.46566,0.80433 1.905,0.80433 2.68817,1.92617 2.9845,4.36033 0.27517,2.159 0.61384,2.68817 2.7305,4.46617 2.3495,1.94733 3.32317,2.43417 4.14867,2.07433 0.9525,-0.4445 1.10067,-0.35983 0.93133,0.52917 -0.10583,0.65617 -0.0212,0.97367 0.61384,1.8415 1.43933,2.05317 1.12183,4.3815 -0.86784,6.30767 -1.50283,1.43905 -2.70933,1.86238 -5.35516,1.88355 -2.58234,0 -4.36034,-0.46567 -5.18584,-1.33322 -0.27516,-0.29633 -0.74083,-0.71967 -1.0795,-0.93133 -0.65616,-0.46567 -1.0795,-1.67217 -1.0795,-3.13267 0,-0.55033 -0.0847,-1.03717 -0.21166,-1.12183 -0.21167,-0.127 -0.5715,0.71966 -1.43934,3.4925 -0.27516,0.889 -0.762,2.03171 -1.0795,2.51855 l -0.5715,0.91016 0.59267,0.86784 0.5715,0.889 -0.67733,0.59266 c -0.8255,0.71967 -0.86784,1.397 -0.10584,2.159 0.71967,0.71967 1.16417,0.71967 1.905,-0.0212 z m 10.45634,-8.36055 c 0.80433,-0.33867 1.75683,-1.56634 1.75683,-2.26484 0,-0.5715 -0.91017,-1.60866 -1.41817,-1.60866 -0.3175,0 -0.8255,0.5715 -1.62983,1.79916 -0.635,0.99484 -1.143,1.94734 -1.143,2.11667 0,0.40217 1.43933,0.35983 2.43417,-0.0423 z m -6.05367,-0.42334 c 0.1905,-0.29633 1.2065,-1.82033 2.2225,-3.40783 l 1.86267,-2.87867 -1.143,-1.24883 c -0.86784,-0.9525 -1.18534,-1.524 -1.31234,-2.26483 -0.254,-1.69334 -0.33866,-1.86267 -0.71966,-1.56634 -0.1905,0.16934 -0.84667,1.143 -1.48167,2.18017 -2.56117,4.29683 -2.87867,5.37633 -2.11667,7.4295 0.48684,1.27 1.35467,2.26483 2.01084,2.26483 0.16933,0 0.46566,-0.23283 0.67733,-0.508 z m 19.47333,-23.876 c 4.3815,-6.62516 8.04334,-12.25521 8.10684,-12.50921 0.0847,-0.33867 0.0423,-0.4445 -0.21167,-0.33867 -0.16933,0.0635 -0.6985,0.254 -1.18533,0.40217 -0.46567,0.16933 -1.05834,0.508 -1.29117,0.78316 -0.23283,0.27489 -3.72533,5.43955 -7.747,11.51439 l -7.32367,11.02783 0.55034,0.5715 c 0.29633,0.3175 0.67733,0.5715 0.8255,0.5715 0.14816,0 3.8735,-5.41867 8.27616,-12.02267 z m -8.93233,6.13834 c 10.8585,-15.47284 12.0015,-17.2085 11.32417,-17.18734 -0.508,0.0212 -4.10634,1.143 -4.23334,1.3335 -0.0847,0.10584 -2.20133,3.2385 -4.72016,6.96384 -2.51884,3.70416 -5.10117,7.51416 -5.7785,8.4455 -0.762,1.0795 -1.16417,1.8415 -1.0795,2.0955 0.127,0.381 1.67216,1.67216 1.98966,1.67216 0.0847,0 1.2065,-1.48166 2.49767,-3.32316 z m -2.49767,-17.3355 c 5.7785,-0.67705 12.42484,-2.26455 18.161,-4.31772 3.429,-1.22767 5.41839,-2.13783 5.88405,-2.68817 0.6985,-0.80433 5.05884,-7.89516 7.66234,-12.46716 9.99066,-17.399 15.57866,-33.16789 16.78516,-47.32839 0.48684,-5.60905 0.508,-6.01122 0.3175,-6.13822 -0.10583,-0.0635 -0.74083,0.33867 -1.41816,0.91017 -5.9055,4.88938 -16.21367,7.95855 -24.99755,7.47172 -7.64117,-0.4445 -14.05467,-2.032 -29.972,-7.36589 -12.46689,-4.19097 -16.67905,-5.3128 -23.91805,-6.45578 -3.8735,-0.59266 -14.20284,-0.59266 -17.82234,0 -6.03222,1.01598 -11.28155,2.70931 -15.98055,5.20695 -3.556,1.88383 -7.8105,4.9318 -7.40833,5.33397 0.0847,0.0847 0.635,0.0423 1.2065,-0.0847 1.62983,-0.42333 4.52966,-0.33867 5.48216,0.127 1.75684,0.91008 2.2225,2.53991 1.41817,4.93175 -0.254,0.80433 -0.74083,1.88383 -1.05833,2.39183 -1.24884,1.94733 -4.99534,4.29683 -8.23384,5.12233 -0.9525,0.254 -1.778,0.48684 -1.82033,0.52917 -0.0423,0.0212 0.84667,0.42333 1.9685,0.86783 2.75167,1.0795 2.75167,1.397 -0.0423,1.905 -1.2065,0.23284 -3.3655,0.78317 -4.826,1.22767 -1.4605,0.46567 -3.34433,1.016 -4.16975,1.2065 -0.84666,0.21167 -1.60866,0.4445 -1.7145,0.55033 -0.10583,0.0847 0.508,0.65617 1.35467,1.27 2.83625,2.01084 4.48725,4.74134 4.72008,7.72584 0.14817,1.98938 -0.1905,3.55572 -1.24883,5.88405 -0.52917,1.16417 -0.67734,1.7145 -0.48684,1.778 0.14817,0.0635 1.48167,0.14817 2.96334,0.21167 4.27566,0.16933 6.2865,1.0795 2.39183,1.0795 -4.02167,0 -8.40308,0.99483 -12.17072,2.70933 -6.3923,2.94217 -11.42992,8.59367 -14.47789,16.29833 -1.12183,2.83634 -1.03716,2.921 1.33348,1.31234 5.5668,-3.7465 12.48824,-6.223 19.66363,-7.0485 3.47133,-0.40217 12.72117,-0.127 16.7005,0.46566 7.59883,1.143 12.36105,2.921 19.89639,7.366 11.1125,6.5405 20.67983,9.63084 32.55405,10.47722 2.07433,0.14817 8.31849,-0.10583 11.30299,-0.46567 z m -10.13883,-4.12722 c -1.35467,-0.4445 -1.92617,-0.80433 -3.09033,-1.86267 -1.22767,-1.143 -1.92617,-2.413 -1.92617,-3.53483 0,-0.4445 -0.10583,-0.86783 -0.21167,-0.93133 -0.12671,-0.0847 -0.99455,0.16933 -1.94705,0.55033 -5.18583,2.0955 -11.303,1.75683 -15.8115,-0.84667 -2.01083,-1.16416 -5.67266,-4.84716 -6.83683,-6.90033 -0.508,-0.84667 -1.016,-1.56633 -1.12183,-1.56633 -0.127,0 -0.48684,0.29633 -0.78317,0.67733 -0.3175,0.35983 -1.12183,0.889 -1.778,1.18533 -2.96333,1.27 -6.731,0.3175 -8.59367,-2.18016 -1.48138,-1.98967 -2.01055,-2.45534 -3.06888,-2.70934 -1.73567,-0.4445 -2.54,-1.397 -2.54,-2.9845 0,-1.24883 0.84666,-2.2225 2.286,-2.6035 0.508,-0.127 1.03716,-0.381 1.18533,-0.55033 0.1905,-0.23283 1.52372,-0.29633 5.86289,-0.29633 l 5.60916,0.0212 0,-0.55034 c 0,-0.33866 -0.71966,-1.37583 -1.94733,-2.794 -2.413,-2.81516 -3.70417,-4.5085 -5.35517,-7.04822 -4.59288,-7.09083 -6.73072,-15.07066 -5.67238,-21.18783 0.35983,-2.01083 2.20133,-8.10675 2.66672,-8.84758 0.3175,-0.48683 0.46566,-0.0847 1.10066,2.68808 2.2225,9.8425 5.88434,18.13983 10.668,24.17233 2.77284,3.51367 11.32417,11.91656 11.72634,11.53556 0.0423,-0.0423 -0.65617,-2.2225 -1.54517,-4.84717 -1.778,-5.29139 -1.905,-6.28622 -1.27,-9.33422 0.3175,-1.50283 0.3175,-1.73567 -0.0212,-2.51883 -0.23283,-0.508 -0.4445,-1.82034 -0.508,-3.25967 l -0.127,-2.39183 0.8255,-0.74084 c 1.16417,-1.10066 1.29117,-1.41816 1.56633,-4.572 0.29634,-3.09033 0.6985,-4.93183 1.397,-6.30766 1.778,-3.49242 5.94784,-6.24406 10.18117,-6.68856 2.62467,-0.29633 7.38688,0.59267 10.98522,2.01081 7.1755,2.81508 10.94317,7.51408 10.87967,13.50425 0,2.667 -0.46567,4.0005 -2.37067,7.112 -2.159,3.51366 -2.24367,3.70416 -1.92617,4.93183 0.23284,0.9525 0.21167,1.143 -0.254,1.905 -0.71966,1.16417 -2.7305,3.28083 -3.51366,3.68272 -0.42334,0.23283 -0.97367,1.016 -1.7145,2.45533 -0.61384,1.18534 -1.43934,2.45534 -1.8415,2.8575 -0.61384,0.61384 -3.83117,2.921 -7.64089,5.48217 -1.62983,1.0795 -1.43933,1.10067 3.59805,0.61383 8.74184,-0.84666 14.56267,-2.3495 20.40467,-5.24933 4.97417,-2.45533 9.54617,-5.50333 14.478,-9.67289 1.20622,-0.99483 2.24338,-1.73566 2.32805,-1.67216 0.21167,0.21166 -0.762,3.40783 -1.90472,6.26505 -1.3335,3.34433 -2.87866,5.73617 -5.03766,7.874 -5.1435,5.08 -11.6205,8.33967 -20.6375,10.39283 -4.3815,0.99484 -4.52967,1.03717 -4.7625,1.48167 -0.1905,0.35983 0.10583,0.635 2.032,1.94733 1.24883,0.84667 2.94216,2.13784 3.7465,2.87867 0.8255,0.74083 1.82033,1.50283 2.20133,1.7145 0.40217,0.21167 0.80433,0.61383 0.889,0.9525 0.0847,0.3175 0.42333,0.99483 0.762,1.48167 0.74083,1.0795 0.78317,1.86266 0.16933,2.87866 -0.8255,1.3335 -2.49766,1.82034 -3.7465,1.12184 -0.78316,-0.4445 -2.30716,-0.4445 -3.3655,0 -1.2065,0.508 -3.556,0.635 -4.67783,0.27516 z m 1.67217,-2.18017 c -0.0635,-0.0635 -0.27517,-0.0847 -0.4445,0 -0.1905,0.0635 -0.127,0.127 0.14816,0.127 0.23284,0.0212 0.381,-0.0423 0.29634,-0.127 z m 8.1915,-0.254 c 0.27516,-0.48683 -0.0635,-1.22766 -0.55034,-1.22766 -0.1905,0 -0.33866,-0.21167 -0.33866,-0.52917 0,-0.35983 -0.48684,-0.93133 -1.54517,-1.79917 -0.8255,-0.71966 -2.01083,-1.7145 -2.6035,-2.24366 -1.12183,-0.99484 -3.32317,-2.43417 -3.70417,-2.43417 -0.10583,0 -0.21166,0.80433 -0.21166,1.75683 -0.0212,0.97367 0.0423,1.75684 0.127,1.75684 0.0635,0 0.9525,0.46566 1.9685,1.03716 1.016,0.59267 1.94733,1.05834 2.05316,1.05834 0.10584,0 0.3175,-0.27517 0.46567,-0.61384 0.23283,-0.508 0.29633,-0.52916 0.42333,-0.1905 0.0635,0.21167 0.0635,0.889 0,1.50284 l -0.14816,1.10066 1.12183,-0.29633 c 1.12183,-0.29633 1.35467,-0.21167 0.84667,0.3175 -0.23284,0.21167 -0.21167,0.27517 0.0635,0.27517 0.1905,0 0.508,0.21166 0.74083,0.46566 0.48683,0.5715 0.99483,0.59267 1.29117,0.0635 z m -10.56217,-0.84666 c -0.4445,-0.42334 -0.8255,-0.97367 -0.8255,-1.22767 -0.0212,-0.23283 -0.16933,-0.6985 -0.33867,-1.016 -0.29633,-0.52917 -0.27516,-0.59267 0.33867,-0.97367 0.4445,-0.27516 0.84667,-0.889 1.29117,-2.032 0.635,-1.60866 0.635,-1.67216 0.254,-2.64583 -0.21167,-0.5715 -0.381,-1.27 -0.381,-1.56633 0,-0.84667 -0.27517,-0.40217 -0.9525,1.56633 -0.33867,0.99483 -0.8255,2.39183 -1.10067,3.13267 -0.93133,2.43416 -0.46567,4.14866 1.35467,5.12233 1.18533,0.635 1.31233,0.52917 0.35983,-0.35983 z m -9.84222,-3.556 c 2.159,-0.48684 5.18584,-1.88384 6.15922,-2.8575 0.61383,-0.635 0.762,-0.9525 0.762,-1.73567 -0.0212,-3.53483 -4.91038,-9.3345 -9.44005,-11.176 -2.0955,-0.86783 -2.8575,-0.99483 -5.715,-0.99483 -2.07433,0 -3.3655,0.127 -4.445,0.40216 -2.032,0.5715 -4.59317,1.79917 -5.6515,2.7305 -1.24883,1.10067 -1.2065,2.0955 0.21167,4.953 0.93133,1.8415 1.43933,2.51884 3.32316,4.40267 2.39184,2.37067 4.40267,3.59833 7.02734,4.27567 1.73566,0.46566 5.69383,0.46566 7.76816,0 z m 2.54,-7.5565 c -0.93133,-0.52917 -1.69333,-1.10067 -1.69333,-1.29117 0,-0.1905 0.0847,-0.33867 0.1905,-0.33867 0.48683,0 3.89467,2.54 3.429,2.56117 -0.127,0 -0.99483,-0.42333 -1.92617,-0.93133 z m -16.4465,-5.41867 c -0.84666,-0.127 -1.56633,-0.3175 -1.56633,-0.4445 0,-0.21167 3.25967,-0.27517 3.81,-0.0635 0.46567,0.16933 0.23283,0.80433 -0.27517,0.762 -0.21166,-0.0212 -1.10066,-0.127 -1.9685,-0.254 z m -9.50383,4.5085 c 0.86783,-0.61383 1.37583,-1.62983 2.01083,-3.937 0.29634,-1.12183 0.74084,-2.43417 0.9525,-2.89983 0.21167,-0.48684 0.33867,-0.93134 0.29634,-0.97367 -0.0635,-0.0635 -0.67734,0.33867 -1.37584,0.889 -1.2065,0.91017 -1.31233,1.0795 -1.73566,2.68817 -0.35984,1.3335 -0.40217,1.79916 -0.16934,2.13783 0.33867,0.55033 0.33867,0.91017 0,0.91017 -0.127,0 -0.5715,0.254 -0.9525,0.5715 -0.52916,0.46566 -0.97366,0.59266 -1.88383,0.61383 l -1.2065,0.0212 0.93133,0.3175 c 1.10067,0.381 2.32834,0.254 3.13267,-0.33867 z m 35.03055,-0.59267 c 5.82083,-0.67733 10.75267,-2.05316 15.51517,-4.318 3.66183,-1.75683 6.49816,-3.70416 9.03816,-6.24416 2.6035,-2.56117 5.461,-6.81567 4.61434,-6.81567 -0.10584,0 -1.18534,0.74083 -2.39184,1.651 -8.23383,6.18067 -18.20333,9.88483 -29.718,11.07017 -2.05316,0.21166 -3.85205,0.48683 -3.97905,0.59266 -0.35983,0.35984 1.18505,1.62984 1.82005,1.50284 0.27517,-0.0635 1.31234,-0.16934 2.26484,-0.254 3.048,-0.23284 7.21783,-0.99484 11.53583,-2.07434 2.30717,-0.5715 4.21217,-1.016 4.27567,-0.97366 0.14816,0.14816 -3.34434,1.50283 -5.73617,2.20133 -2.75167,0.8255 -7.5565,1.79917 -10.01183,2.032 -0.9525,0.0847 -1.75684,0.254 -1.82034,0.35983 -0.14816,0.23284 0.3175,1.18534 0.67734,1.43934 0.35983,0.23283 0.55033,0.21166 3.91583,-0.16934 z m -41.44405,-5.37633 c 0.381,-0.4445 0.381,-0.4445 0.27517,0.127 -0.0847,0.3175 -0.0635,0.6985 0.0423,0.8255 0.1905,0.29633 4.572,0.91017 4.93183,0.67733 0.127,-0.0635 0.23283,-0.27516 0.23283,-0.42333 0,-0.14817 0.33867,-0.67733 0.74084,-1.16417 0.52916,-0.65616 0.65616,-0.9525 0.4445,-1.0795 -0.3175,-0.21166 -3.70417,-0.52916 -3.95817,-0.381 -0.0847,0.0635 -1.35467,0.16934 -2.81517,0.254 -1.8415,0.0847 -2.794,0.254 -3.04771,0.48684 -0.21167,0.16933 -0.6985,0.33866 -1.10067,0.33866 -0.52917,0 -0.762,0.127 -0.86783,0.48684 -0.21167,0.65616 0.127,0.9525 1.27,0.97366 0.80433,0.0423 0.95221,-0.0212 0.95221,-0.42333 0.0212,-0.381 0.14817,-0.3175 0.74084,0.40217 l 0.71966,0.86783 0.52917,-0.74083 c 0.29633,-0.42334 0.71967,-0.97367 0.91017,-1.22767 z m 14.24517,-3.00567 c 0.42333,-0.3175 0.3175,-0.46566 -1.94734,-2.7305 -1.3335,-1.31233 -3.25966,-3.45016 -4.29683,-4.74133 -1.8415,-2.26483 -4.14867,-5.65122 -4.14867,-6.03222 0,-0.127 1.05834,1.05833 2.3495,2.62467 2.56117,3.09005 9.24984,9.79988 10.07534,10.11738 0.55033,0.21167 1.79916,-0.14816 1.79916,-0.48683 0,-0.10583 -1.143,-1.24883 -2.56116,-2.51883 -5.99017,-5.3975 -11.02784,-12.10706 -14.37217,-19.13439 -1.24883,-2.62467 -3.13267,-7.89517 -3.47133,-9.7155 -0.21167,-1.143 -0.508,-1.31233 -0.84639,-0.48683 -0.35983,0.9525 -0.35983,6.4135 0,8.46666 1.41789,7.91634 6.43439,16.25572 13.96972,23.19839 1.98967,1.82033 2.58233,2.07433 3.45017,1.43933 z m 17.80116,-0.61383 c 0.5715,-0.254 1.73567,-0.97367 2.58234,-1.60867 0.84638,-0.61383 2.43388,-1.7145 3.55571,-2.45533 1.94734,-1.27 2.05317,-1.37583 3.048,-3.34433 0.5715,-1.12184 0.99484,-2.15872 0.93134,-2.32806 -0.23284,-0.635 -0.97367,-0.254 -1.67217,0.86756 -0.42333,0.71966 -1.03717,1.3335 -1.5875,1.60866 -0.48683,0.254 -1.397,0.99484 -2.032,1.651 -0.635,0.65617 -1.24883,1.18534 -1.37583,1.18534 -0.10584,0 -0.40217,-0.23284 -0.65589,-0.52917 -0.42333,-0.508 -0.46566,-0.508 -0.71966,-0.0847 -0.67734,1.016 -0.84667,1.18533 -0.99484,1.03717 -0.0847,-0.0847 -0.0423,-0.381 0.10584,-0.65617 0.21166,-0.381 0.21166,-0.5715 0,-0.8255 -0.508,-0.61383 -1.12184,-0.381 -1.62984,0.59267 -0.52916,1.03716 -1.05833,1.27 -0.8255,0.33866 0.0635,-0.3175 0.1905,-0.8255 0.27517,-1.143 0.127,-0.48683 0.0423,-0.59266 -0.46567,-0.71966 -0.762,-0.1905 -1.22766,0.16933 -1.41816,1.0795 -0.0847,0.381 -0.3175,0.67733 -0.508,0.67733 -0.27517,0 -0.3175,-0.21167 -0.1905,-1.05833 0.1905,-1.143 -0.10584,-1.73567 -0.84667,-1.73567 -0.3175,0 -0.508,0.27517 -0.6985,1.03717 -0.14817,0.59266 -0.35983,1.05833 -0.46567,1.05833 -0.27516,0 -0.254,-0.52917 0.0423,-1.3335 0.21167,-0.55033 0.16934,-0.6985 -0.254,-1.05833 -0.6985,-0.55034 -0.86783,-0.52917 -1.29116,0.29633 -0.508,0.99483 -0.762,0.86783 -0.635,-0.3175 0.127,-1.12183 -0.1905,-1.54489 -0.78317,-1.05833 -0.5715,0.46566 -0.9525,-0.254 -1.143,-2.09522 -0.10583,-0.84667 -0.3175,-1.75684 -0.48684,-2.01084 -0.21166,-0.27516 -0.3175,-1.10066 -0.3175,-2.13783 0,-1.31233 -0.0847,-1.69333 -0.38099,-1.79917 -0.1905,-0.0847 -0.4445,-0.10583 -0.55034,-0.0423 -0.10583,0.0635 -0.381,1.10067 -0.59267,2.286 l -0.40216,2.159 1.56633,4.65639 c 0.86784,2.56117 1.79917,4.99533 2.0955,5.37633 1.778,2.3495 6.18067,3.57717 8.72067,2.43417 z m 4.21189,-7.47183 c 0.23283,-0.381 0.48683,-1.2065 0.5715,-1.79917 0.127,-0.88872 0.0847,-1.16389 -0.254,-1.39672 -1.0795,-0.80433 1.31233,-1.2065 3.89466,-0.65617 3.13267,0.65617 4.0005,0.4445 5.50334,-1.37583 0.80433,-0.99483 0.84666,-1.10067 0.6985,-2.286 -0.127,-0.97367 -0.0423,-1.62983 0.40216,-3.00567 l 0.5715,-1.75683 -0.55033,-0.91017 c -0.8255,-1.35466 -0.65617,-1.75683 0.27517,-0.67733 l 0.80433,0.93133 0.59267,-0.6985 c 1.651,-1.98966 2.43416,-4.93183 1.9685,-7.493 -0.40217,-2.39183 -1.24884,-3.91583 -3.28084,-5.94783 -1.48166,-1.4605 -2.20133,-1.98967 -4.21216,-2.96333 -5.86317,-2.87858 -11.49322,-3.38658 -15.70539,-1.41808 -2.83633,1.33341 -4.80483,4.16974 -5.2705,7.53524 -0.29633,2.20134 -0.16933,2.43417 1.143,2.05317 0.508,-0.14817 1.03717,-0.27517 1.2065,-0.27517 0.55034,0 -0.21166,0.61384 -1.24883,1.016 -0.93133,0.35984 -1.016,0.46567 -1.50283,1.98967 -0.33867,1.05833 -0.84667,1.9685 -1.4605,2.667 -0.99484,1.12183 -1.143,1.88383 -0.6985,3.72533 0.27516,1.22767 0.91016,1.8415 2.921,2.81517 0.9525,0.4445 2.159,1.2065 2.667,1.67217 1.03716,0.93133 1.27,1.651 0.48683,1.43933 -0.381,-0.10583 -0.59267,0.0847 -1.05833,1.016 -0.59267,1.16417 -0.78317,2.77283 -0.3175,2.77283 0.127,0 0.42333,-0.40216 0.635,-0.93133 0.61383,-1.4605 1.31233,-1.12183 0.74083,0.381 -0.29633,0.762 0.0423,1.27 0.84667,1.27 0.381,0 0.67733,-0.254 1.016,-0.889 l 0.46566,-0.86783 -0.127,1.10066 c -0.14816,1.03717 -0.10583,1.12184 0.46567,1.37556 0.80433,0.381 1.29117,0.0847 1.651,-0.97339 0.29633,-0.91017 0.99483,-1.3335 0.6985,-0.42333 -0.0847,0.29633 -0.21167,0.889 -0.27517,1.29088 -0.10583,0.65617 -0.0423,0.78317 0.48684,0.91017 0.86783,0.21167 1.22766,0 1.41816,-0.8255 0.254,-1.12155 0.635,-0.84639 0.46567,0.33867 -0.14817,0.9525 -0.127,1.05833 0.4445,1.31233 0.67733,0.3175 1.31233,-0.0212 1.31233,-0.71967 0,-0.55033 0.63472,-1.0795 0.93105,-0.78316 0.14817,0.14816 0.10584,0.48683 -0.127,0.9525 -0.63471,1.27 0.0635,1.7145 0.80434,0.508 z m -3.76739,-6.58256 c -0.381,-0.35983 -0.80433,-0.508 -1.4605,-0.508 -0.84666,0 -0.93133,-0.0635 -1.016,-0.65616 -0.0423,-0.46567 0.10584,-0.8255 0.59267,-1.29117 0.381,-0.33867 0.97367,-1.016 1.3335,-1.50283 0.67733,-0.889 1.29117,-1.10067 1.7145,-0.5715 0.127,0.14816 0.27517,1.143 0.35983,2.18016 0.0847,1.4605 0.0423,2.032 -0.23283,2.39184 -0.42333,0.61383 -0.65617,0.61383 -1.29117,-0.0423 z m 6.94239,-1.41816 c -2.26484,-0.5715 -2.7305,-1.12184 -3.048,-3.683 -0.1905,-1.54517 0.0423,-1.79917 0.97366,-1.05834 0.59267,0.46567 0.86784,0.508 2.87867,0.4445 5.41867,-0.1905 5.0165,-0.23283 4.953,0.42334 -0.0847,0.889 -1.27,3.048 -1.94733,3.556 -0.78317,0.5715 -2.32834,0.6985 -3.81,0.3175 z m -13.31355,-4.55084 c -1.9685,-0.93133 -2.667,-1.82033 -2.667,-3.38666 0,-1.4605 0.61383,-3.40784 1.05833,-3.40784 0.1905,0 1.2065,0.8255 2.286,1.8415 2.20133,2.0955 3.02683,2.6035 4.21217,2.6035 0.48683,0 0.8255,0.10584 0.8255,0.27517 0,0.14817 -0.5715,0.8255 -1.27,1.50283 -1.54517,1.50284 -2.286,1.5875 -4.445,0.5715 z"
         id="path4293"
         inkscape:connector-curvature="0" />
      <path
         style="fill:#ffffff;fill-opacity:1;fill-rule:evenodd;stroke:none"
         d="m -446.68691,617.40924 0.635,-0.93134 0.80433,0 0.635,-0.91016 1.18533,0.3175 -0.40216,0.80433 1.22766,0.16933 0.33867,-0.8255 1.16417,0.1905 -0.508,0.97367 1.22766,0.3175 0.29634,-1.03717 1.03716,0.40217 -0.1905,1.016 0.78317,0.27517 0.27517,-0.889 1.16416,0.48683 -0.0847,0.99483 1.0795,0.4445 0.0635,-1.016 1.143,0.61384 -0.0423,1.22766 0.508,0.27517 -0.127,1.35467 -0.46566,-0.29634 -0.3175,1.5875 -1.29117,-0.5715 0.3175,-1.60866 -1.16417,-0.5715 -0.40216,1.524 -1.143,-0.48684 0.35983,-1.37583 -1.16417,-0.508 -0.4445,1.35467 -1.22766,-0.381 0.42333,-1.43934 -1.143,-0.33866 -0.508,1.41816 -1.24883,-0.29633 0.508,-1.29117 -1.35467,-0.33866 -0.5715,1.35466 -1.35467,-0.16933 0.6985,-1.69333 -0.71966,-0.127 z"
         id="path4295"
         inkscape:connector-curvature="0" />
    </g>
  </g>
</svg>
