<svg width="1204" height="1332" viewBox="0 0 1204 1332" fill="none" xmlns="http://www.w3.org/2000/svg">
<path d="M572 239.5C519.026 204.773 368 107.5 266 0C235.2 56 226.5 177.333 226 231L202 204.5C182.4 276.1 196.833 371.333 206.5 410C120.9 473.2 64.1667 538.667 46.5 563.5L88 576.5C48.8 620.5 13 700.167 0 734.5H66.4998C32.0998 867.3 112.833 955.833 157.5 983.5L770.5 1322C696.9 1111.2 770.167 1051.17 816 1047.5C948.4 1076.3 1060.17 1004.5 1099.5 965L1117 1011.5C1281 811 1157 607 1051 573.5C1051 505.5 1033.2 480.9 1002 440.5C963 390 662 298.5 572 239.5Z" transform="translate(4.5 4.5)" fill="black" stroke="white" stroke-width="5"/>
<path d="M75.0751 23.5L49.5751 0C-30.9199 52.5 6.88478 133.137 23.5768 147.5C45.0771 166 114.077 205 170.575 120.5L152.075 101C117.077 159.5 64.0792 127.191 56.5771 120.5C49.0751 113.809 15.5771 57 75.0751 23.5Z" transform="translate(661.423 528)" fill="white"/>
<path d="M37.8007 35L5.30066 0C1.30066 8.16667 -4.29934 26.6 5.30066 35C14.9007 43.4 30.9673 38.5 37.8007 35Z" transform="translate(768.699 585)" fill="white"/>
<path d="M23.5 51.5C7.9 54.7 1.33333 58.1667 0 59.5C0 54.3333 1.7 40.4 8.5 26C15.3 11.6 29.6667 2.66667 36 0C40.8 8 46 35 48 47.5C46.3333 47.5 39.1 48.3 23.5 51.5Z" transform="translate(882 821.5)" fill="white"/>
<path d="M43 0C28.7336 2.81067 19.7516 5.26871 0 13C10.5058 27.9008 19.5003 34.2017 41.5 41.5C43.4748 25.2666 43.698 16.1821 43 0Z" transform="translate(886.5 892)" fill="white"/>
<path d="M13 4.33003C9.8125 24.2187 7.19742 34.4405 0 49.83C13.5433 52.8376 23.1581 51.923 39.5 51.33C44.2974 32.3568 45.5168 20.9768 47 0.330028C33.0662 -0.46242 25.4838 -0.081841 13 4.33003Z" transform="translate(935.5 884.171)" fill="white"/>
<path d="M15 1.89532C11.3008 23.0647 7.89056 33.9147 0 51.8953C39.8231 49.1448 48.1563 36.7662 46.5 1.89532C34.1985 -0.371278 27.3015 -0.879523 15 1.89532Z" transform="translate(984 881.605)" fill="white"/>
<path d="M1 31C1.45446 19.1261 1.07267 12.2938 0 0C18.4261 13.2384 26.7608 21.9183 37.5 40C23.1987 34.1377 15.1905 31.3468 1 31Z" transform="translate(1048 835)" fill="white"/>
<path d="M11.5 0C8.7748 15.148 6.1322 22.3371 0 33.5C19.9931 26.665 29.3206 21.1815 45.5 11C32.8588 5.17455 25.4925 2.57854 11.5 0Z" transform="translate(1035.5 884.5)" fill="white"/>
<path d="M0 5C9.78211 0.912652 17.7863 0.0781193 34.5 0C45.3 24 48.3333 45.6667 48.5 53.5C34.5 51.1 16.6667 54.5 9.5 56.5C10.6667 48.1667 10.4 26.2 0 5Z" transform="translate(935.5 810.002)" fill="white"/>
<path d="M38 50.5C22.9621 49.6048 15.8913 49.5183 7 50.5C6.36192 30.2978 4.77761 19.2526 0 0C30.3547 3.60038 39.4483 13.8538 38 50.5Z" transform="translate(993.5 812.001)" fill="white"/>
<path d="M463.863 185.433C364.516 126.178 254.829 38.8418 216.5 0C174 155 217.896 230.528 245.5 288C212.587 282.516 176.346 262.776 166.5 251C173.673 318.49 219 388.5 246 411.5C203.09 400.716 162.386 376.204 153.716 366.285C106.5 393 71.5 425.5 62.5 445C80.6446 445 96.9264 451.526 102.025 457.501C45 509 2.46148 570.328 0 593H52C28.9676 650.999 13.4121 777.972 125.233 851.368L566.5 1098C527.679 988.751 553 936 591.5 916C561.259 914.945 497.786 900.134 475 855C493.637 859.042 553.5 860 585.5 834.5C522.5 827 484 799 465.973 775.442C513.5 775.442 544.243 771.982 578 753C543.5 737.5 508 715 485.5 687C519.5 693.5 550.899 687.436 585.5 679C401 582.5 504.5 416 601 403C597 376.5 532 335 504 323.5C581 327 628 350 670.5 386.5C714.191 424.022 719.364 458.5 770 458.5C810.509 458.5 812.5 433 809.5 409.5C837 439 835 471 805 512C840 479.5 870.988 476 925 476C922 409.5 908.295 404.853 868 367C835 336 609 272 463.863 185.433Z" transform="translate(80.5 96)" fill="#CA0019"/>
<path d="M420.293 291.949C515.793 103.951 243.793 -156.05 137.294 120.949C-17.2067 133.451 -21.2084 293.911 27.7919 345.451C76.7922 396.992 237.029 425.641 355.794 313.949C214.403 377.779 93.793 345.451 131.293 223.45C175.293 123.449 340.932 135.438 420.293 291.949Z" transform="translate(718.707 616.55)" fill="#FDBB0B"/>
</svg>
