<svg width="1445" height="1317" viewBox="0 0 1445 1317" fill="none" xmlns="http://www.w3.org/2000/svg">
<path d="M0 0C12.5256 36.8384 49.8447 126.872 98.9158 192.297L53.5 174C63.2626 197.392 86.3167 259.867 104 287C121.683 314.133 143.79 345.317 156.5 356L116.599 340.387C130.046 373.357 164.012 447.476 192.305 480.189C220.599 512.901 277.775 565.654 302.826 587.941C308.536 617.044 327.582 690.942 358.086 753.714C396.216 832.18 468.607 896.832 500.657 940.485C526.298 975.408 530.866 1015.08 529.945 1030.56C574.522 1043.26 684.674 1080.84 768.669 1129.47C852.665 1178.09 960.397 1274.08 1007 1317C1021.55 1284.95 1074.88 1193.21 1177 1118.5C1279.12 1043.79 1389.43 1064.13 1443.95 1075C1446.5 1002 1439.45 943 1424 898C1407.71 850.56 1355.5 776.366 1327.5 748C1307.24 677.27 1306.91 555.936 1176.5 441C1074.01 350.672 929.862 294.445 810.5 274C691.138 253.555 558.338 238.761 476 215C393.662 191.239 63.1808 37.0226 0 0Z" fill="#F2F2F2"/>
<path d="M0 0C11.3333 33.3333 45.1 114.8 89.5 174L31.5 152.5C40.3333 173.667 64.3 223.9 89.5 255.5C114.7 287.1 144 314.333 155.5 324L105.5 308C117.667 337.833 148.4 404.9 174 434.5C199.6 464.1 251.333 511.833 274 532C279.167 558.333 296.4 625.2 324 682C358.5 753 424 811.5 453 851C476.2 882.6 480.333 918.5 479.5 932.5C519.833 944 619.5 978 695.5 1022C771.5 1066 874.833 1154.67 917 1193.5C930.167 1164.5 979.6 1089.6 1072 1022C1164.4 954.4 1286.17 957.167 1335.5 967C1333 932.667 1323.7 853.5 1306.5 811.5C1289.3 769.5 1234.33 707.667 1209 682C1190.67 618 1190 501.5 1072 397.5C979.264 315.767 822 253 714 234.5C606 216 457.5 195.5 383 174C308.5 152.5 57.1667 33.5 0 0Z" transform="translate(85 76)" fill="black"/>
<path d="M63.5 66.5C92.7 92.9 119 109.5 128.5 114.5L73.5 111.5C78 123.167 89.2 149.7 98 162.5C109 178.5 126.5 189 136.5 191.5C146.5 194 156.5 195.5 178 191.5C195.2 188.3 215.5 163.833 223.5 152H247C243.667 160 235.1 178.2 227.5 187L227.412 187.102C217.889 198.129 199.858 219.008 154 221.5C108 224 63.5 187.5 32 142.5C6.8 106.5 0.166667 32.5 0 0C9 11.1667 34.3 40.1 63.5 66.5Z" transform="translate(925 605)" fill="white"/>
<path d="M566 842C603.6 862.8 655.667 905.333 677 924C716.5 907.5 746 860 755.5 824.5C766.278 784.225 744.5 689.5 710.5 600C683.3 528.4 571.833 373.167 519.5 304.5C549.5 308.667 619.1 319.7 657.5 330.5C705.5 344 757 361 822 425C887 489 924.5 517.5 970 544.5C1006.4 566.1 1053.17 559.167 1072 553C1067 525.167 1048.9 455.7 1016.5 400.5C976 331.5 864.5 260 764 217.5C663.5 175 379 141 285.5 122C210.7 106.8 67.1667 36 0 0C7 16.8333 32.9 62 80.5 108C128.1 154 209.667 200.167 244.5 217.5L57.5 160C73.8333 178.167 115.8 222.3 153 253.5C190.2 284.7 267.833 327.833 302 345.5L128 289C149.167 315.167 200.9 375.7 238.5 408.5C276.1 441.3 337.5 477.833 363.5 492L260.5 481C264 495.167 275.8 532.4 295 568C319 612.5 362 650.892 377.5 671C396 695 411 710.5 426.5 739.5C438.9 762.7 442.334 780.833 442.5 787C468 796.666 528.4 821.2 566 842Z" transform="translate(180 169)" fill="#B0063A"/>
<path d="M22 70.5668C27.2 97.3668 19.8333 130.067 15.5 143.067C37 131.734 93.5 105.467 147.5 91.0669C201.5 76.6669 263 82.4002 287 87.0669C270.667 75.4002 221.3 45.8668 154.5 21.0668C87.7 -3.73319 23.6667 -1.59986 0 2.56681C5.16667 14.0668 16.8 43.7668 22 70.5668Z" transform="translate(1099 924.934)" fill="#FFC20E"/>
<path d="M90 60.5C63.6 81.7 19 96.3333 0 101C24.6667 104 89.6 115.3 152 136.5C214.4 157.7 267 197.667 285.5 215C279.833 195.5 270 145 240 101C209.553 56.3446 163.833 12.5 143.5 0C136.667 11.3333 116.4 39.3 90 60.5Z" transform="translate(1105.5 779)" fill="#FFC20E"/>
</svg>
