<?xml version="1.0" encoding="UTF-8" standalone="no"?>
<!-- Created with Inkscape (http://www.inkscape.org/) -->

<svg
   xmlns:dc="http://purl.org/dc/elements/1.1/"
   xmlns:cc="http://creativecommons.org/ns#"
   xmlns:rdf="http://www.w3.org/1999/02/22-rdf-syntax-ns#"
   xmlns:svg="http://www.w3.org/2000/svg"
   xmlns="http://www.w3.org/2000/svg"
   xmlns:sodipodi="http://sodipodi.sourceforge.net/DTD/sodipodi-0.dtd"
   xmlns:inkscape="http://www.inkscape.org/namespaces/inkscape"
   width="200"
   height="150"
   viewBox="0 0 200 150"
   id="svg2"
   version="1.1"
   inkscape:version="0.91 r13725"
   sodipodi:docname="Chargers.svg">
  <defs
     id="defs4">
    <pattern
       y="0"
       x="0"
       height="6"
       width="6"
       patternUnits="userSpaceOnUse"
       id="EMFhbasepattern" />
  </defs>
  <sodipodi:namedview
     id="base"
     pagecolor="#ffffff"
     bordercolor="#666666"
     borderopacity="1.0"
     inkscape:pageopacity="0.0"
     inkscape:pageshadow="2"
     inkscape:zoom="1.979899"
     inkscape:cx="110.574"
     inkscape:cy="35.722924"
     inkscape:document-units="px"
     inkscape:current-layer="layer1"
     showgrid="false"
     fit-margin-top="0"
     fit-margin-left="0"
     fit-margin-right="0"
     fit-margin-bottom="0"
     units="px"
     inkscape:window-width="1440"
     inkscape:window-height="837"
     inkscape:window-x="1432"
     inkscape:window-y="-8"
     inkscape:window-maximized="1" />
  <metadata
     id="metadata7">
    <rdf:RDF>
      <cc:Work
         rdf:about="">
        <dc:format>image/svg+xml</dc:format>
        <dc:type
           rdf:resource="http://purl.org/dc/dcmitype/StillImage" />
        <dc:title></dc:title>
      </cc:Work>
    </rdf:RDF>
  </metadata>
  <g
     inkscape:label="Layer 1"
     inkscape:groupmode="layer"
     id="layer1"
     transform="translate(536.30539,-546.064)">
    <g
       id="g4427"
       transform="matrix(2.3296387,0,0,2.3296387,237.05627,2740.0519)"
       inkscape:export-filename="/home/chrx/Sites/sjtfl-env/sjtfl/static/img/Chargers.png"
       inkscape:export-xdpi="150.05879"
       inkscape:export-ydpi="150.05879">
      <path
         d="m -290.93555,-933.25781 c -0.27747,0.003 -0.50521,0.007 -0.69726,0.0176 -0.096,0.005 -0.17731,0.0101 -0.29492,0.0273 -0.0588,0.009 -0.11836,0.0144 -0.26563,0.0625 -0.0736,0.024 -0.17045,0.0475 -0.35156,0.17187 -0.0453,0.0311 -0.096,0.0689 -0.15235,0.1211 -0.0564,0.0522 -0.17935,0.20656 -0.17968,0.20703 -3.3e-4,4.7e-4 -0.17171,0.3296 -0.17188,0.33008 -1.6e-4,4.7e-4 -0.0742,0.44092 -0.0742,0.4414 0,6.9e-4 0.0189,0.23766 0.0352,0.30664 0.0162,0.069 0.0311,0.11437 0.0449,0.15235 0.0277,0.076 0.0495,0.11867 0.0664,0.15234 0.0338,0.0673 0.0549,0.0997 0.0742,0.13086 0.0386,0.0623 0.0687,0.10494 0.10351,0.1543 0.0696,0.0987 0.15189,0.21022 0.25195,0.3418 0.0519,0.0683 0.13715,0.17247 0.19727,0.25 -0.14851,0.001 -0.22238,0.005 -0.38086,0.006 -2.47408,0.0134 -3.32396,0.0482 -4.67187,0.19532 -10.23485,1.11725 -18.82851,4.77318 -24.92774,10.72461 -0.79693,0.77761 -1.64903,1.70717 -2.30859,2.48828 -0.32978,0.39055 -0.60836,0.7378 -0.82227,1.03906 -0.10695,0.15063 -0.19582,0.28063 -0.28906,0.46094 -0.0466,0.0901 -0.0984,0.18496 -0.14844,0.39062 -0.0496,0.20383 -0.18937,0.74404 0.34961,1.29102 0.0447,0.0435 0.11091,0.10712 0.15625,0.14062 0.0608,0.045 0.11343,0.0772 0.1582,0.10157 0.0895,0.0487 0.15225,0.0721 0.20313,0.0898 0.10177,0.0355 0.15709,0.0454 0.20508,0.0547 0.096,0.0186 0.15255,0.0242 0.20898,0.0293 0.11286,0.0102 0.2145,0.0125 0.33399,0.0156 0.0708,0.002 0.17083,-7e-4 0.25,0 -0.7869,1.05454 -1.5691,2.11418 -2.33789,3.39258 -3.131,5.20621 -5.07488,10.80943 -5.52149,16.0625 -0.14201,1.67043 -0.0745,4.21592 0.16406,5.7832 0.0433,0.28426 0.083,0.54554 0.11133,0.73633 0.0142,0.0954 0.0256,0.17408 0.0332,0.22656 0.004,0.0254 0.006,0.0445 0.008,0.0547 -0.001,-0.0117 -0.008,-0.13366 -0.008,-0.13281 0.001,0.10354 -0.003,0.24246 0.0937,0.48828 0.0966,0.24676 0.41762,0.66798 0.8789,0.80078 0.46129,0.1328 0.79702,-0.002 0.97071,-0.0879 0.17368,-0.0859 0.25323,-0.15868 0.3164,-0.21485 0.25269,-0.22466 0.27954,-0.31011 0.3711,-0.44531 0.1831,-0.2704 0.39558,-0.62992 0.69335,-1.15039 3.80411,-6.64897 8.50577,-12.13821 13.6836,-16.0293 3.28762,-2.47068 6.8962,-4.43999 12.42969,-6.75781 0.68278,-0.28597 1.11532,-0.47161 1.4375,-0.63281 0.16108,-0.0806 0.28879,-0.13982 0.48242,-0.29102 0.0968,-0.0756 0.22182,-0.16866 0.36914,-0.41406 0.14708,-0.245 0.26811,-0.77709 0.10742,-1.19727 -0.14207,-0.37037 -0.21035,-0.41019 -0.32617,-0.58007 -0.11582,-0.16989 -0.25471,-0.36053 -0.41016,-0.56641 -0.0339,-0.0449 -0.0779,-0.0945 -0.11328,-0.14062 0.50538,-0.008 0.73596,-0.0228 1.5,-0.0254 3.20794,-0.0108 4.30713,0.0394 6.74219,0.29493 7.76269,0.81488 15.31271,3.04142 22.75781,6.72265 2.20869,1.09204 3.04705,1.53925 4.95117,2.64649 0.34484,0.20056 0.66381,0.38416 0.9043,0.51953 0.12024,0.0677 0.21906,0.12204 0.30078,0.16601 0.0409,0.022 0.0759,0.041 0.11914,0.0625 0.0216,0.0108 0.0437,0.0219 0.0879,0.041 0.0221,0.01 0.0487,0.0203 0.10352,0.0391 0.0274,0.009 0.0609,0.021 0.11914,0.0352 0.0582,0.0141 0.31407,0.0371 0.31445,0.0371 9.1e-4,0 0.51875,-0.10319 0.51953,-0.10352 7.9e-4,-3.3e-4 0.41926,-0.28254 0.41992,-0.2832 6.7e-4,-6.6e-4 0.17643,-0.21041 0.22657,-0.30078 0.0501,-0.0904 0.0819,-0.16659 0.10351,-0.23242 0.0864,-0.26336 0.0694,-0.36753 0.0684,-0.45313 -0.002,-0.1712 -0.0194,-0.23757 -0.0332,-0.3125 -0.0134,-0.0726 -0.0343,-0.14269 -0.0508,-0.21094 4.65903,4.79211 9.40639,11.74298 12.24414,18.13282 0.14234,0.3205 0.24108,0.53811 0.38281,0.77148 0.0709,0.11669 0.11689,0.24052 0.38477,0.45899 0.13393,0.10923 0.359,0.27253 0.75195,0.30859 0.39295,0.0361 0.86283,-0.17514 1.08008,-0.39063 a 1.3272477,1.3272477 0 0 0 0.004,-0.004 c 0.38738,-0.3874 0.32579,-0.51184 0.35352,-0.61133 0.0277,-0.0995 0.0381,-0.15997 0.0469,-0.2168 0.0175,-0.11364 0.0254,-0.2071 0.0332,-0.31445 0.0156,-0.21469 0.0257,-0.47139 0.0332,-0.77734 0.0151,-0.6119 0.0178,-1.40733 0.0117,-2.25196 -0.0122,-1.68925 -0.0559,-3.50794 -0.15039,-4.47265 -0.66728,-6.81119 -2.47326,-12.51354 -5.52539,-17.24414 -0.59806,-0.92688 -2.35202,-3.34842 -3.10742,-4.29883 -4.80533,-6.04578 -11.72593,-10.96245 -19.66211,-14.01758 -3.04382,-1.17177 -6.43522,-1.9434 -10.17188,-2.32813 a 1.3272477,1.3272477 0 0 0 -0.002,0 c -1.30158,-0.13361 -4.52479,-0.20304 -6.19531,-0.18554 a 1.3272477,1.3272477 0 0 0 -0.002,0 z"
         id="path4420"
         style="fill:#ffffff"
         inkscape:original="M -290.91992 -931.93164 C -291.45487 -931.92564 -291.79687 -931.90971 -291.79688 -931.87891 C -291.79688 -931.83471 -291.32812 -931.21867 -290.75586 -930.50977 C -290.18359 -929.80097 -289.72683 -929.18648 -289.74023 -929.14648 C -289.75483 -929.10248 -290.9439 -929.06859 -292.72266 -929.05859 C -295.18715 -929.04529 -295.9442 -929.01449 -297.25781 -928.87109 C -307.26224 -927.77899 -315.55463 -924.22163 -321.40234 -918.51562 C -322.91396 -917.04063 -324.7499 -914.86596 -324.60547 -914.72266 C -324.57547 -914.68866 -324.06203 -914.67845 -323.46289 -914.68945 C -322.24049 -914.71175 -321.56641 -914.65905 -321.56641 -914.54102 C -321.56641 -914.49742 -321.8907 -914.05912 -322.28711 -913.56641 C -323.28544 -912.32542 -324.25612 -910.91381 -325.23438 -909.28711 C -328.27287 -904.23471 -330.14466 -898.80152 -330.57031 -893.79492 C -330.69764 -892.29722 -330.62381 -889.68902 -330.41602 -888.32422 C -330.32912 -887.75301 -330.25801 -887.27377 -330.25781 -887.25977 C -330.25581 -887.10307 -329.99465 -887.48961 -329.41211 -888.50781 C -325.53046 -895.29231 -320.7211 -900.92045 -315.37305 -904.93945 C -311.98202 -907.48785 -308.25087 -909.51883 -302.6582 -911.86133 C -301.3073 -912.42713 -300.95248 -912.60427 -300.98828 -912.69727 C -301.07478 -912.92277 -301.87421 -913.98148 -302.5293 -914.73828 C -302.89124 -915.15648 -303.1739 -915.53698 -303.1582 -915.58398 C -303.1011 -915.75528 -302.31242 -915.79955 -299.10352 -915.81055 C -295.87978 -915.82145 -294.67943 -915.76795 -292.21875 -915.50977 C -284.29489 -914.67797 -276.58598 -912.40135 -269.01172 -908.65625 C -266.79299 -907.55925 -265.89742 -907.0815 -263.98047 -905.9668 C -263.29945 -905.5707 -262.72362 -905.24609 -262.69922 -905.24609 C -262.5833 -905.24609 -263.46971 -907.97509 -263.98828 -909.21289 C -264.33546 -910.0415 -264.39083 -910.24609 -264.26758 -910.24609 C -264.15071 -910.24609 -262.51685 -908.81116 -261.39453 -907.72266 C -256.30133 -902.78276 -251.08315 -895.19146 -247.98828 -888.22266 C -247.72008 -887.61876 -247.59666 -887.41556 -247.53516 -887.47656 C -247.38657 -887.62516 -247.42792 -893.40219 -247.58984 -895.05469 C -248.24153 -901.70679 -249.99165 -907.18548 -252.91016 -911.70898 C -253.42403 -912.50538 -255.25692 -915.03919 -255.94141 -915.90039 C -260.57785 -921.73369 -267.30988 -926.52966 -275.04102 -929.50586 C -277.95841 -930.62896 -281.23478 -931.37735 -284.87305 -931.75195 C -285.96827 -931.86438 -289.31506 -931.94845 -290.91992 -931.93164 z "
         inkscape:radius="1.3271149"
         sodipodi:type="inkscape:offset" />
      <path
         id="path4356"
         d="m -288.06641,-930.22461 c -0.17861,0.005 -0.2975,0.0156 -0.42382,0.0254 0.009,0.014 0.0136,0.0204 0.0234,0.0352 0.15168,0.22623 0.36196,0.53217 0.59375,0.86328 0.23472,0.3353 0.44918,0.65358 0.60547,0.89844 0.0781,0.12242 0.14058,0.22645 0.1875,0.30859 0.0235,0.0411 0.0442,0.0752 0.0606,0.10937 0.008,0.0171 0.0156,0.033 0.0234,0.0547 0.008,0.0217 0.0215,0.0402 0.0215,0.11524 0,0.0625 -0.0218,0.17727 -0.10351,0.25781 -0.0817,0.0805 -0.17173,0.0982 -0.23829,0.10547 -0.13311,0.0145 -0.25194,-0.005 -0.45703,-0.0312 -0.37667,-0.0482 -1.9293,-0.0698 -3.52344,-0.0527 -1.59412,0.0171 -3.28105,0.0679 -4.04492,0.13672 -10.76928,0.96854 -19.16768,4.46504 -25.40039,10.55274 -0.31107,0.30382 -0.45579,0.45955 -0.58593,0.60156 0.1868,0.0117 0.40939,0.021 0.65429,0.0215 0.53705,0 1.03045,0.0174 1.39649,0.0449 0.18301,0.0138 0.33237,0.0304 0.44922,0.0508 0.0584,0.0102 0.10743,0.0196 0.1621,0.0391 0.0273,0.01 0.0565,0.02 0.0996,0.0508 0.0432,0.0308 0.13032,0.10777 0.12891,0.24609 0,2.1e-4 -0.008,0.0564 -0.008,0.0566 -6e-5,2.8e-4 -0.005,0.0231 -0.008,0.0313 -0.005,0.0163 -0.01,0.0273 -0.0137,0.0352 -0.007,0.0157 -0.013,0.0236 -0.0176,0.0312 -0.009,0.0154 -0.0167,0.0264 -0.0254,0.0391 -0.0174,0.0253 -0.0377,0.0542 -0.0645,0.0899 -0.0536,0.0713 -0.12862,0.16839 -0.2207,0.28515 -0.18416,0.23352 -0.43633,0.54708 -0.71485,0.88672 -1.37607,1.67817 -2.71956,3.47198 -3.55273,4.74414 -2.68747,4.10336 -4.48925,8.54876 -5.49023,13.55274 -0.10162,0.508 -0.28743,1.57831 -0.44532,2.54297 -0.0632,0.38583 -0.11413,0.71963 -0.16211,1.03125 0.18818,-0.25741 0.33597,-0.45312 0.66016,-0.92188 4.773,-6.90203 9.96724,-11.86916 16.56055,-15.83008 2.07147,-1.24448 5.48225,-2.85607 8.17773,-3.86718 0.11374,-0.0427 0.20441,-0.0858 0.28711,-0.125 -0.0214,-0.0325 -0.0347,-0.0546 -0.0625,-0.0937 -0.12101,-0.17062 -0.2966,-0.39717 -0.50195,-0.64649 -0.4107,-0.49864 -0.9392,-1.09108 -1.38867,-1.53906 -0.28296,-0.28203 -0.53355,-0.54175 -0.71289,-0.73633 -0.0897,-0.0973 -0.16083,-0.17666 -0.2129,-0.24023 -0.026,-0.0318 -0.0469,-0.0568 -0.0684,-0.0899 -0.0107,-0.0165 -0.0214,-0.0322 -0.0371,-0.0742 -0.004,-0.0105 -0.01,-0.0239 -0.0137,-0.041 -0.004,-0.0171 -0.006,-0.0676 -0.006,-0.0684 2e-5,-7.1e-4 0.0271,-0.11865 0.0274,-0.11914 2.3e-4,-4.9e-4 0.11282,-0.12278 0.11328,-0.12305 0.0843,-0.0493 0.14122,-0.0575 0.2168,-0.0742 0.0764,-0.0169 0.16597,-0.0323 0.27148,-0.0469 0.21102,-0.0292 0.48449,-0.056 0.81055,-0.082 0.65212,-0.0521 1.51058,-0.099 2.45312,-0.13477 1.88508,-0.0716 4.10217,-0.10073 5.64844,-0.0508 10.20971,0.33002 19.10858,2.66822 29.93359,7.85937 0.48973,0.23481 0.94337,0.44753 1.2793,0.60157 0.0366,0.0168 0.0542,0.0237 0.0879,0.0391 -0.0637,-0.16407 -0.0946,-0.25303 -0.23242,-0.58398 -0.54948,-1.31989 -1.51262,-3.27413 -2.08789,-4.24219 -0.24844,-0.41805 -0.37354,-0.62412 -0.44141,-0.77735 -0.017,-0.0383 -0.0326,-0.0746 -0.043,-0.125 -0.0103,-0.0504 -0.0212,-0.13197 0.0293,-0.22656 0.0505,-0.0946 0.15257,-0.14331 0.20703,-0.15625 0.0545,-0.0129 0.0834,-0.0117 0.10547,-0.0117 0.11578,0 0.1258,0.0241 0.16016,0.0391 0.0344,0.015 0.067,0.032 0.10547,0.0527 0.0769,0.0416 0.17106,0.0969 0.2832,0.16601 0.22427,0.13828 0.51746,0.3299 0.84375,0.54883 0.65258,0.43787 1.43661,0.98618 2.04297,1.44141 1.74092,1.30699 2.77028,2.22024 4.68359,4.13867 2.46702,2.47353 4.41741,4.81215 6.83203,8.19531 0.52916,0.74139 1.49564,2.16039 2.36328,3.45508 0.43383,0.64735 0.84259,1.26317 1.15821,1.7461 0.13937,0.21325 0.17302,0.27477 0.26953,0.42578 -0.39836,-5.19288 -1.59498,-9.6357 -3.7461,-13.875 -4.44333,-8.75687 -12.8897,-15.91075 -23.01757,-19.47852 -3.3913,-1.19469 -6.72513,-1.87531 -10.08399,-2.05859 -0.66443,-0.0361 -1.34943,-0.0434 -1.86133,-0.0293 z m 40.59766,43.02149 c -0.0392,0.0123 -0.0805,0.0211 -0.11914,0.0176 0.002,0.003 0.0222,0.0456 0.0234,0.0469 0.0381,0.0393 0.0708,0.0245 0.0957,-0.0644 z"
         style="fill:#7f8181;fill-opacity:1"
         inkscape:connector-curvature="0" />
      <path
         inkscape:connector-curvature="0"
         id="path4360"
         d="m -330.2581,-887.25948 c -2e-4,-0.014 -0.0715,-0.49289 -0.15844,-1.0641 -0.20778,-1.3648 -0.28107,-3.9732 -0.15374,-5.4709 0.42565,-5.0066 2.29724,-10.4412 5.33573,-15.4936 0.97825,-1.6267 1.95004,-3.0366 2.94837,-4.27759 0.39641,-0.49271 0.72074,-0.9316 0.72074,-0.97521 0,-0.118 -0.67463,-0.1709 -1.89703,-0.1486 -0.59914,0.011 -1.11386,0 -1.14382,-0.034 -0.14443,-0.1433 1.69238,-2.3176 3.204,-3.7926 5.84771,-5.706 14.14011,-9.2621 24.14454,-10.3542 1.31361,-0.1434 2.07094,-0.1748 4.53543,-0.1881 1.77876,-0.01 2.96819,-0.045 2.98279,-0.089 0.0134,-0.04 -0.44393,-0.6529 -1.0162,-1.3617 -0.57226,-0.7089 -1.04048,-1.325 -1.04048,-1.3692 0,-0.1235 5.46278,-0.023 6.92308,0.1269 3.63827,0.3746 6.91428,1.123 9.83167,2.2461 7.73114,2.9762 14.46319,7.7715 19.09963,13.6048 0.68449,0.8612 2.51687,3.3959 3.03074,4.1923 2.91851,4.5235 4.66864,10.0018 5.32033,16.6539 0.1619,1.6525 0.20469,7.4283 0.0561,7.5769 -0.0615,0.061 -0.18531,-0.1423 -0.45351,-0.7462 -3.09487,-6.9688 -8.31402,-14.5596 -13.40722,-19.4995 -1.12232,-1.0885 -2.75593,-2.5235 -2.8728,-2.5235 -0.12325,0 -0.068,0.2045 0.27918,1.03311 0.51857,1.2378 1.40636,3.9669 1.29044,3.9669 -0.0244,0 -0.60152,-0.324 -1.28254,-0.7201 -1.91695,-1.1147 -2.81149,-1.5931 -5.03022,-2.6901 -7.57426,-3.7451 -15.28413,-6.0219 -23.20799,-6.8537 -2.46068,-0.2582 -3.66087,-0.3105 -6.88461,-0.2996 -3.2089,0.011 -3.99715,0.055 -4.05427,0.2263 -0.0157,0.047 0.26753,0.4279 0.62947,0.8461 0.65509,0.7568 1.45353,1.8144 1.54003,2.0399 0.0358,0.093 -0.31862,0.2708 -1.66952,0.8366 -5.59267,2.3425 -9.32391,4.3738 -12.71494,6.9222 -5.34805,4.019 -10.1566,9.6475 -14.03825,16.432 -0.58254,1.0182 -0.84456,1.4042 -0.84672,1.2475 z m 1.99144,-5.96789 c 4.75459,-6.87541 9.91199,-11.8057 16.47217,-15.74671 2.04619,-1.22929 5.45666,-2.8421 8.1329,-3.846 0.30673,-0.1151 0.55769,-0.24399 0.55769,-0.28659 0,-0.1997 -1.20707,-1.6652 -2.12513,-2.58021 -0.56133,-0.5595 -0.99647,-1.0315 -0.96697,-1.0489 0.391,-0.2311 6.1811,-0.452 9.24873,-0.3529 10.17206,0.3288 19.02054,2.6527 29.82103,7.8321 0.98194,0.47081 1.82136,0.8561 1.86538,0.8561 0.1265,0 0.10502,-0.072 -0.34892,-1.1619 -0.55632,-1.3363 -1.51518,-3.2847 -2.10468,-4.2767 -0.49646,-0.83539 -0.51137,-0.86909 -0.38456,-0.86909 0.14198,0 2.06397,1.29029 3.26435,2.19149 1.73336,1.30131 2.74641,2.1956 4.6556,4.1099 2.45672,2.4632 4.39199,4.7854 6.80064,8.1602 1.04926,1.4701 3.8721,5.682 4.11148,6.1346 0.19405,0.3669 0.26125,0.1926 0.20763,-0.5385 -0.38814,-5.2928 -1.60235,-9.8182 -3.79243,-14.1343 -4.48054,-8.8302 -12.98226,-16.0268 -23.17523,-19.6175 -3.41431,-1.2028 -6.77627,-1.8887 -10.16297,-2.0735 -1.34502,-0.073 -2.76011,-0.035 -2.76011,0.075 0,0.03 0.38077,0.59761 0.84616,1.26241 0.46538,0.6648 0.84615,1.26029 0.84615,1.3232 0,0.096 -0.0789,0.1044 -0.48077,0.053 -0.89934,-0.1151 -6.05354,-0.06 -7.62956,0.082 -10.81673,0.9728 -19.28598,4.4946 -25.5708,10.6332 -0.78897,0.7706 -0.95092,0.9648 -0.85733,1.0277 0.0635,0.043 0.56896,0.078 1.12333,0.079 1.06208,0 1.95392,0.068 1.95312,0.1467 -2.3e-4,0.026 -0.45462,0.6006 -1.00969,1.2775 -1.38151,1.6848 -2.72727,3.4827 -3.56989,4.7693 -2.70701,4.1332 -4.52349,8.6174 -5.53096,13.6538 -0.20725,1.0361 -0.73514,4.2672 -0.73514,4.4997 0,0.1867 0.30411,-0.196 1.29878,-1.6343 z"
         style="fill:#022c5d" />
      <path
         id="path4393"
         d="m -288.07422,-930.50781 c -0.5219,0.0141 -0.875,0.0524 -0.875,0.10742 0,0.03 0.38031,0.59692 0.8457,1.26172 0.46538,0.6648 0.84571,1.26131 0.84571,1.32422 0,0.096 -0.0786,0.10416 -0.48047,0.0527 -0.89934,-0.1151 -6.05289,-0.06 -7.62891,0.082 -10.81673,0.9728 -19.28744,4.49422 -25.57226,10.63281 -0.78897,0.7706 -0.951,0.96445 -0.85743,1.02735 0.0635,0.043 0.56868,0.0791 1.12305,0.0801 1.06208,0 1.95393,0.0678 1.95313,0.14648 -2.3e-4,0.026 -0.45275,0.60045 -1.00782,1.27735 -1.38151,1.68479 -2.72769,3.48293 -3.57031,4.76953 -2.70701,4.1332 -4.52378,8.61594 -5.53125,13.65234 -0.20725,1.0361 -0.73633,4.2675 -0.73633,4.5 0,0.18662 0.30524,-0.19612 1.29883,-1.63281 4.75434,-6.87472 9.9129,-11.80729 16.47266,-15.74805 2.04619,-1.22929 5.45657,-2.8418 8.13281,-3.8457 0.30673,-0.1151 0.55859,-0.24451 0.55859,-0.28711 0,-0.1997 -1.20694,-1.66507 -2.125,-2.58008 -0.56133,-0.5595 -0.99629,-1.03143 -0.96679,-1.04883 0.391,-0.2311 6.18041,-0.45066 9.24804,-0.35156 10.17206,0.3288 19.01983,2.65263 29.82032,7.83203 0.98194,0.47081 1.82121,0.85547 1.86523,0.85547 0.1265,0 0.1063,-0.0722 -0.34766,-1.16211 -0.55632,-1.3363 -1.51596,-3.28534 -2.10546,-4.27734 -0.49646,-0.83539 -0.51158,-0.86914 -0.38477,-0.86914 0.14198,0 2.06525,1.2902 3.26563,2.1914 1.73336,1.30131 2.7451,2.19703 4.65429,4.11133 2.45672,2.4632 4.39213,4.78536 6.80078,8.16016 1.04926,1.4701 3.87195,5.68216 4.11133,6.13476 0.19405,0.3669 0.26261,0.19204 0.20899,-0.53906 -0.38814,-5.2928 -1.60289,-9.81867 -3.79297,-14.13477 -4.48054,-8.8302 -12.98281,-16.02648 -23.17578,-19.61718 -3.41431,-1.2028 -6.77541,-1.88942 -10.16211,-2.07422 -0.67251,-0.0365 -1.36287,-0.0455 -1.88477,-0.0312 z m 1.56641,1.07422 c 0.65753,0.0237 1.99574,0.14187 2.90429,0.26757 6.01364,0.8321 12.70048,3.5846 18.06446,7.4375 7.35989,5.2865 12.33216,12.29489 14.34375,20.2129 0.27312,1.0751 0.70703,3.1265 0.70703,3.3457 0,0.2179 -0.21263,-0.0236 -0.89453,-1.01953 -5.60758,-8.1904 -10.64534,-13.24682 -16.75977,-16.82032 -0.98558,-0.5761 -2.96536,-1.62109 -3.07031,-1.62109 -0.11548,0 0.0293,0.25515 1.01953,1.78125 1.21388,1.87071 1.79255,2.85417 2.46484,4.19727 0.46511,0.92931 0.56376,1.23043 0.375,1.14843 -0.0529,-0.0231 -0.80651,-0.36587 -1.67382,-0.76367 -8.09976,-3.7149 -16.03219,-5.9032 -24.03907,-6.6289 -4.11284,-0.3728 -8.21627,-0.37259 -12.5,0 -1.7331,0.15071 -3.07562,0.31381 -3.14062,0.38281 -0.0282,0.0297 0.14036,0.22023 0.37305,0.42383 0.23269,0.2036 0.87045,0.76328 1.41796,1.24218 1.10074,0.9626 2.14287,2.08287 2.10547,2.26368 -0.0143,0.0693 -0.46299,0.29754 -1.10156,0.56054 -4.41208,1.81739 -8.35589,4.14521 -12.08789,7.13282 -3.1739,2.54079 -6.36333,5.80003 -8.94727,9.14453 -0.39225,0.5077 -0.74365,0.93326 -0.78125,0.94726 -0.1144,0.0429 -0.0791,-0.20851 0.19532,-1.38281 1.03435,-4.42649 2.67772,-8.28417 5.10351,-11.98828 0.99559,-1.52029 1.90593,-2.72844 4.00391,-5.30664 0.98052,-1.205 1.7832,-2.23311 1.7832,-2.28711 0,-0.067 -0.12927,-0.0996 -0.41015,-0.0996 -1.05589,0 -2.28125,-0.10241 -2.28125,-0.19141 0,-0.11639 1.37207,-1.26992 2.55273,-2.14453 5.82919,-4.3181 13.5455,-6.90776 22.35742,-7.50586 2.54909,-0.173 6.94069,-0.0787 8.62695,0.18555 0.35963,0.057 0.68175,0.0779 0.71485,0.0469 0.0331,-0.0307 -0.36077,-0.65958 -0.875,-1.39648 -0.99753,-1.4295 -1.03861,-1.49569 -0.94141,-1.55469 0.0268,-0.0162 0.17145,-0.0175 0.39063,-0.01 z"
         style="fill:#fac00f;fill-opacity:1"
         inkscape:connector-curvature="0" />
    </g>
  </g>
</svg>
