<?xml version="1.0" encoding="UTF-8" standalone="no"?>
<!-- Created with Inkscape (http://www.inkscape.org/) -->

<svg
   xmlns:dc="http://purl.org/dc/elements/1.1/"
   xmlns:cc="http://creativecommons.org/ns#"
   xmlns:rdf="http://www.w3.org/1999/02/22-rdf-syntax-ns#"
   xmlns:svg="http://www.w3.org/2000/svg"
   xmlns="http://www.w3.org/2000/svg"
   xmlns:sodipodi="http://sodipodi.sourceforge.net/DTD/sodipodi-0.dtd"
   xmlns:inkscape="http://www.inkscape.org/namespaces/inkscape"
   width="200"
   height="150"
   viewBox="0 0 200 150"
   id="svg2"
   version="1.1"
   inkscape:version="0.91 r13725"
   sodipodi:docname="Chargers.svg">
  <defs
     id="defs4">
    <pattern
       y="0"
       x="0"
       height="6"
       width="6"
       patternUnits="userSpaceOnUse"
       id="EMFhbasepattern" />
  </defs>
  <sodipodi:namedview
     id="base"
     pagecolor="#ffffff"
     bordercolor="#666666"
     borderopacity="1.0"
     inkscape:pageopacity="0.0"
     inkscape:pageshadow="2"
     inkscape:zoom="0.9899495"
     inkscape:cx="115.29269"
     inkscape:cy="-72.650007"
     inkscape:document-units="px"
     inkscape:current-layer="layer1"
     showgrid="false"
     fit-margin-top="0"
     fit-margin-left="0"
     fit-margin-right="0"
     fit-margin-bottom="0"
     units="px"
     inkscape:window-width="1440"
     inkscape:window-height="837"
     inkscape:window-x="1432"
     inkscape:window-y="-8"
     inkscape:window-maximized="1" />
  <metadata
     id="metadata7">
    <rdf:RDF>
      <cc:Work
         rdf:about="">
        <dc:format>image/svg+xml</dc:format>
        <dc:type
           rdf:resource="http://purl.org/dc/dcmitype/StillImage" />
        <dc:title />
      </cc:Work>
    </rdf:RDF>
  </metadata>
  <g
     inkscape:label="Layer 1"
     inkscape:groupmode="layer"
     id="layer1"
     transform="translate(536.30539,-546.064)">
    <g
       transform="matrix(0.29623633,0,0,0.29623633,-437.96496,842.35777)"
       id="g6867">
      <path
         style="fill:#ffffff"
         d="m -9.2954028,-933.23952 c -2.1820552,0.0236 -3.9730292,0.055 -5.4833322,0.13841 -0.754955,0.0393 -1.394386,0.0794 -2.319284,0.21469 -0.46241,0.0708 -0.930797,0.11325 -2.088945,0.49151 -0.578799,0.18874 -1.340438,0.37355 -2.764708,1.35161 -0.356244,0.24457 -0.754955,0.54183 -1.198097,0.95234 -0.443537,0.41051 -1.410429,1.62441 -1.413024,1.62811 -0.0026,0.004 -1.350347,2.59201 -1.351684,2.59578 -0.0013,0.004 -0.583518,3.46745 -0.583518,3.47122 0,0.005 0.148632,1.86899 0.276817,2.41146 0.127399,0.54262 0.244574,0.89941 0.353099,1.19809 0.217836,0.59768 0.389274,0.93324 0.522177,1.19802 0.265807,0.52926 0.43174,0.78405 0.583517,1.0291 0.303555,0.48993 0.540265,0.82526 0.814015,1.21343 0.547342,0.77619 1.19448,1.6532 1.981363,2.68796 0.408148,0.53712 1.078563,1.35632 1.551354,1.96603 -1.1679,0.008 -1.748822,0.0393 -2.995126,0.0472 -19.456447,0.10538 -26.14,0.37905 -36.740118,1.53602 -80.488023,8.78618 -148.069543,37.53683 -196.034583,84.33955 -6.26715,6.11522 -12.96816,13.42538 -18.15502,19.56812 -2.59343,3.07133 -4.78421,5.80214 -6.46642,8.17129 -0.84107,1.18457 -1.53995,2.2069 -2.2732,3.62488 -0.36647,0.70856 -0.77383,1.45455 -1.16735,3.07188 -0.39006,1.60294 -1.48923,5.85122 2.74937,10.15273 0.35153,0.34209 0.87221,0.8424 1.22877,1.10585 0.47814,0.35389 0.89202,0.60711 1.2441,0.79876 0.70384,0.38298 1.19731,0.567 1.59744,0.7062 0.80033,0.27917 1.23537,0.35703 1.61277,0.43016 0.75495,0.14628 1.19967,0.19032 1.64344,0.23042 0.88755,0.0802 1.68686,0.0983 2.62654,0.12268 0.55678,0.0157 1.34342,-0.006 1.96603,0 -6.18827,8.29303 -12.33958,16.62616 -18.38544,26.67964 -24.62254,40.94223 -39.90943,85.00659 -43.42162,126.31733 -1.11679,13.13645 -0.58588,33.15447 1.29018,45.47974 0.34052,2.23545 0.65272,4.29019 0.87552,5.79058 0.11167,0.75024 0.20132,1.36899 0.26108,1.7817 0.0315,0.19975 0.0472,0.34995 0.0629,0.43017 -0.008,-0.092 -0.0629,-1.05112 -0.0629,-1.04444 0.008,0.81425 -0.0236,1.90674 0.73687,3.83989 0.75967,1.94055 3.28421,5.25307 6.91177,6.29743 3.62764,1.04435 6.26786,-0.0157 7.63378,-0.69126 1.36583,-0.67553 1.99142,-1.24788 2.4882,-1.6896 1.98718,-1.76676 2.19834,-2.43874 2.91837,-3.50197 1.43992,-2.12646 3.11089,-4.95376 5.45259,-9.0468 29.91595,-52.28826 66.89034,-95.45627 107.60939,-126.05624 25.85421,-19.42971 54.2325,-34.91659 97.748494,-53.14419 5.369459,-2.2489 8.771003,-3.70879 11.304663,-4.97649 1.266752,-0.63385 2.271078,-1.09956 3.793806,-2.28861 0.761246,-0.59453 1.744418,-1.32636 2.902959,-3.25622 1.156654,-1.92671 2.108448,-6.11112 0.844763,-9.41547 -1.117254,-2.91263 -1.654216,-3.22578 -2.565038,-4.56173 -0.910821,-1.33604 -2.003068,-2.83525 -3.225545,-4.45431 -0.266593,-0.3531 -0.612614,-0.74316 -0.890847,-1.10586 3.974366,-0.0629 5.787674,-0.1793 11.796171,-0.19974 25.227606,-0.0849 33.871761,0.30984 53.02135,2.31936 61.046679,6.40831 120.420896,23.91807 178.970014,52.86768 17.36939,8.58793 23.96234,12.10484 38.93656,20.8123 2.71186,1.57723 5.22028,3.02108 7.11152,4.08565 0.94558,0.5324 1.72271,0.95973 2.36537,1.30552 0.32164,0.17301 0.59688,0.32243 0.93693,0.4915 0.16986,0.0849 0.34366,0.17223 0.69125,0.32243 0.1738,0.0786 0.38299,0.15964 0.8141,0.30749 0.21547,0.0708 0.47892,0.16515 0.93693,0.27682 0.45769,0.11088 2.46988,0.29175 2.47287,0.29175 0.007,0 4.07951,-0.81149 4.08564,-0.81409 0.006,-0.003 3.29711,-2.22192 3.3023,-2.22712 0.005,-0.005 1.38747,-1.65468 1.78177,-2.36536 0.39399,-0.71092 0.64407,-1.31009 0.81402,-1.82778 0.67946,-2.07109 0.54577,-2.8903 0.5379,-3.56347 -0.0157,-1.34633 -0.15256,-1.86827 -0.26109,-2.45753 -0.10538,-0.57094 -0.26974,-1.12213 -0.39949,-1.65886 36.63914,37.6857 73.97292,92.34813 96.28931,142.59856 1.11938,2.52045 1.89588,4.23176 3.01046,6.06701 0.55756,0.91766 0.91924,1.89148 3.02587,3.60955 1.05325,0.859 2.82322,2.14321 5.91342,2.42679 3.09021,0.28389 6.7854,-1.37732 8.49388,-3.07196 a 10.437627,10.437627 0 0 0 0.0315,-0.0315 c 3.0464,-3.04656 2.56205,-4.02517 2.78012,-4.80757 0.21784,-0.78248 0.29963,-1.25802 0.36883,-1.70494 0.13762,-0.89368 0.19975,-1.62866 0.26109,-2.47287 0.12268,-1.68834 0.20211,-3.70706 0.26109,-6.11309 0.11875,-4.81205 0.13998,-11.0674 0.092,-17.70967 -0.0959,-13.28445 -0.4396,-27.58684 -1.18268,-35.17343 -5.24757,-53.56397 -19.45,-98.4079 -43.4523,-135.60988 -4.70321,-7.28909 -18.49655,-26.33235 -24.43711,-33.80649 -37.78966,-47.5447 -92.21405,-86.20995 -154.62507,-110.23584 -23.936946,-9.21494 -50.607302,-15.28312 -79.992821,-18.30868 a 10.437627,10.437627 0 0 0 -0.01573,0 c -10.235773,-1.05073 -35.5834636,-1.59673 -48.7206232,-1.45911 a 10.437627,10.437627 0 0 0 -0.015728,0 z"
         id="path4420-1"
         inkscape:connector-curvature="0" />
      <path
         id="path4356-4"
         d="m 13.267841,-909.38609 c -1.404609,0.0393 -2.339574,0.12268 -3.3329688,0.19975 0.070777,0.1101 0.1069518,0.16043 0.1840208,0.27682 1.192828,1.7791 2.846494,4.18505 4.669317,6.78893 1.845865,2.63684 3.532403,5.13983 4.761485,7.06544 0.614187,0.96272 1.105537,1.78083 1.474522,2.42678 0.184806,0.32322 0.347593,0.59138 0.476565,0.8601 0.06291,0.13448 0.12268,0.25952 0.18402,0.43017 0.06291,0.17065 0.169079,0.31614 0.169079,0.90626 0,0.49151 -0.171438,1.39407 -0.814015,2.02745 -0.642498,0.63306 -1.350504,0.77225 -1.87394,0.82942 -1.046792,0.11403 -1.981284,-0.0393 -3.594136,-0.24536 -2.962175,-0.37905 -15.1722345,-0.54891 -27.708733,-0.41443 -12.536341,0.13447 -25.802551,0.53397 -31.809712,1.07518 -84.690845,7.61671 -150.736815,35.11358 -199.751555,82.98795 -2.44629,2.38927 -3.58439,3.61395 -4.60782,4.73073 1.46901,0.092 3.21948,0.16515 5.14541,0.16908 4.22342,0 8.10357,0.13684 10.98215,0.3531 1.43921,0.10852 2.6138,0.23907 3.53272,0.3995 0.45926,0.0802 0.84484,0.15413 1.27477,0.30748 0.21469,0.0786 0.44433,0.15729 0.78327,0.3995 0.33973,0.24222 1.02485,0.84752 1.01376,1.93528 0,0.002 -0.0629,0.44354 -0.0629,0.44511 -4.7e-4,0.002 -0.0393,0.18166 -0.0629,0.24615 -0.0393,0.12818 -0.0787,0.21469 -0.10774,0.27681 -0.055,0.12347 -0.10224,0.1856 -0.13841,0.24536 -0.0708,0.12111 -0.13133,0.20762 -0.19975,0.30749 -0.13684,0.19896 -0.29648,0.42623 -0.50724,0.70698 -0.42151,0.56072 -1.01148,1.32424 -1.73561,2.24246 -1.44825,1.83642 -3.43134,4.3023 -5.62166,6.97326 -10.82157,13.19732 -21.38693,27.30405 -27.93907,37.30846 -21.13457,32.26929 -35.30397,67.22842 -43.17579,106.58029 -0.79916,3.99497 -2.26039,12.41201 -3.50205,19.99821 -0.49701,3.03421 -0.89753,5.65925 -1.27485,8.10986 1.47987,-2.0243 2.6421,-3.56338 5.19157,-7.24976 37.53542,-54.27836 78.38351,-93.34043 130.23405,-124.48956 16.29028,-9.78673 43.11304,-22.46046 64.3106,-30.41194 0.89447,-0.3358 1.60751,-0.67474 2.25787,-0.98302 -0.16829,-0.25558 -0.27289,-0.42938 -0.49151,-0.73686 -0.95164,-1.34178 -2.3325,-3.12339 -3.94739,-5.08407 -3.22979,-3.92137 -7.38598,-8.58038 -10.92066,-12.10335 -2.22523,-2.21791 -4.1959,-4.26038 -5.60625,-5.79058 -0.70541,-0.76518 -1.26478,-1.38927 -1.67427,-1.8892 -0.20447,-0.25007 -0.36883,-0.44668 -0.5379,-0.70698 -0.0842,-0.12976 -0.1683,-0.25322 -0.29176,-0.58352 -0.0315,-0.0826 -0.0786,-0.18795 -0.10774,-0.32243 -0.0315,-0.13447 -0.0472,-0.53161 -0.0472,-0.5379 1.6e-4,-0.006 0.21312,-0.93308 0.21548,-0.93693 0.002,-0.004 0.88723,-0.96556 0.89085,-0.96768 0.66294,-0.3877 1.11057,-0.45219 1.70494,-0.58352 0.60082,-0.1329 1.3052,-0.25401 2.13495,-0.36883 1.65948,-0.22963 3.81008,-0.44039 6.37426,-0.64485 5.12834,-0.40972 11.87937,-0.77855 19.29161,-1.05985 14.824484,-0.56307 32.259932,-0.79215 44.419976,-0.3995 80.290322,2.59532 150.272049,20.98319 235.401164,61.80698 3.85129,1.84658 7.41877,3.51943 10.06056,4.73082 0.28782,0.13212 0.42623,0.18638 0.69125,0.30749 -0.50094,-1.29027 -0.74394,-1.98986 -1.82777,-4.59249 -4.32118,-10.37976 -11.89542,-25.74813 -16.41941,-33.36106 -1.95376,-3.2876 -2.93756,-4.90815 -3.4713,-6.11317 -0.13369,-0.3012 -0.25637,-0.58667 -0.33815,-0.98302 -0.081,-0.39635 -0.16672,-1.03782 0.23041,-1.78169 0.39714,-0.74395 1.19983,-1.12701 1.62811,-1.22877 0.4286,-0.10145 0.65587,-0.092 0.82943,-0.092 0.91051,0 0.98931,0.18953 1.25952,0.30749 0.27052,0.11796 0.52689,0.25165 0.82942,0.41444 0.60476,0.32714 1.34524,0.76203 2.22712,1.30552 1.76369,1.08745 4.06937,2.59437 6.63535,4.31606 5.13196,3.44346 11.29766,7.75543 16.06615,11.33541 13.69079,10.27832 21.78579,17.46022 36.83228,32.54697 19.40093,19.45213 34.73902,37.8433 53.72786,64.44886 4.16138,5.83037 11.76189,16.98955 18.58511,27.17114 3.41169,5.09083 6.62622,9.93371 9.10829,13.73153 1.09602,1.67702 1.36065,2.16082 2.11962,3.34838 -3.13275,-40.8374 -12.54311,-75.77624 -29.45976,-109.11458 -34.94285,-68.86502 -101.36607,-125.12395 -181.01279,-153.1813 -26.669572,-9.39518 -52.887191,-14.74765 -79.301648,-16.18899 -5.225153,-0.28389 -10.612071,-0.3413 -14.637711,-0.23041 z m 319.264619,338.3259 c -0.30827,0.0967 -0.63306,0.16593 -0.93693,0.13841 0.0157,0.0236 0.17459,0.3586 0.18402,0.36883 0.29963,0.30906 0.55678,0.19267 0.7526,-0.50645 z"
         style="fill:#fac00f;fill-opacity:1"
         inkscape:connector-curvature="0" />
      <path
         inkscape:connector-curvature="0"
         id="path4360-4"
         d="m -318.53241,-571.50341 c -0.002,-0.1101 -0.56229,-3.87614 -1.246,-8.3682 -1.634,-10.73295 -2.21036,-31.2457 -1.20902,-43.02378 3.34736,-39.37248 18.06575,-82.11079 41.96078,-121.84344 7.69307,-12.79255 15.33534,-23.88017 23.18632,-33.63945 3.11742,-3.87473 5.66798,-7.32621 5.66798,-7.66917 0,-0.92796 -5.30536,-1.34397 -14.91846,-1.1686 -4.7117,0.0865 -8.75952,0 -8.99513,-0.26738 -1.13581,-1.12693 13.30907,-18.22587 25.19662,-29.82544 45.98706,-44.87264 111.19944,-72.83821 189.875416,-81.42661 10.330379,-1.12771 16.286108,-1.37465 35.667138,-1.47924 13.9883717,-0.0786 23.34218468,-0.35389 23.45700075,-0.69991 0.10537912,-0.31456 -3.49111605,-5.13448 -7.99151255,-10.70856 -4.5003182,-5.57487 -8.1824532,-10.41995 -8.1824532,-10.76754 0,-0.97122 42.959924,-0.18088 54.44389,0.99795 28.611769,2.9459 54.374685,8.8314 77.317371,17.66359 60.79857,23.40517 113.74017,61.11596 150.20167,106.98969 5.3829,6.77258 19.79295,26.70575 23.83408,32.96873 22.9515,35.57332 36.71472,78.65529 41.83968,130.96817 1.2732,12.99544 1.60971,58.41699 0.44118,59.5856 -0.48364,0.47971 -1.4573,-1.11906 -3.56645,-5.8682 -24.33841,-54.80344 -65.3824,-114.49835 -105.43591,-153.34629 -8.82605,-8.56009 -21.67295,-19.84509 -22.59203,-19.84509 -0.96925,0 -0.53476,1.60821 2.19551,8.12449 4.07809,9.7342 11.05977,31.19616 10.14816,31.19616 -0.19188,0 -4.73042,-2.54798 -10.08604,-5.66295 -15.07511,-8.76613 -22.10987,-12.52832 -39.55822,-21.15526 -59.56484,-29.45189 -120.196139,-47.3569 -182.510276,-53.89827 -19.351068,-2.03052 -28.789499,-2.44181 -54.141357,-2.35609 -25.235156,0.0865 -31.434047,0.43253 -31.883237,1.77965 -0.12347,0.36961 2.10388,3.36505 4.95022,6.65382 5.151702,5.95157 11.430725,14.26865 12.110971,16.04201 0.281535,0.73136 -2.505664,2.1296 -13.129291,6.57912 -43.9814,18.42168 -73.3243,34.39606 -99.99174,54.43697 -42.05768,31.60587 -79.87266,75.86904 -110.3984,129.22312 -4.58116,8.00724 -6.64171,11.04279 -6.6587,9.81048 z m 15.66091,-46.93217 c 37.39063,-54.069 77.94901,-92.84137 129.53902,-123.83392 16.09147,-9.66727 42.91179,-22.3506 63.95805,-30.24538 2.41216,-0.90516 4.38574,-1.91876 4.38574,-2.25378 0,-1.57046 -9.49254,-13.09532 -16.71227,-20.29106 -4.41436,-4.39997 -7.83635,-8.11183 -7.60436,-8.24867 3.07487,-1.8174 48.608875,-3.55458 72.733066,-2.77525 79.994239,2.58572 149.579693,20.86114 234.515974,61.59253 7.72209,3.7025 14.32339,6.73247 14.66956,6.73247 0.99481,0 0.82589,-0.56622 -2.74394,-9.13732 -4.37497,-10.50881 -11.91555,-25.83125 -16.55145,-33.63245 -3.90421,-6.5696 -4.02147,-6.83462 -3.02422,-6.83462 1.11655,0 16.2313,10.14698 25.67122,17.23412 13.63134,10.23365 21.59808,17.26645 36.61217,32.32072 19.31993,19.37089 34.53911,37.63294 53.48101,64.17275 8.2515,11.56103 30.45063,44.68389 32.33314,48.24319 1.52603,2.88534 2.0545,1.51463 1.63283,-4.23483 -3.05238,-41.62318 -12.60106,-77.21144 -29.8241,-111.15374 -35.23548,-69.4417 -102.09397,-126.03658 -182.25265,-154.27425 -26.850523,-9.45896 -53.289359,-14.85296 -79.922754,-16.30625 -10.57739,-0.57408 -21.7058193,-0.27524 -21.7058193,0.58981 0,0.23593 2.9944187,4.69968 6.6542983,9.92774 3.659802,5.22806 6.65422,9.91106 6.65422,10.40579 0,0.75496 -0.620478,0.82102 -3.78083,0.4168 -7.0725119,-0.90516 -47.605728,-0.47184 -59.999729,0.64486 -85.063996,7.65021 -151.667146,35.34605 -201.091686,83.6207 -6.20455,6.06008 -7.47814,7.58729 -6.74214,8.08195 0.49937,0.33815 4.47437,0.6134 8.834,0.62126 8.35232,0 15.36585,0.53476 15.35956,1.15367 -0.002,0.20446 -3.57519,4.72318 -7.94032,10.0464 -10.86435,13.24946 -21.44756,27.38835 -28.07402,37.50632 -21.28824,32.50396 -35.57324,67.76822 -43.4961,107.37504 -1.62984,8.14801 -5.78123,33.55775 -5.78123,35.38615 0,1.46823 2.39156,-1.54136 10.21376,-12.85232 z"
         style="fill:#022c5d" />
      <path
         id="path4393-5"
         d="m 13.206422,-911.6132 c -4.1042808,0.11088 -6.8810994,0.41208 -6.8810994,0.84476 0,0.23592 2.9908012,4.69425 6.6506814,9.92231 3.659801,5.22806 6.650759,9.91909 6.650759,10.41382 0,0.75495 -0.618119,0.81912 -3.77847,0.41444 -7.0725125,-0.90516 -47.600617,-0.47185 -59.994617,0.64485 -85.063996,7.65021 -151.678626,35.34306 -201.103166,83.61763 -6.20455,6.06009 -7.47877,7.58455 -6.74293,8.0792 0.49937,0.33816 4.47217,0.62205 8.8318,0.62992 8.35231,0 15.36592,0.53318 15.35963,1.15193 -0.002,0.20447 -3.56047,4.72201 -7.92561,10.04523 -10.86435,13.24938 -21.45086,27.39015 -28.07732,37.50812 -21.28824,32.50396 -35.57552,67.75674 -43.49838,107.36356 -1.62984,8.14801 -5.79059,33.56011 -5.79059,35.38851 0,1.4676 2.40045,-1.54231 10.21415,-12.8406 37.38867,-54.06358 77.95618,-92.85387 129.54288,-123.84446 16.09147,-9.66728 42.91108,-22.34824 63.95734,-30.24302 2.41216,-0.90516 4.39282,-1.92286 4.39282,-2.25787 0,-1.57046 -9.49152,-13.0943 -16.71125,-20.29004 -4.41436,-4.39997 -7.83493,-8.11128 -7.60294,-8.24812 3.07487,-1.8174 48.603445,-3.54404 72.727636,-2.76471 79.994239,2.58572 149.57411,20.86059 234.510394,61.59198 7.72209,3.7025 14.3222,6.72751 14.66838,6.72751 0.99481,0 0.83596,-0.56779 -2.73404,-9.13896 -4.37496,-10.50882 -11.92168,-25.83629 -16.55757,-33.63749 -3.90422,-6.5696 -4.02313,-6.83502 -3.02588,-6.83502 1.11655,0 16.24136,10.14628 25.68129,17.23342 13.63134,10.23365 21.58778,17.27769 36.60186,32.33197 19.31993,19.37088 34.54021,37.63261 53.48211,64.17243 8.2515,11.56103 30.44946,44.68515 32.33197,48.24445 1.52603,2.88534 2.06519,1.51022 1.64352,-4.23923 -3.05238,-41.62318 -12.60531,-77.21514 -29.82835,-111.15744 -35.23547,-69.4417 -102.09829,-126.03407 -182.25697,-154.27174 -26.850524,-9.45896 -53.282597,-14.85862 -79.915992,-16.3119 -5.288695,-0.28704 -10.717765,-0.35782 -14.822046,-0.24536 z m 12.318427,8.44779 c 5.170891,0.18638 15.694727,1.11568 22.839667,2.1042 47.29195,6.54373 99.878024,28.1897 142.060974,58.48934 57.87901,41.57364 96.98151,96.68842 112.80088,158.95655 2.14785,8.45471 5.56017,24.58715 5.56017,26.31097 0,1.71359 -1.67215,-0.1856 -7.03469,-8.0177 -44.09865,-64.41024 -83.71617,-104.1745 -131.80074,-132.27691 -7.75071,-4.53052 -23.31993,-12.74844 -24.14527,-12.74844 -0.90815,0 0.23042,2.00653 8.0177,14.00795 9.54609,14.71148 14.09682,22.44552 19.38378,33.00781 3.65768,7.3082 4.43348,9.67624 2.94905,9.03139 -0.41601,-0.18167 -6.34249,-2.87725 -13.16311,-6.00559 -63.697439,-29.2144 -126.078972,-46.42344 -189.045989,-52.13043 -32.343842,-2.93174 -64.613683,-2.93009 -98.301421,0 -13.6293,1.1852 -24.18703,2.46784 -24.6982,3.01046 -0.22176,0.23357 1.10381,1.73192 2.93371,3.33305 1.8299,1.60114 6.84532,6.00252 11.151,9.76865 8.65635,7.56999 16.85177,16.37992 16.55766,17.80183 -0.11246,0.54499 -3.64101,2.33989 -8.6628,4.40815 -34.6971,14.29217 -65.71167,32.59841 -95.06054,56.09331 -24.95991,19.98107 -50.04195,45.6121 -70.36235,71.91363 -3.0847,3.99261 -5.84815,7.33926 -6.14384,7.44936 -0.89965,0.33737 -0.62205,-1.63975 1.53602,-10.87458 8.13425,-34.81042 21.05789,-65.14765 40.13458,-94.2772 7.82944,-11.95573 14.98845,-21.45676 31.48721,-41.73202 7.71092,-9.47625 14.02329,-17.56143 14.02329,-17.98609 0,-0.5269 -1.0166,-0.78327 -3.22547,-0.78327 -8.30364,0 -17.94001,-0.80536 -17.94001,-1.50527 0,-0.9153 10.79011,-9.98679 20.07496,-16.86482 45.84141,-33.95803 106.52335,-54.32342 175.821296,-59.02694 20.046334,-1.36049 54.582377,-0.61891 67.843317,1.45918 2.828172,0.44826 5.36136,0.61262 5.621662,0.36883 0.260302,-0.24143 -2.837136,-5.18701 -6.881099,-10.98208 -7.84469,-11.24175 -8.167748,-11.76227 -7.403356,-12.22626 0.210758,-0.12739 1.348302,-0.13762 3.071959,-0.0786 z"
         style="fill:#808080;fill-opacity:1"
         inkscape:connector-curvature="0" />
    </g>
  </g>
</svg>
