<?xml version="1.0" encoding="UTF-8" standalone="no"?>
<!-- Created with Inkscape (http://www.inkscape.org/) -->

<svg
   xmlns:dc="http://purl.org/dc/elements/1.1/"
   xmlns:cc="http://creativecommons.org/ns#"
   xmlns:rdf="http://www.w3.org/1999/02/22-rdf-syntax-ns#"
   xmlns:svg="http://www.w3.org/2000/svg"
   xmlns="http://www.w3.org/2000/svg"
   xmlns:sodipodi="http://sodipodi.sourceforge.net/DTD/sodipodi-0.dtd"
   xmlns:inkscape="http://www.inkscape.org/namespaces/inkscape"
   width="200"
   height="150"
   viewBox="0 0 199.99999 150.00001"
   id="svg2"
   version="1.1"
   inkscape:version="0.91 r13725"
   sodipodi:docname="Grizzlies.svg">
  <defs
     id="defs4">
    <inkscape:path-effect
       effect="spiro"
       id="path-effect4550"
       is_visible="true" />
    <inkscape:path-effect
       effect="spiro"
       id="path-effect4546"
       is_visible="true" />
    <inkscape:path-effect
       effect="spiro"
       id="path-effect4542"
       is_visible="true" />
    <inkscape:path-effect
       effect="spiro"
       id="path-effect4538"
       is_visible="true" />
    <inkscape:path-effect
       effect="spiro"
       id="path-effect4534"
       is_visible="true" />
    <inkscape:path-effect
       effect="spiro"
       id="path-effect4530"
       is_visible="true" />
    <inkscape:path-effect
       effect="spiro"
       id="path-effect4526"
       is_visible="true" />
    <inkscape:path-effect
       effect="spiro"
       id="path-effect4518"
       is_visible="true" />
    <inkscape:path-effect
       effect="spiro"
       id="path-effect4512"
       is_visible="true" />
    <inkscape:path-effect
       is_visible="true"
       id="path-effect4500"
       effect="spiro" />
    <inkscape:path-effect
       is_visible="true"
       id="path-effect4496"
       effect="spiro" />
    <inkscape:path-effect
       is_visible="true"
       id="path-effect4492"
       effect="spiro" />
    <inkscape:path-effect
       is_visible="true"
       id="path-effect4488"
       effect="spiro" />
    <inkscape:path-effect
       is_visible="true"
       id="path-effect4484"
       effect="spiro" />
    <inkscape:path-effect
       is_visible="true"
       id="path-effect4480"
       effect="spiro" />
    <inkscape:path-effect
       is_visible="true"
       id="path-effect4476"
       effect="spiro" />
    <inkscape:path-effect
       effect="spiro"
       id="path-effect4472"
       is_visible="true" />
    <inkscape:path-effect
       effect="spiro"
       id="path-effect4468"
       is_visible="true" />
    <inkscape:path-effect
       effect="spiro"
       id="path-effect4464"
       is_visible="true" />
    <inkscape:path-effect
       effect="spiro"
       id="path-effect4460"
       is_visible="true" />
    <inkscape:path-effect
       effect="spiro"
       id="path-effect4456"
       is_visible="true" />
    <inkscape:path-effect
       effect="spiro"
       id="path-effect4452"
       is_visible="true" />
    <inkscape:path-effect
       effect="spiro"
       id="path-effect4448"
       is_visible="true" />
  </defs>
  <sodipodi:namedview
     id="base"
     pagecolor="#ffffff"
     bordercolor="#666666"
     borderopacity="1.0"
     inkscape:pageopacity="0.0"
     inkscape:pageshadow="2"
     inkscape:zoom="3.959798"
     inkscape:cx="195.01084"
     inkscape:cy="79.501638"
     inkscape:document-units="px"
     inkscape:current-layer="layer1"
     showgrid="false"
     fit-margin-top="0"
     fit-margin-left="0"
     fit-margin-right="0"
     fit-margin-bottom="0"
     units="px"
     inkscape:window-width="2454"
     inkscape:window-height="1652"
     inkscape:window-x="106"
     inkscape:window-y="48"
     inkscape:window-maximized="1" />
  <metadata
     id="metadata7">
    <rdf:RDF>
      <cc:Work
         rdf:about="">
        <dc:format>image/svg+xml</dc:format>
        <dc:type
           rdf:resource="http://purl.org/dc/dcmitype/StillImage" />
        <dc:title></dc:title>
      </cc:Work>
    </rdf:RDF>
  </metadata>
  <g
     inkscape:label="Layer 1"
     inkscape:groupmode="layer"
     id="layer1"
     transform="translate(-6719.775,-1582.547)">
    <g
       id="g4565"
       transform="matrix(0.04849201,0,0,0.04849201,6425.2861,1648.532)">
      <path
         id="path4556"
         d="m 8191.6094,-1360.6543 c -7.9661,0.035 1.1363,-0.2742 -8.4864,0.1055 -17.0817,0.7709 -35.0031,4.8864 -52.5429,14.0273 -20.2407,10.5483 -33.6404,24.2277 -43.1504,36.586 -9.321,12.1126 -14.5644,22.5124 -18.0586,29.6054 -23.5761,47.8572 -31.7202,95.8045 -35.5801,138.166 -4.4926,49.3051 -3.3376,96.968 -0.1601,142.41215 1.2959,18.53425 2.0058,31.25489 1.4746,38.08398 -0.1536,1.97378 -0.3775,2.52803 -0.5996,3.46485 -2.3831,2.07604 -7.274,6.50712 -15.9278,13.37304 -33.7246,26.75732 -64.6334,56.38579 -92.7343,88.05469 -34.0259,38.34622 -62.8166,78.44176 -89.1836,118.01172 -3.0808,-2.14879 -5.0633,-3.47488 -8.7559,-6.08008 -19.0673,-13.45251 -46.8049,-32.9082 -88.4882,-40.92578 -3.4279,-0.65934 -6.2481,-1.02491 -9.2579,-1.47852 -4.4546,-45.96644 -14.2242,-83.68896 -19.0917,-114.36328 -4.982,-31.39601 -4.7265,-56.32438 -0.1485,-71.61719 1.2866,-4.29782 8.4531,-19.28646 11.7207,-46.75778 1.659,-13.9483 1.8692,-30.8156 -2.9414,-49.9902 -4.9297,-19.6495 -14.6836,-40.171 -33.1015,-58.2266 -15.1197,-14.8222 -32.083,-23.9164 -49.0528,-29.2344 a 94.295165,94.295165 0 0 0 -0.01,0 c -16.7258,-5.2405 -32.4383,-6.4556 -46.5567,-5.6504 -30.6434,1.7476 -54.5184,12.7131 -72.7949,24.5898 l 0,0 c -17.8257,11.5836 -29.6153,23.5325 -38.0195,32.2012 -38.3583,39.5651 -74.6518,90.7854 -89.0567,156.582 -11.3357,51.77747 -6.8138,92.85235 -7.5019,120.33008 a 94.295165,94.295165 0 0 0 0,0.002 c -0.3423,13.6683 -1.5229,24.19591 -3.2305,31.28515 -1.6466,6.83607 -3.9622,10.72749 -4.4297,11.33985 -0.9843,1.2892 -17.5024,12.77597 -47.1308,38.24414 -30.9265,26.58397 -54.2428,57.44572 -72.4317,88.51172 -33.8622,57.83535 -50.5305,115.92803 -65.5332,166.08008 -0.5563,1.85971 -0.8911,2.64532 -1.4121,4.3125 -2.8549,-1.73878 -4.7733,-2.85861 -8.2187,-4.98633 -34.2346,-21.14133 -56.4097,-34.60571 -64.045,-43.16211 -5.7384,-6.43074 -11.9266,-17.88767 -15.6191,-32.54688 -3.7869,-15.03391 -5.3746,-34.09665 -4.9121,-56.2539 0.2401,-11.50118 1.9026,-30.24489 -1.2578,-55.76953 -3.271,-26.41656 -11.8637,-59.12351 -38.3555,-89.25977 -14.3242,-16.29486 -32.1775,-29.45052 -53.4395,-38.12109 -21.3745,-8.71634 -44.5906,-12.26978 -68.7656,-9.4336 -27.6219,3.24053 -50.4797,14.01106 -68.9629,27.74805 -18.1686,13.50336 -31.0263,29.10518 -40.586,44.09961 -18.8707,29.59893 -24.9783,54.76451 -29.7422,69.41992 -13.4139,41.26622 -38.282,95.4498 -40.9199,167.09961 -3.5305,95.89554 25.7797,159.03318 24.2715,193.26758 -1.4296,32.45113 -27.0843,83.03006 -45.8555,159.4414 -29.7134,120.95383 -5.3918,239.887963 32.7852,341.87696 a 94.295165,94.295165 0 0 0 0,0.002 c 34.5289,92.24279 85.3735,184.58156 163.8945,258.41992 17.441,16.40085 29.9685,27.16457 35.8946,33.99805 1.1056,1.27493 1.82,2.29613 2.4726,3.24414 -0.7786,2.60647 -2.113,6.74605 -5.1758,12.72852 -27.8832,54.46373 -99.1886,112.33617 -152.7871,212.70507 -63.105,118.1713 -61.9776,247.06316 -50.2304,358.12106 16.6749,157.6446 60.5591,324.4843 168.7656,460.2461 26.5769,33.345 57.2013,64.8875 92.6172,92.4317 50.6157,39.3656 107.8169,68.0196 167.5312,86.3984 87.6732,26.984 174.5126,30.6927 254.3145,30.4356 93.2703,-0.3005 187.3716,-6.5806 281.0605,-21.3536 158.8825,-25.0528 312.7194,-74.0083 457.2637,-140.9101 37.5196,-17.3659 68.25,-32.0906 93.8105,-38.9141 24.6951,-6.5924 54.6886,-9.0286 88.5547,-8.9336 69.1636,0.1939 139.4665,9.6156 209.2246,25.836 125.1681,29.1044 259.1477,85.5342 414.9825,102.8867 62.9934,7.0144 134.2594,7.9167 206.3769,-16.5391 59.9068,-20.3151 109.6033,-54.7709 150.7539,-92.6504 61.4553,-56.5698 109.6883,-126.4397 140.8145,-203.9336 34.6315,-86.2209 45.4162,-172.3983 54.6308,-250.3496 9.4341,-79.8072 21.0871,-175.56733 -12.3047,-275.34568 l 0,-0.002 c -31.6862,-94.67925 -90.8344,-159.87281 -135.289,-215.96094 29.2701,-37.99023 56.7494,-79.50386 78.6758,-126.14257 34.3763,-73.12044 51.1954,-149.16856 60.6914,-221.84961 9.2384,-70.70982 13.5866,-151.10899 -11.3243,-233.462894 -15.6239,-51.651938 -38.7422,-92.480664 -56.3593,-127.173826 -17.5306,-34.52273 -29.9119,-63.76329 -33.8106,-87.24414 -5.1494,-31.01334 4.4282,-83.68298 -3.2988,-156.17578 -10.9515,-102.74454 -56.1422,-176.80635 -74.3516,-235.94532 -2.7623,-8.97118 -6.916,-31.7031 -27.4785,-59.49609 -10.5771,-14.29594 -25.3155,-28.88218 -46.7969,-39.48633 -22.2428,-10.97996 -48.8713,-16.45565 -78.9101,-9.71289 -37.5364,8.42563 -60.5716,30.80337 -75.043,53.0332 -13.5415,20.80196 -17.9128,38.92331 -20.539,50.60352 -4.0811,18.14993 -6.094,35.21695 -6.8223,51.17383 -25.4316,-46.4973 -50.8851,-83.68222 -64.4863,-116.8086 -6.6637,-16.22958 -13.3308,-38.13203 -23.3633,-64.44726 -44.2769,-116.13724 -109.1447,-198.81668 -130.7305,-274.96682 -1.7009,-6.0006 -4.2128,-17.0777 -10.1758,-32.2969 -6.0729,-15.4995 -15.6603,-34.9771 -34.5605,-53.5996 -20.9698,-20.6618 -48.0046,-34.7395 -80.377,-37.9688 l 0,0 c -33.0321,-3.294 -65.8587,5.1462 -93.9179,28.0586 -23.0592,18.8297 -34.9086,41.0677 -41.6915,60.7481 -6.575,19.0782 -8.0216,34.6601 -8.8496,45.51961 -4.0005,52.46894 5.4484,98.40454 14.7989,137.14063 l 0,0 c 9.3119,38.57691 18.5263,70.58475 22.1817,97.07031 0.4119,2.98495 0.5043,4.84762 0.6855,7.04102 -1.5262,0.6094 -2.597,1.09091 -4.5215,1.80078 a 94.295165,94.295165 0 0 0 0,0.002 c -11.4414,4.2202 -30.7684,9.39081 -53.3066,21.95898 -21.2879,-33.68829 -45.6009,-67.63297 -75.209,-99.63867 -53.122,-57.42367 -98.7624,-92.65826 -115.2715,-123.69336 -14.5285,-27.31185 -20.4883,-72.4746 -25.8828,-130.3867 -5.4928,-58.9683 -12.0139,-134.9544 -59.5742,-206.7266 -10.5235,-15.8808 -26.7267,-38.3812 -57.3203,-55.8379 -15.552,-8.8739 -34.1262,-15.7872 -56.0137,-17.664 -2.7931,-0.2395 -5.598,-0.3895 -8.414,-0.4473 z m -492.6387,570.52344 c 0.1417,-10e-4 0.7645,0.16433 1.1094,0.22266 -0.069,-0.006 -0.3646,-0.0134 -0.4278,-0.0195 -0.792,-0.0772 -1.0029,-0.19995 -0.6816,-0.20313 z"
         style="fill:#ffffff;fill-opacity:1;fill-rule:evenodd;stroke:none;stroke-width:1px;stroke-linecap:butt;stroke-linejoin:miter;stroke-opacity:1"
         inkscape:connector-curvature="0" />
      <path
         inkscape:connector-curvature="0"
         id="path4524"
         d="m 7002.3775,1464.5044 c -92.1339,-115.5962 -133.1842,-264.3977 -148.7333,-411.3989 -10.9068,-103.11275 -9.206,-212.32553 39.6368,-303.78905 41.4577,-77.634 113.4361,-135.81208 153.5432,-214.15235 10.892,-21.27515 19.4433,-45.01541 16.1624,-68.69037 -2.702,-19.4975 -13.259,-37.15179 -26.1553,-52.02259 -12.8962,-14.8708 -28.1955,-27.42702 -42.5351,-40.91145 -64.4842,-60.63866 -109.1494,-139.88749 -140.1808,-222.78694 -34.1517,-91.235413 -52.7654,-191.724878 -29.5248,-286.32994 14.7005,-59.84097 45.7753,-116.22639 48.4873,-177.78685 2.8753,-65.26681 -26.6472,-128.6634 -24.2436,-193.94928 1.7976,-48.82565 21.2615,-94.95583 36.3655,-141.42136 5.346,-16.4463 10.2788,-33.2981 19.5756,-47.87999 4.6483,-7.29094 10.3856,-13.95474 17.3254,-19.11257 6.9399,-5.15784 15.1203,-8.77153 23.7081,-9.77903 7.492,-0.87895 15.1915,0.24705 22.1765,3.09547 6.9849,2.84843 13.2492,7.4014 18.2296,13.06697 9.301,10.58054 13.8689,24.61552 15.6,38.5962 1.7311,13.98068 0.8565,28.13163 0.5625,42.216 -0.5695,27.28275 1.0825,54.78868 7.748,81.25081 6.6655,26.46212 18.5298,51.93151 36.6987,72.29238 23.237,26.04043 55.1579,42.27128 84.8528,60.60915 14.2549,8.80304 28.2569,18.26644 43.8205,24.46892 15.5636,6.20249 33.1627,8.94055 49.1135,3.81535 16.3241,-5.24515 29.2641,-18.22532 37.9675,-32.99824 8.7034,-14.77292 13.6871,-31.38712 18.6011,-47.81396 14.9479,-49.96895 30.2157,-100.45239 56.5685,-145.46197 14.0938,-24.07168 31.3747,-46.46674 52.5279,-64.64976 20.3312,-17.47637 44.3396,-31.21878 60.6092,-52.52793 10.4044,-13.62718 17.1397,-29.80766 21.1546,-46.47595 4.0149,-16.66828 5.3933,-33.867 5.8225,-51.00664 0.8585,-34.27927 -1.9857,-69.03095 5.3478,-102.52761 9.284,-42.40617 34.4328,-79.94922 64.6497,-111.11682 6.6712,-6.8811 13.6621,-13.5472 21.6984,-18.7694 8.0363,-5.2223 17.2204,-8.9691 26.7889,-9.5148 4.3782,-0.2497 8.8149,0.1779 12.9995,1.4891 4.1847,1.3113 8.1127,3.5222 11.2442,6.5921 3.8128,3.7378 6.3538,8.6634 7.6531,13.8423 1.2993,5.1789 1.3987,10.6088 0.7681,15.9109 -1.2613,10.604 -5.3587,20.6257 -8.4212,30.8559 -10.94,36.54505 -8.6263,75.7585 -2.6478,113.43449 5.9786,37.67599 15.5164,74.83479 18.8102,112.83971 1.086,12.53032 1.5037,25.21274 4.6234,37.39698 3.1197,12.18423 9.3083,24.09262 19.6203,31.2934 8.543,5.9655 19.1343,8.20414 29.5048,9.21536 10.3705,1.01123 20.8723,0.93837 31.1044,2.90647 19.0708,3.66817 36.0724,14.18242 51.9409,25.37804 15.8685,11.19561 31.2918,23.3845 49.0743,31.1905 6.9844,3.06594 14.3255,5.43557 21.8978,6.35277 7.5724,0.9172 15.3982,0.3428 22.5489,-2.31216 8.1832,-3.03828 15.1961,-8.67874 21.0242,-15.17706 5.8282,-6.49832 10.5767,-13.87446 15.3413,-21.18843 28.4043,-43.60281 58.3954,-86.33483 92.9341,-125.25892 24.6916,-27.82669 51.6687,-53.64895 80.8122,-76.77159 13.1163,-10.40656 26.9168,-20.52285 36.3654,-34.34519 9.7902,-14.322 14.2165,-31.7454 15.562,-49.04158 1.3454,-17.29617 -0.2097,-34.66752 -1.4198,-51.97369 -2.9625,-42.3691 -3.8541,-84.9819 0,-127.2792 3.2942,-36.1529 10.2211,-72.4904 26.264,-105.0559 2.365,-4.8008 4.937,-9.5301 8.2008,-13.7714 3.2638,-4.2413 7.2563,-7.9989 12.0022,-10.4722 5.4308,-2.8302 11.7123,-3.8808 17.8139,-3.3576 6.1016,0.5232 12.0231,2.5803 17.3421,5.6153 10.6381,6.0701 18.6876,15.8167 25.4532,26.0265 31.5045,47.5427 39.0018,106.6012 44.2915,163.389 5.2898,56.7879 9.7356,115.56804 36.5207,165.92077 30.3559,57.06528 85.4061,95.99388 129.2995,143.44166 33.1868,35.87421 60.2256,76.98633 84.8528,119.198 5.5169,9.45608 11.0301,19.11939 18.9252,26.70364 3.9475,3.79213 8.4783,7.02635 13.5184,9.16188 5.0401,2.13554 10.6056,3.14487 16.0437,2.52028 8.3174,-0.9553 15.7796,-5.60915 22.1207,-11.07562 6.3412,-5.46648 11.8643,-11.83629 18.2854,-17.20865 16.1441,-13.50738 36.8624,-19.90366 56.6112,-27.18809 9.8745,-3.64222 19.6817,-7.59992 28.7685,-12.91042 9.0867,-5.31049 17.4743,-12.03707 23.7168,-20.51064 7.8839,-10.70162 12.0504,-23.81618 13.534,-37.02527 1.4835,-13.20908 0.405,-26.579 -1.4122,-39.74633 -4.9683,-35.99911 -15.4001,-70.97766 -23.9272,-106.30339 -8.5272,-35.32574 -15.2011,-71.61379 -12.4383,-107.84894 0.5673,-7.44088 1.5458,-14.91271 3.9773,-21.96788 2.4316,-7.0553 6.405,-13.7182 12.1852,-18.4382 6.879,-5.6172 16.0898,-8.1515 24.9269,-7.27 8.8372,0.8814 17.2343,5.0774 23.5604,11.3106 5.8679,5.7817 9.9458,13.1634 12.951,20.83343 3.0052,7.67004 5.0054,15.68777 7.252,23.61327 28.4765,100.45894 96.1431,185.27584 133.3401,282.84271 8.4248,22.09808 15.2612,44.79276 24.2437,66.67007 26.3393,64.15047 70.4715,119.76484 96.9747,183.84776 22.7097,54.91039 31.8169,114.49938 36.3654,173.74624 0.5017,6.53519 0.9576,13.11948 2.6259,19.45801 1.6684,6.33854 4.6498,12.49442 9.496,16.90748 4.8454,4.41234 11.3478,6.82774 17.892,7.17415 6.5442,0.34641 13.1128,-1.29876 18.9817,-4.21468 11.7378,-5.83183 20.4081,-16.36337 27.776,-27.20313 36.4863,-53.67921 49.0055,-121.12299 44.4468,-185.86807 -3.1377,-44.56425 -13.8412,-89.7538 -4.0407,-133.34014 1.5617,-6.94552 3.6844,-13.88159 7.5682,-19.84772 3.8839,-5.96613 9.7294,-10.91799 16.6755,-12.47716 5.5304,-1.24139 11.4419,-0.24747 16.5244,2.26146 5.0825,2.50894 9.3668,6.4645 12.738,11.021 6.7422,9.113 9.8281,20.33019 13.164,31.16425 22.5612,73.27246 62.5848,141.95759 70.7107,218.19295 5.7197,53.661 -4.7987,108.38829 4.0406,161.62441 6.6997,40.3504 24.234,78.02047 42.7535,114.490576 18.5195,36.470101 38.3379,72.6326682 50.1805,111.783594 18.8781,62.41008 16.5284,129.29601 8.0813,193.94929 -8.7123,66.68304 -23.9159,133.08978 -52.528,193.94929 -21.192,45.0766 -49.4744,86.5427 -80.8122,125.25891 -4.8362,5.97483 -9.7717,11.92342 -13.6139,18.58108 -3.8422,6.65766 -6.5739,14.13822 -6.5891,21.82502 -0.013,6.75381 2.0714,13.38276 5.1134,19.41276 3.0419,6.03 7.0249,11.52866 11.049,16.95274 50.114,67.54847 110.6879,130.35149 137.3808,210.11173 25.02,74.76144 17.3361,156.06352 8.0812,234.35542 -9.0831,76.8384 -19.6488,154.4759 -48.4873,226.2741 -25.8343,64.3188 -66.1807,122.7628 -117.1777,169.7057 -34.0711,31.3626 -73.3225,57.8591 -117.1777,72.7309 -52.864,17.9267 -110.1871,18.2995 -165.6651,12.1219 -138.1371,-15.3818 -268.6816,-69.5365 -404.0609,-101.0153 -75.4989,-17.5552 -152.8021,-28.0669 -230.3148,-28.2842 -38.04,-0.1067 -76.3839,2.3105 -113.1371,12.1218 -37.9922,10.1421 -73.4109,27.9297 -109.0965,44.4467 -137.3033,63.5504 -282.8946,109.7745 -432.3453,133.3401 -88.1464,13.899 -177.4452,19.9156 -266.6802,20.2031 -76.2275,0.2456 -153.419,-3.8407 -226.2742,-26.264 -49.4953,-15.2336 -96.5021,-38.9179 -137.3808,-70.7107 -28.6346,-22.2701 -54.1619,-48.4043 -76.7715,-76.7716 z"
         style="fill:#574243;fill-opacity:1;fill-rule:evenodd;stroke:none;stroke-width:1px;stroke-linecap:butt;stroke-linejoin:miter;stroke-opacity:1" />
      <path
         id="path4528"
         d="m 7198.8679,295.21935 c -34.3419,3.00867 -69.1409,-8.46411 -97.1429,-28.57143 -34.9699,-25.11078 -59.2158,-62.29771 -80,-100 -26.748,-48.52057 -49.3303,-99.917893 -60,-154.285715 -8.6552,-44.102812 -9.3296,-89.487272 -5.7143,-134.285715 2.9127,-36.09305 8.7078,-72.38281 22.8572,-105.71429 12.1,-28.50378 30.3917,-54.58928 54.2857,-74.28571 17.3028,-14.26311 37.829,-25.21451 60,-28.57143 23.2439,-3.51937 47.2623,1.49953 68.5714,11.42857 35.3482,16.47058 63.3215,45.70595 85.7143,77.63307 26.6653,38.01886 46.5486,80.59117 60.52,124.87744 12.348,39.140417 20.1291,79.618391 25.1943,120.3466362 3.7714,30.3252688 6.0511,60.8715438 5.7143,91.4285718 -0.4085,37.060292 -4.8546,74.744692 -20,108.571432 -10.7755,24.0667 -26.9738,45.84046 -47.7013,62.14039 -20.7275,16.29992 -46.0304,26.98683 -72.2987,29.28818 z"
         style="fill:#ffffff;fill-opacity:1;fill-rule:evenodd;stroke:none;stroke-width:1px;stroke-linecap:butt;stroke-linejoin:miter;stroke-opacity:1"
         inkscape:connector-curvature="0" />
      <path
         id="path4532"
         d="m 7535.778,-64.637074 c -25.4505,-16.575656 -48.7081,-36.949006 -66.3482,-61.673676 -23.6617,-33.16473 -36.4087,-72.89886 -44.8477,-112.75562 -8.5514,-40.38769 -13.0361,-81.59299 -14.2857,-122.85714 -1.278,-42.20077 0.8706,-84.83561 11.4286,-125.71429 8.2672,-32.00909 21.8755,-63.02342 42.8571,-88.57142 13.9078,-16.93469 31.0045,-31.3361 50.4184,-41.50036 27.3301,-14.30885 58.7655,-19.93035 89.5816,-18.49964 22.5013,1.04468 44.8597,5.77206 65.7143,14.28571 29.7664,12.15176 56.3048,32.05543 76.4497,57.11312 18.2285,22.674 31.1229,49.24001 40.8665,76.65265 12.8507,36.15425 20.4463,74.14436 22.8572,112.43872 3.2467,51.56928 -2.8843,103.43723 -14.4591,153.79551 -6.3617,27.67804 -14.3996,55.07186 -26.0311,80.98042 -14.2294,31.69519 -34.3606,61.555208 -62.5403,81.876723 -26.2414,18.923714 -59.2219,28.787351 -91.4286,25.714286 -28.858,-2.753537 -55.9413,-15.464293 -80.2327,-31.284993 z"
         style="fill:#ffffff;fill-opacity:1;fill-rule:evenodd;stroke:none;stroke-width:1px;stroke-linecap:butt;stroke-linejoin:miter;stroke-opacity:1"
         inkscape:connector-curvature="0" />
      <path
         id="path4536"
         d="m 8018.8679,-219.06637 c -22.0109,-33.82755 -36.8026,-72.0666 -45.7143,-111.42857 -7.0015,-30.92447 -10.4403,-62.59397 -11.4286,-94.28571 -0.8944,-28.68126 0.2242,-57.54917 5.7143,-85.71429 8.4606,-43.40474 27.1059,-84.1947 48.5714,-122.85714 16.8316,-30.31606 35.5397,-59.68327 57.4597,-86.55112 11.7404,-14.39048 24.4513,-28.10351 39.0623,-39.56832 14.611,-11.4648 31.2118,-20.65877 49.1923,-25.30913 27.1866,-7.03139 56.276,-3.34092 82.8571,5.71428 30.328,10.33162 58.4265,27.74077 80,51.42857 20.8135,22.85325 35.1516,50.95 45.7143,80 11.3907,31.32722 18.6434,64.07648 22.8572,97.14286 4.7048,36.91955 5.6436,74.31491 2.8571,111.42857 -2.7571,36.7223 -9.2087,73.34855 -21.8469,107.93765 -8.462,23.15956 -19.6458,45.26939 -32.4388,66.34807 -16.578,27.31511 -36.0485,53.13698 -60,74.28571 -26.799,23.66298 -59.2937,41.24459 -94.2857,48.57143 -31.407,6.57619 -65.0408,4.63411 -94.2857,-8.57143 -31.1362,-14.05957 -55.6534,-39.93631 -74.2857,-68.57143 z"
         style="fill:#ffffff;fill-opacity:1;fill-rule:evenodd;stroke:none;stroke-width:1px;stroke-linecap:butt;stroke-linejoin:miter;stroke-opacity:1"
         inkscape:connector-curvature="0" />
      <path
         id="path4540"
         d="m 8517.4393,-107.63779 c -12.7698,-27.21576 -21.067,-56.5387 -24.2857,-86.42858 -3.1161,-28.93769 -1.4921,-58.18477 1.4285,-87.14285 3.4553,-34.25997 8.8101,-68.67591 21.4286,-100.71429 13.6633,-34.69116 35.4616,-65.60513 59.2857,-94.28572 18.6345,-22.43318 38.6689,-43.76543 60.7143,-62.85714 26.6914,-23.11522 57.0828,-43.23625 91.4286,-51.42857 23.3663,-5.57343 48.0227,-5.40499 71.4285,0 23.0585,5.32479 45.0756,15.81243 62.8572,31.42857 22.433,19.70108 37.3022,46.6384 48.5714,74.28572 12.3253,30.23822 20.8764,61.9924 25.7143,94.28571 9.0794,60.60589 4.9685,123.09503 -11.4286,182.14286 -8.3091,29.9219 -19.7443,58.9894 -34.2857,86.42857 -21.9688,41.454351 -51.6675,79.705923 -90.7143,105.714286 -24.8109,16.52607861 -53.2584,27.877928 -82.8571,31.428571 -29.1506,3.49688 -59.1194,-0.649311 -86.4286,-11.4285708 -22.1213,-8.7315383 -42.499,-21.7541772 -60,-37.8571432 -22.3619,-20.575537 -39.9493,-46.0615 -52.8571,-73.571423 z"
         style="fill:#ffffff;fill-opacity:1;fill-rule:evenodd;stroke:none;stroke-width:1px;stroke-linecap:butt;stroke-linejoin:miter;stroke-opacity:1"
         inkscape:connector-curvature="0" />
      <path
         id="path4544"
         d="m 8910.2964,286.64792 c -9.0468,-48.39381 -9.8099,-98.19709 -3.8821,-147.07107 4.8507,-39.992905 14.3003,-79.821877 32.4535,-115.786074 16.0213,-31.740618 38.484,-59.828076 62.8572,-85.714286 20.1034,-21.351351 42.083,-41.70043 68.5714,-54.28571 23.8743,-11.34325 50.7614,-15.9188 77.1429,-14.28572 26.9891,1.67069 53.4861,9.75898 77.1428,22.85714 25.0077,13.846201 46.9638,33.383594 62.8572,57.142862 16.5435,24.731064 26.2871,53.5505099 31.4285,82.857143 5.1778,29.514258 5.842,59.634964 5.3826,89.596445 -0.5787,37.73939 -2.9361,75.58266 -10.2451,112.61204 -6.7377,34.13512 -17.7692,67.64279 -35.1375,97.79151 -15.6255,27.1235 -36.1043,51.10769 -57.1428,74.28572 -19.7807,21.79227 -41.1176,43.68102 -68.5715,54.28571 -17.1842,6.63779 -35.8644,8.4531 -54.2857,8.57143 -19.3743,0.12446 -39.0556,-1.62653 -57.1428,-8.57143 -28.7519,-11.03978 -50.9927,-34.10117 -71.4286,-57.14285 -14.9539,-16.86065 -29.6217,-34.28092 -40,-54.28572 -10.1624,-19.5887 -15.9448,-41.16502 -20,-62.85714 z"
         style="fill:#ffffff;fill-opacity:1;fill-rule:evenodd;stroke:none;stroke-width:1px;stroke-linecap:butt;stroke-linejoin:miter;stroke-opacity:1"
         inkscape:connector-curvature="0" />
      <path
         id="path4548"
         d="m 7062.9866,789.72254 c 3.931,-9.07667 10.4655,-16.85942 18.0196,-23.24497 7.554,-6.38556 16.1287,-11.45089 24.8679,-16.08394 17.4783,-9.2661 36.2208,-17.23243 50.0465,-31.38177 7.4679,-7.64271 13.1958,-16.81352 18.1828,-26.26396 10.1247,-19.18665 17.431,-39.80475 28.2843,-58.58885 5.0695,-8.77391 10.937,-17.15981 18.1827,-24.24366 6.1778,-6.03977 13.2698,-11.05237 19.8597,-16.63965 6.5899,-5.58727 12.801,-11.92082 16.5058,-19.72584 4.2399,-8.93224 4.8937,-19.15402 4.3492,-29.02646 -0.5445,-9.87244 -2.2115,-19.67565 -2.3289,-29.56239 -0.03,-2.51951 0.044,-5.0607 0.6096,-7.51597 0.5661,-2.45527 1.6553,-4.83853 3.431,-6.62616 2.0158,-2.02928 4.7911,-3.16672 7.6055,-3.67728 2.8143,-0.51057 5.6977,-0.44196 8.5569,-0.36333 23.611,0.64928 47.4103,1.85188 70.7107,-2.02031 45.9307,-7.63301 86.2987,-34.28634 123.2386,-62.62946 70.706,-54.25106 136.7367,-118.2909 220.2133,-149.50257 18.9986,-7.10352 38.7953,-12.44983 56.5685,-22.22336 11.8374,-6.50946 22.5448,-14.8608 33.8562,-22.24666 11.3114,-7.38585 23.5296,-13.91527 36.8545,-16.13914 9.3279,-1.55679 18.8751,-0.94888 28.2843,0 31.4396,3.17054 62.39,10.08567 92.934,18.18275 47.392,12.56341 93.9887,27.99746 141.4214,40.4061 26.5984,6.95828 53.5045,12.97119 80.8122,16.16244 25.4583,2.97512 51.1819,3.48357 76.7716,2.02031 77.3561,-4.42334 152.9142,-26.74531 230.3148,-30.30458 30.3415,-1.39526 60.7953,0.11171 90.9137,4.04061 42.3285,5.5217 83.8761,15.79247 125.2589,26.26397 25.6844,6.49917 51.6911,13.21957 74.7513,26.26396 25.8679,14.63266 46.7749,36.51061 66.67,58.58885 29.8837,33.16291 58.5017,67.62822 82.8325,105.05586 12.5004,19.22921 23.8829,39.28412 32.3249,60.60916 9.2724,23.4229 14.8962,48.10484 20.2031,72.73098 10.1565,47.12986 19.2834,94.48616 30.3045,141.42136 11.1144,47.33266 24.1904,94.33044 42.4264,139.40105 6.2233,15.38103 13.0834,30.59876 22.2234,44.44671 14.2614,21.60731 33.7124,39.34967 48.4873,60.60916 12.0622,17.3563 20.8205,36.794 28.2843,56.5685 10.97,29.0638 19.3766,60.0154 16.1624,90.9138 -1.8815,18.0876 -7.6878,35.5266 -14.1421,52.5279 -8.4987,22.3865 -18.4443,44.7257 -34.3452,62.6295 -6.3889,7.1936 -13.7458,13.6331 -22.2233,18.1827 -10.3177,5.5372 -22.0387,8.1264 -33.7331,8.7254 -11.6943,0.599 -23.4085,-0.7306 -34.9573,-2.6645 -19.0222,-3.1854 -37.7257,-8.0067 -56.5686,-12.1218 -9.6175,-2.1004 -19.5375,-4.1233 -27.7651,-9.5283 -4.1138,-2.7025 -7.7339,-6.2524 -10.1075,-10.5644 -2.3736,-4.312 -3.4405,-9.4147 -2.5335,-14.2525 0.8402,-4.482 3.2866,-8.5029 6.061,-12.1218 5.2896,-6.8996 11.8679,-12.6819 17.904,-18.9388 6.0362,-6.2569 11.668,-13.2207 14.4208,-21.4673 3.65,-10.9345 1.8722,-22.8186 2.0203,-34.3452 0.066,-5.1007 0.5171,-10.1935 0.4707,-15.2944 -0.046,-5.1009 -0.6097,-10.2687 -2.491,-15.0102 -1.8702,-4.7136 -4.9868,-8.8522 -8.5609,-12.4497 -3.5741,-3.5974 -7.614,-6.6931 -11.6421,-9.7737 -38.0137,-29.0722 -76.3018,-57.9449 -117.1777,-82.8325 -10.5621,-6.4308 -21.2944,-12.5934 -32.3249,-18.1827 -6.91,-3.5014 -13.9962,-6.7986 -21.5301,-8.60106 -7.5338,-1.80251 -15.6052,-2.03974 -22.9166,0.51983 -3.7339,1.30713 -7.2307,3.33893 -10.1015,6.06093 -4.6403,4.3998 -7.4419,10.3471 -10.1015,16.1624 -20.1803,44.1248 -38.2871,89.3473 -62.6295,131.3198 -13.2169,22.7894 -28.2021,44.4955 -42.4264,66.6701 -8.086,12.6055 -16,25.4599 -26.264,36.3655 -15.9808,16.9797 -37.5752,28.7006 -60.6091,32.3249 -9.3431,1.4701 -18.834,1.6373 -28.2843,2.0203 -35.7143,1.4475 -71.5562,6.0131 -107.0761,2.0203 -8.1451,-0.9156 -16.2387,-2.2795 -24.2437,-4.0406 -3.5268,-0.7759 -7.1039,-1.6561 -10.1792,-3.5489 -1.5377,-0.9463 -2.9339,-2.1444 -4.0019,-3.6002 -1.068,-1.4558 -1.7993,-3.1764 -1.9814,-4.9727 -0.2361,-2.3287 0.4576,-4.6842 1.6152,-6.7186 1.1575,-2.0343 2.7596,-3.7799 4.4458,-5.4033 10.0337,-9.6599 23.1218,-15.3387 35.0981,-22.4491 5.9881,-3.5552 11.7815,-7.5333 16.6861,-12.4772 4.9046,-4.9439 8.9083,-10.9124 10.8452,-17.6016 2.4564,-8.4834 1.4798,-17.557 0,-26.264 -2.364,-13.909 -5.9956,-27.6971 -12.1218,-40.4061 -7.8788,-16.3447 -19.6694,-30.4981 -28.2843,-46.467 -9.2004,-17.0542 -14.9644,-36.4337 -28.2843,-50.5076 -7.2919,-7.7047 -16.4421,-13.3475 -25.4317,-18.9795 -8.9897,-5.6321 -18.0583,-11.451 -25.0759,-19.4063 -4.628,-5.2464 -8.3046,-11.42149 -10.1015,-18.18275 -1.3176,-4.95779 -1.6098,-10.13286 -2.7367,-15.13742 -0.5635,-2.50228 -1.3408,-4.9708 -2.5258,-7.24556 -1.1851,-2.27477 -2.7916,-4.35624 -4.839,-5.90129 -1.9858,-1.49859 -4.3385,-2.45906 -6.7546,-3.05171 -2.4162,-0.59265 -4.9049,-0.83021 -7.3876,-0.9889 -18.3248,-1.17129 -36.6713,1.86759 -54.5482,6.06092 -13.3341,3.12774 -26.7081,6.98586 -38.3858,14.14213 -5.3216,3.26115 -10.2771,7.22119 -14.1421,12.12183 -4.2161,5.34586 -7.0383,11.69365 -8.8629,18.25295 -1.8247,6.5593 -2.6835,13.3488 -3.259,20.1328 -1.9365,22.8293 -0.7232,45.7905 0,68.6904 0.1313,4.1568 0.2456,8.332 -0.2453,12.4618 -0.491,4.1297 -1.6128,8.2417 -3.7953,11.7819 -2.435,3.9498 -6.0838,7.0222 -10.0004,9.5101 -3.9167,2.488 -8.1385,4.4505 -12.2229,6.6523 -22.9121,12.3515 -41.2217,32.1893 -54.5483,54.5483 -6.999,11.7427 -12.8468,24.3974 -22.2233,34.3451 -10.4954,11.1346 -24.884,18.2789 -34.3452,30.3046 -4.1987,5.3368 -7.2722,11.4512 -10.8145,17.2444 -3.5424,5.7933 -7.7089,11.4215 -13.4292,15.0805 -4.6809,2.9941 -10.1755,4.5112 -15.6848,5.2352 -5.5092,0.724 -11.0851,0.6937 -16.6401,0.8257 -45.4557,1.0803 -89.9976,13.0636 -135.3604,16.1625 -15.6318,1.0679 -31.5969,1.1239 -46.467,6.0609 -4.5791,1.5203 -9.097,3.5113 -13.9121,3.8178 -2.4076,0.1533 -4.8714,-0.1339 -7.0883,-1.0854 -2.2168,-0.9516 -4.1726,-2.6011 -5.2636,-4.7527 -1.1237,-2.2163 -1.2749,-4.8373 -0.7906,-7.2745 0.4843,-2.4373 1.5664,-4.7169 2.8109,-6.8677 5.2907,-9.1433 13.529,-16.2235 22.2234,-22.2233 22.5821,-15.5834 48.8457,-24.8845 72.731,-38.3858 7.1732,-4.0547 14.1763,-8.5232 20.203,-14.1422 3.4116,-3.1808 6.5147,-6.7484 8.7521,-10.8411 2.2375,-4.0927 3.5817,-8.7429 3.3697,-13.4025 -0.264,-5.8013 -2.8902,-11.2487 -6.0881,-16.0962 -3.1979,-4.8474 -7.008,-9.2766 -10.0743,-14.2084 -7.9069,-12.7173 -10.4109,-27.9238 -14.1421,-42.4264 -1.9132,-7.4364 -4.1851,-14.7775 -6.0609,-22.2234 -2.4606,-9.7671 -4.3643,-20.0056 -10.1016,-28.2842 -4.9644,-7.1633 -12.4193,-12.2417 -20.203,-16.1625 -2.5167,-1.2677 -5.0968,-2.4364 -7.8053,-3.2141 -2.7084,-0.7776 -5.5587,-1.157 -8.3572,-0.8265 -4.2256,0.499 -8.169,2.6194 -11.2448,5.5595 -3.0758,2.9401 -5.3255,6.6654 -6.9379,10.603 -3.6373,8.8828 -4.093,18.912 -2.0203,28.2842 3.3297,15.0561 12.7477,27.9961 18.1827,42.4264 3.0974,8.2239 4.9821,17.1011 10.1016,24.2437 2.9834,4.1623 6.9525,7.5555 9.8293,11.7922 1.4384,2.1183 2.5992,4.4606 3.1036,6.9709 0.5045,2.5104 0.3185,5.203 -0.8111,7.5009 -0.9134,1.8582 -2.4103,3.3964 -4.1476,4.5229 -1.7373,1.1264 -3.7099,1.8561 -5.7276,2.3214 -4.0352,0.9306 -8.2277,0.8244 -12.3482,1.2369 -15.7531,1.5771 -29.6413,10.5547 -44.4467,16.1624 -15.4064,5.8354 -32.0128,8.042 -48.4873,8.0813 -18.1981,0.043 -36.9534,-2.7087 -52.5279,-12.1219 -11.0622,-6.6859 -19.9571,-16.378 -28.2843,-26.2639 -8.447,-10.0281 -16.5489,-20.5048 -22.2234,-32.3249 -7.5336,-15.6926 -10.5123,-33.175 -12.1218,-50.5077 -2.6808,-28.8694 -1.7916,-57.9669 -4.0406,-86.8731 -1.6765,-21.5477 -5.0913,-43.25622 -2.0203,-64.64973 2.2286,-15.52528 7.8599,-30.8861 6.0609,-46.46702 -1.0858,-9.40426 -4.8809,-18.36684 -10.1015,-26.26397 -2.6557,-4.01728 -5.8181,-7.90064 -10.1015,-10.10152 -4.0335,-2.07249 -8.7699,-2.47342 -13.2633,-1.86173 -4.4934,0.61169 -8.7977,2.17922 -13.0007,3.88203 -22.6347,9.17032 -43.3122,22.46531 -64.6498,34.34519 -8.4392,4.69859 -17.0549,9.20786 -26.2639,12.12183 -12.3366,3.9036 -25.4713,4.84316 -38.3858,4.04061 -15.8771,-0.98665 -31.5525,-4.56862 -46.467,-10.10153 -15.0073,-5.56734 -29.2688,-13.10794 -42.4265,-22.22335 -9.23,-6.39437 -18.0242,-13.62074 -28.2842,-18.18275 -12.5641,-5.5865 -26.6787,-6.85197 -40.4061,-6.06091 -16.7329,0.96426 -33.1624,4.84898 -49.8372,6.5429 -16.6749,1.69392 -34.2048,1.02855 -49.1578,-6.5429 -5.5342,-2.80224 -10.5692,-6.47772 -15.7494,-9.89024 -5.1802,-3.41252 -10.6052,-6.60864 -16.5755,-8.29251 -9.8281,-2.77193 -20.4754,-1.27216 -30.3045,-4.04061 -11.5196,-3.24461 -21.0125,-12.44838 -25.3452,-23.60442 -4.3327,-11.15604 -3.6547,-24.00226 1.1015,-34.98443 z"
         style="fill:#ffffff;fill-opacity:1;fill-rule:evenodd;stroke:none;stroke-width:1px;stroke-linecap:butt;stroke-linejoin:miter;stroke-opacity:1"
         inkscape:connector-curvature="0" />
    </g>
  </g>
</svg>
