<?xml version="1.0" encoding="UTF-8" standalone="no"?>
<!-- Created with Inkscape (http://www.inkscape.org/) -->

<svg
   xmlns:dc="http://purl.org/dc/elements/1.1/"
   xmlns:cc="http://creativecommons.org/ns#"
   xmlns:rdf="http://www.w3.org/1999/02/22-rdf-syntax-ns#"
   xmlns:svg="http://www.w3.org/2000/svg"
   xmlns="http://www.w3.org/2000/svg"
   xmlns:sodipodi="http://sodipodi.sourceforge.net/DTD/sodipodi-0.dtd"
   xmlns:inkscape="http://www.inkscape.org/namespaces/inkscape"
   width="200"
   height="150"
   viewBox="0 0 200 150"
   id="svg2"
   version="1.1"
   inkscape:version="0.91 r13725"
   sodipodi:docname="Grizzlies.svg">
  <defs
     id="defs4">
    <pattern
       y="0"
       x="0"
       height="6"
       width="6"
       patternUnits="userSpaceOnUse"
       id="EMFhbasepattern" />
    <pattern
       y="0"
       x="0"
       height="6"
       width="6"
       patternUnits="userSpaceOnUse"
       id="EMFhbasepattern-5" />
    <pattern
       y="0"
       x="0"
       height="6"
       width="6"
       patternUnits="userSpaceOnUse"
       id="EMFhbasepattern-52" />
    <pattern
       y="0"
       x="0"
       height="6"
       width="6"
       patternUnits="userSpaceOnUse"
       id="EMFhbasepattern-2" />
    <pattern
       y="0"
       x="0"
       height="6"
       width="6"
       patternUnits="userSpaceOnUse"
       id="EMFhbasepattern-1" />
    <pattern
       y="0"
       x="0"
       height="6"
       width="6"
       patternUnits="userSpaceOnUse"
       id="EMFhbasepattern-8" />
    <pattern
       y="0"
       x="0"
       height="6"
       width="6"
       patternUnits="userSpaceOnUse"
       id="EMFhbasepattern-4" />
  </defs>
  <sodipodi:namedview
     id="base"
     pagecolor="#ffffff"
     bordercolor="#666666"
     borderopacity="1.0"
     inkscape:pageopacity="0.0"
     inkscape:pageshadow="2"
     inkscape:zoom="1.4"
     inkscape:cx="137.54641"
     inkscape:cy="81.69205"
     inkscape:document-units="px"
     inkscape:current-layer="layer1"
     showgrid="false"
     fit-margin-top="0"
     fit-margin-left="0"
     fit-margin-right="0"
     fit-margin-bottom="0"
     units="px"
     inkscape:window-width="1440"
     inkscape:window-height="837"
     inkscape:window-x="1432"
     inkscape:window-y="-8"
     inkscape:window-maximized="1" />
  <metadata
     id="metadata7">
    <rdf:RDF>
      <cc:Work
         rdf:about="">
        <dc:format>image/svg+xml</dc:format>
        <dc:type
           rdf:resource="http://purl.org/dc/dcmitype/StillImage" />
        <dc:title></dc:title>
      </cc:Work>
    </rdf:RDF>
  </metadata>
  <g
     inkscape:label="Layer 1"
     inkscape:groupmode="layer"
     id="layer1"
     transform="translate(536.30539,-546.064)">
    <g
       id="g4384">
      <path
         style="fill:#ffffff;fill-opacity:1;fill-rule:nonzero;stroke:none"
         d="m -444.72335,546.06403 c -0.66016,0 -1.3392,0.0566 -2.01823,0.20748 -4.54552,0.99968 -6.16765,3.92329 -6.92214,5.26247 -0.75447,1.3392 -1.03741,2.20686 -1.35807,3.14994 -0.33951,0.96197 -0.60358,1.96166 -0.88651,2.96134 -0.3018,-0.15089 -0.56586,-0.35837 -0.84879,-0.49041 -2.47093,-1.03741 -4.64007,-0.90538 -6.14904,-0.60358 l 0,0 c -3.0368,0.62245 -4.41372,1.81073 -5.71521,2.94246 -3.01793,2.64066 -4.05535,4.90411 -5.39455,7.5825 -1.2449,2.47091 -2.3011,5.14924 -3.11216,7.95969 -1.01855,-0.47156 -1.81074,-0.52814 -2.48978,-0.64131 -1.22603,-0.22635 -2.24458,-0.26407 -3.54604,-0.0755 -2.82928,0.3961 -5.62087,2.48979 -6.7337,3.84787 -1.11287,1.35806 -1.49011,2.24458 -1.92394,3.11223 -1.92391,3.82901 -3.7158,8.60111 -4.77205,12.71305 -0.75449,2.92361 -1.18831,5.97902 -1.43352,8.84605 -0.13204,1.43352 -0.20748,2.77273 -0.18862,4.14966 0.0377,1.35807 -0.82992,1.90507 1.28262,5.96042 -4.58345,8.29931 -5.03614,18.25823 -2.58409,27.93447 0.99968,3.94217 2.79157,7.99753 5.92265,10.92114 0.62245,0.58473 1.47122,1.47125 3.26311,2.39549 -0.86765,1.54668 -1.60328,3.1311 -2.15027,4.79096 -1.49008,4.39486 -1.92391,6.65806 -1.92391,11.50561 0,5.84725 2.5275,11.31725 6.35647,15.50463 4.65891,5.0739 10.9022,8.58224 17.63588,9.61965 4.90415,0.75449 8.52566,0.50928 13.09028,-0.45269 2.52752,-0.52813 4.75325,-1.30148 7.35596,-2.20686 14.16542,-4.94186 19.86176,-5.5643 24.44525,-4.60234 7.5071,1.58441 15.9382,2.33889 22.82285,1.58441 10.27983,-1.11286 19.61656,-5.69635 25.14289,-13.78818 3.67811,-5.37569 5.41342,-11.48674 5.82839,-17.56033 0.41495,-6.07359 -0.28294,-12.27921 -4.2817,-17.88124 -2.05596,-2.90477 -4.2251,-5.13048 -6.82782,-7.11101 0.20749,-0.2452 0.43383,-0.49041 0.62245,-0.73562 1.28237,-1.84848 1.8671,-3.48923 2.35751,-5.01706 2.15027,-6.7149 0.77335,-14.03338 -2.52727,-22.29497 -1.79189,-4.5269 -4.41372,-8.78947 -7.95979,-11.90171 0.13204,-2.28232 -0.37724,-3.48949 -0.71676,-4.41373 -0.75448,-2.11255 -1.52782,-3.48949 -2.82931,-5.97928 0.0189,0.0189 -1.24489,-2.5841 -2.15027,-4.58348 -1.11287,-2.43321 -2.2446,-4.7721 -3.5838,-6.90352 l 0,0 c -0.58473,-0.92417 -1.52783,-2.60289 -1.37693,-2.30109 -0.98083,-1.92391 -2.15028,-3.41401 -3.62152,-4.73433 -1.47124,-1.33921 -2.69728,-3.05566 -7.43165,-3.33859 l -0.0189,0 c -1.49011,-0.0754 -3.54608,0.60358 -5.43203,1.71645 -0.73562,-1.32035 -1.54669,-2.75384 -2.64069,-4.5646 -2.09369,-3.48945 -4.30055,-6.46964 -10.99659,-5.80947 -0.98082,0.0943 -2.13141,0.41497 -3.26314,0.92424 -0.20748,-0.88651 -0.26406,-1.98051 -2.64068,-4.35711 l 0,0 c -0.54701,-0.547 -1.26376,-1.26374 -2.75387,-2.05594 -1.11286,-0.60359 -2.92362,-1.18831 -4.923,-1.18831 z"
         id="path4367"
         inkscape:connector-curvature="0" />
      <path
         style="fill:#7f411c;fill-opacity:1;fill-rule:nonzero;stroke:none"
         d="m -468.942,686.13277 c -4.65892,-0.71676 -8.58216,-2.8859 -12.01503,-6.63945 -2.52749,-2.735 -3.84784,-5.84724 -3.84784,-8.99721 0,-1.73531 0.8488,-6.71465 1.41466,-8.43109 1.15056,-3.37632 3.13108,-6.33765 6.29988,-9.35559 2.88582,-2.79159 5.39447,-4.64007 12.31686,-9.07266 10.18552,-6.52627 16.01365,-10.46845 18.57888,-12.54327 5.24367,-4.22486 7.05442,-5.07365 11.05318,-5.11137 3.03679,-0.0377 6.50742,0.82993 8.28045,2.05596 2.64069,1.81076 6.50742,3.03654 16.78699,5.31885 10.5439,2.32004 14.75014,3.69697 18.93752,6.20562 2.3389,1.41466 5.7718,4.56463 7.29962,6.71491 4.01738,5.65862 3.24403,17.31538 -1.65986,24.44498 -3.71583,5.45115 -9.97803,8.77087 -18.23962,9.65739 -4.923,0.547 -13.39182,-0.0566 -19.80493,-1.41465 -7.09214,-1.49011 -14.90104,-0.20749 -29.59434,4.923 -2.30117,0.81106 -5.07389,1.641 -6.16789,1.86734 -2.43321,0.52813 -7.45052,0.71676 -9.63853,0.37724 z m -18.08857,-41.34541 c -1.47124,-1.37693 -2.41431,-3.22541 -3.1688,-6.2622 -2.11256,-8.33679 -1.16945,-16.88131 2.48977,-22.38903 1.05627,-1.56556 2.09366,-2.16914 3.77239,-2.16914 1.45238,0 2.30114,0.75448 2.50862,2.18799 0.41497,2.81046 1.03742,4.50805 3.28199,8.94063 2.5463,4.97958 3.14988,6.75237 3.14988,8.99696 -0.0189,1.96165 -0.67904,3.64038 -2.39541,6.03586 -3.14993,4.39486 -4.88525,5.79065 -7.24298,5.79065 -1.07511,0 -1.32032,-0.13203 -2.39546,-1.13172 z m 19.65413,-12.56214 c -1.2449,-0.547 -3.05565,-2.52726 -3.77242,-4.07396 -1.22603,-2.67841 -1.37692,-3.6781 -1.50896,-9.56307 -0.11317,-5.28137 -0.0943,-5.73406 0.547,-9.03493 1.28262,-6.62059 3.1311,-11.35496 4.90414,-12.52442 0.56586,-0.37699 1.3392,-0.73537 1.71644,-0.81081 1.35807,-0.26408 4.31942,1.22578 5.35684,2.71589 0.73562,1.01855 5.09276,13.92021 5.84723,17.31538 0.35839,1.58441 0.73562,3.84786 0.82994,5.03617 0.2452,3.30086 -0.32066,4.1308 -4.33828,6.46969 -1.03741,0.60359 -2.24459,1.56556 -2.81045,2.24459 -1.75417,2.09343 -4.82869,3.11198 -6.77148,2.22547 z m 72.1092,-3.37606 c -0.20748,-0.0755 -1.75417,-0.98083 -3.45176,-1.99938 -1.67872,-0.99969 -3.79128,-2.16913 -4.69666,-2.56524 -0.90538,-0.41497 -1.79189,-0.99969 -1.96165,-1.32034 -0.20749,-0.37724 -0.35838,-2.50866 -0.49042,-6.4697 -0.0755,-3.26313 -0.30179,-7.2053 -0.49041,-8.77086 -0.6979,-6.33766 0.88651,-9.63851 4.47031,-9.26128 4.2251,0.43383 8.05411,4.28169 10.58162,10.65708 3.01794,7.54482 3.62152,11.69448 2.30117,15.78755 -0.69789,2.188 -1.3392,3.11224 -2.56523,3.65924 -1.03742,0.47156 -2.96135,0.62245 -3.69697,0.28293 z m -19.50338,-6.75262 c -0.26408,-0.0755 -1.67847,-0.50928 -3.13086,-0.96197 -1.45238,-0.47154 -3.14996,-0.92423 -3.77241,-0.99969 -1.90507,-0.26406 -4.376,-0.90537 -4.97959,-1.28261 -0.52814,-0.33952 -0.56586,-0.54701 -0.56586,-3.05566 0,-1.58441 -0.26407,-4.35714 -0.62245,-6.73376 -0.96196,-6.26221 -0.7922,-9.24242 0.73562,-12.58075 0.6979,-1.50897 1.9428,-2.99907 2.99907,-3.54607 1.67872,-0.88652 5.56432,0.22634 7.54483,2.13141 1.75392,1.69759 4.37575,7.26165 5.62065,11.86399 0.47155,1.81076 0.67903,3.24428 0.77334,5.84725 0.18862,5.3191 -0.49041,7.69572 -2.5841,8.9972 -0.81107,0.50928 -1.07514,0.547 -2.01824,0.32066 z m -33.744,-1.69759 c -0.92424,-0.77334 -2.1123,-3.45176 -2.84792,-6.46968 -0.75448,-3.05566 -0.94311,-8.73315 -0.3961,-11.48701 0.56586,-2.81045 1.24489,-4.52689 2.5084,-6.39399 1.41465,-2.09369 2.3389,-2.69727 4.22511,-2.69727 0.96196,0 1.81076,0.16975 2.41434,0.47154 1.35807,0.6979 3.5838,3.14997 4.71552,5.18682 2.26345,4.05535 5.20593,11.69449 6.017,15.63666 0.37724,1.82963 0.30179,2.52752 -0.41496,4.03649 -0.37725,0.77334 -0.64132,0.81106 -2.75387,0.547 -2.33889,-0.3018 -5.8661,0.0755 -9.03493,0.9431 -3.50835,0.98083 -3.56493,0.98083 -4.43259,0.22634 z m -39.8363,-11.75107 c -0.62245,-1.16944 -0.0189,-8.03524 1.05628,-12.24124 0.77335,-2.99907 2.65953,-7.99751 4.07419,-10.84568 0.60358,-1.2449 0.96193,-1.65987 1.39576,-1.71646 0.33952,-0.0566 0.6979,0.0189 0.82994,0.15091 0.15089,0.13203 -0.0189,2.47093 -0.41497,6.11131 -0.37724,3.282 -0.73562,8.29906 -0.82993,11.31699 -0.1886,5.62089 -0.30177,6.26221 -1.2826,6.26221 -0.2452,0 -0.67903,-0.33952 -0.99969,-0.77335 -0.82993,-1.11286 -1.56553,-0.92424 -2.03707,0.52814 -0.20749,0.62245 -0.47156,1.28262 -0.58473,1.45238 -0.32065,0.47155 -0.88652,0.35838 -1.20718,-0.24521 z m 87.16099,-14.80647 c -0.26407,-0.0943 -0.99969,-0.71677 -1.62214,-1.33921 -1.39579,-1.45238 -2.07483,-1.50897 -2.81045,-0.26407 -0.71675,1.18831 -1.41465,1.094 -1.90507,-0.26407 -0.18862,-0.56586 -1.07513,-3.62151 -1.94279,-6.79034 -0.88652,-3.1877 -2.11256,-7.20532 -2.75386,-8.92177 -1.11287,-3.01792 -1.32035,-4.05534 -0.9997,-4.88527 0.41497,-1.11279 2.58411,0.35837 3.67811,2.48979 0.28293,0.547 1.07514,1.90507 1.77303,3.01793 0.6979,1.094 2.03711,3.69697 2.99907,5.77179 0.9431,2.07484 1.99939,4.33829 2.35776,5.03618 2.54638,4.86641 2.86704,5.77179 2.18801,6.13017 -0.24521,0.11318 -0.67904,0.13204 -0.96197,0.0189 z m -68.69517,-1.88621 c -0.43382,-1.15059 0.66017,-9.41218 1.81076,-13.65614 1.26376,-4.69666 3.86673,-9.88365 5.79066,-11.58122 0.9431,-0.82992 1.81076,-0.99968 2.0371,-0.41496 0.0755,0.20748 -0.0943,2.03708 -0.3961,4.09305 -0.62245,4.54568 -0.94311,8.4124 -1.15059,14.0333 -0.18862,5.11163 -0.22634,5.31911 -0.9431,5.56432 -0.75448,0.2452 -1.16945,0.15089 -2.07483,-0.50928 -1.56555,-1.16945 -2.13141,-0.99969 -2.77273,0.82993 -0.20748,0.62245 -0.56586,1.3392 -0.7922,1.58441 -0.50928,0.547 -1.30149,0.58473 -1.50897,0.0566 z m 43.87294,-3.90445 c -0.6036,-0.35838 -0.86766,-1.65987 -1.05629,-5.26252 -0.20748,-4.07421 -0.6413,-6.67717 -2.30117,-13.6372 -0.75448,-3.13108 -1.35806,-5.92264 -1.35806,-6.18671 0,-1.11286 1.56554,-0.75448 2.3389,0.52814 3.5272,5.86605 3.9233,6.63939 6.50741,12.97698 2.32004,5.69634 2.77272,7.28076 2.65955,9.43103 -0.0566,1.35807 -0.13204,1.5467 -0.60359,1.62214 -0.35837,0.0566 -0.86765,-0.26407 -1.54668,-0.92424 -1.13173,-1.15059 -1.79191,-1.16945 -2.3389,-0.0755 -0.43383,0.88652 -1.26377,1.81076 -1.60328,1.7919 -0.13203,0 -0.45269,-0.11317 -0.69789,-0.26407 z m -23.84167,-1.11286 c -0.33926,-0.41497 -0.3204,-0.92424 0.52815,-10.31756 0.81106,-8.92166 1.7353,-14.08984 3.3763,-18.76758 0.79221,-2.28231 1.22603,-2.64069 2.11256,-1.75417 0.81106,0.81106 1.47124,8.78965 1.69758,20.95558 0.18862,8.63883 0.1509,8.99721 -0.90537,8.99721 -0.6979,0 -1.2449,-0.81107 -1.5467,-2.33889 -0.60358,-2.98022 -1.82962,-2.45208 -2.75386,1.15058 -0.32066,1.24489 -1.20717,2.45207 -1.82962,2.45207 -0.18862,0 -0.49041,-0.16976 -0.67904,-0.37724 z"
         id="path4369"
         inkscape:connector-curvature="0" />
    </g>
  </g>
</svg>
