<?xml version="1.0" encoding="UTF-8" standalone="no"?>
<!-- Created with Inkscape (http://www.inkscape.org/) -->

<svg
   xmlns:dc="http://purl.org/dc/elements/1.1/"
   xmlns:cc="http://creativecommons.org/ns#"
   xmlns:rdf="http://www.w3.org/1999/02/22-rdf-syntax-ns#"
   xmlns:svg="http://www.w3.org/2000/svg"
   xmlns="http://www.w3.org/2000/svg"
   xmlns:sodipodi="http://sodipodi.sourceforge.net/DTD/sodipodi-0.dtd"
   xmlns:inkscape="http://www.inkscape.org/namespaces/inkscape"
   width="200"
   height="150"
   viewBox="0 0 200 150"
   id="svg2"
   version="1.1"
   inkscape:version="0.91 r13725"
   sodipodi:docname="Heat.svg">
  <defs
     id="defs4">
    <pattern
       y="0"
       x="0"
       height="6"
       width="6"
       patternUnits="userSpaceOnUse"
       id="EMFhbasepattern" />
    <pattern
       y="0"
       x="0"
       height="6"
       width="6"
       patternUnits="userSpaceOnUse"
       id="EMFhbasepattern-5" />
    <pattern
       y="0"
       x="0"
       height="6"
       width="6"
       patternUnits="userSpaceOnUse"
       id="EMFhbasepattern-52" />
    <pattern
       y="0"
       x="0"
       height="6"
       width="6"
       patternUnits="userSpaceOnUse"
       id="EMFhbasepattern-2" />
    <pattern
       y="0"
       x="0"
       height="6"
       width="6"
       patternUnits="userSpaceOnUse"
       id="EMFhbasepattern-1" />
    <pattern
       y="0"
       x="0"
       height="6"
       width="6"
       patternUnits="userSpaceOnUse"
       id="EMFhbasepattern-8" />
    <pattern
       y="0"
       x="0"
       height="6"
       width="6"
       patternUnits="userSpaceOnUse"
       id="EMFhbasepattern-4" />
    <inkscape:path-effect
       effect="spiro"
       id="path-effect5209"
       is_visible="true" />
    <inkscape:path-effect
       effect="spiro"
       id="path-effect5205"
       is_visible="true" />
  </defs>
  <sodipodi:namedview
     id="base"
     pagecolor="#ffffff"
     bordercolor="#666666"
     borderopacity="1.0"
     inkscape:pageopacity="0.0"
     inkscape:pageshadow="2"
     inkscape:zoom="1.4"
     inkscape:cx="95.371394"
     inkscape:cy="79.956789"
     inkscape:document-units="px"
     inkscape:current-layer="layer1"
     showgrid="false"
     fit-margin-top="0"
     fit-margin-left="0"
     fit-margin-right="0"
     fit-margin-bottom="0"
     units="px"
     inkscape:window-width="1440"
     inkscape:window-height="837"
     inkscape:window-x="1432"
     inkscape:window-y="-8"
     inkscape:window-maximized="1" />
  <metadata
     id="metadata7">
    <rdf:RDF>
      <cc:Work
         rdf:about="">
        <dc:format>image/svg+xml</dc:format>
        <dc:type
           rdf:resource="http://purl.org/dc/dcmitype/StillImage" />
        <dc:title />
      </cc:Work>
    </rdf:RDF>
  </metadata>
  <g
     inkscape:label="Layer 1"
     inkscape:groupmode="layer"
     id="layer1"
     transform="translate(536.30539,-546.064)">
    <path
       inkscape:connector-curvature="0"
       style="fill:#ffffff;fill-opacity:1"
       d="m -494.8169,578.51298 c -2.88002,-0.012 -5.75685,0.005 -7.95501,0.0539 -1.09907,0.0246 -2.02392,0.0563 -2.72641,0.10015 -0.35125,0.0219 -0.63925,0.0446 -0.92131,0.0826 -0.14103,0.0189 -0.27087,0.0361 -0.48773,0.0925 -0.10843,0.0282 -0.23173,0.0568 -0.47558,0.16868 -0.13231,0.0607 -0.29412,-0.003 -0.5877,0.21203 -0.13978,-0.0718 -0.32358,-0.19197 -0.42559,-0.2296 -0.38508,-0.14205 -0.62162,-0.17461 -0.89041,-0.21318 -0.53757,-0.0771 -1.14896,-0.11263 -2.04603,-0.14408 -1.79413,-0.0629 -4.67164,-0.0835 -9.33939,-0.0878 -3.16629,-0.003 -6.06523,0.0168 -8.19905,0.0515 -1.0669,0.0174 -1.93987,0.0386 -2.57645,0.0633 -0.31829,0.0123 -0.57333,0.0246 -0.79425,0.0416 -0.11047,0.008 -0.20629,0.0165 -0.34541,0.0369 -0.0696,0.0102 -0.14379,0.0192 -0.2968,0.0586 -0.15301,0.0393 0.0234,-0.63727 -1.43993,0.88847 a 3.7715769,6.3631873 0 0 0 -3.5e-4,0 c -1.35156,1.40948 -1.42005,2.55649 -1.56629,3.17903 -0.14624,0.62252 -0.18876,0.98634 -0.22772,1.30897 -0.0779,0.64524 -0.10129,1.09255 -0.12462,1.58891 -0.0467,0.99276 -0.0621,2.08999 -0.0621,3.42561 0,1.68418 -0.01,2.6806 0.0774,3.94156 0.0435,0.63046 0.0778,1.38168 0.42282,2.61151 0.34499,1.2298 1.34665,2.90639 2.2012,3.45955 l 0,0 c 1.24445,0.80576 1.03261,0.42791 1.2667,0.4662 0.23409,0.0383 0.46363,0.0634 0.72135,0.0861 0.51546,0.0455 1.12747,0.0756 1.77249,0.0855 l -1.55587,-0.024 0.0243,8.41959 c 0.0116,3.98309 0.005,7.63663 -0.0128,10.31369 -0.48293,0.20343 -0.97089,0.40667 -1.38196,0.62842 -0.28127,0.1517 -0.5357,0.29696 -0.8432,0.51715 -0.15375,0.11008 -0.31658,0.22771 -0.57069,0.47555 -0.25411,0.24784 -0.62328,0.20367 -1.37467,2.20565 -0.56056,1.4934 -0.48122,1.82973 -0.53008,2.20561 -0.0489,0.37591 -0.0685,0.62351 -0.0864,0.86211 -0.0359,0.47726 -0.0536,0.89041 -0.0698,1.34237 -0.0324,0.90387 -0.0492,1.91582 -0.0548,2.93539 -0.006,1.01956 -8e-5,2.01904 0.0229,2.91137 0.0115,0.44614 0.0243,0.84859 0.059,1.34762 0.0174,0.24952 0.0345,0.50947 0.0972,0.96637 0.0627,0.45687 -0.30337,0.93206 1.03829,3.1954 1.43204,2.41642 1.79158,2.06333 3.00725,2.06333 0.68007,0 0.60763,-0.0773 0.71649,-0.10837 0.10886,-0.031 0.19425,-0.0592 0.28709,-0.0908 0.18566,-0.0631 0.39139,-0.13868 0.63387,-0.23017 0.48496,-0.18295 1.10529,-0.42722 1.79054,-0.70339 1.3705,-0.55232 2.98491,-1.22587 4.18162,-1.75702 0.53538,-0.23761 2.52729,-1.01765 4.0983,-1.58715 1.62647,-0.58959 3.65229,-1.33895 4.57806,-1.69495 0.80698,-0.31026 2.86035,-1.05402 4.44232,-1.60648 0.86867,-0.30338 1.66841,-0.62126 2.33068,-0.92595 0.33113,-0.15233 0.61887,-0.29333 0.93345,-0.48023 0.15729,-0.0935 0.31436,-0.1864 0.56653,-0.3889 0.16681,-0.13398 0.3835,0.0228 0.81022,-0.63487 0.72452,0.37249 1.11745,0.35108 1.45867,0.34964 0.39346,-0.003 0.72904,-0.048 1.07092,-0.10777 0.68376,-0.11952 1.37685,-0.30811 2.04707,-0.50836 0.67022,-0.20024 1.30783,-0.41336 1.80095,-0.58272 0.49313,-0.16939 1.09028,-0.36119 0.79217,-0.27587 -0.33101,0.0948 0.95494,-0.22487 2.09671,-0.48668 1.14178,-0.26181 2.50451,-0.57352 3.54671,-0.81995 1.89055,-0.44701 4.76735,-0.89659 6.5307,-1.27208 1.99725,-0.42527 2.95209,-0.60515 3.8022,-0.88025 0.85011,-0.27509 2.36864,-1.68286 2.61534,-2.0352 0.36995,-0.52839 0.73754,-1.26393 1.04627,-2.06801 0.40459,0.6543 0.76873,1.06641 1.02128,1.30252 1.3951,1.30455 1.28421,0.7481 1.47499,0.78657 0.19077,0.0385 0.31458,0.0501 0.44294,0.0615 0.25672,0.0228 0.50803,0.0308 0.79738,0.0357 0.5787,0.01 1.28483,-1.5e-4 2.02694,-0.0222 1.48421,-0.0442 2.9705,-0.11478 3.91953,-0.24774 0.83939,-0.11758 7.06509,-0.73761 8.92942,-0.71863 a 3.7715769,6.3631873 0 0 0 0.20169,-0.007 c 5.06356,-0.40572 17.59013,-1.14806 22.55874,-1.33709 1.56888,-0.0597 2.66804,-0.12283 3.50331,-0.22373 0.41764,-0.0505 0.75474,-0.0979 1.17958,-0.22664 0.21242,-0.0644 0.4409,-0.1311 0.82653,-0.36781 0.19202,-0.11788 0.46671,-0.1992 0.80259,-0.53882 0.20006,0.24561 0.37658,0.43315 0.49293,0.52242 1.09296,0.83845 1.06242,0.54401 1.30003,0.59795 0.23762,0.054 0.45401,0.0882 0.70539,0.12244 0.50275,0.0684 1.12691,0.12834 1.91377,0.18915 1.57371,0.12166 3.77907,0.24109 6.59492,0.35843 3.56526,0.14858 5.72249,0.22328 7.10035,0.21728 0.68894,-0.003 1.16415,-0.0153 1.67182,-0.0943 0.25383,-0.0396 0.50648,-0.0729 0.94907,-0.27761 0.36494,-0.16882 1.05709,-0.35615 1.81796,-1.80035 0.42189,0.87575 1.06376,1.80836 1.6194,2.23374 0.64244,0.49184 1.10095,0.61898 1.5347,0.7356 0.86749,0.23326 1.7595,0.32331 3.30926,0.48844 1.46717,0.15635 4.54367,0.59373 7.22567,1.0103 1.341,0.20829 2.59403,0.41214 3.51199,0.57337 0.45898,0.0806 0.83672,0.15155 1.0789,0.20148 0.0223,0.005 0.0227,0.005 0.0427,0.009 -0.10973,-0.0562 -0.12575,-0.043 -0.49364,-0.29165 l -0.002,0 c 0.319,0.21584 0.43611,0.24907 0.58736,0.31333 0.03,0.007 0.0885,0.0189 0.0968,0.021 0.004,0 0.0196,0.03 0.043,0.0533 0.20787,0.0683 0.32248,0.0598 0.43497,0.0791 0.19542,0.0335 0.34521,0.0456 0.49987,0.0544 0.30921,0.0177 0.62032,0.0147 0.95392,-0.007 l 0.88868,-0.058 a 3.7715769,6.3631873 0 0 0 3.62343,-6.1507 l 0.0521,-2.6935 c 0.0331,-1.71603 0.49409,-3.30056 -0.7859,-6.59405 -0.64001,-1.64673 -1.87816,-2.81365 -2.66151,-3.14155 -0.39816,-0.16664 -0.71262,-0.23705 -0.98171,-0.26706 -0.29071,-0.55022 -0.60174,-1.14104 -0.95186,-1.84779 -1.0023,-2.0233 -2.42787,-4.80819 -3.28461,-6.41309 -0.76841,-1.43946 -2.04615,-3.876 -2.78647,-5.31322 -0.13268,-0.25755 -0.25042,-0.47273 -0.38185,-0.72387 0.008,-0.23314 0.009,-0.45432 0.0382,-0.64542 0.13781,-0.90028 0.19068,-1.63576 0.22564,-2.40182 0.0699,-1.53218 0.28084,-2.59184 -0.35547,-5.37061 a 3.7715769,6.3631873 0 0 0 -3.5e-4,-0.003 l -0.18954,-0.82699 a 3.7715769,6.3631873 0 0 0 -3.53456,-4.06807 l -10.17912,0.0773 -10.17912,0.0773 a 3.7715769,6.3631873 0 0 0 -3.75116,6.10561 l -0.0528,2.20211 c -0.0336,1.409 -0.29905,2.8762 0.52175,5.46198 -1.39849,2.5471 -3.09954,5.66532 -3.93932,7.22953 -1.27587,2.37645 -1.70346,3.09558 -1.90127,3.45368 -0.26807,0.0174 -0.564,0.0583 -0.9463,0.18156 -0.0189,0.006 -0.045,0.0219 -0.0646,0.0288 -0.0769,-0.28649 -0.11682,-0.54311 -0.23258,-0.85506 -0.47573,-1.2821 -1.28128,-2.21692 -1.60933,-2.51312 -0.41723,-0.37675 -0.65964,-0.53016 -0.82445,-0.59973 0.10488,-0.0535 0.14174,-0.0523 0.30826,-0.15638 0.1998,-0.12489 1.01018,-0.58374 1.73534,-1.96141 0.72515,-1.37766 0.93931,-2.87967 1.02162,-3.73132 0.16463,-1.70328 0.10414,-2.51954 0.10414,-4.41126 0,-1.32581 -0.016,-2.42307 -0.0621,-3.41211 -0.0231,-0.49454 -0.046,-0.93942 -0.1215,-1.57606 -0.0378,-0.3183 -0.0784,-0.67517 -0.22043,-1.29199 -0.14205,-0.61679 -0.18003,-1.76424 -1.57497,-3.21882 a 3.7715769,6.3631873 0 0 0 -3.5e-4,0 c -1.45229,-1.51425 -1.27856,-0.84478 -1.42535,-0.88262 -0.14679,-0.0378 -0.2122,-0.0453 -0.27042,-0.0539 -0.11645,-0.0171 -0.17957,-0.0216 -0.2489,-0.027 -0.13865,-0.0108 -0.27655,-0.0177 -0.44885,-0.0246 -0.34459,-0.0138 -0.81031,-0.0252 -1.40348,-0.0363 -1.18632,-0.0225 -2.87104,-0.0417 -4.94081,-0.0568 -4.13953,-0.0301 -9.81381,-0.0443 -16.03255,-0.0351 -8.90164,0.0132 -14.55947,0.0415 -18.03623,0.10366 -1.73839,0.0311 -2.9243,0.0692 -3.74805,0.12417 -0.41188,0.0276 -0.72151,0.0539 -1.05113,0.11068 -0.16481,0.0285 -0.32147,0.0518 -0.61825,0.16049 -0.1484,0.0544 -0.32698,0.11383 -0.662,0.34142 -0.0559,0.038 -0.16606,0.13224 -0.23813,0.17279 -0.47533,-0.51544 -0.68564,-0.39567 -0.85188,-0.47322 -0.24247,-0.11314 -0.36535,-0.14318 -0.4735,-0.17218 -0.21628,-0.058 -0.34606,-0.0759 -0.48703,-0.096 -0.28194,-0.0403 -0.57035,-0.0654 -0.92165,-0.0902 -0.7026,-0.0497 -1.62722,-0.0888 -2.72642,-0.1224 -2.1984,-0.0673 -5.07533,-0.10813 -7.95535,-0.12006 z m 132.2789,0.0902 c -6.08023,0 -11.639,0.0207 -15.70311,0.0539 -2.03207,0.0165 -3.68899,0.0359 -4.85924,0.058 -0.58512,0.0111 -1.04645,0.0228 -1.38717,0.0357 -0.17036,0.006 -0.30714,0.0123 -0.43982,0.0216 -0.0663,0.005 -0.12742,0.009 -0.22771,0.0222 -0.0502,0.007 -0.10664,0.0135 -0.21835,0.0375 -0.11172,0.024 -0.0975,-0.13626 -0.88867,0.376 -0.93865,0.60806 -1.97401,2.53474 -2.27723,3.7682 -0.30328,1.23367 -0.31924,1.92554 -0.35582,2.56758 -0.0731,1.28414 -0.068,2.47525 -0.068,4.54131 0,2.14193 -0.0117,3.31056 0.0722,4.6678 0.042,0.67862 0.0775,1.48849 0.42629,2.75205 0.34877,1.2636 1.27811,2.75728 1.84677,3.25517 0.7778,0.68099 0.89353,0.565 1.06189,0.62141 0.16837,0.0564 0.27343,0.0795 0.37353,0.10072 0.20017,0.0425 0.36608,0.0658 0.55473,0.0896 0.37726,0.0476 0.82295,0.0869 1.35174,0.12357 1.05761,0.0734 2.42841,0.13282 3.90115,0.1646 l 5.24317,0.11302 a 3.7715769,6.3631873 0 0 0 0.76612,-0.11713 c -0.003,1.05648 0.007,1.07408 0.002,2.40886 l -0.0205,5.28099 c -0.15324,-1.8e-4 -0.28217,-0.0186 -0.46691,0.003 -0.3729,0.041 -0.87161,0.1213 -1.53468,0.61202 -0.66309,0.49073 -1.42493,1.59369 -1.80998,2.6197 -0.68637,1.82899 -0.53878,2.16534 -0.59013,2.64842 -0.0514,0.48311 -0.0735,0.85518 -0.0927,1.23517 -0.0384,0.76 -0.0529,1.51476 -0.0552,2.28529 -0.002,0.77053 0.007,1.52475 0.0413,2.28529 0.0169,0.38026 0.037,0.75236 0.0861,1.23927 0.0491,0.48689 -0.11599,0.81608 0.59672,2.7093 l 0,0 c 0.68112,1.80938 1.07887,1.89778 1.32781,2.14063 0.24893,0.24289 0.39439,0.342 0.51932,0.42872 0.24984,0.17344 0.40594,0.25296 0.56861,0.33618 0.3253,0.16642 0.64247,0.30139 1.01399,0.44919 0.74304,0.29564 1.66782,0.61634 2.67643,0.92538 3.82483,1.17187 7.87506,2.45999 11.15874,3.53863 3.28367,1.07861 6.00568,2.04384 6.42829,2.22729 0.87961,0.38179 1.28323,0.46083 2.22065,0.37073 l 0.53182,-0.0509 a 3.7715769,6.3631873 0 0 0 3.55711,-6.19932 l 0.0496,-3.47829 0,0 c 0.0211,-1.46999 0.038,-2.43747 -0.0288,-3.62238 -0.0669,-1.185 -0.36361,-3.61816 -1.55066,-5.28039 -1.11982,-1.56813 -1.18707,-1.16944 -1.45903,-1.32363 -0.27195,-0.15419 -0.50894,-0.26304 -0.76578,-0.37249 -0.27485,-0.11712 -0.6013,-0.21263 -0.90602,-0.318 -0.013,-1.94548 -0.0213,-4.05859 -0.006,-8.62401 l 0.008,-2.19509 c 0.21744,0.0853 0.37987,0.13311 0.55299,0.18037 0.35577,0.0972 0.74115,0.1806 1.19067,0.26882 0.89907,0.17644 2.02749,0.36017 3.19889,0.5283 2.34279,0.33624 4.31625,0.68561 6.00547,0.53763 l 0.97754,-0.0855 a 3.7715769,6.3631873 0 0 0 3.57552,-6.27722 l 0.0479,-6.70888 c 0.0171,-2.39546 0.016,-4.15778 -0.0139,-5.52462 -0.0149,-0.68342 -0.033,-1.25208 -0.0826,-1.90695 -0.0248,-0.32742 -0.0529,-0.6702 -0.13296,-1.18482 -0.08,-0.5146 -0.0797,-1.19214 -0.7946,-2.64546 -1.04074,-2.11587 -1.601,-1.95088 -1.93389,-2.11251 -0.3329,-0.16165 -0.52183,-0.20267 -0.70088,-0.24424 -0.3581,-0.0831 -0.64834,-0.11319 -1.02752,-0.14525 -0.75837,-0.0641 -1.82137,-0.10258 -3.45889,-0.13293 -3.27502,-0.0607 -8.80541,-0.0773 -18.07546,-0.0773 z m -35.73921,9.94351 c 0.0229,-0.003 0.0698,0.11091 0.12254,0.30574 -0.0267,-0.0781 -0.18824,-0.37459 -0.12636,-0.21087 -0.0188,-0.0496 -0.0148,-0.0934 0.004,-0.0949 z m 0.0531,0.23077 c 0.0546,0.0827 0.0699,0.0969 0.0729,0.0908 0.004,0.0147 0.008,0.0408 0.0118,0.0568 -0.0378,-0.0587 -0.0415,-0.0822 -0.0847,-0.14756 z m -85.70309,4.00246 c -2e-5,0.0249 -0.0541,0.26484 -0.0625,0.32505 0.006,-0.11575 0.0125,-0.26376 0.0139,-0.28523 0.001,-0.0171 0.0487,-0.13446 0.0486,-0.0398 z m -28.89505,2.2033 c 0.04,-0.0123 0.13045,0.003 0.22287,0.0222 -0.0395,0.003 -0.21732,0.0237 -0.24022,0.0234 -0.0416,0 -0.0349,-0.0297 0.0173,-0.0457 z m 157.59427,0.46794 c 0.0213,0.94835 0.0565,1.7874 0.1656,2.75206 0.0354,0.31293 0.045,0.67514 0.0757,1.0718 l -0.15516,0 -0.0861,-3.82386 z m -126.15123,0.63898 c 0.0219,0.0192 0.0469,0.0563 0.0684,0.0738 0.72571,0.58936 1.17476,0.65323 1.54788,0.72915 0.44781,0.0911 0.86253,0.11674 1.3108,0.12708 0.0128,1.28585 0.0304,1.85853 0.0389,3.97613 0.0102,2.53106 -0.002,3.70859 -0.0104,5.1217 -0.22121,0.12246 -0.46967,0.28781 -0.81126,0.63076 -0.36674,0.36821 -0.94937,1.10068 -1.38404,2.35321 -0.30511,-0.50989 -0.63398,-0.96577 -0.99524,-1.27676 -1.2689,-1.09225 -1.6463,-0.85458 -2.15503,-0.92534 -0.14426,-0.0201 -0.26022,-0.0102 -0.39748,-0.0216 0.004,-2.7068 0.0367,-5.82613 0.0448,-7.54342 0.002,-0.40299 0.0209,-1.28335 0.0316,-1.98776 0.40041,-0.0526 0.78276,-0.12727 1.2372,-0.287 0.37813,-0.13287 0.8933,-0.39156 1.47395,-0.96985 z m 22.03457,0.79826 c -0.26827,0.13872 0.11387,0.0745 0,0 z m 59.11234,0.11128 c -0.14405,0.0674 -0.25767,0.0153 -0.63075,0.0252 0.24975,-0.006 0.44706,-0.0108 0.63075,-0.0252 z m -105.14384,1.19241 c 0.41079,0.038 0.81145,0.0797 1.28961,0.0973 l -1.29829,-0.0475 c 7.1e-4,-0.008 0.008,-0.0404 0.009,-0.0498 z m 95.80618,0.65712 c 0.37869,0.40931 0.96376,1.15043 1.34377,3.09471 0.363,1.85727 0.22741,2.74738 0.0934,3.37521 -0.36623,0.33215 -0.69403,0.73472 -1.00843,1.23282 -0.13143,0.0171 -0.24227,0.0401 -0.40511,0.0463 -0.76068,-1.65839 -1.40583,-2.04606 -1.89919,-2.21851 0.005,-0.54593 0.0495,-1.18854 0.22633,-2.09787 0.43813,-2.25329 1.22372,-3.04215 1.64925,-3.43263 z m 19.79796,7.28692 c 0.009,0.003 0.0631,0.0518 0.0746,0.0568 -0.022,1.5e-4 -0.0508,-0.003 -0.0725,-0.003 0.0108,0 -0.0685,-0.01 -0.0642,-0.009 0.002,0 -0.0199,-0.0699 0.0621,-0.0457 z m 1.20699,1.05186 c 0.21378,0.24931 0.14519,0.25606 0.10485,0.18802 -0.0176,-0.0297 -0.0755,-0.13659 -0.10485,-0.18802 z m -89.88088,1.88177 c -0.008,0.23461 -0.0188,0.6149 -0.0205,0.63781 -0.002,0.0258 -0.0993,-0.0897 0.0205,-0.63781 z m -5.6764,1.92275 c 0.0395,0.25336 0.0187,0.32286 0.0205,0.34145 0.003,0.0332 -0.009,-0.11817 -0.0191,-0.30454 -5.4e-4,-0.0111 -8.9e-4,-0.0255 -0.001,-0.0369 z m -25.91765,0.46152 c -0.002,0.0183 0.0376,0.0578 0.0517,0.17044 -0.0209,0.006 -0.0417,0.0111 -0.0628,0.0177 0.004,-0.0553 0.0132,-0.20766 0.0111,-0.18802 z m -0.78453,0.5558 c 0.0215,-0.01 0.0156,0.003 0.0295,0 -0.0306,0.021 -0.0571,0.0294 -0.0882,0.0521 0.009,-0.005 0.0507,-0.0485 0.0587,-0.0521 z m -2.00611,0.38067 c 0.0429,0.006 0.12765,0.0826 0.18051,0.10367 -0.17204,0.03 -0.48308,0.0952 -0.51064,0.0966 -0.0284,0.003 0.0452,-0.24247 0.33013,-0.20031 z m 158.93909,1.72542 c 0.0192,0.009 0.1298,0.16396 0.15863,0.18741 -0.009,-0.004 -0.0281,-0.009 -0.0368,-0.0129 -0.13175,-0.056 -0.22823,-0.1069 -0.21106,-0.0972 0.009,0.005 -0.0163,-0.12831 0.0892,-0.0773 z m -59.69624,1.02667 c -0.13066,0.0418 -0.16565,0.007 -0.19266,0.0123 -0.30789,0.0368 -0.0574,-0.009 0.19266,-0.0123 z m -98.41527,0.34319 c -0.13921,0.0524 -0.23439,0.0524 -0.22113,0.0474 0.007,-0.003 0.18487,-0.0375 0.22113,-0.0474 z m 106.12763,0.16574 c 0.0274,0.004 0.14707,0.0282 0.17947,0.0357 -0.0178,-1.5e-4 -0.13744,-0.024 -0.17947,-0.0357 z m 54.03512,2.47387 c 0.0167,0.54584 0.0187,0.55991 0,0 z"
       id="path5640" />
    <path
       inkscape:connector-curvature="0"
       style="fill:#ba304b;fill-opacity:1"
       d="m -494.82245,582.3298 c -2.8711,-0.012 -5.74091,0.005 -7.9196,0.0533 -1.08935,0.0243 -2.00414,0.0561 -2.67262,0.0978 -0.33423,0.021 -0.60379,0.0434 -0.82514,0.0732 -0.11068,0.015 -0.20558,0.0291 -0.32284,0.0598 -0.0586,0.0153 -0.12011,0.0307 -0.22668,0.0796 -0.10657,0.0489 -0.23027,-0.11461 -0.69983,0.67763 -0.15325,0.25854 -0.22401,0.44551 -0.27806,0.61259 -0.005,-0.0126 -0.003,-0.0156 -0.008,-0.0288 -0.27769,-0.73896 -0.55296,-0.90589 -0.72066,-1.02902 -0.16769,-0.12315 -0.27972,-0.16609 -0.38358,-0.20441 -0.20773,-0.0766 -0.38117,-0.10756 -0.59882,-0.13881 -0.43528,-0.0624 -1.02515,-0.10045 -1.90162,-0.13119 -1.75293,-0.0614 -4.62938,-0.0823 -9.29357,-0.0867 -3.15989,-0.003 -6.05344,0.0165 -8.17578,0.0509 -1.06118,0.0174 -1.92855,0.0382 -2.54661,0.0621 -0.30903,0.012 -0.55419,0.0246 -0.74218,0.0392 -0.094,0.007 -0.1713,0.0141 -0.25445,0.0264 -0.0416,0.006 -0.0818,0.012 -0.151,0.03 -0.0692,0.0177 -0.004,-0.25126 -0.59118,0.36136 a 1.5092773,2.5463657 0 0 0 -3.5e-4,0 c -0.55001,0.57358 -0.58594,1.05498 -0.65262,1.33883 -0.0667,0.28385 -0.0915,0.47666 -0.11421,0.66474 -0.0454,0.37618 -0.0669,0.72054 -0.0861,1.12859 -0.0384,0.81611 -0.0548,1.8495 -0.0548,3.12398 0,1.65471 0.003,2.64138 0.0621,3.49995 0.0297,0.42931 0.0599,0.84807 0.22043,1.42027 0.16048,0.57205 0.58944,1.28473 0.96678,1.52918 0.52118,0.33744 0.49513,0.20076 0.67484,0.23015 0.1797,0.0294 0.38505,0.053 0.62103,0.0738 0.47196,0.0417 1.06006,0.0708 1.67493,0.0802 l 0.67484,0.0105 0.0354,12.18252 c 0.0117,4.02885 0.006,7.73657 -0.0132,10.44956 -0.008,1.18859 -0.0198,2.08713 -0.0323,2.82762 -0.34932,0.17359 -0.74745,0.36322 -1.21498,0.54407 -0.63649,0.24625 -1.22878,0.5158 -1.70792,0.77428 -0.23957,0.12921 -0.44743,0.25161 -0.64811,0.39531 -0.10034,0.0718 -0.19721,0.14489 -0.32249,0.26705 -0.12527,0.1222 -0.28855,0.12463 -0.59569,0.94296 -0.23112,0.61571 -0.20552,0.78408 -0.23119,0.98157 -0.0257,0.19749 -0.0395,0.35717 -0.0521,0.52476 -0.0252,0.33522 -0.0418,0.69113 -0.0562,1.09285 -0.0288,0.80349 -0.0453,1.77207 -0.0507,2.74036 -0.005,0.96829 5.3e-4,1.92489 0.0208,2.7099 0.0101,0.39252 0.0226,0.73529 0.0458,1.06886 0.0116,0.16676 0.0234,0.3255 0.0541,0.54935 0.0307,0.22385 -0.1096,0.44125 0.43393,1.35817 0.61237,1.03345 0.84807,0.94526 1.40799,0.94526 0.28086,0 0.26982,-0.0346 0.3395,-0.0544 0.0697,-0.0198 0.13798,-0.0422 0.21696,-0.0691 0.15796,-0.0537 0.35383,-0.12507 0.58736,-0.21317 0.46704,-0.1762 1.0805,-0.4178 1.75859,-0.6911 1.3562,-0.54656 2.96459,-1.21795 4.13164,-1.73594 0.65401,-0.29027 2.60247,-1.04895 4.19863,-1.62757 1.61835,-0.58662 3.65244,-1.33901 4.55063,-1.68439 0.85065,-0.32706 2.89121,-1.0658 4.4864,-1.62289 0.82869,-0.2894 1.59587,-0.59577 2.19391,-0.87089 0.29902,-0.13755 0.55235,-0.26385 0.77759,-0.39765 0.11262,-0.0669 0.21537,-0.13104 0.3454,-0.23546 0.13002,-0.10441 0.27465,0.13632 0.71476,-1.03428 l 0,0 c 0.37025,-0.98496 0.24548,-1.03753 0.2732,-1.32948 0.0139,-0.14684 0.0209,-0.30787 0.0309,-0.45975 0.0282,0.0963 0.0386,0.18538 0.0732,0.28346 0.23964,0.67847 0.68155,1.33652 1.17923,1.64517 0.45249,0.28061 0.6908,0.24067 0.96434,0.23953 0.27355,0 0.54896,-0.0358 0.8432,-0.0873 0.5885,-0.10288 1.24547,-0.27833 1.886,-0.4697 0.64053,-0.19138 1.2608,-0.39921 1.74402,-0.56519 0.48322,-0.16597 0.92881,-0.31692 0.86507,-0.29869 -0.0402,0.0114 1.02861,-0.24355 2.17065,-0.50542 1.14204,-0.2619 2.50328,-0.57379 3.53699,-0.81818 1.98984,-0.47048 4.88846,-0.92226 6.56159,-1.27852 1.99904,-0.42566 2.98373,-0.62363 3.65918,-0.8422 0.67546,-0.21857 1.35124,-0.87305 1.58017,-1.20005 0.44186,-0.6311 0.80924,-1.53983 0.96123,-2.42116 0.15198,-0.8813 0.13781,-1.58298 0.13781,-2.18924 0,-0.19585 0.0591,-0.83362 -0.0528,-1.77573 -0.11185,-0.94212 -0.58771,-2.25606 -1.28303,-2.85458 -0.5968,-0.51373 -0.91244,-0.46614 -1.31287,-0.52183 -0.40043,-0.0557 -0.81509,-0.0671 -1.20491,-0.0638 -0.65739,0.005 -1.06802,0.0512 -1.23755,0.0679 -0.01,-0.27857 -0.0234,-0.58356 -0.0278,-0.7848 -0.0631,-2.8885 0.0308,-8.39873 0.0413,-10.61762 0.004,-0.91453 0.0302,-2.68807 0.0673,-4.24787 0.0114,-0.47972 0.0251,-0.85068 0.0382,-1.25979 0.27741,-0.0478 0.47071,-0.095 0.92581,-0.14114 0.96149,-0.0975 1.50767,-0.14628 2.03805,-0.33267 0.26519,-0.0932 0.5592,-0.23114 0.87027,-0.57454 0.31107,-0.3434 0.56199,-0.90223 0.67449,-1.25685 0.34114,-1.07543 0.26446,-1.45547 0.28882,-2.05745 0.0244,-0.60201 0.0243,-1.23786 0.008,-1.87298 -0.0163,-0.63514 -0.0481,-1.25474 -0.10484,-1.83843 -0.0284,-0.29183 -0.0605,-0.57085 -0.11907,-0.89197 -0.0585,-0.32113 -0.0588,-0.67835 -0.46516,-1.36402 -0.46505,-0.78465 -0.58789,-0.62525 -0.69393,-0.67469 -0.10603,-0.0495 -0.16746,-0.0657 -0.22598,-0.0814 -0.11706,-0.0314 -0.21182,-0.0469 -0.3225,-0.0627 -0.22134,-0.0316 -0.49083,-0.056 -0.82514,-0.0796 -0.66862,-0.0473 -1.58349,-0.0867 -2.67296,-0.12007 -2.17895,-0.0667 -5.04885,-0.10699 -7.91995,-0.11889 z m 37.77691,0.0609 c -8.89964,0.0132 -14.55618,0.0412 -18.01402,0.10309 -1.72891,0.0309 -2.90522,0.0693 -3.68243,0.12124 -0.38861,0.0261 -0.67262,0.0533 -0.91089,0.0943 -0.11914,0.0204 -0.22175,0.0396 -0.36797,0.0931 -0.0731,0.0267 -0.15499,0.0553 -0.2968,0.15167 -0.14182,0.0964 -0.40055,0.13602 -0.73489,1.02433 -0.27366,0.72717 -0.23401,0.92802 -0.26417,1.19655 -0.0302,0.26859 -0.0472,0.51319 -0.0618,0.77485 -0.0292,0.52326 -0.044,1.09966 -0.0486,1.68907 -0.005,0.58938 0.001,1.18098 0.0212,1.72244 0.02,0.54147 -0.0272,0.82658 0.18051,1.74005 0.14376,0.63205 0.5585,1.34969 0.89562,1.62346 0.33712,0.27378 0.5861,0.32769 0.83799,0.37894 0.50377,0.10249 1.07479,0.10813 2.02867,0.11011 0.46366,0 0.86415,0.032 1.23547,0.0638 0.0386,1.34935 0.0602,3.67423 0.0764,7.69279 0.0151,3.74013 0.0112,6.1878 -0.0163,7.68223 -0.006,0.31698 -0.0148,0.41147 -0.0226,0.64248 -0.0816,0.0162 -0.0812,0.0288 -0.18398,0.0428 -0.42876,0.0581 -0.76426,0.12646 -1.11084,0.28286 -0.17329,0.0782 -0.35095,0.16436 -0.59326,0.40764 -0.2423,0.24328 -0.66227,0.76249 -0.78974,1.84719 -0.0503,0.42856 -0.0244,0.28523 -0.0267,0.3321 -0.002,0.0469 -0.004,0.0899 -0.006,0.13997 -0.004,0.10016 -0.008,0.2243 -0.0132,0.37249 -0.01,0.29636 -0.0205,0.68603 -0.0299,1.11217 -0.0187,0.85233 -0.0363,1.78445 -0.007,2.58107 0.0191,0.51781 0.17577,1.35544 0.43809,1.88701 0.26233,0.5316 0.51336,0.76939 0.73281,0.97456 0.56646,0.52971 0.54144,0.31372 0.64707,0.33501 0.10562,0.0213 0.1944,0.031 0.29367,0.0398 0.19854,0.0177 0.42958,0.0264 0.70087,0.031 0.54259,0.009 1.23584,3e-5 1.96411,-0.0216 1.45654,-0.0434 2.99658,-0.12678 3.77234,-0.23545 1.00722,-0.14109 7.00672,-0.75314 9.13042,-0.73149 a 1.5092773,2.5463657 0 0 0 0.0805,-0.003 c 5.10858,-0.40931 17.59948,-1.1498 22.61498,-1.3406 1.55447,-0.0591 2.63832,-0.12381 3.39257,-0.21494 0.37713,-0.0456 0.66617,-0.0929 0.94144,-0.17629 0.13763,-0.0417 0.26951,-0.0853 0.45302,-0.19794 0.1835,-0.11266 0.48858,-0.16469 0.84909,-1.12215 0.27683,-0.73527 0.21218,-0.8359 0.23432,-1.02376 0.0221,-0.18784 0.0338,-0.34038 0.0451,-0.50542 0.0226,-0.33015 0.0385,-0.69605 0.0524,-1.12041 0.0278,-0.84871 0.0444,-1.91391 0.0451,-3.04491 0.001,-1.83534 0.0106,-2.80978 -0.0663,-3.75003 -0.0385,-0.47012 -0.10247,-1.01426 -0.3218,-1.60532 -0.21932,-0.59109 -0.57918,-1.01117 -0.75918,-1.17369 -0.34526,-0.31174 -0.41697,-0.26412 -0.51412,-0.29402 -0.0971,-0.03 -0.17296,-0.0447 -0.25271,-0.0586 -0.15951,-0.0276 -0.32902,-0.0459 -0.52939,-0.0621 -0.40073,-0.0324 -0.91582,-0.0538 -1.51977,-0.0673 -1.20789,-0.0273 -2.76216,-0.0222 -4.31249,0.007 -1.55033,0.0291 -3.0929,0.0819 -4.27777,0.15404 -0.59244,0.0361 -1.0928,0.0766 -1.47881,0.12415 -0.19301,0.0237 -0.35387,0.0476 -0.51272,0.0843 -0.0794,0.0183 -0.15498,0.0362 -0.26904,0.0826 -0.11405,0.0464 -0.20077,-0.24751 -0.76925,0.71157 -0.41125,0.69392 -0.36561,0.90577 -0.41865,1.15145 -0.053,0.24565 -0.0873,0.45927 -0.12011,0.68699 -0.0466,0.32412 -0.0774,0.69064 -0.1097,1.05246 -0.26369,0.0222 -0.47814,0.0422 -0.82653,0.0679 -1.18227,0.0873 -2.80357,0.19068 -4.57111,0.28817 -2.70951,0.14939 -4.2935,0.21821 -5.19144,0.2114 -0.006,-0.35603 -0.0174,-0.67337 -0.0139,-1.05654 0.003,-0.33189 0.0185,-0.57604 0.0281,-0.88085 0.10429,-0.0126 0.15352,-0.0243 0.27181,-0.0369 0.85236,-0.0904 2.05491,-0.17665 3.44291,-0.24073 1.89024,-0.0872 3.10141,-0.16343 3.92162,-0.2694 0.4101,-0.053 0.71898,-0.10804 1.01642,-0.20909 0.29744,-0.10106 0.62817,-0.10457 1.10875,-0.9154 0.61318,-1.03432 0.55078,-1.62996 0.61583,-2.25191 0.065,-0.62195 0.0883,-1.24272 0.0882,-1.87064 -10e-5,-0.62791 -0.0231,-1.24383 -0.0902,-1.86536 -0.0672,-0.6215 0.0464,-1.26956 -0.71788,-2.33974 -0.35969,-0.50362 -0.55168,-0.52542 -0.71476,-0.59622 -0.16308,-0.0708 -0.29758,-0.10417 -0.4426,-0.1341 -0.29004,-0.0599 -0.61714,-0.092 -1.04315,-0.11656 -0.85202,-0.0491 -2.0835,-0.0561 -3.84976,-0.0322 -1.48477,0.0201 -2.69489,0.008 -3.52518,-0.0305 -0.0311,0 -0.0394,-0.004 -0.0694,-0.005 -1.8e-4,-0.24493 -0.009,-0.41468 -0.004,-0.68114 0.0121,-0.66198 0.0155,-0.62579 0.0302,-0.95171 0.19509,-0.0213 0.34941,-0.0445 0.66165,-0.0592 0.97734,-0.0458 2.52992,-0.0516 4.86097,-0.024 l 4.82,0.0574 -0.0729,-0.92478 c 0.033,0.41699 0.0729,0.80499 0.11976,1.15847 0.0234,0.17674 0.047,0.33998 0.0847,0.53879 0.0377,0.19884 -0.14159,0.24838 0.41205,1.18248 0.43906,0.74076 0.56394,0.60887 0.66407,0.65772 0.10014,0.0488 0.15374,0.0631 0.20169,0.0767 0.0959,0.0273 0.15931,0.0377 0.22981,0.0486 0.14099,0.0219 0.2948,0.0366 0.48321,0.0515 0.37683,0.03 0.88008,0.0554 1.4795,0.0779 1.19886,0.045 2.77409,0.0774 4.35832,0.0931 1.58423,0.0156 3.17498,0.015 4.40518,-0.006 0.61509,-0.0105 1.1388,-0.0261 1.53677,-0.048 0.19899,-0.0111 0.36487,-0.0228 0.5103,-0.0398 0.0727,-0.008 0.1388,-0.0171 0.2173,-0.0334 0.0785,-0.0162 0.10901,0.0276 0.41379,-0.16283 0.13792,-0.0862 0.50612,-0.3025 0.82966,-0.91716 0.32355,-0.61466 0.43201,-1.30977 0.48044,-1.81087 0.0969,-1.00224 0.0746,-1.91343 0.0746,-3.7975 0,-1.26378 -0.0168,-2.2969 -0.0548,-3.11286 -0.019,-0.40796 -0.0404,-0.75271 -0.0847,-1.12622 -0.0222,-0.18679 -0.0459,-0.37714 -0.11074,-0.65889 -0.0649,-0.28175 -0.0885,-0.76318 -0.65574,-1.35466 a 1.5092773,2.5463657 0 0 0 -3.6e-4,0 c -0.58215,-0.60699 -0.51496,-0.33993 -0.57764,-0.35609 -0.0627,-0.0162 -0.0941,-0.0201 -0.12427,-0.0246 -0.0603,-0.009 -0.10539,-0.0129 -0.1583,-0.0171 -0.1058,-0.008 -0.2338,-0.0147 -0.39712,-0.021 -0.32664,-0.0129 -0.7874,-0.0246 -1.37571,-0.0357 -1.17662,-0.0222 -2.85836,-0.0418 -4.92519,-0.0568 -4.13365,-0.0301 -9.80559,-0.0437 -16.0211,-0.0346 z m 56.74695,0.0246 -10.17912,0.0773 -10.17912,0.0773 a 1.5092773,2.5463657 0 0 0 -1.50103,2.44283 l -0.0528,2.20211 c -0.0336,1.40639 -0.1714,2.47915 0.37769,3.96324 0.22115,0.59771 0.59716,1.02943 0.95185,1.30428 -0.35515,0.67362 -0.66765,1.28204 -1.0973,2.0633 -1.44607,2.62941 -3.34292,6.11041 -4.23335,7.76892 -1.55419,2.89489 -2.33632,4.30361 -2.59312,4.64732 -0.0306,0.041 -0.019,0.0297 -0.0278,0.0433 0.008,-0.008 -0.0878,0.003 -0.39226,0.003 -0.3694,0 -0.6977,0.004 -1.0862,0.12885 -0.3885,0.12531 -0.91468,0.45765 -1.29482,1.18656 -0.38014,0.72891 -0.50078,1.57186 -0.54501,2.21794 -0.0442,0.64606 -0.0314,1.21808 -0.0129,1.87826 0.0249,0.88561 0.005,1.48105 0.21245,2.41354 0.20742,0.93245 0.85517,1.78191 1.16777,2.02173 a 1.5092773,2.5463657 0 0 0 3.6e-4,0 c 0.45906,0.35216 0.49511,0.25129 0.66511,0.28991 0.17,0.0386 0.35787,0.0697 0.58562,0.10073 0.45551,0.062 1.06338,0.12069 1.83567,0.1804 1.54456,0.11937 3.74012,0.23911 6.54701,0.35608 3.56091,0.14838 5.71776,0.22184 7.03857,0.21611 0.6604,-0.003 1.10419,-0.021 1.46943,-0.0779 0.18262,-0.0285 0.34192,-0.0576 0.55924,-0.15812 0.21732,-0.10054 0.60726,-0.16762 0.99524,-1.20005 0.43164,-1.1486 0.30692,-1.42105 0.33881,-1.95088 0.0319,-0.5298 0.0427,-1.08542 0.0403,-1.64805 -0.002,-0.54168 -0.0189,-1.07579 -0.0524,-1.58778 0.38816,0.018 0.706,0.0153 1.10563,0.0416 0.50943,0.0334 0.92403,0.0885 1.40938,0.13236 -0.0963,0.76357 -0.12466,1.45245 -0.13122,2.19626 -0.005,0.5191 0.003,1.02278 0.0333,1.51398 0.03,0.49118 -0.0813,0.7878 0.34401,1.87706 0.18482,0.4733 0.55529,1.00973 0.88729,1.26389 0.33199,0.25416 0.62231,0.35246 0.95601,0.44218 0.66742,0.17944 1.55778,0.28472 3.09578,0.44863 1.52982,0.163 4.59573,0.59996 7.29024,1.01848 1.34725,0.20925 2.60577,0.41417 3.53872,0.57805 0.46648,0.0819 0.85289,0.15353 1.11951,0.20849 0.13332,0.0276 0.238,0.0513 0.29612,0.0662 0.0581,0.015 0.28033,0.20901 -0.18052,-0.10249 l 0,0 c 0.38703,0.2619 0.43045,0.19179 0.54847,0.212 0.11802,0.0201 0.22867,0.03 0.34854,0.0369 0.2396,0.0138 0.50937,0.012 0.78939,-0.007 l 0.88867,-0.058 a 1.5092773,2.5463657 0 0 0 1.44999,-2.46098 l 0.0521,-2.69352 c 0.0313,-1.62397 0.20553,-2.77575 -0.41691,-4.37732 -0.31121,-0.80079 -0.88665,-1.35076 -1.31426,-1.52975 -0.42761,-0.17899 -0.76212,-0.17512 -1.11917,-0.17512 -0.10652,0 -0.24156,-0.0225 -0.35339,-0.0469 -0.0977,-0.16832 -0.2143,-0.3724 -0.36518,-0.65125 -0.35492,-0.65592 -0.81795,-1.55194 -1.28685,-2.49849 -0.97914,-1.97655 -2.41164,-4.77391 -3.22977,-6.30648 -0.78278,-1.4664 -2.0583,-3.89871 -2.8132,-5.36417 -0.39064,-0.75836 -0.78907,-1.51221 -1.12299,-2.12891 -0.16735,-0.3091 -0.27325,-0.47613 -0.39782,-0.69871 0.6818,-0.84463 0.6134,-1.4705 0.69428,-1.99889 0.0881,-0.57571 0.13352,-1.14527 0.16072,-1.74119 0.0544,-1.19187 0.12147,-2.2529 -0.21036,-3.70202 l -0.18954,-0.82697 a 1.5092773,2.5463657 0 0 0 -1.41459,-1.62757 z m 37.76059,0.005 c -6.07721,0 -11.63333,0.0204 -15.692,0.0533 -2.02934,0.0165 -3.68399,0.0361 -4.84536,0.058 -0.58068,0.0108 -1.03689,0.0222 -1.36147,0.0345 -0.16229,0.006 -0.29049,0.0126 -0.39469,0.0198 -0.0521,0.004 -0.0965,0.007 -0.15101,0.0141 -0.0273,0.004 -0.0555,0.008 -0.10449,0.0183 -0.049,0.0105 -0.0465,-0.0531 -0.3645,0.15287 -0.41157,0.26666 -0.85447,1.08265 -0.99837,1.66799 -0.14392,0.58545 -0.16698,1.00091 -0.19369,1.47002 -0.0534,0.93824 -0.0573,2.13215 -0.0573,4.17644 0,2.12429 0,3.3098 0.06,4.27188 0.0298,0.48104 0.0618,0.93962 0.22668,1.5368 0.1648,0.59703 0.56899,1.24314 0.83799,1.47881 0.31766,0.27812 0.37589,0.23764 0.46031,0.26588 0.0844,0.0282 0.14877,0.0431 0.21591,0.0574 0.1343,0.0285 0.27437,0.0493 0.44087,0.0703 0.33299,0.042 0.76254,0.0803 1.27608,0.11595 1.02706,0.0713 2.3827,0.13029 3.83692,0.16166 l 5.24317,0.11302 a 1.5092773,2.5463657 0 0 0 1.52219,-2.31105 l 0.0906,-1.64865 0,0 c 0.002,-0.0195 0.003,-0.0348 0.004,-0.0544 0.20086,-0.0174 0.36974,-0.0457 0.59742,-0.0457 0.28167,0 0.52803,0.0316 0.77654,0.058 0,0.0354 0.002,0.0204 0.002,0.0574 0.0323,1.55734 0.0284,4.57648 0.007,10.07823 l -0.0365,9.33969 c -0.40681,-0.0481 -0.7308,-0.0737 -1.16048,-0.14993 -0.58316,-0.10354 -0.96737,-0.17236 -1.4052,-0.12417 -0.21894,0.024 -0.46972,0.0739 -0.77343,0.29869 -0.30371,0.22475 -0.63409,0.70504 -0.80709,1.16608 -0.28943,0.7711 -0.2432,0.98232 -0.27494,1.28083 -0.0317,0.29855 -0.0502,0.58099 -0.0656,0.88556 -0.0308,0.60911 -0.0448,1.2919 -0.0469,1.98072 -0.002,0.68882 0.008,1.37098 0.0351,1.97958 0.0135,0.3043 0.0302,0.58665 0.0604,0.88612 0.0302,0.29948 -0.0236,0.50734 0.27597,1.30312 0.27547,0.73176 0.44105,0.77575 0.55057,0.88259 0.10952,0.10687 0.18097,0.15704 0.24751,0.20325 0.13307,0.0924 0.24154,0.15047 0.36414,0.21317 0.2452,0.12543 0.53331,0.25029 0.87721,0.38712 0.68783,0.27366 1.58548,0.58543 2.56119,0.88436 3.83531,1.1751 7.89234,2.46581 11.18686,3.54801 3.29453,1.08218 5.90879,1.99442 6.55987,2.27708 0.52788,0.22915 0.97706,0.30948 1.5281,0.25653 l 0.53285,-0.0509 a 1.5092773,2.5463657 0 0 0 1.42326,-2.48032 l 0.0496,-3.47889 c 0.0205,-1.4302 0.0271,-2.34997 -0.0191,-3.16905 -0.0462,-0.81911 -0.20372,-1.94995 -0.74357,-2.70582 -0.46988,-0.65787 -0.54981,-0.53753 -0.7349,-0.64245 -0.18511,-0.10499 -0.37991,-0.19651 -0.59916,-0.28991 -0.43849,-0.18688 -0.96638,-0.37309 -1.51906,-0.53181 -0.39711,-0.11404 -0.75216,-0.24694 -1.06676,-0.37132 -0.009,-0.27303 -0.0195,-0.34613 -0.026,-0.76312 -0.0296,-1.87409 -0.0279,-5.23493 -0.008,-10.9983 l 0.0375,-10.8484 0.54362,0 0.59118,0 -0.004,-0.15167 c 0.0187,0.83113 0.0532,1.52903 0.12704,2.18162 0.0738,0.65257 -0.007,1.31059 0.71615,2.32395 0.32221,0.45114 0.4266,0.43297 0.52487,0.48961 0.0983,0.0566 0.16749,0.0854 0.23571,0.11245 0.13643,0.0541 0.26399,0.092 0.4117,0.13236 0.29543,0.0807 0.66013,0.16091 1.0907,0.24541 0.86116,0.16897 1.97512,0.35087 3.12947,0.51654 2.3087,0.33135 4.56267,0.62873 5.69617,0.52944 l 0.97754,-0.0855 a 1.5092773,2.5463657 0 0 0 1.43091,-2.51252 l 0.0479,-6.70888 c 0.0169,-2.36718 0.0146,-4.09667 -0.0124,-5.33781 -0.0135,-0.62053 -0.0318,-1.11258 -0.066,-1.56313 -0.0171,-0.22528 -0.0362,-0.43801 -0.0771,-0.70105 -0.0409,-0.26307 -0.0507,-0.5728 -0.34749,-1.17603 -0.42284,-0.85968 -0.66124,-0.80621 -0.81853,-0.88262 -0.15732,-0.0764 -0.26677,-0.10408 -0.38359,-0.13119 -0.23367,-0.0542 -0.48575,-0.0843 -0.83244,-0.11362 -0.69341,-0.0586 -1.74505,-0.0987 -3.37072,-0.12885 -3.25133,-0.0602 -8.78202,-0.0767 -18.05047,-0.0767 z m -145.20874,10.47705 c 0.0556,0.15367 0.10576,0.30433 0.23745,0.52652 0.31866,0.53754 0.46294,0.54429 0.56861,0.61026 0.10567,0.066 0.17099,0.0923 0.2298,0.11538 0.11763,0.0462 0.20338,0.0674 0.2968,0.089 0.18686,0.0431 0.39067,0.0748 0.63041,0.10484 0.47946,0.06 1.08945,0.10654 1.74679,0.13059 l 0.86299,0.0316 0.018,1.39038 c 0.0145,1.11459 0.006,1.26134 0.003,1.74472 -0.0603,0.0114 -0.0928,0.0204 -0.15795,0.0322 -0.58074,0.10486 -1.34587,0.21857 -2.13524,0.31216 -1.61794,0.19185 -4.07559,0.49723 -5.47506,0.68057 -0.71782,0.094 -1.05205,0.10945 -1.41111,0.13059 -0.012,-0.50491 -0.0281,-0.85347 -0.0274,-1.79391 5.3e-4,-0.7928 0.0177,-1.47649 0.0354,-2.10489 0.27671,-0.0404 0.47869,-0.0832 0.94005,-0.11598 0.61251,-0.0435 1.1909,-0.11719 1.6621,-0.2079 0.2356,-0.0454 0.44137,-0.0928 0.63734,-0.15638 0.098,-0.0318 0.19184,-0.0657 0.31069,-0.12534 0.11885,-0.0597 0.22997,-0.0171 0.59777,-0.51187 0.28238,-0.37972 0.37091,-0.65226 0.42976,-0.88261 z m 106.94618,0.29578 c -0.0337,0.0551 0.0201,0.0132 -0.0975,0.0165 0.0393,0 0.0609,-0.0147 0.0975,-0.0165 z m -111.46799,0.31333 c -0.003,0.0195 0.007,0.0483 -0.01,0.14288 8.8e-4,-0.0135 0.002,-0.0502 0.003,-0.0621 0.006,-0.0746 0.0115,-0.11854 0.007,-0.0808 z m 139.32302,0.67058 c -0.14739,0.14472 -0.22025,0.0525 -0.22599,0.0551 -0.01,0.004 0.0852,-0.0297 0.21314,-0.0539 0.003,0 0.01,0 0.0128,0 z m -75.01437,12.71493 c 0.0378,-0.0117 0.0436,0.003 0.0559,0.0117 -0.0191,0.003 -0.0566,0.007 -0.0809,0.009 0.004,-0.003 0.0215,-0.0201 0.025,-0.021 z m -55.21087,3.20653 0.0167,1.16725 c 0.0136,0.95482 0.0154,1.90182 0.008,2.62791 -1.8e-4,0.0162 -5.3e-4,0.0234 -7.1e-4,0.0392 -0.30884,0.12526 -0.67642,0.24319 -0.91575,0.30631 -0.26009,0.0686 -0.76208,0.12667 -1.30524,0.2981 -0.27158,0.0857 -0.56013,0.19407 -0.89249,0.44395 -0.33236,0.24987 -0.77331,0.68057 -1.06085,1.62172 -0.14587,0.47744 -0.23304,0.94112 -0.29854,1.39859 -0.10125,-0.48494 -0.24318,-0.96781 -0.48877,-1.38219 -0.2035,-0.34331 -0.41294,-0.60662 -0.70747,-0.82286 -0.29453,-0.21626 -0.77851,-0.69967 -1.58433,0.14055 0.35564,-0.37066 0.31269,-0.24283 0.32318,-0.24775 0.0105,-0.005 -0.015,0.007 -0.0538,0.021 -0.0775,0.0285 -0.21461,0.0732 -0.38151,0.12298 -0.3338,0.0995 -0.79454,0.2222 -1.28094,0.33734 -0.26462,0.0627 -0.34609,0.0615 -0.54188,0.0984 -0.0182,-0.59694 -0.0393,-1.18812 -0.0399,-1.88701 -8.9e-4,-0.96544 0.0186,-1.9277 0.0507,-2.66189 0.25815,-0.0703 0.49685,-0.1415 0.99837,-0.22373 1.10275,-0.18073 3.34627,-0.59879 5.03245,-0.93707 0.8165,-0.16379 1.65965,-0.30349 2.34457,-0.39414 0.41287,-0.0547 0.53667,-0.0525 0.77863,-0.0668 z m -9.04259,0.59211 c -1.7e-4,0.0117 -0.0503,0.12582 -0.0576,0.15404 0.001,-0.0111 0.002,-0.0436 0.003,-0.0533 0.008,-0.0754 0.0551,-0.1487 0.0542,-0.10075 z"
       id="path5642" />
    <path
       inkscape:export-ydpi="150.05879"
       inkscape:export-xdpi="150.05879"
       inkscape:export-filename="/home/chrx/Sites/sjtfl-env/sjtfl/static/img/Heat.png"
       sodipodi:nodetypes="ccscscccscsccscscsssscsccccccssccsssssssssscsccssccsscccsccssccsccsccsscscscscscscccccccscscccccccsssssccccsscssssssscccscccssssscsscccsscssssscssccscscsccscscscsccscsscscsccscs"
       inkscape:connector-curvature="0"
       id="path5644"
       d="m -532.4153,633.64386 c -0.17692,-0.29845 -0.13784,-7.38061 0.0434,-7.86339 0.086,-0.22924 1.13748,-0.79632 2.33655,-1.26017 1.19907,-0.46385 2.24637,-1.01845 2.32737,-1.23246 0.081,-0.214 0.12803,-7.00107 0.10457,-15.08239 l -0.0427,-14.6933 -2.16276,-0.0335 c -1.18953,-0.0183 -2.28926,-0.11538 -2.44385,-0.21548 -0.2363,-0.15296 -0.28109,-0.80174 -0.28109,-4.0719 0,-2.46736 0.0704,-3.9633 0.1924,-4.09056 0.1058,-0.11032 5.35613,-0.19574 11.6674,-0.18984 9.32363,0.009 11.50301,0.0852 11.62424,0.40782 0.24542,0.65306 0.18831,6.1257 -0.0675,6.46969 -0.12219,0.16434 -1.17094,0.36612 -2.33054,0.44843 -1.51952,0.10786 -2.15167,0.26498 -2.26339,0.5626 -0.0853,0.22709 -0.15625,2.11685 -0.15775,4.19947 -0.002,3.012 0.0521,3.86326 0.26515,4.16158 0.21145,0.29609 0.80099,0.30525 2.79932,0.0435 1.39229,-0.18238 3.85113,-0.48806 5.46407,-0.67932 1.61294,-0.19125 3.11497,-0.46236 3.33785,-0.60249 0.39654,-0.24931 0.40416,-0.33686 0.35547,-4.08201 l -0.0498,-3.82728 -2.30728,-0.0844 c -1.269,-0.0464 -2.36608,-0.18365 -2.43795,-0.30489 -0.2221,-0.37475 -0.20445,-6.07311 0.02,-6.45174 0.27118,-0.45754 22.92047,-0.36374 23.19299,0.096 0.26017,0.43897 0.35898,4.29673 0.12865,5.02284 -0.16986,0.53545 -0.44085,0.63071 -2.34271,0.82352 -1.53719,0.15582 -2.17668,0.33247 -2.24192,0.61932 -0.10383,0.45651 -0.19858,5.61742 -0.20771,7.55103 -0.01,2.12204 -0.10777,7.64098 -0.0402,10.73146 0.0174,0.79851 0.0697,2.46337 0.183,2.82054 0.17017,0.53646 0.30955,0.58507 1.21844,0.42479 0,0 2.60984,-0.27974 3.20354,0.23132 0.62141,0.53489 0.51279,1.57548 0.51279,2.36263 0,1.16409 -0.0196,1.88823 -0.56505,2.66731 -0.43417,0.62012 -0.45279,0.60746 -4.45325,1.45927 -1.61295,0.34344 -4.52601,0.79725 -6.58209,1.28339 -2.05609,0.48614 -5.44321,1.24645 -5.75073,1.33446 -0.37045,0.10602 -4.77254,1.77154 -5.52956,1.30207 -0.75702,-0.46947 -0.53846,-2.22776 -0.54707,-3.05289 -0.0128,-1.22466 0.0228,-2.29344 0.26296,-3.07963 0.2402,-0.78617 1.41501,-0.82077 2.15038,-1.01475 0.56431,-0.14886 2.02795,-0.53968 2.13847,-1.29077 0.0535,-0.36371 0.0741,-2.28052 0.0458,-4.25962 l -0.0515,-3.59837 -0.86491,-0.0928 c -0.4757,-0.0511 -2.23527,0.18207 -3.91016,0.51808 -1.67488,0.33599 -3.92503,0.75507 -5.00032,0.93131 -1.44292,0.23649 -2.01328,0.44963 -2.17725,0.81365 -0.31867,0.70746 -0.311,8.57695 0.009,9.02474 0.16607,0.23255 0.74398,0.20194 2.05676,-0.10888 1.00419,-0.23776 1.89356,-0.50292 1.97638,-0.58928 0.0828,-0.0864 0.27701,0.0562 0.43152,0.31692 0.21574,0.364 0.2803,1.1127 0.27821,3.22629 -0.001,1.51376 -0.0688,2.92801 -0.1495,3.14275 -0.0807,0.21476 -1.45917,0.84876 -3.0632,1.40894 -1.60403,0.56016 -3.63624,1.29529 -4.51602,1.63356 -0.87979,0.33831 -2.91929,1.09345 -4.53223,1.67813 -1.61294,0.58469 -3.53248,1.32929 -4.26564,1.65471 -2.29452,1.0184 -6.41751,2.67993 -6.65004,2.67993 -0.1223,0 -0.27569,-0.0899 -0.34084,-0.19991 z m 179.83769,-4.57741 c -1.607,-0.69765 -10.16832,-3.50985 -17.85293,-5.86432 -1.90755,-0.58446 -3.51914,-1.22565 -3.59639,-1.43085 -0.1916,-0.50896 -0.17754,-5.06959 0.0172,-5.58856 0.12623,-0.33636 0.43213,-0.37013 1.55244,-0.17125 0.76739,0.13622 1.71518,0.25726 2.10619,0.26897 l 0.71094,0.0213 0.0468,-11.99453 c 0.043,-11.00996 0.0219,-12.02531 -0.25613,-12.36937 -0.4173,-0.5163 -3.71517,-0.5163 -3.91066,0 -0.0781,0.20616 -0.18274,1.11699 -0.23265,2.02408 l -0.0907,1.64925 -5.24317,-0.11305 c -2.88374,-0.0622 -5.38313,-0.23561 -5.5542,-0.38539 -0.27636,-0.24195 -0.31104,-0.8024 -0.31104,-5.0275 0,-4.05949 0.0411,-4.78181 0.28114,-4.9372 0.15463,-0.10012 10.22238,-0.18202 22.37277,-0.18202 18.53473,0 22.12434,0.0664 22.29461,0.4126 0.14208,0.28881 0.18859,2.42508 0.15507,7.12175 l -0.0479,6.70917 -0.97754,0.0856 c -1.52547,0.13362 -9.76642,-1.04914 -10.04697,-1.44197 -0.16202,-0.22688 -0.26504,-1.13798 -0.29886,-2.6435 l -0.0516,-2.29729 -2.04395,0 -2.04395,0 -0.0462,13.37964 c -0.0399,11.53577 -0.01,13.43058 0.21783,13.7494 0.14522,0.20336 1.10776,0.61204 2.13896,0.90818 1.0312,0.29615 1.99536,0.70712 2.14257,0.91328 0.21595,0.30234 0.25804,1.04699 0.21783,3.85387 l -0.0498,3.4791 -0.5332,0.051 c -0.29327,0.0282 -0.77315,-0.0532 -1.06641,-0.18046 z m -37.85745,-10.36958 c -0.29445,-0.19903 -9.38703,-1.61133 -12.53028,-1.94627 -3.0603,-0.32611 -3.55771,-0.45974 -3.77414,-1.01401 -0.19001,-0.48662 -0.16496,-3.31553 0.0373,-4.21312 0.15959,-0.70819 0.25824,-0.76919 1.24414,-0.76919 0.8219,0 1.0708,-0.10209 1.0708,-0.43923 0,-0.2416 -0.16354,-0.58692 -0.36342,-0.76737 -0.56702,-0.512 -9.12385,-1.07355 -9.69288,-0.63615 -0.73982,0.56874 -0.41535,1.07922 0.79018,1.24322 0.70883,0.0964 1.16367,0.31086 1.27189,0.59973 0.20834,0.55601 0.22293,3.90305 0.0194,4.44469 -0.12334,0.32819 -1.6347,0.33479 -8.75071,0.0383 -5.60183,-0.23343 -8.75657,-0.47732 -9.04595,-0.69931 -0.39601,-0.30382 -0.45013,-0.54725 -0.49765,-2.23848 -0.069,-2.45638 0.0814,-2.74479 1.43147,-2.74479 1.21501,0 1.02889,0.24913 4.13161,-5.53008 0.87979,-1.6387 2.77933,-5.12459 4.2212,-7.74638 1.44187,-2.6218 2.62158,-4.94328 2.62158,-5.15885 0,-0.525 -0.40504,-0.75594 -1.32578,-0.75594 -1.03885,0 -1.18918,-0.40659 -1.12619,-3.04588 l 0.0526,-2.20173 10.17914,-0.0774 10.17915,-0.0774 0.18939,0.82708 c 0.25741,1.12414 0.115,4.2482 -0.20945,4.59464 -0.13983,0.14926 -0.4142,0.27557 -0.6097,0.2806 -0.19551,0.005 -0.46912,0.13053 -0.60802,0.27887 -0.21401,0.22853 -0.20352,0.39942 0.0688,1.1199 0.17673,0.4676 0.4995,1.12009 0.71728,1.44994 0.21777,0.32984 1.02155,1.81417 1.78616,3.29849 0.76462,1.48433 2.03851,3.91322 2.83088,5.39755 0.79237,1.48431 2.22915,4.29044 3.19285,6.23581 0.96369,1.94536 1.89483,3.66583 2.06918,3.82325 0.17434,0.15744 0.66688,0.28622 1.09451,0.28622 1.27438,0 1.40204,0.32862 1.34175,3.45369 l -0.052,2.69351 -0.88867,0.0582 c -0.48877,0.032 -0.96865,0.004 -1.06641,-0.062 z m -17.20114,-14.43219 c 0.0734,-0.37733 -1.84132,-4.0056 -2.11379,-4.0056 -0.29394,0 -2.13372,3.28805 -2.05762,3.6774 0.12743,0.65196 4.04847,0.96046 4.17141,0.3282 z m -62.89047,12.62208 c -1.32034,0.18497 -6.30336,0.36599 -6.52171,0.16181 -0.29554,-0.27632 -0.38389,-0.46545 -0.39598,-0.79323 -0.0413,-1.12077 0.046,-3.79477 0.0566,-3.88481 0.0255,-0.21675 0.37646,-0.39219 1.13426,-0.49485 0.85346,-0.11556 1.26072,-0.31206 1.42304,-0.68659 0.17562,-0.4052 0.2185,-2.73618 0.18833,-10.23637 -0.0332,-8.25701 -0.079,-9.7543 -0.30567,-9.99593 -0.14663,-0.15628 -1.2778,-0.28624 -2.5137,-0.28876 -1.88344,-0.004 -2.26456,-0.0814 -2.35499,-0.47891 -0.15637,-0.68749 -0.12731,-4.40737 0.0379,-4.84616 0.11051,-0.29362 4.9377,-0.37984 22.73432,-0.40607 12.42672,-0.0183 22.67984,0.0562 22.78473,0.16556 0.11991,0.12504 0.1907,1.64202 0.1907,4.08681 0,3.75796 -0.0134,3.89629 -0.3999,4.13791 -0.41247,0.25778 -12.75237,0.13513 -12.90853,-0.12833 -0.0481,-0.0812 -0.13267,-0.71861 -0.18788,-1.41649 l -0.10038,-1.26884 -6.13184,-0.0727 c -4.67384,-0.0554 -6.23749,0.018 -6.57617,0.30791 -0.42001,0.35971 -0.44716,0.53462 -0.49582,3.19435 -0.0289,1.57974 0.0256,2.94376 0.1242,3.11019 0.10906,0.18399 2.00322,0.2717 4.99523,0.2313 3.51593,-0.0475 4.88851,0.0315 5.07453,0.29195 0.34998,0.49007 0.35045,3.97793 5.3e-4,4.56819 -0.20101,0.33913 -1.25433,0.47531 -5.021,0.64917 -2.8022,0.12932 -4.85818,0.34715 -4.98878,0.52853 -0.26047,0.36176 -0.31058,5.83238 -0.0596,6.50126 0.13384,0.35663 1.11391,0.36606 6.60145,0.0635 3.54436,-0.19544 6.50025,-0.41368 6.56865,-0.485 0.0684,-0.0713 0.17364,-0.83173 0.23387,-1.68976 0.0602,-0.85805 0.17786,-1.67536 0.26138,-1.8163 0.23501,-0.39648 12.23164,-0.62127 12.65705,-0.23715 0.32492,0.29338 0.35267,0.63261 0.35017,4.28126 -0.001,2.17944 -0.0653,4.12888 -0.14182,4.33207 -0.10094,0.26811 -1.30648,0.41384 -4.3962,0.53139 -5.04678,0.19201 -17.51403,0.93104 -22.65264,1.34275 -2.29674,-0.0234 -8.14516,0.58357 -9.26434,0.74033 z"
       style="fill:#120608" />
    <path
       inkscape:connector-curvature="0"
       style="fill:#ffffff;fill-opacity:1;fill-rule:evenodd;stroke:none;stroke-width:1px;stroke-linecap:butt;stroke-linejoin:miter;stroke-opacity:1"
       d="m -490.02675,603.16696 c -0.27225,-0.0107 -0.56682,0.0296 -0.87166,0.16349 -1.8e-4,1.1e-4 -3.5e-4,0 -7.1e-4,0 -0.57623,0.25312 -0.90734,0.6928 -1.073,1.17367 -0.1586,0.46053 -0.13237,0.87826 -0.0423,1.22714 l -3.6e-4,0 c 0.17318,0.67142 0.51859,0.99474 0.63804,1.13757 0.27483,0.32866 0.53834,0.67484 0.79252,1.03516 0.4704,0.66686 0.93987,1.43638 1.52567,2.2262 0.58638,0.79059 1.22147,1.50096 1.84989,2.16926 0.95577,1.01641 1.95832,1.99852 3.01732,2.92811 1.05812,0.9288 2.176,1.80848 3.36585,2.60493 0.73445,0.49161 1.49275,0.93447 2.25917,1.35695 -0.28853,-0.0155 -0.58411,-0.0403 -0.86819,-0.0524 -1.41571,-0.0603 -2.85206,-0.0959 -4.30555,-0.0542 -1.21663,0.0349 -2.40033,0.12182 -3.55434,0.19161 -1.15166,0.0697 -2.26553,0.12115 -3.33669,0.0784 -0.85508,-0.0341 -1.70583,-0.12827 -2.54243,-0.28464 -0.83328,-0.15575 -1.67587,-0.37798 -2.53029,-0.63526 -1.77747,-0.53524 -3.47873,-1.18525 -5.0026,-2.062 -1.10173,-0.63387 -2.17883,-1.42772 -3.30336,-2.25847 -0.64054,-0.47322 -1.31926,-0.97633 -2.08005,-1.43958 a 1.6218324,1.6218324 0 0 0 -3.6e-4,0 c -0.9014,-0.54884 -1.84621,-0.99547 -2.80695,-1.36113 a 1.6218324,1.6218324 0 0 0 -3.6e-4,0 c -0.0641,-0.0244 -0.23199,-0.10011 -0.52418,-0.1406 -0.31262,-0.0434 -0.73515,-0.0404 -1.19971,0.22529 a 1.6218324,1.6218324 0 0 0 -3.5e-4,0 c -0.38525,0.22048 -0.62313,0.52578 -0.76926,0.85222 -0.14318,0.31976 -0.17563,0.61671 -0.16524,0.87064 0.0205,0.49934 0.18757,0.79367 0.25446,0.92859 0.16417,0.3311 0.35049,0.61873 0.53459,0.8734 0.33408,0.46213 0.6854,0.85053 1.00705,1.19935 0.42485,0.46075 0.86504,0.91962 1.32745,1.36808 0.92248,0.89464 1.90267,1.71699 2.91908,2.47648 1.05732,0.79005 2.17589,1.52878 3.37001,2.16822 1.09102,0.58421 2.22094,1.07241 3.36793,1.48227 1.14965,0.41082 2.32424,0.74588 3.51408,1.00635 1.07573,0.23552 2.15598,0.40843 3.23289,0.53599 1.06951,0.12668 2.16107,0.2109 3.26969,0.21869 -0.0271,0.0265 -0.0574,0.0419 -0.0837,0.0708 -0.37274,0.40951 -0.48644,0.85302 -0.50613,1.23164 -0.0186,0.35652 0.0496,0.61516 0.0989,0.78314 0.11166,0.37999 0.25813,0.64302 0.3513,0.81994 l -3.5e-4,0 c 0.29337,0.55714 0.62608,1.15739 1.06675,1.74956 0.44368,0.59623 0.93375,1.09784 1.40973,1.54686 0.77401,0.73023 1.60541,1.40475 2.48967,2.00958 0.0958,0.0655 0.19722,0.12059 0.29402,0.18432 -0.52639,-0.24918 -1.04305,-0.52038 -1.54788,-0.81299 -0.62482,-0.36215 -1.29327,-0.79771 -2.06131,-1.20699 -0.63641,-0.33916 -1.11815,-0.57449 -1.38299,-0.79599 -0.064,-0.0536 -0.29605,-0.32815 -0.84494,-0.53181 l -3.5e-4,0 c -0.28774,-0.10677 -0.64017,-0.17426 -1.05808,-0.10311 -0.44059,0.075 -0.88062,0.28973 -1.21602,0.73801 a 1.6218324,1.6218324 0 0 0 -3.6e-4,0 c -0.21381,0.28587 -0.31914,0.58665 -0.36033,0.87582 -0.0401,0.28178 -0.0153,0.53102 0.0354,0.74565 0.0992,0.41958 0.27501,0.66619 0.3645,0.79773 a 1.6218324,1.6218324 0 0 0 3.5e-4,0 c 0.21463,0.31542 0.43974,0.55968 0.63596,0.76091 0.73007,0.74866 1.47501,1.30623 2.08039,1.83705 0.57407,0.50338 1.19754,1.13745 2.00646,1.73222 0.10769,0.0792 0.21803,0.1357 0.32666,0.20932 -0.12471,0.22735 -0.20917,0.45567 -0.23918,0.67171 -0.0385,0.27742 -0.0156,0.52309 0.0299,0.73141 0.0887,0.4063 0.23944,0.64011 0.30236,0.75155 1.44454,2.55829 3.66672,4.52054 6.11448,5.90864 1.27549,0.72331 2.61389,1.29665 3.97334,1.75477 1.37291,0.46268 2.74934,0.80313 4.09796,1.10912 1.80795,0.41019 3.62197,0.76989 5.43618,1.09661 1.81695,0.32722 3.63459,0.62139 5.44936,0.89978 1.36598,0.20953 2.69073,0.40587 3.95321,0.68975 1.40978,0.31702 2.81859,0.75907 4.23716,1.25422 a 1.6218324,1.6218324 0 0 0 3.6e-4,0 c 3.79903,1.32595 7.53397,2.9822 11.35383,4.57248 3.97173,1.65354 8.01572,3.2244 12.19391,4.47567 1.4801,0.44323 2.99275,0.85111 4.54681,1.16256 1.54686,0.31 3.15694,0.5295 4.81306,0.52176 2.63199,-0.0123 5.14506,-0.59312 7.51102,-1.29796 2.37625,-0.70792 4.54564,-1.47287 6.58069,-1.48507 0.0603,0 0.11737,-1.2e-4 0.17044,0 0.065,1.6e-4 0.126,0 0.18329,0 a 1.6218324,1.6218324 0 0 0 0.007,0 c 1.91834,-0.008 3.7464,-0.31841 5.48478,-0.64915 1.72926,-0.32902 3.51287,-0.70646 5.27997,-1.32745 1.38334,-0.48614 2.70393,-1.10509 3.95875,-1.81275 1.25518,-0.70785 2.45201,-1.50861 3.58594,-2.3831 0.93486,-0.721 1.84273,-1.50405 2.68928,-2.37199 0.84353,-0.86486 1.6423,-1.83024 2.29457,-2.9347 0.36363,-0.61575 0.68144,-1.27496 0.92582,-1.97764 0.24398,-0.70153 0.41883,-1.45827 0.46378,-2.2571 0.0454,-0.80784 -0.0457,-1.5804 -0.201,-2.30083 -0.15637,-0.72515 -0.37873,-1.40264 -0.61791,-2.04012 -0.48758,-1.2996 -1.08999,-2.54084 -1.76796,-3.72375 -0.67966,-1.18574 -1.43053,-2.30529 -2.20226,-3.3832 -0.91512,-1.27819 -1.88434,-2.53122 -2.92983,-3.73347 -1.04404,-1.20056 -2.18211,-2.37176 -3.47936,-3.41064 -1.2571,-1.00669 -2.5975,-1.83658 -3.93412,-2.58479 -1.34242,-0.75146 -2.66651,-1.41498 -3.89454,-2.12933 -0.99699,-0.57997 -2.00336,-1.23581 -3.07251,-1.87906 -1.06681,-0.64184 -2.18016,-1.25964 -3.36377,-1.78984 -1.23244,-0.5521 -2.48735,-0.98502 -3.73103,-1.36008 -1.24472,-0.37539 -2.49797,-0.69844 -3.75222,-0.98518 -2.11534,-0.48362 -4.24441,-0.86616 -6.37483,-1.17993 -2.13139,-0.31393 -4.27204,-0.56032 -6.41823,-0.74044 -2.01562,-0.16917 -4.03335,-0.27972 -6.04888,-0.34331 -2.01634,-0.0636 -4.04218,-0.0804 -6.07421,-0.0205 -2.14072,0.0631 -4.25868,0.21025 -6.35609,0.36415 -2.09813,0.15395 -4.18579,0.31551 -6.26549,0.44608 -1.79536,0.1127 -3.58566,0.20252 -5.37092,0.24854 -1.78356,0.046 -3.57125,0.0484 -5.36154,0.0178 -1.52584,-0.0262 -3.02885,-0.0767 -4.50133,-0.21315 -1.46403,-0.13569 -2.89698,-0.35647 -4.26736,-0.71995 -2.32929,-0.61784 -4.60599,-1.685 -6.91603,-2.84134 -2.32028,-1.16144 -4.5622,-2.35326 -6.54285,-3.81018 -0.54713,-0.40245 -1.10967,-0.85279 -1.72007,-1.30767 -0.61233,-0.45631 -1.12874,-0.82806 -1.47325,-1.19275 -0.13616,-0.14415 -0.34154,-0.40922 -0.68942,-0.71963 -0.13094,-0.11683 -0.35452,-0.31865 -0.74148,-0.47349 l -3.6e-4,0 c -0.1958,-0.0783 -0.42532,-0.139 -0.69427,-0.14961 l -3.6e-4,0 z m 25.36779,20.53249 c 1.0564,0.20591 2.11179,0.40475 3.14958,0.60437 1.29174,0.24847 2.58649,0.51091 3.88724,0.77343 1.16916,0.23596 2.30456,0.4658 3.38807,0.75779 1.07382,0.28937 2.10576,0.64229 3.06314,1.09418 0.74485,0.35158 1.4437,0.7628 2.06998,1.24032 a 1.6218324,1.6218324 0 0 0 3.6e-4,0 c 0.60429,0.46074 1.06418,0.94795 1.29517,1.41875 0.12102,0.24666 0.19421,0.51389 0.21279,0.76822 0.0168,0.22953 -0.0416,0.34946 -0.0194,0.31589 a 1.6218324,1.6218324 0 0 0 -3.6e-4,0 c 0.0214,-0.0323 -0.0724,0.0753 -0.31381,0.16524 l 0,0 c -0.27111,0.10101 -0.59561,0.16515 -0.95394,0.18884 -0.5343,0.0353 -1.10661,-0.0182 -1.69125,-0.14233 -0.59432,-0.12615 -1.21107,-0.32697 -1.85337,-0.56688 -1.21105,-0.45233 -2.40292,-0.99722 -3.58107,-1.6003 -1.183,-0.60556 -2.35293,-1.27004 -3.52588,-1.95924 -0.84634,-0.49729 -1.69069,-1.00518 -2.53619,-1.51839 -0.84049,-0.51017 -1.69778,-1.03523 -2.59103,-1.53955 z m -22.66115,1.1105 c 0.006,1.1e-4 0.0136,0.002 0.0111,0.002 -0.004,-1.2e-4 -0.007,-0.002 -0.0111,-0.002 z m 4.74016,0.29888 c 0.71035,-0.016 1.39877,-0.0116 2.06061,0.0385 0.65711,0.0497 1.31311,0.14589 1.96168,0.285 1.12935,0.24225 2.2313,0.61439 3.27351,1.10771 1.02001,0.4828 1.94021,1.0676 2.65733,1.77909 0.38338,0.38037 0.69184,0.78335 0.89562,1.1886 0.0937,0.18628 0.14069,0.33172 0.15517,0.4183 0.0131,0.0781 -0.004,0.11677 0.009,0.0823 0.0135,-0.0358 -0.001,0.008 -0.0694,0.0618 -0.0757,0.0594 -0.2211,0.1411 -0.43253,0.22147 -0.45842,0.17422 -0.97953,0.26817 -1.52394,0.28257 -1.10051,0.0291 -2.30092,-0.26796 -3.54185,-0.71094 -1.2775,-0.45605 -2.51718,-1.02077 -3.70014,-1.68535 -0.75189,-0.42244 -1.51297,-0.90454 -2.31506,-1.39376 -0.79981,-0.48784 -1.62694,-0.97301 -2.4987,-1.41875 -0.0608,-0.0311 -0.15131,-0.0665 -0.218,-0.0996 0.0963,-0.006 0.20225,-0.006 0.29785,-0.0117 1.01498,-0.0629 2.01092,-0.12299 2.9885,-0.1451 z m 25.10847,11.85303 c 1.10969,0.007 2.17508,0.10216 3.15236,0.35477 0.69896,0.18065 1.37949,0.44795 2.0193,0.79112 0.70346,0.37733 1.28876,0.82216 1.66522,1.31669 0.22057,0.28976 0.3723,0.60104 0.44052,0.88833 0.0791,0.33336 0.0772,0.7809 -0.002,1.29899 -0.0921,0.60478 -0.26258,1.09094 -0.48044,1.38543 -0.23735,0.32083 -0.71677,0.65701 -1.36529,0.98274 -0.68774,0.34543 -1.35022,0.60096 -1.96966,0.70678 -0.71986,0.12298 -1.60008,0.0703 -2.61534,0.009 -0.6417,-0.039 -1.22235,-0.0702 -1.73395,-0.14892 -0.69149,-0.10648 -1.41323,-0.31992 -2.16336,-0.5891 -0.83565,-0.29986 -1.61133,-0.65183 -2.32443,-1.0591 0.0309,-0.0363 0.0979,-0.14191 0.11247,-0.15344 0.049,-0.0389 0.23027,-0.13058 0.54084,-0.20447 0.30612,-0.0728 0.57871,-0.10508 0.80223,-0.0965 0.26079,0.01 0.63908,0.0931 1.13723,0.20585 0.39004,0.0882 0.7498,0.16318 1.07404,0.24439 0.30884,0.0773 0.72455,0.20615 1.26601,0.26799 a 1.6218324,1.6218324 0 0 0 0.001,0 c 0.13841,0.0156 0.35627,0.04 0.64985,0.006 0.30175,-0.0354 0.66304,-0.12995 1.02683,-0.39539 0.35142,-0.25642 0.56339,-0.57284 0.69462,-0.87618 l 0,0 c 0.1277,-0.29536 0.17221,-0.564 0.1885,-0.78557 0.0426,-0.57904 -0.0947,-1.05914 -0.25203,-1.43785 l 0,0 c -0.0932,-0.22434 -0.20852,-0.44309 -0.34713,-0.65229 -0.32907,-0.49661 -0.72999,-0.85551 -1.11154,-1.13339 -0.55219,-0.4022 -1.13203,-0.66667 -1.6982,-0.87654 0.4275,-0.016 0.87814,-0.0508 1.2917,-0.0482 z m -5.69375,6.39808 c 8.9e-4,0.002 0.002,0 0,0 z"
       id="path5646" />
    <path
       inkscape:connector-curvature="0"
       style="fill:#ba304b;fill-opacity:1;fill-rule:evenodd;stroke:none;stroke-width:1px;stroke-linecap:butt;stroke-linejoin:miter;stroke-opacity:1"
       d="m -406.31221,659.21586 c -2.41177,0.0133 -4.72702,0.86403 -7.03843,1.55263 -2.29581,0.68394 -4.65989,1.21896 -7.05538,1.23021 -1.50708,0.007 -3.00916,-0.1935 -4.48688,-0.48964 -1.48507,-0.29762 -2.94937,-0.69169 -4.4003,-1.1262 -4.09611,-1.22667 -8.08863,-2.77586 -12.03605,-4.41926 -3.79657,-1.5806 -7.55998,-3.25146 -11.44273,-4.60663 -1.44999,-0.50609 -2.91755,-0.96827 -4.4159,-1.3052 -1.34177,-0.30172 -2.70388,-0.50204 -4.06325,-0.71056 -1.80594,-0.27702 -3.60969,-0.56898 -5.40782,-0.8928 -1.79546,-0.32333 -3.58539,-0.67848 -5.36452,-1.08213 -1.32697,-0.30107 -2.64961,-0.62963 -3.93905,-1.06417 -1.27644,-0.43016 -2.51967,-0.96448 -3.69135,-1.62892 -2.24152,-1.27114 -4.23517,-3.05144 -5.50217,-5.2953 -0.0538,-0.0952 -0.10685,-0.19289 -0.13017,-0.29973 -0.0117,-0.0534 -0.0156,-0.10883 -0.008,-0.16298 0.008,-0.0542 0.0268,-0.10707 0.0589,-0.15136 0.047,-0.0649 0.11993,-0.10869 0.19778,-0.1276 0.0778,-0.0189 0.16025,-0.014 0.23787,0.006 0.15525,0.0396 0.28873,0.13574 0.42342,0.22251 0.42888,0.2763 0.90316,0.47258 1.36837,0.682 1.06514,0.47949 2.09586,1.03484 3.1746,1.48289 1.16211,0.48269 2.37264,0.83784 3.58491,1.17531 1.05734,0.29434 2.14332,0.57854 3.23757,0.4936 0.34458,-0.0267 0.68739,-0.0905 1.013,-0.20637 0.14243,-0.0507 0.28374,-0.11272 0.39827,-0.21139 0.0573,-0.0493 0.10727,-0.10766 0.14362,-0.17392 0.0364,-0.0663 0.0588,-0.14067 0.061,-0.21623 0.004,-0.13506 -0.0575,-0.26609 -0.14622,-0.36802 -0.0887,-0.10193 -0.20315,-0.17798 -0.32047,-0.245 -0.27721,-0.15836 -0.57722,-0.27277 -0.87985,-0.37445 -1.30422,-0.43819 -2.67158,-0.64863 -4.02224,-0.91079 -1.68091,-0.32626 -3.34988,-0.7364 -4.95471,-1.33345 -0.75449,-0.2807 -1.49345,-0.6022 -2.21903,-0.95088 -0.72564,-0.34871 -1.44128,-0.72667 -2.0899,-1.20358 -0.67469,-0.49608 -1.268,-1.09257 -1.89765,-1.64469 -0.66414,-0.58234 -1.37158,-1.11782 -1.98826,-1.75022 -0.16496,-0.16915 -0.32365,-0.34564 -0.45656,-0.54099 -0.0544,-0.08 -0.10516,-0.16477 -0.12742,-0.25892 -0.0111,-0.0471 -0.0149,-0.0961 -0.008,-0.14404 0.007,-0.0479 0.0245,-0.0946 0.0534,-0.1333 0.045,-0.0602 0.11598,-0.0984 0.19009,-0.11106 0.0741,-0.0126 0.15106,-0.002 0.22155,0.0251 0.14098,0.0523 0.25377,0.15854 0.36912,0.25501 0.49456,0.41363 1.09177,0.68024 1.66075,0.98346 0.68568,0.3654 1.33831,0.78927 2.01052,1.1789 1.08096,0.62654 2.21339,1.16471 3.38374,1.60209 0.89477,0.33439 1.81133,0.60979 2.74062,0.83081 0.93168,0.22158 1.87592,0.38847 2.82509,0.51575 1.52942,0.20507 3.0707,0.30728 4.61157,0.39025 1.54363,0.0831 3.08881,0.14709 4.63469,0.14835 1.09675,0.002 2.19336,-0.0298 3.29011,-0.0275 1.09098,0.002 2.18534,0.0375 3.26306,0.20704 0.57448,0.0904 1.1438,0.21906 1.69489,0.40481 0.54397,0.18335 1.0728,0.42423 1.53681,0.76219 0.27439,0.19987 0.5268,0.43528 0.7143,0.71825 0.0792,0.11947 0.14635,0.24682 0.20135,0.37918 0.0916,0.22037 0.1496,0.45896 0.1321,0.69696 -0.007,0.0893 -0.0239,0.17857 -0.0595,0.26079 -0.0356,0.0822 -0.09,0.15735 -0.16237,0.21016 -0.0752,0.0549 -0.16701,0.0838 -0.25946,0.0946 -0.0925,0.0109 -0.18607,0.004 -0.27855,-0.006 -0.35824,-0.0409 -0.70621,-0.14268 -1.05597,-0.23029 -0.36812,-0.0922 -0.7399,-0.16899 -1.11004,-0.25272 -0.47342,-0.10708 -0.9481,-0.22609 -1.43312,-0.2447 -0.41675,-0.016 -0.83375,0.0428 -1.23948,0.1393 -0.41879,0.0996 -0.83699,0.24448 -1.1741,0.5122 -0.30757,0.24428 -0.53099,0.57737 -0.73289,0.91428 -0.0837,0.13969 -0.16511,0.28209 -0.2189,0.43579 -0.0538,0.15371 -0.079,0.32063 -0.0477,0.48045 0.0348,0.17777 0.13776,0.33676 0.26571,0.46499 0.12795,0.12826 0.2806,0.22878 0.43436,0.32458 0.92991,0.57934 1.94085,1.01885 2.97208,1.38891 0.80213,0.28784 1.62215,0.53567 2.46444,0.66536 0.62275,0.0959 1.2534,0.1266 1.88233,0.16478 0.99621,0.0605 2.00302,0.13952 2.98682,-0.0285 0.84791,-0.14486 1.65559,-0.47015 2.42427,-0.85624 0.73178,-0.36755 1.45429,-0.80929 1.94132,-1.46762 0.44956,-0.6077 0.66584,-1.35814 0.77968,-2.10545 0.0969,-0.636 0.12491,-1.29191 -0.0237,-1.91784 -0.12906,-0.54351 -0.3894,-1.0516 -0.72776,-1.4961 -0.57196,-0.75135 -1.357,-1.31712 -2.18914,-1.76346 -0.75259,-0.40367 -1.55297,-0.71862 -2.3798,-0.93234 -1.15553,-0.29869 -2.35475,-0.39836 -3.54823,-0.4059 -1.0809,-0.007 -2.16067,0.0609 -3.24003,0.11889 -2.26684,0.12182 -4.53573,0.20091 -6.8043,0.28466 -2.25597,0.0833 -4.52562,0.17057 -6.762,-0.13755 -1.07312,-0.14786 -2.13335,-0.38638 -3.16927,-0.70312 -1.03621,-0.31683 -2.04851,-0.71198 -3.02482,-1.18204 -0.88637,-0.42674 -1.74342,-0.9154 -2.55541,-1.47079 -0.81137,-0.55495 -1.57712,-1.17612 -2.29214,-1.85067 -0.43943,-0.41457 -0.86108,-0.85084 -1.22173,-1.33548 -0.35817,-0.48131 -0.65321,-1.00628 -0.93274,-1.53714 -0.0887,-0.16839 -0.1764,-0.33883 -0.23006,-0.5214 -0.0231,-0.0784 -0.0398,-0.15986 -0.0355,-0.24151 0.004,-0.0816 0.031,-0.1641 0.086,-0.22457 0.0356,-0.039 0.0818,-0.0677 0.13154,-0.0854 0.0498,-0.0176 0.10303,-0.0245 0.15583,-0.0233 0.10559,0.002 0.20784,0.036 0.3066,0.0734 0.2275,0.0862 0.4462,0.19383 0.6628,0.3046 0.81681,0.41766 1.60904,0.88174 2.39224,1.35944 0.78571,0.47922 1.56318,0.97263 2.36555,1.42342 1.2626,0.70935 2.58521,1.31186 3.94913,1.79876 1.32863,0.4743 2.71986,0.84186 4.13012,0.80455 0.70092,-0.0185 1.40193,-0.13853 2.05735,-0.38762 0.30453,-0.11574 0.60093,-0.26047 0.85722,-0.46159 0.25629,-0.20111 0.47175,-0.46172 0.58644,-0.76664 0.10966,-0.29156 0.12349,-0.61369 0.0721,-0.92092 -0.0514,-0.30721 -0.16582,-0.60099 -0.30575,-0.87929 -0.30238,-0.60134 -0.72484,-1.13696 -1.20266,-1.61104 -0.89052,-0.88351 -1.9715,-1.55693 -3.10534,-2.09364 -1.15635,-0.54735 -2.37648,-0.9595 -3.62737,-1.22782 -0.71833,-0.15408 -1.44691,-0.2609 -2.17948,-0.31632 -0.73807,-0.0558 -1.47924,-0.0595 -2.21923,-0.0428 -1.0185,0.023 -2.0357,0.0846 -3.05251,0.14763 -1.01634,0.063 -2.03354,0.12759 -3.05181,0.12169 -1.04194,-0.006 -2.08254,-0.0859 -3.11725,-0.20844 -1.03279,-0.12234 -2.0609,-0.28731 -3.07685,-0.50973 -1.12371,-0.24602 -2.23215,-0.56228 -3.31539,-0.94937 -1.08049,-0.38611 -2.13649,-0.84298 -3.14801,-1.38462 -1.1072,-0.59289 -2.15886,-1.28609 -3.16496,-2.03787 -0.96724,-0.72276 -1.89395,-1.50072 -2.76073,-2.34133 -0.43454,-0.42145 -0.85383,-0.85841 -1.26419,-1.30344 -0.31048,-0.33671 -0.61656,-0.67891 -0.88488,-1.05009 -0.14776,-0.20439 -0.28405,-0.41769 -0.39608,-0.64364 -0.043,-0.0867 -0.083,-0.17793 -0.087,-0.2746 -0.002,-0.0484 0.005,-0.0975 0.0252,-0.14162 0.0198,-0.0442 0.0523,-0.0831 0.0943,-0.10714 0.0514,-0.0294 0.11364,-0.035 0.17227,-0.0269 0.0586,0.008 0.1146,0.0291 0.16991,0.0501 0.88072,0.3352 1.73597,0.7403 2.54086,1.23038 0.67924,0.41357 1.32039,0.88615 1.96002,1.35868 1.1231,0.82968 2.2478,1.66345 3.45811,2.35979 1.67444,0.96338 3.49404,1.65245 5.34379,2.20946 0.88886,0.26767 1.78755,0.50599 2.70003,0.67654 0.91604,0.17123 1.84474,0.27382 2.77591,0.31093 1.16618,0.0465 2.33391,-0.01 3.49889,-0.0801 1.16734,-0.0706 2.33414,-0.15567 3.50313,-0.18921 1.39643,-0.0401 2.79404,-0.007 4.18977,0.0529 1.39242,0.0593 2.78788,0.14499 4.15879,0.3959 0.76888,0.14071 1.52785,0.33308 2.27535,0.56159 0.74877,0.22889 1.48621,0.49405 2.21312,0.78496 0.92581,0.37051 1.83451,0.78276 2.73167,1.21807 0.8981,0.43575 1.78505,0.89482 2.6545,1.38525 0.86489,0.48784 1.71198,1.00644 2.56082,1.52169 0.84892,0.5153 1.69982,1.02737 2.55604,1.53047 1.18649,0.69715 2.3836,1.37723 3.60857,2.00428 1.22017,0.62459 2.46844,1.19665 3.75253,1.67626 0.68094,0.25434 1.37331,0.48303 2.08435,0.63395 0.70062,0.14871 1.42015,0.22122 2.13482,0.17398 0.48133,-0.0318 0.96119,-0.11851 1.41322,-0.28693 0.43033,-0.16034 0.847,-0.40726 1.10032,-0.7903 0.25442,-0.38469 0.31801,-0.86852 0.2844,-1.32851 -0.0346,-0.47329 -0.16514,-0.93855 -0.37417,-1.36458 -0.39483,-0.80472 -1.05526,-1.45019 -1.76807,-1.99368 -0.7314,-0.55766 -1.52958,-1.02496 -2.36132,-1.41756 -1.06867,-0.50442 -2.19226,-0.88599 -3.33329,-1.19347 -1.15104,-0.31018 -2.32066,-0.54562 -3.48919,-0.78146 -1.29992,-0.26234 -2.5997,-0.52542 -3.90195,-0.77592 -1.30258,-0.25055 -2.60761,-0.48852 -3.908,-0.75016 -1.39736,-0.28116 -2.78935,-0.58967 -4.17192,-0.93632 -1.37948,-0.34588 -2.75103,-0.73017 -4.08687,-1.21814 -1.15323,-0.42125 -2.27788,-0.91912 -3.37324,-1.47372 -1.09439,-0.55413 -2.16054,-1.16541 -3.17993,-1.84775 -1.12121,-0.7505 -2.18435,-1.58598 -3.19833,-2.47604 -1.01486,-0.89084 -1.98093,-1.8366 -2.906,-2.82036 -0.60817,-0.64676 -1.19966,-1.31115 -1.72853,-2.02422 -0.52831,-0.71232 -0.99197,-1.47025 -1.50317,-2.19495 -0.27615,-0.39147 -0.56621,-0.77327 -0.87353,-1.14079 -0.12757,-0.15255 -0.26202,-0.30995 -0.31169,-0.5025 -0.0248,-0.0963 -0.0267,-0.20001 0.006,-0.29403 0.0324,-0.094 0.101,-0.17718 0.19206,-0.21714 0.0489,-0.0215 0.10303,-0.0302 0.15643,-0.0281 0.0534,0.002 0.10609,0.0148 0.1557,0.0347 0.0992,0.0397 0.18497,0.10676 0.26472,0.17791 0.21361,0.1906 0.39356,0.41531 0.59015,0.62342 0.49882,0.52807 1.1006,0.94542 1.68307,1.37949 0.5802,0.43237 1.14528,0.88485 1.72817,1.3136 2.1096,1.55178 4.43609,2.78138 6.77794,3.95363 2.3317,1.16718 4.70573,2.29011 7.2261,2.95862 1.48316,0.3934 3.00554,0.626 4.53344,0.7676 1.53654,0.1424 3.08014,0.19338 4.62304,0.21986 1.8103,0.0311 3.62128,0.0285 5.43124,-0.0181 1.81173,-0.0467 3.6221,-0.13762 5.43087,-0.25115 2.09536,-0.13155 4.18868,-0.29346 6.28253,-0.44711 2.09307,-0.15358 4.18742,-0.29895 6.2852,-0.36082 1.99126,-0.0587 3.98428,-0.0422 5.97542,0.0206 1.99041,0.0628 3.9795,0.17189 5.96392,0.33845 2.11283,0.17732 4.22023,0.4198 6.31786,0.72874 2.09658,0.3088 4.18397,0.6841 6.24986,1.15641 1.22489,0.28004 2.44225,0.59421 3.64522,0.957 1.20185,0.36245 2.39073,0.77405 3.53634,1.28724 1.1004,0.49295 2.15742,1.07807 3.19061,1.69967 1.03557,0.62305 2.0486,1.28343 3.09326,1.89112 1.28663,0.74844 2.6188,1.41555 3.91763,2.14262 1.29302,0.72383 2.55613,1.50936 3.71278,2.43562 1.19352,0.95581 2.26578,2.05522 3.26916,3.20902 1.00502,1.15568 1.9436,2.36817 2.83517,3.61346 0.75189,1.05022 1.47127,2.12512 2.11356,3.24574 0.64061,1.11768 1.20424,2.28081 1.65675,3.48697 0.22201,0.59177 0.41751,1.19473 0.55073,1.81257 0.13218,0.61296 0.20265,1.24192 0.16743,1.86798 -0.0348,0.6189 -0.17274,1.22953 -0.37637,1.81502 -0.20425,0.58723 -0.47447,1.15064 -0.79064,1.68599 -0.56718,0.96041 -1.28046,1.82876 -2.05925,2.62724 -0.78216,0.80193 -1.63193,1.53621 -2.51899,2.22031 -1.076,0.8298 -2.20842,1.58711 -3.39199,2.25458 -1.18315,0.66723 -2.41832,1.24494 -3.6998,1.69528 -1.63737,0.57542 -3.3406,0.94 -5.04553,1.26439 -1.71355,0.32603 -3.44392,0.61388 -5.18819,0.62077 -0.0599,0 -0.11972,1.5e-4 -0.17957,0 -0.0598,-1.4e-4 -0.11968,0 -0.17951,0 z"
       id="path5648" />
    <path
       inkscape:connector-curvature="0"
       style="fill:#ffffff;fill-opacity:1;fill-rule:evenodd;stroke:none;stroke-width:1px;stroke-linecap:butt;stroke-linejoin:miter;stroke-opacity:1"
       d="m -418.47598,657.55512 c 0.003,0.0498 -0.0139,0.0997 -0.0423,0.1408 -0.0284,0.041 -0.0681,0.0735 -0.11203,0.0972 -0.0878,0.0473 -0.1897,0.0598 -0.28889,0.0708 -2.89502,0.32168 -5.82783,0.17934 -8.71331,-0.21899 -2.06306,-0.2848 -4.11031,-0.70064 -6.10433,-1.30165 -2.88022,-0.86811 -5.63269,-2.1171 -8.30367,-3.501 -2.26317,-1.17258 -4.47427,-2.44431 -6.64318,-3.78324 -0.0776,-0.0479 -0.15579,-0.0964 -0.22182,-0.1593 -0.066,-0.0629 -0.11986,-0.14217 -0.13702,-0.23175 -0.0197,-0.10303 0.011,-0.21079 0.0645,-0.30099 0.0536,-0.0902 0.12869,-0.1654 0.20478,-0.23761 0.59063,-0.5606 1.28382,-0.99907 1.93955,-1.48188 0.65573,-0.48284 1.28952,-1.02726 1.69837,-1.73148 0.53657,-0.9242 0.63668,-2.04789 0.50719,-3.10868 -0.16519,-1.35323 -0.69146,-2.66657 -1.54179,-3.73216 -0.64862,-0.81281 -1.47021,-1.47039 -2.16015,-2.24844 -0.0554,-0.0625 -0.11056,-0.12666 -0.147,-0.20177 -0.0182,-0.0376 -0.0316,-0.0777 -0.037,-0.11908 -0.005,-0.0414 -0.003,-0.0841 0.0102,-0.12379 0.0245,-0.0753 0.0843,-0.13513 0.15262,-0.17528 0.0683,-0.0402 0.14514,-0.0629 0.22131,-0.0846 1.02282,-0.29124 2.09518,-0.45865 3.03731,-0.95199 1.04163,-0.54545 1.88204,-1.50852 2.1713,-2.64819 0.19491,-0.76793 0.13652,-1.59591 -0.15149,-2.33401 -0.24401,-0.62534 -0.6447,-1.17985 -1.10312,-1.67018 -0.45842,-0.49036 -0.97571,-0.92133 -1.48897,-1.35393 -0.0254,-0.0214 -0.0511,-0.0431 -0.0707,-0.0699 -0.0196,-0.0268 -0.033,-0.0597 -0.0303,-0.0928 0.002,-0.024 0.0123,-0.0469 0.0275,-0.0656 0.0152,-0.0186 0.0351,-0.0331 0.0568,-0.0437 0.0433,-0.021 0.0923,-0.0264 0.14015,-0.0311 1.57205,-0.15324 3.18811,0.0878 4.71851,-0.30297 0.32403,-0.0827 0.64764,-0.19689 0.91014,-0.40411 0.13124,-0.10362 0.24564,-0.23004 0.327,-0.37612 0.0814,-0.14608 0.12896,-0.31221 0.12736,-0.47942 -0.003,-0.28694 -0.14684,-0.5534 -0.31279,-0.78749 -0.42672,-0.60193 -1.01834,-1.07389 -1.66292,-1.43297 -0.64457,-0.35907 -1.34332,-0.61044 -2.04805,-0.829 -1.89386,-0.58738 -3.85481,-0.9485 -5.82957,-1.12755 -1.94912,-0.17672 -3.90937,-0.17688 -5.86488,-0.25617 -0.84599,-0.0343 -1.69296,-0.0834 -2.53875,-0.0447 -0.0939,0.004 -0.19096,0.009 -0.2786,-0.0246 -0.0438,-0.0169 -0.0845,-0.0437 -0.11353,-0.0806 -0.0291,-0.0369 -0.0459,-0.0843 -0.0419,-0.13108 0.003,-0.031 0.0143,-0.0608 0.0314,-0.0867 0.0172,-0.0259 0.0398,-0.0479 0.065,-0.0661 0.0503,-0.0364 0.10984,-0.0575 0.16854,-0.0779 1.36655,-0.47355 2.78601,-0.78603 4.21885,-0.98271 1.97565,-0.27119 3.97795,-0.32319 5.96967,-0.22443 1.25067,0.062 2.5016,0.18382 3.72544,0.44886 1.36554,0.29571 2.68614,0.76713 3.99474,1.25676 1.35319,0.50631 2.69849,1.03352 4.03962,1.57097 1.09466,0.43869 2.23499,0.89239 3.41124,0.80793 0.30234,-0.0217 0.60383,-0.0798 0.88447,-0.19432 0.28065,-0.11453 0.54029,-0.28709 0.73739,-0.51738 0.16088,-0.18797 0.27852,-0.41338 0.33647,-0.65392 0.058,-0.24053 0.0557,-0.49588 -0.0107,-0.73422 -0.12094,-0.43408 -0.44241,-0.78523 -0.79651,-1.0639 -0.35411,-0.27867 -0.74953,-0.50219 -1.09786,-0.78804 -0.0235,-0.0193 -0.0469,-0.039 -0.0668,-0.0619 -0.0199,-0.023 -0.0363,-0.0496 -0.0438,-0.0791 -0.008,-0.0307 -0.006,-0.0636 0.004,-0.0937 0.01,-0.0302 0.0267,-0.0577 0.0476,-0.0815 0.0418,-0.0476 0.0981,-0.0798 0.15412,-0.10939 0.55069,-0.29069 1.1785,-0.40853 1.80049,-0.43846 0.62198,-0.0299 1.24446,0.0242 1.86624,0.0581 1.15331,0.0628 2.31341,0.0563 3.45613,0.22442 1.37561,0.20234 2.70229,0.65433 3.99474,1.16701 0.88177,0.34976 1.75331,0.72951 2.5848,1.18609 0.0472,0.0259 0.0951,0.0527 0.13267,0.0912 0.0188,0.0193 0.0349,0.0415 0.0456,0.0662 0.0108,0.0247 0.0161,0.052 0.0136,0.0788 -0.003,0.0309 -0.0162,0.0605 -0.0356,0.0847 -0.0194,0.0243 -0.0447,0.0434 -0.0723,0.0578 -0.0551,0.0287 -0.11787,0.0382 -0.17935,0.0472 -1.35332,0.19778 -2.71554,0.33851 -4.06038,0.58743 -1.05012,0.19437 -2.08914,0.45485 -3.09705,0.80791 -1.78407,0.62493 -3.45524,1.53397 -5.07198,2.51355 -1.57964,0.95712 -3.11555,1.98514 -4.62313,3.05217 -1.4781,1.04618 -2.96126,2.16333 -3.94985,3.68054 -0.25338,0.38887 -0.47361,0.80585 -0.5835,1.25678 -0.12469,0.51164 -0.10293,1.04757 -0.0449,1.57096 0.22058,1.98901 0.94886,3.88703 1.79539,5.70037 1.01441,2.17295 2.21051,4.26543 3.63566,6.19408 1.24849,1.68957 2.67251,3.25187 4.26405,4.62313 1.33209,1.1477 2.77718,2.15849 4.26405,3.09706 1.62626,1.02654 3.30859,1.97052 5.07198,2.73796 0.7852,0.34173 1.58527,0.64795 2.38123,0.9638 0.0703,0.0279 0.14156,0.0564 0.20109,0.10302 0.0298,0.0233 0.0563,0.051 0.0761,0.0832 0.0198,0.0322 0.0326,0.069 0.0346,0.10673 z"
       id="path5652" />
    <path
       inkscape:export-ydpi="150.05879"
       inkscape:export-xdpi="150.05879"
       inkscape:export-filename="/home/chrx/Sites/sjtfl-env/sjtfl/static/img/Heat.png"
       style="fill:#000000;fill-opacity:1;fill-rule:evenodd;stroke:none;stroke-width:1px;stroke-linecap:butt;stroke-linejoin:miter;stroke-opacity:1"
       d="m -414.79596,621.60849 c -3.65554,0.004 -3.90224,0.026 -5.6875,0.5162 -2.13343,0.58581 -5.61663,1.94546 -6.10685,2.38379 -0.47596,0.42557 -1.53574,2.06291 -1.53574,2.37269 0,0.14465 0.0458,0.30895 0.10206,0.36519 0.0562,0.0562 0.91602,-0.17427 1.91065,-0.51238 0.99463,-0.3381 2.2463,-0.69798 2.78126,-0.7998 0.65046,-0.12379 1.17737,-0.36512 1.59059,-0.72795 1.22446,-1.07508 1.9529,-1.27107 5.00399,-1.34689 5.80214,-0.14416 12.81479,1.2427 16.81188,3.32488 1.97907,1.03093 3.78088,2.4516 4.41385,3.48006 0.29326,0.47649 1.25302,1.56988 2.13281,2.42961 0.87978,0.85972 1.69958,1.56552 1.82178,1.56872 0.3921,0.0101 0.27314,-1.77348 -0.17774,-2.66463 -0.39992,-0.79047 -2.70766,-2.88984 -5.55419,-5.05294 -2.29588,-1.74466 -6.95862,-3.97983 -9.41993,-4.51557 -3.32622,-0.72399 -4.31744,-0.82471 -8.08692,-0.82098 z m -3.46409,3.2815 c -0.23544,0 -0.50103,0.14901 -0.69636,0.44711 -0.16012,0.24438 -0.43853,0.44433 -0.6186,0.44433 -0.40847,0 -1.26392,0.65679 -1.26392,0.97026 0,0.12829 0.20239,0.36583 0.44989,0.52799 0.2475,0.16217 0.40743,0.36422 0.35512,0.44885 -0.18881,0.30549 0.13103,0.71892 0.55611,0.71892 0.32845,0 0.49775,-0.15171 0.69428,-0.62207 0.24229,-0.57988 0.31404,-0.62207 1.05738,-0.62207 0.78806,0 0.79738,0.007 0.79738,0.60334 0,0.3873 0.10104,0.64162 0.28256,0.71127 0.3906,0.14989 0.57048,0.004 0.86646,-0.70468 0.21777,-0.52121 0.34009,-0.60947 0.84146,-0.60716 0.80135,0.004 0.99213,0.16359 1.06086,0.88764 0.0453,0.47694 0.1477,0.63325 0.4419,0.67518 0.3011,0.0429 0.42706,-0.0803 0.59118,-0.57764 0.1895,-0.57418 0.26966,-0.63248 0.87201,-0.63248 0.84493,0 1.35246,0.35477 1.22192,0.85396 -0.12264,0.46897 0.25845,1.01517 0.61339,0.87895 0.14687,-0.0564 0.31852,-0.36025 0.38151,-0.67518 0.11359,-0.56798 0.1211,-0.57156 0.94039,-0.45926 0.93398,0.128 1.30628,0.36533 1.30628,0.83279 0,0.41752 0.4769,0.88967 0.78072,0.77307 0.13056,-0.0501 0.33036,-0.29493 0.44399,-0.54431 0.18511,-0.40628 0.27564,-0.4408 0.86853,-0.33186 0.88931,0.16339 1.01712,0.32736 1.01712,1.30384 0,0.73194 0.0495,0.84084 0.40372,0.89111 0.31853,0.0452 0.45922,-0.0766 0.66859,-0.57764 0.2145,-0.51339 0.36057,-0.63492 0.76231,-0.63492 0.79112,0 1.17287,0.38065 1.04141,1.03795 -0.14454,0.72272 0.007,1.09486 0.44642,1.09486 0.22708,0 0.42254,-0.18731 0.55126,-0.52833 0.24662,-0.65337 0.55552,-0.78401 1.16499,-0.49329 0.38934,0.18574 0.48083,0.36247 0.52765,1.01954 0.0312,0.43725 0.14319,0.89912 0.2489,1.02649 0.27813,0.33512 0.54613,0.19162 0.84979,-0.45545 0.25332,-0.53977 0.30424,-0.56254 1.02197,-0.45926 0.67574,0.0972 0.75538,0.0706 0.75538,-0.25134 0,-0.1979 -0.25994,-0.56816 -0.57764,-0.82271 -0.3177,-0.25455 -0.67761,-0.54485 -0.79981,-0.64498 -0.12219,-0.10014 -0.22216,-0.34125 -0.22216,-0.53598 0,-0.47332 -0.45513,-0.62262 -1.00358,-0.32909 -0.3789,0.20278 -0.51763,0.19899 -0.91853,-0.026 -0.25972,-0.14578 -0.56597,-0.45331 -0.68073,-0.68351 -0.29862,-0.59899 -0.60152,-0.73071 -1.0317,-0.44886 -0.55109,0.36111 -1.37183,0.0897 -1.68049,-0.55542 -0.35119,-0.73404 -0.57673,-0.82545 -1.01642,-0.41239 -0.33676,0.31638 -0.46832,0.33659 -1.09695,0.16732 -0.55276,-0.14884 -0.75626,-0.31269 -0.89944,-0.72344 -0.20415,-0.58563 -0.72146,-0.71077 -1.09209,-0.26418 -0.25309,0.30496 -1.00961,0.34713 -1.67703,0.0934 -0.34793,-0.13229 -0.45579,-0.29824 -0.45579,-0.70052 0,-0.77114 -0.29445,-0.82876 -0.90325,-0.17704 -0.49696,0.53199 -0.58781,0.56341 -1.19485,0.41344 -0.53553,-0.13232 -0.66717,-0.25281 -0.71302,-0.65123 -0.0724,-0.62901 -0.59551,-0.6524 -0.99385,-0.0444 -0.44411,0.67779 -1.88253,0.5914 -1.88253,-0.11316 0,-0.55759 -0.50727,-0.60023 -1.04245,-0.0875 -0.68033,0.65179 -1.74511,0.66451 -1.90614,0.0229 -0.0748,-0.2981 -0.28005,-0.44711 -0.5155,-0.44711 z m -14.40587,3.29815 c -0.813,0.052 -3.76319,2.68985 -4.44822,4.08999 -0.41189,0.84187 -0.45694,1.09598 -0.34852,1.96375 0.14469,1.15812 0.51112,2.47177 1.02579,3.67827 0.57325,1.34385 0.85858,1.09134 1.31739,-1.16569 0.39824,-1.95917 1.57308,-5.7054 2.3161,-7.3857 0.22986,-0.51982 0.37212,-1.01905 0.31624,-1.10946 -0.0335,-0.0543 -0.0947,-0.0765 -0.17878,-0.0712 z m 9.4425,0.12775 c -0.41919,0.007 -1.03279,0.0885 -2.05888,0.21314 -2.96535,0.36014 -3.87672,0.59095 -4.1837,1.05946 -0.82381,1.25731 -2.92568,8.32921 -2.92568,9.84379 0,0.41823 0.20877,0.72316 0.97477,1.42326 1.37961,1.26088 6.77901,5.2795 8.8895,6.6161 4.37118,2.7683 10.03412,4.95028 14.21876,5.47888 3.34074,0.42199 7.40571,0.12148 10.21973,-0.75571 0.73316,-0.22855 1.91481,-0.59714 2.62575,-0.81892 1.60194,-0.49973 2.03741,-0.96943 2.33069,-2.51291 0.21421,-1.12744 0.64235,-2.91895 1.14104,-4.77489 0.27508,-1.02374 0.73473,-5.09044 0.71268,-6.3054 -0.011,-0.6075 -0.12842,-0.81171 -0.83418,-1.45069 -0.93339,-0.84507 -2.85995,-2.19704 -3.13083,-2.19704 -0.0992,0 -0.47877,0.15996 -0.84355,0.35546 -1.36893,0.73371 -3.68746,0.27803 -8.70031,-1.71033 -1.58263,-0.62776 -3.30221,-1.21845 -3.8213,-1.31254 -1.36255,-0.24696 -8.77292,-1.06502 -9.64765,-1.06502 -1.26045,0 -2.514,-0.48296 -3.47971,-1.34063 -0.62968,-0.55924 -0.78848,-0.75721 -1.48713,-0.74601 z m 35.32021,9.01829 c -0.12799,0 -0.23308,0.06 -0.23362,0.1333 0,0.0733 -0.0825,1.41299 -0.1826,2.97705 -0.18463,2.88372 -0.55146,4.94855 -1.57496,8.86902 -0.30366,1.16315 -0.55195,2.14291 -0.55195,2.17725 0,0.0343 0.13996,0.0603 0.31103,0.058 0.40573,-0.006 2.86787,-2.15662 3.87719,-3.38704 1.23735,-1.50841 1.41105,-1.97786 1.40661,-3.80705 -0.003,-1.38672 -0.0765,-1.76688 -0.54813,-2.85833 -0.7335,-1.69736 -2.21603,-4.16218 -2.50357,-4.16218 z m -44.6294,4.95783 c -0.0699,-0.003 -0.12578,0.0317 -0.18503,0.091 -0.74554,0.74554 0.0391,2.23314 2.59659,4.92379 5.14876,5.41676 12.17699,8.83565 20.56826,10.00521 0.29326,0.0409 1.93286,0.0501 3.64355,0.0208 4.07153,-0.0697 6.29665,-0.55282 9.62544,-2.09081 1.12458,-0.51959 1.37595,-0.71563 1.54615,-1.20389 0.23276,-0.66766 0.26519,-1.23957 0.0701,-1.24135 -0.0733,0 -0.93309,0.39469 -1.91063,0.87826 -3.08413,1.52563 -6.28115,2.11607 -10.2607,1.89466 -9.01907,-0.50179 -18.49064,-5.12691 -24.22119,-11.82732 -0.92723,-1.08416 -1.26283,-1.44002 -1.47255,-1.45033 z"
       id="path5656"
       inkscape:connector-curvature="0"
       sodipodi:nodetypes="cssscsccsssscssscscsssssssssscsccsscsssscsscssssccsssssssscsscsccssssscsssssscsssssccsssscsscsssscssscsssscssscssssccscssscsssc" />
  </g>
</svg>
