<?xml version="1.0" encoding="UTF-8" standalone="no"?>
<!-- Created with Inkscape (http://www.inkscape.org/) -->

<svg
   xmlns:dc="http://purl.org/dc/elements/1.1/"
   xmlns:cc="http://creativecommons.org/ns#"
   xmlns:rdf="http://www.w3.org/1999/02/22-rdf-syntax-ns#"
   xmlns:svg="http://www.w3.org/2000/svg"
   xmlns="http://www.w3.org/2000/svg"
   xmlns:sodipodi="http://sodipodi.sourceforge.net/DTD/sodipodi-0.dtd"
   xmlns:inkscape="http://www.inkscape.org/namespaces/inkscape"
   width="200"
   height="150"
   viewBox="0 0 200 150"
   id="svg2"
   version="1.1"
   inkscape:version="0.91 r13725"
   sodipodi:docname="Hurricanes.svg">
  <defs
     id="defs4">
    <pattern
       y="0"
       x="0"
       height="6"
       width="6"
       patternUnits="userSpaceOnUse"
       id="EMFhbasepattern" />
  </defs>
  <sodipodi:namedview
     id="base"
     pagecolor="#ffffff"
     bordercolor="#666666"
     borderopacity="1.0"
     inkscape:pageopacity="0.0"
     inkscape:pageshadow="2"
     inkscape:zoom="1.979899"
     inkscape:cx="110.574"
     inkscape:cy="35.722924"
     inkscape:document-units="px"
     inkscape:current-layer="layer1"
     showgrid="false"
     fit-margin-top="0"
     fit-margin-left="0"
     fit-margin-right="0"
     fit-margin-bottom="0"
     units="px"
     inkscape:window-width="1440"
     inkscape:window-height="837"
     inkscape:window-x="1432"
     inkscape:window-y="-8"
     inkscape:window-maximized="1" />
  <metadata
     id="metadata7">
    <rdf:RDF>
      <cc:Work
         rdf:about="">
        <dc:format>image/svg+xml</dc:format>
        <dc:type
           rdf:resource="http://purl.org/dc/dcmitype/StillImage" />
        <dc:title></dc:title>
      </cc:Work>
    </rdf:RDF>
  </metadata>
  <g
     inkscape:label="Layer 1"
     inkscape:groupmode="layer"
     id="layer1"
     transform="translate(536.30539,-546.064)">
    <g
       id="g4203"
       transform="matrix(1.0007475,0,0,1.0007475,-30.006196,-125.05478)">
      <path
         style="fill:#ffffff;fill-opacity:1;fill-rule:nonzero;stroke:none"
         d="m -360.50976,684.20995 c -27.93972,0 -58.48293,5.54564 -84.4756,15.72672 -7.57739,2.96331 -20.12922,9.12275 -26.03472,12.82683 -6.79441,4.2545 -12.34005,8.61483 -17.65286,13.88533 -5.69377,5.6515 -8.88991,9.8425 -11.81088,15.55722 -2.62466,5.12234 -3.85232,8.763 -4.76248,14.05467 -0.84666,5.03767 -0.88899,7.78933 -0.16933,12.446 1.20649,7.747 4.04281,13.48288 9.37675,18.79572 3.95814,3.97933 8.91111,7.13316 14.16041,9.12283 -0.21166,0.14817 -0.42333,0.3175 -0.61383,0.46567 -0.14817,0.127 -0.27517,0.23283 -0.48683,0.46566 -0.10584,0.10584 -0.23284,0.23284 -0.4445,0.52917 -0.1905,0.27517 -0.6985,0.5715 -0.6985,2.2225 0,2.01083 0.86783,2.6035 1.37583,3.06917 0.508,0.48683 0.99483,0.762 1.5875,0.99483 0.82547,0.3175 0.95247,0.27517 1.33347,0.33867 0.40217,0.0847 0.84667,0.14816 1.37584,0.21166 1.03708,0.16934 2.37058,0.33867 3.87341,0.508 2.9845,0.35984 6.604,0.71967 9.69433,0.97367 20.57372,1.69333 47.66706,-0.91017 70.99244,-6.77333 9.60967,-2.39184 20.15067,-5.79967 28.63822,-9.2075 10.37166,-4.191 23.241,-11.00639 30.81838,-16.44622 8.1915,-5.88433 16.08667,-13.75833 20.5105,-20.72217 8.53017,-13.39822 10.37167,-28.91338 4.23334,-41.27463 -4.02167,-8.10678 -11.176,-14.07575 -20.53167,-17.56822 0.21167,-0.16934 0.42333,-0.33867 0.635,-0.508 0.127,-0.127 0.254,-0.23281 0.4445,-0.42331 0.1905,-0.1905 0.4445,-0.0423 0.97367,-1.56633 0.1905,-0.635 0.33866,-1.8415 -0.127,-2.92097 -0.46567,-1.05833 -1.24884,-1.62983 -1.73567,-1.92617 -0.99483,-0.57149 -1.43933,-0.57149 -2.05317,-0.69849 -1.2065,-0.25399 -2.81488,-0.44449 -5.71472,-0.80432 -7.26016,-0.91016 -14.88016,-1.35466 -22.71183,-1.35466 z"
         id="path4159"
         inkscape:connector-curvature="0" />
      <path
         style="fill:#fbc41b;fill-opacity:1;fill-rule:nonzero;stroke:none"
         d="m -355.09109,700.741 c -6.62517,0 -8.9535,0.14817 -15.45167,0.99481 -11.74722,1.524 -25.52672,5.1858 -37.93038,10.09644 -6.37089,2.51875 -7.59855,3.68292 -2.01084,1.88375 1.48167,-0.48683 4.46617,-1.29108 6.604,-1.77791 2.11667,-0.508 5.1435,-1.2065 6.68867,-1.56634 6.1595,-1.46047 11.40883,-2.24364 18.81717,-2.87864 8.97438,-0.74083 23.30421,0.0212 29.69655,1.60864 1.05833,0.254 2.37066,0.5715 2.89983,0.6985 1.92617,0.42334 0.91017,0.80434 -2.81517,1.03717 -5.2705,0.33867 -8.3185,0.80433 -13.843,2.03191 -6.49816,1.48167 -7.239,1.92617 -4.5085,2.75167 1.60867,0.48683 4.7625,2.032 6.37117,3.13267 6.26533,4.2545 9.525,12.192 8.382,20.40466 -1.43933,10.41372 -8.4455,20.00222 -20.99705,28.76522 -18.4785,12.86905 -51.49822,24.06622 -81.57577,27.62222 -5.60917,0.67733 -6.43467,0.889 -4.67783,1.24883 1.9685,0.40217 17.03888,0.381 22.22472,-0.0212 31.66505,-2.45534 65.9336,-12.36134 88.5396,-25.56905 16.44622,-9.63084 27.02955,-21.12434 30.31038,-32.97739 1.5875,-5.75733 1.651,-13.05983 0.14817,-18.33033 -1.7145,-6.01134 -6.51933,-11.62039 -12.48833,-14.56256 -6.32856,-3.13263 -14.05439,-4.57194 -24.38372,-4.59311 z m -43.51839,30.755 c -16.97538,3.09033 -39.98355,16.14989 -45.57155,24.59539 -1.0795,1.60866 -1.3335,2.3495 -1.43933,4.14866 -0.23283,3.683 1.50283,5.7785 5.99017,7.112 3.048,0.93134 14.01233,0.93134 18.9865,0.0423 13.86388,-2.51883 24.21438,-5.16467 34.35321,-11.43 7.02734,-4.36033 17.94905,-13.25033 14.30839,-20.84888 -3.30172,-6.94267 -17.80089,-5.22817 -26.62739,-3.6195 z m 0.5715,11.00639 c 2.54,0 3.8735,0.40216 4.74134,1.35466 0.93133,1.05834 0.381,2.39184 -1.88384,4.59317 -5.35516,5.18583 -19.93871,9.652 -26.45805,8.128 -1.50283,-0.35983 -2.54,-1.3335 -2.54,-2.39183 0,-1.12184 2.89984,-4.14867 5.41867,-5.67267 5.29167,-3.19617 12.95372,-5.63033 18.77455,-5.94783 0.71967,-0.0423 1.37583,-0.0635 1.94733,-0.0635 z"
         id="path4161"
         inkscape:connector-curvature="0" />
      <path
         style="fill:#9c989d;fill-opacity:1;fill-rule:nonzero;stroke:none"
         d="m -360.50976,688.06226 c -27.41055,0 -57.59393,5.48213 -83.05743,15.47272 -7.21756,2.81513 -20.00222,9.10152 -25.39972,12.48819 -6.604,4.14866 -11.87442,8.27616 -16.99669,13.35616 -5.52448,5.50334 -8.31845,9.16517 -11.09125,14.58356 -2.51884,4.93183 -3.53481,7.91633 -4.38147,12.954 -0.84667,4.8895 -0.86784,6.70983 -0.16934,11.19716 1.12184,7.21784 3.38664,11.76839 8.29728,16.67905 4.55078,4.55084 10.75258,8.04334 16.8273,9.4615 1.48167,0.35984 2.75167,0.80434 2.81517,0.99484 0.0635,0.21166 -1.37584,1.35466 -3.2385,2.58233 -1.84142,1.22767 -3.36542,2.32833 -3.36542,2.4765 0,0.14817 0.23284,0.35983 0.48684,0.46567 0.8255,0.3175 9.18624,1.29116 15.21874,1.79916 19.95989,1.62984 46.84156,-0.93133 69.74361,-6.6675 9.41916,-2.37066 19.85433,-5.73616 28.13021,-9.05933 10.033,-4.04283 22.88117,-10.90055 30.01434,-16.02288 7.81022,-5.588 15.51488,-13.35617 19.51538,-19.64267 7.91634,-12.48805 9.44034,-26.56389 4.02167,-37.48589 -4.064,-8.19138 -11.64167,-13.94866 -22.24589,-16.8908 -1.50283,-0.42333 -2.77283,-0.93133 -2.81516,-1.10067 -0.0423,-0.1905 1.35466,-1.31233 3.09033,-2.49763 1.73539,-1.18534 3.21705,-2.32834 3.28055,-2.51884 0.127,-0.42333 -0.67733,-0.59266 -6.43438,-1.3123 -7.09084,-0.86783 -14.56267,-1.31233 -22.24617,-1.31233 z m -0.23283,2.60347 c 1.67216,-0.0212 3.34433,0 5.0165,0.0423 10.26583,0.27517 16.93333,0.889 16.91216,1.56633 0,0.14817 -1.41816,1.2065 -3.175,2.34947 -4.04283,2.667 -4.27566,2.921 -2.75166,3.17498 0.65616,0.0847 2.286,0.33866 3.64066,0.5715 10.94289,1.7145 19.26139,6.3923 23.93922,13.50425 3.21734,4.88941 4.55084,9.63074 4.52967,16.29824 0,8.61484 -2.6035,16.19222 -8.29733,24.15089 -2.56117,3.6195 -9.48267,10.6045 -13.67339,13.843 -23.28333,17.99138 -62.63188,30.79722 -103.86427,33.78172 -4.48733,0.3175 -22.22472,0.42333 -25.20922,0.127 -7.5565,-0.71967 -9.03816,-0.91017 -9.31333,-1.18534 -0.1905,-0.16933 1.18533,-1.27 3.25967,-2.62466 1.98966,-1.29117 3.51366,-2.4765 3.40783,-2.62467 -0.0847,-0.16933 -1.10067,-0.42333 -2.20133,-0.55033 -15.62089,-1.88384 -26.35231,-9.5885 -29.73894,-21.35689 -1.0795,-3.78883 -1.3335,-11.07016 -0.55034,-15.34583 1.69334,-8.93233 5.69381,-16.14989 13.37725,-24.06622 6.54045,-6.731 12.97503,-11.4935 23.28319,-17.25083 26.09822,-14.54133 67.07661,-24.34144 101.40866,-24.40494 z"
         id="path4163"
         inkscape:connector-curvature="0" />
      <path
         style="fill:#9c989d;fill-opacity:1;fill-rule:nonzero;stroke:none"
         d="m -458.12958,796.90044 c 0.254,-0.10584 0.635,-0.10584 0.889,0 0.23283,0.10583 0.0423,0.16933 -0.4445,0.16933 -0.48683,0 -0.67733,-0.0635 -0.4445,-0.16933 z"
         id="path4165"
         inkscape:connector-curvature="0" />
      <path
         style="fill:#9c989d;fill-opacity:1;fill-rule:nonzero;stroke:none"
         d="m -460.33091,796.43477 c 0.127,-0.21167 0.35983,-0.35983 0.55033,-0.35983 0.1905,0 0.33867,0.14816 0.33867,0.35983 0,0.1905 -0.254,0.33867 -0.55034,0.33867 -0.3175,0 -0.46566,-0.14817 -0.33866,-0.33867 z"
         id="path4167"
         inkscape:connector-curvature="0" />
      <path
         style="fill:#9c989d;fill-opacity:1;fill-rule:nonzero;stroke:none"
         d="m -435.88369,796.5406 c 0.254,-0.10583 0.5715,-0.0847 0.67733,0.0212 0.127,0.127 -0.0847,0.21167 -0.46567,0.1905 -0.40216,-0.0212 -0.48683,-0.10583 -0.21166,-0.21167 z"
         id="path4169"
         inkscape:connector-curvature="0" />
      <path
         style="fill:#9c989d;fill-opacity:1;fill-rule:nonzero;stroke:none"
         d="m -420.55903,756.91689 c -3.21733,-0.48684 -4.48733,-1.86267 -3.47133,-3.81 2.0955,-4.08517 12.192,-9.017 21.39922,-10.49867 8.0645,-1.31205 12.04383,0.91017 8.763,4.8895 -4.27567,5.18583 -19.30372,10.49867 -26.69089,9.41917 z"
         id="path4171"
         inkscape:connector-curvature="0" />
      <path
         style="fill:#9c989d;fill-opacity:1;fill-rule:nonzero;stroke:none"
         d="m -317.18187,728.702 c 0,-1.0795 0.0635,-1.50283 0.14816,-0.97367 0.0847,0.52917 0.0847,1.397 0,1.92617 -0.0847,0.55033 -0.14816,0.10583 -0.14816,-0.9525 z"
         id="path4173"
         inkscape:connector-curvature="0" />
      <path
         style="fill:#9c989d;fill-opacity:1;fill-rule:nonzero;stroke:none"
         d="m -358.24493,720.65867 c -0.4445,-0.55034 -0.42333,-0.5715 0.127,-0.127 0.59267,0.46566 0.78317,0.762 0.48684,0.762 -0.0635,0 -0.35984,-0.27517 -0.61384,-0.635 z"
         id="path4175"
         inkscape:connector-curvature="0" />
      <path
         style="fill:#9c989d;fill-opacity:1;fill-rule:nonzero;stroke:none"
         d="m -368.42609,714.96483 c 0,-0.1905 0.127,-0.42333 0.27516,-0.52916 0.16934,-0.0847 0.29634,0.0635 0.29634,0.33866 0,0.27517 -0.127,0.508 -0.29634,0.508 -0.14816,0 -0.27516,-0.14816 -0.27516,-0.3175 z"
         id="path4177"
         inkscape:connector-curvature="0" />
      <path
         style="fill:#643972;fill-opacity:1;fill-rule:nonzero;stroke:none"
         d="m -464.03508,789.70377 c -7.15433,-0.59267 -14.20275,-2.56117 -18.66889,-5.22817 -8.29727,-4.93183 -11.98024,-12.40338 -11.57808,-23.45238 0.21167,-5.75733 0.99483,-8.91117 3.55597,-14.1605 5.69381,-11.66255 17.44117,-21.84372 35.81383,-31.00889 20.87006,-10.41388 49.74111,-18.28783 76.38994,-20.84896 9.41888,-0.889 24.21438,-1.12184 23.43122,-0.35984 -0.0635,0.0635 -2.01084,0.381 -4.33917,0.6985 -22.88088,3.09031 -46.65105,10.01175 -64.57893,18.83814 -10.0965,4.953 -17.5895,9.906 -23.53734,15.5575 -7.78905,7.38716 -11.72605,14.54122 -12.63622,22.85972 -1.12183,10.37166 3.8735,18.77483 13.48289,22.62716 3.06917,1.24884 3.09033,1.22767 -3.25939,2.64584 -5.48216,1.2065 -11.6205,1.96821 -16.02316,1.96821 -5.88434,0 -5.05884,1.03717 1.94733,2.43417 7.239,1.43933 12.46717,1.905 21.33572,1.88383 11.83217,0 21.844,-1.27 33.29488,-4.16983 2.58234,-0.65588 4.8895,-1.18505 5.12234,-1.18505 0.71966,0.0212 -1.9685,1.07922 -7.72555,3.04772 -18.415,6.26533 -37.08372,9.0805 -52.02739,7.85283 z m 68.0926,-23.34655 c 0.0847,-0.10583 2.413,-1.86267 5.16467,-3.91583 5.37633,-4.04284 11.85333,-10.3505 14.4145,-13.12334 3.4925,-4.21216 7.89488,-7.95838 5.54538,-13.82155 -1.82005,-3.57717 -5.16438,-5.69383 -12.38221,-5.969 -7.57767,-0.29633 -17.10267,1.2065 -27.91855,4.78367 -13.10217,4.36033 -24.04534,10.15972 -31.4325,16.65788 -1.524,1.35467 -2.794,2.37067 -2.794,2.26484 0,-0.40217 5.05883,-11.76867 5.82083,-13.08072 1.05833,-1.82034 5.03767,-5.63034 7.89517,-7.5565 7.28133,-4.91067 20.87033,-9.779 33.90871,-12.14967 16.129,-2.94217 24.892,-1.7145 30.88189,4.27567 5.48216,5.48216 6.20183,12.80583 1.905,19.51538 -2.921,4.55084 -9.67289,10.45634 -17.16589,15.0495 -5.5245,3.38667 -15.02833,8.23384 -13.843,7.06967 z m -25.69605,-9.779 c -1.50283,-0.35983 -2.54,-1.3335 -2.54,-2.39183 0,-1.12184 2.89984,-4.14867 5.41867,-5.67267 5.29167,-3.19617 12.95372,-5.63033 18.77455,-5.94783 3.83117,-0.23284 5.60917,0.127 6.68867,1.29116 0.93133,1.05834 0.381,2.39184 -1.88384,4.59317 -5.35516,5.18583 -19.93871,9.652 -26.45805,8.128 z"
         id="path4183"
         inkscape:connector-curvature="0" />
    </g>
  </g>
</svg>
