<?xml version="1.0" encoding="UTF-8" standalone="no"?>
<!-- Created with Inkscape (http://www.inkscape.org/) -->

<svg
   xmlns:dc="http://purl.org/dc/elements/1.1/"
   xmlns:cc="http://creativecommons.org/ns#"
   xmlns:rdf="http://www.w3.org/1999/02/22-rdf-syntax-ns#"
   xmlns:svg="http://www.w3.org/2000/svg"
   xmlns="http://www.w3.org/2000/svg"
   xmlns:xlink="http://www.w3.org/1999/xlink"
   xmlns:sodipodi="http://sodipodi.sourceforge.net/DTD/sodipodi-0.dtd"
   xmlns:inkscape="http://www.inkscape.org/namespaces/inkscape"
   width="73.534981mm"
   height="98.920425mm"
   viewBox="0 0 260.55702 350.50544"
   id="svg5259"
   version="1.1"
   inkscape:version="0.91 r13725"
   sodipodi:docname="league_logo_header.svg">
  <defs
     id="defs5261">
    <linearGradient
       inkscape:collect="always"
       xlink:href="#linearGradient4648"
       id="linearGradient5251"
       gradientUnits="userSpaceOnUse"
       gradientTransform="matrix(0.99703105,0,0,0.99703105,-2403.0544,-12.952629)"
       x1="-730.87714"
       y1="67.567322"
       x2="-730.87714"
       y2="144.15427" />
    <linearGradient
       id="linearGradient4648"
       inkscape:collect="always">
      <stop
         id="stop4650"
         offset="0"
         style="stop-color:#221f54;stop-opacity:1" />
      <stop
         id="stop4652"
         offset="1"
         style="stop-color:#1a4f9d;stop-opacity:1" />
    </linearGradient>
    <linearGradient
       inkscape:collect="always"
       xlink:href="#linearGradient4642"
       id="linearGradient5253"
       gradientUnits="userSpaceOnUse"
       gradientTransform="matrix(0.99703105,0,0,0.99703105,-2403.0544,-12.952629)"
       x1="-731.98755"
       y1="121.65849"
       x2="-731.98755"
       y2="211.10085" />
    <linearGradient
       id="linearGradient4642"
       inkscape:collect="always">
      <stop
         id="stop4644"
         offset="0"
         style="stop-color:#4d4d4d;stop-opacity:1;" />
      <stop
         id="stop4646"
         offset="1"
         style="stop-color:#dcddde;stop-opacity:1" />
    </linearGradient>
    <linearGradient
       inkscape:collect="always"
       xlink:href="#linearGradient4642"
       id="linearGradient5255"
       gradientUnits="userSpaceOnUse"
       gradientTransform="matrix(0.99703105,0,0,0.99703105,-2403.0544,-12.952629)"
       x1="-720.31342"
       y1="196.31261"
       x2="-720.31342"
       y2="150.09636" />
    <linearGradient
       inkscape:collect="always"
       xlink:href="#linearGradient4648"
       id="linearGradient5257"
       gradientUnits="userSpaceOnUse"
       gradientTransform="matrix(0.99703105,0,0,0.99703105,-2403.0544,-12.952629)"
       x1="-732.19763"
       y1="137.55194"
       x2="-732.19763"
       y2="91.335678" />
    <inkscape:path-effect
       is_visible="true"
       id="path-effect4598"
       effect="spiro" />
    <inkscape:path-effect
       is_visible="true"
       id="path-effect4539"
       effect="spiro" />
    <inkscape:path-effect
       is_visible="true"
       id="path-effect4543"
       effect="spiro" />
    <inkscape:path-effect
       is_visible="true"
       id="path-effect4547"
       effect="spiro" />
    <inkscape:path-effect
       is_visible="true"
       id="path-effect4551"
       effect="spiro" />
    <inkscape:path-effect
       is_visible="true"
       id="path-effect4555"
       effect="spiro" />
    <inkscape:path-effect
       is_visible="true"
       id="path-effect4559"
       effect="spiro" />
    <inkscape:path-effect
       is_visible="true"
       id="path-effect4563"
       effect="spiro" />
  </defs>
  <sodipodi:namedview
     id="base"
     pagecolor="#ffffff"
     bordercolor="#666666"
     borderopacity="1.0"
     inkscape:pageopacity="0.0"
     inkscape:pageshadow="2"
     inkscape:zoom="1.979899"
     inkscape:cx="34.764737"
     inkscape:cy="182.52768"
     inkscape:document-units="px"
     inkscape:current-layer="layer1"
     showgrid="false"
     fit-margin-top="0"
     fit-margin-left="0"
     fit-margin-right="0"
     fit-margin-bottom="0"
     inkscape:window-width="2454"
     inkscape:window-height="1652"
     inkscape:window-x="106"
     inkscape:window-y="48"
     inkscape:window-maximized="1" />
  <metadata
     id="metadata5264">
    <rdf:RDF>
      <cc:Work
         rdf:about="">
        <dc:format>image/svg+xml</dc:format>
        <dc:type
           rdf:resource="http://purl.org/dc/dcmitype/StillImage" />
        <dc:title></dc:title>
      </cc:Work>
    </rdf:RDF>
  </metadata>
  <g
     inkscape:label="Layer 1"
     inkscape:groupmode="layer"
     id="layer1"
     transform="translate(618.84994,-594.25234)">
    <path
       transform="translate(1955.2787,619.23601)"
       sodipodi:type="inkscape:offset"
       inkscape:radius="-0.91651964"
       inkscape:original="M -2447.8125 44.957031 C -2480.9311 45.764588 -2514.8882 53.017093 -2542.7031 71.751953 C -2557.4417 81.556693 -2570.3417 95.928222 -2573.9766 113.69727 C -2577.8252 131.24832 -2570.9971 150.03973 -2558.2852 162.4082 C -2541.0779 181.06119 -2516.7659 191.22194 -2492.4746 196.88867 C -2447.8373 207.4229 -2399.2653 203.78469 -2357.8652 183.45703 C -2339.9895 174.35565 -2323.3033 160.48519 -2315.877 141.34961 C -2310.6274 127.6379 -2311.8142 111.65572 -2319.2441 98.960938 C -2329.1748 80.676803 -2347.1959 68.437083 -2365.834 60.226562 C -2391.5207 48.88288 -2419.8895 44.745702 -2447.8125 44.957031 z "
       style="opacity:1;fill:#ffffff;fill-opacity:1;stroke:none;stroke-width:20;stroke-linecap:round;stroke-linejoin:round;stroke-miterlimit:4;stroke-dasharray:none;stroke-dashoffset:0;stroke-opacity:1"
       id="path5150"
       d="m -2447.8047,45.873047 c -32.9958,0.806326 -66.7714,8.038229 -94.3867,26.638672 a 0.91661129,0.91661129 0 0 1 -0,0.0039 c -14.6001,9.712578 -27.3138,23.918252 -30.8828,41.365235 a 0.91661129,0.91661129 0 0 1 -0,0.0137 c -3.7707,17.19582 2.9386,35.69812 15.4355,47.85742 a 0.91661129,0.91661129 0 0 1 0.035,0.0352 c 17.028,18.45867 41.1587,28.56658 65.3457,34.20898 a 0.91661129,0.91661129 0 0 1 0,0 c 44.4425,10.48826 92.8006,6.86118 133.9825,-13.35547 l 0.01,-0.004 c 17.742,-9.03457 34.2302,-22.77639 41.543,-41.61524 l 0,-0.004 c 5.1463,-13.44566 3.9766,-29.15291 -3.3047,-41.593752 a 0.91661129,0.91661129 0 0 1 -0.014,-0.02539 c -9.7907,-18.026229 -27.6243,-30.171068 -46.1543,-38.333985 a 0.91661129,0.91661129 0 0 1 -0,0 c -25.5297,-11.274366 -53.7625,-15.400563 -81.5859,-15.191406 l -0.014,0 z" />
    <path
       transform="translate(1955.2787,619.23601)"
       sodipodi:type="inkscape:offset"
       inkscape:radius="8.0557566"
       inkscape:original="M -2557.0801 31.75 L -2557.0801 259.36523 C -2550.0183 273.93492 -2535.3765 284.5643 -2519.3359 286.76562 C -2510.3303 288.00153 -2501.1584 286.73532 -2492.0977 287.46484 C -2472.4887 289.04364 -2453.9393 300.57883 -2443.8496 317.4668 C -2433.7599 300.57882 -2415.2106 289.04363 -2395.6016 287.46484 C -2386.5409 286.73536 -2377.369 288.00152 -2368.3633 286.76562 C -2352.3228 284.5643 -2337.6808 273.93492 -2330.6191 259.36523 L -2330.6191 31.75 C -2346.8707 43.76172 -2367.0256 50.402344 -2387.2344 50.402344 C -2407.4432 50.402344 -2427.598 43.76172 -2443.8496 31.75 C -2460.1012 43.76172 -2480.2561 50.402344 -2500.4648 50.402344 C -2520.6736 50.402344 -2557.0801 31.75 -2557.0801 31.75 z "
       style="fill:#ffffff;fill-opacity:1;fill-rule:evenodd;stroke:none;stroke-width:1px;stroke-linecap:butt;stroke-linejoin:miter;stroke-opacity:1"
       id="path5152"
       d="m -2557.2949,23.697266 a 8.0565621,8.0565621 0 0 0 -7.8418,8.052734 l 0,227.61523 a 8.0565621,8.0565621 0 0 0 0.8066,3.51368 c 8.2973,17.11864 25.0515,29.28073 43.8985,31.86718 10.4698,1.43686 19.8035,0.11328 27.6875,0.74805 16.8853,1.35951 33.29,11.5609 41.9785,26.10352 a 8.0565621,8.0565621 0 0 0 13.832,0 c 8.6885,-14.54265 25.0932,-24.74402 41.9785,-26.10352 7.884,-0.63474 17.2177,0.68878 27.6875,-0.74805 18.8469,-2.58645 35.6013,-14.74844 43.8985,-31.86718 a 8.0565621,8.0565621 0 0 0 0.8066,-3.51368 l 0,-227.61523 a 8.0565621,8.0565621 0 0 0 -12.8457,-6.478516 c -14.8327,10.962982 -33.3821,17.074219 -51.8262,17.074219 -18.444,0 -36.9935,-6.111228 -51.8261,-17.074219 a 8.0565621,8.0565621 0 0 0 -9.5782,0 c -14.8327,10.962982 -33.3822,17.074219 -51.8261,17.074219 -7.626,0 -21.6331,-4.233037 -32.8868,-8.746094 -11.2536,-4.513056 -20.0546,-9.019531 -20.0546,-9.019531 a 8.0565621,8.0565621 0 0 0 -3.8887,-0.882812 z" />
    <path
       style="fill:#214f99;fill-opacity:1;fill-rule:evenodd;stroke:none;stroke-width:1px;stroke-linecap:butt;stroke-linejoin:miter;stroke-opacity:1"
       d="m -601.80134,650.9854 0,227.61523 c 7.0618,14.56969 21.7036,25.19907 37.7442,27.40039 9.0056,1.2359 18.1775,-0.0303 27.2382,0.69922 19.609,1.5788 38.1584,13.11398 48.2481,30.00195 10.0897,-16.88798 28.639,-28.42316 48.248,-30.00195 9.0607,-0.72948 18.2326,0.53667 27.2383,-0.69922 16.0405,-2.20133 30.6825,-12.8307 37.7442,-27.40039 l 0,-227.61523 c -16.2516,12.01172 -36.4065,18.65234 -56.6153,18.65234 -20.2088,0 -40.3636,-6.64062 -56.6152,-18.65234 -16.2516,12.01172 -36.4065,18.65234 -56.6152,18.65234 -20.2088,0 -56.6153,-18.65234 -56.6153,-18.65234 z"
       id="path5154"
       inkscape:connector-curvature="0"
       sodipodi:nodetypes="ccsscssccscsc" />
    <path
       sodipodi:type="inkscape:offset"
       inkscape:radius="-9.0009012"
       inkscape:original="M -2557.0801 257.54883 L -2557.0801 485.16406 C -2550.0183 499.73375 -2535.3765 510.36313 -2519.3359 512.56445 C -2510.3303 513.80035 -2501.1584 512.53415 -2492.0977 513.26367 C -2472.4887 514.84247 -2453.9393 526.37766 -2443.8496 543.26562 C -2433.7599 526.37765 -2415.2106 514.84246 -2395.6016 513.26367 C -2386.5409 512.53419 -2377.369 513.80034 -2368.3633 512.56445 C -2352.3228 510.36312 -2337.6808 499.73375 -2330.6191 485.16406 L -2330.6191 257.54883 C -2346.8707 269.56055 -2367.0256 276.20117 -2387.2344 276.20117 C -2407.4432 276.20117 -2427.598 269.56055 -2443.8496 257.54883 C -2460.1012 269.56055 -2480.2561 276.20117 -2500.4648 276.20117 C -2520.6736 276.20117 -2540.8285 269.56055 -2557.0801 257.54883 z "
       style="fill:#1a1818;fill-opacity:1;fill-rule:evenodd;stroke:none;stroke-width:1px;stroke-linecap:butt;stroke-linejoin:miter;stroke-opacity:1"
       id="path5156"
       d="m -2443.8496,268.41602 c -16.7905,10.84435 -36.5928,16.78515 -56.6152,16.78515 -16.5387,0 -32.9432,-4.02848 -47.6153,-11.53906 l 0,209.1543 c 5.9894,10.92141 17.662,19.14117 29.9688,20.83007 7.3696,1.01139 16.3608,-0.19085 26.7363,0.64454 18.3298,1.4758 35.4487,10.37286 47.5254,24.01757 12.0766,-13.64471 29.1956,-22.54178 47.5254,-24.01757 10.3754,-0.83534 19.3665,0.36685 26.7363,-0.64454 12.3067,-1.68891 23.9795,-9.90875 29.9688,-20.83007 l 0,-209.1543 c -14.6722,7.51058 -31.0766,11.53906 -47.6153,11.53906 -20.0225,0 -39.8248,-5.94081 -56.6152,-16.78515 z"
       transform="translate(1955.2787,393.43657)" />
    <path
       inkscape:connector-curvature="0"
       id="path5160"
       d="m -497.37314,672.88389 c -35.5947,1.93252 -73.4359,11.16205 -99.2328,36.81225 -13.5997,13.573 -19.46,35.30697 -9.8802,52.65181 14.387,26.29747 44.5272,39.26077 72.7595,45.92003 43.8878,9.50176 92.1406,6.00498 131.8694,-15.68138 19.6265,-10.95341 38.3454,-30.66194 35.664,-54.44196 -3.9942,-25.99893 -28.2255,-42.86335 -51.2876,-52.31721 -25.1912,-10.1843 -52.7732,-13.86858 -79.8923,-12.94354 z"
       style="opacity:1;fill:#ffffff;fill-opacity:1;stroke:none;stroke-width:20;stroke-linecap:round;stroke-linejoin:round;stroke-miterlimit:4;stroke-dasharray:none;stroke-dashoffset:0;stroke-opacity:1" />
    <g
       id="g5170"
       transform="translate(628.4899,619.23601)">
      <path
         inkscape:transform-center-x="-2.9390528e-05"
         inkscape:transform-center-y="-0.64274099"
         d="m -1208.6545,13.645659 1.8539,4.15914 4.5285,0.477955 -3.3827,3.048444 0.9448,4.454533 -3.9445,-2.275099 -3.9446,2.275098 0.9448,-4.454532 -3.3827,-3.048445 4.5285,-0.477954 z"
         inkscape:randomized="0"
         inkscape:rounded="0"
         inkscape:flatsided="false"
         sodipodi:arg2="-0.9424778"
         sodipodi:arg1="-1.5707963"
         sodipodi:r2="3.1541069"
         sodipodi:r1="6.7108665"
         sodipodi:cy="20.356525"
         sodipodi:cx="-1208.6545"
         sodipodi:sides="5"
         id="path5172"
         style="opacity:1;fill:#fdc115;fill-opacity:1;stroke:none;stroke-width:8;stroke-linecap:round;stroke-linejoin:round;stroke-miterlimit:4;stroke-dasharray:none;stroke-dashoffset:0;stroke-opacity:1"
         sodipodi:type="star" />
      <path
         sodipodi:type="star"
         style="opacity:1;fill:#fdc115;fill-opacity:1;stroke:none;stroke-width:8;stroke-linecap:round;stroke-linejoin:round;stroke-miterlimit:4;stroke-dasharray:none;stroke-dashoffset:0;stroke-opacity:1"
         id="path5174"
         sodipodi:sides="5"
         sodipodi:cx="-1193.699"
         sodipodi:cy="20.356525"
         sodipodi:r1="6.7108665"
         sodipodi:r2="3.1541069"
         sodipodi:arg1="-1.5707963"
         sodipodi:arg2="-0.9424778"
         inkscape:flatsided="false"
         inkscape:rounded="0"
         inkscape:randomized="0"
         d="m -1193.699,13.645659 1.854,4.15914 4.5284,0.477955 -3.3826,3.048444 0.9448,4.454533 -3.9446,-2.275099 -3.9445,2.275098 0.9448,-4.454532 -3.3827,-3.048445 4.5285,-0.477954 z"
         inkscape:transform-center-y="-0.64274099"
         inkscape:transform-center-x="-2.9390528e-05" />
      <path
         inkscape:transform-center-x="-2.9390528e-05"
         inkscape:transform-center-y="-0.64274099"
         d="m -1178.7437,13.645659 1.854,4.15914 4.5285,0.477955 -3.3827,3.048444 0.9448,4.454533 -3.9446,-2.275099 -3.9445,2.275098 0.9448,-4.454532 -3.3827,-3.048445 4.5285,-0.477954 z"
         inkscape:randomized="0"
         inkscape:rounded="0"
         inkscape:flatsided="false"
         sodipodi:arg2="-0.9424778"
         sodipodi:arg1="-1.5707963"
         sodipodi:r2="3.1541069"
         sodipodi:r1="6.7108665"
         sodipodi:cy="20.356525"
         sodipodi:cx="-1178.7437"
         sodipodi:sides="5"
         id="path5176"
         style="opacity:1;fill:#fdc115;fill-opacity:1;stroke:none;stroke-width:8;stroke-linecap:round;stroke-linejoin:round;stroke-miterlimit:4;stroke-dasharray:none;stroke-dashoffset:0;stroke-opacity:1"
         sodipodi:type="star" />
      <path
         sodipodi:type="star"
         style="opacity:1;fill:#fdc115;fill-opacity:1;stroke:none;stroke-width:8;stroke-linecap:round;stroke-linejoin:round;stroke-miterlimit:4;stroke-dasharray:none;stroke-dashoffset:0;stroke-opacity:1"
         id="path5178"
         sodipodi:sides="5"
         sodipodi:cx="-1055.3778"
         sodipodi:cy="20.356525"
         sodipodi:r1="6.7108665"
         sodipodi:r2="3.1541069"
         sodipodi:arg1="-1.5707963"
         sodipodi:arg2="-0.9424778"
         inkscape:flatsided="false"
         inkscape:rounded="0"
         inkscape:randomized="0"
         d="m -1055.3778,13.645659 1.8539,4.15914 4.5285,0.477955 -3.3827,3.048444 0.9448,4.454533 -3.9445,-2.275099 -3.9446,2.275098 0.9449,-4.454532 -3.3827,-3.048445 4.5285,-0.477954 z"
         inkscape:transform-center-y="-0.64274099"
         inkscape:transform-center-x="-2.9390528e-05" />
      <path
         inkscape:transform-center-x="-2.9390528e-05"
         inkscape:transform-center-y="-0.64274099"
         d="m -1040.4222,13.645659 1.8539,4.15914 4.5285,0.477955 -3.3827,3.048444 0.9448,4.454533 -3.9445,-2.275099 -3.9446,2.275098 0.9448,-4.454532 -3.3827,-3.048445 4.5285,-0.477954 z"
         inkscape:randomized="0"
         inkscape:rounded="0"
         inkscape:flatsided="false"
         sodipodi:arg2="-0.9424778"
         sodipodi:arg1="-1.5707963"
         sodipodi:r2="3.1541069"
         sodipodi:r1="6.7108665"
         sodipodi:cy="20.356525"
         sodipodi:cx="-1040.4222"
         sodipodi:sides="5"
         id="path5180"
         style="opacity:1;fill:#fdc115;fill-opacity:1;stroke:none;stroke-width:8;stroke-linecap:round;stroke-linejoin:round;stroke-miterlimit:4;stroke-dasharray:none;stroke-dashoffset:0;stroke-opacity:1"
         sodipodi:type="star" />
      <path
         sodipodi:type="star"
         style="opacity:1;fill:#fdc115;fill-opacity:1;stroke:none;stroke-width:8;stroke-linecap:round;stroke-linejoin:round;stroke-miterlimit:4;stroke-dasharray:none;stroke-dashoffset:0;stroke-opacity:1"
         id="path5182"
         sodipodi:sides="5"
         sodipodi:cx="-1025.4668"
         sodipodi:cy="20.356525"
         sodipodi:r1="6.7108665"
         sodipodi:r2="3.1541069"
         sodipodi:arg1="-1.5707963"
         sodipodi:arg2="-0.9424778"
         inkscape:flatsided="false"
         inkscape:rounded="0"
         inkscape:randomized="0"
         d="m -1025.4668,13.645659 1.8539,4.15914 4.5285,0.477955 -3.3827,3.048444 0.9449,4.454533 -3.9446,-2.275099 -3.9445,2.275098 0.9448,-4.454532 -3.3827,-3.048445 4.5285,-0.477954 z"
         inkscape:transform-center-y="-0.64274099"
         inkscape:transform-center-x="-2.9390528e-05" />
      <path
         sodipodi:nodetypes="cassssasaacaaaaaaacc"
         inkscape:connector-curvature="0"
         inkscape:original-d="m -1161.2448,15.289413 c 0,0 7.6921,-1.57973 10.621,-3.96826 4.1994,-3.4246195 4.6361,-9.8472195 8.6368,-13.7722195 2.8069,-2.75385 11.0521,-7.06377 14.7064,-9.4639805 3.6543,-2.40021 3.1846,1.19428 6.7689,2.8113105 3.0018,1.35421 -1.0124,2.31889 0.3502,3.03456 2.1239,1.11555 3.4878,2.01693 5.3816,1.87242 5.3069,-0.40494 11.925,-6.4828705 14.1096,-7.4741905 4.7637,-2.16161 5.5135,-4.1156 8.6368,-5.48555 9.2557,-4.05976 19.1936,-7.48597 29.295,-7.81981 5.8261,-0.19255 17.157,3.38469 17.157,3.38469 0,0 -5.2641,6.03256 -8.2866,8.63681 -3.4674,2.9875005 -7.8807,4.7901505 -11.2046,7.9365405 -4.9067,4.64469998 -9.4924,9.87636 -12.6051,15.8730595 -2.7279,5.25548 -1.6198,12.19152 -5.0187,17.04019 -4.9354,7.04073 -12.3269,13.6895 -20.775,15.2895 -4.9049,0.92894 -9.8837,-5.81721 -14.4725,-3.85156 -2.9768,1.27516 -2.1967,6.42783 -4.6686,8.5201 -6.2263,5.27028 -23.1092,8.05325 -23.1092,8.05325 z"
         inkscape:path-effect="#path-effect4598"
         id="path5184"
         d="m -1161.2448,15.289413 c 3.8774,0.151701 7.793,-1.311283 10.621,-3.96826 1.9828,-1.8628804 3.407,-4.2361598 4.676,-6.642655 1.2691,-2.4064951 2.4159,-4.89015902 3.9608,-7.1295645 3.402,-4.9312415 8.7917,-8.5116635 14.7064,-9.4639805 1.3293,-0.214026 2.7172,-0.295259 3.9999,0.114138 0.6413,0.204698 1.2479,0.532961 1.7404,0.991886 0.4925,0.458924 0.8675,1.0516523 1.0286,1.7052865 0.1223,0.49623 0.1208,1.0131733 0.1329,1.524114 0.012,0.5109407 0.04,1.0309695 0.2173,1.510446 0.1793,0.4857621 0.5077,0.9107379 0.9134,1.2325334 0.4056,0.3217955 0.8864,0.5426962 1.3876,0.6728705 1.0023,0.2603484 2.0634,0.1610788 3.0806,-0.032984 5.2711,-1.0056065 9.7143,-4.3956224 14.1096,-7.4741905 2.7947,-1.957504 5.6546,-3.827657 8.6368,-5.48555 8.936,-4.967759 19.0725,-7.996938 29.295,-7.81981 5.8591,0.101521 11.6984,1.253485 17.157,3.38469 -2.3591,3.232459 -5.1545,6.146032 -8.2866,8.63681 -3.5831,2.849466 -7.5846,5.1339901 -11.2046,7.9365405 -5.4016,4.1819085 -9.9512,9.5783989 -12.6051,15.8730595 -2.3022,5.460546 -3.13,11.423217 -5.0187,17.04019 -1.5217,4.525324 -3.8206,8.926289 -7.4522,12.025524 -1.8158,1.549617 -3.9497,2.747503 -6.257,3.35949 -2.3074,0.611986 -4.7896,0.62382 -7.0658,-0.09551 -2.4828,-0.78464 -4.618,-2.383392 -6.9758,-3.48844 -1.1789,-0.552524 -2.4293,-0.984816 -3.7257,-1.10531 -1.2963,-0.120493 -2.646,0.08696 -3.771,0.74219 -1.4311,0.833492 -2.3792,2.307513 -3.0199,3.834717 -0.6406,1.527204 -1.0264,3.150608 -1.6487,4.685383 -1.7341,4.27682 -5.3736,7.739155 -9.7316,9.257849 -4.358,1.518695 -9.361,1.068188 -13.3776,-1.204599 l -15.523,-40.61686 z"
         style="fill:#ffffff;fill-opacity:1;fill-rule:evenodd;stroke:none;stroke-width:1px;stroke-linecap:butt;stroke-linejoin:miter;stroke-opacity:1" />
      <g
         id="g5186"
         transform="translate(-10.300235,-601.70588)">
        <path
           sodipodi:nodetypes="csssaccaaaccc"
           inkscape:connector-curvature="0"
           inkscape:original-d="m -1104.7521,619.67976 c 0,0 7.44,0.11411 10.6462,-1.48552 5.7528,-2.87012 9.9667,-7.80194 14.0398,-12.96496 4.0731,-5.16302 8.0054,-10.55724 13.1948,-14.35215 5.6709,-4.14696 11.7893,-8.59485 18.7341,-9.65591 2.374,-0.36271 7.0975,1.23794 7.0975,1.23794 0,0 -1.9669,2.37052 -3.3012,3.05358 -3.6999,1.03052 -9.144,0.52151 -13.0395,2.64093 -9.0568,4.92742 -14.4926,14.67018 -21.6226,22.11778 -4.1723,4.35813 -6.9742,10.52419 -12.3794,13.20465 -3.5927,1.78162 -11.9667,1.23793 -11.9667,1.23793 l 1.403,-3.05358 z"
           inkscape:path-effect="#path-effect4539"
           id="path5188"
           d="m -1104.7521,619.67976 c 3.5934,0.52709 7.3344,0.005 10.6462,-1.48552 2.933,-1.32009 5.4931,-3.36214 7.7557,-5.64821 2.2625,-2.28607 4.2509,-4.82454 6.2841,-7.31675 4.1113,-5.03942 8.4344,-9.92078 13.1948,-14.35215 2.6288,-2.44712 5.4073,-4.76755 8.5291,-6.54323 3.1219,-1.77568 6.6154,-2.99489 10.205,-3.11268 2.4172,-0.0793 4.8499,0.34497 7.0975,1.23794 l -3.3012,3.05358 c -4.4722,-0.13818 -8.9735,0.77348 -13.0395,2.64093 -4.7496,2.18142 -8.8406,5.61619 -12.3307,9.50669 -3.4902,3.89051 -6.4183,8.24535 -9.2919,12.61109 -1.6792,2.55115 -3.3503,5.11993 -5.3364,7.44023 -1.986,2.32031 -4.3106,4.39991 -7.043,5.76442 -3.6664,1.83091 -8.0031,2.27953 -11.9667,1.23793 l 1.403,-3.05358 -2.806,-1.98069 z"
           style="fill:#f6d40d;fill-opacity:1;fill-rule:evenodd;stroke:#ce0a1f;stroke-width:2;stroke-linecap:round;stroke-linejoin:round;stroke-miterlimit:4;stroke-dasharray:none;stroke-opacity:1" />
        <path
           sodipodi:nodetypes="caacaac"
           inkscape:connector-curvature="0"
           inkscape:original-d="m -1102.6889,628.09772 c 0,0 8.0075,3.17577 11.7191,1.81564 8.0017,-2.93222 10.8404,-13.17502 16.7534,-19.3118 6.0097,-6.237 18.9817,-17.74374 18.9817,-17.74374 0,0 -11.7462,15.87542 -17.3311,24.01595 -5.7583,8.39334 -6.7548,23.28656 -16.6709,25.584 -3.7136,0.86042 -9.8209,-5.85956 -9.8209,-5.85956"
           inkscape:path-effect="#path-effect4543"
           id="path5190"
           d="m -1102.6889,628.09772 c 3.3654,2.32443 7.8081,3.01275 11.7191,1.81564 4.178,-1.27885 7.5058,-4.49816 10.0266,-8.067 2.5208,-3.56884 4.3886,-7.55373 6.7268,-11.2448 4.6853,-7.39624 11.2867,-13.56718 18.9817,-17.74374 -8.1985,5.81635 -14.3946,14.40232 -17.3311,24.01595 -1.6005,5.23969 -2.2701,10.78496 -4.5255,15.77788 -1.1277,2.49646 -2.6634,4.84343 -4.7264,6.64569 -2.0629,1.80226 -4.6826,3.03296 -7.419,3.16043 -2.0168,0.094 -4.058,-0.41791 -5.7919,-1.45241 -1.7339,-1.0345 -3.1538,-2.58767 -4.029,-4.40715"
           style="fill:none;fill-rule:evenodd;stroke:#ce0a1f;stroke-width:2;stroke-linecap:round;stroke-linejoin:round;stroke-miterlimit:4;stroke-dasharray:none;stroke-opacity:1" />
        <path
           sodipodi:nodetypes="csssssssscsssc"
           inkscape:connector-curvature="0"
           inkscape:original-d="m -1144.5311,620.42252 c 0,0 5.8718,-2.68613 7.5793,-4.68033 1.7074,-1.9942 3.8189,-8.63354 5.9022,-10.47769 2.8987,-2.56587 11.0874,-7.6561 13.9188,-10.91014 2.8314,-3.25405 -0.054,0.45863 3.7131,1.35049 1.408,0.33334 0.3065,-0.0458 0.1807,1.86919 -0.1259,1.91495 0.724,2.03896 1.8,3.04151 4.0428,3.76675 -1.7193,5.07297 4.3526,0.55827 6.072,-4.51472 25.3144,-13.31453 31.7126,-15.33096 5.8927,-1.85712 17.001,-4.70416 17.001,-4.70416 0,0 -7.7506,5.02467 -11.8842,8.17037 -5.1871,3.94751 -11.978,12.26712 -16.1708,17.65802 -4.1928,5.3909 -5.7875,7.85309 -12.1366,9.32898 -3.4831,0.80966 -10.2336,-3.21864 -10.2336,-3.21864"
           inkscape:path-effect="#path-effect4547"
           id="path5192"
           d="m -1144.5311,620.42252 c 2.9182,-0.75502 5.5972,-2.40932 7.5793,-4.68033 2.6434,-3.0287 3.9599,-6.958 5.9022,-10.47769 1.4765,-2.67569 3.3521,-5.15739 5.702,-7.11114 2.35,-1.95375 5.1918,-3.36421 8.2168,-3.799 0.7055,-0.1014 1.435,-0.14861 2.1224,0.0397 0.3437,0.0941 0.6733,0.24766 0.953,0.46843 0.2797,0.22077 0.5084,0.51032 0.6377,0.84237 0.1142,0.29318 0.1493,0.61119 0.1599,0.92565 0.011,0.31446 -0,0.62975 0.021,0.94354 0.09,1.21919 0.7632,2.39372 1.8,3.04151 0.6331,0.39556 1.3757,0.59202 2.1195,0.65524 0.7439,0.0632 1.4927,-0.002 2.2331,-0.097 5.8623,-0.75512 11.3126,-3.39816 16.4039,-6.40084 5.0913,-3.00268 9.962,-6.4103 15.3087,-8.93012 5.3447,-2.51886 11.1217,-4.11735 17.001,-4.70416 -4.2409,2.28375 -8.2333,5.02853 -11.8842,8.17037 -6.058,5.21327 -11.122,11.46226 -16.1708,17.65802 -1.6468,2.02092 -3.3067,4.05148 -5.2803,5.75475 -1.9735,1.70327 -4.2969,3.07889 -6.8563,3.57423 -3.6589,0.70813 -7.6387,-0.54359 -10.2336,-3.21864"
           style="fill:none;fill-rule:evenodd;stroke:#ce0a1f;stroke-width:2;stroke-linecap:round;stroke-linejoin:round;stroke-miterlimit:4;stroke-dasharray:none;stroke-opacity:1" />
        <path
           sodipodi:nodetypes="caaccaac"
           inkscape:connector-curvature="0"
           inkscape:original-d="m -1145.6865,622.48574 c 0,0 7.1111,-1.15676 9.9035,-3.21863 5.6547,-4.17541 6.868,-12.58989 12.1317,-17.24857 2.0092,-1.77818 7.0975,-3.79633 7.0975,-3.79633 l 5.1994,17.00098 c 0,0 -5.8866,-2.08791 -8.8306,-1.56805 -4.9161,0.86808 -8.2108,5.9631 -12.9571,7.51014 -3.9976,1.30299 -12.5444,1.32046 -12.5444,1.32046 z"
           inkscape:path-effect="#path-effect4551"
           id="path5194"
           d="m -1145.6865,622.48574 c 3.5471,0.21242 7.1591,-0.96147 9.9035,-3.21863 2.7303,-2.24552 4.5204,-5.4074 6.1978,-8.51918 1.6775,-3.11178 3.3528,-6.31388 5.9339,-8.72939 1.9814,-1.85427 4.4553,-3.17749 7.0975,-3.79633 l 5.1994,17.00098 c -2.5726,-1.67862 -5.8374,-2.25835 -8.8306,-1.56805 -2.4458,0.56405 -4.6341,1.91207 -6.6844,3.35997 -2.0503,1.44789 -4.0284,3.02619 -6.2727,4.15017 -3.8416,1.92396 -8.3864,2.40235 -12.5444,1.32046 z"
           style="fill:#002272;fill-opacity:1;fill-rule:evenodd;stroke:#002272;stroke-width:1px;stroke-linecap:butt;stroke-linejoin:round;stroke-opacity:1" />
        <path
           sodipodi:nodetypes="ccaaacaaac"
           inkscape:connector-curvature="0"
           inkscape:original-d="m -1145.3564,626.52967 4.7042,11.80165 c 0,0 2.7938,1.7198 4.2089,1.32046 3.5467,-1.00083 4.8962,-5.51041 7.2626,-8.33543 2.676,-3.19471 4.2376,-7.64364 7.8403,-9.73842 3.2763,-1.90504 11.2239,-1.81564 11.2239,-1.81564 0,0 -8.0925,-2.88701 -12.1318,-2.14576 -3.9072,0.71702 -6.7169,4.25958 -10.2336,6.10715 -2.866,1.50575 -5.6002,3.82979 -8.8306,4.04392 -1.4066,0.0932 -4.0439,-1.23793 -4.0439,-1.23793 z"
           inkscape:path-effect="#path-effect4555"
           id="path5196"
           d="m -1145.3564,626.52967 4.7042,11.80165 c 1.1125,1.03607 2.7039,1.53533 4.2089,1.32046 0.9549,-0.13633 1.8605,-0.54437 2.6409,-1.11127 0.7804,-0.56691 1.4395,-1.28934 1.9958,-2.07735 1.1125,-1.57603 1.8136,-3.39705 2.6259,-5.14681 1.7801,-3.83429 4.2498,-7.50716 7.8403,-9.73842 3.3046,-2.05354 7.4404,-2.72258 11.2239,-1.81564 -3.4592,-2.459 -8.039,-3.26905 -12.1318,-2.14576 -3.8576,1.05874 -7.0743,3.65341 -10.2336,6.10715 -1.3044,1.01314 -2.6274,2.01802 -4.0914,2.78278 -1.464,0.76475 -3.0877,1.28464 -4.7392,1.26114 -1.4285,-0.0203 -2.8488,-0.4551 -4.0439,-1.23793 z"
           style="fill:#002272;fill-opacity:1;fill-rule:evenodd;stroke:#002272;stroke-width:1px;stroke-linecap:butt;stroke-linejoin:round;stroke-opacity:1" />
        <path
           sodipodi:nodetypes="ccssscaaac"
           inkscape:connector-curvature="0"
           inkscape:original-d="m -1138.6715,642.12766 4.9517,11.88418 c 0,0 4.9553,2.23129 6.9324,0.99035 2.9218,-1.83388 3.6223,-5.27427 4.0261,-9.00155 0.4038,-3.72728 0.511,-7.74145 2.2461,-10.72289 2.7516,-4.72786 11.1415,-12.04924 11.1415,-12.04924 0,0 -8.9652,2.11137 -12.7095,4.62162 -2.7498,1.8435 -4.6781,4.71208 -6.6849,7.34509 -1.9337,2.53727 -2.16,6.88994 -5.1168,8.08784 -1.5212,0.61634 -4.7866,-1.1554 -4.7866,-1.1554 z"
           inkscape:path-effect="#path-effect4559"
           id="path5198"
           d="m -1138.6715,642.12766 4.9517,11.88418 c 0.8597,0.92398 2.0418,1.54193 3.2912,1.72041 1.2493,0.17848 2.5572,-0.0838 3.6412,-0.73006 1.4652,-0.87361 2.4604,-2.38694 3.0386,-3.99187 0.5781,-1.60493 0.7822,-3.31619 0.9875,-5.00968 0.4407,-3.63546 0.9154,-7.31115 2.2461,-10.72289 2.035,-5.2174 6.0991,-9.61268 11.1415,-12.04924 -4.5257,0.48837 -8.9272,2.08893 -12.7095,4.62162 -2.7861,1.8656 -5.2845,4.29853 -6.6849,7.34509 -0.6873,1.49527 -1.0976,3.10691 -1.8007,4.5948 -0.3516,0.74395 -0.7783,1.45799 -1.3262,2.07185 -0.548,0.61386 -1.2218,1.12604 -1.9899,1.42119 -0.8147,0.31304 -1.7248,0.3723 -2.5732,0.16751 -0.8484,-0.20478 -1.6313,-0.6727 -2.2134,-1.32291 z"
           style="fill:#002272;fill-opacity:1;fill-rule:evenodd;stroke:#002272;stroke-width:1px;stroke-linecap:round;stroke-linejoin:round;stroke-opacity:1" />
        <path
           sodipodi:nodetypes="caaccaaac"
           inkscape:connector-curvature="0"
           inkscape:original-d="m -1123.4037,655.3323 c 0,0 3.7891,-4.59307 5.0343,-7.26255 2.0735,-4.44534 1.7938,-9.75508 3.8789,-14.195 1.528,-3.25369 6.1896,-8.8306 6.1896,-8.8306 l 4.2916,12.21429 c 0,0 -4.0128,-0.64656 -5.612,0.33012 -2.726,1.66476 -3.3234,5.45781 -4.8692,8.2529 -1.3041,2.35795 -1.753,5.33185 -3.7138,7.18003 -1.3802,1.30086 -5.1994,2.31081 -5.1994,2.31081 z"
           inkscape:path-effect="#path-effect4563"
           id="path5200"
           d="m -1123.4037,655.3323 c 2.1693,-2.02571 3.8986,-4.52034 5.0343,-7.26255 1.8794,-4.53783 2.1108,-9.61269 3.8789,-14.195 1.3069,-3.38686 3.4517,-6.44681 6.1896,-8.8306 l 4.2916,12.21429 c -1.7845,-0.76981 -3.93,-0.6436 -5.612,0.33012 -1.4176,0.8207 -2.4644,2.17415 -3.2002,3.63764 -0.7359,1.46349 -1.1902,3.04872 -1.669,4.61526 -0.7967,2.60686 -1.7399,5.30009 -3.7138,7.18003 -1.4007,1.33398 -3.2706,2.16507 -5.1994,2.31081 z"
           style="fill:#002272;fill-opacity:1;fill-rule:evenodd;stroke:#002272;stroke-width:1px;stroke-linecap:butt;stroke-linejoin:round;stroke-opacity:1" />
      </g>
    </g>
    <path
       inkscape:connector-curvature="0"
       id="path6127"
       style="font-style:normal;font-variant:normal;font-weight:bold;font-stretch:normal;font-size:22.43319893px;line-height:125%;font-family:sans-serif;-inkscape-font-specification:'sans-serif Bold';letter-spacing:0px;word-spacing:0px;fill:#ffffff;fill-opacity:1;stroke:none;stroke-width:1px;stroke-linecap:butt;stroke-linejoin:miter;stroke-opacity:1"
       d="m -541.3331,825.98964 0,3.46137 q -1.3474,-0.60245 -2.6289,-0.90916 -1.2816,-0.3067 -2.4208,-0.3067 -1.5116,0 -2.2346,0.41624 -0.7229,0.41624 -0.7229,1.29254 0,0.65722 0.482,1.02965 0.4929,0.36147 1.7745,0.62436 l 1.7964,0.36147 q 2.7274,0.54769 3.8776,1.66496 1.1501,1.11728 1.1501,3.17658 0,2.70557 -1.6102,4.03097 -1.5992,1.31444 -4.8963,1.31444 -1.5554,0 -3.1218,-0.29575 -1.5664,-0.29575 -3.1328,-0.8763 l 0,-3.55995 q 1.5664,0.83248 3.0233,1.25968 1.4678,0.41624 2.826,0.41624 1.3802,0 2.1141,-0.46006 0.7339,-0.46006 0.7339,-1.31444 0,-0.76676 -0.5039,-1.18301 -0.4929,-0.41624 -1.9826,-0.74485 l -1.6321,-0.36147 q -2.4536,-0.52578 -3.5928,-1.67592 -1.1283,-1.15014 -1.1283,-3.0999 0,-2.44268 1.5774,-3.75712 1.5773,-1.31445 4.5348,-1.31445 1.3473,0 2.7713,0.20812 1.424,0.19717 2.9466,0.60246 z" />
    <path
       inkscape:connector-curvature="0"
       id="path6129"
       style="font-style:normal;font-variant:normal;font-weight:bold;font-stretch:normal;font-size:22.43319893px;line-height:125%;font-family:sans-serif;-inkscape-font-specification:'sans-serif Bold';letter-spacing:0px;word-spacing:0px;fill:#ffffff;fill-opacity:1;stroke:none;stroke-width:1px;stroke-linecap:butt;stroke-linejoin:miter;stroke-opacity:1"
       d="m -538.4961,825.47481 15.0723,0 0,3.18753 -5.4221,0 0,13.16636 -4.2172,0 0,-13.16636 -5.433,0 0,-3.18753 z" />
    <path
       inkscape:connector-curvature="0"
       id="path6131"
       style="font-style:normal;font-variant:normal;font-weight:bold;font-stretch:normal;font-size:22.43319893px;line-height:125%;font-family:sans-serif;-inkscape-font-specification:'sans-serif Bold';letter-spacing:0px;word-spacing:0px;fill:#ffffff;fill-opacity:1;stroke:none;stroke-width:1px;stroke-linecap:butt;stroke-linejoin:miter;stroke-opacity:1"
       d="m -524.4425,837.58962 3.9433,0 0,4.23908 -3.9433,0 0,-4.23908 z" />
    <path
       inkscape:connector-curvature="0"
       id="path6133"
       style="font-style:normal;font-variant:normal;font-weight:bold;font-stretch:normal;font-size:22.43319893px;line-height:125%;font-family:sans-serif;-inkscape-font-specification:'sans-serif Bold';letter-spacing:0px;word-spacing:0px;fill:#ffffff;fill-opacity:1;stroke:none;stroke-width:1px;stroke-linecap:butt;stroke-linejoin:miter;stroke-opacity:1"
       d="m -508.3296,825.47481 4.2172,0 0,14.76561 q 0,3.05608 -1.665,4.56769 -1.654,1.51162 -5.0168,1.51162 l -0.8544,0 0,-3.18753 0.6572,0 q 1.3145,0 1.9827,-0.7339 0.6791,-0.7339 0.6791,-2.15788 l 0,-14.76561 z" />
    <path
       inkscape:connector-curvature="0"
       id="path6135"
       style="font-style:normal;font-variant:normal;font-weight:bold;font-stretch:normal;font-size:22.43319893px;line-height:125%;font-family:sans-serif;-inkscape-font-specification:'sans-serif Bold';letter-spacing:0px;word-spacing:0px;fill:#ffffff;fill-opacity:1;stroke:none;stroke-width:1px;stroke-linecap:butt;stroke-linejoin:miter;stroke-opacity:1"
       d="m -492.4905,828.23515 q -1.9279,0 -2.9904,1.42398 -1.0625,1.42398 -1.0625,4.00906 0,2.57412 1.0625,3.9981 1.0625,1.42399 2.9904,1.42399 1.9388,0 3.0013,-1.42399 1.0625,-1.42398 1.0625,-3.9981 0,-2.58508 -1.0625,-4.00906 -1.0625,-1.42398 -3.0013,-1.42398 z m 0,-3.05609 q 3.9433,0 6.1778,2.25647 2.2346,2.25646 2.2346,6.23266 0,3.96524 -2.2346,6.22171 -2.2345,2.25646 -6.1778,2.25646 -3.9324,0 -6.1779,-2.25646 -2.2346,-2.25647 -2.2346,-6.22171 0,-3.9762 2.2346,-6.23266 2.2455,-2.25647 6.1779,-2.25647 z" />
    <path
       inkscape:connector-curvature="0"
       id="path6137"
       style="font-style:normal;font-variant:normal;font-weight:bold;font-stretch:normal;font-size:22.43319893px;line-height:125%;font-family:sans-serif;-inkscape-font-specification:'sans-serif Bold';letter-spacing:0px;word-spacing:0px;fill:#ffffff;fill-opacity:1;stroke:none;stroke-width:1px;stroke-linecap:butt;stroke-linejoin:miter;stroke-opacity:1"
       d="m -480.9015,825.47481 4.2172,0 0,6.23267 6.2217,0 0,-6.23267 4.2171,0 0,16.35389 -4.2171,0 0,-6.93369 -6.2217,0 0,6.93369 -4.2172,0 0,-16.35389 z" />
    <path
       inkscape:connector-curvature="0"
       id="path6139"
       style="font-style:normal;font-variant:normal;font-weight:bold;font-stretch:normal;font-size:22.43319893px;line-height:125%;font-family:sans-serif;-inkscape-font-specification:'sans-serif Bold';letter-spacing:0px;word-spacing:0px;fill:#ffffff;fill-opacity:1;stroke:none;stroke-width:1px;stroke-linecap:butt;stroke-linejoin:miter;stroke-opacity:1"
       d="m -462.105,825.47481 4.7101,0 5.9479,11.2166 0,-11.2166 3.9981,0 0,16.35389 -4.7101,0 -5.9479,-11.2166 0,11.2166 -3.9981,0 0,-16.35389 z" />
    <path
       inkscape:connector-curvature="0"
       id="path6141"
       style="font-style:normal;font-variant:normal;font-weight:bold;font-stretch:normal;font-size:22.43319893px;line-height:125%;font-family:sans-serif;-inkscape-font-specification:'sans-serif Bold';letter-spacing:0px;word-spacing:0px;fill:#ffffff;fill-opacity:1;stroke:none;stroke-width:1px;stroke-linecap:butt;stroke-linejoin:miter;stroke-opacity:1"
       d="m -440.6357,825.47481 0,6.07931 -2.596,0 0,-6.07931 2.596,0 z" />
    <path
       inkscape:connector-curvature="0"
       id="path6143"
       style="font-style:normal;font-variant:normal;font-weight:bold;font-stretch:normal;font-size:22.43319893px;line-height:125%;font-family:sans-serif;-inkscape-font-specification:'sans-serif Bold';letter-spacing:0px;word-spacing:0px;fill:#ffffff;fill-opacity:1;stroke:none;stroke-width:1px;stroke-linecap:butt;stroke-linejoin:miter;stroke-opacity:1"
       d="m -425.0486,825.98964 0,3.46137 q -1.3473,-0.60245 -2.6288,-0.90916 -1.2816,-0.3067 -2.4208,-0.3067 -1.5116,0 -2.2346,0.41624 -0.7229,0.41624 -0.7229,1.29254 0,0.65722 0.4819,1.02965 0.493,0.36147 1.7745,0.62436 l 1.7965,0.36147 q 2.7274,0.54769 3.8776,1.66496 1.1501,1.11728 1.1501,3.17658 0,2.70557 -1.6102,4.03097 -1.5992,1.31444 -4.8963,1.31444 -1.5554,0 -3.1218,-0.29575 -1.5664,-0.29575 -3.1328,-0.8763 l 0,-3.55995 q 1.5664,0.83248 3.0233,1.25968 1.4678,0.41624 2.826,0.41624 1.3802,0 2.1141,-0.46006 0.7339,-0.46006 0.7339,-1.31444 0,-0.76676 -0.5039,-1.18301 -0.4929,-0.41624 -1.9826,-0.74485 l -1.6321,-0.36147 q -2.4536,-0.52578 -3.5928,-1.67592 -1.1283,-1.15014 -1.1283,-3.0999 0,-2.44268 1.5774,-3.75712 1.5773,-1.31445 4.5348,-1.31445 1.3473,0 2.7713,0.20812 1.424,0.19717 2.9465,0.60246 z" />
    <path
       inkscape:connector-curvature="0"
       id="path6088"
       style="font-style:normal;font-variant:normal;font-weight:bold;font-stretch:normal;font-size:19.94062042px;line-height:100%;font-family:sans-serif;-inkscape-font-specification:'sans-serif Bold';text-align:center;letter-spacing:0px;word-spacing:0px;text-anchor:middle;fill:#fdc115;fill-opacity:1;stroke:none;stroke-width:1px;stroke-linecap:butt;stroke-linejoin:miter;stroke-opacity:1"
       d="m -589.3206,849.69165 13.3976,0 0,2.83336 -4.8196,0 0,11.70343 -3.7486,0 0,-11.70343 -4.8294,0 0,-2.83336 z" />
    <path
       inkscape:connector-curvature="0"
       id="path6090"
       style="font-style:normal;font-variant:normal;font-weight:bold;font-stretch:normal;font-size:19.94062042px;line-height:100%;font-family:sans-serif;-inkscape-font-specification:'sans-serif Bold';text-align:center;letter-spacing:0px;word-spacing:0px;text-anchor:middle;fill:#fdc115;fill-opacity:1;stroke:none;stroke-width:1px;stroke-linecap:butt;stroke-linejoin:miter;stroke-opacity:1"
       d="m -567.3548,852.14529 q -1.7136,0 -2.6581,1.26576 -0.9444,1.26576 -0.9444,3.5636 0,2.28811 0.9444,3.55387 0.9445,1.26577 2.6581,1.26577 1.7234,0 2.6679,-1.26577 0.9444,-1.26576 0.9444,-3.55387 0,-2.29784 -0.9444,-3.5636 -0.9445,-1.26576 -2.6679,-1.26576 z m 0,-2.71653 q 3.5052,0 5.4915,2.00575 1.9863,2.00575 1.9863,5.54014 0,3.52466 -1.9863,5.53041 -1.9863,2.00575 -5.4915,2.00575 -3.4954,0 -5.4914,-2.00575 -1.9863,-2.00575 -1.9863,-5.53041 0,-3.53439 1.9863,-5.54014 1.996,-2.00575 5.4914,-2.00575 z" />
    <path
       inkscape:connector-curvature="0"
       id="path6092"
       style="font-style:normal;font-variant:normal;font-weight:bold;font-stretch:normal;font-size:19.94062042px;line-height:100%;font-family:sans-serif;-inkscape-font-specification:'sans-serif Bold';text-align:center;letter-spacing:0px;word-spacing:0px;text-anchor:middle;fill:#fdc115;fill-opacity:1;stroke:none;stroke-width:1px;stroke-linecap:butt;stroke-linejoin:miter;stroke-opacity:1"
       d="m -557.0534,849.69165 3.7486,0 0,8.71429 q 0,1.80128 0.5842,2.58021 0.5939,0.76919 1.9279,0.76919 1.3436,0 1.9278,-0.76919 0.5939,-0.77893 0.5939,-2.58021 l 0,-8.71429 3.7486,0 0,8.71429 q 0,3.08651 -1.5481,4.59569 -1.5481,1.50918 -4.7222,1.50918 -3.1644,0 -4.7126,-1.50918 -1.5481,-1.50918 -1.5481,-4.59569 l 0,-8.71429 z" />
    <path
       inkscape:connector-curvature="0"
       id="path6094"
       style="font-style:normal;font-variant:normal;font-weight:bold;font-stretch:normal;font-size:19.94062042px;line-height:100%;font-family:sans-serif;-inkscape-font-specification:'sans-serif Bold';text-align:center;letter-spacing:0px;word-spacing:0px;text-anchor:middle;fill:#fdc115;fill-opacity:1;stroke:none;stroke-width:1px;stroke-linecap:butt;stroke-linejoin:miter;stroke-opacity:1"
       d="m -529.3235,863.43004 q -1.0321,0.53552 -2.1518,0.80814 -1.1197,0.27263 -2.3368,0.27263 -3.6317,0 -5.7543,-2.02522 -2.1226,-2.03496 -2.1226,-5.51094 0,-3.48571 2.1226,-5.51093 2.1226,-2.03496 5.7543,-2.03496 1.2171,0 2.3368,0.27263 1.1197,0.27263 2.1518,0.80814 l 0,3.00862 q -1.0418,-0.71077 -2.0544,-1.04182 -1.0126,-0.33104 -2.1323,-0.33104 -2.0058,0 -3.1547,1.28523 -1.1489,1.28524 -1.1489,3.54413 0,2.24917 1.1489,3.5344 1.1489,1.28524 3.1547,1.28524 1.1197,0 2.1323,-0.33105 1.0126,-0.33104 2.0544,-1.04182 l 0,3.00862 z" />
    <path
       inkscape:connector-curvature="0"
       id="path6096"
       style="font-style:normal;font-variant:normal;font-weight:bold;font-stretch:normal;font-size:19.94062042px;line-height:100%;font-family:sans-serif;-inkscape-font-specification:'sans-serif Bold';text-align:center;letter-spacing:0px;word-spacing:0px;text-anchor:middle;fill:#fdc115;fill-opacity:1;stroke:none;stroke-width:1px;stroke-linecap:butt;stroke-linejoin:miter;stroke-opacity:1"
       d="m -526.2077,849.69165 3.7486,0 0,5.54015 5.5304,0 0,-5.54015 3.7486,0 0,14.53679 -3.7486,0 0,-6.16328 -5.5304,0 0,6.16328 -3.7486,0 0,-14.53679 z" />
    <path
       inkscape:connector-curvature="0"
       id="path6098"
       style="font-style:normal;font-variant:normal;font-weight:bold;font-stretch:normal;font-size:19.94062042px;line-height:100%;font-family:sans-serif;-inkscape-font-specification:'sans-serif Bold';text-align:center;letter-spacing:0px;word-spacing:0px;text-anchor:middle;fill:#fdc115;fill-opacity:1;stroke:none;stroke-width:1px;stroke-linecap:butt;stroke-linejoin:miter;stroke-opacity:1"
       d="m -502.5672,849.69165 10.1164,0 0,2.83336 -6.3678,0 0,2.70679 5.988,0 0,2.83336 -5.988,0 0,6.16328 -3.7486,0 0,-14.53679 z" />
    <path
       inkscape:connector-curvature="0"
       id="path6100"
       style="font-style:normal;font-variant:normal;font-weight:bold;font-stretch:normal;font-size:19.94062042px;line-height:100%;font-family:sans-serif;-inkscape-font-specification:'sans-serif Bold';text-align:center;letter-spacing:0px;word-spacing:0px;text-anchor:middle;fill:#fdc115;fill-opacity:1;stroke:none;stroke-width:1px;stroke-linecap:butt;stroke-linejoin:miter;stroke-opacity:1"
       d="m -482.2955,852.14529 q -1.7137,0 -2.6581,1.26576 -0.9445,1.26576 -0.9445,3.5636 0,2.28811 0.9445,3.55387 0.9444,1.26577 2.6581,1.26577 1.7233,0 2.6678,-1.26577 0.9444,-1.26576 0.9444,-3.55387 0,-2.29784 -0.9444,-3.5636 -0.9445,-1.26576 -2.6678,-1.26576 z m 0,-2.71653 q 3.5051,0 5.4914,2.00575 1.9863,2.00575 1.9863,5.54014 0,3.52466 -1.9863,5.53041 -1.9863,2.00575 -5.4914,2.00575 -3.4955,0 -5.4915,-2.00575 -1.9863,-2.00575 -1.9863,-5.53041 0,-3.53439 1.9863,-5.54014 1.996,-2.00575 5.4915,-2.00575 z" />
    <path
       inkscape:connector-curvature="0"
       id="path6102"
       style="font-style:normal;font-variant:normal;font-weight:bold;font-stretch:normal;font-size:19.94062042px;line-height:100%;font-family:sans-serif;-inkscape-font-specification:'sans-serif Bold';text-align:center;letter-spacing:0px;word-spacing:0px;text-anchor:middle;fill:#fdc115;fill-opacity:1;stroke:none;stroke-width:1px;stroke-linecap:butt;stroke-linejoin:miter;stroke-opacity:1"
       d="m -465.3538,852.14529 q -1.7137,0 -2.6581,1.26576 -0.9445,1.26576 -0.9445,3.5636 0,2.28811 0.9445,3.55387 0.9444,1.26577 2.6581,1.26577 1.7234,0 2.6678,-1.26577 0.9445,-1.26576 0.9445,-3.55387 0,-2.29784 -0.9445,-3.5636 -0.9444,-1.26576 -2.6678,-1.26576 z m 0,-2.71653 q 3.5052,0 5.4915,2.00575 1.9862,2.00575 1.9862,5.54014 0,3.52466 -1.9862,5.53041 -1.9863,2.00575 -5.4915,2.00575 -3.4955,0 -5.4915,-2.00575 -1.9862,-2.00575 -1.9862,-5.53041 0,-3.53439 1.9862,-5.54014 1.996,-2.00575 5.4915,-2.00575 z" />
    <path
       inkscape:connector-curvature="0"
       id="path6104"
       style="font-style:normal;font-variant:normal;font-weight:bold;font-stretch:normal;font-size:19.94062042px;line-height:100%;font-family:sans-serif;-inkscape-font-specification:'sans-serif Bold';text-align:center;letter-spacing:0px;word-spacing:0px;text-anchor:middle;fill:#fdc115;fill-opacity:1;stroke:none;stroke-width:1px;stroke-linecap:butt;stroke-linejoin:miter;stroke-opacity:1"
       d="m -456.7856,849.69165 13.3976,0 0,2.83336 -4.8196,0 0,11.70343 -3.7486,0 0,-11.70343 -4.8294,0 0,-2.83336 z" />
    <path
       inkscape:connector-curvature="0"
       id="path6106"
       style="font-style:normal;font-variant:normal;font-weight:bold;font-stretch:normal;font-size:19.94062042px;line-height:100%;font-family:sans-serif;-inkscape-font-specification:'sans-serif Bold';text-align:center;letter-spacing:0px;word-spacing:0px;text-anchor:middle;fill:#fdc115;fill-opacity:1;stroke:none;stroke-width:1px;stroke-linecap:butt;stroke-linejoin:miter;stroke-opacity:1"
       d="m -435.6376,855.31943 q 0.886,0 1.3437,-0.38947 0.4576,-0.38946 0.4576,-1.14892 0,-0.74972 -0.4576,-1.13919 -0.4577,-0.3992 -1.3437,-0.3992 l -2.0739,0 0,3.07678 2.0739,0 z m 0.1266,6.35802 q 1.1294,0 1.6942,-0.4771 0.5744,-0.47709 0.5744,-1.44102 0,-0.94445 -0.5647,-1.41181 -0.5647,-0.4771 -1.7039,-0.4771 l -2.2005,0 0,3.80703 2.2005,0 z m 3.4857,-5.22857 q 1.2073,0.35051 1.8694,1.29497 0.6621,0.94445 0.6621,2.31732 0,2.10311 -1.4215,3.13519 -1.4216,1.03208 -4.3231,1.03208 l -6.2217,0 0,-14.53679 5.6278,0 q 3.0281,0 4.3815,0.91525 1.3631,0.91524 1.3631,2.93072 0,1.0613 -0.4966,1.81102 -0.4966,0.73998 -1.441,1.10024 z" />
    <path
       inkscape:connector-curvature="0"
       id="path6108"
       style="font-style:normal;font-variant:normal;font-weight:bold;font-stretch:normal;font-size:19.94062042px;line-height:100%;font-family:sans-serif;-inkscape-font-specification:'sans-serif Bold';text-align:center;letter-spacing:0px;word-spacing:0px;text-anchor:middle;fill:#fdc115;fill-opacity:1;stroke:none;stroke-width:1px;stroke-linecap:butt;stroke-linejoin:miter;stroke-opacity:1"
       d="m -417.4496,861.58008 -5.8614,0 -0.925,2.64836 -3.7681,0 5.3844,-14.53679 4.4691,0 5.3843,14.53679 -3.768,0 -0.9153,-2.64836 z m -4.9267,-2.69705 3.9823,0 -1.9863,-5.78356 -1.996,5.78356 z" />
    <path
       inkscape:connector-curvature="0"
       id="path6110"
       style="font-style:normal;font-variant:normal;font-weight:bold;font-stretch:normal;font-size:19.94062042px;line-height:100%;font-family:sans-serif;-inkscape-font-specification:'sans-serif Bold';text-align:center;letter-spacing:0px;word-spacing:0px;text-anchor:middle;fill:#fdc115;fill-opacity:1;stroke:none;stroke-width:1px;stroke-linecap:butt;stroke-linejoin:miter;stroke-opacity:1"
       d="m -410.8481,849.69165 3.7486,0 0,11.70343 6.5819,0 0,2.83336 -10.3305,0 0,-14.53679 z" />
    <path
       inkscape:connector-curvature="0"
       id="path6112"
       style="font-style:normal;font-variant:normal;font-weight:bold;font-stretch:normal;font-size:19.94062042px;line-height:100%;font-family:sans-serif;-inkscape-font-specification:'sans-serif Bold';text-align:center;letter-spacing:0px;word-spacing:0px;text-anchor:middle;fill:#fdc115;fill-opacity:1;stroke:none;stroke-width:1px;stroke-linecap:butt;stroke-linejoin:miter;stroke-opacity:1"
       d="m -398.1516,849.69165 3.7486,0 0,11.70343 6.582,0 0,2.83336 -10.3306,0 0,-14.53679 z" />
    <path
       inkscape:connector-curvature="0"
       id="path6114"
       style="font-style:normal;font-variant:normal;font-weight:bold;font-stretch:normal;font-size:19.94062042px;line-height:100%;font-family:sans-serif;-inkscape-font-specification:'sans-serif Bold';text-align:center;letter-spacing:0px;word-spacing:0px;text-anchor:middle;fill:#fdc115;fill-opacity:1;stroke:none;stroke-width:1px;stroke-linecap:butt;stroke-linejoin:miter;stroke-opacity:1"
       d="m -530.4919,869.63227 3.7486,0 0,11.70343 6.582,0 0,2.83336 -10.3306,0 0,-14.53679 z" />
    <path
       inkscape:connector-curvature="0"
       id="path6116"
       style="font-style:normal;font-variant:normal;font-weight:bold;font-stretch:normal;font-size:19.94062042px;line-height:100%;font-family:sans-serif;-inkscape-font-specification:'sans-serif Bold';text-align:center;letter-spacing:0px;word-spacing:0px;text-anchor:middle;fill:#fdc115;fill-opacity:1;stroke:none;stroke-width:1px;stroke-linecap:butt;stroke-linejoin:miter;stroke-opacity:1"
       d="m -517.7953,869.63227 10.1164,0 0,2.83336 -6.3678,0 0,2.70678 5.988,0 0,2.83336 -5.988,0 0,3.32993 6.582,0 0,2.83336 -10.3306,0 0,-14.53679 z" />
    <path
       inkscape:connector-curvature="0"
       id="path6118"
       style="font-style:normal;font-variant:normal;font-weight:bold;font-stretch:normal;font-size:19.94062042px;line-height:100%;font-family:sans-serif;-inkscape-font-specification:'sans-serif Bold';text-align:center;letter-spacing:0px;word-spacing:0px;text-anchor:middle;fill:#fdc115;fill-opacity:1;stroke:none;stroke-width:1px;stroke-linecap:butt;stroke-linejoin:miter;stroke-opacity:1"
       d="m -495.3426,881.52069 -5.8615,0 -0.925,2.64837 -3.768,0 5.3843,-14.53679 4.4691,0 5.3844,14.53679 -3.7681,0 -0.9152,-2.64837 z m -4.9268,-2.69704 3.9823,0 -1.9863,-5.78356 -1.996,5.78356 z" />
    <path
       inkscape:connector-curvature="0"
       id="path6120"
       style="font-style:normal;font-variant:normal;font-weight:bold;font-stretch:normal;font-size:19.94062042px;line-height:100%;font-family:sans-serif;-inkscape-font-specification:'sans-serif Bold';text-align:center;letter-spacing:0px;word-spacing:0px;text-anchor:middle;fill:#fdc115;fill-opacity:1;stroke:none;stroke-width:1px;stroke-linecap:butt;stroke-linejoin:miter;stroke-opacity:1"
       d="m -475.6746,883.08829 q -1.4021,0.68157 -2.9113,1.02235 -1.5092,0.34078 -3.1157,0.34078 -3.6318,0 -5.7544,-2.02522 -2.1225,-2.03496 -2.1225,-5.51093 0,-3.51493 2.1615,-5.53041 2.1615,-2.01548 5.9199,-2.01548 1.4507,0 2.7749,0.27262 1.3339,0.27263 2.5121,0.80814 l 0,3.00862 q -1.2171,-0.6913 -2.4245,-1.03208 -1.1976,-0.34078 -2.4049,-0.34078 -2.2394,0 -3.4565,1.25602 -1.2074,1.24629 -1.2074,3.57335 0,2.30758 1.1684,3.5636 1.1684,1.25603 3.3202,1.25603 0.5842,0 1.0808,-0.0682 0.5063,-0.0779 0.9055,-0.23368 l 0,-2.82362 -2.2881,0 0,-2.51205 5.842,0 0,6.9909 z" />
    <path
       inkscape:connector-curvature="0"
       id="path6122"
       style="font-style:normal;font-variant:normal;font-weight:bold;font-stretch:normal;font-size:19.94062042px;line-height:100%;font-family:sans-serif;-inkscape-font-specification:'sans-serif Bold';text-align:center;letter-spacing:0px;word-spacing:0px;text-anchor:middle;fill:#fdc115;fill-opacity:1;stroke:none;stroke-width:1px;stroke-linecap:butt;stroke-linejoin:miter;stroke-opacity:1"
       d="m -472.3837,869.63227 3.7487,0 0,8.71428 q 0,1.80128 0.5842,2.58021 0.5939,0.76919 1.9278,0.76919 1.3437,0 1.9279,-0.76919 0.5939,-0.77893 0.5939,-2.58021 l 0,-8.71428 3.7486,0 0,8.71428 q 0,3.08651 -1.5481,4.59569 -1.5482,1.50918 -4.7223,1.50918 -3.1644,0 -4.7125,-1.50918 -1.5482,-1.50918 -1.5482,-4.59569 l 0,-8.71428 z" />
    <path
       inkscape:connector-curvature="0"
       id="path6124"
       style="font-style:normal;font-variant:normal;font-weight:bold;font-stretch:normal;font-size:19.94062042px;line-height:100%;font-family:sans-serif;-inkscape-font-specification:'sans-serif Bold';text-align:center;letter-spacing:0px;word-spacing:0px;text-anchor:middle;fill:#fdc115;fill-opacity:1;stroke:none;stroke-width:1px;stroke-linecap:butt;stroke-linejoin:miter;stroke-opacity:1"
       d="m -456.1819,869.63227 10.1164,0 0,2.83336 -6.3678,0 0,2.70678 5.988,0 0,2.83336 -5.988,0 0,3.32993 6.582,0 0,2.83336 -10.3306,0 0,-14.53679 z" />
    <g
       id="g5241"
       transform="translate(2642.4885,619.23601)">
      <path
         inkscape:connector-curvature="0"
         style="opacity:1;fill:url(#linearGradient5251);fill-opacity:1;stroke:none;stroke-width:20;stroke-linecap:round;stroke-linejoin:round;stroke-miterlimit:4;stroke-dasharray:none;stroke-dashoffset:0;stroke-opacity:1"
         d="m -3131.0974,51.472713 a 122.63482,72.284751 0 0 0 -122.3777,69.268347 c 26.0966,16.33048 48.4638,21.1691 67.6929,19.81988 4.0237,-0.28232 7.9146,-0.84427 11.682,-1.63186 l -1.9668,-7.33947 c -0.4171,-1.55677 0.4996,-3.14647 2.0564,-3.5636 1.5567,-0.41714 3.1465,0.4996 3.5637,2.05637 l 1.9998,7.46021 c 2.041,-0.56778 4.0408,-1.20048 6.0036,-1.89281 l -2.1576,-8.04829 c -0.4171,-1.55677 0.4996,-3.14647 2.0563,-3.56361 1.5568,-0.41714 3.1466,0.4996 3.5637,2.05638 l 1.998,7.45826 c 2.0572,-0.86656 4.0677,-1.7941 6.0347,-2.77299 l -2.1869,-8.1632 c -0.417,-1.55677 0.4996,-3.14648 2.0564,-3.5636 1.5568,-0.41714 3.1465,0.4996 3.5637,2.05637 l 1.8382,6.86044 c 2.0745,-1.17118 4.0975,-2.38995 6.0659,-3.65124 l -2.0583,-7.68415 c -0.4171,-1.55677 0.4996,-3.14648 2.0563,-3.56361 1.5568,-0.41714 3.1466,0.4996 3.5638,2.05638 l 1.5422,5.75824 c 0.3663,-0.25769 0.7398,-0.51146 1.1022,-0.77114 l 0.037,-0.0253 0.039,-0.0272 c 1.105,-0.75446 2.2268,-1.49242 3.363,-2.21606 l -2.7302,-10.18452 c -0.417,-1.55677 0.4997,-3.14647 2.0564,-3.5636 1.5568,-0.41714 3.1465,0.4996 3.5637,2.05637 l 2.2978,8.57797 c 2.0159,-1.15223 4.0641,-2.26424 6.1594,-3.3124 l -2.6114,-9.74052 c -0.417,-1.55678 0.4996,-3.146474 2.0564,-3.563612 1.5568,-0.417138 3.1465,0.499603 3.5637,2.056382 l 2.3426,8.74155 c 2.007,-0.88823 4.0358,-1.74284 6.1009,-2.52764 l -2.5977,-9.691839 c -0.4171,-1.556775 0.4996,-3.146481 2.0563,-3.563607 1.5568,-0.417138 3.1466,0.499602 3.5637,2.056377 l 2.4848,9.275109 c 1.9894,-0.64858 3.9989,-1.25188 6.0309,-1.79738 l -2.6699,-9.958624 c -0.417,-1.556771 0.4997,-3.146477 2.0564,-3.563607 1.5568,-0.417138 3.1465,0.499602 3.5637,2.056377 l 2.7047,10.096884 c 6.903,-1.488358 14.0024,-2.367312 21.2182,-2.508154 19.5431,-0.38148 39.9159,4.577754 59.3954,16.990414 a 122.63482,72.284751 0 0 0 -121.7375,-64.304642 z"
         id="path5243" />
      <path
         inkscape:connector-curvature="0"
         style="opacity:1;fill:url(#linearGradient5253);fill-opacity:1;stroke:none;stroke-width:20;stroke-linecap:round;stroke-linejoin:round;stroke-miterlimit:4;stroke-dasharray:none;stroke-dashoffset:0;stroke-opacity:1"
         d="m -3066.9252,106.56841 c -7.1513,0.0143 -14.183,0.83645 -21.0174,2.30564 l 1.8908,7.05321 c 0.4171,1.55678 -0.5016,3.14648 -2.0583,3.56361 -1.5568,0.41714 -3.1446,-0.50156 -3.5617,-2.05832 l -1.9259,-7.18368 c -2.0283,0.55266 -4.0367,1.16033 -6.0211,1.82464 l 2.1011,7.84188 c 0.4171,1.55677 -0.5015,3.14647 -2.0583,3.56361 -1.5567,0.41713 -3.1445,-0.50156 -3.5617,-2.05832 l -1.9687,-7.34532 c -2.0567,0.80846 -4.0887,1.66519 -6.0854,2.5841 l 2.2083,8.24108 c 0.4171,1.55678 -0.5016,3.14648 -2.0583,3.56361 -1.5568,0.41714 -3.1446,-0.50156 -3.5617,-2.05832 l -1.9103,-7.12527 c -2.0824,1.08726 -4.1262,2.22882 -6.1263,3.42535 l 2.1907,8.17682 c 0.4172,1.55677 -0.5015,3.14647 -2.0583,3.56361 -1.5567,0.41714 -3.1445,-0.50156 -3.5617,-2.05832 l -1.7214,-6.42423 c -0.3356,0.22417 -0.6798,0.43893 -1.0126,0.66598 l -0.029,0.0195 c -1.1367,0.81349 -2.3022,1.61775 -3.4819,2.41468 l 2.8918,10.79208 c 0.4172,1.55677 -0.5015,3.14647 -2.0582,3.56361 -1.5568,0.41714 -3.1446,-0.50156 -3.5618,-2.05832 l -2.4068,-8.97912 c -1.9771,1.21626 -4.0115,2.39494 -6.099,3.52855 l 2.6599,9.92747 c 0.4172,1.55677 -0.5015,3.14647 -2.0582,3.56361 -1.5568,0.41713 -3.1446,-0.50156 -3.5617,-2.05832 l -2.3407,-8.73182 c -1.9739,0.94848 -3.9888,1.85317 -6.0542,2.699 l 2.549,9.51268 c 0.4171,1.55678 -0.5015,3.14647 -2.0583,3.56361 -1.5568,0.41714 -3.1445,-0.50156 -3.5617,-2.05832 l -2.401,-8.95575 c -1.9644,0.68 -3.9676,1.30456 -6.0094,1.87138 l 2.5645,9.56721 c 0.4172,1.55677 -0.5015,3.14647 -2.0582,3.56361 -1.5568,0.41713 -3.1446,-0.50156 -3.5617,-2.05833 l -2.5938,-9.68016 c -4.2412,0.90823 -8.6319,1.56135 -13.1893,1.88112 -19.8259,1.3911 -42.5002,-3.37525 -67.913,-18.2445 a 122.63482,72.284751 0 0 0 122.0389,65.769 122.63482,72.284751 0 0 0 122.4537,-70.16217 c -18.3862,-13.1845 -37.5816,-18.90847 -56.0791,-19.29216 -0.7353,-0.0153 -1.4694,-0.0209 -2.2024,-0.0195 z"
         id="path5245" />
      <path
         inkscape:connector-curvature="0"
         style="opacity:1;fill:url(#linearGradient5255);fill-opacity:1;stroke:none;stroke-width:20;stroke-linecap:round;stroke-linejoin:round;stroke-miterlimit:4;stroke-dasharray:none;stroke-dashoffset:0;stroke-opacity:1"
         d="m -3065.5289,114.53882 c -1.1422,-0.0125 -2.2842,-7.8e-4 -3.4273,0.0351 -5.7861,-0.0103 -11.4443,0.67435 -16.9768,1.90059 0.1,1.36593 -0.7721,2.64827 -2.146,3.01641 -1.3937,0.37347 -2.8069,-0.32771 -3.3883,-1.59486 -2.0305,0.58651 -4.0451,1.23412 -6.0406,1.94927 l 0.019,0.0701 c 0.4172,1.55678 -0.4996,3.14647 -2.0563,3.56361 -1.3705,0.36723 -2.7641,-0.3016 -3.363,-1.52865 -2.0542,0.85608 -4.0848,1.78021 -6.1011,2.74378 l 0.055,0.20642 c 0.4171,1.55677 -0.4996,3.14647 -2.0564,3.56361 -1.2348,0.33087 -2.4801,-0.18636 -3.1546,-1.18788 -2.1181,1.11204 -4.2185,2.2627 -6.2938,3.45846 l 0.039,0.148 c 0.4171,1.55677 -0.4997,3.14646 -2.0564,3.5636 -1.0698,0.28666 -2.1452,-0.0677 -2.8547,-0.81593 -1.6505,1.00765 -3.2847,2.0328 -4.9073,3.07094 l 0.8451,3.15466 c 0.4171,1.55678 -0.4996,3.14647 -2.0564,3.56361 -1.5567,0.41714 -3.1464,-0.50155 -3.5636,-2.05832 l -0.3524,-1.31834 c -1.7968,1.19299 -3.5819,2.39037 -5.3435,3.59087 -0.2147,0.11745 -0.433,0.2269 -0.6485,0.34273 l 0.4985,1.86164 c 0.4172,1.55677 -0.4996,3.14647 -2.0564,3.56361 -1.5567,0.41714 -3.1464,-0.50156 -3.5635,-2.05832 l -0.1889,-0.70689 c -2.0009,0.92898 -4.0318,1.78805 -6.0855,2.58605 l 0.4285,1.60071 c 0.4171,1.55677 -0.4996,3.14647 -2.0564,3.5636 -1.5568,0.41714 -3.1464,-0.50155 -3.5636,-2.05832 l -0.3057,-1.14113 c -1.994,0.65005 -4.0062,1.24215 -6.0348,1.77401 l 0.4946,1.84996 c 0.4172,1.55677 -0.4996,3.14647 -2.0564,3.56361 -1.5567,0.41714 -3.1464,-0.50156 -3.5636,-2.05832 l -0.5432,-2.02718 c -22.3886,4.60699 -46.2552,2.22435 -67.2062,-6.95194 17.1065,23.07304 46.1991,32.63614 73.2,37.78396 38.0779,5.89879 129.5023,-2.75122 129.5023,-48.89272 0,-14.42692 -13.9394,-21.5033 -31.0708,-21.69007 z"
         id="path5247"
         sodipodi:nodetypes="cccccccscccscccsccccccccccccccscccccccccscc" />
      <path
         inkscape:connector-curvature="0"
         style="opacity:1;fill:url(#linearGradient5257);fill-opacity:1;stroke:none;stroke-width:20;stroke-linecap:round;stroke-linejoin:round;stroke-miterlimit:4;stroke-dasharray:none;stroke-dashoffset:0;stroke-opacity:1"
         d="m -3129.5668,59.515173 c -1.47,-0.01395 -2.9396,-0.0125 -4.4088,0.0039 -29.1312,2.059966 -94.4923,16.600901 -92.173,51.762077 1.1826,17.92999 26.79,24.374 50.0622,19.993 -0.2241,-1.4507 0.6552,-2.85915 2.107,-3.24814 1.525,-0.40863 3.0735,0.46763 3.5285,1.96679 2.0255,-0.54438 4.0304,-1.17901 6.0134,-1.90059 l -0.1324,-0.49072 c -0.4172,-1.55677 0.4996,-3.14647 2.0563,-3.56361 1.479,-0.3963 2.9752,0.41965 3.4799,1.83632 2.0233,-0.93047 4.0138,-1.96613 5.9705,-3.10403 l -0.041,-0.15383 c -0.4171,-1.55678 0.4997,-3.14648 2.0564,-3.56361 1.0593,-0.28385 2.1255,0.0596 2.8353,0.79255 2.158,-1.31583 4.3208,-2.63293 6.4845,-3.9667 0,-1.28589 0.8423,-2.45871 2.1461,-2.80804 0.7225,-0.1936 1.448,-0.0898 2.0641,0.22199 1.8184,-1.1103 3.6434,-2.20967 5.4778,-3.29487 l -0.6251,-2.33679 c -0.4171,-1.55678 0.4997,-3.14648 2.0564,-3.56361 1.5568,-0.41714 3.1465,0.4996 3.5636,2.05638 l 0.222,0.8315 c 2.0355,-1.14423 4.0871,-2.25046 6.1574,-3.31629 l -0.5335,-1.99017 c -0.4172,-1.55677 0.4996,-3.146463 2.0564,-3.563601 1.5568,-0.417139 3.1464,0.499602 3.5636,2.056371 l 0.2376,0.88798 c 2.0021,-0.9298 4.0279,-1.803949 6.0756,-2.61915 l -0.4673,-1.746748 c -0.4172,-1.556775 0.4996,-3.146469 2.0563,-3.563608 1.5568,-0.417138 3.1465,0.499603 3.5636,2.056378 l 0.3349,1.25213 c 1.9868,-0.659438 3.9928,-1.267537 6.0329,-1.785703 l -0.5219,-1.947322 c -0.4171,-1.556775 0.4996,-3.146481 2.0564,-3.563608 1.5568,-0.417138 3.1464,0.499603 3.5636,2.056378 l 0.5939,2.219947 c 0.6808,-0.120681 1.3651,-0.232436 2.0525,-0.33494 21.0116,-4.137881 43.1989,-2.566648 63.2706,4.987108 -17.5445,-21.763939 -45.6252,-30.796466 -72.0471,-35.881433 -10.1967,-1.726568 -20.4993,-2.576192 -30.7893,-2.673681 z"
         id="path5249"
         sodipodi:nodetypes="ccacccccccccsccccccsccccscccccccccsccccccc" />
    </g>
  </g>
</svg>
