<?xml version="1.0" encoding="UTF-8" standalone="no"?>
<!-- Generator: Adobe Illustrator 16.0.0, SVG Export Plug-In . SVG Version: 6.00 Build 0)  -->

<svg
   xmlns:dc="http://purl.org/dc/elements/1.1/"
   xmlns:cc="http://creativecommons.org/ns#"
   xmlns:rdf="http://www.w3.org/1999/02/22-rdf-syntax-ns#"
   xmlns:svg="http://www.w3.org/2000/svg"
   xmlns="http://www.w3.org/2000/svg"
   xmlns:sodipodi="http://sodipodi.sourceforge.net/DTD/sodipodi-0.dtd"
   xmlns:inkscape="http://www.inkscape.org/namespaces/inkscape"
   version="1.1"
   x="0px"
   y="0px"
   width="408.94699"
   height="165.44371"
   viewBox="0 0 408.94698 165.4437"
   enable-background="new 0 0 426.959 295.2"
   xml:space="preserve"
   id="svg5157"
   inkscape:version="0.91 r13725"
   sodipodi:docname="michelob.svg"><metadata
     id="metadata5216"><rdf:RDF><cc:Work
         rdf:about=""><dc:format>image/svg+xml</dc:format><dc:type
           rdf:resource="http://purl.org/dc/dcmitype/StillImage" /><dc:title></dc:title></cc:Work></rdf:RDF></metadata><defs
     id="defs5214" /><sodipodi:namedview
     pagecolor="#bcbfbd"
     bordercolor="#666666"
     borderopacity="1"
     objecttolerance="10"
     gridtolerance="10"
     guidetolerance="10"
     inkscape:pageopacity="0"
     inkscape:pageshadow="2"
     inkscape:window-width="2454"
     inkscape:window-height="1652"
     id="namedview5212"
     showgrid="false"
     inkscape:zoom="2.8369794"
     inkscape:cx="232.50922"
     inkscape:cy="39.733126"
     inkscape:window-x="106"
     inkscape:window-y="48"
     inkscape:window-maximized="1"
     inkscape:current-layer="svg5157"
     fit-margin-top="0"
     fit-margin-left="0"
     fit-margin-right="0"
     fit-margin-bottom="0" /><g
     id="Layer_1"
     transform="translate(-8.981,-7.5582847)" /><g
     id="Graphics"
     transform="translate(-8.981,-7.5582847)" /><path
     id="path5172"
     style="fill:#ffffff"
     d="m 339.26752,57.908715 c -1.924,-2.206 1.367,-7.946 6.979,-12.716 5.846,-4.945 15.635,-11.544 18.715,-9.953 2.684,1.414 -5.418,9.347 -7.891,11.979 -6.619,7.338 -10.877,11.737 -15.363,11.737 -0.954,0.001 -1.809,-0.275 -2.44,-1.047 m 32.232,-44.372 c -1.719,0.524 -3.863,1.59 -5.148,2.386 -6.248,4.49 -16.582,14.638 -24.443,25.046 -5.697,7.229 -8.547,13.589 -6.02,16.753 1.238,1.507 3.398,2.39 6.055,2.39 6.414,0 14.453,-3.445 21.527,-11.837 3.201,-3.77 8.137,-12.151 2.432,-14.448 -4.428,-1.767 -14.221,5.105 -19.176,9.082 2.85,-3.617 5.152,-6.44 7.688,-9.259 5.221,-6.015 10.984,-12.001 16.617,-16.666 1.365,-1.153 4.203,-3.188 7.018,-3.888 l -0.055,-0.172 c -0.359,-0.011 -0.709,-0.022 -1.045,-0.022 -2.219,-10e-4 -4.026,0.247 -5.45,0.635 m -57.154,45.322 c -3.43,-1.393 -0.43,-6.519 3.656,-11.894 6.523,-8.382 13.348,-13.589 16.188,-12.091 2.535,1.323 -1.559,8.033 -4.326,11.556 -5.92,7.359 -11.338,12.604 -14.574,12.604 -0.337,10e-4 -0.655,-0.057 -0.944,-0.175 m -33.357,-14.811 c 3.568,-4.226 10.969,-10.399 12.594,-9.521 1.34,0.713 0.07,3.185 -2.555,5.472 -3.021,2.67 -6.986,4.156 -9.166,4.156 -0.336,0 -0.627,-0.036 -0.873,-0.107 m 47.271,-30.511 c -1.818,0.524 -3.607,1.415 -5.473,2.637 -5.678,4.068 -14.453,12.973 -22.176,22.671 -3.146,3.958 -5.516,7.459 -7.029,10.239 -2.158,2.202 -5.09,4.907 -8.135,6.877 -3.484,2.295 -7.309,3.435 -9.461,2.833 -4.51,-1.421 -0.039,-9.094 4.561,-14.207 2.547,1.045 9.596,-1.147 12.25,-3.094 3.115,-2.378 5.299,-6.078 1.107,-7.752 -4.432,-1.769 -14.799,3.878 -20.434,10.221 -2.412,2.824 -3.484,5.335 -3.895,7.341 -1.439,1.311 -2.996,2.692 -4.508,3.859 -3.205,2.478 -6.957,4.332 -8.408,3.632 -1.34,-0.722 -0.832,-2.128 1.336,-5.309 1.346,-2.02 3.545,-4.324 5.84,-6.877 3.643,-3.792 9.91,-11.193 2.393,-12.959 -4.834,-1.148 -16.006,5.466 -19.922,8.817 5.744,-8.205 16.225,-19.581 23.475,-25.588 1.414,-1.049 4.209,-3.151 6.941,-3.791 l 0.049,-0.164 c -2.662,0 -4.559,0.1 -6.486,0.613 -1.746,0.441 -3.971,1.59 -5.148,2.386 -6.889,4.49 -18.266,16.841 -24.486,25.754 -0.85,1.192 -1.998,2.973 -3.158,5.034 -0.087,0.051 -0.167,0.103 -0.244,0.172 -2.127,2.201 -6.402,6.254 -9.479,8.459 -2.083,1.498 -7.524,4.495 -10.544,3.34 -2.792,-1.143 -2.355,-5.983 4.067,-13.31 3.81,-4.403 10.979,-11.723 13.458,-10.577 1.811,0.786 1.711,3.255 -1.861,5.555 -1.382,0.875 -3.486,2.559 -1.839,3.802 1.484,1.042 3.173,-0.103 3.853,-0.799 1.447,-1.239 2.213,-2.831 2.503,-4.508 0.189,-1.133 0.515,-3.875 -2.146,-4.927 -4.317,-1.774 -13.946,3.074 -19.784,9.435 -2.438,2.633 -4.077,5.493 -4.529,8.268 -1.229,1.113 -2.512,2.231 -3.602,3.106 -2.256,1.853 -6.703,4.669 -8.662,4.067 -1.844,-0.63 -0.851,-3.274 1.15,-6.616 2.326,-3.626 8.522,-11.473 15.033,-18.26 -1.42,-0.092 -4.198,0.174 -5.523,0.877 -3.51,1.939 -9.098,8.113 -11.872,11.64 -5.278,6.964 -5.603,13.761 1.559,13.761 3.088,0 6.96,-2.382 9.653,-4.492 0.51,-0.429 1.304,-1.112 2.202,-1.918 0.052,0.742 0.18,1.485 0.463,2.176 0.963,2.721 4.146,4.593 8.178,4.234 4.519,-0.442 8.043,-2.656 10.909,-4.854 1.556,-1.263 3.285,-2.772 4.835,-4.257 -0.91,2.021 -1.696,4.094 -2.19,6.113 -0.185,0.885 1.462,3.43 2.739,3.43 1.863,-4.486 4.705,-10.581 10.005,-15.599 4.773,-4.68 16.617,-10.938 19.436,-10.06 2.414,0.715 -4.395,6.523 -6.941,9.254 -3.061,3.354 -4.582,4.938 -6.033,8.039 -1.896,4.134 0.67,7.4 3.533,7.933 2.744,0.433 6.635,-1.055 10.117,-3.616 1.127,-0.865 2.285,-1.865 3.426,-2.89 0.031,0.737 0.148,1.322 0.291,1.753 0.813,3.162 3.797,4.499 6.67,4.753 4.262,0.263 8.557,-1.857 11.43,-4.054 1.541,-1.118 2.918,-2.277 4.207,-3.422 -1.277,3.74 -0.135,6.621 3.572,7.476 2.676,0.527 6.111,-1.336 9.418,-3.799 1.176,-0.888 2.551,-2.057 3.912,-3.283 -0.033,3.523 1.832,6.26 5.648,6.998 4.262,0.786 11.182,-3.621 17.395,-11.474 6.127,-7.504 6.26,-13.397 2.508,-14.812 -5.244,-1.941 -15.799,2.468 -21.676,9.792 -1.881,2.374 -3.064,4.839 -3.58,7.101 -1.789,1.678 -3.701,3.429 -5.02,4.443 -3.732,2.747 -6.41,4.066 -7.873,3.355 -2.609,-1.231 2.385,-9.173 8.166,-16.492 7.971,-10.141 15.146,-18.252 23.367,-25.042 1.371,-1.153 4.27,-3.256 6.91,-3.896 l 0.043,-0.164 c -0.357,-0.011 -0.709,-0.022 -1.049,-0.022 -2.245,0.002 -4.11,0.25 -5.442,0.638 m -222.071,3.002 c 5.076,-8.0289997 18.408,-12.4259997 33.952,-12.7939997 19.795,-0.447 35.713,1.504 46.196,3.44 -2.494,0.187 -4.639,0.713 -6.852,1.326 -3.283,0.881 -9.503,3.2559997 -14.635,7.0569997 -7.24,5.194 -10.815,9.706 -17.237,16.76 -7.414,8.288 -10.734,12.327 -16.156,17.287 -9.454,8.818 -22.137,15.424 -33.658,14.631 -8.642997,-0.533 -14.666001,-5.29 -15.678001,-11.381 -0.854,-5.731 3.174004,-12.62 8.589004,-16.745 7.358997,-5.74 16.986997,-8.649 25.206997,-8.112 7.148,0.513 13.372,4.667 13.665,9.782 0.103,0.532 -0.248,0.966 0.245,1.409 0.631,0.535 1.211,-0.706 1.254,-1.409 -0.043,-5.561 -7.319,-10.503 -15.29,-10.935 -2.414,-0.175 -5.048,-0.097 -7.827,0.17 -2.241,-0.53 -5.065,-5.29 -1.775,-10.486 m 33.048,-15.0849997 c -17.187,0.269 -30.694,5.024 -35.498,12.0799997 -4.386,6.531 0.004,12.532 2.479,13.665 -6.027,0.717 -12.382,2.74 -17.793997,6.891 -6.918004,5.198 -9.152004,12.611 -8.105004,18.505 1.097,7.158 7.548004,12.444 18.573001,13.06 12.562,0.713 25.377,-3.354 35.559,-13.576 4.649,-4.757 8.126,-10.054 17.301,-20.637 5.634,-6.612 9.346,-11.02 15.127,-15.083 5.4,-3.883 9.703,-6.003 13.817,-7.2369997 1.175,-0.264 2.532,-0.609 3.894,-0.965 -10.838,4.5019997 -17.287,14.4709997 -21.009,22.6609997 -2.77,6.001 -6.265,16.402 -8.6,21.881 -1.547,1.508 -2.794,2.383 -4.57,4.672 -1.229,1.487 -1.294,3.255 -0.047,3.7 1.038,0.445 2.745,-0.348 4.601,-3.531 0.73,-1.143 1.314,-2.642 1.749,-3.965 8.565,-8.381 17.359,-16.661 24.882,-23.108 7.803,-6.784 18.746,-15.078 33.485,-22.3919997 2.678,-1.314 6.22,-2.654 10.156,-3.537 -9.589,3.891 -20.677,12.3419997 -32.063,25.2339997 -7.468,8.458 -15.575,20.983 -16.459,26.37 -0.404,2.463 1.099,4.412 2.418,4.486 1.497,0 2.255,-1.319 3.677,-4.486 2.038,-4.855 6.937,-12.789 13.798,-21.966 7.835,-10.233 21.868,-27.2519997 33.69,-30.6039997 1.928,-0.532 4.809,-0.799 6.793,-0.608 1.574,0.164 2.168,0.608 2.707,0.334 0.565,-0.17 -1.338,-1.221 -3.546,-1.402 -8.86,-0.522 -19.718,3.626 -22.51,4.951 -12.668,6.0769997 -22.876,12.6959997 -33.916,22.3879997 -5.35,4.592 -13.295,12.345 -20.022,18.876 3.824,-5.202 6.914,-10.943 10.181,-16.755 4.405,-8.119 8.152,-16.488 13.005,-21 2.268,-2.1069997 4.439,-2.5459997 5.688,-2.6319997 1.427,0.351 3.12,0.884 4.258,1.31 1.246,0.449 1.797,0.808 1.92,0.539 0.286,-0.355 -0.771,-0.89 -1.66,-1.236 -1.66,-0.709 -6.065,-1.855 -9.192,-2.47 -8.671,-1.792 -23.89,-4.416 -42.927,-4.419 -0.612,-0.001 -1.223,-0.001 -1.84,0.006"
     inkscape:connector-curvature="0" /><g
     id="g5178"
     transform="translate(-8.981,-7.5582847)"><g
       id="g5180" /></g><path
     id="path5192"
     style="fill:#ffffff"
     d="m 164.179,87.073715 -0.585,17.188005 2.247,0.36 0.037,-0.668 c 0.038,-1.148 0.24,-3.376 1.089,-5.523005 0.724,-1.898 2.623,-5.048 7.098,-5.048 l 19.973,-0.016 c -0.003,5.952 -0.03,53.575005 -0.03,60.290005 0.018,4.268 -3.244,6.109 -5.201,6.82 -1.916,0.729 -3.891,0.943 -4.89,0.995 l -0.521,0.043 0,2.55 33.22,0.024 0,-2.547 -0.531,-0.027 c -0.777,-0.051 -2.842,-0.225 -4.872,-1.02 -1.945,-0.698 -5.218,-2.561 -5.202,-6.805 l -0.032,-60.309005 20.019,-0.016 c 4.467,0 6.342,3.165 7.072,5.078 0.859,2.133005 1.064,4.369005 1.107,5.509005 l 0.02,0.668 2.244,-0.36 -0.584,-17.188005 -71.678,0 z m -60.479,1.972 -0.003,0.599 0.584,0.006 c 0.85,0 3.364,0.234 4.688,1.281 1.759,1.399 2.864,3.021 2.854,6.721 l 0.01,56.019005 c 0,2.916 -0.864,5.024 -2.559,6.269 -1.364,1.018 -3.214,1.487 -5.837,1.533 l -0.844,0 0,2.606 57.008,0 0.066,-0.811 c 0.562,-4.979 1.365,-10.074 2.398,-15.171 l 0.152,-0.792 -2.598,-1.418 -0.236,0.921 c -1.327,5.427 -2.484,7.876 -4.438,9.333 -2.183,1.603 -5.219,1.738 -9.595,1.75 l -21.557,0.017 c 0.003,-5.99 0.024,-54.064 0.024,-60.256005 -0.021,-3.148 1.061,-5.638 3.005,-6.839 1.77,-1.15 3.807,-1.161 4.533,-1.161 l 0.556,0 0,-2.595 -28.215,-0.015 0,2.003 z m -47.827,-1.99 0,2.604 0.735,0 c 0.98,0 2.883,0.177 4.567,1.303 1.277,0.854 2.812,2.712 2.807,6.698 0,2.318 -0.022,45.656005 -0.022,49.938005 l -0.008,0.003 c -6.782,4.334 -17.27,9.031 -24.324,9.047 -5.97,-0.101 -10.898,-1.811 -14.236,-4.903 -3.511,-3.227 -5.287,-7.855 -5.287,-13.755 l 0,-14.017 0,-26.343005 c 0,-3.047 1.008,-5.411 2.822,-6.681 1.688,-1.176 3.697,-1.308 4.489,-1.308 l 0.794,0 0.039,-2.587 -28.249,0 0,2.587 0.811,0 c 1.198,0 2.949,0.242 4.481,1.308 1.298,0.905 2.836,2.818 2.822,6.711 0,0 -0.019,29.527005 -0.019,40.480005 0.019,9.394 3.424,16.73 10.112,21.753 5.509,4.102 12.416,5.55 17.036,5.55 l 0.034,0 c 12.718,-0.006 20.051,-4.689 28.536,-10.113 l 0.168,-0.122 0,1.913 c 0.005,3.017 0.835,5.018 2.56,6.097 1.234,0.755 2.725,0.86 4.017,0.86 l 13.809,0 0,-2.606 -0.564,0 c -0.694,0 -2.836,0 -4.708,-1.362 -1.453,-1.04 -3.175,-3.273 -3.171,-7.834 l 0,-54.867005 c -0.004,-2.955 0.97,-5.138 2.902,-6.446 1.263,-0.859 2.753,-1.313 4.51,-1.313 l 0.709,0 0,-2.607 -28.172,0.012 z m 307.134,19.133005 9.365,19.992 -19.469,0 10.104,-19.992 z m 0.861,-22.067005 c -0.324,0.647 -32.563,63.241005 -35.717,69.136005 -3.229,6.05 -6.484,7.753 -8.645,8.125 l -0.17,0.039 c -0.449,0.044 -1.191,0.052 -1.602,0.052 -2.555,-0.052 -4.459,-0.735 -6.383,-2.322 -2.021,-1.647 -4.08,-4.12 -7.641,-8.672 -0.102,-0.163 -11.184,-15.211 -15.328,-22.019 l 0,-0.014 0.08,-0.01 c 11.857,-2.226 18.688,-10.274 18.719,-22.037 0,-1.056 -0.217,-6.561005 -4.66,-11.518005 -4.684,-5.18 -12.131,-7.813 -22.156,-7.813 -7.141,0 -27.822,0 -31.281,-0.025 l -0.559,0 0,2.608 0.693,0 c 1.758,0 3.26,0.399 4.428,1.2 1.135,0.747 3.027,2.6 3.008,6.731 l -0.031,55.937005 c 0.02,3.871 -1.525,5.786 -2.814,6.685 -1.539,1.071 -3.273,1.294 -4.488,1.294 l -0.807,0 0,2.604 28.215,0 0,-2.604 -0.803,0 c -1.203,0 -2.957,-0.223 -4.482,-1.294 -1.299,-0.898 -2.84,-2.808 -2.82,-6.685 l -0.035,-60.130005 c 2.031,0 9.049,-0.023 10.822,-0.023 4.475,0.016 8.121,0.939 10.818,2.776 3.355,2.261 5.109,5.867005 5.109,10.450005 0.008,7.493 -1.85,12.426 -5.678,15.07 -3.508,2.416 -8.275,2.924 -14.377,2.928 -0.213,0 -1.129,-0.038 -1.924,-0.073 l -1.199,-0.063 28.268,39.61 0.264,0 c 0,0 39.756,0.014 44.783,0.014 l 1.014,0 0.016,-2.559 -0.537,-0.039 c -1.92,-0.088 -3.43,-0.309 -4.564,-1.071 -1.482,-1.037 -2.125,-2.186 -2.125,-3.718 0,-1.114 0.334,-2.327 0.988,-3.61 l 9.32,-19.976 25.588,-0.003 10.01,21.286 c 0.434,0.969 0.65,1.906 0.658,2.756 0.012,1.376 -0.646,2.538 -1.826,3.326 -0.898,0.568 -2.109,0.91 -3.584,1.001 l -0.52,0.043 -0.035,2.563 28.236,-0.014 0,-2.584 -0.541,-0.009 c -3.678,-0.091 -6.008,-1.206 -7.842,-3.734 -1.568,-2.123 -23.512,-49.057 -34.895,-73.585005 l -0.465,-1.005 -0.503,0.975 z m 42.317,70.343005 c 1.555,0 2.762,1.207 2.762,2.713 0,1.537 -1.207,2.729 -2.779,2.729 -1.555,-0.002 -2.795,-1.193 -2.795,-2.73 0,-1.506 1.24,-2.713 2.795,-2.711 l 0.017,0 z m -0.034,0.545 c -1.191,-0.002 -2.084,0.975 -2.084,2.166 0,1.207 0.893,2.166 2.117,2.168 1.191,0.018 2.068,-0.959 2.068,-2.166 0,-1.191 -0.877,-2.168 -2.086,-2.168 l -0.015,0 z m -0.414,3.573 -0.629,0 0,-2.697 c 0.248,-0.049 0.596,-0.1 1.043,-0.098 0.512,0 0.744,0.084 0.943,0.215 0.148,0.117 0.264,0.332 0.264,0.58 0,0.314 -0.23,0.545 -0.563,0.645 l 0,0.033 c 0.266,0.082 0.414,0.299 0.496,0.662 0.084,0.414 0.133,0.578 0.199,0.662 l -0.678,0 c -0.084,-0.1 -0.133,-0.332 -0.215,-0.646 -0.051,-0.297 -0.215,-0.43 -0.563,-0.43 l -0.299,-0.002 0,1.076 z m 0.018,-1.524 0.297,0.002 c 0.348,0 0.629,-0.115 0.629,-0.396 0,-0.248 -0.182,-0.414 -0.578,-0.414 -0.166,0 -0.281,0.018 -0.348,0.031 l 0,0.777 z"
     inkscape:connector-curvature="0" /><path
     style="fill:#2455d8;fill-opacity:1"
     inkscape:connector-curvature="0"
     id="path5194"
     d="m 282.144,130.09172 20.063,28.122 1.4,0 -20.072,-28.122 -1.391,0 z m 95.857,-3.492 14.883,31.741 1.188,0 -14.859,-31.741 -1.212,0 z m -77.49,-20.022 c 0.016,3.43 -0.342,6.504 -1.033,9.206 1.543,-2.355 2.52,-5.406 2.527,-9.384 0,-0.396 -0.078,-3.638 -2.66,-6.855005 0.781,2.136005 1.177,4.508005 1.166,7.033005 m 60.242,-8.378005 -29.648,60.142005 1.184,0 29.658,-60.142005 -1.194,0 z m -347.351,-0.115 c -0.006,3.680005 -0.021,29.880005 -0.021,40.058005 0.015,6.85 2.186,12.104 6.607,15.949 -3.39,-4.17 -5.166,-9.665 -5.166,-16.101 l 0,-39.906005 -1.42,0 z m 55.865,53.775005 1.371,0 0,-53.775005 -1.371,0 0,53.775005 z m 47.832,0 1.415,0 0,-53.775005 -1.415,0 0,53.775005 z m 82.233,0 1.392,0 0,-53.774005 -1.392,0 0,53.774005 z m 62.606,-0.016 1.402,0 0,-53.808005 -1.402,0 0,53.808005 z" /><g
     id="g5196"
     transform="matrix(0.83010429,0,0,0.83010429,-133.90378,-166.03455)"><g
       id="g5198"><g
         id="g5200"><path
           d="m 239.003,200.092 c 1.592,0 2.828,1.235 2.828,2.778 0,1.574 -1.236,2.794 -2.846,2.794 -1.592,0 -2.863,-1.22 -2.863,-2.794 0,-1.543 1.271,-2.778 2.863,-2.778 l 0.018,0 z m -0.035,0.558 c -1.221,0 -2.133,1 -2.133,2.22 0,1.235 0.912,2.22 2.168,2.22 1.219,0.016 2.117,-0.984 2.117,-2.22 0,-1.22 -0.898,-2.22 -2.135,-2.22 l -0.017,0 z m -0.424,3.661 -0.643,0 0,-2.763 c 0.254,-0.052 0.609,-0.101 1.066,-0.101 0.525,0 0.764,0.085 0.967,0.218 0.152,0.121 0.271,0.342 0.271,0.595 0,0.321 -0.238,0.56 -0.576,0.662 l 0,0.033 c 0.271,0.084 0.422,0.305 0.506,0.677 0.086,0.423 0.137,0.592 0.205,0.679 l -0.693,0 c -0.086,-0.103 -0.137,-0.341 -0.221,-0.661 -0.051,-0.305 -0.221,-0.44 -0.576,-0.44 l -0.307,0 0,1.101 z m 0.02,-1.561 0.305,0 c 0.354,0 0.643,-0.118 0.643,-0.405 0,-0.254 -0.188,-0.423 -0.592,-0.423 -0.172,0 -0.289,0.016 -0.355,0.033 l 0,0.795 z"
           id="path5202"
           inkscape:connector-curvature="0"
           style="fill:#dc1d38;stroke:#dc1d38;stroke-width:0.15099999" /></g></g><g
       id="g5204"><g
         id="g5206"><polygon
           points="192.113,200.153 192.113,286.195 213.089,272.142 234.078,286.195 234.078,200.153 "
           id="polygon5208"
           style="fill:#dc1d38" /><polygon
           points="234.078,286.195 234.078,200.153 213.089,200.153 213.089,272.142 "
           id="polygon5210"
           style="fill:#b21f3e" /></g></g></g></svg>