<svg width="230" height="230" viewBox="0 0 230 230" fill="none" xmlns="http://www.w3.org/2000/svg">
<circle cx="115" cy="115" r="113.314" fill="#114281" stroke="black" stroke-width="3.37243"/>
<path d="M207.795 64.7764L210.303 69.341L197.785 76.22L202.017 83.9198L198.397 85.9088L191.658 73.6443L207.795 64.7764Z" fill="white"/>
<path d="M186.994 57.0253L185.163 54.8536L181.423 58.008L178.065 54.0265L192.141 42.1553L197.567 48.59C198.642 49.8635 199.36 51.1503 199.722 52.4505C200.098 53.7394 200.105 54.9721 199.744 56.1485C199.396 57.3137 198.693 58.3428 197.634 59.236C196.615 60.0953 195.52 60.6058 194.349 60.7677C193.202 60.9316 192.042 60.7521 190.866 60.2291L189.003 66.9964L185.408 62.7335L186.994 57.0253ZM194.242 55.2143C194.899 54.6603 195.233 54.0229 195.244 53.3021C195.256 52.5813 194.917 51.812 194.227 50.9942L192.362 48.7823L188.239 52.2589L190.105 54.4708C190.795 55.2886 191.489 55.7583 192.188 55.8799C192.9 55.9902 193.585 55.7683 194.242 55.2143Z" fill="white"/>
<path d="M171.779 44.4527L165.416 39.9644L162.172 42.0537L157.83 38.9906L175.086 28.6298L179.278 31.5867L175.327 51.3337L170.899 48.21L171.779 44.4527ZM172.746 40.435L174.208 34.2555L168.877 37.7056L172.746 40.435Z" fill="white"/>
<path d="M157.141 32.7819L155.641 36.5166L141.923 31.0067L148.786 13.9199L162.187 19.3023L160.687 23.037L152.07 19.5762L150.913 22.4565L158.504 25.5056L157.053 29.1182L149.462 26.0692L148.207 29.1936L157.141 32.7819Z" fill="white"/>
<path d="M135.493 9.36477C137.154 9.48277 138.578 9.86512 139.762 10.5118C140.948 11.1411 141.837 11.9953 142.429 13.0746C143.021 14.1363 143.269 15.3582 143.17 16.7401C143.072 18.122 142.655 19.2966 141.918 20.264C141.181 21.2314 140.181 21.9515 138.917 22.4243C137.654 22.8796 136.191 23.0483 134.529 22.9303L131.328 22.703L130.987 27.5047L125.792 27.1358L127.096 8.76855L135.493 9.36477ZM134.505 18.8147C135.572 18.8904 136.393 18.7202 136.968 18.3039C137.543 17.8701 137.862 17.2246 137.923 16.3675C137.983 15.5103 137.76 14.8263 137.251 14.3155C136.742 13.8047 135.954 13.5114 134.887 13.4357L132.001 13.2307L131.619 18.6097L134.505 18.8147Z" fill="white"/>
<path d="M104.752 13.5669L99.1081 13.9262L98.8457 9.80469L115.306 8.75679L115.568 12.8783L109.95 13.236L110.858 27.4907L105.66 27.8216L104.752 13.5669Z" fill="white"/>
<path d="M89.2973 10.1176L96.5187 27.056L92.5745 28.7376L81.2494 22.8996L85.0974 31.9253L80.403 33.9266L73.1816 16.9883L77.1259 15.3067L88.4509 21.1447L84.6029 12.119L89.2973 10.1176Z" fill="white"/>
<path d="M69.4646 40.1105C67.2779 41.7544 65.1269 42.4389 63.0117 42.1642C60.9104 41.8789 59.0379 40.6429 57.3941 38.4561L51.2612 30.2979L55.4245 27.1682L61.4625 35.2003C63.2328 37.5553 65.0501 38.032 66.9145 36.6306C68.7648 35.2396 68.8048 33.3667 67.0345 31.0117L60.9965 22.9796L65.0967 19.8973L71.2295 28.0556C72.8734 30.2424 73.5334 32.3899 73.2095 34.4982C72.8997 36.5959 71.6514 38.4667 69.4646 40.1105Z" fill="white"/>
<path d="M51.3069 56.4852C50.0712 57.9892 48.6395 59.0826 47.0118 59.7652C45.3953 60.4344 43.7408 60.6524 42.0484 60.4194C40.3672 60.1729 38.822 59.4707 37.4128 58.3129C36.0036 57.1551 35.015 55.7754 34.4471 54.1739C33.8902 52.5589 33.7832 50.8935 34.1261 49.1779C34.48 47.4487 35.2749 45.8321 36.5107 44.3281C37.7464 42.8241 39.1725 41.7375 40.7891 41.0684C42.4167 40.3857 44.0712 40.1677 45.7525 40.4142C47.4449 40.6472 48.9956 41.3426 50.4048 42.5004C51.814 43.6582 52.797 45.0447 53.3538 46.6597C53.9218 48.2612 54.0288 49.9266 53.6748 51.6557C53.332 53.3714 52.5427 54.9812 51.3069 56.4852ZM47.9737 53.7465C48.5637 53.0284 48.9287 52.2388 49.0687 51.3779C49.2087 50.5169 49.113 49.6666 48.7815 48.8269C48.4366 47.976 47.8644 47.2222 47.065 46.5653C46.2655 45.9085 45.4218 45.4989 44.5337 45.3367C43.6321 45.1633 42.7726 45.2288 41.9551 45.5331C41.1377 45.8374 40.4339 46.3487 39.8439 47.0668C39.2538 47.7849 38.8888 48.5745 38.7489 49.4354C38.6089 50.2964 38.7114 51.1523 39.0564 52.0032C39.3878 52.8429 39.9532 53.5912 40.7526 54.248C41.5521 54.9048 42.4026 55.3199 43.3042 55.4933C44.1922 55.6555 45.045 55.5845 45.8625 55.2802C46.6799 54.9759 47.3837 54.4646 47.9737 53.7465Z" fill="white"/>
<path d="M37.2881 72.3348L28.2914 68.5528L33.7397 76.0257L32.8311 78.1548L23.9183 79.4709L32.6525 83.198L30.7631 87.6255L13.8271 80.3984L15.51 76.4548L27.8243 74.6741L20.5277 64.6964L22.2105 60.7527L39.1671 67.9314L37.2881 72.3348Z" fill="white"/>
<path d="M103.323 125.237L105.854 120.456V146.472H103.323V125.237ZM108.386 115.534L110.917 110.753V146.472H108.386V115.534ZM113.448 105.972L115.979 101.155V146.472H113.448V105.972ZM96.4678 124.042L95.0264 121.405L112.464 88.2529H115.312L96.4678 124.042ZM93.5498 118.522L92.0732 115.851L106.698 88.2529H109.581L93.5498 118.522ZM76.6045 120.737L79.1357 125.519V146.472H76.6045V120.737ZM71.542 111.104L74.0732 115.886V146.472H71.542V111.104ZM66.4795 101.472L69.0107 106.288V146.472H66.4795V101.472ZM86.9404 131.284H84.0928L63.9482 93.0693V146.472H61.417V88.2529H64.2646L86.9404 131.284ZM92.6709 131.284H89.7881L67.1475 88.2529H70.0303L92.6709 131.284ZM118.511 93.0693L98.3662 131.284H95.4834L72.8779 88.2529H75.7256L96.96 128.612L118.159 88.2529H121.042V146.472H118.511V93.0693Z" fill="white"/>
<path d="M147.409 118.909H162.104C164.519 118.909 166.558 118.101 168.222 116.483C169.909 114.843 170.753 112.534 170.753 109.558C170.753 107.331 169.874 105.339 168.116 103.581C166.358 101.8 164.354 100.909 162.104 100.909H140.378V146.472H137.847V98.3779H162.104C165.058 98.3779 167.659 99.5146 169.909 101.788C172.159 104.062 173.284 106.651 173.284 109.558C173.284 113.144 172.194 116.026 170.015 118.206C167.835 120.362 165.198 121.44 162.104 121.44H147.409V118.909ZM147.409 123.972H162.104C164.542 123.972 166.792 123.386 168.854 122.214C170.94 121.019 172.616 119.308 173.882 117.081C175.171 114.854 175.815 112.347 175.815 109.558C175.815 105.948 174.433 102.761 171.667 99.9951C168.925 97.2295 165.737 95.8467 162.104 95.8467H135.315V146.472H132.784V93.3154H162.104C164.94 93.3154 167.612 94.0654 170.12 95.5654C172.628 97.0654 174.62 99.0693 176.097 101.577C177.597 104.085 178.347 106.745 178.347 109.558C178.347 112.745 177.597 115.651 176.097 118.276C174.597 120.878 172.604 122.905 170.12 124.358C167.659 125.788 164.987 126.503 162.104 126.503H147.409V123.972ZM147.409 129.034H162.104C164.612 129.034 167.015 128.542 169.312 127.558C171.608 126.55 173.601 125.202 175.288 123.515C176.999 121.804 178.358 119.741 179.366 117.327C180.374 114.89 180.878 112.3 180.878 109.558C180.878 106.276 180.022 103.194 178.312 100.312C176.601 97.4053 174.292 95.0967 171.386 93.3857C168.503 91.6514 165.409 90.7842 162.104 90.7842H130.253V146.472H127.722V88.2529H162.104C165.854 88.2529 169.37 89.2373 172.651 91.2061C175.933 93.1514 178.546 95.7646 180.491 99.0459C182.437 102.327 183.409 105.831 183.409 109.558C183.409 112.886 182.835 115.956 181.687 118.769C180.538 121.558 178.991 123.878 177.046 125.729C175.101 127.581 172.839 129.022 170.261 130.054C167.683 131.062 164.964 131.565 162.104 131.565H147.409V129.034ZM145.44 146.472H142.909V103.44H162.104C163.769 103.44 165.198 104.05 166.394 105.269C167.612 106.487 168.222 107.917 168.222 109.558C168.222 114.104 166.183 116.378 162.104 116.378H147.409V113.847H162.104C163.229 113.847 164.108 113.53 164.741 112.897C165.374 112.265 165.69 111.151 165.69 109.558C165.69 108.526 165.339 107.671 164.636 106.991C163.956 106.312 163.112 105.972 162.104 105.972H145.44V146.472Z" fill="white"/>
<path d="M213.8 153.866L204.87 149.931L210.189 157.495L209.245 159.609L200.311 160.772L208.98 164.648L207.015 169.043L190.205 161.527L191.955 157.613L204.298 156.043L197.173 145.942L198.923 142.028L215.754 149.495L213.8 153.866Z" fill="white"/>
<path d="M195.78 176.511L190.621 182.343L192.342 185.797L188.822 189.777L180.414 171.49L183.813 167.647L203.008 173.739L199.418 177.798L195.78 176.511ZM191.892 175.11L185.91 172.979L188.755 178.656L191.892 175.11Z" fill="white"/>
<path d="M184.094 188.633L186.606 191.777L175.055 201.004L163.563 186.617L174.846 177.604L177.358 180.748L170.103 186.544L172.041 188.969L178.432 183.863L180.862 186.905L174.47 192.011L176.572 194.642L184.094 188.633Z" fill="white"/>
<path d="M155.031 196.705L150.214 199.669L148.05 196.152L162.096 187.508L164.261 191.025L159.467 193.975L166.953 206.14L162.517 208.87L155.031 196.705Z" fill="white"/>
<path d="M128.827 200.988L133.883 199.736L137.316 213.601L145.844 211.49L146.837 215.498L133.253 218.862L128.827 200.988Z" fill="white"/>
<path d="M115 200.997H120.208V215.281H128.994V219.411H115V200.997Z" fill="white"/>
<path d="M105.247 216.087L97.5141 215.175L95.658 218.558L90.3811 217.935L100.611 200.601L105.705 201.202L111.646 220.444L106.264 219.809L105.247 216.087ZM104.182 212.094L102.521 205.965L99.4794 211.539L104.182 212.094Z" fill="white"/>
<path d="M87.6475 207.699C88.4608 208.461 88.9805 209.324 89.2066 210.287C89.4398 211.233 89.3329 212.212 88.886 213.223C88.2334 214.698 87.1363 215.574 85.5948 215.851C84.0534 216.128 82.16 215.77 79.9147 214.777L70.8212 210.755L78.2695 193.915L86.8819 197.724C89.031 198.675 90.4895 199.799 91.2575 201.098C92.0325 202.38 92.1221 203.695 91.5262 205.042C91.1716 205.844 90.6519 206.477 89.9672 206.941C89.3056 207.397 88.5324 207.649 87.6475 207.699ZM81.4631 199.441L80.0266 202.688L83.2983 204.135C84.9021 204.845 85.9452 204.654 86.4276 203.564C86.9029 202.489 86.3386 201.597 84.7348 200.888L81.4631 199.441ZM81.0513 211.167C82.7193 211.904 83.8051 211.704 84.3087 210.565C84.8124 209.426 84.2302 208.488 82.5623 207.75L78.5689 205.984L77.0579 209.4L81.0513 211.167Z" fill="white"/>
<path d="M65.1431 190.774L60.5277 187.505L62.9146 184.135L76.3743 193.667L73.9874 197.037L69.3935 193.784L61.1384 205.44L56.888 202.43L65.1431 190.774Z" fill="white"/>
<path d="M43.3089 192.944C41.8064 191.707 40.7149 190.273 40.0343 188.645C39.3672 187.028 39.1512 185.373 39.3863 183.681C39.6349 182 40.339 180.455 41.4986 179.048C42.6582 177.64 44.0391 176.653 45.6413 176.087C47.2571 175.532 48.9226 175.427 50.6377 175.772C52.3665 176.129 53.9821 176.926 55.4845 178.163C56.987 179.401 58.0718 180.828 58.7389 182.446C59.4195 184.074 59.6355 185.729 59.3869 187.41C59.1517 189.102 58.4544 190.652 57.2948 192.06C56.1352 193.467 54.7476 194.449 53.1318 195.003C51.5296 195.569 49.8641 195.674 48.1354 195.318C46.4202 194.973 44.8114 194.182 43.3089 192.944ZM46.0518 189.614C46.7692 190.205 47.5582 190.571 48.419 190.712C49.2798 190.853 50.1303 190.759 50.9704 190.428C51.8217 190.084 52.5763 189.513 53.2341 188.715C53.8919 187.916 54.3025 187.073 54.4659 186.185C54.6404 185.284 54.576 184.424 54.2727 183.606C53.9694 182.788 53.4591 182.084 52.7417 181.493C52.0243 180.902 51.2352 180.536 50.3744 180.395C49.5136 180.254 48.6576 180.355 47.8063 180.699C46.9662 181.03 46.2172 181.594 45.5593 182.393C44.9015 183.191 44.4853 184.041 44.3108 184.943C44.1475 185.831 44.2175 186.683 44.5207 187.501C44.824 188.319 45.3344 189.023 46.0518 189.614Z" fill="white"/>
<path d="M27.3787 173.069C26.4637 171.351 26.0033 169.609 25.9972 167.844C25.9994 166.095 26.4326 164.483 27.297 163.009C28.1697 161.551 29.4109 160.394 31.0207 159.537C32.6305 158.679 34.2838 158.296 35.9807 158.385C37.6858 158.491 39.2648 159.031 40.7176 160.005C42.1787 160.996 43.3667 162.35 44.2816 164.068C45.1965 165.786 45.6529 167.52 45.6507 169.27C45.6568 171.035 45.2235 172.646 44.3509 174.104C43.4865 175.578 42.2494 176.743 40.6396 177.6C39.0298 178.458 37.3723 178.834 35.6672 178.728C33.9704 178.638 32.3914 178.098 30.9303 177.108C29.4774 176.133 28.2936 174.787 27.3787 173.069ZM31.1865 171.041C31.6233 171.862 32.2124 172.502 32.9538 172.961C33.6952 173.421 34.5172 173.658 35.4199 173.674C36.3379 173.682 37.2536 173.443 38.1669 172.957C39.0801 172.47 39.782 171.848 40.2725 171.09C40.7785 170.324 41.0477 169.505 41.0803 168.634C41.1128 167.762 40.9107 166.916 40.4738 166.096C40.037 165.275 39.4478 164.635 38.7064 164.176C37.965 163.716 37.1353 163.483 36.2172 163.475C35.3146 163.459 34.4067 163.694 33.4934 164.18C32.5802 164.666 31.8705 165.293 31.3646 166.059C30.8741 166.817 30.6126 167.631 30.58 168.503C30.5475 169.375 30.7496 170.221 31.1865 171.041Z" fill="white"/>
<path d="M28.4363 147.327L24.6998 148.891L27.8395 156.389L24.1272 157.943L20.9875 150.446L15.1643 152.885L13.1524 148.08L30.1367 140.968L35.7151 154.288L32.0028 155.843L28.4363 147.327Z" fill="white"/>
<circle cx="19.56" cy="115" r="6.40762" fill="white"/>
<circle cx="209.428" cy="115" r="6.40762" fill="white"/>
</svg>
