<?xml version="1.0" encoding="UTF-8" standalone="no"?>
<!-- Created with Inkscape (http://www.inkscape.org/) -->

<svg
   xmlns:dc="http://purl.org/dc/elements/1.1/"
   xmlns:cc="http://creativecommons.org/ns#"
   xmlns:rdf="http://www.w3.org/1999/02/22-rdf-syntax-ns#"
   xmlns:svg="http://www.w3.org/2000/svg"
   xmlns="http://www.w3.org/2000/svg"
   xmlns:sodipodi="http://sodipodi.sourceforge.net/DTD/sodipodi-0.dtd"
   xmlns:inkscape="http://www.inkscape.org/namespaces/inkscape"
   width="200"
   height="150"
   viewBox="0 0 200 150"
   id="svg2"
   version="1.1"
   inkscape:version="0.91 r13725"
   sodipodi:docname="Mustangs.svg">
  <defs
     id="defs4">
    <pattern
       y="0"
       x="0"
       height="6"
       width="6"
       patternUnits="userSpaceOnUse"
       id="EMFhbasepattern" />
    <pattern
       y="0"
       x="0"
       height="6"
       width="6"
       patternUnits="userSpaceOnUse"
       id="EMFhbasepattern-5" />
    <pattern
       y="0"
       x="0"
       height="6"
       width="6"
       patternUnits="userSpaceOnUse"
       id="EMFhbasepattern-52" />
    <pattern
       y="0"
       x="0"
       height="6"
       width="6"
       patternUnits="userSpaceOnUse"
       id="EMFhbasepattern-2" />
    <pattern
       y="0"
       x="0"
       height="6"
       width="6"
       patternUnits="userSpaceOnUse"
       id="EMFhbasepattern-1" />
  </defs>
  <sodipodi:namedview
     id="base"
     pagecolor="#ffffff"
     bordercolor="#666666"
     borderopacity="1.0"
     inkscape:pageopacity="0.0"
     inkscape:pageshadow="2"
     inkscape:zoom="1.979899"
     inkscape:cx="110.574"
     inkscape:cy="35.722924"
     inkscape:document-units="px"
     inkscape:current-layer="layer1"
     showgrid="false"
     fit-margin-top="0"
     fit-margin-left="0"
     fit-margin-right="0"
     fit-margin-bottom="0"
     units="px"
     inkscape:window-width="1440"
     inkscape:window-height="837"
     inkscape:window-x="1432"
     inkscape:window-y="-8"
     inkscape:window-maximized="1" />
  <metadata
     id="metadata7">
    <rdf:RDF>
      <cc:Work
         rdf:about="">
        <dc:format>image/svg+xml</dc:format>
        <dc:type
           rdf:resource="http://purl.org/dc/dcmitype/StillImage" />
        <dc:title></dc:title>
      </cc:Work>
    </rdf:RDF>
  </metadata>
  <g
     inkscape:label="Layer 1"
     inkscape:groupmode="layer"
     id="layer1"
     transform="translate(536.30539,-546.064)">
    <g
       id="g4330"
       transform="matrix(0.68301544,0,0,0.68301544,-108.29274,204.63225)">
      <path
         style="fill:#ffffff;fill-opacity:1;fill-rule:nonzero;stroke:none"
         d="m -414.68782,532.80685 c -1.4605,0 -2.70905,1.03716 -3.15355,1.71449 -0.4445,0.67733 -0.52917,1.14298 -0.59267,1.54515 -0.14817,0.78317 -0.10583,1.35467 -0.0212,1.9685 0.0423,0.254 0.0847,0.50797 0.14817,0.7408 -1.37583,-0.16933 -2.89983,-0.31747 -4.99533,-0.50797 -7.72584,-0.71966 -9.94834,-1.18533 -12.48834,-2.39183 -0.33866,-0.16933 -0.61383,-0.29633 -1.05833,-0.46566 -0.46567,-0.16933 -1.3335,-0.67733 -2.96333,-0.0423 -0.80434,0.31749 -1.524,0.99482 -1.86267,1.54516 -0.33867,0.55033 -0.42333,0.93133 -0.508,1.22766 -0.14817,0.59264 -0.14817,0.84664 -0.16933,1.14297 -0.1905,1.73567 0.0212,3.23848 0.762,4.84714 l 0,0 c 0.29633,0.635 0.67733,1.18534 1.12183,1.73567 -0.84667,0.0212 -1.60867,0.0212 -3.47133,0.0212 l -4.826,0.0212 -0.80434,-0.40217 c -0.48683,-0.23283 -0.97366,-0.42333 -1.41816,-0.61383 -0.21167,-0.0847 -0.42334,-0.14817 -0.65617,-0.23283 -0.23283,-0.0635 -0.1905,-0.21167 -1.3335,-0.21167 -0.16933,0 -0.4445,-0.0212 -1.016,0.10583 -0.5715,0.14817 -1.54489,0.635 -2.11639,1.397 -1.143,1.52397 -0.78316,2.20131 -0.78316,2.51881 0,0.80433 0.10583,0.97366 0.16933,1.35466 0.0847,0.35981 0.1905,0.74081 0.3175,1.12181 0.5715,1.82033 1.75655,3.64064 3.40755,4.9318 0.23284,0.16934 0.48684,0.3175 0.71967,0.46567 -0.93133,0.33867 -1.60867,0.5715 -2.794,0.99483 -9.29189,3.32314 -13.54639,4.44489 -19.07089,5.03756 -1.69333,0.1905 -7.239,0.21167 -8.84766,0.0635 -3.21734,-0.3175 -3.3655,-0.35983 -6.731,-1.96842 -5.16439,-2.45533 -10.18089,-3.6618 -15.89589,-3.8523 -8.6995,-0.254 -16.84866,2.28597 -26.24638,7.91622 l 0,0 c -1.3335,0.80433 -4.67783,2.9845 -7.8105,5.08 -9.29217,6.1595 -11.91683,7.64117 -15.875,8.99583 -2.32833,0.78317 -3.048,0.91017 -4.27567,0.84667 -0.40216,-0.0212 -1.0795,-0.127 -1.62983,-0.254 -0.0212,0 -0.0423,-0.0212 -0.0635,-0.0212 -0.0847,-0.29633 -0.14817,-0.635 -0.14817,-0.762 l 0,0 c 0,-0.67733 -0.0635,-0.52917 1.10067,-2.51883 0.762,-1.3335 1.29117,-2.18017 1.67217,-3.302 0.40216,-1.143 0.4445,-2.26484 0.4445,-3.2385 0.0212,-1.3335 -0.127,-2.51884 -0.42334,-3.4925 -0.762,-2.413 -2.68816,-4.572 -5.05883,-5.56675 -2.37067,-1.016 -5.0165,-1.16417 -8.08539,-0.9525 l 0,0 c -1.35466,0.10583 -3.937,0.40216 -6.11716,0.67733 -2.0955,0.27517 -4.52967,0.5715 -5.18584,0.635 -1.143,0.10583 -4.91066,0.1905 -6.26533,0.10583 -1.10067,-0.0635 -2.30717,0 -3.53483,0.10584 -1.98967,0.16925 -6.56158,0.16925 -8.10675,0.0423 -0.88897,-0.0847 -2.41297,-0.21167 -3.53481,-0.27517 -3.64063,-0.21167 -4.02163,-0.42333 -7.74694,-4.02164 -2.18014,-2.13783 -3.42897,-3.2173 -4.78361,-4.1063 -0.6985,-0.4445 -1.397,-0.80434 -2.0955,-1.10067 -0.33867,-0.14817 -0.67733,-0.29633 -1.0795,-0.40217 -0.40217,-0.127 -0.71964,-0.3175 -1.84147,-0.1905 -0.1905,0.0212 -0.78317,0.0423 -1.58749,0.508 -0.80433,0.4445 -1.39699,1.29117 -1.60866,1.79917 -0.35983,0.8043 -0.40216,1.16414 -0.46566,1.5663 -0.3175,0.5715 -0.5715,1.2065 -0.61383,1.56634 -0.0846,0.6985 -0.0635,1.16416 -0.0635,2.0108 l 0,1.82034 c 0,0.42333 0.0847,0.84666 0.23283,1.24874 l 0.95249,2.6035 c 1.27,3.429 2.41299,5.969 4.02165,8.08567 1.62981,2.11667 3.70414,3.6195 6.09595,4.86833 4.46613,2.286 8.72061,3.3655 19.32496,4.97417 5.73617,0.86783 8.5725,1.41817 10.922,2.07433 0.508,2.39184 1.29117,4.48734 2.62467,6.24389 1.48167,1.92617 3.6195,3.25967 5.92667,3.89467 1.0795,0.29633 2.159,0.35983 3.91583,0.33866 2.62467,0 4.19072,-0.23283 9.16489,-1.41816 5.12233,-1.2065 5.79966,-1.31234 7.85283,-1.3335 2.0955,-0.0212 1.54517,-0.127 2.7305,0.42333 0.3175,0.14817 1.03717,0.8255 1.3335,1.35467 l 0,0 c 0.40217,0.78316 1.54517,4.318 2.794,9.88483 1.778,8.04333 3.048,12.10733 5.41867,15.26117 4.23333,5.67266 11.89566,10.20205 19.70588,12.17055 0.74083,0.1905 1.62983,0.35983 2.49767,0.508 0.5715,0.10583 0.99483,0.1905 1.524,0.23283 0.0423,0.0212 -0.0212,-0.0212 0.10583,0.0847 1.143,0.84667 3.89467,3.15383 5.82083,4.86833 1.69334,1.524 7.1755,7.00617 8.08567,8.0645 0.40217,0.46567 0.71967,0.84667 1.18533,1.24883 0.46567,0.40217 1.29117,0.97367 2.3495,1.12184 3.06917,0.42333 3.70417,0.61383 5.60917,1.60866 1.43933,0.74084 2.45533,1.43934 4.46588,3.2385 -0.762,0.5715 -1.52371,1.24884 -2.28571,2.05317 l -0.27517,0.254 1.05833,0.254 c -1.88383,-0.4445 -3.81,-0.59267 -5.69383,-0.42333 -5.37633,0.508 -10.43517,2.7305 -12.84817,7.26016 -0.46566,0.86784 -0.6985,2.286 -0.6985,3.32317 l 0,0 c 0,1.10067 0.3175,2.62438 0.71967,3.44988 1.3335,2.70934 3.85233,4.21217 6.6675,4.97417 1.4605,0.42333 2.62467,0.381 4.0005,0.381 1.397,-0.0212 2.62467,-0.0635 4.02167,-0.4445 2.30716,-0.635 4.40238,-1.778 6.01105,-3.45017 l -1.397,-0.1905 0,0 c 0.48683,0.0635 0.97366,0.0847 1.4605,0.10584 0.33866,-0.35984 0.65616,-0.74084 0.9525,-1.16417 l -0.80434,1.16417 c 1.016,0.0423 2.032,-0.0635 3.09034,-0.3175 2.0955,-0.508 3.89466,-1.60867 7.62,-4.33889 0.74083,-0.55033 1.651,-1.0795 2.413,-1.41816 0.27516,-0.10584 0.508,-0.16934 0.71966,-0.23284 0.3175,0.16934 0.635,0.33867 1.0795,0.59267 1.2065,0.67733 2.70934,1.60867 3.95817,2.45533 3.683,2.45505 5.16467,4.25422 6.20183,7.06939 l 0,0 0.33867,0.9525 c 0.46567,1.27 1.5875,2.159 2.921,2.32833 l 0.6985,0.0847 -0.0212,0 c 1.9685,0.254 4.445,0.35983 6.477,0.14816 0.46539,0.61384 1.26972,1.905 1.98939,3.8735 0.29633,0.84667 0.508,1.75684 1.50283,2.81517 1.016,1.05833 1.92617,1.29117 2.75167,1.651 1.651,0.67733 3.683,1.2065 5.461,1.4605 0.10583,0.0212 0.23283,0.0212 0.35983,0.0423 0.78317,0.0847 1.5875,0.10584 2.413,0.127 0.9525,0 1.62984,0.0423 2.75167,-0.16933 1.56633,-0.29633 2.921,-0.762 4.29683,-1.9685 l 0,0 0.508,-0.46567 c 1.0795,-0.97366 1.48167,-2.49766 0.99484,-3.85233 l -0.23284,-0.6985 0,0 c -0.27516,-0.80433 -0.61383,-1.50283 -0.99483,-2.26483 -1.67217,-3.32317 -4.33917,-6.1595 -7.70467,-8.46667 l 0.33867,-0.254 c 0.9525,-0.762 1.4605,-1.9685 1.3335,-3.17472 l -0.0635,-0.67733 0,0 c -0.29633,-2.87867 -1.778,-4.953 -3.95817,-6.56167 -1.94733,-1.41816 -4.21216,-2.26483 -8.21266,-3.32316 -2.49767,-0.67734 -3.85206,-1.143 -4.74106,-1.5875 1.37584,-1.10067 2.75139,-2.43417 4.31772,-4.2545 0.78317,-0.91017 1.35467,-1.50284 1.8415,-2.032 0.0212,0.0212 0.0423,0.0212 0.0635,0.0212 0.91017,0.27517 2.01084,0.65617 2.794,0.97367 0.80434,0.3175 3.048,1.24883 4.74134,2.01083 5.99016,2.62467 9.525,3.76767 13.56783,4.318 0.55033,0.0847 1.98967,0.16934 3.15383,-0.381 1.143,-0.55033 1.54517,-1.05833 2.3495,-1.75683 2.286,-2.032 4.1275,-4.42383 5.24934,-7.06967 0.1905,-0.48683 0.46566,-1.24883 0.5715,-2.01083 0.10583,-0.74083 0.127,-1.41817 0.1905,-2.6035 0.0423,-0.6985 0.0635,-1.35467 0.0635,-1.86267 0.0212,-0.254 0.0212,-0.48683 0.0212,-0.67733 0,-0.10583 0,-0.21167 -0.0212,-0.35983 0,-0.0635 0,-0.14817 -0.0212,-0.3175 -0.0212,-0.0847 0.0635,-0.127 0.0212,-0.29634 0.0212,0.10584 -0.0212,0.127 -0.0423,0.16934 0,-0.0212 0,-0.0212 0,-0.0423 0,-0.0635 0,-0.1905 0,-0.27516 -0.0635,-0.1905 -0.16933,-0.46567 -0.48683,-0.97367 0.3175,0.508 0.42333,0.762 0.48683,0.93133 0,-0.21166 -0.0212,-0.4445 -0.0212,-0.78316 0,-0.93134 0,-2.2225 0,-3.556 0.0212,-2.64583 0.127,-5.94755 0.127,-5.84172 0.0847,-0.99483 0.16933,-2.43416 0.1905,-3.57716 l 0,0 c 0.0635,-2.62467 0.23283,-3.25967 1.79888,-6.26534 3.19617,-6.1595 3.59833,-7.8105 3.59833,-15.07066 -0.0212,-1.54517 -0.0212,-2.921 -0.0635,-4.0005 -0.0212,-1.10067 0.0423,-1.48167 -0.14816,-2.51884 -0.0423,-0.27516 -0.29634,-2.43416 -0.508,-4.2545 -0.0635,-0.48683 -0.0847,-0.88872 -0.14817,-1.31205 1.24883,-0.6985 2.54,-1.524 4.191,-2.667 6.58283,-4.572 8.36083,-5.588 11.09133,-6.49817 2.77284,-0.91016 4.572,-1.16416 7.97984,-1.03716 1.43933,0.0635 4.3815,0.14816 6.62516,0.1905 l 1.10067,0.0212 -0.23283,-1.35467 c 0.889,4.91067 3.3655,8.89 7.34455,10.83733 2.64583,1.31206 5.588,1.69305 10.51983,1.71422 l 1.905,0 0.48683,0.33867 c 2.921,1.905 6.05367,3.28083 9.18634,3.85233 0.71966,1.60867 1.9685,3.06917 3.53483,3.89467 2.05317,1.0795 4.27567,1.3335 6.87832,1.3335 l 1.84291,0 c 0.97367,0 1.905,-0.40217 2.58234,-1.10067 l 0.71966,-0.74083 0,0 c 1.58609,-1.62983 2.43276,-3.57717 3.06776,-5.79967 0.33866,-1.18533 0.46566,-2.30716 0.46566,-4.42355 0,-2.81517 -0.381,-4.91067 -1.33208,-6.83683 -0.93134,-1.88384 -2.39325,-3.429 -4.84858,-5.43984 l 0,0 c -3.40642,-2.7305 -4.02167,-3.47133 -5.31199,-6.13833 -0.61383,-1.24883 -0.86783,-1.9685 -2.51883,-7.21783 -0.91017,-2.89975 -1.62984,-4.67775 -2.667,-6.26522 -1.18534,-1.82034 -2.83634,-3.30197 -4.7625,-4.29681 l -0.10584,1.905 0,0 c 0.0423,-0.67733 0,-1.31233 -0.0635,-1.98967 -0.381,-0.19049 -0.78316,-0.38099 -1.2065,-0.52916 l 1.2065,0.4445 c -0.0847,-0.86784 -0.23283,-1.73564 -0.40216,-2.70931 -0.10584,-0.59266 -0.10584,-1.03716 -0.5715,-2.01083 -0.46567,-0.95247 -1.397,-1.65097 -1.69334,-1.84147 -1.50283,-1.03717 -3.57716,-2.01084 -6.35,-3.21731 -2.77283,-1.22766 -4.6355,-2.159 -5.31283,-2.6035 l 0,0 c -0.29633,-0.16933 -0.55033,-0.33866 -0.86783,-0.48683 -0.16934,-0.0847 -0.3175,-0.14817 -0.61384,-0.25397 -0.14816,-0.0423 -0.33866,-0.10584 -0.6985,-0.16934 -0.381,-0.0423 -1.016,-0.35983 -2.413,0.50798 l 0,0 c -1.143,0.6985 -1.7145,2.159 -1.75683,2.94216 -0.0423,0.78314 0.10583,1.18531 0.21167,1.50281 0.21166,0.65617 0.42333,0.97366 0.65616,1.35466 0.14817,0.23284 0.33867,0.50801 0.52917,0.76201 -0.27517,-0.16934 -0.46567,-0.27517 -0.80433,-0.50801 -2.286,-1.524 -3.85205,-2.3495 -5.63005,-2.8998 -2.64584,-0.78317 -5.88434,-1.10067 -9.69434,-1.10067 -4.78366,-0.0212 -7.72583,-0.61383 -11.38766,-2.26483 -0.59267,-0.27514 -2.81517,-1.39697 -4.5085,-2.30714 -1.5875,-0.84666 -3.1115,-1.65098 -4.29684,-2.22248 -0.59266,-0.29633 -1.10066,-0.55033 -1.524,-0.74083 -0.21166,-0.10583 -0.40216,-0.16933 -0.61383,-0.254 -0.10583,-0.0423 -0.21167,-0.0847 -0.381,-0.14816 -0.19047,-0.0424 -0.27514,-0.16942 -1.1218,-0.16942 z m -210.45849,20.70086 c -0.23283,0.1905 -0.52916,0.65614 -0.80433,1.16414 0.14817,-0.6985 0.21167,-0.67734 0.80433,-1.16414 z m 180.9101,0.16933 c -0.0212,0 -0.14816,0.0423 -0.1905,0.0635 0.127,-0.0847 0.16934,-0.0847 0.1905,-0.0635 z m -0.35983,6.09595 c 0.0423,0 -0.1905,-0.127 0,0 z m -116.81799,19.74841 c 0.33867,0.27517 0.127,0.1905 0,0 z m -23.85455,3.70417 c 0.0423,0.254 0.10583,0.46566 0.14817,0.6985 l -0.0212,0 -0.127,-0.6985 z m 171.97776,4.33916 c 0,0.0423 0.0847,0.0212 0.0212,0.3175 0,-0.10583 -0.0212,-0.254 -0.0212,-0.3175 0,0 0,0 0,0 z m -74.29444,29.84472 0,0 c 1.651,0 2.51883,0 2.921,0.0212 0.381,0.0423 0.29633,0.0212 0.8255,0.16933 1.56633,0.42334 2.8575,0.9525 6.7945,2.94217 0.0847,0.0423 0.16933,0.0847 0.254,0.127 -0.4445,0.0847 -0.9525,0.23283 -1.7145,0.78317 -0.42333,0.3175 -0.97367,0.97366 -1.24883,1.54516 -0.254,0.5715 -0.3175,0.99484 -0.35984,1.3335 -0.0847,0.635 -0.0635,1.05834 -0.0635,1.75684 l 0,0 c 0,6.39205 3.937,11.95888 9.94834,14.01205 0.635,0.21166 1.24883,0.381 1.88383,0.508 -0.27517,0.16933 -0.59267,0.29633 -0.97367,0.381 0.10584,-0.0212 -3.28083,0 -3.45016,-0.0212 -1.48167,-0.29633 -3.13267,-1.05833 -4.16984,-1.905 -0.78316,-0.61383 -3.302,-3.06917 -4.86833,-4.84717 -2.94217,-3.38666 -5.60917,-7.02705 -7.47183,-10.13855 -1.8415,-3.09033 -2.68817,-6.096 -2.68817,-5.94783 0,-0.1905 -0.127,-0.10583 0.35983,-0.35983 0.52917,-0.29634 0.3175,-0.23284 0.6985,-0.27517 0.40217,-0.0635 1.41817,-0.0847 3.32317,-0.0847 z m 25.80217,7.0485 c -0.21167,0.84667 -0.46567,1.8415 -0.74084,2.89984 -0.29633,-0.42334 -0.55033,-0.97367 -0.8255,-1.86267 -0.10583,-0.33867 -0.21166,-0.65617 -0.35983,-0.97367 0.635,0 1.29117,-0.0212 1.92617,-0.0635 z m -1.62984,5.90522 c -0.14816,0.40217 0.0212,-0.10583 0,0 z m 23.02906,1.10067 c 0.46566,0.86783 0.889,1.75683 1.05833,2.30716 0.21167,0.6985 0.21167,0.6985 0.21167,1.4605 -0.635,-0.3175 -1.397,-0.80433 -2.37067,-1.524 0,-0.0423 0.0212,-0.0635 0.0423,-0.10583 0.42334,-0.91017 0.71967,-1.50283 1.05834,-2.13783 z m -2.94217,0.84666 c 0.0423,-0.0212 0.0847,-0.0212 0.27517,0.254 0,0 0,0 0,0 -0.14817,-0.10583 -0.254,-0.1905 -0.29634,-0.23283 0,0 0.0212,-0.0212 0.0212,-0.0212 z m 3.95817,5.08 c -0.0423,0.0635 -0.0423,0.0847 -0.0847,0.14817 0,0 0.0212,-0.0423 0.0847,-0.14817 z m -27.53756,3.47134 c 0.5715,0.0847 1.143,0.14816 1.778,0.16933 l -1.778,-0.0847 0,-0.0847 z m -11.02783,21.7805 c 0.0212,0 0.127,0.0423 0.29633,0.127 -0.40216,-0.0423 -0.29633,-0.127 -0.29633,-0.127 z m 22.77505,13.94855 c -0.19022,0 -0.19022,0.0635 -0.27488,0.0212 0.0847,-0.0212 0.1905,-0.0212 0.27488,-0.0212 z"
         id="path4319"
         inkscape:connector-curvature="0" />
      <path
         style="fill:#d31309;fill-opacity:1;fill-rule:nonzero;stroke:none"
         d="m -443.38954,682.85622 c -1.24883,-0.16933 -3.556,-0.78317 -4.59317,-1.22767 -1.651,-0.6985 -1.651,-0.67733 -2.26483,-2.37066 -1.0795,-2.96334 -2.26483,-4.93184 -3.53483,-5.9055 l -0.635,-0.46567 -1.18506,0.14817 c -1.143,0.127 -4.445,0.0635 -6.0325,-0.127 l -0.67733,-0.0847 -0.33867,-0.9525 c -1.29116,-3.53483 -3.51366,-6.11688 -7.57766,-8.82622 -2.667,-1.79916 -6.20184,-3.81 -6.64634,-3.81 -1.24883,0 -3.70416,1.0795 -5.6515,2.51884 -3.66183,2.68816 -4.80483,3.3655 -6.32883,3.7465 -0.91017,0.21166 -2.30717,0.27516 -3.3655,0.127 l -0.635,-0.10584 -0.40217,0.5715 c -1.01571,1.46022 -2.85721,2.68789 -5.01621,3.28055 -1.37584,0.35984 -4.86834,0.40217 -6.13834,0.0635 -2.05316,-0.5715 -3.70416,-1.73566 -4.3815,-3.1115 -0.29633,-0.61355 -0.35983,-0.86755 -0.35983,-1.84121 0,-0.93134 0.0635,-1.24884 0.27517,-1.651 1.4605,-2.70934 5.6515,-4.97417 10.01183,-5.37634 1.50283,-0.127 3.02683,-0.0212 4.55083,0.33867 l 0.93134,0.21167 1.67188,-1.7145 c 2.13783,-2.18017 3.21733,-2.89984 5.05883,-3.32317 0.40217,-0.10583 0.78317,-0.21167 0.8255,-0.254 0.0423,-0.0423 -0.55033,-0.65617 -1.31233,-1.37583 -3.83117,-3.59834 -5.41867,-4.86834 -7.66205,-6.0325 -2.159,-1.10067 -3.53483,-1.50284 -6.75217,-1.9685 -0.29633,-0.0423 -0.61383,-0.3175 -1.3335,-1.143 -1.3335,-1.54517 -6.43466,-6.64634 -8.40316,-8.40317 -2.01084,-1.778 -4.72017,-4.064 -6.05367,-5.05883 -0.74083,-0.5715 -1.10067,-0.76172 -1.41817,-0.76172 -0.508,0 -2.87866,-0.40217 -3.97933,-0.67733 -7.02733,-1.778 -14.26605,-6.223 -17.73738,-10.8585 -1.82034,-2.43417 -3.02684,-5.94784 -4.78367,-13.88534 -1.24883,-5.6515 -2.26483,-9.144 -3.1115,-10.77383 -0.65617,-1.24883 -1.79917,-2.37039 -2.9845,-2.92072 -1.397,-0.67733 -2.05317,-0.78317 -4.27567,-0.78317 -2.26483,0.0212 -3.4925,0.23284 -8.65716,1.43934 -4.93184,1.18505 -5.86289,1.33322 -8.36056,1.33322 -1.67216,0 -2.32833,-0.0423 -2.94216,-0.21167 -3.40784,-0.95222 -5.2705,-3.36522 -6.1595,-8.06422 l -0.27517,-1.4605 -1.3335,-0.40217 c -2.7305,-0.8255 -5.75733,-1.41816 -12.1285,-2.39183 -10.51969,-1.58747 -14.13916,-2.5188 -18.20313,-4.6143 -4.29681,-2.2225 -5.94781,-4.40267 -8.40311,-11.00667 l -0.9525,-2.60341 0,-1.82034 c 0,-1.67214 0.0212,-1.86264 0.23283,-2.05314 0.14817,-0.10583 0.27517,-0.33866 0.3175,-0.48683 0.23283,-1.24883 0.254,-1.31233 0.59267,-1.35467 0.40216,-0.0423 1.6298,0.508 2.66697,1.16417 1.05833,0.67733 2.0955,1.56633 4.2333,3.66181 3.93697,3.78874 5.90545,4.78358 10.03292,5.01641 1.0795,0.0847 2.62466,0.1905 3.42897,0.254 2.01083,0.1905 6.37108,0.1905 8.72058,-0.0212 1.0795,-0.0847 2.43417,-0.127 3.02683,-0.10583 1.73567,0.10583 5.2705,0.0423 6.83684,-0.10584 0.80433,-0.0847 3.175,-0.381 5.29166,-0.65616 2.11667,-0.27517 4.7625,-0.5715 5.9055,-0.65617 5.54539,-0.40217 8.46639,0.84667 9.46122,4.02167 0.23284,0.6985 0.27517,1.18533 0.27517,2.39183 0,1.82033 -0.10583,2.13783 -1.651,4.7625 -1.22767,2.11667 -1.56633,3.02683 -1.56633,4.29683 0,1.43934 0.635,3.28084 1.29116,3.70417 0.635,0.42333 2.54,0.86783 3.95817,0.93133 1.69333,0.0847 3.09033,-0.16933 5.588,-1.03716 4.29683,-1.4605 7.38717,-3.19617 16.72167,-9.398 3.09033,-2.07434 6.56138,-4.318 7.68321,-4.97417 9.03817,-5.43983 16.3195,-7.66225 24.257,-7.40825 5.31284,0.14817 9.69434,1.22758 14.47772,3.49242 3.47133,1.651 4.572,1.9685 7.9375,2.286 2.18017,0.21166 7.32367,0.1905 9.56733,-0.0635 5.82084,-0.635 10.51984,-1.86267 19.89639,-5.20692 5.03767,-1.82033 7.62,-2.68816 9.5885,-3.2808 0.84667,-0.254 1.5875,-0.508 1.651,-0.55034 0.16933,-0.14816 -0.3175,-0.381 -2.96333,-1.3335 -4.86834,-1.778 -6.58284,-3.0903 -7.40834,-5.69377 -0.16933,-0.52917 -0.29633,-1.16417 -0.29633,-1.397 0,-0.381 0.0423,-0.4445 0.3175,-0.4445 0.1905,0 1.03717,0.33866 1.88383,0.74083 l 1.524,0.71967 5.63034,0 c 5.05883,0 5.715,-0.0212 6.45583,-0.23284 0.9525,-0.27516 2.54,-1.05833 3.15383,-1.5875 l 0.4445,-0.35983 -0.3175,-0.381 c -0.16933,-0.21167 -0.84666,-0.84664 -1.50283,-1.39697 -1.56633,-1.29117 -2.24367,-2.032 -2.62467,-2.87867 -0.381,-0.84664 -0.5715,-2.03197 -0.46566,-2.9633 0.127,-1.20647 0.127,-1.20647 1.4605,-0.5715 3.02683,1.41816 5.88433,1.98966 13.69483,2.70933 5.99017,0.55031 7.97955,0.84664 10.56188,1.48164 1.0795,0.27517 1.31234,0.29633 1.41817,0.14817 0.33867,-0.52917 -0.10583,-1.39698 -1.37583,-2.79398 -1.12184,-1.22766 -1.73567,-2.2648 -1.86267,-3.1538 -0.10583,-0.61383 0,-1.12183 0.21167,-1.12183 0.254,0 3.13266,1.43933 6.24416,3.11147 1.75684,0.9525 3.8735,2.032 4.72017,2.413 4.08517,1.84147 7.72583,2.5823 12.84817,2.5823 3.59833,0 6.604,0.33867 8.65716,0.97367 1.4605,0.42333 2.49767,0.97364 4.69872,2.43414 3.1115,2.09547 4.14867,2.47647 6.2865,2.37064 1.35467,-0.0635 1.73567,-0.23284 1.92617,-0.93131 0.40216,-1.48167 0,-2.794 -1.397,-4.5508 -1.37584,-1.69334 -2.01084,-2.73048 -1.778,-2.87864 0.0423,-0.0212 0.40216,0.14816 0.78316,0.381 1.05834,0.6773 2.96334,1.60864 5.82084,2.85747 2.667,1.16414 4.80483,2.24364 5.73616,2.87864 0.52917,0.35983 0.55034,0.40216 0.762,1.54516 0.29634,1.58748 0.46567,3.19614 0.42334,3.95814 l -0.0423,0.61381 1.10067,0.42333 c 1.9685,0.71967 3.2385,1.73567 4.3815,3.51364 0.80433,1.2065 1.37583,2.58233 2.24367,5.37625 1.67216,5.2705 2.032,6.2865 2.70933,7.70466 1.4605,2.9845 2.75167,4.5085 6.28707,7.366 2.34808,1.905 3.21733,2.8575 3.89466,4.23334 0.762,1.54516 0.95109,2.62466 0.95109,5.24933 0,2.07405 -0.0197,2.39155 -0.31609,3.44989 -0.508,1.778 -1.33491,3.38666 -2.20133,4.27566 l -0.71967,0.74084 -1.84291,0 c -4.61349,0 -6.77249,-1.12184 -7.44982,-3.91584 -0.21167,-0.93133 0,-0.80433 -2.20133,-1.2065 -2.56117,-0.46566 -5.37634,-1.65072 -7.95867,-3.36522 l -1.397,-0.91016 -2.9845,-0.0212 c -4.7625,-0.0212 -6.9215,-0.33867 -8.9535,-1.3335 -2.96333,-1.4605 -4.61433,-3.97934 -5.3975,-8.255 l -0.27488,-1.54517 -4.04284,-0.0847 c -2.2225,-0.0423 -5.16466,-0.10583 -6.56166,-0.16933 -3.683,-0.127 -6.13834,0.1905 -9.22867,1.2065 -3.1115,1.03716 -5.37633,2.3495 -12.02267,6.96383 -2.05316,1.43933 -3.53483,2.3495 -4.84716,3.02683 -0.55034,0.27517 -1.03717,0.5715 -1.05834,0.635 -0.0423,0.16934 0.6985,6.87889 0.889,8.10656 0.0847,0.48683 0.14817,2.89983 0.14817,5.92666 0.0212,7.26017 0.0212,7.26017 -3.17472,13.41967 -1.67216,3.21733 -2.13783,4.86833 -2.20133,7.83167 -0.0212,1.016 -0.10583,2.49766 -0.1905,3.302 -0.14817,1.397 -0.21167,11.28155 -0.0635,11.49321 0.0212,0.0635 0,1.22767 -0.0635,2.58234 -0.10583,2.3495 -0.14817,2.56116 -0.48683,3.38666 -0.86784,2.032 -2.39184,4.064 -4.33917,5.7785 -1.54517,1.37584 -1.60867,1.41817 -2.64583,1.27 -3.66184,-0.48683 -6.70984,-1.48166 -12.573,-4.064 -1.73567,-0.762 -3.937,-1.69333 -4.8895,-2.05316 -1.79917,-0.6985 -4.61434,-1.56634 -5.10117,-1.56634 -0.3175,0 -1.651,1.3335 -3.61922,3.59834 -2.45533,2.83633 -4.02167,4.21216 -5.94783,5.22816 -0.55034,0.29634 -0.99484,0.635 -0.99484,0.71967 0,0.4445 0.71967,1.56633 1.50284,2.3495 1.37583,1.35467 3.28083,2.18017 7.66205,3.34433 3.8735,1.03717 5.5245,1.69334 6.985,2.77284 1.3335,0.97366 2.39183,2.667 2.51883,4.02166 l 0.0847,0.67734 -0.762,0.59238 c -0.86783,0.6985 -2.0955,1.37583 -3.51367,1.92617 -0.55033,0.21166 -1.016,0.4445 -1.03716,0.508 -0.0212,0.0635 0.5715,0.42333 1.31233,0.78316 4.8895,2.32834 8.48783,5.588 10.37167,9.3345 0.3175,0.61384 0.6985,1.43934 0.8255,1.8415 l 0.23283,0.67734 -0.508,0.48683 c -0.5715,0.48683 -1.54517,0.91017 -2.58233,1.12183 -0.762,0.127 -3.25967,0.127 -4.33917,-0.0423 z m -25.18805,-38.35372 c 1.778,-0.381 3.25966,-1.37583 4.14866,-2.75166 0.59267,-0.91017 1.03717,-2.49767 0.99484,-3.4925 l -0.0423,-0.71967 -1.4605,-0.0847 c -1.778,-0.10583 -2.7305,-0.27516 -4.1275,-0.74083 -4.7625,-1.62983 -7.53533,-5.54567 -7.53533,-10.62538 0,-1.35467 0.0212,-1.5875 0.21167,-1.73567 0.67733,-0.48683 3.429,-0.61383 5.22816,-0.23283 1.016,0.21166 3.28084,0.91016 3.78884,1.18533 0.16933,0.0847 0.35983,0.48683 0.59266,1.24883 0.84667,2.70905 2.24367,4.38122 4.33917,5.20672 0.91017,0.35983 2.01083,0.52917 2.18017,0.33867 0.27516,-0.33867 1.94733,-6.39205 2.286,-8.25472 0.33866,-1.8415 0.40216,-3.66183 0.127,-3.6195 -0.10584,0 -0.762,0.127 -1.4605,0.27517 -3.8735,0.80433 -7.40834,0.52916 -11.26067,-0.889 -0.61383,-0.21167 -2.81517,-1.24884 -4.86833,-2.286 -3.97934,-2.01084 -5.60917,-2.68817 -7.493,-3.19617 -1.12184,-0.29633 -1.3335,-0.3175 -4.65667,-0.3175 -3.85233,0 -4.3815,0.0635 -5.71472,0.78317 -1.43933,0.762 -2.24366,2.032 -2.24366,3.53483 0,3.25967 4.84688,11.36622 11.04871,18.45705 1.69334,1.92617 4.08517,4.318 5.31284,5.29167 1.56633,1.24883 3.66183,2.20133 5.715,2.6035 1.18533,0.23283 3.83116,0.23283 4.8895,0.0212 z m 32.34238,-5.35516 c 0.59267,-1.18534 0.71967,-1.79917 0.6985,-3.57717 0,-1.48167 -0.0635,-1.86267 -0.35983,-2.83633 -0.635,-2.11667 -2.32833,-5.14322 -3.76767,-6.70955 l -0.55033,-0.61384 -0.48683,0.35984 c -0.59267,0.48683 -1.56634,1.69333 -2.24367,2.79371 -0.71967,1.18534 -3.00567,6.13834 -2.89983,6.32884 0.0423,0.0847 0.889,0.762 1.905,1.48166 2.54,1.8415 4.064,2.62467 6.07483,3.06917 1.2065,0.254 1.35467,0.23283 1.62983,-0.29633 z"
         id="path4321"
         inkscape:connector-curvature="0" />
    </g>
  </g>
</svg>
