<svg width="1051" height="574" viewBox="0 0 1051 574" fill="none" xmlns="http://www.w3.org/2000/svg">
<path d="M411 120.673C214.2 205.873 55 378.506 0 454.173C37.3333 447.339 126.2 433.373 183 432.173C254 430.673 355.5 441.673 449 479.173C542.5 516.673 596 545.173 683.5 562.173C753.5 575.773 791 573.506 801 570.673C795 526.673 784.833 487.673 780.5 473.673C836.1 450.873 837.667 376.839 831.5 342.673C875.1 309.473 914.667 225.506 929 187.673C986.2 186.473 1034.17 201.506 1051 209.173C1013.4 183.573 956 177.506 932 177.673C935.2 170.473 936.333 164.339 936.5 162.173C997.7 161.773 1031.67 172.339 1041 177.673C1012.2 159.273 960.667 153.673 938.5 153.173C940.1 145.173 940.5 140.506 940.5 139.173C976.1 138.773 1009.33 147.339 1021.5 151.673C998.7 138.073 959 132.673 942 131.673C942 114.073 938.333 108.006 936.5 107.173C968 72.1727 967.51 52.1831 961.5 46.1727C958.5 43.1727 932 45.1727 912.5 39.6727C893 34.1727 807 -2.82715 681 0.172724C565.033 2.93373 453 36.1727 441.5 38.1727C430 40.1727 402 39.6727 391.5 40.6727C381 41.6727 372.5 53.1727 384 76.6727C393.2 95.4727 405.833 113.839 411 120.673Z" transform="translate(0 0.827148)" fill="#009ADA"/>
<path fill-rule="evenodd" clip-rule="evenodd" d="M746.957 360.615C746.613 350.585 745.511 341.143 744 333C866.8 163 827.5 131.5 800 122.5C829.2 154.9 797.5 183 778 193C819.2 143.4 817.769 136.642 760 108C781.435 95.1553 821.333 87.5 846 91.5C857.2 87.5 870.333 61.167 875.5 48.5C877.1 41.7002 871.833 41.333 869 42C848.5 46.5 822.5 47 821 47C841.752 63.6016 844.439 81.9268 845.45 88.8184C845.655 90.2178 845.791 91.1455 845.995 91.4922C820.395 48.2998 777.332 50.5 759 57C749 18.2002 651.5 2.83301 604 0C660 26 663 47.5 657.5 55C618.3 -17.4004 502.5 2.83301 449.5 22C423.9 52.7998 338.5 46.833 299 40C294.2 40 294 44.333 294.5 46.5C308.1 74.8994 331.167 96.666 341 104C345.8 102.399 363.333 100.333 371.5 99.5C134.3 223.899 25 372.333 0 431L0.594727 430.942C33.5942 426.644 68.5435 423.08 96 422.5C114.968 422.1 136.114 422.591 158.701 424.241C164.165 424.555 169.698 424.944 175.303 425.416C195.456 388.191 257.045 305.018 345 265.5C316.559 285.685 254.358 347.389 232.634 432.968C247.462 435.631 262.768 438.932 278.595 442.979C306.437 449.773 334.563 458.496 362 469.5C383.752 478.224 403.339 486.461 421.693 494.18C463.243 511.652 498.474 526.468 538.195 538.261C624.043 562.732 687.258 564.704 714 561C688.8 510.6 663.167 477 653.5 466.5C672.767 468.468 688.316 466.058 700.785 460.564C737.971 440.572 747.294 395.316 746.957 360.615ZM528 57C551.2 46.1992 578.333 47.5 589 49.5C574.2 47.8994 566.167 55.5 564 59.5C546.4 56.2998 532.667 56.5 528 57ZM388 205.5C377 252.5 390.4 348.6 532 357C489.333 346.667 400.8 301.9 388 205.5ZM572 156.5C497.6 152.9 430.333 173.333 406 184C466.4 165.6 541.833 166.333 572 169C570 164.2 571.167 158.667 572 156.5ZM403.5 113.5C440.5 104.333 532.901 91.5 606.501 113.5C604.5 114 599.4 116.4 595 122C566.333 114 487.9 101.1 403.5 113.5ZM403.5 150C429.5 140.5 501.8 123.7 583 132.5C581.333 134.667 577.7 140.1 576.5 144.5C544.5 139.5 465.1 133.6 403.5 150ZM697.5 435C593.324 461.33 577.5 313 606.501 258C594.167 310.833 591.801 413.4 681.001 401C700.501 399 727.001 394 731.001 362.5C733.324 344.205 723.841 321.863 715.384 301.938C709.28 287.556 703.71 274.433 703.5 265C703.1 247 717.501 225.5 724.501 219C708.805 248.488 715.459 272.638 718.556 283.874C718.714 284.45 718.864 284.993 719 285.5C719.46 287.205 720.994 290.64 723.108 295.372C737.113 326.718 776.564 415.017 697.5 435ZM663 102.847C680.167 97.0137 723.7 89.9473 760.5 108.347C748.5 113.18 722.8 128.847 716 152.847C714.5 141.347 701.8 115.247 663 102.847Z" transform="translate(87 10.5)" fill="#000016"/>
<path fill-rule="evenodd" clip-rule="evenodd" d="M0 23.118C3.5 4.11805 25.5 -20.9816 85.5 30.618C74.5 27.4511 42 21.5184 0 23.118ZM195 38.618C197.333 23.785 212 1.01844 252 28.618C251.846 28.6952 250.731 28.5946 248.902 28.4286C238.856 27.5194 207.267 24.66 195 38.618ZM69 149.118C90.8334 139.285 148.2 125.518 203 149.118C199.833 165.618 188.5 203.018 168.5 220.618C172.167 210.785 178.4 185.118 174 161.118C166 157.451 141.6 152.318 108 161.118C101 175.285 82 208.418 62 227.618C67.8334 211.618 77.4 173.518 69 149.118ZM101 282.118C99.1666 288.285 91.1 307.118 75.5 331.118C169 355.618 169.167 303.951 157 275.618C157.4 299.218 145.167 313.785 139 318.118C121.8 320.918 107.833 319.285 103 318.118C106.6 298.918 103.167 286.118 101 282.118Z" transform="translate(646 59.8818)" fill="#D1D2D4"/>
</svg>
