<svg width="401" height="167" viewBox="0 0 401 167" fill="none" xmlns="http://www.w3.org/2000/svg">
<path d="M289.668 152.679V161.821C289.038 163.207 288.603 163.89 287.328 164.527H285.28C284.484 165.098 284.552 165.42 285.28 165.99H299.468C299.944 165.47 299.988 165.151 299.468 164.527H297.347C295.993 163.957 295.501 163.345 295.08 161.821V150.705L304.222 137.467C304.646 136.755 304.975 136.466 305.831 136.297H307.586C308.231 135.765 308.294 135.445 307.586 134.834H297.347C296.88 135.365 296.905 135.696 297.347 136.297H299.468C300.538 137.097 300.784 137.871 300.931 139.515L293.91 149.242L287.328 139.515C287.079 137.77 287.027 136.863 288.205 136.297H290.619C291.331 135.875 291.319 135.34 290.619 134.834H276.211C275.511 135.405 275.569 135.725 276.211 136.297H277.82C278.914 136.41 279.318 136.88 279.941 137.906L289.668 152.679Z" fill="white" stroke="black" stroke-width="0.3" stroke-linecap="round" stroke-linejoin="round"/>
<path d="M174.991 138.566L186.4 165.407C187.065 166.064 187.481 166.099 188.302 165.407L195.835 143.101L203.295 165.7C203.974 166.112 204.306 166.093 204.83 165.7L215.216 140.687C216.117 138.349 216.735 137.262 218.361 136.372H223.041C224.125 136.863 224.63 137.233 224.797 138.566V161.385C224.633 163.055 224.23 163.773 222.676 164.456H220.701C220.167 164.909 220.174 165.17 220.701 165.7C229.404 165.748 247.542 165.7 247.542 165.7C247.542 165.7 247.786 159.702 247.542 156.777C246.914 156.354 246.561 156.29 245.933 156.777V159.922C244.592 162.344 243.418 163.302 240.74 164.456H233.28C231.605 163.776 231.003 163.028 230.209 161.385V150.487H234.597C235.915 151.133 236.448 151.896 237.01 153.486V155.68C237.515 156.319 237.76 156.164 238.181 155.68V144.198C237.834 143.784 237.605 143.685 237.01 144.198V146.245C236.379 147.693 235.952 148.406 234.597 148.878H230.209V137.469C230.308 136.627 230.562 136.397 231.306 136.372H238.473C241.475 137.728 242.728 138.9 243.446 142.442C244.041 143.013 244.346 143.042 244.836 142.442V134.982H210.023C209.136 135.476 209.28 135.788 210.023 136.372H212.437C213.696 137.523 213.867 138.511 213.534 140.687L206.366 157.435L200.369 140.321C200.17 138.423 200.285 137.484 201.466 136.372H204.392C204.909 135.925 205.041 135.643 204.392 134.982H190.35C189.654 135.526 189.796 135.828 190.35 136.372H192.324C194.151 137.471 194.507 138.483 194.445 140.687L188.887 157.435L181.207 139.663C180.713 137.812 180.859 137.048 182.085 136.372H185.011C185.559 135.958 185.634 135.71 185.011 135.202L171.115 134.982C170.476 135.49 170.591 135.801 171.115 136.372H172.431C173.957 136.47 174.539 136.93 174.991 138.566Z" fill="white" stroke="black" stroke-width="0.3" stroke-linecap="round" stroke-linejoin="round"/>
<path fill-rule="evenodd" clip-rule="evenodd" d="M253.027 162.333V139.075C252.556 137.393 252.083 136.735 250.686 136.296H248.858C248.301 135.779 248.245 135.504 248.858 135.053H266.264C277.147 139.072 273.753 148.62 267.727 150.192C267.268 150.659 267.184 150.962 267.727 151.655C270.472 154.627 271.916 157.517 274.456 163.137C275.172 164.267 275.726 164.654 277.088 164.746C277.63 165.292 277.533 165.556 277.088 165.989H269.994C267.58 160.02 266.162 156.687 261.437 151.216H258.366V162.333C259.006 163.81 259.604 164.284 260.925 164.746H262.754C263.267 165.238 263.28 165.503 262.754 165.989H249.15C248.626 165.505 248.711 165.231 249.15 164.746H251.345C252.359 164.283 252.643 163.64 253.027 162.333ZM258.439 149.753V136.588H262.827C270.74 141.003 266.271 148.791 262.315 150.265H258.878C258.579 150.208 258.45 150.132 258.439 149.753Z" fill="white"/>
<path d="M253.027 139.075H253.177C253.177 139.062 253.175 139.048 253.171 139.035L253.027 139.075ZM253.027 162.333L253.171 162.375C253.175 162.361 253.177 162.347 253.177 162.333H253.027ZM250.686 136.296L250.731 136.153C250.717 136.148 250.702 136.146 250.686 136.146V136.296ZM248.858 136.296L248.756 136.406C248.784 136.432 248.82 136.446 248.858 136.446V136.296ZM248.858 135.053V134.903C248.826 134.903 248.795 134.913 248.769 134.932L248.858 135.053ZM266.264 135.053L266.316 134.912C266.3 134.906 266.282 134.903 266.264 134.903V135.053ZM267.727 150.192L267.689 150.047C267.663 150.054 267.639 150.067 267.62 150.087L267.727 150.192ZM267.727 151.655L267.609 151.747L267.617 151.756L267.727 151.655ZM274.456 163.137L274.319 163.199C274.322 163.205 274.325 163.211 274.329 163.217L274.456 163.137ZM277.088 164.746L277.195 164.64C277.169 164.615 277.135 164.599 277.099 164.596L277.088 164.746ZM277.088 165.989V166.139C277.128 166.139 277.165 166.124 277.193 166.097L277.088 165.989ZM269.994 165.989L269.855 166.046C269.878 166.102 269.933 166.139 269.994 166.139V165.989ZM261.437 151.216L261.551 151.118C261.522 151.085 261.481 151.066 261.437 151.066V151.216ZM258.366 151.216V151.066C258.283 151.066 258.216 151.133 258.216 151.216H258.366ZM258.366 162.333H258.216C258.216 162.353 258.22 162.373 258.228 162.392L258.366 162.333ZM260.925 164.746L260.876 164.888C260.892 164.893 260.909 164.896 260.925 164.896V164.746ZM262.754 164.746L262.858 164.638C262.83 164.611 262.792 164.596 262.754 164.596V164.746ZM262.754 165.989V166.139C262.792 166.139 262.828 166.125 262.856 166.1L262.754 165.989ZM249.15 165.989L249.049 166.1C249.076 166.125 249.113 166.139 249.15 166.139V165.989ZM249.15 164.746V164.596C249.108 164.596 249.068 164.614 249.039 164.645L249.15 164.746ZM251.345 164.746V164.896C251.366 164.896 251.387 164.891 251.407 164.882L251.345 164.746ZM258.439 136.588V136.438C258.356 136.438 258.289 136.505 258.289 136.588H258.439ZM258.439 149.753H258.289L258.289 149.757L258.439 149.753ZM262.827 136.588L262.9 136.457C262.878 136.445 262.853 136.438 262.827 136.438V136.588ZM262.315 150.265V150.415C262.333 150.415 262.351 150.411 262.367 150.405L262.315 150.265ZM258.878 150.265L258.849 150.412C258.859 150.414 258.868 150.415 258.878 150.415V150.265ZM252.877 139.075V162.333H253.177V139.075H252.877ZM250.641 136.439C251.323 136.653 251.761 136.915 252.088 137.314C252.418 137.719 252.648 138.278 252.882 139.116L253.171 139.035C252.934 138.19 252.692 137.579 252.32 137.124C251.943 136.664 251.446 136.377 250.731 136.153L250.641 136.439ZM248.858 136.446H250.686V136.146H248.858V136.446ZM248.769 134.932C248.463 135.157 248.259 135.381 248.269 135.655C248.274 135.79 248.331 135.915 248.414 136.033C248.497 136.152 248.614 136.274 248.756 136.406L248.96 136.186C248.823 136.059 248.724 135.954 248.66 135.861C248.595 135.769 248.571 135.7 248.569 135.644C248.565 135.539 248.64 135.4 248.947 135.174L248.769 134.932ZM266.264 134.903H248.858V135.203H266.264V134.903ZM267.765 150.337C270.839 149.535 273.239 146.703 273.486 143.552C273.734 140.381 271.802 136.938 266.316 134.912L266.212 135.193C271.609 137.187 273.422 140.528 273.187 143.529C272.95 146.55 270.641 149.277 267.689 150.047L267.765 150.337ZM267.845 151.562C267.577 151.22 267.493 151.009 267.501 150.846C267.509 150.686 267.606 150.528 267.834 150.297L267.62 150.087C267.388 150.322 267.215 150.55 267.201 150.832C267.188 151.11 267.334 151.397 267.609 151.747L267.845 151.562ZM274.592 163.075C272.053 157.456 270.6 154.545 267.837 151.553L267.617 151.756C270.343 154.709 271.779 157.578 274.319 163.199L274.592 163.075ZM277.099 164.596C276.429 164.551 275.978 164.434 275.609 164.204C275.24 163.972 274.937 163.615 274.582 163.057L274.329 163.217C274.691 163.789 275.023 164.19 275.45 164.458C275.878 164.726 276.385 164.849 277.078 164.896L277.099 164.596ZM277.193 166.097C277.413 165.883 277.591 165.672 277.608 165.42C277.624 165.162 277.469 164.917 277.195 164.64L276.982 164.852C277.249 165.121 277.316 165.282 277.308 165.4C277.3 165.525 277.209 165.663 276.984 165.882L277.193 166.097ZM269.994 166.139H277.088V165.839H269.994V166.139ZM261.324 151.314C266.033 156.767 267.443 160.082 269.855 166.046L270.133 165.933C267.717 159.958 266.291 156.607 261.551 151.118L261.324 151.314ZM258.366 151.366H261.437V151.066H258.366V151.366ZM258.516 162.333V151.216H258.216V162.333H258.516ZM260.975 164.604C260.322 164.376 259.864 164.15 259.492 163.809C259.119 163.468 258.82 163.002 258.503 162.273L258.228 162.392C258.552 163.14 258.872 163.65 259.289 164.031C259.706 164.412 260.208 164.654 260.876 164.888L260.975 164.604ZM262.754 164.596H260.925V164.896H262.754V164.596ZM262.856 166.1C263.119 165.856 263.296 165.628 263.294 165.368C263.291 165.111 263.113 164.882 262.858 164.638L262.65 164.854C262.908 165.101 262.993 165.251 262.994 165.371C262.995 165.488 262.915 165.636 262.652 165.879L262.856 166.1ZM249.15 166.139H262.754V165.839H249.15V166.139ZM249.039 164.645C248.822 164.885 248.653 165.111 248.639 165.36C248.624 165.621 248.78 165.852 249.049 166.1L249.252 165.879C248.996 165.643 248.932 165.495 248.939 165.376C248.946 165.246 249.039 165.092 249.262 164.847L249.039 164.645ZM251.345 164.596H249.15V164.896H251.345V164.596ZM252.883 162.29C252.691 162.945 252.529 163.413 252.296 163.775C252.068 164.129 251.767 164.388 251.282 164.61L251.407 164.882C251.936 164.641 252.285 164.347 252.548 163.937C252.807 163.535 252.979 163.028 253.171 162.375L252.883 162.29ZM258.289 136.588V149.753H258.589V136.588H258.289ZM262.827 136.438H258.439V136.738H262.827V136.438ZM262.367 150.405C264.397 149.649 266.535 147.291 267.168 144.563C267.486 143.194 267.426 141.726 266.778 140.318C266.13 138.909 264.9 137.573 262.9 136.457L262.754 136.719C264.71 137.811 265.889 139.104 266.505 140.443C267.121 141.783 267.181 143.181 266.876 144.495C266.264 147.134 264.19 149.406 262.263 150.124L262.367 150.405ZM258.878 150.415H262.315V150.115H258.878V150.415ZM258.289 149.757C258.295 149.958 258.332 150.119 258.443 150.233C258.55 150.344 258.7 150.384 258.849 150.412L258.906 150.117C258.756 150.089 258.693 150.061 258.658 150.025C258.627 149.993 258.594 149.927 258.589 149.748L258.289 149.757Z" fill="black"/>
<path fill-rule="evenodd" clip-rule="evenodd" d="M119.553 162.482V139.151C119.397 137.72 118.958 137.134 117.579 136.518H115.092C114.582 135.948 114.522 135.617 115.092 134.982H130.816C142.811 136.667 141.485 148.518 134.034 150.78C137.933 155.678 139.571 158.431 141.129 163.359C143.705 165.947 145.425 165.71 148.808 163.359V138.786C148.322 137.097 147.789 136.646 146.468 136.518H144.054C143.602 135.918 143.536 135.583 144.054 134.982H168.774V143.027C168.388 143.277 168.154 143.312 167.677 143.027C167.397 139.309 166.484 137.854 163.289 136.518H154.951C154.258 136.629 154.023 136.868 153.854 137.688V148.293C153.918 148.829 154.086 149.063 154.659 149.317H157.95C159.268 148.94 159.905 148.559 160.802 147.489V144.124C161.434 143.168 161.761 143.425 162.338 144.124V155.387C161.738 156.116 161.402 156.189 160.802 155.387V152.608C160.269 151.017 159.536 150.655 157.95 150.341H154.659C154.141 150.509 153.937 150.69 153.854 151.292V160.141C154.593 162.578 155.284 163.591 157.145 164.603H164.679C167.843 163.605 168.801 162.497 169.944 160.141V156.85C170.573 156.139 170.925 155.974 171.553 156.85V165.992H136.155C134.417 160.254 132.926 157.034 128.549 151.292H124.892V162.482C125.532 164.091 126.115 164.559 127.525 164.603H129.5C130.102 165.182 130.175 165.489 129.5 165.992H115.092C114.582 165.371 114.656 165.076 115.092 164.603H117.579C118.594 163.963 119.067 163.53 119.553 162.482ZM124.892 149.168V137.028C125.003 136.568 125.214 136.483 125.624 136.37H129.5C137.555 141.193 133.318 147.7 130.231 149.827H125.404C125.141 149.603 125.038 149.451 124.892 149.168Z" fill="white"/>
<path d="M119.553 139.151H119.703C119.703 139.146 119.703 139.14 119.703 139.135L119.553 139.151ZM119.553 162.482L119.69 162.545C119.699 162.525 119.703 162.503 119.703 162.482H119.553ZM117.579 136.518L117.64 136.381C117.621 136.373 117.6 136.368 117.579 136.368V136.518ZM115.092 136.518L114.98 136.618C115.009 136.65 115.049 136.668 115.092 136.668V136.518ZM115.092 134.982V134.832C115.05 134.832 115.009 134.851 114.981 134.882L115.092 134.982ZM130.816 134.982L130.837 134.834C130.83 134.833 130.823 134.832 130.816 134.832V134.982ZM134.034 150.78L133.991 150.636C133.943 150.651 133.906 150.688 133.891 150.735C133.876 150.783 133.886 150.834 133.917 150.873L134.034 150.78ZM141.129 163.359L140.986 163.404C140.993 163.427 141.005 163.448 141.022 163.465L141.129 163.359ZM148.808 163.359L148.894 163.482C148.934 163.454 148.958 163.408 148.958 163.359H148.808ZM148.808 138.786H148.958C148.958 138.771 148.956 138.758 148.952 138.744L148.808 138.786ZM146.468 136.518L146.482 136.369C146.477 136.369 146.472 136.368 146.468 136.368V136.518ZM144.054 136.518L143.934 136.609C143.963 136.646 144.007 136.668 144.054 136.668V136.518ZM144.054 134.982V134.832C144.01 134.832 143.969 134.851 143.941 134.884L144.054 134.982ZM168.774 134.982H168.924C168.924 134.9 168.857 134.832 168.774 134.832V134.982ZM168.774 143.027L168.856 143.153C168.898 143.126 168.924 143.078 168.924 143.027H168.774ZM167.677 143.027L167.528 143.039C167.531 143.087 167.558 143.131 167.6 143.156L167.677 143.027ZM163.289 136.518L163.347 136.38C163.328 136.372 163.309 136.368 163.289 136.368V136.518ZM154.951 136.518V136.368C154.943 136.368 154.936 136.369 154.928 136.37L154.951 136.518ZM153.854 137.688L153.707 137.658C153.705 137.668 153.704 137.678 153.704 137.688H153.854ZM153.854 148.293H153.704C153.704 148.299 153.705 148.305 153.705 148.311L153.854 148.293ZM154.659 149.317L154.598 149.454C154.617 149.463 154.638 149.467 154.659 149.467V149.317ZM157.95 149.317V149.467C157.964 149.467 157.978 149.465 157.991 149.461L157.95 149.317ZM160.802 147.489L160.917 147.585C160.94 147.558 160.952 147.524 160.952 147.489H160.802ZM160.802 144.124L160.677 144.042C160.661 144.066 160.652 144.095 160.652 144.124H160.802ZM162.338 144.124H162.488C162.488 144.09 162.476 144.056 162.454 144.029L162.338 144.124ZM162.338 155.387L162.454 155.483C162.476 155.456 162.488 155.422 162.488 155.387H162.338ZM160.802 155.387H160.652C160.652 155.42 160.663 155.451 160.682 155.477L160.802 155.387ZM160.802 152.608H160.952C160.952 152.592 160.95 152.576 160.945 152.561L160.802 152.608ZM157.95 150.341L157.979 150.194C157.97 150.192 157.96 150.191 157.95 150.191V150.341ZM154.659 150.341V150.191C154.643 150.191 154.628 150.193 154.613 150.198L154.659 150.341ZM153.854 151.292L153.706 151.271C153.705 151.278 153.704 151.285 153.704 151.292H153.854ZM153.854 160.141H153.704C153.704 160.156 153.707 160.171 153.711 160.185L153.854 160.141ZM157.145 164.603L157.074 164.734C157.096 164.746 157.12 164.753 157.145 164.753V164.603ZM164.679 164.603V164.753C164.694 164.753 164.709 164.75 164.724 164.746L164.679 164.603ZM169.944 160.141L170.079 160.207C170.089 160.186 170.094 160.164 170.094 160.141H169.944ZM169.944 156.85L169.832 156.751C169.808 156.778 169.794 156.814 169.794 156.85H169.944ZM171.553 156.85H171.703C171.703 156.819 171.693 156.788 171.675 156.763L171.553 156.85ZM171.553 165.992V166.142C171.636 166.142 171.703 166.075 171.703 165.992H171.553ZM136.155 165.992L136.012 166.036C136.031 166.099 136.089 166.142 136.155 166.142V165.992ZM128.549 151.292L128.669 151.201C128.64 151.164 128.596 151.142 128.549 151.142V151.292ZM124.892 151.292V151.142C124.81 151.142 124.742 151.209 124.742 151.292H124.892ZM124.892 162.482H124.742C124.742 162.501 124.746 162.519 124.753 162.537L124.892 162.482ZM127.525 164.603L127.521 164.753H127.525V164.603ZM129.5 164.603L129.604 164.494C129.576 164.468 129.539 164.453 129.5 164.453V164.603ZM129.5 165.992V166.142C129.532 166.142 129.564 166.132 129.59 166.112L129.5 165.992ZM115.092 165.992L114.976 166.087C115.005 166.122 115.047 166.142 115.092 166.142V165.992ZM115.092 164.603V164.453C115.05 164.453 115.01 164.47 114.982 164.501L115.092 164.603ZM117.579 164.603V164.753C117.607 164.753 117.635 164.745 117.659 164.729L117.579 164.603ZM124.892 137.028L124.747 136.993C124.744 137.004 124.742 137.016 124.742 137.028H124.892ZM124.892 149.168H124.742C124.742 149.192 124.748 149.216 124.759 149.237L124.892 149.168ZM125.624 136.37V136.22C125.61 136.22 125.597 136.221 125.584 136.225L125.624 136.37ZM129.5 136.37L129.577 136.241C129.554 136.227 129.527 136.22 129.5 136.22V136.37ZM130.231 149.827V149.977C130.262 149.977 130.291 149.967 130.316 149.95L130.231 149.827ZM125.404 149.827L125.307 149.941C125.334 149.964 125.369 149.977 125.404 149.977V149.827ZM119.403 139.151V162.482H119.703V139.151H119.403ZM117.518 136.655C118.199 136.959 118.626 137.247 118.905 137.619C119.183 137.99 119.327 138.463 119.404 139.167L119.703 139.135C119.623 138.408 119.47 137.873 119.145 137.439C118.82 137.006 118.338 136.693 117.64 136.381L117.518 136.655ZM115.092 136.668H117.579V136.368H115.092V136.668ZM114.981 134.882C114.69 135.205 114.528 135.485 114.537 135.78C114.547 136.071 114.724 136.332 114.98 136.618L115.204 136.418C114.95 136.135 114.843 135.945 114.837 135.77C114.831 135.598 114.923 135.395 115.204 135.083L114.981 134.882ZM130.816 134.832H115.092V135.132H130.816V134.832ZM134.078 150.923C137.872 149.771 140.108 146.178 139.867 142.654C139.746 140.89 139.005 139.145 137.531 137.735C136.058 136.326 133.86 135.258 130.837 134.834L130.796 135.131C133.77 135.549 135.905 136.595 137.324 137.952C138.742 139.308 139.452 140.983 139.568 142.675C139.8 146.063 137.647 149.526 133.991 150.636L134.078 150.923ZM141.272 163.314C139.707 158.363 138.058 155.594 134.152 150.686L133.917 150.873C137.808 155.762 139.435 158.499 140.986 163.404L141.272 163.314ZM148.722 163.236C147.031 164.411 145.788 165.033 144.662 165.061C143.548 165.089 142.512 164.536 141.235 163.253L141.022 163.465C142.321 164.77 143.433 165.392 144.669 165.361C145.893 165.33 147.201 164.658 148.894 163.482L148.722 163.236ZM148.658 138.786V163.359H148.958V138.786H148.658ZM146.453 136.668C147.101 136.73 147.525 136.869 147.848 137.175C148.177 137.486 148.422 137.988 148.664 138.827L148.952 138.744C148.708 137.894 148.444 137.326 148.054 136.957C147.659 136.584 147.156 136.434 146.482 136.369L146.453 136.668ZM144.054 136.668H146.468V136.368H144.054V136.668ZM143.941 134.884C143.674 135.194 143.53 135.464 143.54 135.755C143.55 136.04 143.707 136.307 143.934 136.609L144.174 136.428C143.949 136.129 143.847 135.928 143.84 135.745C143.834 135.568 143.917 135.371 144.168 135.08L143.941 134.884ZM168.774 134.832H144.054V135.132H168.774V134.832ZM168.924 143.027V134.982H168.624V143.027H168.924ZM167.6 143.156C167.847 143.304 168.055 143.383 168.264 143.378C168.473 143.372 168.657 143.282 168.856 143.153L168.693 142.902C168.506 143.022 168.38 143.074 168.256 143.078C168.132 143.081 167.983 143.035 167.754 142.899L167.6 143.156ZM163.231 136.657C164.817 137.32 165.812 138.003 166.451 138.962C167.092 139.925 167.388 141.186 167.528 143.039L167.827 143.016C167.686 141.15 167.386 139.825 166.701 138.796C166.015 137.765 164.956 137.052 163.347 136.38L163.231 136.657ZM154.951 136.668H163.289V136.368H154.951V136.668ZM154.001 137.719C154.084 137.313 154.179 137.084 154.315 136.94C154.447 136.8 154.639 136.72 154.975 136.666L154.928 136.37C154.57 136.427 154.298 136.522 154.097 136.734C153.9 136.942 153.793 137.243 153.707 137.658L154.001 137.719ZM154.004 148.293V137.688H153.704V148.293H154.004ZM154.72 149.18C154.441 149.056 154.283 148.947 154.184 148.819C154.087 148.693 154.034 148.532 154.003 148.276L153.705 148.311C153.738 148.59 153.801 148.814 153.947 149.003C154.091 149.189 154.303 149.324 154.598 149.454L154.72 149.18ZM157.95 149.167H154.659V149.467H157.95V149.167ZM160.687 147.392C160.244 147.921 159.872 148.271 159.454 148.536C159.035 148.801 158.562 148.986 157.909 149.173L157.991 149.461C158.657 149.271 159.161 149.077 159.614 148.79C160.068 148.502 160.463 148.127 160.917 147.585L160.687 147.392ZM160.652 144.124V147.489H160.952V144.124H160.652ZM162.454 144.029C162.309 143.854 162.174 143.699 162.043 143.583C161.912 143.467 161.771 143.377 161.611 143.355C161.445 143.332 161.287 143.387 161.136 143.504C160.988 143.618 160.838 143.797 160.677 144.042L160.927 144.207C161.082 143.973 161.21 143.826 161.319 143.741C161.425 143.659 161.504 143.643 161.57 143.652C161.644 143.662 161.731 143.708 161.844 143.807C161.956 143.906 162.078 144.045 162.222 144.22L162.454 144.029ZM162.488 155.387V144.124H162.188V155.387H162.488ZM160.682 155.477C160.836 155.682 160.979 155.841 161.121 155.948C161.264 156.056 161.414 156.117 161.576 156.111C161.736 156.105 161.882 156.034 162.021 155.926C162.16 155.819 162.302 155.668 162.454 155.483L162.222 155.292C162.075 155.472 161.95 155.602 161.838 155.689C161.726 155.775 161.639 155.809 161.564 155.811C161.492 155.814 161.408 155.789 161.301 155.708C161.193 155.626 161.069 155.493 160.922 155.298L160.682 155.477ZM160.652 152.608V155.387H160.952V152.608H160.652ZM157.921 150.488C158.712 150.645 159.263 150.809 159.682 151.117C160.096 151.42 160.399 151.877 160.66 152.656L160.945 152.561C160.672 151.749 160.342 151.229 159.859 150.875C159.382 150.525 158.774 150.351 157.979 150.194L157.921 150.488ZM154.659 150.491H157.95V150.191H154.659V150.491ZM154.003 151.312C154.043 151.023 154.108 150.862 154.206 150.753C154.304 150.643 154.452 150.566 154.705 150.484L154.613 150.198C154.348 150.284 154.135 150.381 153.982 150.554C153.827 150.728 153.749 150.958 153.706 151.271L154.003 151.312ZM154.004 160.141V151.292H153.704V160.141H154.004ZM157.217 164.471C156.299 163.972 155.681 163.479 155.2 162.818C154.717 162.155 154.366 161.312 153.998 160.098L153.711 160.185C154.082 161.408 154.445 162.29 154.958 162.995C155.472 163.702 156.13 164.222 157.074 164.734L157.217 164.471ZM164.679 164.453H157.145V164.753H164.679V164.453ZM169.809 160.076C169.24 161.248 168.725 162.093 167.969 162.769C167.214 163.445 166.205 163.964 164.633 164.46L164.724 164.746C166.316 164.244 167.369 163.709 168.169 162.993C168.97 162.277 169.505 161.39 170.079 160.207L169.809 160.076ZM169.794 156.85V160.141H170.094V156.85H169.794ZM171.675 156.763C171.362 156.326 171.072 156.077 170.736 156.105C170.573 156.119 170.423 156.198 170.28 156.308C170.138 156.419 169.99 156.571 169.832 156.751L170.057 156.949C170.212 156.773 170.345 156.638 170.464 156.545C170.584 156.452 170.679 156.411 170.761 156.404C170.916 156.391 171.116 156.498 171.431 156.938L171.675 156.763ZM171.703 165.992V156.85H171.403V165.992H171.703ZM136.155 166.142H171.553V165.842H136.155V166.142ZM128.43 151.383C132.795 157.11 134.278 160.314 136.012 166.036L136.299 165.949C134.555 160.194 133.056 156.958 128.669 151.201L128.43 151.383ZM124.892 151.442H128.549V151.142H124.892V151.442ZM125.042 162.482V151.292H124.742V162.482H125.042ZM127.53 164.453C126.84 164.432 126.38 164.307 126.014 164.013C125.644 163.714 125.35 163.226 125.032 162.426L124.753 162.537C125.075 163.347 125.392 163.897 125.826 164.246C126.264 164.599 126.801 164.73 127.521 164.753L127.53 164.453ZM129.5 164.453H127.525V164.753H129.5V164.453ZM129.59 166.112C129.928 165.86 130.141 165.615 130.129 165.32C130.123 165.175 130.063 165.04 129.973 164.909C129.883 164.778 129.757 164.642 129.604 164.494L129.396 164.711C129.544 164.853 129.653 164.973 129.725 165.078C129.797 165.183 129.826 165.265 129.829 165.332C129.835 165.461 129.747 165.621 129.41 165.872L129.59 166.112ZM115.092 166.142H129.5V165.842H115.092V166.142ZM114.982 164.501C114.762 164.739 114.6 164.966 114.588 165.235C114.576 165.504 114.717 165.771 114.976 166.087L115.208 165.897C114.958 165.592 114.881 165.4 114.887 165.248C114.894 165.096 114.986 164.939 115.203 164.704L114.982 164.501ZM117.579 164.453H115.092V164.753H117.579V164.453ZM119.417 162.418C119.179 162.932 118.947 163.288 118.656 163.592C118.363 163.897 118.003 164.158 117.499 164.476L117.659 164.729C118.169 164.408 118.553 164.132 118.872 163.799C119.193 163.465 119.441 163.079 119.69 162.545L119.417 162.418ZM124.742 137.028V149.168H125.042V137.028H124.742ZM125.584 136.225C125.382 136.281 125.198 136.337 125.053 136.451C124.9 136.572 124.806 136.743 124.747 136.993L125.038 137.063C125.089 136.852 125.156 136.752 125.239 136.687C125.329 136.615 125.455 136.572 125.664 136.514L125.584 136.225ZM129.5 136.22H125.624V136.52H129.5V136.22ZM130.316 149.95C131.883 148.871 133.745 146.681 134.192 144.135C134.416 142.858 134.284 141.492 133.58 140.139C132.876 138.787 131.608 137.457 129.577 136.241L129.423 136.498C131.419 137.694 132.642 138.986 133.313 140.277C133.984 141.567 134.11 142.865 133.896 144.083C133.467 146.529 131.666 148.656 130.146 149.703L130.316 149.95ZM125.404 149.977H130.231V149.677H125.404V149.977ZM124.759 149.237C124.911 149.533 125.025 149.702 125.307 149.941L125.501 149.712C125.256 149.504 125.164 149.369 125.026 149.1L124.759 149.237Z" fill="black"/>
<path d="M234.648 14.743L248.392 63.6106C249.241 64.3871 249.67 64.1419 250.428 63.6106L274.862 21.3605C276.378 19.3505 277.421 18.3736 279.952 17.2882C282.139 17.0157 283.365 17.1398 285.552 17.2882C286.32 16.5372 286.265 15.9623 285.552 14.743L266.208 11.1797C265.211 12.0368 265.213 12.6279 265.699 13.7249L269.263 14.743C270.814 16.8443 271.236 18.1903 271.299 20.8514L253.482 51.9028L245.338 16.7791C246.136 14.4912 246.793 13.3387 249.41 12.1978C251.199 11.9852 252.202 12.0556 253.991 12.1978C254.597 11.3188 254.728 10.8092 253.991 9.65261L227.521 7.10742C227.062 8.19263 227.018 8.77125 228.03 9.65261C228.95 9.75906 229.512 9.86327 230.576 10.1616C232.777 11.4773 233.566 12.5657 234.648 14.743Z" fill="white" stroke="black" stroke-width="0.3" stroke-linecap="round" stroke-linejoin="round"/>
<path fill-rule="evenodd" clip-rule="evenodd" d="M140.476 53.4299L134.877 16.7791C134.018 14.5893 133.083 13.6853 130.805 12.7068C129.517 12.6188 128.832 12.5911 127.75 12.7068C126.459 11.9897 126.378 11.3414 127.241 10.1616L157.784 7.10742C181.971 11.9594 185.833 50.476 162.365 61.0654L137.931 64.6287C135.63 64.2767 135.207 63.4146 135.895 61.5745C138.224 60.87 139.311 60.4317 140.476 59.5383C140.695 57.2917 140.667 55.9235 140.476 53.4299ZM149.13 56.4839L143.53 14.2337C144.067 12.2311 144.798 11.376 147.094 10.6705L155.747 10.1614C175.393 18.7067 169.094 54.7043 160.329 58.52L153.202 59.0291C151.213 58.953 150.297 58.401 149.13 56.4839Z" fill="white"/>
<path d="M134.877 16.7791L135.025 16.7565C135.024 16.7455 135.021 16.7347 135.017 16.7244L134.877 16.7791ZM140.476 53.4299L140.626 53.4184L140.625 53.4072L140.476 53.4299ZM130.805 12.7068L130.864 12.569C130.848 12.5623 130.832 12.5583 130.815 12.5572L130.805 12.7068ZM127.75 12.7068L127.678 12.838C127.705 12.853 127.736 12.8593 127.766 12.856L127.75 12.7068ZM127.241 10.1616L127.226 10.0124C127.184 10.0166 127.145 10.0387 127.12 10.0731L127.241 10.1616ZM157.784 7.10742L157.813 6.96035C157.799 6.95742 157.784 6.95668 157.769 6.95817L157.784 7.10742ZM162.365 61.0654L162.387 61.2139C162.4 61.2118 162.414 61.2079 162.427 61.2022L162.365 61.0654ZM137.931 64.6287L137.908 64.777C137.923 64.7792 137.938 64.7793 137.953 64.7771L137.931 64.6287ZM135.895 61.5745L135.852 61.4309C135.807 61.4444 135.771 61.4781 135.755 61.5219L135.895 61.5745ZM140.476 59.5383L140.568 59.6574C140.601 59.6321 140.622 59.5942 140.626 59.5528L140.476 59.5383ZM143.53 14.2337L143.385 14.1949C143.38 14.214 143.379 14.2339 143.382 14.2534L143.53 14.2337ZM149.13 56.4839L148.981 56.5036C148.984 56.5242 148.991 56.5441 149.002 56.5619L149.13 56.4839ZM147.094 10.6705L147.085 10.5207C147.073 10.5214 147.061 10.5236 147.05 10.5271L147.094 10.6705ZM155.747 10.1614L155.807 10.0239C155.785 10.0145 155.762 10.0103 155.738 10.0117L155.747 10.1614ZM160.329 58.52L160.339 58.6696C160.356 58.6684 160.373 58.6643 160.388 58.6575L160.329 58.52ZM153.202 59.0291L153.196 59.1789C153.202 59.1792 153.207 59.1791 153.213 59.1787L153.202 59.0291ZM134.729 16.8018L140.328 53.4525L140.625 53.4072L135.025 16.7565L134.729 16.8018ZM130.745 12.8447C131.877 13.3307 132.661 13.7923 133.267 14.3952C133.873 14.9971 134.312 15.7496 134.737 16.8339L135.017 16.7244C134.583 15.6189 134.125 14.8245 133.479 14.1823C132.833 13.5411 132.01 13.0615 130.864 12.569L130.745 12.8447ZM127.766 12.856C128.834 12.7417 129.509 12.7686 130.794 12.8565L130.815 12.5572C129.524 12.4689 128.829 12.4405 127.734 12.5577L127.766 12.856ZM127.12 10.0731C126.687 10.6653 126.454 11.1687 126.541 11.635C126.628 12.1055 127.026 12.4762 127.678 12.838L127.823 12.5757C127.183 12.2203 126.896 11.9083 126.836 11.5805C126.774 11.2484 126.933 10.8377 127.362 10.2502L127.12 10.0731ZM157.769 6.95817L127.226 10.0124L127.256 10.3109L157.799 7.25668L157.769 6.95817ZM162.427 61.2022C174.234 55.8746 179.154 43.5267 178.095 31.9213C177.035 20.317 169.991 9.40317 157.813 6.96035L157.754 7.25449C169.764 9.6637 176.745 20.4341 177.796 31.9485C178.847 43.4617 173.965 55.6669 162.303 60.9287L162.427 61.2022ZM137.953 64.7771L162.387 61.2139L162.343 60.917L137.91 64.4803L137.953 64.7771ZM135.755 61.5219C135.409 62.4464 135.317 63.1847 135.665 63.7394C136.011 64.29 136.755 64.6005 137.908 64.777L137.954 64.4804C136.806 64.3049 136.188 64.0084 135.919 63.5799C135.653 63.1555 135.693 62.5427 136.036 61.627L135.755 61.5219ZM140.385 59.4193C139.242 60.2953 138.177 60.7274 135.852 61.4309L135.938 61.718C138.27 61.0126 139.379 60.5681 140.568 59.6574L140.385 59.4193ZM140.327 53.4413C140.517 55.9293 140.544 57.2883 140.327 59.5238L140.626 59.5528C140.845 57.295 140.817 55.9176 140.626 53.4184L140.327 53.4413ZM143.382 14.2534L148.981 56.5036L149.278 56.4642L143.679 14.214L143.382 14.2534ZM147.05 10.5271C145.892 10.8829 145.107 11.2825 144.545 11.8612C143.982 12.4405 143.656 13.1839 143.385 14.1949L143.675 14.2725C143.941 13.2809 144.249 12.5955 144.76 12.0702C145.271 11.5443 146 11.1636 147.138 10.8138L147.05 10.5271ZM155.738 10.0117L147.085 10.5207L147.102 10.8202L155.756 10.3112L155.738 10.0117ZM160.388 58.6575C161.519 58.1655 162.595 57.1619 163.576 55.7841C164.559 54.4045 165.453 52.6395 166.214 50.6086C167.736 46.5465 168.735 41.4051 168.842 36.1174C169.057 25.5539 165.716 14.334 155.807 10.0239L155.687 10.299C165.424 14.5342 168.757 25.5857 168.542 36.1112C168.435 41.368 167.443 46.4755 165.933 50.5032C165.178 52.5171 164.295 54.2572 163.332 55.6101C162.368 56.9646 161.33 57.9206 160.269 58.3825L160.388 58.6575ZM153.213 59.1787L160.339 58.6696L160.318 58.3704L153.191 58.8794L153.213 59.1787ZM149.002 56.5619C149.59 57.5278 150.125 58.1687 150.778 58.5743C151.434 58.981 152.19 59.1405 153.196 59.1789L153.208 58.8792C152.225 58.8416 151.529 58.687 150.937 58.3194C150.343 57.9507 149.837 57.3571 149.258 56.4059L149.002 56.5619Z" fill="black"/>
<path fill-rule="evenodd" clip-rule="evenodd" d="M314.206 68.8095L325.135 33.3808C325.316 31.0357 324.868 29.8143 323.244 27.9411C322.123 27.3006 321.518 26.9772 320.495 26.6103C319.645 25.4024 319.854 24.7835 321.145 24.0977L349.967 34.6558C369.624 49.5617 356.319 85.9128 330.581 85.2191L307.036 77.7806C305.118 76.4611 305.113 75.5009 306.534 74.1443C308.937 74.5248 310.106 74.604 311.545 74.3077C312.72 72.3807 313.291 71.1369 314.206 68.8095ZM320.664 75.3309L334.033 34.8622C335.388 33.2935 336.419 32.8424 338.792 33.2074L346.803 36.5196C360.763 52.771 339.409 82.4274 329.857 82.0429L323.221 79.3961C321.463 78.4609 320.879 77.565 320.664 75.3309Z" fill="white"/>
<path d="M325.135 33.3808L325.278 33.425C325.281 33.4144 325.284 33.4035 325.284 33.3924L325.135 33.3808ZM314.206 68.8095L314.346 68.8646L314.35 68.8537L314.206 68.8095ZM323.244 27.9411L323.357 27.8428C323.346 27.83 323.333 27.8192 323.318 27.8108L323.244 27.9411ZM320.495 26.6103L320.372 26.6966C320.39 26.7219 320.415 26.7411 320.444 26.7516L320.495 26.6103ZM321.145 24.0977L321.197 23.9568C321.157 23.9422 321.113 23.9452 321.075 23.9652L321.145 24.0977ZM349.967 34.6558L350.058 34.5363C350.046 34.5273 350.033 34.5201 350.019 34.5149L349.967 34.6558ZM330.581 85.2191L330.536 85.3621C330.549 85.3663 330.563 85.3687 330.577 85.369L330.581 85.2191ZM307.036 77.7806L306.951 77.9042C306.963 77.9126 306.977 77.9191 306.991 77.9236L307.036 77.7806ZM306.534 74.1443L306.557 73.9962C306.511 73.9889 306.464 74.0035 306.43 74.0358L306.534 74.1443ZM311.545 74.3077L311.575 74.4546C311.616 74.4462 311.651 74.4213 311.673 74.3858L311.545 74.3077ZM334.033 34.8622L333.919 34.7641C333.906 34.779 333.896 34.7964 333.89 34.8151L334.033 34.8622ZM320.664 75.3309L320.522 75.2838C320.515 75.3036 320.513 75.3245 320.515 75.3452L320.664 75.3309ZM338.792 33.2074L338.85 33.0688C338.839 33.0642 338.827 33.061 338.815 33.0592L338.792 33.2074ZM346.803 36.5196L346.917 36.4219C346.902 36.404 346.882 36.39 346.861 36.381L346.803 36.5196ZM329.857 82.0429L329.802 82.1822C329.817 82.1885 329.834 82.1921 329.851 82.1928L329.857 82.0429ZM323.221 79.3961L323.15 79.5285C323.155 79.5311 323.16 79.5334 323.165 79.5354L323.221 79.3961ZM324.992 33.3366L314.063 68.7653L314.35 68.8537L325.278 33.425L324.992 33.3366ZM323.13 28.0393C323.937 28.9698 324.441 29.7268 324.725 30.5337C325.008 31.3394 325.075 32.208 324.985 33.3693L325.284 33.3924C325.376 32.2085 325.31 31.2939 325.008 30.4343C324.706 29.5759 324.174 28.7855 323.357 27.8428L323.13 28.0393ZM320.444 26.7516C321.455 27.114 322.051 27.4322 323.169 28.0713L323.318 27.8108C322.195 27.1691 321.581 26.8405 320.545 26.4691L320.444 26.7516ZM321.075 23.9652C320.427 24.3095 319.998 24.6612 319.873 25.1185C319.746 25.5798 319.943 26.0873 320.372 26.6966L320.617 26.5241C320.196 25.9254 320.074 25.5194 320.162 25.1979C320.251 24.8723 320.573 24.5716 321.216 24.2301L321.075 23.9652ZM350.019 34.5149L321.197 23.9568L321.094 24.2385L349.915 34.7966L350.019 34.5149ZM330.577 85.369C343.526 85.718 353.335 76.7477 357.438 65.8401C361.54 54.9336 359.954 42.0408 350.058 34.5363L349.876 34.7753C359.637 42.1766 361.227 54.9124 357.157 65.7345C353.087 76.5554 343.374 85.4138 330.585 85.0691L330.577 85.369ZM306.991 77.9236L330.536 85.3621L330.626 85.0761L307.081 77.6375L306.991 77.9236ZM306.43 74.0358C305.717 74.7173 305.312 75.3418 305.384 75.9928C305.455 76.639 305.989 77.2426 306.951 77.9042L307.121 77.657C306.165 76.9991 305.737 76.4628 305.682 75.9599C305.627 75.4618 305.93 74.9279 306.638 74.2528L306.43 74.0358ZM311.514 74.1608C310.104 74.4513 308.957 74.3762 306.557 73.9962L306.51 74.2925C308.917 74.6735 310.109 74.7566 311.575 74.4546L311.514 74.1608ZM314.067 68.7546C313.154 71.0768 312.586 72.3122 311.417 74.2296L311.673 74.3858C312.854 72.4492 313.429 71.197 314.346 68.8644L314.067 68.7546ZM333.89 34.8151L320.522 75.2838L320.807 75.3779L334.175 34.9092L333.89 34.8151ZM338.815 33.0592C337.618 32.8751 336.738 32.8929 335.98 33.1687C335.22 33.4448 334.603 33.9722 333.919 34.7641L334.146 34.9602C334.817 34.1835 335.394 33.701 336.082 33.4506C336.771 33.2 337.593 33.1748 338.77 33.3557L338.815 33.0592ZM346.861 36.381L338.85 33.0688L338.735 33.346L346.746 36.6582L346.861 36.381ZM329.851 82.1928C331.083 82.2424 332.489 81.8081 333.972 80.9953C335.458 80.1816 337.031 78.9824 338.601 77.486C341.742 74.4933 344.88 70.3004 347.281 65.5878C352.077 56.1735 353.958 44.6188 346.917 36.4219L346.689 36.6174C353.608 44.6718 351.793 56.071 347.014 65.4516C344.627 70.1365 341.508 74.3014 338.394 77.2689C336.837 78.7526 335.285 79.9343 333.828 80.7322C332.37 81.5312 331.019 81.9396 329.863 81.893L329.851 82.1928ZM323.165 79.5354L329.802 82.1822L329.913 81.9036L323.276 79.2567L323.165 79.5354ZM320.515 75.3452C320.623 76.4708 320.826 77.2811 321.237 77.9308C321.65 78.5823 322.261 79.0553 323.15 79.5285L323.291 79.2637C322.423 78.8017 321.864 78.3591 321.491 77.7703C321.117 77.1797 320.92 76.425 320.814 75.3165L320.515 75.3452Z" fill="black"/>
<path d="M105.861 21.8695L114.006 61.0654C114.208 62.9119 114.177 63.6227 114.006 64.6287C112.345 65.6427 111.258 66.0721 109.424 66.6648C109.038 68.2592 109.54 68.5568 110.951 68.701L129.277 64.6287C129.897 63.865 130.015 63.4192 129.277 62.5925C127.785 62.7478 126.923 62.7909 125.204 62.5925C123.472 61.6362 123.05 60.7719 122.659 59.0292L114.515 20.3424C114.539 18.7195 114.235 17.9665 115.533 15.761C116.956 14.7087 118.024 14.5287 120.114 14.2339C120.905 12.9686 120.965 12.277 119.096 11.1797L97.2074 15.761C96.2709 17.0978 96.3946 17.6516 97.7164 18.3062C99.5835 17.8527 100.574 17.9416 102.298 18.3062C104.145 18.9069 104.819 19.8749 105.861 21.8695Z" fill="white" stroke="black" stroke-width="0.3" stroke-linecap="round" stroke-linejoin="round"/>
<path d="M187.733 13.3748L187.593 53.4077C187.409 55.2561 187.232 55.9451 186.856 56.8939C185.021 57.5424 183.869 57.7377 181.952 57.9382C181.244 59.4181 181.674 59.8133 183.025 60.2462L201.797 60.0531C202.561 59.4342 202.769 59.0224 202.218 58.061C200.726 57.9043 199.874 57.7681 198.234 57.2185C196.737 55.9246 196.502 54.9915 196.481 53.2058L196.516 13.6709C196.875 12.0881 196.734 11.2887 198.459 9.39929C200.069 8.66406 201.152 8.70903 203.257 8.85298C204.293 7.77866 204.495 7.11455 202.893 5.65421L180.53 5.60822C179.338 6.72239 179.344 7.28976 180.502 8.20366C182.422 8.14621 183.373 8.43816 184.984 9.15143C186.667 10.1213 187.126 11.2078 187.733 13.3748Z" fill="white" stroke="black" stroke-width="0.3" stroke-linecap="round" stroke-linejoin="round"/>
<path d="M297.303 26.0195L285.654 64.3205C284.946 66.038 284.578 66.6469 283.945 67.4474C282.002 67.5409 280.842 67.3966 278.949 67.0373C277.845 68.251 278.143 68.7532 279.313 69.5564L297.346 74.7704C298.257 74.3976 298.574 74.0628 298.323 72.9836C296.939 72.4045 296.162 72.029 294.749 71.0308C293.688 69.361 293.731 68.3999 294.224 66.6835L305.629 28.8291C306.428 27.4166 306.523 26.6103 308.719 25.2971C310.472 25.056 311.496 25.4104 313.472 26.1539C314.772 25.4228 315.157 24.8449 314.043 22.9855L292.638 16.5095C291.175 17.2336 291.018 17.7788 291.864 18.9871C293.72 19.4845 294.547 20.0375 295.885 21.184C297.217 22.5969 297.345 23.7696 297.303 26.0195Z" fill="white" stroke="black" stroke-width="0.3" stroke-linecap="round" stroke-linejoin="round"/>
<path d="M374.39 52.6489L357.951 89.1515C357.03 90.7646 356.588 91.3216 355.858 92.0349C353.918 91.8798 352.786 91.5887 350.954 90.9909C349.704 92.0538 349.937 92.5901 350.994 93.5357L368.215 101.007C369.166 100.754 369.523 100.462 369.411 99.3595C368.113 98.6088 367.39 98.1372 366.116 96.9669C365.276 95.1754 365.442 94.2277 366.15 92.5881L382.289 56.4975C383.262 55.1984 383.459 54.4108 385.805 53.3884C387.575 53.3729 388.545 53.855 390.409 54.8444C391.792 54.2851 392.248 53.7611 391.38 51.7747L370.976 42.6217C369.433 43.1532 369.207 43.674 369.892 44.9803C371.67 45.7103 372.419 46.3643 373.6 47.672C374.742 49.2434 374.718 50.4228 374.39 52.6489Z" fill="white" stroke="black" stroke-width="0.3" stroke-linecap="round" stroke-linejoin="round"/>
<path fill-rule="evenodd" clip-rule="evenodd" d="M37.6505 94.1668C34.0862 95.6815 0.807657 93.1371 1.00083 64.6426C1.194 36.1482 29.3347 38.6698 36.6335 43.7721C46.8125 50.8878 54.5388 59.3684 47.8323 83.9861C51.2068 84.3611 52.9879 84.2965 55.9769 83.9861L59.0311 80.4228C60.2946 78.5251 62.0843 77.3561 62.0843 80.9194C62.0843 84.4826 52.8704 93.8913 37.6505 94.1668ZM31.0331 91.1059C16.1795 86.0415 8.12636 68.1949 8.63539 58.0184C9.14442 47.842 17.7981 41.725 26.9608 45.8015C36.1234 49.8781 42.4339 62.5809 43.25 83.4703C37.0572 83.4922 35.6436 83.6649 33.189 83.9647L33.0692 83.9794C27.3881 84.6774 26.8985 86.2189 31.0331 91.1059Z" fill="white"/>
<path d="M1.00083 64.6426L1.15082 64.6437L1.00083 64.6426ZM37.6505 94.1668L37.6478 94.0168C37.6285 94.0172 37.6095 94.0212 37.5918 94.0288L37.6505 94.1668ZM36.6335 43.7721L36.5475 43.895L36.6335 43.7721ZM47.8323 83.9861L47.6876 83.9466C47.6761 83.9889 47.6836 84.0341 47.7083 84.0704C47.7329 84.1066 47.7722 84.1303 47.8157 84.1351L47.8323 83.9861ZM55.9769 83.9861L55.9924 84.1353C56.0306 84.1313 56.0658 84.1128 56.0908 84.0837L55.9769 83.9861ZM59.0311 80.4228L59.145 80.5204C59.149 80.5158 59.1526 80.511 59.156 80.5059L59.0311 80.4228ZM8.63539 58.0184L8.7852 58.0259L8.63539 58.0184ZM31.0331 91.1059L30.9847 91.2479C31.0485 91.2696 31.119 91.2461 31.157 91.1904C31.195 91.1347 31.1911 91.0605 31.1476 91.009L31.0331 91.1059ZM26.9608 45.8015L27.0217 45.6645L27.0217 45.6645L26.9608 45.8015ZM43.25 83.4703L43.2505 83.6203C43.2912 83.6202 43.3301 83.6035 43.3583 83.5741C43.3864 83.5447 43.4014 83.5052 43.3998 83.4645L43.25 83.4703ZM33.189 83.9647L33.2072 84.1136L33.2072 84.1136L33.189 83.9647ZM33.0692 83.9794L33.051 83.8305L33.0509 83.8305L33.0692 83.9794ZM0.85083 64.6416C0.753733 78.9644 9.07627 86.7691 17.8541 90.7945C22.2408 92.8062 26.7438 93.8761 30.3737 94.3484C32.1889 94.5846 33.7878 94.6716 35.0468 94.6518C36.2977 94.632 37.234 94.5068 37.7091 94.3049L37.5918 94.0288C37.1758 94.2055 36.2926 94.3321 35.042 94.3518C33.7996 94.3714 32.2154 94.2855 30.4125 94.0509C26.8063 93.5817 22.3334 92.5187 17.9791 90.5218C9.27488 86.5301 1.05475 78.8153 1.15082 64.6437L0.85083 64.6416ZM36.7194 43.6491C34.8684 42.3552 31.7156 41.2355 28.0345 40.725C24.3502 40.214 20.1207 40.3108 16.1111 41.4644C12.1002 42.6184 8.30623 44.8311 5.50371 48.5528C2.70108 52.2745 0.899293 57.4928 0.85083 64.6416L1.15082 64.6437C1.19895 57.5452 2.98719 52.3933 5.74336 48.7332C8.49963 45.073 12.2333 42.8923 16.194 41.7527C20.1561 40.6128 24.3423 40.5157 27.9933 41.0221C31.6473 41.5289 34.7491 42.6378 36.5475 43.895L36.7194 43.6491ZM47.977 84.0255C51.3347 71.7004 51.0866 63.3899 48.7048 57.2615C46.3226 51.1322 41.8158 47.2118 36.7194 43.6491L36.5475 43.895C41.6302 47.4481 46.076 51.3259 48.4251 57.3702C50.7746 63.4155 51.0364 71.654 47.6876 83.9466L47.977 84.0255ZM55.9614 83.8369C52.981 84.1464 51.2108 84.2107 47.8489 83.837L47.8157 84.1351C51.2029 84.5116 52.9949 84.4466 55.9924 84.1353L55.9614 83.8369ZM58.9173 80.3252L55.863 83.8884L56.0908 84.0837L59.145 80.5204L58.9173 80.3252ZM62.2343 80.9194C62.2343 80.0216 62.1225 79.3971 61.9181 79.0027C61.8146 78.803 61.6839 78.6555 61.5254 78.5656C61.3657 78.4749 61.19 78.4498 61.0109 78.4747C60.6616 78.5232 60.2912 78.7619 59.9391 79.0888C59.5828 79.4197 59.2266 79.8585 58.9063 80.3397L59.156 80.5059C59.4674 80.0383 59.8088 79.6193 60.1433 79.3086C60.4822 78.994 60.7961 78.8074 61.0521 78.7718C61.1756 78.7547 61.283 78.7729 61.3773 78.8265C61.473 78.8808 61.5676 78.9785 61.6517 79.1407C61.8224 79.47 61.9343 80.0355 61.9343 80.9194H62.2343ZM37.6532 94.3168C45.2939 94.1785 51.4302 91.7475 55.6586 88.9004C57.7725 87.4771 59.4118 85.9483 60.5243 84.5471C61.6312 83.1529 62.2343 81.8628 62.2343 80.9194H61.9343C61.9343 81.7576 61.3856 82.9798 60.2893 84.3605C59.1986 85.7342 57.5832 87.2429 55.4911 88.6516C51.3075 91.4685 45.227 93.8796 37.6478 94.0168L37.6532 94.3168ZM8.48558 58.011C8.22923 63.1358 10.127 70.1707 13.9445 76.5562C17.7631 82.9434 23.5147 88.7009 30.9847 91.2479L31.0815 90.9639C23.6979 88.4464 17.9961 82.7484 14.202 76.4022C10.4068 70.0542 8.53252 63.0776 8.7852 58.0259L8.48558 58.011ZM27.0217 45.6645C22.3959 43.6064 17.8865 44.1184 14.4686 46.441C11.0527 48.7624 8.74215 52.8816 8.48558 58.011L8.7852 58.0259C9.03766 52.9788 11.3084 48.9513 14.6373 46.6892C17.9641 44.4284 22.3629 43.9201 26.8998 45.9386L27.0217 45.6645ZM43.3998 83.4645C42.5834 62.5643 36.2686 49.7785 27.0217 45.6645L26.8998 45.9386C35.9782 49.9777 42.2844 62.5974 43.1001 83.4762L43.3998 83.4645ZM33.2072 84.1136C35.6551 83.8146 37.0627 83.6422 43.2505 83.6203L43.2494 83.3203C37.0517 83.3422 35.6321 83.5152 33.1708 83.8159L33.2072 84.1136ZM33.0874 84.1283L33.2072 84.1136L33.1708 83.8159L33.051 83.8305L33.0874 84.1283ZM31.1476 91.009C30.1159 89.7896 29.3796 88.7868 28.9405 87.9586C28.4995 87.1267 28.373 86.4984 28.5143 86.0138C28.6536 85.5357 29.0681 85.1504 29.8297 84.839C30.5909 84.5277 31.6706 84.3024 33.0875 84.1283L33.0509 83.8305C31.6273 84.0054 30.5154 84.2345 29.7162 84.5613C28.9174 84.888 28.4027 85.3244 28.2262 85.9298C28.0517 86.5287 28.223 87.2457 28.6755 88.0991C29.1299 88.9563 29.8829 89.9787 30.9185 91.2028L31.1476 91.009Z" fill="black"/>
<path d="M48.3405 39.1789L58.5212 66.1579C67.2263 84.6177 98.6785 81.0843 92.6268 52.4139L86.0093 27.471C86.3089 24.4512 86.6949 22.8638 89.0635 20.8536C90.0513 19.9534 90.7478 19.6533 92.1177 19.3264C92.7519 18.1143 92.6811 17.5062 91.0997 16.7812L71.2472 21.8716C70.1206 23.061 70.1392 24.0245 71.2472 24.4168C73.2902 24.0636 74.4005 24.0589 76.3376 24.4168C79.0187 25.3059 80.4792 26.1159 82.9551 28.4891C83.2793 28.1331 86.2086 39.9296 90.0816 53.432C93.9546 66.9343 78.4596 85.0634 66.6658 63.1037L56.4851 34.5976C56.5719 30.5138 57.8566 29.3248 61.5755 28.4891C62.1086 26.225 61.4515 25.7507 59.0303 25.9439L39.1778 33.5795C38.4907 35.5301 39.1348 35.8313 41.214 35.6156C46.1174 34.6999 47.4965 35.6752 48.3405 39.1789Z" fill="white" stroke="black" stroke-width="0.3" stroke-linecap="round" stroke-linejoin="round"/>
<path fill-rule="evenodd" clip-rule="evenodd" d="M143.396 113.99C152.648 111.211 158.757 109.512 172.504 106.018C173.324 106.126 173.676 106.464 174.113 107.554C175.387 105.332 176.145 104.945 177.55 105.287C187.315 108.367 193.988 111.026 206.439 116.184C207.462 116.284 207.632 116.06 207.317 115.234C195.543 110.332 188.921 107.691 176.965 103.751C175.979 104.06 175.526 104.325 174.917 104.921C173.205 102.867 173.601 101.987 175.649 100.679C175.985 101.229 177.139 102.639 177.55 102.654C178.075 102.673 199.247 110.334 209.365 114.502C210.786 114.553 210.963 114.315 209.877 113.259C196.927 108.407 189.979 105.736 177.989 101.045C177.077 100.008 176.574 99.3843 175.941 97.1689C175.131 98.4824 174.636 99.0483 173.674 99.7287C172.575 97.4827 171.616 96.8781 169.725 96.145C159.663 94.6911 154.606 92.8786 146.086 89.8245L145.151 89.4896C143.121 89.9795 142.94 90.3717 144.566 91.3911C147.459 92.0614 153.566 93.8924 153.269 94.0972C152.206 94.8296 135.553 90.956 129.134 89.0508C126.242 89.7491 126.415 90.1304 128.11 90.806C133.942 92.7089 137.603 93.2413 144.2 94.0972C131.376 94.4376 124.689 93.0248 112.898 90.0747C109.582 90.4416 108.952 90.7046 111.874 91.3911C116.264 92.884 119.177 93.5403 123.825 94.5878L123.825 94.5878L123.825 94.5878C124.171 94.6657 124.526 94.7458 124.892 94.8285C111.831 93.2829 103.981 92.5546 89.4945 91.3911C87.3039 92.0537 87.1417 92.4223 87.8123 93.0733C95.7642 93.6883 100.326 94.5946 107.334 95.987C108.063 96.1319 108.818 96.282 109.607 96.4375C108.158 96.2982 106.785 96.1629 105.474 96.0338C96.7748 95.1771 90.7977 94.5884 83.5704 94.8285C82.2119 95.6084 82.6147 96.0739 84.0824 96.9495C89.3057 96.9016 93.2227 97.5472 98.0069 98.3357C99.8707 98.6429 101.866 98.9718 104.122 99.2898C101.789 99.1192 99.856 98.9013 98.0754 98.7006C93.2923 98.1615 89.6108 97.7465 82.254 98.7048C79.9303 99.2961 79.2231 99.6706 82.9853 100.094C88.5297 99.6783 91.4296 100.068 95.3869 100.6H95.3869L95.3869 100.6C96.7932 100.789 98.3329 100.996 100.172 101.191C99.6286 101.186 99.1007 101.181 98.587 101.175L98.5853 101.175L98.5844 101.175C91.6083 101.102 87.2426 101.057 81.2301 101.996C79.7971 102.761 80.4613 102.872 81.92 103.118L81.9201 103.118C82.1371 103.155 82.3717 103.194 82.6197 103.239C89.0111 102.459 93.3997 102.712 102.001 103.824C96.2844 103.944 92.2767 104.311 86.7884 105.36C85.3156 106.493 85.8949 106.598 87.801 106.946L87.8011 106.946C87.9657 106.976 88.1403 107.008 88.3243 107.042C95.9721 106.091 99.7432 106.287 106.545 106.639L107.267 106.677C106.579 106.726 105.922 106.771 105.289 106.815L105.289 106.815C99.6029 107.207 95.8691 107.465 89.4945 109.236C87.7373 110.047 87.5578 110.343 92.1274 109.895C101.125 109.315 105.976 109.088 113.556 109.236C109.419 109.758 107.031 110.137 102.293 111.43C98.4223 114.036 100.594 113.891 107.267 112.601C115.324 110.201 119.144 109.891 124.839 109.429L124.839 109.429L124.839 109.429C125.577 109.369 126.346 109.306 127.16 109.236C126.438 109.363 125.747 109.483 125.081 109.599C119.124 110.633 115.211 111.313 109.826 113.332C107.464 114.934 107.678 115.29 113.556 113.99C123.716 111.893 129.458 110.973 139.812 109.895C133.546 110.922 130.022 111.574 123.649 113.332C121.091 115.599 121.81 115.821 125.989 114.795C140.33 110.189 146.577 109.424 156.56 109.236C150.483 110.794 147.073 111.651 140.909 112.601C137.033 114.425 139.115 114.323 143.396 113.99ZM150.563 95.4135C151.174 95.4967 152.704 96.0219 153.781 96.4374C154.085 96.6668 154.161 96.7934 153.781 97.0225C153.244 96.9527 153.026 96.9894 152.835 97.0217L152.831 97.0225C153.088 97.5594 153.148 97.8176 153.123 98.1927C151.958 98.5676 151.184 98.5886 149.759 98.5584C148.347 98.1853 147.933 97.8955 147.492 97.3151C146.983 96.3201 147.089 95.9272 148.515 95.7792C149.422 95.472 149.836 95.4443 150.563 95.4135ZM145.21 96.4374C144.132 96.0219 142.602 95.4967 141.992 95.4135C141.265 95.4443 140.85 95.472 139.944 95.7792C138.517 95.9272 138.411 96.3201 138.92 97.3151C139.362 97.8955 139.776 98.1853 141.187 98.5584C142.613 98.5886 143.386 98.5676 144.552 98.1927C144.576 97.8176 144.517 97.5594 144.259 97.0225L144.264 97.0217C144.455 96.9894 144.672 96.9527 145.21 97.0225C145.59 96.7934 145.514 96.6668 145.21 96.4374ZM133.42 95.4135C134.031 95.4967 135.561 96.0219 136.638 96.4374C136.942 96.6668 137.019 96.7934 136.638 97.0225C136.101 96.9527 135.883 96.9894 135.692 97.0217L135.688 97.0225C135.945 97.5594 136.005 97.8176 135.98 98.1927C134.815 98.5676 134.041 98.5886 132.616 98.5584C131.205 98.1853 130.79 97.8955 130.349 97.3151C129.84 96.3201 129.946 95.9272 131.373 95.7792C132.279 95.472 132.693 95.4443 133.42 95.4135ZM127.219 96.4374C126.141 96.0219 124.611 95.4967 124.001 95.4135C123.273 95.4443 122.859 95.472 121.953 95.7792C120.526 95.9272 120.42 96.3201 120.929 97.3151C121.37 97.8955 121.785 98.1853 123.196 98.5584C124.621 98.5886 125.395 98.5676 126.56 98.1927C126.585 97.8176 126.526 97.5594 126.268 97.0225L126.273 97.0217C126.463 96.9894 126.681 96.9527 127.219 97.0225C127.599 96.7934 127.522 96.6668 127.219 96.4374ZM115.56 95.998C115.991 96.0559 117.074 96.4212 117.836 96.7102C118.05 96.8698 118.105 96.9578 117.836 97.1172C117.455 97.0686 117.302 97.0942 117.167 97.1166L117.163 97.1172C117.346 97.4906 117.388 97.6702 117.37 97.9311C116.546 98.1919 115.999 98.2065 114.991 98.1854C113.993 97.9259 113.699 97.7244 113.387 97.3206C113.027 96.6286 113.103 96.3553 114.111 96.2524C114.753 96.0387 115.046 96.0195 115.56 95.998ZM111.421 98.5674C110.752 98.2976 109.801 97.9567 109.421 97.9027C108.97 97.9227 108.712 97.9406 108.149 98.1401C107.262 98.2362 107.196 98.4912 107.512 99.1371C107.787 99.5139 108.044 99.7021 108.921 99.9443C109.807 99.9639 110.288 99.9503 111.012 99.7069C111.028 99.4634 110.991 99.2957 110.831 98.9472L110.834 98.9467C110.952 98.9257 111.087 98.9019 111.421 98.9472C111.658 98.7984 111.61 98.7163 111.421 98.5674ZM140.032 107.702C141.324 107.215 143.937 106.21 144.054 106.093C144.519 105.647 144.664 105.432 144.054 105.289L142.153 106.239C141.689 106.262 141.597 106.169 141.641 105.874L142.811 105.289C142.837 104.796 142.717 104.641 142.153 104.704C141.836 104.996 141.158 105.596 140.983 105.654C140.807 105.713 140.666 105.435 140.617 105.289L141.202 104.484C141.347 104.104 141.296 103.982 140.617 104.192C139.173 104.609 138.354 104.934 136.814 106.239C136.779 107.875 137.41 108.256 140.032 107.702ZM135.937 106.193C135.82 106.31 133.207 107.314 131.915 107.802C129.292 108.355 128.661 107.975 128.697 106.339C130.237 105.034 131.056 104.708 132.5 104.291C133.179 104.082 133.23 104.203 133.085 104.584L132.5 105.388C132.548 105.534 132.69 105.812 132.865 105.754C133.041 105.695 133.719 105.095 134.036 104.803C134.6 104.741 134.72 104.896 134.694 105.388L133.524 105.973C133.48 106.269 133.572 106.362 134.036 106.339L135.937 105.388C136.546 105.532 136.402 105.746 135.937 106.193ZM122.992 108.243C124.284 107.755 126.898 106.751 127.015 106.634C127.48 106.188 127.624 105.973 127.015 105.829L125.113 106.78C124.65 106.803 124.558 106.71 124.601 106.414L125.771 105.829C125.798 105.337 125.678 105.182 125.113 105.244C124.796 105.537 124.119 106.137 123.943 106.195C123.767 106.254 123.626 105.976 123.577 105.829L124.162 105.025C124.307 104.645 124.257 104.523 123.577 104.732C122.134 105.15 121.314 105.475 119.774 106.78C119.739 108.416 120.37 108.797 122.992 108.243ZM116.391 106.514C116.302 106.598 114.302 107.323 113.313 107.675C111.307 108.075 110.824 107.8 110.851 106.619C112.03 105.677 112.657 105.443 113.761 105.141C114.281 104.99 114.32 105.078 114.209 105.353L113.761 105.933C113.798 106.039 113.907 106.239 114.041 106.197C114.175 106.155 114.694 105.722 114.936 105.511C115.368 105.466 115.46 105.578 115.44 105.933L114.545 106.355C114.511 106.569 114.582 106.636 114.936 106.619L116.391 105.933C116.858 106.037 116.747 106.192 116.391 106.514ZM154.366 105.288C155.269 104.761 155.726 104.609 156.487 104.483C157.784 104.626 157.742 104.914 157.365 105.507C157.589 105.848 157.828 105.886 158.315 105.873C159.197 105.454 159.611 105.298 160.29 105.069C160.945 105.244 161.065 105.407 160.875 105.873C159.875 106.212 157.911 106.803 156.758 107.15C156.333 107.277 156.018 107.372 155.902 107.409C154.512 107.85 153.142 106.568 154.366 105.288ZM145.81 106.167C146.568 105.24 147.084 104.811 148.735 104.778L149.393 105.363C151.692 106.374 150.521 107.127 148.223 108.142L146.833 108.361C143.983 107.921 143.867 107.419 145.81 106.167ZM166.58 103.754H170.749C170.908 103.46 170.879 103.396 170.602 103.095H168.116C167.872 102.879 167.935 102.773 168.116 102.584H170.602C170.846 102.355 170.912 102.227 170.602 101.998H168.116C167.793 101.771 167.702 101.638 168.116 101.34H170.749C170.879 101.053 170.905 100.895 170.749 100.609C169.098 100.501 167.997 100.435 165.995 100.316C162.355 101.284 162.825 102.069 166.58 103.754ZM160.956 102.656H156.787C153.097 102.659 152.412 99.7575 156.202 99.2188C158.204 99.3375 159.306 99.4034 160.956 99.5114C161.113 99.7978 161.087 99.956 160.956 100.243H158.323C157.91 100.54 158 100.674 158.323 100.901H160.81C161.119 101.13 161.054 101.257 160.81 101.486H158.323C158.143 101.675 158.079 101.782 158.323 101.998H160.81C161.086 102.299 161.116 102.362 160.956 102.656ZM146.879 102.656H151.048C151.208 102.362 151.178 102.299 150.902 101.998H148.415C148.171 101.782 148.235 101.675 148.415 101.486H150.902C151.146 101.257 151.211 101.13 150.902 100.901H148.415C148.092 100.674 148.002 100.54 148.415 100.243H151.048C151.179 99.956 151.205 99.7978 151.048 99.5114C149.398 99.4034 148.296 99.3375 146.294 99.2188C142.504 99.7575 143.189 102.659 146.879 102.656ZM140.516 102.656H136.348C132.657 102.659 131.973 99.7575 135.763 99.2188C137.765 99.3375 138.866 99.4034 140.516 99.5114C140.673 99.7978 140.647 99.956 140.516 100.243H137.884C137.47 100.54 137.561 100.674 137.884 100.901H140.37C140.68 101.13 140.614 101.257 140.37 101.486H137.884C137.703 101.675 137.64 101.782 137.884 101.998H140.37C140.646 102.299 140.676 102.362 140.516 102.656ZM125.231 102.947H129.4C129.559 102.653 129.53 102.589 129.253 102.288H126.767C126.523 102.072 126.586 101.965 126.767 101.776H129.253C129.497 101.548 129.563 101.42 129.253 101.191H126.767C126.444 100.964 126.353 100.83 126.767 100.533H129.4C129.53 100.246 129.556 100.088 129.4 99.8017C127.749 99.6937 126.648 99.6277 124.646 99.5091C120.856 100.048 121.54 102.949 125.231 102.947ZM119.161 103.531H114.992C111.301 103.533 110.617 100.632 114.407 100.094C116.409 100.212 117.51 100.278 119.161 100.386C119.317 100.673 119.291 100.831 119.161 101.118H116.528C116.114 101.415 116.205 101.549 116.528 101.776H119.014C119.324 102.005 119.258 102.132 119.014 102.361H116.528C116.347 102.55 116.284 102.656 116.528 102.873H119.014C119.291 103.173 119.32 103.237 119.161 103.531ZM106.043 103.899H109.588C109.724 103.661 109.699 103.61 109.464 103.367H107.349C107.141 103.192 107.195 103.105 107.349 102.953H109.464C109.671 102.768 109.727 102.665 109.464 102.48H107.349C107.074 102.296 106.997 102.188 107.349 101.947H109.588C109.699 101.716 109.722 101.588 109.588 101.356C108.185 101.269 107.248 101.215 105.545 101.12C102.321 101.555 102.903 103.901 106.043 103.899ZM169.579 98.0477C167.574 97.2175 166.453 96.9091 164.459 96.6581C161.863 96.8307 162.154 97.6203 164.094 99.5835C165.38 99.7656 165.954 99.6917 166.873 99.4373C165.827 98.3145 166.683 98.0817 169.579 98.0477ZM164.971 107.189C165.655 107.144 167.441 106.57 168.042 106.311C168.06 106.079 167.993 106 167.531 106.092H166.214C165.783 105.47 165.387 105.295 164.386 105.068C162.038 105.316 161.042 106.72 163.362 107.189C163.931 107.358 164.285 107.352 164.971 107.189ZM161.022 96.0733C160.975 95.8605 158.767 95.3914 157.657 95.3419C154.571 95.5812 154.623 96.2719 157.292 98.2674C157.754 97.989 158.671 97.8713 159.327 97.787C159.8 97.7262 160.138 97.6829 160.071 97.6092C159.607 97.1012 160.098 96.3604 161.022 96.8047C161.413 96.5876 161.451 96.4347 161.022 96.0733Z" fill="#D79619"/>
<path fill-rule="evenodd" clip-rule="evenodd" d="M245.318 113.916C236.066 111.136 229.957 109.438 216.21 105.944C215.39 106.051 215.038 106.39 214.601 107.48C213.328 105.258 212.569 104.871 211.164 105.213C201.399 108.293 194.726 110.952 182.275 116.11C181.252 116.209 181.083 115.985 181.397 115.159C193.172 110.258 199.794 107.617 211.749 103.677C212.735 103.986 213.188 104.25 213.797 104.847C215.509 102.793 215.113 101.913 213.065 100.605C212.729 101.155 211.576 102.565 211.164 102.58C210.639 102.599 189.467 110.26 179.35 114.428C177.929 114.479 177.751 114.241 178.838 113.185C191.788 108.333 198.735 105.662 210.725 100.971C211.638 99.9335 212.14 99.3101 212.773 97.0947C213.583 98.4082 214.078 98.9741 215.04 99.6544C216.139 97.4085 217.098 96.8039 218.989 96.0708C229.051 94.6169 234.108 92.8044 242.628 89.7503L243.563 89.4154C245.593 89.9052 245.774 90.2974 244.148 91.3169C241.255 91.9872 235.148 93.8182 235.445 94.023C236.508 94.7554 253.162 90.8818 259.58 88.9766C262.472 89.6749 262.3 90.0562 260.604 90.7318C254.773 92.6347 251.111 93.1671 244.514 94.023C257.338 94.3634 264.025 92.9506 275.816 90.0005C279.132 90.3673 279.762 90.6304 276.84 91.3169C272.45 92.8098 269.537 93.4661 264.889 94.5136C264.543 94.5915 264.188 94.6716 263.822 94.7543C276.883 93.2086 284.733 92.4804 299.22 91.3169C301.41 91.9795 301.573 92.3481 300.902 92.9991C292.95 93.6141 288.389 94.5204 281.38 95.9128C280.651 96.0577 279.896 96.2077 279.107 96.3633C280.556 96.2239 281.929 96.0887 283.24 95.9596C291.939 95.1028 297.917 94.5142 305.144 94.7543C306.502 95.5341 306.1 95.9997 304.632 96.8753C299.409 96.8274 295.492 97.473 290.707 98.2615C288.844 98.5687 286.848 98.8976 284.593 99.2156C286.925 99.045 288.858 98.8271 290.639 98.6264C295.422 98.0873 299.103 97.6723 306.46 98.6305C308.784 99.2219 309.491 99.5964 305.729 100.02C300.185 99.6041 297.285 99.9939 293.327 100.526C291.921 100.715 290.381 100.922 288.542 101.117C289.084 101.112 289.61 101.106 290.123 101.101L290.124 101.101L290.124 101.101L290.127 101.101L290.129 101.101L290.13 101.101C297.106 101.028 301.472 100.982 307.484 101.922C308.917 102.686 308.253 102.798 306.794 103.044C306.577 103.08 306.343 103.12 306.095 103.165C299.703 102.385 295.314 102.638 286.714 103.75C292.43 103.87 296.438 104.237 301.926 105.286C303.399 106.418 302.819 106.524 300.913 106.872L300.913 106.872C300.748 106.902 300.574 106.934 300.39 106.968C292.742 106.017 288.971 106.213 282.17 106.565L281.448 106.602C282.135 106.652 282.792 106.697 283.425 106.741L283.426 106.741C289.111 107.133 292.845 107.391 299.22 109.162C300.977 109.973 301.156 110.268 296.587 109.82C287.589 109.241 282.738 109.013 275.158 109.162C279.295 109.683 281.684 110.062 286.421 111.356C290.292 113.962 288.12 113.817 281.448 112.526C273.39 110.127 269.57 109.817 263.875 109.354C263.138 109.294 262.369 109.232 261.555 109.162C262.276 109.289 262.967 109.409 263.633 109.525C269.59 110.559 273.503 111.239 278.888 113.258C281.25 114.859 281.036 115.216 275.158 113.916C264.999 111.819 259.256 110.898 248.902 109.82C255.168 110.848 258.692 111.5 265.065 113.258C267.624 115.525 266.905 115.747 262.725 114.721C248.384 110.114 242.137 109.35 232.154 109.162C238.231 110.72 241.641 111.576 247.805 112.526C251.681 114.351 249.599 114.248 245.318 113.916ZM238.151 95.3387C237.541 95.4219 236.011 95.947 234.933 96.3626C234.629 96.592 234.553 96.7185 234.933 96.9477C235.471 96.8778 235.688 96.9146 235.879 96.9469L235.884 96.9477C235.626 97.4845 235.567 97.7427 235.591 98.1178C236.757 98.4928 237.53 98.5138 238.955 98.4835C240.367 98.1105 240.781 97.8206 241.223 97.2402C241.732 96.2452 241.625 95.8523 240.199 95.7043C239.292 95.3971 238.878 95.3695 238.151 95.3387ZM243.504 96.3626C244.582 95.947 246.112 95.4219 246.722 95.3387C247.449 95.3695 247.864 95.3971 248.77 95.7043C250.197 95.8523 250.303 96.2452 249.794 97.2402C249.353 97.8206 248.938 98.1105 247.527 98.4835C246.102 98.5138 245.328 98.4928 244.163 98.1178C244.138 97.7427 244.197 97.4845 244.455 96.9477L244.45 96.9469C244.259 96.9146 244.042 96.8778 243.504 96.9477C243.124 96.7185 243.201 96.592 243.504 96.3626ZM255.294 95.3387C254.683 95.4219 253.153 95.947 252.076 96.3626C251.772 96.592 251.696 96.7185 252.076 96.9477C252.613 96.8778 252.831 96.9146 253.022 96.9469L253.027 96.9477C252.769 97.4845 252.709 97.7427 252.734 98.1178C253.899 98.4928 254.673 98.5138 256.098 98.4835C257.51 98.1105 257.924 97.8206 258.365 97.2402C258.875 96.2452 258.768 95.8523 257.342 95.7043C256.435 95.3971 256.021 95.3695 255.294 95.3387ZM261.496 96.3626C262.574 95.947 264.104 95.4219 264.714 95.3387C265.441 95.3695 265.856 95.3971 266.762 95.7043C268.189 95.8523 268.295 96.2452 267.786 97.2402C267.344 97.8206 266.93 98.1105 265.519 98.4835C264.093 98.5138 263.32 98.4928 262.154 98.1178C262.13 97.7427 262.189 97.4845 262.447 96.9477L262.442 96.9469C262.251 96.9146 262.034 96.8778 261.496 96.9477C261.116 96.7185 261.192 96.592 261.496 96.3626ZM273.154 95.9232C272.723 95.9811 271.641 96.3463 270.879 96.6354C270.664 96.7949 270.61 96.8829 270.879 97.0423C271.259 96.9937 271.413 97.0193 271.548 97.0417L271.551 97.0423C271.369 97.4157 271.327 97.5953 271.344 97.8562C272.168 98.117 272.715 98.1316 273.723 98.1106C274.722 97.8511 275.015 97.6495 275.327 97.2458C275.687 96.5537 275.612 96.2805 274.603 96.1775C273.962 95.9638 273.669 95.9446 273.154 95.9232ZM277.293 98.4925C277.962 98.2228 278.913 97.8818 279.293 97.8278C279.745 97.8478 280.002 97.8658 280.565 98.0652C281.452 98.1613 281.518 98.4163 281.202 99.0623C280.928 99.4391 280.67 99.6272 279.793 99.8694C278.907 99.889 278.426 99.8754 277.702 99.632C277.687 99.3885 277.723 99.2209 277.884 98.8724L277.881 98.8718C277.762 98.8509 277.627 98.827 277.293 98.8724C277.056 98.7236 277.104 98.6415 277.293 98.4925ZM248.683 107.627C247.391 107.14 244.777 106.135 244.66 106.018C244.196 105.572 244.051 105.357 244.66 105.214L246.562 106.165C247.025 106.187 247.117 106.094 247.074 105.799L245.904 105.214C245.877 104.721 245.998 104.566 246.562 104.629C246.879 104.921 247.557 105.521 247.732 105.579C247.908 105.638 248.049 105.36 248.098 105.214L247.513 104.409C247.368 104.029 247.419 103.907 248.098 104.117C249.541 104.534 250.361 104.859 251.901 106.165C251.936 107.801 251.305 108.181 248.683 107.627ZM252.777 106.118C252.894 106.235 255.508 107.239 256.8 107.727C259.422 108.28 260.053 107.9 260.018 106.264C258.477 104.959 257.658 104.633 256.215 104.216C255.535 104.007 255.485 104.129 255.629 104.509L256.215 105.313C256.166 105.459 256.024 105.737 255.849 105.679C255.673 105.62 254.996 105.021 254.679 104.728C254.114 104.666 253.994 104.821 254.02 105.313L255.191 105.898C255.234 106.194 255.142 106.287 254.679 106.264L252.777 105.313C252.168 105.457 252.312 105.672 252.777 106.118ZM265.722 108.168C264.43 107.68 261.816 106.676 261.699 106.559C261.234 106.113 261.09 105.898 261.699 105.755L263.601 106.705C264.064 106.728 264.156 106.635 264.113 106.34L262.943 105.755C262.916 105.262 263.037 105.107 263.601 105.169C263.918 105.462 264.596 106.062 264.771 106.12C264.947 106.179 265.088 105.901 265.137 105.755L264.552 104.95C264.407 104.57 264.458 104.448 265.137 104.657C266.58 105.075 267.4 105.4 268.94 106.705C268.975 108.341 268.344 108.722 265.722 108.168ZM272.323 106.439C272.412 106.523 274.412 107.248 275.401 107.6C277.407 108 277.89 107.725 277.863 106.545C276.685 105.603 276.057 105.368 274.953 105.067C274.433 104.915 274.395 105.003 274.505 105.278L274.953 105.858C274.916 105.964 274.808 106.164 274.673 106.122C274.539 106.08 274.02 105.647 273.778 105.436C273.346 105.391 273.254 105.503 273.274 105.858L274.17 106.281C274.203 106.494 274.132 106.561 273.778 106.545L272.323 105.858C271.857 105.962 271.967 106.117 272.323 106.439ZM234.348 105.213C233.445 104.686 232.988 104.534 232.227 104.409C230.93 104.551 230.972 104.839 231.35 105.433C231.125 105.773 230.886 105.811 230.399 105.798C229.518 105.379 229.104 105.224 228.424 104.994C227.769 105.169 227.649 105.332 227.839 105.798C228.839 106.137 230.801 106.727 231.954 107.074L231.955 107.074L231.955 107.074L231.956 107.075L231.956 107.075L231.957 107.075L231.957 107.075L231.957 107.075L231.957 107.075C232.382 107.203 232.696 107.297 232.812 107.334C234.202 107.775 235.572 106.493 234.348 105.213ZM242.905 106.088C242.147 105.161 241.63 104.732 239.98 104.699L239.321 105.284C237.023 106.295 238.193 107.048 240.492 108.063L241.881 108.283C244.731 107.842 244.848 107.341 242.905 106.088ZM222.134 103.679H217.965C217.806 103.385 217.836 103.321 218.112 103.021H220.598C220.842 102.804 220.779 102.698 220.598 102.509H218.112C217.868 102.28 217.802 102.153 218.112 101.924H220.598C220.921 101.697 221.012 101.563 220.598 101.265H217.965C217.835 100.979 217.809 100.82 217.965 100.534C219.616 100.426 220.717 100.36 222.719 100.241C226.359 101.209 225.889 101.994 222.134 103.679ZM227.758 102.581H231.927C235.618 102.584 236.302 99.6827 232.512 99.144C230.51 99.2626 229.408 99.3285 227.758 99.4365C227.601 99.7229 227.627 99.8812 227.758 100.168H230.391C230.804 100.465 230.714 100.599 230.391 100.826H227.904C227.595 101.055 227.661 101.182 227.904 101.411H230.391C230.572 101.6 230.635 101.707 230.391 101.923H227.904C227.628 102.224 227.599 102.287 227.758 102.581ZM241.835 102.581H237.666C237.506 102.287 237.536 102.224 237.812 101.923H240.299C240.543 101.707 240.48 101.6 240.299 101.411H237.812C237.569 101.182 237.503 101.055 237.812 100.826H240.299C240.622 100.599 240.712 100.465 240.299 100.168H237.666C237.535 99.8812 237.509 99.7229 237.666 99.4365C239.316 99.3285 240.418 99.2626 242.42 99.144C246.21 99.6827 245.526 102.584 241.835 102.581ZM248.198 102.581H252.367C256.057 102.584 256.742 99.6827 252.952 99.144C250.949 99.2626 249.848 99.3285 248.198 99.4365C248.041 99.7229 248.067 99.8812 248.198 100.168H250.831C251.244 100.465 251.154 100.599 250.831 100.826H248.344C248.035 101.055 248.1 101.182 248.344 101.411H250.831C251.011 101.6 251.075 101.707 250.831 101.923H248.344C248.068 102.224 248.038 102.287 248.198 102.581ZM263.483 102.872H259.315C259.155 102.578 259.185 102.514 259.461 102.213H261.947C262.191 101.997 262.128 101.891 261.947 101.701H259.461C259.217 101.473 259.151 101.345 259.461 101.116H261.947C262.27 100.889 262.361 100.756 261.947 100.458H259.315C259.184 100.171 259.158 100.013 259.315 99.7268C260.965 99.6188 262.066 99.5529 264.068 99.4343C267.858 99.973 267.174 102.874 263.483 102.872ZM269.554 103.456H273.722C277.413 103.458 278.097 100.557 274.307 100.019C272.305 100.137 271.204 100.203 269.554 100.311C269.397 100.598 269.423 100.756 269.554 101.043H272.186C272.6 101.34 272.509 101.474 272.186 101.701H269.7C269.39 101.93 269.456 102.057 269.7 102.286H272.186C272.367 102.475 272.43 102.582 272.186 102.798H269.7C269.424 103.099 269.394 103.162 269.554 103.456ZM282.672 103.824H279.126C278.991 103.586 279.016 103.535 279.251 103.292H281.366C281.573 103.117 281.519 103.031 281.366 102.878H279.251C279.043 102.693 278.987 102.59 279.251 102.405H281.366C281.64 102.221 281.717 102.113 281.366 101.873H279.126C279.015 101.641 278.993 101.513 279.126 101.281C280.53 101.194 281.467 101.141 283.17 101.045C286.393 101.48 285.812 103.826 282.672 103.824ZM219.136 97.9728C221.141 97.1426 222.262 96.8342 224.255 96.5832C226.852 96.7558 226.56 97.5455 224.621 99.5087C223.335 99.6907 222.76 99.6169 221.842 99.3624C222.887 98.2396 222.031 98.0068 219.136 97.9728ZM223.743 107.114C223.059 107.069 221.273 106.496 220.672 106.236C220.654 106.004 220.721 105.925 221.184 106.017H222.5C222.931 105.395 223.327 105.22 224.328 104.993C226.676 105.241 227.672 106.645 225.352 107.114C224.784 107.283 224.429 107.277 223.743 107.114ZM227.693 95.9984C227.739 95.7856 229.947 95.3165 231.057 95.2671C234.144 95.5064 234.091 96.1971 231.423 98.1925C230.961 97.9142 230.044 97.7964 229.387 97.7122C228.914 97.6514 228.576 97.608 228.643 97.5343C229.107 97.0264 228.616 96.2856 227.693 96.7298C227.301 96.5128 227.263 96.3598 227.693 95.9984Z" fill="#D79619"/>
<path fill-rule="evenodd" clip-rule="evenodd" d="M89.1289 139.148V161.894C88.7766 163.328 88.4249 164.038 86.8617 164.746C86.2828 164.875 85.8827 164.909 84.9601 164.892C84.6181 165.313 84.5934 165.531 85.4721 165.843H104.414C113.743 165.304 115.394 152.778 106.097 149.753C105.546 149.397 105.491 149.159 106.097 148.656C111.299 145.072 110.952 137.226 102.878 134.906H84.9601C84.1007 135.639 84.2306 136.038 84.9601 136.735H86.9348C88.2417 136.986 88.6702 137.596 89.1289 139.148ZM93.9562 150.705V161.748C94.5703 162.91 95.1004 163.588 96.516 164.893H101.855C106.174 164.622 111.755 152.459 99.6608 150.12H94.6144C94.3023 150.271 94.1379 150.373 93.9562 150.705ZM93.9562 148.365V136.151H100.173C107.748 142.266 103.879 148.202 99.5145 149.169H94.6144C94.1526 148.918 94.0433 148.728 93.9562 148.365Z" fill="white"/>
<path d="M89.1289 161.894L89.2746 161.929C89.2774 161.918 89.2789 161.906 89.2789 161.894H89.1289ZM89.1289 139.148H89.2789C89.2789 139.134 89.2768 139.119 89.2727 139.106L89.1289 139.148ZM86.8617 164.746L86.8943 164.892C86.9044 164.89 86.9142 164.887 86.9235 164.882L86.8617 164.746ZM84.9601 164.892L84.9628 164.742C84.9167 164.741 84.8728 164.762 84.8438 164.797L84.9601 164.892ZM85.4721 165.843L85.422 165.984C85.4381 165.99 85.455 165.993 85.4721 165.993V165.843ZM104.414 165.843V165.993L104.423 165.993L104.414 165.843ZM106.097 149.753L106.015 149.879C106.026 149.886 106.038 149.892 106.05 149.896L106.097 149.753ZM106.097 148.656L106.011 148.532L106.001 148.541L106.097 148.656ZM102.878 134.906L102.92 134.762C102.906 134.758 102.893 134.756 102.878 134.756V134.906ZM84.9601 134.906V134.756C84.9245 134.756 84.89 134.769 84.8628 134.792L84.9601 134.906ZM84.9601 136.735L84.8565 136.843C84.8844 136.87 84.9215 136.885 84.9601 136.885V136.735ZM86.9348 136.735L86.9632 136.587C86.9538 136.586 86.9443 136.585 86.9348 136.585V136.735ZM93.9562 161.748H93.8062C93.8062 161.773 93.8122 161.797 93.8236 161.818L93.9562 161.748ZM93.9562 150.705L93.8246 150.633C93.8125 150.655 93.8062 150.68 93.8062 150.705H93.9562ZM96.516 164.893L96.4143 165.003C96.442 165.029 96.4783 165.043 96.516 165.043V164.893ZM101.855 164.893V165.043L101.864 165.043L101.855 164.893ZM99.6608 150.12L99.6893 149.972C99.6799 149.971 99.6704 149.97 99.6608 149.97V150.12ZM94.6144 150.12V149.97C94.5917 149.97 94.5693 149.975 94.5489 149.985L94.6144 150.12ZM93.9562 136.151V136.001C93.8734 136.001 93.8062 136.068 93.8062 136.151H93.9562ZM93.9562 148.365H93.8062C93.8062 148.376 93.8076 148.388 93.8103 148.399L93.9562 148.365ZM100.173 136.151L100.267 136.034C100.24 136.013 100.207 136.001 100.173 136.001V136.151ZM99.5145 149.169V149.319C99.5255 149.319 99.5363 149.318 99.547 149.316L99.5145 149.169ZM94.6144 149.169L94.5428 149.301C94.5648 149.313 94.5894 149.319 94.6144 149.319V149.169ZM89.2789 161.894V139.148H88.9789V161.894H89.2789ZM86.9235 164.882C87.7181 164.523 88.222 164.155 88.5702 163.681C88.9164 163.21 89.0978 162.649 89.2746 161.929L88.9832 161.858C88.8076 162.573 88.6371 163.084 88.3285 163.504C88.022 163.92 87.5684 164.261 86.7998 164.609L86.9235 164.882ZM84.9574 165.042C85.8868 165.059 86.2998 165.025 86.8943 164.892L86.829 164.599C86.2658 164.725 85.8785 164.759 84.9628 164.742L84.9574 165.042ZM85.5222 165.701C85.3063 165.625 85.1544 165.557 85.0515 165.494C84.9471 165.43 84.9096 165.381 84.8968 165.351C84.8868 165.327 84.8837 165.294 84.9099 165.234C84.9379 165.169 84.9923 165.09 85.0765 164.987L84.8438 164.797C84.7569 164.904 84.68 165.01 84.6347 165.115C84.5875 165.223 84.5689 165.344 84.6199 165.466C84.668 165.582 84.7677 165.672 84.895 165.75C85.024 165.829 85.1986 165.905 85.422 165.984L85.5222 165.701ZM104.414 165.693H85.4721V165.993H104.414V165.693ZM106.05 149.896C110.628 151.385 112.5 155.204 112.091 158.713C111.682 162.223 108.992 165.428 104.406 165.693L104.423 165.993C109.165 165.719 111.964 162.392 112.389 158.748C112.813 155.102 110.862 151.146 106.143 149.61L106.05 149.896ZM106.001 148.541C105.845 148.67 105.724 148.788 105.642 148.902C105.56 149.016 105.508 149.137 105.513 149.266C105.519 149.396 105.581 149.507 105.668 149.603C105.755 149.698 105.874 149.787 106.015 149.879L106.178 149.627C106.044 149.54 105.95 149.467 105.89 149.401C105.831 149.336 105.814 149.29 105.813 149.253C105.811 149.216 105.825 149.161 105.885 149.078C105.946 148.994 106.045 148.894 106.192 148.771L106.001 148.541ZM102.837 135.05C106.829 136.197 108.884 138.699 109.318 141.331C109.753 143.969 108.569 146.771 106.011 148.532L106.182 148.779C108.827 146.957 110.07 144.044 109.614 141.283C109.157 138.516 107.002 135.935 102.92 134.762L102.837 135.05ZM84.9601 135.056H102.878V134.756H84.9601V135.056ZM85.0637 136.626C84.8836 136.454 84.7475 136.307 84.655 136.173C84.5629 136.039 84.52 135.928 84.514 135.825C84.5023 135.624 84.6303 135.384 85.0574 135.02L84.8628 134.792C84.4306 135.16 84.1938 135.486 84.2145 135.843C84.2248 136.019 84.2975 136.183 84.408 136.343C84.5182 136.503 84.6719 136.667 84.8565 136.843L85.0637 136.626ZM86.9348 136.585H84.9601V136.885H86.9348V136.585ZM89.2727 139.106C89.0428 138.327 88.8138 137.759 88.4632 137.355C88.1063 136.944 87.6372 136.717 86.9632 136.587L86.9064 136.882C87.5393 137.004 87.9379 137.208 88.2366 137.552C88.5416 137.904 88.7563 138.416 88.985 139.191L89.2727 139.106ZM94.1062 161.748V150.705H93.8062V161.748H94.1062ZM96.6176 164.783C95.2108 163.486 94.6929 162.821 94.0888 161.678L93.8236 161.818C94.4477 162.999 94.99 163.69 96.4143 165.003L96.6176 164.783ZM101.855 164.743H96.516V165.043H101.855V164.743ZM99.6323 150.267C102.63 150.847 104.512 152.031 105.594 153.467C106.675 154.903 106.972 156.61 106.764 158.263C106.556 159.918 105.843 161.512 104.916 162.707C103.986 163.908 102.862 164.68 101.846 164.743L101.864 165.043C103.007 164.971 104.201 164.12 105.153 162.891C106.11 161.656 106.846 160.013 107.062 158.301C107.277 156.587 106.971 154.797 105.833 153.286C104.695 151.776 102.739 150.562 99.6893 149.972L99.6323 150.267ZM94.6144 150.27H99.6608V149.97H94.6144V150.27ZM94.0878 150.777C94.1721 150.623 94.2476 150.531 94.3325 150.46C94.42 150.387 94.5243 150.33 94.68 150.255L94.5489 149.985C94.3924 150.061 94.2585 150.131 94.1403 150.229C94.0195 150.33 93.922 150.455 93.8246 150.633L94.0878 150.777ZM93.8062 136.151V148.365H94.1062V136.151H93.8062ZM100.173 136.001H93.9562V136.301H100.173V136.001ZM99.547 149.316C101.777 148.821 103.886 147.058 104.467 144.625C105.051 142.181 104.082 139.114 100.267 136.034L100.079 136.268C103.838 139.303 104.723 142.261 104.175 144.556C103.624 146.861 101.617 148.55 99.4821 149.023L99.547 149.316ZM94.6144 149.319H99.5145V149.019H94.6144V149.319ZM93.8103 148.399C93.8556 148.589 93.9108 148.751 94.026 148.901C94.1403 149.049 94.3038 149.171 94.5428 149.301L94.6861 149.037C94.4632 148.916 94.3411 148.818 94.2635 148.717C94.1869 148.618 94.1439 148.504 94.1021 148.33L93.8103 148.399Z" fill="black"/>
</svg>
