<svg width="399" height="293" viewBox="0 0 399 293" fill="none" xmlns="http://www.w3.org/2000/svg">
<path d="M5 233L12.5 224L20.5 269C22.4151 272.223 23.6598 271.663 26 269L36 249L63.5 281.5C66.384 283.369 67.2767 282.355 68 278L70 260.5H139L157 209C176.525 212.301 179.979 218.219 168.5 238.5L147 274C146.4 286.896 148.301 292.11 161.5 292.5C173.633 288.813 179.013 284.973 188.5 278C237.264 236.928 253.861 214.847 232.5 180L243 172.5C257.045 180.388 265.333 183.951 280.5 189.5V182.5C288.05 185.745 292.44 186.78 300.5 187.5L339.5 186L334 176.5L376 168.5L341 137L399 127.5L336 93.5C299.393 71.3938 284.012 54.9168 263.5 20C233.223 17.2346 218.63 18.9494 198.5 30L188 0.5C104.473 26.5052 68.9908 44.1087 47.5 86.5L34 118.5H40C33.5828 128.634 30.4246 134.546 29 147.5C19.6381 156.579 16.6012 162.927 12.5 175C5.49073 195.891 2.38962 208.053 0 231.5C1.32469 234.413 2.4604 234.593 5 233Z" fill="#FCFCFC"/>
<path d="M38.5 152C24.1295 166.69 17.2684 177.913 11 213C15.4828 207.871 17.7665 206.317 21.5 205.5C22.1344 220.931 22.982 229.665 26 245.5C29.4217 238.159 31.2973 234.388 34.5 229C38.4156 237.37 40.7877 241.162 45.5 245.5C52.7263 251.329 55.2894 255.739 60 263.5C60.2337 252.793 61.2854 246.491 67 234L92 177.5H98L67 251H132.5L151.5 200.5C181.429 206.132 190.944 212.652 180.5 237L156 277.5C155.497 284.356 158.717 283.583 165 281.5C182.806 271.39 192.243 263.636 208.5 247.5C235.752 218.293 234.967 203.181 217 177.5L241.5 161.5L271.5 174.5V168C289.055 177.036 300.545 178.914 323.5 177.5L318 168C332.466 168.29 340.562 166.736 355 161.5C339.941 151.521 331.923 144.17 318 129.5C338.64 127.12 350.003 125.642 369 122C311.199 93.2776 284.49 73.9782 257.5 28C223.503 27.7484 208.916 30.9174 196 46.5C188.73 35.3719 186.203 27.1178 182 12C139.04 24.6793 115.675 35.204 76 63C62.4616 76.9848 56.663 86.0082 50.5 105L62 103L48.5 122C40.8196 132.465 39.0614 139.164 38.5 152Z" fill="#060606"/>
<path d="M45 171.002C31.7012 187.927 32.542 194.654 36 206.002C40.4178 192.63 43.7426 186.818 53 183.002C43.6067 203.068 45.7714 212.038 53 227.002C58.5236 204.837 62.9177 193.717 75.5 178.502C69.8597 168.458 67.1406 166.864 62.5 166.002C55.9969 160.191 52.3397 157.015 45 157.502C36.6643 163.034 33.381 167.305 32 178.502L45 171.002Z" fill="#582F8B"/>
<path d="M115.5 163.002L82 236.502H123L142 186.002C191.009 191.514 205.591 208.39 184.5 249.502C211.461 239.753 257.031 159.657 146 171.002L160.5 143.502C140.617 141.357 130.394 144.054 115.5 163.002Z" fill="#582F8B"/>
<path d="M82 147C84.286 154.379 87.2022 157.14 95 160C97.0195 153.124 98.7189 149.061 102.5 141.5C96.3811 143.135 91.9282 144.329 82 147Z" fill="#582F8B"/>
<path d="M95 104C85.7479 116.714 82.0246 124.813 80.5 142.5L110 128.5C143.767 64.4407 156.635 45.4531 170.5 37C171.541 51.6874 173.981 57.6438 181 65C172.965 64.353 169.72 61.5628 164.5 55.5C151.929 67.4912 146.338 75.0985 142 92C139.529 107.116 143.058 108.588 153 106C145.055 79.4932 154.225 74.5306 199.5 86.5C201.261 83.6143 202.566 83.5751 205 84C212.193 92.7848 217.157 95.1609 228 94C212.786 72.5371 236.313 78.3832 238.5 92C238.5 92 243.972 88.6878 248 86.5C233.683 68.5635 223.325 62.9777 202.5 57.5L205 67.5C191.878 62.261 186.09 49.9151 176.5 23.5C118.283 48.5617 75.5938 61.8951 67 90.5C70.8641 90.6289 74.881 89.8582 86.5 86.5C61.8812 112.868 56.4771 124.205 65.5 136.5C75.5146 118.486 82.0132 111.509 95 104Z" fill="#582F8B"/>
<path d="M251 37C225.819 37.8262 213.328 39.5897 202.5 52C212.239 53.5433 217.837 55.6982 228 61.5C235.318 52.8114 239.738 50.2442 248 48.5C257.372 76.4422 268.728 88.9135 298.5 106L278.5 104.5C283.415 120.026 288.492 128.812 300.5 144.5C291.525 142.822 286.777 140.086 278.5 134L281.5 153C270.915 143.654 265.729 137.065 257.5 123.5L254.5 143.502C248.279 134.749 245.958 128.764 243 117L238.5 127C235.146 122.688 233.728 119.185 232 111L228 117L223 107.5C218.702 106.246 216.299 106.107 212 107.5C229.397 136.151 239.901 149.713 262.5 161V153C281.176 165.049 291.134 169.173 307.5 169.5C306.051 164.684 304.638 162.086 301.5 157.5C314.944 160.803 321.73 160.046 333.5 157.5C317.663 144.043 309.856 135.341 298.5 117C315.432 120.376 324.834 120.275 341.5 117C300.473 96.342 280.095 79.8693 251 37Z" fill="#582F8B"/>
<path d="M174 104C166.294 99.1363 166.357 95.6838 169.5 89C172.567 96.117 175.518 99.347 182.5 104C178.791 104.757 176.784 105.04 174 104Z" fill="#582F8B"/>
<path d="M139.5 122.5C117.979 127.24 106.029 131.478 85 143.502C114.964 135.532 132.251 134.109 164.5 135C205.01 142.602 207.033 150.66 186 169.5L193.5 171.002C235.749 152.875 241.647 143.142 205 127C204.504 125.193 204.189 124.209 202 123.5C199.837 125.653 198.638 126.157 196.5 127C195.361 124.386 194.64 122.949 192 121C190.247 123.054 189.261 124.135 187.5 126C178.795 118.48 174.23 116.689 167.5 124.5C165.89 122.209 164.913 120.99 162.5 119.5C159.591 123.082 157.86 124.44 154.5 125.5C153.591 122.086 152.876 120.693 150.5 121C148.688 123.444 147.383 125.569 145 129.5C143.289 125.868 142.152 124.2 139.5 122.5Z" fill="#582F8B"/>
<path d="M136.5 111.497C129.717 113.051 126.948 114.858 124.5 120.497C136.166 116.488 140.817 117.273 145.5 124.997C148.036 121.12 147.316 118.919 146.5 114.997C151.491 114.762 153.663 116.213 156.5 121.497C157.694 118.953 158.221 117.402 158.5 113.997C162.669 113.205 164.801 115.366 168.5 120.497C169.328 115.199 169.614 112.338 165.5 109.997C161.902 109.392 159.951 109.687 156.5 111.497C150.521 110.095 147.228 109.546 142.5 112.997L136.5 111.497Z" fill="#FCFCFC"/>
<path d="M188.5 112.997C183.553 107.252 180.4 108.488 174.5 113.997C181.936 114.357 184.669 116.112 187.5 121.497C189.618 118.585 190.768 117.177 192.5 116.495C196.35 117.577 196.833 119.808 198 123.495C200.695 120.992 201.844 119.506 202.5 116.495C205.145 117.559 206.142 119.323 207.5 123.495C209.416 120.261 209.76 118.842 210 116.495C206.662 111.981 204.502 111.411 200 114.997C195.565 108.989 193.045 108.779 188.5 112.997Z" fill="#FCFCFC"/>
<path d="M231.5 89.999C229.164 89.1443 228.973 88.0767 229 85.999C232.719 85.7645 234.106 86.7502 235 90.999C233.91 90.8478 233.357 90.8148 231.5 89.999Z" fill="#FCFCFC"/>
<path d="M257.5 107.5C245.829 93.2672 238.654 92.8 226.5 99.9998C235.258 107.405 240.237 111.073 249.5 114.997C246.006 108.488 242.812 105.124 235.5 99.5C246.395 101.25 250.279 106.32 255.5 118.5C258.291 114.342 258.523 111.943 257.5 107.5Z" fill="#FCFCFC"/>
<path d="M185 157.5C188.114 148.791 184.244 146.945 173 146C169.933 152.955 167.819 156.78 163.5 163.5C168.937 165.414 172.304 165.481 178.5 165L185 157.5Z" fill="#FCFCFC"/>
</svg>
