<?xml version="1.0" encoding="UTF-8" standalone="no"?>
<!-- Created with Inkscape (http://www.inkscape.org/) -->

<svg
   xmlns:dc="http://purl.org/dc/elements/1.1/"
   xmlns:cc="http://creativecommons.org/ns#"
   xmlns:rdf="http://www.w3.org/1999/02/22-rdf-syntax-ns#"
   xmlns:svg="http://www.w3.org/2000/svg"
   xmlns="http://www.w3.org/2000/svg"
   xmlns:sodipodi="http://sodipodi.sourceforge.net/DTD/sodipodi-0.dtd"
   xmlns:inkscape="http://www.inkscape.org/namespaces/inkscape"
   width="200"
   height="150"
   viewBox="0 0 200 150"
   id="svg2"
   version="1.1"
   inkscape:version="0.91 r13725"
   sodipodi:docname="Rockets.svg">
  <defs
     id="defs4">
    <pattern
       y="0"
       x="0"
       height="6"
       width="6"
       patternUnits="userSpaceOnUse"
       id="EMFhbasepattern" />
    <pattern
       y="0"
       x="0"
       height="6"
       width="6"
       patternUnits="userSpaceOnUse"
       id="EMFhbasepattern-5" />
    <pattern
       y="0"
       x="0"
       height="6"
       width="6"
       patternUnits="userSpaceOnUse"
       id="EMFhbasepattern-52" />
    <pattern
       y="0"
       x="0"
       height="6"
       width="6"
       patternUnits="userSpaceOnUse"
       id="EMFhbasepattern-2" />
    <pattern
       y="0"
       x="0"
       height="6"
       width="6"
       patternUnits="userSpaceOnUse"
       id="EMFhbasepattern-1" />
    <pattern
       y="0"
       x="0"
       height="6"
       width="6"
       patternUnits="userSpaceOnUse"
       id="EMFhbasepattern-8" />
    <pattern
       y="0"
       x="0"
       height="6"
       width="6"
       patternUnits="userSpaceOnUse"
       id="EMFhbasepattern-4" />
    <inkscape:path-effect
       effect="spiro"
       id="path-effect5209"
       is_visible="true" />
    <inkscape:path-effect
       effect="spiro"
       id="path-effect5205"
       is_visible="true" />
    <inkscape:path-effect
       effect="spiro"
       id="path-effect4424"
       is_visible="true" />
    <inkscape:path-effect
       effect="spiro"
       id="path-effect4427"
       is_visible="true" />
    <inkscape:path-effect
       effect="spiro"
       id="path-effect4421"
       is_visible="true" />
    <inkscape:path-effect
       effect="spiro"
       id="path-effect4418"
       is_visible="true" />
    <inkscape:path-effect
       effect="spiro"
       id="path-effect4415"
       is_visible="true" />
    <inkscape:path-effect
       effect="spiro"
       id="path-effect4412"
       is_visible="true" />
    <inkscape:path-effect
       effect="spiro"
       id="path-effect4409"
       is_visible="true" />
    <inkscape:path-effect
       effect="spiro"
       id="path-effect4406"
       is_visible="true" />
    <inkscape:path-effect
       effect="spiro"
       id="path-effect4403"
       is_visible="true" />
    <inkscape:path-effect
       effect="spiro"
       id="path-effect4400"
       is_visible="true" />
    <inkscape:path-effect
       effect="spiro"
       id="path-effect4397"
       is_visible="true" />
    <inkscape:path-effect
       bendpath3-nodetypes="cc"
       bendpath1-nodetypes="cc"
       bendpath4="m 3891.1499,385.42868 0,249.32803"
       bendpath3="m 3891.1499,634.75671 c 295.7883,-59.23432 591.5766,-30.4308 887.3649,0"
       bendpath2="m 4778.5148,385.42868 0,249.32803"
       bendpath1="m 3891.1499,385.42868 c 288.2315,50.03249 570.3325,87.45506 887.3649,0"
       xx="true"
       yy="true"
       is_visible="true"
       id="path-effect4351"
       effect="envelope" />
    <inkscape:path-effect
       is_visible="true"
       id="path-effect7057"
       effect="spiro" />
    <inkscape:path-effect
       effect="spiro"
       id="path-effect7081"
       is_visible="true" />
    <inkscape:path-effect
       is_visible="true"
       id="path-effect7077"
       effect="spiro" />
    <inkscape:path-effect
       is_visible="true"
       id="path-effect7073"
       effect="spiro" />
    <inkscape:path-effect
       effect="spiro"
       id="path-effect7069"
       is_visible="true" />
    <inkscape:path-effect
       effect="spiro"
       id="path-effect7065"
       is_visible="true" />
    <inkscape:path-effect
       is_visible="true"
       id="path-effect7061"
       effect="spiro" />
  </defs>
  <sodipodi:namedview
     id="base"
     pagecolor="#ffffff"
     bordercolor="#666666"
     borderopacity="1.0"
     inkscape:pageopacity="0.0"
     inkscape:pageshadow="2"
     inkscape:zoom="1.4"
     inkscape:cx="-35.996267"
     inkscape:cy="99.057747"
     inkscape:document-units="px"
     inkscape:current-layer="layer1"
     showgrid="false"
     fit-margin-top="0"
     fit-margin-left="0"
     fit-margin-right="0"
     fit-margin-bottom="0"
     units="px"
     inkscape:window-width="1440"
     inkscape:window-height="837"
     inkscape:window-x="1432"
     inkscape:window-y="-8"
     inkscape:window-maximized="1" />
  <metadata
     id="metadata7">
    <rdf:RDF>
      <cc:Work
         rdf:about="">
        <dc:format>image/svg+xml</dc:format>
        <dc:type
           rdf:resource="http://purl.org/dc/dcmitype/StillImage" />
        <dc:title />
      </cc:Work>
    </rdf:RDF>
  </metadata>
  <g
     inkscape:label="Layer 1"
     inkscape:groupmode="layer"
     id="layer1"
     transform="translate(536.30539,-546.064)">
    <g
       id="g4212"
       transform="matrix(0.88548044,0,0,0.88548044,205.55886,155.87711)">
      <path
         sodipodi:nodetypes="ccsccccccccccccscccccccscccccccsccccccccacssccccccccccccccccscscccccccccscccccccccccc"
         inkscape:connector-curvature="0"
         id="path7128"
         d="m -700.10842,451.03543 c -4.5717,-0.072 -9.0576,0.4005 -13.3477,1.125 -11.1918,1.8904 -22.833,5.766 -31.998,13.9415 -4.2924,3.8289 -2.67461,2.3152 -8.8926,8.1445 -2.4366,0.7315 -4.1046,1.266 -6.4531,0.4316 -0.5459,-0.1934 -1.1134,-0.2163 -1.66991,-0.3398 -0.70189,-0.249 -1.43469,-0.4009 -2.1778,-0.4512 -0.33429,-0.021 -0.66649,-0.03 -0.9961,-0.027 l -0.01,0 c -0.90159,0.01 -1.7826,0.1071 -2.63869,0.2754 0.4787,-0.089 0.96439,-0.1346 1.45119,-0.1368 l -1.70119,0.1817 c -0.017,0 -0.034,0 -0.051,0.01 -2.5979,0.571 -4.9493,1.8398 -6.8554,3.6992 -0.2644,0.2579 -0.4289,0.5542 -0.6641,0.8242 -3.9767,0.1665 -7.64919,1.8054 -10.416,4.6699 -1.7315,1.7926 -2.8141,4.0078 -3.51169,6.3672 -3.07711,1.8513 -5.24351,4.7994 -5.918,8.4121 -0.26421,1.4147 -0.2727,2.8375 -0.061,4.2286 -0.2713,0.6329 -0.6694,1.1988 -0.82619,1.8847 -0.21011,0.9185 -0.27301,1.8442 -0.25781,2.7676 -0.70029,1.112 -1.2854,2.3006 -1.6289,3.6016 -0.079,0.2972 -0.06,0.6057 -0.11719,0.9062 -1.12511,0.5575 -2.2106,1.237 -3.19731,2.1367 -0.8178,0.7457 -1.4935,1.56 -2.0684,2.4121 -2.1268,0.5824 -4.1309,1.5082 -5.8066,2.9786 -1.86719,1.6382 -3.1173,3.6324 -3.9023,5.7519 -0.23539,0.1945 -0.502,0.2681 -0.72849,0.4883 -0.6279,0.6103 -1.1499,1.3071 -1.627,2.0312 -0.96561,0.5646 -1.85301,1.2632 -2.62701,2.0977 -0.5158,0.5559 -0.71209,1.0992 -1.0566,1.6562 -0.6866,0.5214 -1.3839,1.0051 -2.0195,1.7872 -1.0453,1.2862 -1.74,2.701 -2.17579,4.1445 -0.3556,0.4027 -0.7325,0.6858 -1.0625,1.1816 -0.34851,0.5238 -0.45991,0.9994 -0.7012,1.5078 -0.84121,0.7171 -1.6335,1.5352 -2.2617,2.5879 -0.2626,0.4403 -0.4081,0.9257 -0.6055,1.3926 -1.0182,1.0141 -1.9006,2.1519 -2.4629,3.4981 -0.4242,1.0161 -0.6769,2.0806 -0.7851,3.164 -3.7873,4.7795 -5.8276,10.7729 -5.4121,17.041 1.0579,11.6697 7.7216,19.2542 15.86719,24.6543 11.8675,7.8675 29.3245,8.0847 42.08591,7.3067 14.46909,-0.9038 28.84029,-3.0955 42.9141,-6.4785 16.2714,-3.9112 31.9478,-9.3585 47.2402,-15.2247 25.6844,-9.8525 53.0592,-22.1249 71.5117,-45.4316 1.4226,-1.797 3.3533,-4.2271 4.5352,-7.8125 0.6944,-2.1063 1.1002,-4.5945 0.664,-7.3613 -0.3288,-2.0858 -1.1252,-3.8366 -2.0703,-5.3946 0.9496,-1.3644 1.4599,-2.9861 1.4629,-4.6484 0,0 0.125,-10.7129 0,-15.4629 -22.5222,3.4459 -47.8433,7.4341 -68.5957,10.8028 -6.8003,1.3269 -13.9517,2.8391 -19.4141,7.4257 -0.6216,0.522 -1.1259,1.1188 -1.6972,1.6739 -2.5686,-1.4726 -5.3875,-2.4801 -8.3828,-2.8243 -0.413,-0.048 -0.8247,-0.078 -1.2344,-0.1015 0.523,-0.1526 1.0466,-0.3041 1.5664,-0.4688 9.7181,-3.0796 19.0746,-8.3955 26.0605,-16.459 4.824,-5.5679 8.4764,-12.4656 9.5704,-20.1718 0.2457,-1.7317 0.4081,-3.7365 0.1035,-5.959 l 0,0 c -0.309,-2.2533 -1.0957,-4.6656 -2.7832,-6.8359 -2.5373,-3.2633 -5.8452,-4.548 -8.3477,-5.3789 -4.5763,-1.5194 -9.2476,-2.1426 -13.8203,-2.2149 z m -24.4004,59.9141 c -1.5682,0.7215 -3.0315,1.5447 -4.3848,2.4395 0.5357,-0.7012 1.0411,-1.4326 1.5313,-2.1778 0.9524,-0.07 1.9043,-0.1539 2.8535,-0.2617 z m -65.3633,34.7754 -4.5879,20.5684 c -0.1749,-0.092 -0.3445,-0.083 -0.5175,-0.1856 -1.4855,-0.8796 -2.4036,-1.9536 -2.6817,-2.5937 -0.2874,-0.6616 -0.473,-2.2084 -0.1367,-4.2754 0.3159,-1.941 0.9014,-3.7984 1.7246,-5.4512 1.2528,-2.5154 3.3825,-5.1303 6.0274,-7.9043 0.055,-0.057 0.117,-0.1009 0.1718,-0.1582 z m -39.7617,1.8867 c -4e-4,0.013 0,0.014 0,0.027 -5e-4,0.015 -0.01,0.028 -0.01,0.043 z m 125.0664,5.2383 c 0.953,0.461 1.8839,1.0153 2.8653,1.3086 1.778,0.5314 3.5049,0.7553 5.1757,0.8301 -6.3156,2.43 -12.7176,4.5554 -19.1816,6.4297 4.0238,-2.4396 7.7701,-5.2819 11.1406,-8.5684 z"
         style="fill:#ffffff;fill-opacity:1;fill-rule:evenodd;stroke:#ffffff;stroke-width:0.81425941px;stroke-linecap:butt;stroke-linejoin:miter;stroke-opacity:1" />
      <path
         sodipodi:nodetypes="ccccccccccsccccccccccccccccccccccccccccccscccccccccscccccccccccccccccccccccccccccscsscccccccccccccccccccscccccccccccsccccccsccccccccsccccccccccccscccscscssssccccccccccccccccccccccccccccccsccccscscsccsccscccccccsscssscssccccssccscsssccccsccccccccccccccccccccccccccccccccccccccccccccsssccccccscccscccccsccccsscsscccsccccccsccs"
         inkscape:connector-curvature="0"
         id="path7027"
         d="m -765.16702,482.02963 c -0.5553,-0.035 -1.11481,0.01 -1.66011,0.1269 l -0.01,0 c -1.09191,0.24 -2.1079,0.7877 -2.9082,1.5684 -1.203,1.1737 -1.6994,2.8544 -1.6485,4.5234 -1.2706,-0.8838 -2.7586,-1.4519 -4.3105,-1.4003 -1.8551,0.062 -3.6598,0.8643 -4.9492,2.1992 -1.0341,1.0706 -1.7206,2.4578 -1.9434,3.9297 -0.1716,1.1327 0.015,2.2759 0.3789,3.3593 -1.0319,-0.3213 -2.1357,-0.3939 -3.1328,0.051 -1.329,0.5918 -2.3131,1.8374 -2.5801,3.2676 -0.1815,0.972 -0.033,1.992 0.42,2.8711 0.2895,0.5622 0.8465,0.8925 1.3379,1.2851 -0.4556,0.075 -0.9396,0.02 -1.3282,0.2774 -0.6968,0.4623 -1.1964,1.1848 -1.3828,2 -0.2082,0.9097 -0.018,1.8859 0.5352,2.6465 0.183,0.2538 0.4431,0.4275 0.6875,0.6172 -0.4848,0.1631 -0.9525,0.3865 -1.3653,0.6933 -0.8845,0.6575 -1.5291,1.6123 -1.8105,2.6778 -0.2181,0.826 -0.2157,1.7039 0.012,2.5293 0.1754,0.6459 0.5774,1.193 0.9941,1.7148 l -1.5781,1.3809 c -1.8165,-0.3506 -3.7616,0.1149 -5.1328,1.3652 -1.1855,1.0809 -1.7691,2.654 -1.8144,4.25 -0.9528,-0.3004 -1.957,-0.4336 -2.9454,-0.2754 -1.1933,0.1908 -2.3241,0.7225 -3.2324,1.5195 -1.4081,1.2354 -2.1255,3.0942 -2.0996,4.961 -0.829,0.099 -1.6264,0.4148 -2.2266,0.998 -0.46,0.4471 -0.8033,1.0062 -0.9921,1.6192 -0.129,0.4189 -0.082,0.8606 -0.062,1.2968 -0.4256,-0.061 -0.8521,-0.1585 -1.2715,-0.055 -0.6249,0.1562 -1.1948,0.4927 -1.6328,0.9649 -0.4468,0.4816 -0.6532,1.1199 -0.7578,1.7656 -0.7523,0.2587 -1.4658,0.6565 -1.9688,1.2754 -0.69801,0.8589 -0.9816,1.9777 -0.8848,3.0762 -0.7376,0.4063 -1.4252,0.9208 -1.8925,1.623 -0.4837,0.7266 -0.6808,1.5936 -0.7598,2.461 -0.8125,0.1483 -1.5611,0.5789 -1.9883,1.2949 -0.2534,0.4247 -0.3934,0.9098 -0.4062,1.4043 -0.01,0.2891 0.1158,0.5551 0.1933,0.832 -0.3925,0.049 -0.7997,0.044 -1.1426,0.2481 -0.5332,0.3161 -0.9525,0.7991 -1.1914,1.371 -0.2132,0.5107 -0.2768,1.0765 -0.17961,1.6211 0.068,0.3785 0.29841,0.6927 0.50581,1.0137 -3.9778,3.3955 -6.2563,8.6639 -5.9101,13.8867 0.1741,2.6277 0.9742,5.2081 2.3183,7.4727 l 0.8613,-0.5098 c -1.2628,-2.1276 -2.018,-4.5606 -2.1816,-7.0293 -0.3323,-5.0147 1.9139,-10.1613 5.8164,-13.3281 l 0.4141,-0.3359 -0.3633,-0.3926 c -0.2435,-0.262 -0.41381,-0.6013 -0.4766,-0.9531 -0.063,-0.352 -0.021,-0.7289 0.1172,-1.0586 0.154,-0.3687 0.4358,-0.6929 0.7793,-0.8965 0.3434,-0.2038 0.7631,-0.2943 1.1602,-0.252 l 0.9355,0.1 -0.4394,-0.83 c -0.1498,-0.2832 -0.2274,-0.612 -0.2188,-0.9317 0.01,-0.3202 0.1034,-0.6428 0.2676,-0.9179 0.3118,-0.5228 0.9238,-0.8901 1.5312,-0.918 l 0.4727,-0.021 0.01,-0.4727 c 0.01,-0.8119 0.2611,-1.6248 0.7109,-2.3007 0.4298,-0.6456 1.0446,-1.1735 1.748,-1.5 l 0.3457,-0.1602 -0.061,-0.375 c -0.1467,-0.9006 0.1159,-1.8798 0.6914,-2.5879 0.4296,-0.5286 1.0372,-0.9221 1.6953,-1.0976 l 0.3477,-0.094 0.02,-0.3594 c 0.033,-0.5276 0.2577,-1.0539 0.6172,-1.4414 0.3035,-0.3272 0.7116,-0.5676 1.1445,-0.6758 0.4332,-0.1082 0.9045,-0.083 1.3262,0.062 l 0.8281,0.2872 -0.1758,-0.8614 c -0.094,-0.4618 -0.07,-0.9502 0.068,-1.4004 0.1386,-0.4502 0.3945,-0.8688 0.7324,-1.1972 0.5155,-0.5009 1.2456,-0.8028 1.961,-0.8028 l 0.5468,0 -0.049,-0.5429 c -0.1518,-1.6888 0.5574,-3.4599 1.832,-4.5782 0.7641,-0.6704 1.7249,-1.1227 2.7286,-1.2832 1.0038,-0.1607 2.059,-0.031 2.9941,0.3672 l 0.7695,0.3282 -0.074,-0.834 c -0.1348,-1.4983 0.4764,-3.0724 1.5879,-4.086 1.1921,-1.0868 2.9779,-1.5327 4.541,-1.1347 l 0.2539,0.064 2.6016,-2.2773 -0.3789,-0.377 c -0.479,-0.4773 -0.833,-1.0876 -1.0098,-1.7402 -0.1789,-0.6517 -0.1798,-1.3561 -0.01,-2.0098 0.222,-0.8407 0.7437,-1.612 1.4415,-2.1308 0.6979,-0.5187 1.5862,-0.7957 2.455,-0.7657 l 0.064,-0.9961 c -0.634,-0.061 -1.2546,-0.4188 -1.627,-0.9355 -0.375,-0.5149 -0.5136,-1.2151 -0.3711,-1.8379 0.1273,-0.5568 0.485,-1.0747 0.961,-1.3906 0.4761,-0.3158 1.0916,-0.4447 1.6543,-0.3457 l 0.2968,-0.9453 c -0.6901,-0.321 -1.2766,-0.8839 -1.625,-1.5606 -0.3484,-0.6767 -0.4658,-1.4823 -0.3261,-2.2305 0.2036,-1.0908 0.9903,-2.0858 2.0039,-2.5371 1.0137,-0.4515 2.2795,-0.3694 3.2265,0.209 l 1.4981,0.9141 -0.791,-1.5664 c -0.575,-1.1395 -0.7888,-2.4688 -0.5977,-3.7305 0.191,-1.262 0.7891,-2.4687 1.6758,-3.3867 1.103,-1.1419 2.6751,-1.84 4.2617,-1.8926 1.5866,-0.053 3.2006,0.5395 4.377,1.6055 l 1.1152,1.0097 -0.2871,-1.4765 c -0.3143,-1.6118 0.2426,-3.3982 1.418,-4.5449 0.6641,-0.6479 1.5177,-1.1095 2.4238,-1.3086 0.9062,-0.1991 1.8756,-0.138 2.75,0.1718 l 0.334,-0.9433 c -0.5269,-0.1867 -1.0788,-0.2974 -1.6348,-0.332 z m 143.8692,18.2695 c -1.6744,-0.059 -3.3584,0.1818 -4.9493,0.7071 -2.1827,0.7207 -4.2327,2.027 -5.4961,3.9472 -0.6317,0.9602 -1.0568,2.0626 -1.1816,3.2051 -0.1247,1.1425 0.056,2.3239 0.5625,3.3555 0.698,1.4211 1.9496,2.4737 3.0879,3.5742 0.5692,0.5502 1.1194,1.1253 1.5683,1.7773 0.4489,0.6521 0.7955,1.3879 0.918,2.17 0.1997,1.2752 -0.2098,2.5864 -0.8867,3.6855 -0.6769,1.099 -1.608,2.0162 -2.543,2.9063 -13.1409,12.5078 -29.0438,21.7763 -45.4843,29.4472 -19.1485,8.9344 -39.3021,15.8723 -60.1094,19.5528 -15.5084,2.7456 -31.33851,3.6671 -47.0606,2.746 l 9.1934,-4.2421 3.5351,-16.6172 11.3145,11.666 17.9668,-6.2383 c -0.9606,-0.9755 -1.7775,-2.0935 -2.4121,-3.3066 -1.0196,-1.949 -1.567,-4.1443 -1.582,-6.3438 l -9.0235,2.4551 -0.707,-4.5977 c 5.1474,-2.0519 9.5022,-6.0225 12.0195,-10.959 1.223,-2.3981 2.0312,-5.1232 1.5918,-7.7792 -0.3942,-2.3824 -1.8224,-4.5743 -3.8418,-5.8985 -2.0194,-1.3242 -4.5993,-1.7601 -6.9414,-1.1719 l -26.1621,5.3028 -10.2539,45.9629 c -1.2901,0.1566 -2.5986,0.1566 -3.8887,0 -2.4968,-0.3031 -4.908,-1.1931 -7.0722,-2.4746 -2.5525,-1.5115 -4.8277,-3.6445 -6.0098,-6.3653 -1.1942,-2.7486 -1.1883,-5.88 -0.707,-8.8379 0.4387,-2.6956 1.257,-5.3346 2.4746,-7.7793 1.846,-3.7064 4.5685,-6.9015 7.4258,-9.8984 2.8797,-3.0204 5.9282,-5.8849 9.1914,-8.4863 2.304,-1.8367 4.7098,-3.5394 7.0703,-5.3028 2.2094,-1.6505 4.3783,-3.3563 6.5058,-5.1113 l 0.2363,-0.1035 c 0.6906,-0.7472 1.7829,-0.8158 2.795,-0.9199 0.7462,-0.077 1.517,0.049 2.1992,0.3613 0.6822,0.3118 1.2847,0.8132 1.7148,1.4277 l 0.7579,1.084 0.1484,-1.3144 c 0.086,-0.766 0.3769,-0.9461 0.9863,-1.418 0.6096,-0.4719 1.4322,-0.6887 2.1953,-0.5801 0.5949,0.085 1.1712,0.3639 1.6055,0.7793 0.4343,0.4155 0.8636,0.4153 0.9746,1.0059 l 0.3164,1.6836 0.6387,-1.5899 c 0.2013,-0.5014 0.5776,-0.9426 1.041,-1.2207 0.4638,-0.2779 1.0298,-0.4025 1.5664,-0.3437 0.5196,0.056 1.0283,0.284 1.416,0.6347 0.3876,0.3507 0.6655,0.8344 0.7735,1.3457 l 0.1679,0.7969 6.3848,-5.1348 -0.627,-0.7793 -5.3144,4.2735 c -0.1986,-0.4426 -0.3531,-0.9148 -0.7148,-1.2422 -0.5476,-0.4953 -1.2445,-0.8089 -1.9786,-0.8887 -0.7602,-0.083 -1.5348,0.088 -2.1894,0.4805 -0.4059,0.2436 -0.6237,0.6765 -0.9004,1.0566 -0.2071,-0.4819 -0.4821,-0.4361 -0.8633,-0.8007 -0.5887,-0.5631 -1.3497,-0.9322 -2.1562,-1.0469 -1.0405,-0.1482 -2.1163,0.136 -2.9473,0.7793 -0.6134,0.4749 -0.8742,0.5924 -1.1191,1.3222 -0.4491,-0.4577 -0.8762,-0.9514 -1.461,-1.2187 -0.847,-0.3873 -1.7923,-0.5427 -2.7187,-0.4473 -1.2614,0.1299 -2.4558,0.727 -3.3164,1.6582 l 0.2812,0.2598 c -0.8852,0.216 -1.7336,0.5811 -2.4883,1.0918 -0.4731,0.3201 -0.9144,0.6953 -1.4336,0.9336 -0.47,0.2156 -0.9976,0.3118 -1.5117,0.2558 -0.5141,-0.056 -1.0145,-0.2653 -1.4023,-0.6074 -0.2195,-0.1936 -0.3999,-0.4265 -0.6016,-0.6386 -0.2017,-0.2121 -0.4325,-0.408 -0.709,-0.504 -0.2113,-0.073 -0.4427,-0.085 -0.6621,-0.041 -0.2194,0.044 -0.4268,0.1415 -0.6074,0.2735 -0.3613,0.2639 -0.6087,0.6599 -0.7676,1.0781 -0.2003,0.5271 -0.274,1.1029 -0.541,1.5996 -0.2957,0.5501 -0.8069,0.9571 -1.3594,1.248 -0.5524,0.2912 -1.1519,0.4806 -1.7383,0.6954 -1.0227,0.3746 -2.0328,0.8457 -2.8281,1.5898 -0.8108,0.7586 -1.3555,1.7604 -2.1211,2.5645 -1.0289,1.0807 -2.4864,1.7795 -3.9785,1.7675 -0.4744,0 -0.9449,-0.078 -1.418,-0.1132 -0.4731,-0.035 -0.9581,-0.031 -1.4101,0.1132 -0.6637,0.2117 -1.2046,0.7138 -1.5918,1.293 -0.3872,0.5791 -0.6378,1.2365 -0.8828,1.8887 -0.5808,1.5459 -1.1526,3.1108 -2.0332,4.5078 -1.1935,1.8933 -2.9005,3.3959 -4.4199,5.0391 -1.3306,1.439 -2.5293,3.0015 -3.5352,4.6835 -1.4672,2.4533 -2.518,5.1552 -3.0938,7.9551 -0.5793,2.8166 -0.6758,5.7424 -0.1757,8.5742 0.6604,3.7395 2.413,7.3354 5.2148,9.8985 2.134,1.9522 4.801,3.2535 7.5703,4.0879 2.7692,0.8344 5.6528,1.2223 8.5293,1.5234 6.2759,0.6542 12.5972,0.9132 18.9024,0.6641 8.9015,-0.3516 17.7301,-1.707 26.5156,-3.1817 6.6117,-1.1098 13.2116,-2.2879 19.7988,-3.5351 -4.1916,1.4562 -8.437,2.7533 -12.7265,3.8886 -7.332,1.9404 -14.7852,3.4046 -22.2754,4.5957 -8.6592,1.3771 -17.3943,2.3926 -26.1622,2.4766 -6.3083,0.06 -12.6772,-0.373 -18.7382,-2.123 -3.4582,-0.9985 -6.7952,-2.4218 -9.9004,-4.2422 -2.9812,-1.7477 -5.2003,-3.6571 -7.6719,-6.0723 l -0.8398,0.6465 c 3.0592,4.7427 7.4919,8.0519 12.4101,10.8203 5.0799,2.8594 10.8208,4.4076 16.6094,5.0957 5.7886,0.6882 11.6449,0.5411 17.4629,0.1777 13.9854,-0.8736 27.891,-2.9925 41.5156,-6.2675 15.7531,-3.7866 31.0976,-9.1075 46.2246,-14.9102 25.3417,-9.7211 51.1891,-21.5967 68.0371,-42.8769 1.2865,-1.625 2.533,-3.3343 3.1817,-5.3028 0.3745,-1.1356 0.5397,-2.354 0.3535,-3.5351 -0.1695,-1.0753 -0.6275,-2.0942 -1.2539,-2.9844 -0.6264,-0.8903 -1.418,-1.6554 -2.2813,-2.3184 -0.7038,-0.5405 -1.4662,-1.025 -2.041,-1.7011 -0.2874,-0.3381 -0.526,-0.7249 -0.6582,-1.1485 -0.132,-0.4235 -0.1541,-0.8862 -0.023,-1.3105 0.1695,-0.5535 0.5876,-1.0069 1.084,-1.3047 0.4963,-0.2978 1.0674,-0.4529 1.6386,-0.5469 0.9344,-0.1537 1.8937,-0.1537 2.8282,0 z m -12.4083,2.0874 -11.7134,1.9205 -0.037,7.2714 3.5,-0.625 -2.125,18.875 4.25,-1.25 1.875,-17.75 3.5,-0.75 z m -14.1831,2.4571 -10.3169,1.7348 -4.5,29.875 15.125,-5.125 0.375,-7.5 -8.625,3.375 0.375,-5 5.875,-1.5 0.125,-4.5 -5.375,1.5 0.625,-4.625 5.75,-1.25 z m -12.8169,2.1312 -5.75,1.1036 -6.5,11.375 1.5,-10.875 -6.5,1 -6.25,34 7.625,-2.75 1.25,-10.625 4.25,8.875 5.625,-1.875 0,-8.25 -3,0.875 -2.75,-5.5 z m -19.748,3.4259 c -5.5918,0 -11.161,2.0311 -15.4434,5.6269 -4.1678,3.4995 -7.0451,8.3448 -8.9218,13.4532 -0.8178,2.226 -1.4648,4.5469 -1.5118,6.9179 -0.047,2.371 0.5493,4.8119 2.0079,6.6817 1.236,1.5845 3.0334,2.6824 4.9589,3.2578 1.9254,0.5754 3.9754,0.6495 5.9727,0.4277 2.3158,-0.2572 4.5872,-0.9107 6.6855,-1.9238 l 1.5918,-9.8984 c -1.2147,0.7743 -2.5606,1.3421 -3.9628,1.6718 -0.9601,0.2259 -1.9547,0.3389 -2.9356,0.2364 -0.9809,-0.1025 -1.9501,-0.4299 -2.7363,-1.0254 -0.8599,-0.6513 -1.4703,-1.6022 -1.7949,-2.6309 -0.3242,-1.0288 -0.374,-2.1329 -0.2383,-3.2031 0.2043,-1.6105 0.8238,-3.1573 1.7246,-4.5078 0.9007,-1.3506 2.0785,-2.5057 3.4023,-3.4453 2.7074,-1.9217 6.0507,-2.9327 9.3692,-2.8301 z m -33.5332,6.2441 c -1.829,0.026 -3.6548,0.3886 -5.3828,0.9981 -2.304,0.8126 -4.4406,2.0556 -6.4024,3.5117 -5.3465,3.9684 -9.3982,9.5152 -12.1972,15.5566 -1.6483,3.5579 -2.9021,7.392 -2.8301,11.3125 0.034,1.8587 0.3742,3.7291 1.1543,5.416 0.7802,1.6874 2.0176,3.1868 3.6191,4.1309 2.0292,1.1962 4.5205,1.4352 6.8438,1.0469 2.3233,-0.3883 4.509,-1.3607 6.5918,-2.461 5.1178,-2.7037 9.7945,-6.2407 13.789,-10.4296 -1.1353,-4.7427 -1.1353,-9.7534 0,-14.4961 0.9079,-3.7928 2.535,-7.4126 4.7715,-10.6075 -2.1798,-2.1483 -5.0902,-3.5401 -8.1308,-3.8886 -0.6068,-0.07 -1.2165,-0.099 -1.8262,-0.09 z m -3.7598,10.0078 c 0.7111,0.011 1.4238,0.1761 2.0508,0.5118 1.175,0.6291 1.9803,1.8236 2.3457,3.1054 0.3655,1.2817 0.3287,2.649 0.1289,3.9668 -0.5515,3.6379 -2.3126,7.0129 -4.5957,9.8985 -0.9294,1.1747 -1.9726,2.299 -3.2793,3.0312 -0.6533,0.3662 -1.3673,0.6291 -2.1094,0.7305 -0.742,0.1013 -1.5116,0.037 -2.2128,-0.2266 -0.736,-0.2763 -1.3838,-0.7677 -1.8829,-1.375 -0.4991,-0.6073 -0.852,-1.3268 -1.0703,-2.082 -0.4364,-1.5104 -0.3342,-3.1272 -0.053,-4.6738 0.6876,-3.7619 2.4557,-7.3396 5.127,-10.0762 0.9935,-1.0178 2.1306,-1.9334 3.4628,-2.4317 0.6661,-0.2491 1.3768,-0.39 2.0879,-0.3789 z"
         style="fill:#bc4f8e;fill-opacity:1;fill-rule:evenodd;stroke:#bc4f8e;stroke-width:1px;stroke-linecap:butt;stroke-linejoin:miter;stroke-opacity:1" />
      <path
         id="path7039"
         d="m -752.95532,500.83303 c 0.79669,0.9961 1.8993,1.715 3.0738,2.2125 1.1745,0.4975 2.4257,0.7861 3.6762,1.0375 11.0801,2.2275 22.7263,1.6641 33.5,-1.75 8.8699,-2.8108 17.2431,-7.6343 23.3358,-14.6667 4.1899,-4.8361 7.2649,-10.7481 8.1642,-17.0833 0.2022,-1.4246 0.2946,-2.876 0.099,-4.3016 -0.1953,-1.4256 -0.6909,-2.8303 -1.5741,-3.9662 -1.3392,-1.7224 -3.4294,-2.6786 -5.5,-3.3661 -7.7624,-2.5773 -16.2103,-2.2282 -24.2751,-0.8661 -10.5185,1.7766 -21.0394,5.3989 -29,12.5 -6.231,5.5582 -10.6331,13.1116 -12.5,21.25 -0.3495,1.5238 -0.61391,3.0836 -0.5263,4.6445 0.088,1.5608 0.5499,3.1346 1.5263,4.3555 z"
         style="fill:#bc4f8e;fill-opacity:1;fill-rule:evenodd;stroke:#bc4f8e;stroke-width:1px;stroke-linecap:butt;stroke-linejoin:miter;stroke-opacity:1"
         inkscape:connector-curvature="0" />
      <path
         id="path7043"
         d="m -769.95532,496.58303 c 0.9983,-4.7099 3.7038,-9.0388 7.5,-12 3.0158,-2.3525 6.6969,-3.8425 10.5,-4.25 -1.14171,1.2022 -2.0039,2.6681 -2.5,4.25 -0.32921,1.0499 -0.49841,2.1497 -0.5,3.25 -2.8889,0.7941 -5.67141,1.9746 -8.25,3.5 -2.45991,1.4552 -4.73411,3.224 -6.75,5.25 z"
         style="fill:#bc4f8e;fill-opacity:1;fill-rule:evenodd;stroke:#bc4f8e;stroke-width:1px;stroke-linecap:butt;stroke-linejoin:miter;stroke-opacity:1"
         inkscape:connector-curvature="0" />
      <path
         id="path7047"
         d="m -759.44902,514.17583 c 3.9134,-0.051 7.8099,-1.0942 11.2254,-3.0052 2.13289,-1.1933 4.0787,-2.7201 5.7452,-4.5079 1.7436,0.5768 3.5596,0.934 5.3917,1.0607 2.4328,0.1682 4.8934,-0.072 7.2478,-0.7071 -3.5213,3.0134 -7.6733,5.2864 -12.1092,6.6292 -5.65121,1.7107 -11.75651,1.8957 -17.5009,0.5303 z"
         style="fill:#bc4f8e;fill-opacity:1;fill-rule:evenodd;stroke:#bc4f8e;stroke-width:1px;stroke-linecap:butt;stroke-linejoin:miter;stroke-opacity:1"
         inkscape:connector-curvature="0" />
      <path
         style="fill:none;fill-rule:evenodd;stroke:#ffffff;stroke-width:2;stroke-linecap:round;stroke-linejoin:miter;stroke-miterlimit:4;stroke-dasharray:none;stroke-opacity:1"
         d="m -739.38482,482.62113 c -0.0313,1.33029 0.41424,2.66687 1.23749,3.7123 0.71868,0.91264 1.71895,1.60035 2.82841,1.9446"
         id="path7059"
         inkscape:path-effect="#path-effect7061"
         inkscape:original-d="m -739.38482,482.62113 c 0,0 0.4531,2.6701 1.23749,3.7123 0.68791,0.9142 2.82841,1.9446 2.82841,1.9446"
         inkscape:connector-curvature="0"
         sodipodi:nodetypes="cac" />
      <path
         sodipodi:nodetypes="cac"
         inkscape:connector-curvature="0"
         inkscape:original-d="m -733.63962,479.08563 c 0,0 0.4531,2.6701 1.2375,3.7123 0.6879,0.9142 2.8284,1.9446 2.8284,1.9446"
         inkscape:path-effect="#path-effect7065"
         id="path7063"
         d="m -733.63962,479.08563 c -0.0313,1.33029 0.41425,2.66687 1.2375,3.7123 0.71868,0.91264 1.71894,1.60034 2.8284,1.9446"
         style="fill:none;fill-rule:evenodd;stroke:#ffffff;stroke-width:2;stroke-linecap:round;stroke-linejoin:miter;stroke-miterlimit:4;stroke-dasharray:none;stroke-opacity:1" />
      <path
         sodipodi:nodetypes="cac"
         inkscape:connector-curvature="0"
         inkscape:original-d="m -729.63482,476.12113 c 0,0 0.4531,2.6701 1.2375,3.7123 0.6879,0.9142 2.8284,1.9446 2.8284,1.9446"
         inkscape:path-effect="#path-effect7069"
         id="path7067"
         d="m -729.63482,476.12113 c -0.0313,1.33029 0.41425,2.66687 1.2375,3.7123 0.71868,0.91264 1.71894,1.60034 2.8284,1.9446"
         style="fill:none;fill-rule:evenodd;stroke:#ffffff;stroke-width:2;stroke-linecap:round;stroke-linejoin:miter;stroke-miterlimit:4;stroke-dasharray:none;stroke-opacity:1" />
      <path
         style="fill:none;fill-rule:evenodd;stroke:#ffffff;stroke-width:2;stroke-linecap:round;stroke-linejoin:miter;stroke-miterlimit:4;stroke-dasharray:none;stroke-opacity:1"
         d="m -723.88962,472.58563 c -0.0313,1.33029 0.41425,2.66687 1.2375,3.7123 0.71868,0.91264 1.71894,1.60034 2.8284,1.9446"
         id="path7071"
         inkscape:path-effect="#path-effect7073"
         inkscape:original-d="m -723.88962,472.58563 c 0,0 0.4531,2.6701 1.2375,3.7123 0.6879,0.9142 2.8284,1.9446 2.8284,1.9446"
         inkscape:connector-curvature="0"
         sodipodi:nodetypes="cac" />
      <path
         style="fill:none;fill-rule:evenodd;stroke:#ffffff;stroke-width:2;stroke-linecap:round;stroke-linejoin:miter;stroke-miterlimit:4;stroke-dasharray:none;stroke-opacity:1"
         d="m -717.96752,469.75713 c -0.0313,1.33029 0.41425,2.66687 1.2375,3.7123 0.71868,0.91264 1.71894,1.60034 2.8284,1.9446"
         id="path7075"
         inkscape:path-effect="#path-effect7077"
         inkscape:original-d="m -717.96752,469.75713 c 0,0 0.4531,2.6701 1.2375,3.7123 0.6879,0.9142 2.8284,1.9446 2.8284,1.9446"
         inkscape:connector-curvature="0"
         sodipodi:nodetypes="cac" />
      <path
         sodipodi:nodetypes="cac"
         inkscape:connector-curvature="0"
         inkscape:original-d="m -712.04552,467.10553 c 0,0 0.4531,2.6701 1.2375,3.7123 0.6879,0.9142 2.8284,1.9446 2.8284,1.9446"
         inkscape:path-effect="#path-effect7081"
         id="path7079"
         d="m -712.04552,467.10553 c -0.0313,1.33029 0.41425,2.66687 1.2375,3.7123 0.71868,0.91264 1.71894,1.60034 2.8284,1.9446"
         style="fill:none;fill-rule:evenodd;stroke:#ffffff;stroke-width:2;stroke-linecap:round;stroke-linejoin:miter;stroke-miterlimit:4;stroke-dasharray:none;stroke-opacity:1" />
      <path
         id="path7051"
         d="m -763.60322,504.01113 c 0.99709,-3.9085 3.2993,-7.4721 6.45229,-9.9879 3.78991,-3.024 8.79001,-4.485 13.61181,-3.9774 l -9.2808,10.253 c -1.7249,-0.7029 -3.6791,-0.8289 -5.48001,-0.3535 -2.21099,0.5837 -4.16559,2.0821 -5.30329,4.0658 z"
         style="fill:#bc4f8e;fill-opacity:1;fill-rule:evenodd;stroke:#ffffff;stroke-width:1px;stroke-linecap:butt;stroke-linejoin:miter;stroke-opacity:1"
         inkscape:connector-curvature="0" />
      <path
         style="fill:none;fill-rule:evenodd;stroke:#ffffff;stroke-width:1;stroke-linecap:butt;stroke-linejoin:miter;stroke-miterlimit:4;stroke-dasharray:none;stroke-opacity:1"
         d="m -753.92342,502.07913 c 9.24962,-11.93668 21.28293,-21.70223 34.8679,-28.2968 12.03149,-5.84047 25.2624,-9.1962 38.6231,-9.7959"
         id="path7055"
         inkscape:path-effect="#path-effect7057"
         inkscape:original-d="m -753.92342,502.07913 c 0,0 21.4893,-21.5838 34.8679,-28.2968 11.8713,-5.9567 38.6231,-9.7959 38.6231,-9.7959"
         inkscape:connector-curvature="0"
         sodipodi:nodetypes="cac" />
      <g
         transform="matrix(0.9128317,0,0,0.9128317,-4219.6206,-3639.923)"
         id="g7202">
        <path
           sodipodi:type="inkscape:offset"
           inkscape:radius="1.9471836"
           inkscape:original="M 3787.0332 4571.875 C 3785.4012 4572.3008 3784.4782 4572.9379 3783.875 4573.541 C 3783.3429 4573.2217 3782.42 4573.1164 3780.6816 4573.5781 C 3778.7303 4574.0748 3777.4185 4574.7126 3776.4961 4575.3867 L 3776.4961 4584.2559 L 3779.7949 4583.3691 L 3779.7949 4575.8477 C 3780.0432 4575.7058 3780.2559 4575.5989 3780.6816 4575.457 C 3781.4621 4575.2441 3781.8184 4575.5997 3781.8184 4576.2383 L 3781.8184 4582.8379 L 3785.1172 4581.9512 L 3785.1172 4574.5352 C 3785.3655 4574.2868 3785.6489 4574.1455 3786.0391 4574.0391 C 3786.7842 4573.8262 3787.1387 4574.1798 3787.1387 4574.8184 L 3787.1387 4581.418 L 3790.4395 4580.4961 L 3790.4395 4573.9316 C 3790.4395 4572.0512 3789.0909 4571.3074 3787.0332 4571.875 z M 3791.1484 4581.0977 L 3783.166 4583.2266 C 3786.0752 4584.8232 3785.4361 4585.8884 3784.0879 4586.3496 C 3783.0945 4586.7044 3781.7119 4586.4918 3780.9668 4585.8887 C 3780.2928 4585.321 3780.043 4584.8587 3780.043 4584.5039 L 3777.1699 4584.7891 C 3777.2409 4585.4632 3777.7377 4586.2081 3778.873 4587.166 C 3780.7179 4588.6916 3784.0526 4589.1168 3786.4297 4588.3008 C 3788.9486 4587.4139 3789.7641 4585.8526 3787.3516 4584.0078 L 3789.8359 4583.334 L 3792.7441 4585.7812 L 3795.5469 4584.8242 L 3791.1484 4581.0977 z "
           style="clip-rule:evenodd;fill:#ffffff;fill-rule:evenodd"
           id="path7200"
           d="m 3788.5469,4569.7422 c -0.6704,-0.033 -1.3539,0.07 -2.0235,0.2539 -1.3615,0.3578 -2.3196,0.9058 -3.1074,1.4805 -0.9268,-0.1447 -1.9485,-0.1198 -3.2148,0.2148 -0,6e-4 -0,0 -0.01,0 -2.1318,0.5433 -3.6888,1.2742 -4.8476,2.1211 a 1.9473783,1.9473783 0 0 0 -0.7989,1.5722 l 0,8.8692 a 1.9473783,1.9473783 0 0 0 1.0742,1.7402 c 0.3896,0.97 1.0245,1.84 1.9942,2.6582 a 1.9473783,1.9473783 0 0 0 0.016,0.012 c 2.596,2.1467 6.3272,2.5416 9.4297,1.4766 a 1.9473783,1.9473783 0 0 0 0.014,-0.01 c 1.535,-0.5404 3.0116,-1.3176 3.5312,-3.0683 0.049,-0.1635 0.015,-0.3398 0.035,-0.5098 l 0.8476,0.7129 a 1.9473783,1.9473783 0 0 0 1.8828,0.3515 l 2.8028,-0.957 a 1.9473783,1.9473783 0 0 0 0.6289,-3.3281 l -4.3985,-3.7266 a 1.9473783,1.9473783 0 0 0 -0.019,-0.016 l 0,-5.6641 c 0,-1.4057 -0.657,-2.8984 -1.8906,-3.625 -0.6168,-0.3632 -1.2763,-0.5315 -1.9492,-0.5644 z" />
        <g
           transform="matrix(0.35478152,0,0,0.35478152,3776.3184,4571.5903)"
           id="g7185"
           style="clip-rule:evenodd;fill-rule:evenodd">
          <path
             id="path7187"
             d="m 39.8,25.1 0,-18.5 C 39.8,1.3 36,-0.8 30.2,0.8 25.6,2 23,3.8 21.3,5.5 19.8,4.6 17.2,4.3 12.3,5.6 6.8,7 3.1,8.8 0.5,10.7 l 0,25 9.3,-2.5 0,-21.2 c 0.7,-0.4 1.3,-0.7 2.5,-1.1 2.2,-0.6 3.2,0.4 3.2,2.2 l 0,18.6 9.3,-2.5 0,-20.9 c 0.7,-0.7 1.5,-1.1 2.6,-1.4 2.1,-0.6 3.1,0.4 3.1,2.2 l 0,18.6 9.3,-2.6 z"
             inkscape:connector-curvature="0"
             style="fill:#c89125" />
          <path
             id="path7189"
             d="m 28.5,47.1 c 7.1,-2.5 9.4,-6.9 2.6,-12.1 l 7,-1.9 8.2,6.9 7.9,-2.7 -12.4,-10.5 -22.5,6 c 8.2,4.5 6.4,7.5 2.6,8.8 -2.8,1 -6.7,0.4 -8.8,-1.3 -1.9,-1.6 -2.6,-2.9 -2.6,-3.9 l -8.1,0.8 c 0.2,1.9 1.6,4 4.8,6.7 5.2,4.3 14.6,5.5 21.3,3.2 z"
             inkscape:connector-curvature="0"
             style="fill:#8a8a8d" />
        </g>
      </g>
    </g>
  </g>
</svg>
