<?xml version="1.0" encoding="UTF-8" standalone="no"?>
<!-- Created with Inkscape (http://www.inkscape.org/) -->

<svg
   xmlns:dc="http://purl.org/dc/elements/1.1/"
   xmlns:cc="http://creativecommons.org/ns#"
   xmlns:rdf="http://www.w3.org/1999/02/22-rdf-syntax-ns#"
   xmlns:svg="http://www.w3.org/2000/svg"
   xmlns="http://www.w3.org/2000/svg"
   xmlns:sodipodi="http://sodipodi.sourceforge.net/DTD/sodipodi-0.dtd"
   xmlns:inkscape="http://www.inkscape.org/namespaces/inkscape"
   width="200"
   height="150"
   viewBox="0 0 200 150"
   id="svg2"
   version="1.1"
   inkscape:version="0.91 r13725"
   sodipodi:docname="Rockets.svg">
  <defs
     id="defs4">
    <pattern
       y="0"
       x="0"
       height="6"
       width="6"
       patternUnits="userSpaceOnUse"
       id="EMFhbasepattern" />
    <pattern
       y="0"
       x="0"
       height="6"
       width="6"
       patternUnits="userSpaceOnUse"
       id="EMFhbasepattern-5" />
    <pattern
       y="0"
       x="0"
       height="6"
       width="6"
       patternUnits="userSpaceOnUse"
       id="EMFhbasepattern-52" />
    <pattern
       y="0"
       x="0"
       height="6"
       width="6"
       patternUnits="userSpaceOnUse"
       id="EMFhbasepattern-2" />
    <pattern
       y="0"
       x="0"
       height="6"
       width="6"
       patternUnits="userSpaceOnUse"
       id="EMFhbasepattern-1" />
    <pattern
       y="0"
       x="0"
       height="6"
       width="6"
       patternUnits="userSpaceOnUse"
       id="EMFhbasepattern-8" />
    <pattern
       y="0"
       x="0"
       height="6"
       width="6"
       patternUnits="userSpaceOnUse"
       id="EMFhbasepattern-4" />
    <inkscape:path-effect
       effect="spiro"
       id="path-effect5209"
       is_visible="true" />
    <inkscape:path-effect
       effect="spiro"
       id="path-effect5205"
       is_visible="true" />
    <inkscape:path-effect
       effect="spiro"
       id="path-effect4424"
       is_visible="true" />
    <inkscape:path-effect
       effect="spiro"
       id="path-effect4427"
       is_visible="true" />
    <inkscape:path-effect
       effect="spiro"
       id="path-effect4421"
       is_visible="true" />
    <inkscape:path-effect
       effect="spiro"
       id="path-effect4418"
       is_visible="true" />
    <inkscape:path-effect
       effect="spiro"
       id="path-effect4415"
       is_visible="true" />
    <inkscape:path-effect
       effect="spiro"
       id="path-effect4412"
       is_visible="true" />
    <inkscape:path-effect
       effect="spiro"
       id="path-effect4409"
       is_visible="true" />
    <inkscape:path-effect
       effect="spiro"
       id="path-effect4406"
       is_visible="true" />
    <inkscape:path-effect
       effect="spiro"
       id="path-effect4403"
       is_visible="true" />
    <inkscape:path-effect
       effect="spiro"
       id="path-effect4400"
       is_visible="true" />
    <inkscape:path-effect
       effect="spiro"
       id="path-effect4397"
       is_visible="true" />
    <inkscape:path-effect
       bendpath3-nodetypes="cc"
       bendpath1-nodetypes="cc"
       bendpath4="m 3891.1499,385.42868 0,249.32803"
       bendpath3="m 3891.1499,634.75671 c 295.7883,-59.23432 591.5766,-30.4308 887.3649,0"
       bendpath2="m 4778.5148,385.42868 0,249.32803"
       bendpath1="m 3891.1499,385.42868 c 288.2315,50.03249 570.3325,87.45506 887.3649,0"
       xx="true"
       yy="true"
       is_visible="true"
       id="path-effect4351"
       effect="envelope" />
  </defs>
  <sodipodi:namedview
     id="base"
     pagecolor="#ffffff"
     bordercolor="#666666"
     borderopacity="1.0"
     inkscape:pageopacity="0.0"
     inkscape:pageshadow="2"
     inkscape:zoom="1.4"
     inkscape:cx="128.64659"
     inkscape:cy="99.057747"
     inkscape:document-units="px"
     inkscape:current-layer="layer1"
     showgrid="false"
     fit-margin-top="0"
     fit-margin-left="0"
     fit-margin-right="0"
     fit-margin-bottom="0"
     units="px"
     inkscape:window-width="1440"
     inkscape:window-height="837"
     inkscape:window-x="1432"
     inkscape:window-y="-8"
     inkscape:window-maximized="1" />
  <metadata
     id="metadata7">
    <rdf:RDF>
      <cc:Work
         rdf:about="">
        <dc:format>image/svg+xml</dc:format>
        <dc:type
           rdf:resource="http://purl.org/dc/dcmitype/StillImage" />
        <dc:title></dc:title>
      </cc:Work>
    </rdf:RDF>
  </metadata>
  <g
     inkscape:label="Layer 1"
     inkscape:groupmode="layer"
     id="layer1"
     transform="translate(536.30539,-546.064)">
    <g
       id="g4293"
       transform="matrix(1.0207569,0,0,1.0207569,-6.9256552,-12.891171)">
      <path
         d="m -397.05078,547.58984 c -5.66775,0.0453 -13.13674,0.93875 -26.63477,2.60938 -6.62352,0.81977 -12.78566,1.63822 -17.43164,2.30469 -2.32299,0.33323 -4.25947,0.62721 -5.74219,0.875 -0.74135,0.12389 -1.35922,0.23419 -1.93554,0.35156 -0.28816,0.0587 -0.55882,0.1149 -0.91016,0.20508 -0.35134,0.0902 -0.49,-0.0301 -2.00976,0.74414 -5.02074,2.55771 -4.346,4.72318 -4.69336,5.86328 -0.34737,1.1401 -0.50661,2.05272 -0.6875,3.18945 -0.36178,2.27347 -0.69659,5.32094 -1.11719,9.91406 -0.84119,9.18624 -1.98127,24.41016 -3.76953,49.4629 -1.19299,16.71309 -2.27866,31.99228 -3.06836,43.14843 -0.39485,5.57808 -0.7168,10.12467 -0.93945,13.30664 -0.11133,1.59099 -0.19815,2.84023 -0.25782,3.71094 -0.0298,0.43535 -0.052,0.77537 -0.0684,1.02344 -0.0163,0.24682 -0.0162,-0.38698 -0.041,0.76953 -2e-5,6.8e-4 10e-6,0.001 0,0.002 -6e-5,0.003 6e-5,-0.001 0,0.002 -0.0743,3.51248 2.10247,6.163 3.48437,7.23437 1.38245,1.07179 2.37373,1.38886 3.22266,1.65039 1.69785,0.52306 2.95671,0.5942 4.32812,0.58008 3.8311,-0.0397 9.03485,-0.78708 14.77735,-1.58594 2.87125,-0.39943 5.63472,-0.81712 7.8418,-1.19531 1.10353,-0.1891 2.05551,-0.36475 2.91406,-0.55078 0.42927,-0.093 0.82475,-0.18284 1.32031,-0.32422 0.49556,-0.14138 0.58844,0.27889 2.93164,-1.35352 0.54423,-0.37918 0.79948,-0.64236 1.17578,-0.95507 1.61086,0.97047 2.41736,1.02461 2.94531,1.11523 0.61053,0.10479 0.9734,0.12372 1.30469,0.14062 0.66258,0.0338 1.1511,0.0218 1.6875,0.004 1.07281,-0.0359 2.25666,-0.12144 3.62891,-0.24023 2.7445,-0.2376 6.16906,-0.61414 9.62695,-1.04297 3.45789,-0.42884 6.92191,-0.90774 9.72461,-1.35742 1.40135,-0.22485 2.62472,-0.43881 3.70313,-0.66407 0.5392,-0.11262 1.03302,-0.22227 1.60156,-0.38086 0.56854,-0.15858 0.87584,0.024 2.83594,-1.21875 3.17437,-2.01263 3.0673,-3.24761 3.39843,-3.99414 0.33113,-0.74653 0.46403,-1.21904 0.5918,-1.67382 0.25554,-0.90957 0.40913,-1.69338 0.57227,-2.59961 0.32627,-1.81248 0.63074,-4.01644 0.94531,-6.61133 0.62913,-5.18979 1.27113,-11.85691 1.81836,-18.56836 0.54723,-6.71145 0.99652,-13.43475 1.22265,-18.73047 0.11307,-2.64786 0.17459,-4.92066 0.15235,-6.79883 -0.0111,-0.93908 -0.036,-1.75955 -0.125,-2.66797 -0.0445,-0.45421 -0.0972,-0.92053 -0.2461,-1.59765 -0.14893,-0.67713 -0.0546,-1.47995 -1.58007,-3.55274 -0.0311,-0.0423 -0.0493,-0.0465 -0.0801,-0.0879 0.5235,-0.63198 1.09096,-1.10718 1.54492,-1.95117 1.72102,-3.19968 1.70983,-5.46353 2.07031,-8.31641 0.81308,-6.43486 1.44069,-16.85156 1.79883,-26.32031 0.17907,-4.73437 0.28287,-9.17308 0.28125,-12.69726 -8.1e-4,-1.7621 -0.0254,-3.28327 -0.0937,-4.60547 -0.0684,-1.32221 0.55999,-1.30066 -0.86133,-4.83789 a 8.5418373,8.5418373 0 0 0 0,-0.002 c -2.00753,-4.99588 -4.11688,-6.19465 -7.40039,-8.20312 -3.15174,-1.92788 -8.09099,-3.56673 -13.75781,-3.52149 z m -16.77539,57.04493 c 0.12857,0.60513 -0.0235,0.74038 -0.0195,0.80468 0.007,0.10772 -0.003,-0.0827 0,-0.37109 9.6e-4,-0.087 0.017,-0.32654 0.0195,-0.43359 z"
         id="path4291"
         style="fill:#ffffff;fill-opacity:1"
         inkscape:original="M -396.98242 556.13086 C -401.7092 556.1686 -409.17299 557.0094 -422.63672 558.67578 C -435.78937 560.30365 -447.12972 561.93027 -447.83789 562.29102 C -448.89894 562.83155 -449.88813 573.63592 -453.46289 623.7168 C -455.84868 657.14029 -457.80936 684.83177 -457.81836 685.25391 C -457.82782 685.69063 -456.78927 686.01029 -455.41016 685.99609 C -451.27481 685.9532 -431.37511 683.18497 -430.41992 682.51953 C -429.90618 682.16159 -428.56259 670.77032 -427.31055 656.16992 C -426.09753 642.0249 -424.748 629.83843 -424.3125 629.08789 C -423.87701 628.33735 -422.48227 627.54226 -421.21289 627.32031 C -416.45572 626.48849 -416.46476 626.38126 -418.74219 654.66797 C -419.89605 668.99933 -420.5209 680.94701 -420.13086 681.21875 C -419.19098 681.87351 -393.38911 678.67362 -391.87695 677.71484 C -390.19982 676.6515 -385.9998 625.14091 -387.43164 623.19531 C -387.97355 622.45901 -389.6407 620.95707 -391.13477 619.85742 L -393.85156 617.85742 L -390.03125 615.14648 C -386.24719 612.46034 -386.20748 612.38341 -385.49023 606.70703 C -384.02674 595.12464 -382.88085 564.83319 -383.81836 562.5 C -384.3172 561.2586 -386.0819 559.41683 -387.75 558.39648 C -390.26568 556.85767 -392.25564 556.09312 -396.98242 556.13086 z M -414.88477 576.13867 C -413.68453 576.15077 -412.65973 576.41899 -412.37305 576.93945 C -412.122 577.39527 -412.53023 583.46568 -413.28125 590.42969 C -414.03229 597.3937 -414.64648 603.63376 -414.64648 604.29492 C -414.64648 604.95611 -415.27144 605.93024 -416.0332 606.46094 C -417.82613 607.70996 -421.60072 607.7044 -422.29102 606.45117 C -422.58648 605.91471 -422.17835 599.21366 -421.38477 591.56055 C -420.18158 579.95761 -419.69488 577.51892 -418.44922 576.87891 C -417.46126 576.37127 -416.085 576.12658 -414.88477 576.13867 z "
         inkscape:radius="8.5409832"
         sodipodi:type="inkscape:offset" />
      <path
         d="m -397.00781,553.01562 c -5.07002,0.0405 -12.53548,0.90044 -26.01172,2.56836 -6.59354,0.81607 -12.72992,1.63169 -17.32617,2.29102 -2.29813,0.32966 -4.20914,0.61983 -5.61914,0.85547 -0.70501,0.11782 -1.28148,0.22139 -1.74805,0.31641 -0.23329,0.0475 -0.43686,0.0912 -0.64453,0.14453 -0.20767,0.0533 -0.31206,0.0275 -0.89453,0.32421 -1.91566,0.9759 -1.75397,1.90889 -1.9668,2.60743 -0.21283,0.69853 -0.35896,1.45189 -0.51953,2.46093 -0.32114,2.01809 -0.65625,5.01549 -1.07227,9.5586 -0.83203,9.08621 -1.97206,24.30663 -3.75976,49.35156 -1.19293,16.71224 -2.27878,31.99197 -3.06836,43.14648 -0.39479,5.57726 -0.71699,10.12349 -0.93945,13.30274 -0.11124,1.58962 -0.19654,2.8374 -0.25586,3.70312 -0.0297,0.43287 -0.0526,0.77053 -0.0684,1.00977 -0.0158,0.23924 -0.0217,0.0838 -0.0312,0.53125 -0.0284,1.35031 0.8061,2.38145 1.38476,2.83008 0.57897,0.44886 1.04959,0.61635 1.4961,0.7539 0.893,0.27511 1.73555,0.34951 2.67382,0.33985 a 3.1157927,3.1157927 0 0 0 0.002,0 c 2.71091,-0.0281 8.42486,-0.7479 14.08398,-1.53516 2.82956,-0.39363 5.5573,-0.80529 7.67383,-1.16797 1.05826,-0.18134 1.95767,-0.34941 2.67969,-0.50586 0.36101,-0.0782 0.6751,-0.1506 0.98242,-0.23828 0.30732,-0.0877 0.42571,0.034 1.31836,-0.58789 1.49132,-1.03905 1.14863,-1.39916 1.25586,-1.69726 0.10723,-0.2981 0.16478,-0.52586 0.22461,-0.7793 0.11966,-0.50688 0.22444,-1.08339 0.33984,-1.79688 0.2308,-1.42696 0.48823,-3.36775 0.76953,-5.75195 0.56261,-4.76839 1.21357,-11.28923 1.8418,-18.61523 0.60461,-7.0504 1.24381,-13.61441 1.7832,-18.48633 0.2697,-2.43596 0.51567,-4.45172 0.71485,-5.86719 0.085,-0.60384 0.15499,-1.03319 0.21679,-1.38476 0.25712,-0.13938 0.62213,-0.27463 0.81641,-0.3086 0.1221,-0.0214 0.1276,-0.007 0.23242,-0.0195 0.24038,2.68269 -0.26654,9.91733 -1.4043,24.04883 -0.57887,7.18987 -1.02533,13.77901 -1.27929,18.63476 -0.12698,2.42788 -0.20566,4.41686 -0.22852,5.86915 -0.0114,0.72614 -0.0101,1.30852 0.0137,1.8125 0.0119,0.25198 0.0243,0.47247 0.0723,0.77929 0.024,0.15341 0.0485,0.32382 0.14648,0.6211 0.098,0.29727 0.0605,0.83911 1.21094,1.64062 0.83716,0.5832 1.14281,0.5179 1.41406,0.56445 0.27125,0.0466 0.46668,0.0602 0.66407,0.0703 0.39476,0.0201 0.77926,0.015 1.22851,0 0.89851,-0.0301 2.02347,-0.11048 3.3418,-0.22461 2.63665,-0.22826 6.02028,-0.59891 9.42773,-1.02149 3.40745,-0.42258 6.82793,-0.89438 9.53125,-1.32812 1.35166,-0.21687 2.52045,-0.42392 3.45508,-0.61914 0.46732,-0.0976 0.87356,-0.19079 1.25391,-0.29688 0.38034,-0.10609 0.6117,-0.0828 1.38672,-0.57422 1.1912,-0.75525 1.1867,-1.25726 1.34375,-1.61132 0.15705,-0.35407 0.24455,-0.63894 0.33007,-0.94336 0.17106,-0.60885 0.30901,-1.28035 0.45508,-2.0918 0.29215,-1.62291 0.59278,-3.76525 0.90039,-6.30274 0.61522,-5.07497 1.25403,-11.69969 1.79688,-18.35742 0.54285,-6.65773 0.98763,-13.33781 1.20898,-18.52148 0.11068,-2.59184 0.16661,-4.80254 0.14649,-6.50196 -0.0101,-0.8497 -0.037,-1.56405 -0.0996,-2.20312 -0.0313,-0.31954 -0.0686,-0.61577 -0.14453,-0.96094 -0.0759,-0.34517 -0.0655,-0.70724 -0.6504,-1.50195 a 3.1157927,3.1157927 0 0 0 0,-0.002 c -0.97536,-1.32524 -2.25031,-2.37578 -3.63671,-3.42578 l 0.33007,-0.23438 c 1.89929,-1.34822 3.36983,-2.32069 4.36133,-4.16406 0.99151,-1.84338 1.10945,-3.58224 1.46875,-6.42578 0.76141,-6.02599 1.40344,-16.47633 1.75782,-25.84571 0.17718,-4.68468 0.27891,-9.07739 0.27734,-12.49023 -7.9e-4,-1.70642 -0.0257,-3.16346 -0.0859,-4.32813 -0.0602,-1.16466 0.11438,-1.62016 -0.47851,-3.0957 -1.04917,-2.61091 -2.93992,-4.21882 -5.19727,-5.59961 -2.7477,-1.68073 -5.81313,-2.76313 -10.88281,-2.72266 z m -18.46875,26.34376 c -0.0244,0.53541 -0.0365,0.97095 -0.084,1.67578 -0.16055,2.38559 -0.44674,5.61465 -0.81836,9.06054 -0.37645,3.49062 -0.71806,6.79777 -0.96679,9.32422 -0.12437,1.26323 -0.22598,2.32999 -0.29688,3.13477 -0.0509,0.57808 -0.0677,0.88066 -0.0859,1.25 -0.0436,0.0475 -0.10155,0.11049 -0.0859,0.0996 -0.0432,0.0301 -0.7883,0.21782 -1.42188,0.30273 0.0201,-0.67658 0.0398,-1.3619 0.0996,-2.34375 0.16048,-2.63622 0.45874,-6.1922 0.85156,-9.98047 0.59946,-5.78087 1.03151,-9.27956 1.40821,-11.16406 0.13933,-0.69703 0.23081,-0.91947 0.3125,-1.1543 0.29962,-0.0926 0.6556,-0.15168 1.08789,-0.20507 z"
         id="path4285"
         style="fill:#e58b9b;fill-opacity:1"
         inkscape:original="M -396.98242 556.13086 C -401.7092 556.1686 -409.17299 557.0094 -422.63672 558.67578 C -435.78937 560.30365 -447.12972 561.93027 -447.83789 562.29102 C -448.89894 562.83155 -449.88813 573.63592 -453.46289 623.7168 C -455.84868 657.14029 -457.80936 684.83177 -457.81836 685.25391 C -457.82782 685.69063 -456.78927 686.01029 -455.41016 685.99609 C -451.27481 685.9532 -431.37511 683.18497 -430.41992 682.51953 C -429.90618 682.16159 -428.56259 670.77032 -427.31055 656.16992 C -426.09753 642.0249 -424.748 629.83843 -424.3125 629.08789 C -423.87701 628.33735 -422.48227 627.54226 -421.21289 627.32031 C -416.45572 626.48849 -416.46476 626.38126 -418.74219 654.66797 C -419.89605 668.99933 -420.5209 680.94701 -420.13086 681.21875 C -419.19098 681.87351 -393.38911 678.67362 -391.87695 677.71484 C -390.19982 676.6515 -385.9998 625.14091 -387.43164 623.19531 C -387.97355 622.45901 -389.6407 620.95707 -391.13477 619.85742 L -393.85156 617.85742 L -390.03125 615.14648 C -386.24719 612.46034 -386.20748 612.38341 -385.49023 606.70703 C -384.02674 595.12464 -382.88085 564.83319 -383.81836 562.5 C -384.3172 561.2586 -386.0819 559.41683 -387.75 558.39648 C -390.26568 556.85767 -392.25564 556.09312 -396.98242 556.13086 z M -414.88477 576.13867 C -413.68453 576.15077 -412.65973 576.41899 -412.37305 576.93945 C -412.122 577.39527 -412.53023 583.46568 -413.28125 590.42969 C -414.03229 597.3937 -414.64648 603.63376 -414.64648 604.29492 C -414.64648 604.95611 -415.27144 605.93024 -416.0332 606.46094 C -417.82613 607.70996 -421.60072 607.7044 -422.29102 606.45117 C -422.58648 605.91471 -422.17835 599.21366 -421.38477 591.56055 C -420.18158 579.95761 -419.69488 577.51892 -418.44922 576.87891 C -417.46126 576.37127 -416.085 576.12658 -414.88477 576.13867 z "
         inkscape:radius="3.1154811"
         sodipodi:type="inkscape:offset" />
      <path
         style="fill:#676767;fill-opacity:1"
         d="m -457.81752,685.25391 c 0.009,-0.42214 1.96864,-28.11401 4.35443,-61.5375 3.57476,-50.08088 4.56425,-60.88532 5.6253,-61.42585 0.70817,-0.36075 12.04882,-1.9878 25.20147,-3.61567 26.92745,-3.33276 29.85517,-3.35614 34.88652,-0.27851 1.6681,1.02035 3.43228,2.86175 3.93112,4.10315 0.93751,2.33319 -0.20746,32.62546 -1.67095,44.20785 -0.71725,5.67638 -0.75843,5.7529 -4.54249,8.43904 l -3.81868,2.71072 2.71652,1.99937 c 1.49407,1.09965 3.15984,2.6018 3.70175,3.3381 1.43184,1.9456 -2.76669,53.4573 -4.44382,54.52064 -1.51216,0.95878 -27.31531,4.15774 -28.25519,3.50298 -0.39004,-0.27174 0.23488,-12.21971 1.38874,-26.55107 2.27743,-28.28671 2.28712,-28.17954 -2.47005,-27.34772 -1.26938,0.22195 -2.66428,1.01763 -3.09977,1.76817 -0.4355,0.75054 -1.78422,12.9378 -2.99724,27.08282 -1.25204,14.6004 -2.59666,25.99077 -3.1104,26.34871 -0.95519,0.66544 -20.85479,3.4343 -24.99014,3.47719 -1.37911,0.0142 -2.41658,-0.3057 -2.40712,-0.74242 z m 41.78528,-78.79249 c 0.76176,-0.5307 1.385,-1.50586 1.385,-2.16705 0,-0.66116 0.61449,-6.89993 1.36553,-13.86394 0.75102,-6.96401 1.1601,-13.03479 0.90905,-13.49061 -0.57336,-1.04092 -4.09967,-1.07647 -6.07559,-0.0612 -1.24566,0.64001 -1.73359,3.07932 -2.93678,14.68226 -0.79358,7.65311 -1.20115,14.35365 -0.90569,14.89011 0.6903,1.25323 4.46555,1.25952 6.25848,0.0105 z"
         id="path4661"
         inkscape:connector-curvature="0" />
    </g>
  </g>
</svg>
