<?xml version="1.0" encoding="UTF-8" standalone="no"?>
<!-- Created with Inkscape (http://www.inkscape.org/) -->

<svg
   xmlns:dc="http://purl.org/dc/elements/1.1/"
   xmlns:cc="http://creativecommons.org/ns#"
   xmlns:rdf="http://www.w3.org/1999/02/22-rdf-syntax-ns#"
   xmlns:svg="http://www.w3.org/2000/svg"
   xmlns="http://www.w3.org/2000/svg"
   xmlns:sodipodi="http://sodipodi.sourceforge.net/DTD/sodipodi-0.dtd"
   xmlns:inkscape="http://www.inkscape.org/namespaces/inkscape"
   width="200"
   height="150"
   viewBox="0 0 200 150"
   id="svg2"
   version="1.1"
   inkscape:version="0.91 r13725"
   sodipodi:docname="Sharks.svg">
  <defs
     id="defs4">
    <pattern
       y="0"
       x="0"
       height="6"
       width="6"
       patternUnits="userSpaceOnUse"
       id="EMFhbasepattern" />
    <pattern
       y="0"
       x="0"
       height="6"
       width="6"
       patternUnits="userSpaceOnUse"
       id="EMFhbasepattern-5" />
    <pattern
       y="0"
       x="0"
       height="6"
       width="6"
       patternUnits="userSpaceOnUse"
       id="EMFhbasepattern-52" />
    <pattern
       y="0"
       x="0"
       height="6"
       width="6"
       patternUnits="userSpaceOnUse"
       id="EMFhbasepattern-2" />
    <pattern
       y="0"
       x="0"
       height="6"
       width="6"
       patternUnits="userSpaceOnUse"
       id="EMFhbasepattern-1" />
    <pattern
       y="0"
       x="0"
       height="6"
       width="6"
       patternUnits="userSpaceOnUse"
       id="EMFhbasepattern-8" />
    <pattern
       y="0"
       x="0"
       height="6"
       width="6"
       patternUnits="userSpaceOnUse"
       id="EMFhbasepattern-4" />
    <inkscape:path-effect
       effect="spiro"
       id="path-effect5209"
       is_visible="true" />
    <inkscape:path-effect
       effect="spiro"
       id="path-effect5205"
       is_visible="true" />
    <inkscape:path-effect
       effect="spiro"
       id="path-effect4424"
       is_visible="true" />
    <inkscape:path-effect
       effect="spiro"
       id="path-effect4427"
       is_visible="true" />
    <inkscape:path-effect
       effect="spiro"
       id="path-effect4421"
       is_visible="true" />
    <inkscape:path-effect
       effect="spiro"
       id="path-effect4418"
       is_visible="true" />
    <inkscape:path-effect
       effect="spiro"
       id="path-effect4415"
       is_visible="true" />
    <inkscape:path-effect
       effect="spiro"
       id="path-effect4412"
       is_visible="true" />
    <inkscape:path-effect
       effect="spiro"
       id="path-effect4409"
       is_visible="true" />
    <inkscape:path-effect
       effect="spiro"
       id="path-effect4406"
       is_visible="true" />
    <inkscape:path-effect
       effect="spiro"
       id="path-effect4403"
       is_visible="true" />
    <inkscape:path-effect
       effect="spiro"
       id="path-effect4400"
       is_visible="true" />
    <inkscape:path-effect
       effect="spiro"
       id="path-effect4397"
       is_visible="true" />
    <inkscape:path-effect
       bendpath3-nodetypes="cc"
       bendpath1-nodetypes="cc"
       bendpath4="m 3891.1499,385.42868 0,249.32803"
       bendpath3="m 3891.1499,634.75671 c 295.7883,-59.23432 591.5766,-30.4308 887.3649,0"
       bendpath2="m 4778.5148,385.42868 0,249.32803"
       bendpath1="m 3891.1499,385.42868 c 288.2315,50.03249 570.3325,87.45506 887.3649,0"
       xx="true"
       yy="true"
       is_visible="true"
       id="path-effect4351"
       effect="envelope" />
  </defs>
  <sodipodi:namedview
     id="base"
     pagecolor="#ffffff"
     bordercolor="#666666"
     borderopacity="1.0"
     inkscape:pageopacity="0.0"
     inkscape:pageshadow="2"
     inkscape:zoom="0.49497475"
     inkscape:cx="80.175643"
     inkscape:cy="-26.197565"
     inkscape:document-units="px"
     inkscape:current-layer="layer1"
     showgrid="false"
     fit-margin-top="0"
     fit-margin-left="0"
     fit-margin-right="0"
     fit-margin-bottom="0"
     units="px"
     inkscape:window-width="1440"
     inkscape:window-height="837"
     inkscape:window-x="1432"
     inkscape:window-y="-8"
     inkscape:window-maximized="1" />
  <metadata
     id="metadata7">
    <rdf:RDF>
      <cc:Work
         rdf:about="">
        <dc:format>image/svg+xml</dc:format>
        <dc:type
           rdf:resource="http://purl.org/dc/dcmitype/StillImage" />
        <dc:title />
      </cc:Work>
    </rdf:RDF>
  </metadata>
  <g
     inkscape:label="Layer 1"
     inkscape:groupmode="layer"
     id="layer1"
     transform="translate(536.30539,-546.064)">
    <g
       id="g4274"
       transform="matrix(0.23551486,0,0,0.23551486,-370.90142,430.00931)">
      <path
         inkscape:connector-curvature="0"
         id="path5519"
         d="m -406.93417,492.77013 c -8.2439,0.4379 -11.1229,11.9917 -5.3065,17.1971 15.31,27.6157 25.2114,58.1932 27.9432,89.6701 -41.6648,15.0683 -85.5509,26.6424 -122.5527,51.9688 -6.5201,3.8164 -13.6801,8.2714 -16.9883,15.1465 -20.3722,4.3783 -40.5704,10.4048 -60.8047,15.6796 -34.1039,9.6059 -68.2749,19.9619 -100.4883,34.7481 -6.3872,5.1244 -1.3989,17.6021 7.0928,15.3057 97.9038,-9.4687 195.9074,-21.5113 293.9385,-26.833 -0.2368,6.5 4.6762,14.4471 12.0879,12.4277 6.1241,-1.2929 8.9257,-8.2495 8.3359,-13.9531 5.7895,0.687 11.5595,-1.1772 17.3652,-0.7891 -0.048,6.3894 2.6152,15.3245 10.5157,14.9941 8.1364,0.23 11.3708,-9.2756 10.1621,-15.9043 5.068,-0.9657 10.565,1.1436 15.8437,-0.2089 4.0832,-0.8426 0.5104,4.0733 1.8614,6.121 0.5984,6.9591 8.4409,12.8403 14.9414,8.7286 4.5306,-2.517 5.9802,-8.2769 5.2421,-13.1036 6.1128,1.6345 12.6189,1.8626 18.8321,2.2422 -1.3626,7.5505 6.5274,16.2761 14.1738,12.2032 3.0399,-1.4608 5.2222,-4.4499 5.9043,-7.7286 6.1939,3.4116 14.1013,5.0131 20.3809,6.0157 1.4612,4.5307 6.9703,6.2418 11.0215,5.5371 1.9063,4.519 7.434,5.6557 10.4667,9.2617 5.4479,4.2291 15.6971,3.2873 17.0997,-4.5762 5.1928,-19.0839 25.1783,-29.5281 43.6713,-31.3657 22.5055,-2.8003 45.2557,-0.5652 67.697101,2.3316 20.7475,3.5451 40.874,10.4091 61.8972,12.3857 -9.6306,9.1452 -22.7847,13.4484 -35.5156,14.8516 -3.3212,1.9867 -0.6661,-2.7211 -1.836,-4.2129 -1.6529,-6.7477 -10.1644,-3.6909 -14.8847,-3.9786 -3.8896,-0.2231 -8.9872,0.8815 -12.0704,-0.7246 -1.0909,-6.1919 -7.9221,-8.5783 -13.4765,-8.1035 -4.2869,-0.6568 -9.753101,0.5316 -13.244201,-1.2109 -0.6012,-6.3021 -7.6234,-9.207 -13.1932,-7.8242 -16.3239,-0.2743 -35.3696,0.5336 -47.1564,13.455 -4.363,7.1243 3.9489,15.0234 11.1621,14.0625 4.0975,0.7906 8.7292,0.3064 12.5332,1.4102 0.265,7.3412 8.1627,10.5841 14.4942,10.7695 2.9879,0.6378 6.9615,0.284 9.2929,1.709 -1.3727,6.1266 3.6393,11.9161 9.6661,12.5156 3.6122,1.0935 7.3929,1.4592 10.998001,2.5782 -0.988801,4.8342 -1.959101,9.6787 -2.455101,14.5937 47.056901,-3.1326 93.4832006,-21.7059 127.638301,-54.6148 10.747,-9.3127 22.6437,-17.9098 31.2602,-29.2739 2.275,-7.79 -6.2932,-12.6339 -12.6407,-14.0859 -61.2238,-24.4137 -119.8154,-56.7453 -184.636701,-71.1152 -42.3355,-10.4447 -85.8682,-15.3502 -129.3261,-17.627 -6.3255,-5.0666 -10.2157,-12.5117 -16.3559,-17.8266 -28.081,-30.7474 -61.0009,-60.6732 -102.525,-70.8413 -5.9409,-1.2122 -12.0024,-1.88 -18.0625,-2.0079 z m 61.0625,58.5079 c 22.2071,15.9711 36.5904,39.8913 51.9863,61.9746 10.1664,8.0974 23.9021,3.0125 35.5774,5.6131 4.8286,0.3653 11.5906,0.8749 2.8396,0.9248 -26.6243,1.0665 -53.2181,3.2859 -79.5849,7.1691 5.4532,-2.5166 13.3093,-2.0056 16.8574,-7.4277 3.2155,-5.929 -1.4586,-13.1643 -7.6895,-14.3594 -3.8991,-2.4819 -11.7843,-1.8358 -10.8456,-8.1522 -1.8906,-15.5404 -3.8766,-31.286 -9.502,-46.0002 l 0.3613,0.2579 z m 124.0957,110.498 c 0.7142,1.1881 -2.436,-0.2851 0,0 z m 79.4121,3.123 c 2.7298,1.2386 6.1551,3.2972 1.6817,1.168 -0.361,-0.1571 -2.388,-1.4998 -1.6817,-1.168 z m -321.8496,48.043 c -31.1754,2.1605 -62.3736,4.3254 -93.3887,8.2383 -11.645,13.3823 -6.6493,34.3949 -19.9941,46.7617 -19.301,27.8198 -26.7531,62.2335 -28.1309,95.5703 1.1667,7.2287 10.6772,10.031 16.0356,5.3139 8.5003,-4.4252 17.2302,-8.9467 24.2906,-15.5014 10.8612,39.4223 37.5598,72.4501 68.2598,98.5196 3.4337,3.871 -0.3119,10.0155 0.5683,14.6836 -2.5602,46.95657 -3.832,95.75537 12.9199,140.49207 3.2558,7.273 6.0711,15.3438 11.6778,21.1016 5.4298,3.8586 14.0663,0.1102 14.3133,-6.7547 11.0417,-35.5169 21.8414,-72.0113 42.3664,-103.4719 8.0882,-7.3342 19.9969,-6.1641 30.0468,-8.414 33.7008,-3.727 67.7657,-2.1452 101.5743,0.035 16.5756,1.836 33.1396,6.0479 49.8496,5.3868 7.954,-3.1586 5.3885,-15.17267 -1.6367,-17.83597 -32.8811,-25.6775 -73.821,-41.2818 -112.629,-52.2793 6.6864,-2.4161 10.6446,-9.2642 10.5391,-16.2148 7.2023,13.2552 22.1551,21.7031 37.2715,20.3183 16.3907,-0.5164 32.4529,-12.5564 34.6016,-29.3398 2.3816,-14.8117 -6.3714,-30.5769 -20.5782,-35.7774 -6.4962,-3.4289 -15.3142,-3.1537 -20.164,-9.0546 0.5413,-5.4576 8.4784,-4.5304 10.5527,-0.42 2.6517,4.6925 8.0213,10.9667 13.9277,7.0547 6.5058,-2.0514 15.7398,-6.4431 13.9278,-14.7969 -3.7744,-16.1625 -21.0241,-26.1214 -37.0059,-24.832 -18.6644,0.2382 -35.3009,18.1786 -32.3965,37.0039 2.1265,15.9159 16.7634,27.5471 32.0508,29.9043 3.4938,1.0553 10.8372,3.8485 7.9805,8.5137 -5.7125,5.1013 -14.1302,-0.5391 -16.9121,-6.2227 -7.3456,-6.9194 -19.1507,-0.5607 -23.6719,5.7071 -0.5623,-6.4062 -5.7275,-11.4348 -11.3359,-13.3457 3.0906,-7.1636 1.8732,-15.6733 0.4609,-22.6719 8.6209,-2.309 11.54,-12.3459 10.4336,-20.3106 0.7592,-5.547 -0.6053,-11.6217 -3.1035,-16.2246 6.0456,-8.3096 4.8595,-19.8503 1.8535,-29.0175 -5.6283,-9.5744 -18.1934,-8.5249 -27.6849,-8.0216 -9.6972,-0.6524 -22.8798,-1.4465 -28.403,8.4024 -4.3502,9.0843 -3.4673,20.698 1.2637,29.0918 -5.8759,7.4357 -4.0534,18.0155 -3.1114,26.5449 -10.3939,3.6843 -11.9033,16.4875 -10.8828,25.9942 0.2412,7.0592 5.0804,14.3484 11.793,15.9629 -2.6396,6.5952 -2.3965,14.3781 -0.5313,21.1914 -9.9077,-1.6989 -20.7149,-1.434 -29.8378,-5.5547 -10.2623,-11.2689 -19.1216,-23.849 -26.7871,-37.1066 -9.9815,-17.7842 -15.6053,-37.7029 -19.7696,-57.4344 -4.01,-6.9393 -16.6708,-3.7572 -15.7622,4.6826 -1.7077,21.3323 -1.8197,42.9875 2.2739,64.0713 -23.1707,-28.9797 -42.1959,-66.1373 -36.3105,-104.3125 4.0198,-25.7258 21.0788,-48.9936 44.5566,-60.291 7.0908,-4.1136 15.6592,-6.3365 21.8985,-11.6856 3.7826,-5.4394 -0.4077,-14.0289 -7.2598,-13.6543 z m 86.7187,18.1192 c -33.2823,1.2006 -66.906,14.6092 -89.8046,39.0585 -3.6609,7.8049 7.7493,15.254 13.9922,9.9297 30.5727,-13.5125 65.4616,-16.8161 98.4271,-10.5602 53.2759,8.8736 102.8697,35.8934 157.4088,39.1872 27.841,0.4936 57.1398,-8.3186 76.8262,-28.6719 4.3675,-7.3661 -5.6616,-16.2492 -12.7911,-12.3144 -43.5171,9.1524 -89.181,2.3301 -131.1814,-11.6113 -36.7403,-11.2756 -73.8186,-25.4663 -112.8772,-25.0176 z m 21.2442,94.7675 c -0.061,1.922 -0.4326,4.4416 -0.2246,6.1504 -7.3009,-0.6027 -14.5808,0.5696 -21.877,-0.3789 -0.2202,-2.5351 -1.4377,-7.1406 2.9688,-5.6269 6.3767,-0.1331 12.7611,0.1988 19.1328,-0.1446 z m 451.876901,16.0196 c -19.6344,-1.7885 -38.2027,17.4052 -35.0078,37.1113 2.1679,16.5554 17.9965,27.7132 33.6114,30.1445 3.5653,0.9073 10.348599,5.5667 5.3574,8.916 -6.598,3.7196 -13.3605,-2.4825 -16.2285,-8.0468 -6.165,-5.7893 -15.0475,-1.2971 -20.2832,3.4687 -2.7099,2.505 -4.5629,6.178 -4.4024,9.8828 -6.8706,-11.5392 -16.2901,-21.6395 -22.7754,-33.248 9.7424,-12.2386 22.3507,-22.6528 29.6172,-36.6192 0.8051,-8.1095 -8.637,-11.672 -15.3359,-10.6328 -6.4247,-0.5175 -14.2472,-0.013 -17.7871,6.3301 -5.0202,6.0998 -10.4829,11.8131 -15.836,17.6172 0.25,-7.8497 0.6381,-18.9749 -7.8340004,-22.7305 -7.3251,-2.8413 -15.3245,1.391 -22.6307996,-1.7246 -0.2104,35.3841 -0.4219,70.7682 -0.6309,106.1524 9.2622996,-4.2451 21.5502996,2.1748 29.2188,-6.2715 2.7462,-8.7034 1.7058,-17.9439 1.6972,-26.9082 7.5064,10.7899 15.2104,21.439 22.7618,32.1972 8.3243,-2.2814 19.3622,2.6268 25.6992,-5.2324 2.3738,-1.3141 0.026,-8.3328 2.9336,-4.2617 15.5208,15.9396 45.008999,14.4446 58.347599,-3.5391 11.088,-13.9346 7.4531,-36.1148 -6.8847,-46.4297 -7.3497,-6.7631 -18.1972,-6.34 -26.169999,-11.6972 -4.6489,-3.8877 4.1507,-7.211 6.8907,-4.1406 3.105199,5.3675 8.845999,10.8586 15.703099,9.3632 7.0683,-1.9691 15.9631,-7.2083 14.5723,-15.7968 -4.5734,-14.4199 -19.5294,-24.5956 -34.603599,-23.9043 z m -236.908201,0.9609 c -9.5136,0.082 -14.6896,9.732 -16.1975,17.9535 -8.6444,24.6995 -18.5863,48.9792 -25.5583,74.236 -0.4057,-28.2459 2.2062,-56.7821 -1.0762,-84.8457 -4.5422,-8.848 -17.2956,-9.0022 -24.9062,-4.5235 -6.8944,6.5686 -3.3849,16.9054 -4.6718,25.2398 -1.1983,3.0234 2.5987,11.044 -3.129,9.4848 -3.9345,-0.2737 -9.1803,0.88 -12.5156,-0.4941 -0.4034,-11.2156 2.4391,-24.4023 -4.918,-33.9942 -5.3096,-4.0434 -12.9705,-3.5574 -19.0918,-2.1289 -9.5603,4.7708 -7.9635,17.3653 -8.0002,26.1599 -0.2088,23.8134 -0.4657,47.6473 0.76,71.4397 5.9339,7.6912 17.3637,6.3072 25.4472,3.9122 8.3065,-5.5259 4.9444,-16.8553 5.6383,-25.1465 0.5666,-2.9682 -1.0273,-8.1203 0.7582,-10.0723 4.785,0.1875 11.145,-0.9071 15.1543,0.6348 0.7846,12.2157 0.1734,24.5434 0.9316,36.8183 9.6572,-3.309 21.0768,2.2503 29.7266,-4.6367 -0.3938,-3.0014 1.9735,2.3381 3.793,2.332 5.6484,2.3114 12.1498,2.0419 18.0859,1.5782 9.3522,-2.8365 10.6627,-13.6886 13.2129,-21.6094 0.2072,-3.5478 2.6324,-4.3866 5.6719,-3.8809 4.308,0.1922 9.4836,-1.1531 13.3496,0.336 3.2922,8.088 4.4346,18.9958 12.5428,23.7798 7.5996,2.4579 18.214801,3.3411 23.500201,-3.7935 0.8592,0.5492 4.1334,4.182 7.0429,4.5762 6.2611,1.3723 13.4198,0.911 19.2168,-1.5078 6.7578,-5.4143 2.4102,-14.8024 3.8516,-22.0215 6.289,8.3237 12.9975,16.3266 19.1015,24.791 8.7247,-2.2005 20.1685,2.7377 26.7969,-5.4395 3.8671,-7.9225 -4.392,-14.4012 -8.3125,-20.2304 -2.6032,-4.7563 -7.7034,-8.691 -9.4512,-13.3614 11.0096,-5.9341 17.3382,-18.4867 16.2481,-30.8593 0.1062,-15.4121 -11.2924,-30.3455 -26.8668,-32.579 -12.5469,-2.5354 -25.5253,-1.5606 -38.0414,-1.8742 -6.57,0.3804 -12.4384,6.433 -10.5325,13.2448 0.856,24.5583 -0.323,49.2413 0.6399,73.8373 -10.666101,-27.6724 -18.216501,-56.6576 -31.082001,-83.5137 -4.4235,-4.7651 -11.3424,-3.4873 -17.1192,-3.8418 z m -228.6347,14.1875 c 4.1119,0.2233 8.2473,-0.3517 12.3437,0.1895 0.4419,3.1946 1.3148,7.6145 -3.355,6.4404 -5.7405,0.2992 -11.813,1.0641 -17.3852,-0.5147 0.2235,-1.7707 -2.0756,-7.1403 1.4961,-6.0195 2.2967,-0.096 4.6038,-0.2139 6.9004,-0.096 z m 307.574201,15.5723 c 4.876,0.043 13.1571,0.59 12.8242,7.2226 -1.6986,5.0445 -9.5075,5.0742 -13.2168,3.8848 1.2098,-3.6478 -0.2749,-7.8775 0.3926,-11.1074 z m -325.132801,16.1425 c 6.478,0.4654 13.4948,-0.1658 19.7226,0.502 0.037,2.5991 1.6146,6.9053 -2.8216,5.2784 -5.9468,0.1553 -11.8697,0.5913 -17.8327,0.061 0.3734,-1.2738 -1.3471,-5.9366 0.9317,-5.8418 z m 31.0527,32.1973 c -1.0466,2.0528 1.2752,5.9815 -0.6055,6.8906 -6.9115,-0.2175 -14.7408,0.9868 -21.2363,-0.455 -0.5904,-3.0372 -1.2651,-7.5274 3.3418,-6.1426 6.1431,-0.258 12.4275,-0.08 18.5,-0.293 z m -82.3164,55.8281 c 5.3726,0.028 12.8437,0.06 16.8965,0.3868 -5.92,1.0118 -12.8224,1.0318 -16.0804,6.9277 -2.3212,2.8029 -4.4369,5.7721 -6.4196,8.8223 0.4953,-5.4104 1.2409,-10.8055 2.4219,-16.1114 1.0604,-0.016 2.1211,-0.016 3.1816,-0.025 z"
         style="fill:#ffffff;fill-opacity:1" />
      <path
         id="path5362"
         d="m -314.13877,939.32143 c -7.1563,-2.6351 -17.3242,-13.0655 -17.3242,-17.7716 0,-0.9311 2.0927,-2.6756 4.9414,-4.1191 5.3154,-2.6935 6.4656,-2.3748 9.0835,2.5169 1.8545,3.465 9.5965,7.1842 14.9551,7.1842 12.0417,0 18.331,-11.2513 10.9734,-19.6311 -2.9813,-3.3955 -5.8245,-4.7518 -16.9534,-8.0877 -13.1759,-3.9495 -21,-12.9221 -21,-24.0826 0,-15.0253 10.7657,-25.3975 26.384,-25.4196 3.7862,-0.01 8.6857,0.53 10.8877,1.1898 7.2893,2.1839 18.0661,13.9996 16.447,18.0324 -0.28,0.6974 -2.6409,2.1247 -5.2464,3.1719 l -4.7373,1.9038 -3.5594,-4.2851 c -1.9577,-2.3568 -5.0337,-4.901 -6.8354,-5.6538 -9.4488,-3.948 -18.3402,1.3668 -18.3402,10.9629 0,5.5278 4.5746,9.1426 16.0531,12.6847 18.1139,5.5897 24.9663,13.1473 24.9194,27.4836 -0.031,9.3651 -5.3555,17.5589 -14.4725,22.2704 -6.3028,3.2572 -19.5441,4.0918 -26.1758,1.65 z"
         style="fill:#000000;fill-opacity:1"
         inkscape:connector-curvature="0" />
      <path
         id="path5360"
         d="m 83.861231,939.32143 c -7.1563,-2.6351 -17.3242,-13.0655 -17.3242,-17.7716 0,-1.2894 8.3712,-6.6488 10.3852,-6.6488 0.2484,0 1.4275,1.579 2.6203,3.5088 3.105,5.0241 9.8778,8.722 15.9745,8.722 12.041699,0 18.330999,-11.2513 10.973399,-19.6311 -2.9813,-3.3955 -5.8245,-4.7518 -16.953399,-8.0877 -13.1759,-3.9495 -21,-12.9221 -21,-24.0826 0,-15.0253 10.7657,-25.3975 26.384,-25.4196 3.7862,-0.01 8.669499,0.5252 10.851799,1.179 6.6981,2.0068 16.7642,12.3434 16.7642,17.2147 0,1.4077 -7.907,5.6427 -10.3771,5.558 -0.6176,-0.021 -2.0229,-1.4461 -3.1229,-3.1664 -2.9004,-4.5362 -6.6577,-6.9458 -11.720099,-7.5164 -8.0093,-0.9028 -13.7799,4.1621 -13.7799,12.0947 0,5.5047 4.0194,8.6804 15.7596,12.4515 11.643899,3.7402 17.391999,7.279 21.317699,13.1242 6.3642,9.4761 4.6301,24.4186 -3.7357,32.1909 -5.4958,5.1059 -11.1447,7.1936 -20.341599,7.5181 -5.8281,0.2056 -9.8126,-0.1834 -12.6758,-1.2377 z"
         style="fill:#000000;fill-opacity:1"
         inkscape:connector-curvature="0" />
      <path
         id="path5358"
         d="m -367.18027,909.90693 c -20.6271,0.01 -23.2832,1.6629 -23.2832,14.5097 0,9.0419 1.761,12.0389 8,13.6153 4.1751,1.0549 26.2513,0.9266 30.2207,-0.1758 5.4878,-1.5242 6.7793,-4.0478 6.7793,-13.2442 0,-4.3137 -0.4858,-8.7509 -1.0801,-9.8613 -1.9707,-3.6824 -6.9446,-4.8537 -20.6367,-4.8437 z m 4.9863,3.0585 c 13.6873,-0.1161 13.7305,1.1827 13.7305,11.3868 0,6.3081 -0.391,8.7972 -1.5703,9.9765 -1.3007,1.3007 -4.3951,1.5723 -17.9649,1.5723 -15.1842,0 -16.4707,-0.142 -17.4296,-1.9336 -1.2926,-2.4157 -1.3378,-17.0386 -0.059,-19.0664 0.7601,-1.2048 4.0192,-1.5642 16.5527,-1.8223 2.5518,-0.053 4.7849,-0.097 6.7402,-0.1133 z"
         style="fill:#000000;fill-opacity:1"
         inkscape:connector-curvature="0" />
      <path
         id="path5354"
         d="m -252.79627,938.23433 c -0.3667,-0.3666 -0.6667,-19.7008 -0.6667,-42.9648 0,-47.8749 -0.6515,-44.3685 8.2431,-44.3685 7.6246,0 7.6948,0.1756 7.9933,20 l 0.2636,17.5 15.5,0 15.5,0 0.2739,-17.9558 c 0.1957,-12.831 0.6239,-18.178 1.5,-18.7347 1.944,-1.2349 10.174,-0.9341 12.0479,0.4405 1.5664,1.149 1.6828,4.6832 1.4411,43.75 l -0.2629,42.5 -7,0 -7,0 -0.2745,-17.4561 c -0.1955,-12.431 -0.6273,-17.6803 -1.5,-18.2347 -1.4395,-0.9146 -26.8284,-1.0907 -29.1437,-0.2022 -1.3529,0.5191 -1.5818,2.967 -1.5818,16.9182 0,8.9712 -0.2731,17.023 -0.607,17.893 -0.4702,1.2255 -2.1223,1.5818 -7.3333,1.5818 -3.6995,0 -7.0264,-0.3 -7.393,-0.6667 z"
         style="fill:#000000;fill-opacity:1"
         inkscape:connector-curvature="0" />
      <path
         id="path5352"
         d="m -137.37557,850.90103 c -7.5556,0 -8.2486,0.4352 -10.4805,6.5859 -17.2397,47.5092 -28.4767,79.8179 -28.0176,80.5606 0.3189,0.5161 3.8054,0.8071 7.7461,0.6465 l 7.1641,-0.293 4.5332,-12.5 4.5332,-12.5 14.0977,-0.2773 14.0976,-0.2754 4.3008,11.7754 c 2.365,6.4772 4.7222,12.3398 5.2402,13.0273 0.5934,0.7875 3.4873,1.25 7.8203,1.25 5.4684,0 6.877001,-0.3086 6.877001,-1.5098 0,-2.3317 -27.609801,-80.0262 -30.076201,-84.6347 -0.8192,-1.5307 -2.1936,-1.8555 -7.8359,-1.8555 z m -0.6289,20.8848 c 1.2633,0.014 8.8878,24.7679 8.1894,26.5879 -0.4467,1.1641 -2.198,1.5237 -7.3671,1.5117 -10.3116,-0.023 -10.1813,0.3194 -5.627,-14.9414 2.1613,-7.2423 4.3232,-13.1582 4.8047,-13.1582 z"
         style="fill:#000000;fill-opacity:1"
         inkscape:connector-curvature="0" />
      <path
         id="path5348"
         d="m -76.346269,850.97723 c -3.3078,0.012 -5.7257,0.1113 -6.457,0.2949 l -2.6602,0.668 0,42.8125 c 0,23.5478 0.3198,43.1342 0.709,43.5234 0.3892,0.3897 3.6517,0.578 7.25,0.418 l 6.541,-0.291 0.2754,-16.25 0.2754,-16.25 2.8769,0 c 2.0676,0 3.3963,0.804 4.7246,2.8593 1.0165,1.5726 6.5727,8.9965 12.3477,16.4981 l 10.5,13.6406 8.25,0 c 5.4071,9e-4 8.25,-0.3836 8.25,-1.1152 0,-0.614 -5.2034,-7.8393 -11.5645,-16.0547 -6.361,-8.2153 -11.4235,-15.3441 -11.25,-15.8418 0.1736,-0.4977 3.2397,-2.3849 6.8145,-4.1953 8.8961,-4.5055 12.3194,-9.9684 12.8516,-20.5078 0.5253,-10.4029 -1.1925,-15.7198 -6.9278,-21.4551 -6.3764,-6.3764 -11.4288,-7.7661 -31.0136,-8.5235 -4.2875,-0.166 -8.4852,-0.2421 -11.793,-0.2304 z m 12.0117,13.9277 c 0.9224,-0.01 1.983,7e-4 3.2031,0 12.5221,0.011 18.6298,4.0178 19.3535,12.6972 0.4797,5.7541 -0.9922,8.914 -5.5976,12.0176 -2.9531,1.9901 -4.6349,2.2793 -13.2344,2.2793 l -9.8535,0 0,-12.8926 c 0,-12.9142 -0.3281,-14.0324 6.1289,-14.1035 z"
         style="fill:#000000;fill-opacity:1"
         inkscape:connector-curvature="0" />
      <path
         id="path5344"
         d="m -6.2234694,895.15103 0.2605,-43.75 5.83439998,-0.3024 c 3.44110002,-0.1784 6.41500002,0.1795 7.25000002,0.8724 1.1154,0.9257 1.4156,4.6484 1.4156,17.5524 0,9.6152 0.3902,16.3776 0.9449,16.3776 0.5197004,0 4.2021004,-3.7125 8.1831004,-8.25 3.9811,-4.5375 11.0517,-12.4125 15.7125,-17.5 l 8.4743,-9.25 7.8426,0 c 5.8684,0 7.8426,0.3356 7.8426,1.3332 0,0.7332 -6.773,8.9457 -15.0512,18.25 -8.2781,9.3042 -15.4596,17.6403 -15.959,18.5245 -0.6979,1.2359 2.8978,6.8577 15.5512,24.3133 9.0524,12.4881 16.459,23.3521 16.459,24.1423 0,1.1267 -1.6907,1.4367 -7.835,1.4367 l -7.8351,0 -11.5261,-16.25 c -6.3393,-8.9375 -12.3153,-17.4875 -13.28,-19 -2.1591,-3.3854 -2.602,-3.3965 -6.4471,-0.1611 l -3.0767004,2.5889 0,14.8293 c 0,8.1561 -0.2731,15.5411 -0.607,16.4111 -0.4724,1.231 -2.1379,1.5818 -7.51050002,1.5818 l -6.90349998,0 z"
         style="fill:#000000;fill-opacity:1"
         inkscape:connector-curvature="0" />
      <path
         id="path5342"
         d="m -370.39317,878.02213 c -2.3005,-0.01 -5.1961,0.031 -8.9082,0.096 l -16.3398,0.2832 -2.4102,2.8066 c -2.1312,2.48 -2.4069,3.757 -2.3789,11 0.033,8.3617 0.7264,10.3097 4.4668,12.5215 1.3752,0.8132 7.2245,1.1033 18.7246,0.9278 15.7479,-0.2403 16.8541,-0.3848 18.9336,-2.4668 1.645,-1.6469 2.3191,-3.7444 2.6426,-8.2168 0.6573,-9.0866 -0.3554,-12.8224 -4.1055,-15.1524 -2.1781,-1.3533 -3.7235,-1.7791 -10.625,-1.7988 z m -7.4004,2.7851 c 8.2541,0.047 16.4706,0.5578 17.2461,1.4922 0.7495,0.9031 1.0595,4.715 0.8731,10.75 l -0.2891,9.3516 -17.5605,0.2715 c -9.6586,0.1498 -17.8711,-0.037 -18.25,-0.416 -1.2273,-1.2272 -0.7794,-18.8652 0.5117,-20.1563 0.9246,-0.9246 9.2147,-1.3403 17.4687,-1.293 z"
         style="fill:#000000;fill-opacity:1"
         inkscape:connector-curvature="0" />
      <path
         id="path5338"
         d="m -386.31697,846.90103 -2.0742,2.6348 c -1.7237,2.1912 -2.0723,4.0503 -2.0723,11.0449 0,7.5964 0.2382,8.6483 2.4551,10.8652 2.4126,2.4126 2.7441,2.4551 19.3652,2.4551 15.5938,0 17.1152,-0.1611 19.5449,-2.0723 2.5136,-1.9772 2.6348,-2.5065 2.6348,-11.5 0,-13.7816 0.5782,-13.4277 -21.9277,-13.4277 l -17.9258,0 z m 18.3535,2 c 8.1735,0 15.4859,0.4569 16.5664,1.0352 1.7024,0.9111 1.9336,2.1654 1.9336,10.4648 0,8.2993 -0.2312,9.5537 -1.9336,10.4648 -2.505,1.3405 -31.0035,1.3022 -33.3164,-0.045 -1.4706,-0.8565 -1.75,-2.5218 -1.75,-10.4336 0,-8.285 0.2334,-9.5402 1.9355,-10.4511 1.0805,-0.5783 8.391,-1.0352 16.5645,-1.0352 z"
         style="fill:#000000;fill-opacity:1"
         inkscape:connector-curvature="0" />
      <path
         id="path5334"
         d="m -367.55327,814.90103 c -16.2741,0 -16.884,0.075 -19.5782,2.3926 -2.4924,2.1439 -2.8205,3.1645 -3.1582,9.8515 -0.4616,9.1421 1.2431,13.2407 6.0899,14.6407 5.3653,1.5498 29.2778,1.3327 33.1875,-0.3008 4.6446,-1.9407 5.5488,-4.1504 5.5488,-13.5664 0,-7.4893 -0.2021,-8.3009 -2.6445,-10.5645 -2.5904,-2.4002 -3.0004,-2.4531 -19.4453,-2.4531 z m 0.2558,3 c 19.5814,0 18.834,-0.4358 18.834,11 0,3.9223 -0.4658,8.0026 -1.0352,9.0664 -0.9602,1.7943 -2.2474,1.9336 -17.7988,1.9336 -11.706,0 -17.1269,-0.3613 -17.9648,-1.1992 -1.6207,-1.6207 -1.6207,-17.9809 0,-19.6016 0.8379,-0.8379 6.2588,-1.1992 17.9648,-1.1992 z"
         style="fill:#000000;fill-opacity:1"
         inkscape:connector-curvature="0" />
      <path
         d="m -299.40967,709.46493 c -0.7361,-0.8869 -1.0049,-8.4586 -0.8232,-23.1905 0.2606,-21.117 0.3391,-21.8736 2.2699,-21.8736 1.9332,0 2.009,0.7561 2.2685,22.6359 0.2252,18.9928 0.036,22.7252 -1.1769,23.1905 -0.795,0.3051 -1.9372,-0.038 -2.5383,-0.7623 z m -38,0 c -0.7361,-0.8869 -1.0049,-8.4586 -0.8232,-23.1905 0.2606,-21.117 0.3391,-21.8736 2.2699,-21.8736 1.9332,0 2.009,0.7561 2.2685,22.6359 0.2252,18.9928 0.036,22.7252 -1.1769,23.1905 -0.795,0.3051 -1.9372,-0.038 -2.5383,-0.7623 z m -37.9405,0.072 c -0.8116,-0.9779 -1.0727,-7.8593 -0.8827,-23.2623 0.2606,-21.117 0.3391,-21.8736 2.2699,-21.8736 1.9316,0 2.0092,0.7562 2.2688,22.112 0.2172,17.8738 0,22.3324 -1.1174,23.2623 -1.0587,0.8787 -1.6583,0.8224 -2.5386,-0.2384 z m 115.0091,1.086 c -1.365,-1.365 -1.5565,-43.4871 -0.2075,-45.6176 0.4861,-0.7677 1.6042,-1.1193 2.4847,-0.7814 1.4034,0.5386 1.6009,3.4417 1.6009,23.5387 0,18.5539 -0.2627,23.0252 -1.3781,23.4533 -0.758,0.2908 -1.883,0.024 -2.5,-0.593 z m 39,3 c -1.3658,-1.3658 -1.558,-45.4848 -0.2075,-47.6176 0.4861,-0.7677 1.6042,-1.1193 2.4847,-0.7814 1.4061,0.5396 1.6009,3.5248 1.6009,24.5387 0,19.4035 -0.2604,24.0244 -1.3781,24.4533 -0.758,0.2908 -1.883,0.024 -2.5,-0.593 z m -183.6244,-212.718 c -1.5544,0.041 -2.498,0.2644 -2.498,0.709 0,0.5497 2.3047,5.0031 5.1211,9.8945 11.248,19.5354 22.889,56.2335 25.3418,79.8926 0.3422,3.3 0.8408,7.4189 1.1074,9.1523 0.3193,2.0758 -0.058,3.6931 -1.1035,4.7383 -0.8729,0.8729 -14.4979,5.8004 -30.2773,10.9512 -33.7643,11.0214 -50.2764,17.3909 -66.6895,25.7226 -17.5207,8.8943 -41.5,23.872 -41.5,25.9219 0,1.0921 2.6297,2.0137 5.748,2.0137 1.4217,0 2.3414,0.2446 2.043,0.543 -0.2983,0.2984 -16.4602,4.5261 -35.916,9.3964 -50.212,12.5697 -83.8732,22.9443 -125.8164,38.7735 -11.9937,4.5263 -14.3042,6.8071 -5.9199,5.8437 2.9491,-0.3389 37.3113,-3.9634 76.3613,-8.0546 95.5408,-10.0097 125.8795,-12.7383 198,-17.8067 l 17,-1.1953 0.5,-18.7891 c 0.4052,-15.2265 0.7844,-18.9674 2,-19.7343 0.825,-0.5204 4.5065,-0.951 8.1797,-0.961 9.9423,-0.023 9.8203,-0.2758 9.8203,20.5957 l 0,17.4668 8.75,-0.289 8.75,-0.2891 0.5,-17.7891 c 0.403,-14.3361 0.7911,-17.9716 2,-18.7343 1.9463,-1.2279 14.0532,-1.2277 16,0 1.2052,0.7601 1.5982,4.343 2,18.2343 l 0.5,17.2891 8.5,0 8.5,0 0.5,-17.2891 c 0.4017,-13.8909 0.7948,-17.474 2,-18.2343 2.0225,-1.2762 13.6523,-1.2335 16.0664,0.059 1.8015,0.9641 1.9336,2.2604 1.9336,18.8925 0,15.0894 0.2374,17.9484 1.5273,18.4434 0.8396,0.3222 5.0784,0.882 9.42,1.2441 l 7.8945,0.6582 0.3281,-19.0547 c 0.1813,-10.4807 0.6927,-19.4165 1.1348,-19.8574 1.3388,-1.3354 14.247,-1.6718 16.5644,-0.4316 2.0703,1.1081 2.1309,1.7356 2.1309,21.9824 0,15.4967 0.3206,21.089 1.25,21.8008 2.1722,1.6637 16.7604,6.3999 17.7773,5.7715 0.5869,-0.3628 0.9727,-10.0891 0.9727,-24.5078 0,-27.418 -0.5273,-25.9766 9.5,-25.9766 10.17,0 9.5,-2.2435 9.5,31.8223 l 0,29.75 5.0293,3.7558 c 4.8489,3.62 6.9707,4.0002 6.9707,1.2481 0,-2.6455 7.0665,-15.1942 10.6914,-18.9864 7.8676,-8.2304 20.0304,-14.1048 36.8086,-17.7754 3.9875,-0.8722 13.2115,-1.2882 27.5,-1.2402 25.457101,0.085 47.782901,2.9765 72.500001,9.3906 16.6674,4.3252 24.3471,5.6414 38.7852,6.6504 5.3809996,0.376 10.0473996,1.1131 10.37109958,1.6368 0.8438,1.3652 -12.09209958,14.1537 -19.03519958,18.8183 -6.7429,4.5301 -14.5247,7.1026 -30.0645,9.9356 -14.2634,2.6003 -14.9579,2.5869 -14.1484,-0.2559 0.3524,-1.2375 0.9117,-3.4875 1.2422,-5 l 0.5996,-2.75 -14.625,0 c -9.4147,0 -14.625,-0.3688 -14.625,-1.0352 0,-0.5693 0.7135,-2.1235 1.5859,-3.455 0.8724,-1.3315 1.3363,-2.8275 1.0293,-3.3243 -0.3069,-0.4967 -6.8845,-1.132 -14.617201,-1.4101 -7.7327,-0.2781 -14.3602,-0.8036 -14.7265,-1.1699 -0.3664,-0.3663 0.098,-1.9604 1.0312,-3.5411 0.9336,-1.5803 1.6973,-3.2047 1.6973,-3.6093 0,-0.4045 -6.1875,-0.4889 -13.75,-0.1875 -10.0178,0.3993 -15.2429,1.0809 -19.25,2.5117 -7.1227,2.5432 -13.1842,6.1647 -12.7109,7.5937 0.2262,0.6832 5.5467,1.5456 13.5234,2.1914 7.2329,0.5858 13.4817,1.3957 13.8848,1.7989 0.4032,0.4032 0.1832,1.4993 -0.4883,2.4355 -2.0853,2.9067 -2.508,4.3025 -1.582,5.2285 0.4908,0.4908 5.388,1.594 10.8828,2.4532 17.3847,2.7185 17.5477,2.8205 13.5605,8.4199 -1.0612,1.4903 -1.6237,3.187 -1.25,3.7695 0.3737,0.5826 5.4047,2.1483 11.1797,3.4805 11.517401,2.6568 10.992201,2.0889 9.445301,10.1816 l 0,0 -0.7344,3.832 4.8946,-0.6875 c 39.5547,-5.5585 70.2052,-18.918 99.0039,-43.1543 14.4748,-12.1817 36.8729,-31.7016 37.5996,-32.7676 1.0108,-1.483 0.5418,-1.7348 -12.209,-6.5273 -11.0721,-4.1616 -19.3855,-7.79 -62.1445,-27.1231 -33.3586,-15.0827 -60.4218,-25.6513 -83.855501,-32.75 -50.7295,-15.3674 -95.3013,-22.9931 -150.0918,-25.6777 -7.4762,-0.3664 -14.0364,-0.9616 -14.5762,-1.3223 -0.5398,-0.3608 -4.3034,-4.4812 -8.3652,-9.1562 -37.9032,-43.6261 -68.7372,-67.2884 -100.9668,-77.4863 -6.677,-2.113 -16.8385,-3.6329 -21.502,-3.5098 z m 42.9043,32.3242 c 0.7039,-0.083 4.2775,1.5032 8.2989,3.7031 22.1743,12.1299 40.0912,30.9173 59.7011,62.5997 6.3216,10.2134 6.5846,10.3609 18.4727,10.3789 15.502,0.024 47.6279,3.6481 67.125,7.5722 15.6207,3.1439 35,8.3803 35,9.4571 0,0.4465 -13.3875,0.5571 -29.75,0.2461 -88.9893,-1.6914 -171.8195,9.9269 -230.5859,32.3437 -10.3269,3.9392 -12.222,4.1654 -8.3438,0.9922 14.5312,-11.89 50.7075,-26.7474 91.6797,-37.6504 27.5126,-7.3212 26.4493,-6.962 24.8945,-8.4102 -0.7669,-0.7143 -4.7695,-2.5616 -8.8945,-4.1054 -4.125,-1.5437 -8.0509,-3.2937 -8.7246,-3.8907 -0.7108,-0.6295 -1.6569,-6.1172 -2.2539,-13.0742 -1.7219,-20.0631 -5.0817,-33.1446 -12.7617,-49.6914 -2.5092,-5.4061 -4.29,-10.1005 -3.959,-10.4316 0.021,-0.021 0.055,-0.034 0.1015,-0.039 z m 199.9844,111.0371 c 0.7515,0.088 5.1637,2.6535 10.25,5.9785 5.4254,3.5467 15.8258,9.2621 23.1133,12.7012 7.2875,3.4392 13.25,6.5818 13.25,6.9824 0,1.1965 -2.2821,2.6443 -6,3.8067 -6.1304,1.9166 -18.1503,2.3703 -21.5645,0.8144 -3.8888,-1.7721 -11.5498,-10.6945 -14.7421,-17.1699 -2.8898,-5.8618 -5.093,-12.4109 -4.4063,-13.0976 0.017,-0.017 0.05,-0.021 0.1,-0.016 z m -46.1456,155.5727 c -17.2098,-1.9475 -35.115,-6.544 -75.7406,-19.4439 -55.7242,-17.694 -75.0397,-21.7129 -104.5,-21.743 -23.5056,-0.024 -41.4159,3.4069 -61.7715,11.8331 -4.6555,1.9271 -8.9522,3.3413 -9.5483,3.1426 -1.3101,-0.4367 7.2636,-7.3758 16.6963,-13.5131 16.5355,-10.7587 33.8333,-17.3821 51.6235,-19.767 13.4617,-1.8046 21.5414,-1.7979 37.0061,0.031 16.164,1.9113 30.5886,5.5044 62.5263,15.5749 48.9458,15.4335 69.4269,20.4873 93.2953,23.0214 13.6904,1.4535 45.2899,0.6527 56.1723,-1.4236 4.125,-0.787 9.2453,-1.7662 11.3785,-2.1759 5.6478,-1.0847 4.44,1.0144 -3.9451,6.8568 -21.3935,14.9059 -45.6016,20.7294 -73.1928,17.607 z m -255.9911,-78.9008 c -17.746,0.8721 -88.6991,7.0116 -89.4258,7.7383 -1.1598,1.1598 -6.1923,18.6038 -7.9883,27.6875 -0.9809,4.9612 -2.1491,7.1187 -6.9511,12.8379 -10.9019,12.984 -20.1809,35.2362 -25.3086,60.6992 -2.8756,14.2797 -4.7821,32.0877 -3.5723,33.3613 0.8225,0.8658 15.9202,-7.5615 23.6426,-13.1972 3.6907,-2.6933 4.2267,-3.6121 4.8691,-8.3457 0.8176,-6.0248 4.2024,-15.8184 5.4668,-15.8184 0.4608,0 1.3684,3.2625 2.0176,7.25 4.9894,30.647 16.6357,55.5203 37.8105,80.75 7.7336,9.2145 21.6863,23.2646 31.4825,31.7012 l 4.7929,4.1269 -1.2441,15.336 c -1.6856,20.7847 -1.7066,72.39977 -0.035,85.83587 3.3913,27.2621 11.8393,56.6417 19.7676,68.75 l 0,0 c 0.8103,1.2375 1.8647,2.25 2.3418,2.25 0.4771,0 1.8669,-3.7125 3.0898,-8.25 11.4445,-42.4634 33.2327,-93.1461 44.6699,-103.9121 2.1286,-2.0037 5.1736,-3.162 12.3262,-4.6895 23.4052,-4.9985 31.4886,-5.64697 69.5,-5.58397 37.9155,0.063 49.9596,0.98207 85.7813,6.55857 7.5801,1.18 14.105,1.8203 14.5,1.4219 1.6712,-1.6858 -23.4292,-18.66877 -40.2813,-27.25387 -36.9286,-18.8128 -87.9681,-33.998 -133.5,-39.7187 -21.5704,-2.7101 -18.9039,-1.5068 -27.9883,-12.6172 -21.2536,-25.9936 -34.2788,-51.725 -39.4629,-77.9551 -0.9239,-4.675 -1.9415,-9.4 -2.2617,-10.5 -1.3732,-4.7178 -2.1498,2.6332 -2.2148,21 -0.096,27.0984 1.9691,41.6211 8.8086,61.9746 1.657,4.9308 2.7648,9.2047 2.4628,9.4961 -1.4721,1.4204 -24.7697,-25.9831 -34.832,-40.9707 -7.0978,-10.5721 -17.5322,-31.8683 -20.8594,-42.5742 -11.9271,-38.3784 -4.9862,-73.5066 19.5782,-99.0879 9.0316,-9.4054 24.4709,-19.2614 38.248,-24.416 3.0367,-1.1362 5.5215,-2.4837 5.5215,-2.9942 0,-0.5104 -0.3375,-0.9106 -0.75,-0.8906 z m 27.8398,247.8066 c 11.0477,0.08 27.3427,0.7125 37.5645,1.6387 30.2129,2.7379 61.1233,7.167 59.6797,8.5508 -0.4581,0.4391 -12.534,1.2987 -26.834,1.9102 -24.2881,1.0387 -60.1049,4.1331 -63.5,5.4863 -0.825,0.3289 -5.55,6.9068 -10.5,14.61717 -12.0467,18.7649 -11.9987,18.7023 -12.834,16.5254 -2.0155,-5.2522 1.8595,-45.42977 4.6504,-48.22067 0.4059,-0.4059 5.1448,-0.556 11.7734,-0.5079 z"
         style="fill:#000000;fill-opacity:1"
         id="path5311"
         inkscape:connector-curvature="0" />
      <g
         transform="matrix(0.93156805,0,0,1.0469581,1102.1502,2208.0337)"
         style="font-style:normal;font-variant:normal;font-weight:normal;font-stretch:normal;font-size:40px;line-height:125%;font-family:'Century Gothic';-inkscape-font-specification:'Century Gothic';letter-spacing:0px;word-spacing:0px;fill:#000000;fill-opacity:1;stroke:none;stroke-width:1px;stroke-linecap:butt;stroke-linejoin:miter;stroke-opacity:1"
         id="g5548">
        <path
           inkscape:connector-curvature="0"
           d="m -1537.6045,-1312.8858 1.8311,-1.0986 q 1.9336,3.5596 4.4677,3.5596 1.084,0 2.0362,-0.4981 0.9521,-0.5127 1.4502,-1.3623 0.498,-0.8496 0.498,-1.8017 0,-1.084 -0.7324,-2.1241 -1.0108,-1.4355 -3.6914,-3.457 -2.6953,-2.0361 -3.3545,-2.9443 -1.1426,-1.5235 -1.1426,-3.2959 0,-1.4063 0.6738,-2.5635 0.6739,-1.1572 1.8897,-1.8164 1.2305,-0.6738 2.666,-0.6738 1.5234,0 2.8418,0.7617 1.333,0.7471 2.8125,2.7685 l -1.7578,1.3331 q -1.2158,-1.6114 -2.0801,-2.1241 -0.8496,-0.5127 -1.8603,-0.5127 -1.3038,0 -2.1387,0.7911 -0.8203,0.791 -0.8203,1.9482 0,0.7031 0.2929,1.3623 0.293,0.6592 1.0694,1.4355 0.4248,0.4102 2.7832,2.1534 2.7978,2.0654 3.8379,3.6767 1.04,1.6114 1.04,3.2373 0,2.3438 -1.7871,4.0723 -1.7725,1.7285 -4.3213,1.7285 -1.9629,0 -3.5596,-1.04 -1.5966,-1.0547 -2.9443,-3.5157 z"
           style="font-style:normal;font-variant:normal;font-weight:normal;font-stretch:normal;font-size:30px;font-family:'Century Gothic';-inkscape-font-specification:'Century Gothic'"
           id="path5551" />
        <path
           inkscape:connector-curvature="0"
           d="m -1518.9863,-1330.7276 2.0654,0 0,5.918 3.252,0 0,1.7578 -3.252,0 0,14.1797 -2.0654,0 0,-14.1797 -2.7979,0 0,-1.7578 2.7979,0 0,-5.918 z"
           style="font-style:normal;font-variant:normal;font-weight:normal;font-stretch:normal;font-size:30px;font-family:'Century Gothic';-inkscape-font-specification:'Century Gothic'"
           id="path5553" />
        <path
           inkscape:connector-curvature="0"
           d="m -1494.8164,-1330.4199 2.168,0 0,14.5459 q 0,3.3545 -0.5274,4.6728 -0.5127,1.3037 -1.7285,2.0947 -1.2158,0.7764 -2.9443,0.7764 -1.3037,0 -2.5782,-0.5127 -1.2597,-0.498 -2.7978,-1.7724 l 1.1426,-1.7139 q 1.6845,1.1865 2.7978,1.6699 0.7324,0.3223 1.4356,0.3223 0.9228,0 1.6699,-0.5567 0.7617,-0.5566 1.0547,-1.4795 0.3076,-0.9228 0.3076,-3.5742 l 0,-14.4726 z"
           style="font-style:normal;font-variant:normal;font-weight:normal;font-stretch:normal;font-size:30px;font-family:'Century Gothic';-inkscape-font-specification:'Century Gothic'"
           id="path5555" />
        <path
           inkscape:connector-curvature="0"
           d="m -1480.1826,-1325.2197 q 3.6767,0 6.0937,2.666 2.1973,2.4316 2.1973,5.7568 0,3.3399 -2.3291,5.8447 -2.3145,2.4903 -5.9619,2.4903 -3.6621,0 -5.9912,-2.4903 -2.3145,-2.5048 -2.3145,-5.8447 0,-3.3105 2.1973,-5.7422 2.417,-2.6806 6.1084,-2.6806 z m 0,2.0068 q -2.5488,0 -4.3799,1.8896 -1.8311,1.8897 -1.8311,4.5704 0,1.7285 0.835,3.2226 0.835,1.4942 2.2559,2.3145 1.4209,0.8056 3.1201,0.8056 1.6992,0 3.1201,-0.8056 1.4209,-0.8203 2.2559,-2.3145 0.8349,-1.4941 0.8349,-3.2226 0,-2.6807 -1.8457,-4.5704 -1.831,-1.8896 -4.3652,-1.8896 z"
           style="font-style:normal;font-variant:normal;font-weight:normal;font-stretch:normal;font-size:30px;font-family:'Century Gothic';-inkscape-font-specification:'Century Gothic'"
           id="path5557" />
        <path
           inkscape:connector-curvature="0"
           d="m -1468.0977,-1330.9619 2.0508,0 0,9.0088 q 1.2451,-1.6407 2.7393,-2.4463 1.4941,-0.8203 3.2373,-0.8203 1.7871,0 3.164,0.9082 1.3917,0.9082 2.0508,2.4463 0.6592,1.5234 0.6592,4.79 l 0,8.2031 -2.0508,0 0,-7.6025 q 0,-2.7539 -0.2197,-3.6768 -0.3809,-1.582 -1.3916,-2.373 -0.9961,-0.8057 -2.6221,-0.8057 -1.8603,0 -3.3398,1.2305 -1.4649,1.2304 -1.9336,3.0469 -0.293,1.1718 -0.293,4.3359 l 0,5.8447 -2.0508,0 0,-22.0898 z"
           style="font-style:normal;font-variant:normal;font-weight:normal;font-stretch:normal;font-size:30px;font-family:'Century Gothic';-inkscape-font-specification:'Century Gothic'"
           id="path5559" />
        <path
           inkscape:connector-curvature="0"
           d="m -1449.8164,-1324.8096 2.0508,0 0,2.8565 q 1.2304,-1.6407 2.7246,-2.4463 1.4941,-0.8203 3.2519,-0.8203 1.7871,0 3.1641,0.9082 1.3916,0.9082 2.0508,2.4463 0.6592,1.538 0.6592,4.79 l 0,8.2031 -2.0362,0 0,-7.6025 q 0,-2.7539 -0.2343,-3.6768 -0.3663,-1.582 -1.377,-2.373 -1.0107,-0.8057 -2.6367,-0.8057 -1.8604,0 -3.3399,1.2305 -1.4648,1.2304 -1.9336,3.0469 -0.2929,1.1865 -0.2929,4.3359 l 0,5.8447 -2.0508,0 0,-15.9375 z"
           style="font-style:normal;font-variant:normal;font-weight:normal;font-stretch:normal;font-size:30px;font-family:'Century Gothic';-inkscape-font-specification:'Century Gothic'"
           id="path5561" />
        <path
           inkscape:connector-curvature="0"
           d="m -1430.0996,-1324.1797 -1.5088,0 -0.3223,-6.7822 2.168,0 -0.3369,6.7822 z"
           style="font-style:normal;font-variant:normal;font-weight:normal;font-stretch:normal;font-size:30px;font-family:'Century Gothic';-inkscape-font-specification:'Century Gothic'"
           id="path5563" />
        <path
           inkscape:connector-curvature="0"
           d="m -1417.6045,-1323.0664 -1.3184,1.3623 q -1.6406,-1.5967 -3.208,-1.5967 -0.9961,0 -1.7138,0.6592 -0.7032,0.6592 -0.7032,1.5381 0,0.7763 0.586,1.4795 0.5859,0.7177 2.4609,1.6845 2.2852,1.1866 3.1055,2.2852 0.8057,1.1133 0.8057,2.5049 0,1.9629 -1.377,3.3252 -1.377,1.3623 -3.4424,1.3623 -1.3769,0 -2.6367,-0.6006 -1.2451,-0.6006 -2.0654,-1.6553 l 1.289,-1.4648 q 1.5674,1.7724 3.3252,1.7724 1.2305,0 2.0948,-0.791 0.8642,-0.791 0.8642,-1.8603 0,-0.8789 -0.5713,-1.5674 -0.5713,-0.6738 -2.5781,-1.6992 -2.1533,-1.1133 -2.9297,-2.1973 -0.7764,-1.084 -0.7764,-2.4756 0,-1.8164 1.2305,-3.0176 1.2451,-1.2011 3.1348,-1.2011 2.1972,0 4.4238,2.1533 z"
           style="font-style:normal;font-variant:normal;font-weight:normal;font-stretch:normal;font-size:30px;font-family:'Century Gothic';-inkscape-font-specification:'Century Gothic'"
           id="path5565" />
        <path
           inkscape:connector-curvature="0"
           d="m -1405.2412,-1330.4199 4.248,0 q 2.5635,0 3.9405,0.6152 1.3769,0.6006 2.1679,1.8604 0.8057,1.2597 0.8057,2.7978 0,1.4355 -0.7031,2.6221 -0.7032,1.1718 -2.0655,1.9043 1.6846,0.5713 2.5928,1.3476 0.9082,0.7617 1.4063,1.8604 0.5127,1.084 0.5127,2.3584 0,2.5927 -1.9043,4.3945 -1.8897,1.7871 -5.083,1.7871 l -5.918,0 0,-21.5478 z m 2.1094,2.1093 0,6.8995 1.2304,0 q 2.2412,0 3.2959,-0.4102 1.0547,-0.4248 1.67,-1.3184 0.6152,-0.9082 0.6152,-2.0068 0,-1.4795 -1.0401,-2.3145 -1.0253,-0.8496 -3.2812,-0.8496 l -2.4902,0 z m 0,9.0674 0,8.2617 2.666,0 q 2.3584,0 3.457,-0.4541 1.0986,-0.4687 1.7578,-1.4502 0.6739,-0.9814 0.6739,-2.124 0,-1.4355 -0.9375,-2.5049 -0.9375,-1.0693 -2.5782,-1.4648 -1.0986,-0.2637 -3.8232,-0.2637 l -1.2158,0 z"
           style="font-style:normal;font-variant:normal;font-weight:normal;font-stretch:normal;font-size:30px;font-family:'Century Gothic';-inkscape-font-specification:'Century Gothic'"
           id="path5567" />
        <path
           inkscape:connector-curvature="0"
           d="m -1372.5313,-1324.8096 0,15.9375 -2.0214,0 0,-2.7392 q -1.2891,1.5673 -2.9004,2.3584 -1.5967,0.791 -3.501,0.791 -3.3838,0 -5.7861,-2.4463 -2.3877,-2.461 -2.3877,-5.9766 0,-3.4424 2.417,-5.8887 2.417,-2.4462 5.8154,-2.4462 1.9629,0 3.5449,0.8349 1.5967,0.835 2.7979,2.5049 l 0,-2.9297 2.0214,0 z m -8.2031,1.5674 q -1.7138,0 -3.164,0.8496 -1.4502,0.835 -2.3145,2.3584 -0.8496,1.5234 -0.8496,3.2227 0,1.6845 0.8643,3.2226 0.8642,1.5381 2.3144,2.4024 1.4649,0.8496 3.1348,0.8496 1.6845,0 3.1933,-0.8496 1.5088,-0.8496 2.3145,-2.2998 0.8203,-1.4502 0.8203,-3.2666 0,-2.7686 -1.8311,-4.6289 -1.8164,-1.8604 -4.4824,-1.8604 z"
           style="font-style:normal;font-variant:normal;font-weight:normal;font-stretch:normal;font-size:30px;font-family:'Century Gothic';-inkscape-font-specification:'Century Gothic'"
           id="path5569" />
        <path
           inkscape:connector-curvature="0"
           d="m -1352.4336,-1321.499 -1.626,1.0107 q -2.1093,-2.7978 -5.7568,-2.7978 -2.915,0 -4.8486,1.875 -1.919,1.875 -1.919,4.5556 0,1.7432 0.8789,3.2813 0.8936,1.5381 2.4317,2.3877 1.5527,0.8496 3.4716,0.8496 3.5157,0 5.7422,-2.7979 l 1.626,1.0694 q -1.1426,1.7138 -3.0762,2.666 -1.9189,0.9375 -4.3798,0.9375 -3.7793,0 -6.2696,-2.4024 -2.4902,-2.4023 -2.4902,-5.8447 0,-2.3145 1.1572,-4.292 1.1719,-1.9922 3.208,-3.1055 2.0362,-1.1132 4.5557,-1.1132 1.582,0 3.0469,0.4834 1.4795,0.4834 2.5048,1.2597 1.0254,0.7764 1.7432,1.9776 z"
           style="font-style:normal;font-variant:normal;font-weight:normal;font-stretch:normal;font-size:30px;font-family:'Century Gothic';-inkscape-font-specification:'Century Gothic'"
           id="path5571" />
        <path
           inkscape:connector-curvature="0"
           d="m -1348.5225,-1330.9619 2.0655,0 0,12.5683 7.3681,-6.416 3.0176,0 -8.7451,7.6026 9.2578,8.3349 -2.9004,0 -7.998,-7.1631 0,7.1631 -2.0655,0 0,-22.0898 z"
           style="font-style:normal;font-variant:normal;font-weight:normal;font-stretch:normal;font-size:30px;font-family:'Century Gothic';-inkscape-font-specification:'Century Gothic'"
           id="path5573" />
        <path
           inkscape:connector-curvature="0"
           d="m -1324.8066,-1330.4199 4.292,0 q 3.6914,0 4.9804,0.3222 1.8457,0.4541 3.0176,1.875 1.1719,1.4063 1.1719,3.545 0,2.1533 -1.1426,3.5595 -1.1426,1.3916 -3.1494,1.875 -1.4649,0.3516 -5.4785,0.3516 l -1.5381,0 0,10.0195 -2.1533,0 0,-21.5478 z m 2.1533,2.0947 0,7.3242 3.6474,0.044 q 2.212,0 3.2373,-0.3956 1.0254,-0.4101 1.6114,-1.3037 0.5859,-0.9082 0.5859,-2.0214 0,-1.084 -0.5859,-1.9776 -0.586,-0.9082 -1.5528,-1.289 -0.9521,-0.3809 -3.1347,-0.3809 l -3.8086,0 z"
           style="font-style:normal;font-variant:normal;font-weight:normal;font-stretch:normal;font-size:30px;font-family:'Century Gothic';-inkscape-font-specification:'Century Gothic'"
           id="path5575" />
        <path
           inkscape:connector-curvature="0"
           d="m -1291.4961,-1324.8096 0,15.9375 -2.0215,0 0,-2.7392 q -1.289,1.5673 -2.9004,2.3584 -1.5966,0.791 -3.5009,0.791 -3.3838,0 -5.7862,-2.4463 -2.3877,-2.461 -2.3877,-5.9766 0,-3.4424 2.417,-5.8887 2.417,-2.4462 5.8154,-2.4462 1.9629,0 3.545,0.8349 1.5966,0.835 2.7978,2.5049 l 0,-2.9297 2.0215,0 z m -8.2031,1.5674 q -1.7139,0 -3.1641,0.8496 -1.4502,0.835 -2.3144,2.3584 -0.8496,1.5234 -0.8496,3.2227 0,1.6845 0.8642,3.2226 0.8643,1.5381 2.3145,2.4024 1.4648,0.8496 3.1347,0.8496 1.6846,0 3.1934,-0.8496 1.5088,-0.8496 2.3144,-2.2998 0.8204,-1.4502 0.8204,-3.2666 0,-2.7686 -1.8311,-4.6289 -1.8164,-1.8604 -4.4824,-1.8604 z"
           style="font-style:normal;font-variant:normal;font-weight:normal;font-stretch:normal;font-size:30px;font-family:'Century Gothic';-inkscape-font-specification:'Century Gothic'"
           id="path5577" />
        <path
           inkscape:connector-curvature="0"
           d="m -1286.1494,-1331.3721 q 0.7031,0 1.2012,0.4981 0.498,0.498 0.498,1.2011 0,0.6885 -0.498,1.1866 -0.4981,0.498 -1.2012,0.498 -0.6885,0 -1.1865,-0.498 -0.4981,-0.4981 -0.4981,-1.1866 0,-0.7031 0.4981,-1.2011 0.498,-0.4981 1.1865,-0.4981 z m -1.0254,6.5625 2.0654,0 0,15.9375 -2.0654,0 0,-15.9375 z"
           style="font-style:normal;font-variant:normal;font-weight:normal;font-stretch:normal;font-size:30px;font-family:'Century Gothic';-inkscape-font-specification:'Century Gothic'"
           id="path5579" />
        <path
           inkscape:connector-curvature="0"
           d="m -1280.7734,-1324.8096 2.0507,0 0,2.8565 q 1.2305,-1.6407 2.7247,-2.4463 1.4941,-0.8203 3.2519,-0.8203 1.7871,0 3.1641,0.9082 1.3916,0.9082 2.0507,2.4463 0.6592,1.538 0.6592,4.79 l 0,8.2031 -2.0361,0 0,-7.6025 q 0,-2.7539 -0.2344,-3.6768 -0.3662,-1.582 -1.3769,-2.373 -1.0108,-0.8057 -2.6368,-0.8057 -1.8603,0 -3.3398,1.2305 -1.4648,1.2304 -1.9336,3.0469 -0.293,1.1865 -0.293,4.3359 l 0,5.8447 -2.0507,0 0,-15.9375 z"
           style="font-style:normal;font-variant:normal;font-weight:normal;font-stretch:normal;font-size:30px;font-family:'Century Gothic';-inkscape-font-specification:'Century Gothic'"
           id="path5581" />
        <path
           inkscape:connector-curvature="0"
           d="m -1233.7666,-1326.4209 -1.6992,1.3037 q -1.4063,-1.8311 -3.3838,-2.7686 -1.9629,-0.9521 -4.3213,-0.9521 -2.5781,0 -4.7754,1.2451 -2.1973,1.2305 -3.4131,3.3252 -1.2011,2.0801 -1.2011,4.6875 0,3.9404 2.6953,6.5772 2.7099,2.6367 6.8261,2.6367 4.5264,0 7.5733,-3.5449 l 1.6992,1.289 q -1.6113,2.0508 -4.0283,3.1787 -2.4024,1.1133 -5.376,1.1133 -5.6543,0 -8.9209,-3.7646 -2.7393,-3.1788 -2.7393,-7.6758 0,-4.7315 3.3106,-7.9541 3.3252,-3.2373 8.3203,-3.2373 3.0176,0 5.4492,1.2011 2.4317,1.1866 3.9844,3.3399 z"
           style="font-style:normal;font-variant:normal;font-weight:normal;font-stretch:normal;font-size:30px;font-family:'Century Gothic';-inkscape-font-specification:'Century Gothic'"
           id="path5583" />
        <path
           inkscape:connector-curvature="0"
           d="m -1230.1045,-1330.9619 2.0508,0 0,22.0898 -2.0508,0 0,-22.0898 z"
           style="font-style:normal;font-variant:normal;font-weight:normal;font-stretch:normal;font-size:30px;font-family:'Century Gothic';-inkscape-font-specification:'Century Gothic'"
           id="path5585" />
        <path
           inkscape:connector-curvature="0"
           d="m -1223.0439,-1331.3721 q 0.7031,0 1.2011,0.4981 0.4981,0.498 0.4981,1.2011 0,0.6885 -0.4981,1.1866 -0.498,0.498 -1.2011,0.498 -0.6885,0 -1.1866,-0.498 -0.498,-0.4981 -0.498,-1.1866 0,-0.7031 0.498,-1.2011 0.4981,-0.4981 1.1866,-0.4981 z m -1.0254,6.5625 2.0654,0 0,15.9375 -2.0654,0 0,-15.9375 z"
           style="font-style:normal;font-variant:normal;font-weight:normal;font-stretch:normal;font-size:30px;font-family:'Century Gothic';-inkscape-font-specification:'Century Gothic'"
           id="path5587" />
        <path
           inkscape:connector-curvature="0"
           d="m -1217.668,-1324.8096 2.0508,0 0,2.8565 q 1.2305,-1.6407 2.7246,-2.4463 1.4942,-0.8203 3.252,-0.8203 1.7871,0 3.164,0.9082 1.3916,0.9082 2.0508,2.4463 0.6592,1.538 0.6592,4.79 l 0,8.2031 -2.0361,0 0,-7.6025 q 0,-2.7539 -0.2344,-3.6768 -0.3662,-1.582 -1.377,-2.373 -1.0107,-0.8057 -2.6367,-0.8057 -1.8603,0 -3.3398,1.2305 -1.4649,1.2304 -1.9336,3.0469 -0.293,1.1865 -0.293,4.3359 l 0,5.8447 -2.0508,0 0,-15.9375 z"
           style="font-style:normal;font-variant:normal;font-weight:normal;font-stretch:normal;font-size:30px;font-family:'Century Gothic';-inkscape-font-specification:'Century Gothic'"
           id="path5589" />
        <path
           inkscape:connector-curvature="0"
           d="m -1198.6689,-1331.3721 q 0.7031,0 1.2011,0.4981 0.4981,0.498 0.4981,1.2011 0,0.6885 -0.4981,1.1866 -0.498,0.498 -1.2011,0.498 -0.6885,0 -1.1866,-0.498 -0.498,-0.4981 -0.498,-1.1866 0,-0.7031 0.498,-1.2011 0.4981,-0.4981 1.1866,-0.4981 z m -1.0254,6.5625 2.0654,0 0,15.9375 -2.0654,0 0,-15.9375 z"
           style="font-style:normal;font-variant:normal;font-weight:normal;font-stretch:normal;font-size:30px;font-family:'Century Gothic';-inkscape-font-specification:'Century Gothic'"
           id="path5591" />
        <path
           inkscape:connector-curvature="0"
           d="m -1177.8242,-1321.499 -1.626,1.0107 q -2.1094,-2.7978 -5.7568,-2.7978 -2.9151,0 -4.8487,1.875 -1.9189,1.875 -1.9189,4.5556 0,1.7432 0.8789,3.2813 0.8936,1.5381 2.4316,2.3877 1.5528,0.8496 3.4717,0.8496 3.5156,0 5.7422,-2.7979 l 1.626,1.0694 q -1.1426,1.7138 -3.0762,2.666 -1.9189,0.9375 -4.3799,0.9375 -3.7793,0 -6.2695,-2.4024 -2.4902,-2.4023 -2.4902,-5.8447 0,-2.3145 1.1572,-4.292 1.1719,-1.9922 3.208,-3.1055 2.0361,-1.1132 4.5557,-1.1132 1.582,0 3.0468,0.4834 1.4795,0.4834 2.5049,1.2597 1.0254,0.7764 1.7432,1.9776 z"
           style="font-style:normal;font-variant:normal;font-weight:normal;font-stretch:normal;font-size:30px;font-family:'Century Gothic';-inkscape-font-specification:'Century Gothic'"
           id="path5593" />
      </g>
    </g>
  </g>
</svg>
