<?xml version="1.0" encoding="UTF-8" standalone="no"?>
<!-- Created with Inkscape (http://www.inkscape.org/) -->

<svg
   xmlns:dc="http://purl.org/dc/elements/1.1/"
   xmlns:cc="http://creativecommons.org/ns#"
   xmlns:rdf="http://www.w3.org/1999/02/22-rdf-syntax-ns#"
   xmlns:svg="http://www.w3.org/2000/svg"
   xmlns="http://www.w3.org/2000/svg"
   xmlns:sodipodi="http://sodipodi.sourceforge.net/DTD/sodipodi-0.dtd"
   xmlns:inkscape="http://www.inkscape.org/namespaces/inkscape"
   width="200"
   height="150"
   viewBox="0 0 200 150"
   id="svg2"
   version="1.1"
   inkscape:version="0.91 r13725"
   sodipodi:docname="Sharks.svg">
  <defs
     id="defs4">
    <pattern
       y="0"
       x="0"
       height="6"
       width="6"
       patternUnits="userSpaceOnUse"
       id="EMFhbasepattern" />
    <pattern
       y="0"
       x="0"
       height="6"
       width="6"
       patternUnits="userSpaceOnUse"
       id="EMFhbasepattern-5" />
    <pattern
       y="0"
       x="0"
       height="6"
       width="6"
       patternUnits="userSpaceOnUse"
       id="EMFhbasepattern-52" />
    <pattern
       y="0"
       x="0"
       height="6"
       width="6"
       patternUnits="userSpaceOnUse"
       id="EMFhbasepattern-2" />
    <pattern
       y="0"
       x="0"
       height="6"
       width="6"
       patternUnits="userSpaceOnUse"
       id="EMFhbasepattern-1" />
    <pattern
       y="0"
       x="0"
       height="6"
       width="6"
       patternUnits="userSpaceOnUse"
       id="EMFhbasepattern-8" />
    <pattern
       y="0"
       x="0"
       height="6"
       width="6"
       patternUnits="userSpaceOnUse"
       id="EMFhbasepattern-4" />
    <inkscape:path-effect
       effect="spiro"
       id="path-effect5209"
       is_visible="true" />
    <inkscape:path-effect
       effect="spiro"
       id="path-effect5205"
       is_visible="true" />
    <inkscape:path-effect
       effect="spiro"
       id="path-effect4424"
       is_visible="true" />
    <inkscape:path-effect
       effect="spiro"
       id="path-effect4427"
       is_visible="true" />
    <inkscape:path-effect
       effect="spiro"
       id="path-effect4421"
       is_visible="true" />
    <inkscape:path-effect
       effect="spiro"
       id="path-effect4418"
       is_visible="true" />
    <inkscape:path-effect
       effect="spiro"
       id="path-effect4415"
       is_visible="true" />
    <inkscape:path-effect
       effect="spiro"
       id="path-effect4412"
       is_visible="true" />
    <inkscape:path-effect
       effect="spiro"
       id="path-effect4409"
       is_visible="true" />
    <inkscape:path-effect
       effect="spiro"
       id="path-effect4406"
       is_visible="true" />
    <inkscape:path-effect
       effect="spiro"
       id="path-effect4403"
       is_visible="true" />
    <inkscape:path-effect
       effect="spiro"
       id="path-effect4400"
       is_visible="true" />
    <inkscape:path-effect
       effect="spiro"
       id="path-effect4397"
       is_visible="true" />
    <inkscape:path-effect
       bendpath3-nodetypes="cc"
       bendpath1-nodetypes="cc"
       bendpath4="m 3891.1499,385.42868 0,249.32803"
       bendpath3="m 3891.1499,634.75671 c 295.7883,-59.23432 591.5766,-30.4308 887.3649,0"
       bendpath2="m 4778.5148,385.42868 0,249.32803"
       bendpath1="m 3891.1499,385.42868 c 288.2315,50.03249 570.3325,87.45506 887.3649,0"
       xx="true"
       yy="true"
       is_visible="true"
       id="path-effect4351"
       effect="envelope" />
  </defs>
  <sodipodi:namedview
     id="base"
     pagecolor="#ffffff"
     bordercolor="#666666"
     borderopacity="1.0"
     inkscape:pageopacity="0.0"
     inkscape:pageshadow="2"
     inkscape:zoom="0.98994949"
     inkscape:cx="-126.1553"
     inkscape:cy="109.7295"
     inkscape:document-units="px"
     inkscape:current-layer="layer1"
     showgrid="false"
     fit-margin-top="0"
     fit-margin-left="0"
     fit-margin-right="0"
     fit-margin-bottom="0"
     units="px"
     inkscape:window-width="1440"
     inkscape:window-height="837"
     inkscape:window-x="1432"
     inkscape:window-y="-8"
     inkscape:window-maximized="1" />
  <metadata
     id="metadata7">
    <rdf:RDF>
      <cc:Work
         rdf:about="">
        <dc:format>image/svg+xml</dc:format>
        <dc:type
           rdf:resource="http://purl.org/dc/dcmitype/StillImage" />
        <dc:title></dc:title>
      </cc:Work>
    </rdf:RDF>
  </metadata>
  <g
     inkscape:label="Layer 1"
     inkscape:groupmode="layer"
     id="layer1"
     transform="translate(536.30539,-546.064)">
    <g
       id="g4260"
       transform="matrix(0.33928095,0,0,0.33928095,-324.94864,349.94474)">
      <path
         d="m 2991.5508,451.40625 c -1.039,0.0398 -2.0939,0.16841 -3.2539,0.4043 a 14.561611,14.561611 0 0 0 -0,0 c -3.2123,0.65367 -6.8983,1.89248 -10.0761,4.84179 -3.1756,2.94718 -4.996,5.83691 -1.9161,2.28516 -1.0416,1.20187 -1.8793,2.4084 -2.3886,3.17578 -0.5575,0.83976 -1.0527,1.76697 -1.5664,2.63672 -0.4394,-0.61619 -0.6326,-1.05557 -1.1817,-1.68945 a 14.561611,14.561611 0 0 0 -0,-0.002 c 0.2936,0.33892 -6.0797,-6.03799 -12.3731,-7.25 -3.9191,-0.75474 -4.4969,-0.46111 -7.1758,-0.10351 -2.6788,0.3576 -6.2515,0.97639 -10.3984,4.16601 -4.3598,3.35284 -7.1718,9.19569 -7.4258,9.75391 -0.3276,0.72016 -0.7961,2.2371 -1.1074,2.99414 -0,-0.003 -0.01,-0.007 -0.012,-0.01 -4.8412,-3.29227 -9.1683,-4.75833 -16.2637,-3.4004 -8.7639,1.67723 -15.7059,11.74392 -15.2773,11.04102 -0.8694,1.42572 -2.6313,4.78507 -3.8457,6.99414 -2.7234,-1.75012 -5.3761,-2.51064 -7.7227,-2.9375 -3.3229,-0.60445 -5.9156,-0.9272 -10.4902,0.5957 -3.7333,1.24279 -7.4868,4.23918 -7.9063,4.60938 -2.4502,2.16204 -4.1783,4.46697 -5.3555,6.09961 -0.2548,0.35341 -0.5151,0.80361 -0.7695,1.16992 -5.2799,-3.43473 -9.247,-4.26071 -15.7578,-2.98047 -3.068,0.60328 -6.4152,1.95155 -8.9609,3.93164 -2.5458,1.98009 -4.0408,4.09762 -3.0118,2.95899 -1.3209,1.46162 -2.3406,2.96294 -2.9179,3.86132 l 0,0 c -0.9281,1.4443 -1.6467,2.90131 -2.4004,4.35938 -2.6384,-1.4817 -5.9593,-2.69336 -10.1816,-2.69336 -7.9551,0 -12.8215,3.87468 -15.6816,7.20313 a 14.561611,14.561611 0 0 0 0,0.002 c -1.7627,2.05154 -3.4031,5.50968 -3.375,5.44336 -0.7136,1.68512 -1.3651,4.57079 -1.2618,4.06836 -0.2508,1.2197 -0.3845,2.51865 -0.4179,2.86523 -0.1233,1.27881 -0.1832,2.47251 -0.2383,3.81055 -0.112,2.72011 -0.1884,6.2741 -0.2422,10.74609 -0.1077,8.94362 -0.1201,21.46033 -0.025,36.38477 0.1756,27.69471 0,40.67006 1.252,50.77929 1.4678,11.88149 8.4483,20.46526 12.6425,24.44532 2.8573,2.7112 5.6184,4.60142 8.7559,6.79492 3.2928,2.30209 7.0902,4.81498 10.8691,7.16797 2.9774,1.85391 6.3765,3.98584 9.2696,5.78906 l -21.8594,0 a 14.561611,14.561611 0 0 0 -0,0 c -10.7794,0.002 -20.5948,9.78125 -20.6387,20.56055 a 14.561611,14.561611 0 0 0 0,0.004 l -0.2578,68.85742 -0.2558,68.85743 c -0.016,4.03653 1.1849,8.06904 3.4062,11.43945 a 14.561611,14.561611 0 0 0 0,0.006 l 5.207,7.89258 c 1.7517,2.65498 3.4972,5.07431 5.2383,7.21875 l -0,0 c 0.8179,1.00749 1.81,2.18179 3.0605,3.41015 a 14.561611,14.561611 0 0 0 0,0.002 c 0.4611,0.45282 1.678,1.58721 2.9902,2.52539 -2.1273,-1.52092 0.1369,0.52697 3.0938,1.99609 2.478,1.23119 5.2008,1.71048 7.7617,1.86719 3.4492,4.9033 7.0908,10.16344 9.6856,13.62891 1.3849,1.84968 2.753,3.54924 4.1464,5.10546 0.6406,0.71542 1.4953,1.63811 2.543,2.59571 0.3405,0.31121 1.4909,1.3163 2.6406,2.10351 -3.2435,-2.22002 -0.5649,0.0951 2.6075,1.69532 3.1723,1.60024 6.4406,2.01953 9.2871,2.01953 5.5001,0 9.0193,-1.07892 13.6543,-4.88477 1.2175,-0.99983 2.0417,-2.12507 2.916,-3.22461 0.5422,0.54546 0.9292,1.0125 1.6152,1.5918 l 0,-0.002 c -0.9825,-0.82987 5.1608,3.95938 10.0528,4.92968 6.4414,1.27767 10.2382,0.67301 16.0156,-3.1582 3.9078,-2.59137 6.484,-6.5324 7.3613,-8.18164 l -0,0 c 0.9305,-1.74915 1.584,-3.5055 2.0585,-5.07617 0.067,0.0887 0.134,0.20668 0.2012,0.29492 l -0,0 c 1.2894,1.69314 4.8105,6.27045 10.0468,8.99414 4.08,2.12219 9.0747,3.56985 15.7032,1.89453 6.2818,-1.5876 10.1182,-5.30248 12.4004,-8.36328 a 14.561611,14.561611 0 0 0 0,0 c 2.7117,-3.63733 3.8548,-7.34543 4.4609,-9.53516 0.6448,1.27736 1.3544,2.69869 1.8614,3.66797 a 14.561611,14.561611 0 0 0 0,0.002 c 0.41,0.78383 0.7858,1.48823 1.1953,2.21485 0.058,0.10284 0.1728,0.28944 0.248,0.41992 0.4356,0.62083 2.4418,3.60971 3.586,4.75391 a 14.561611,14.561611 0 0 0 0,0.002 c -0.2207,-0.22063 4.3701,4.10252 9.1054,5.5918 a 14.561611,14.561611 0 0 0 0,0 c 4.38,1.37747 7.4462,1.03753 10.332,0.49414 2.8858,-0.54339 5.472,-1.22448 8.9024,-3.7793 5.3376,-3.97511 8.3813,-11.36143 8.6191,-11.93555 2.348,-5.66765 4.676,-13.15114 9.1856,-27.39062 1.2978,-4.09699 2.5366,-10.23494 2.8261,-22.3457 0.2851,-11.92782 0.2813,-32.58312 0.2813,-73.59961 0,-40.87461 5e-4,-61.529 -0.2793,-73.34375 -0.1393,-5.88659 -0.3205,-9.71684 -0.8028,-13.29102 -0.5354,-3.96756 -1.6029,-7.21608 -2.3222,-9.13867 -4.1471,-11.08402 -12.6192,-19.82443 -22.8887,-25.85742 -2.5131,-1.47638 -6.8859,-4.15196 -9.9746,-5.99024 0.8654,-0.0189 2.4544,-0.01 3.252,-0.0312 3.4459,-0.0925 6.2426,-0.20416 8.5996,-0.36718 1.1588,-0.0802 2.3018,-0.17611 3.5351,-0.3418 -3.9891,0.53601 4.4656,-0.57351 8.0469,-2.49024 a 14.561611,14.561611 0 0 0 0,-0.002 c 2.809,-1.50369 4.8064,-2.55467 7.8769,-7.00977 2.2572,-3.27492 3.2674,-6.83586 3.6602,-8.66796 0.797,-3.71702 0.894,-6.93402 1.0254,-11.25391 0.2717,-8.93371 0.2715,-24.43233 0.2715,-54.83984 0,-28.33445 -0.03,-43.89204 -0.2617,-52.98243 -0.1142,-4.4676 -0.2068,-7.48401 -0.7168,-10.76757 l 0,0.002 c -0.028,-0.18105 -0.9288,-5.1535 -2.9433,-8.60547 -1.4343,-2.45758 -4.1206,-5.90659 -8.7051,-8.23633 -2.7017,-1.37282 -5.1287,-1.90441 -7.3125,-2.13476 l -0,0 c -1.0916,-0.11503 -2.114,-0.16286 -3.1523,-0.12305 z m -86.9903,43.81836 c 0.6563,1.22252 0.6912,1.31088 0.4883,0.98633 -0.1626,-0.33082 -0.2909,-0.61887 -0.4883,-0.98633 z"
         id="path4508"
         style="fill:#ffffff;fill-opacity:1"
         inkscape:original="M 2993.1777 466.00977 C 2992.433 465.93125 2991.7311 465.96958 2991.1973 466.07812 C 2987.6817 466.7935 2987.8151 467.88608 2987.3066 468.47266 C 2986.7981 469.05939 2986.4366 469.57592 2986.0449 470.16602 C 2985.2615 471.34622 2984.425 472.7808 2983.4512 474.55469 C 2981.5035 478.10247 2979.058 482.95684 2976.3066 488.75391 C 2974.3793 492.81468 2972.7064 496.23361 2971.123 499.46289 C 2968.4215 491.30851 2966.1497 484.85117 2964.3457 480.4668 C 2963.3964 478.15966 2962.578 476.36016 2961.7031 474.83203 C 2961.2657 474.06796 2960.8342 473.37178 2960.1602 472.59375 C 2959.4861 471.81572 2958.6472 470.60813 2956.0371 470.10547 C 2955.3295 469.9692 2952.0717 469.8908 2950.0938 471.41211 C 2948.1156 472.93342 2947.6908 474.23451 2947.0449 475.6543 C 2945.7532 478.49387 2944.2803 482.78036 2941.2812 491.35352 C 2939.1508 497.44353 2937.0291 502.86081 2935.1094 507.5918 C 2934.2619 505.263 2933.8329 504.33763 2932.6465 500.88867 C 2930.3169 494.11667 2929.1397 490.39041 2926.9238 487.1582 C 2926.3699 486.35015 2925.7204 485.48898 2924.4844 484.64844 C 2923.2484 483.8079 2921.0733 483.14063 2919.1445 483.50977 C 2915.2869 484.24803 2914.3868 486.47823 2913.5625 487.83008 C 2912.1874 490.08532 2908.5836 496.76081 2904.4941 504.34961 C 2901.7159 509.50521 2899.8167 513.13797 2897.7949 516.98047 C 2897.55 516.34124 2897.3539 515.93384 2897.1074 515.26758 C 2895.8708 511.92449 2894.6493 508.79119 2893.6484 506.37109 C 2893.148 505.16104 2892.7073 504.13581 2892.3164 503.29297 C 2892.121 502.87155 2891.942 502.50158 2891.7324 502.11133 C 2891.5229 501.72108 2891.7107 501.57199 2890.4062 500.26758 C 2888.6303 498.4916 2885.2285 498.1986 2883.6719 498.7168 C 2882.1153 499.23499 2881.4317 499.87121 2880.7988 500.42969 C 2879.533 501.54663 2878.6653 502.67865 2877.6211 504.12695 C 2875.5326 507.02356 2873.0657 511.0952 2870.1191 516.41406 C 2867.9265 520.37205 2866.3296 522.98944 2864.6562 525.7832 C 2863.8917 523.26761 2863.3354 521.69051 2862.2949 517.93359 C 2861.6563 515.6277 2861.1604 513.92923 2860.1074 512.10156 C 2859.5809 511.18773 2858.8871 510.13932 2857.4824 509.18945 C 2856.0777 508.23958 2853.7818 507.75558 2852.0918 508.08789 C 2849.2333 508.64997 2848.7301 509.77063 2848.1133 510.45312 C 2847.4965 511.13563 2847.076 511.74936 2846.6426 512.42383 C 2845.7757 513.77277 2844.9339 515.35069 2844.0059 517.24805 C 2842.1497 521.04277 2840.022 526.05292 2837.8867 531.71484 C 2836.7511 534.72601 2835.414 537.93454 2834.1309 541.03906 C 2832.2932 535.48158 2830.7825 530.9882 2829.7227 528.3418 C 2829.1123 526.81768 2828.6255 525.68603 2827.9023 524.51172 C 2827.5408 523.92456 2827.1388 523.302 2826.3125 522.55273 C 2825.4862 521.80346 2823.9168 520.7793 2821.8125 520.7793 C 2819.4761 520.7793 2817.8444 522.13172 2817.1738 522.91211 C 2816.5033 523.69249 2816.3164 524.1826 2816.1621 524.54688 C 2815.8534 525.2754 2815.8145 525.58419 2815.7559 525.86914 C 2815.6386 526.43904 2815.6082 526.78421 2815.5684 527.19727 C 2815.4887 528.02338 2815.4354 528.98145 2815.3848 530.21094 C 2815.2836 532.66992 2815.2072 536.13774 2815.1543 540.5332 C 2815.0484 549.32413 2815.0366 561.78527 2815.1309 576.65039 C 2815.3068 604.38921 2815.2643 617.56732 2816.2734 625.73633 C 2817.2826 633.90533 2820.996 638.09226 2824.4863 641.4043 C 2826.2134 643.0431 2828.5042 644.68998 2831.5625 646.82812 C 2834.6208 648.96628 2838.2463 651.36679 2841.7852 653.57031 C 2858.162 663.76759 2872.56 672.75811 2892.7734 685.41016 L 2894.1621 686.2793 L 2861 686.2793 L 2821.5 686.2793 A 6.0833805 6.0833805 0 0 0 2815.418 692.33789 L 2815.1602 761.19531 L 2814.9043 830.05273 A 6.0833805 6.0833805 0 0 0 2815.9082 833.42578 L 2821.1152 841.31836 C 2822.6441 843.63575 2824.1626 845.72732 2825.502 847.37695 C 2826.1716 848.20177 2826.7758 848.90517 2827.4609 849.57812 C 2827.8035 849.9146 2828.1493 850.24271 2828.7168 850.64844 C 2829.2843 851.05417 2829.7955 851.94336 2832.6016 851.94336 C 2834.8373 851.94336 2836.0616 851.06522 2836.875 850.43555 C 2837.0822 850.27519 2837.1499 850.13038 2837.3203 849.97461 C 2842.1254 856.95653 2848.5833 866.10245 2852.4434 871.25781 C 2853.6177 872.82614 2854.764 874.23871 2855.7832 875.37695 C 2856.2928 875.94608 2856.7528 876.43665 2857.3008 876.9375 C 2857.5748 877.18792 2857.8537 877.43812 2858.3438 877.77344 C 2858.8337 878.10875 2859.1376 878.94336 2862.0137 878.94336 C 2863.3815 878.94336 2865.2173 878.36106 2866.4277 877.36719 C 2867.6382 876.37331 2868.2368 875.26975 2868.6152 874.375 C 2869.3721 872.5855 2869.5026 871.21206 2869.6738 869.40039 C 2870.0163 865.77705 2870.082 860.51921 2870.082 851.83984 C 2870.082 850.8264 2870.1266 850.19321 2870.1348 849.2207 C 2876.1636 858.2157 2880.6382 864.72972 2883.7871 868.99805 C 2885.3993 871.18345 2886.6777 872.81499 2887.8242 874.09961 C 2888.3975 874.74192 2888.9253 875.29679 2889.5938 875.86133 C 2890.2622 876.42587 2890.8692 877.19351 2893.084 877.63281 C 2894.5876 877.93105 2896.8044 877.56029 2898.2207 876.62109 C 2899.637 875.6819 2900.3099 874.60767 2900.7734 873.73633 C 2901.7005 871.99365 2902 870.5617 2902.4023 868.5957 C 2903.2071 864.66372 2903.9656 858.74938 2905.0801 849.05664 C 2905.6536 844.06895 2906.4752 838.35254 2906.9238 835.75 C 2910.375 840.86586 2914.1509 846.57695 2922.3184 859.38281 C 2924.3259 862.53043 2925.9654 864.99686 2927.4688 866.9707 C 2928.972 868.94455 2930.0596 870.52153 2932.6504 871.86914 C 2933.9458 872.54294 2936.0097 873.08427 2938.0664 872.56445 C 2940.1232 872.04464 2941.554 870.70065 2942.3633 869.61523 C 2943.9817 867.4444 2944.3261 865.71912 2944.8672 863.65039 C 2945.5223 861.14584 2946.9286 856.06316 2947.9414 852.54492 C 2948.9747 848.95527 2950.7088 842.88262 2951.8027 839.01953 C 2953.3815 833.44445 2953.9532 831.72493 2954.9043 828.53711 C 2956.9455 832.51171 2959.083 836.68786 2961.5781 841.91602 C 2964.863 848.79895 2967.9635 855.16934 2970.3262 859.91602 C 2971.5075 862.28935 2972.5024 864.2515 2973.2617 865.70312 C 2973.6414 866.42894 2973.9577 867.02165 2974.2383 867.51953 C 2974.3786 867.76847 2974.5066 867.99076 2974.6641 868.24219 C 2974.8215 868.49361 2974.7082 868.57147 2975.6836 869.54688 C 2976.2116 870.07484 2976.9745 870.95285 2978.8633 871.54688 C 2980.7521 872.14089 2983.6413 871.50929 2985.0332 870.47266 C 2987.8171 868.3994 2987.9807 866.85787 2988.8984 864.64258 C 2990.7339 860.21199 2993.1487 852.65457 2997.6543 838.42773 C 2998.739 835.00361 2999.5295 831.64335 2999.8047 820.13086 C 3000.0798 808.61837 3000.082 787.89488 3000.082 746.87891 C 3000.082 706.00559 3000.0766 685.2808 2999.8066 673.87891 C 2999.6717 668.17796 2999.4826 664.79794 2999.1309 662.19141 C 2998.7791 659.58487 2998.143 657.65408 2997.6016 656.20703 C 2994.7252 648.51927 2989.2635 642.67218 2980.9746 637.80273 C 2969.7289 631.19626 2951.9546 620.50034 2936.7031 611.21875 C 2932.6059 608.72528 2929.5911 606.85742 2926.0312 604.67383 C 2932.6854 604.84941 2941.9109 604.94336 2953.5 604.94336 C 2965.202 604.94336 2974.5695 604.85081 2981.2363 604.67188 C 2984.5697 604.5824 2987.2189 604.47258 2989.2227 604.33398 C 2990.2246 604.26469 2991.0555 604.19091 2991.8223 604.08789 C 2992.589 603.98487 2992.7777 604.34538 2994.9375 603.18945 C 2995.4923 602.89246 2996.854 601.97551 2997.6973 600.75195 C 2998.5406 599.5284 2998.8803 598.36343 2999.1094 597.29492 C 2999.5676 595.1579 2999.6907 592.84827 2999.8184 588.65039 C 3000.0737 580.25463 3000.082 564.65877 3000.082 534.25391 C 3000.082 505.93112 3000.048 490.32576 2999.8262 481.64258 C 2999.7153 477.30099 2999.5945 474.78054 2999.2773 472.73828 C 2999.1188 471.71715 2999.0721 470.82624 2998.1465 469.24023 C 2997.6837 468.44723 2996.8416 467.36599 2995.4219 466.64453 C 2994.712 466.2838 2993.9225 466.08828 2993.1777 466.00977 z "
         inkscape:radius="14.560155"
         sodipodi:type="inkscape:offset"
         transform="translate(-3235.7071,126.65139)" />
      <path
         d="m 2993.1777,466.00977 c -0.7447,-0.0785 -1.4466,-0.0402 -1.9804,0.0684 -3.5156,0.71537 -3.3822,1.80796 -3.8907,2.39454 -0.5085,0.58673 -0.87,1.10326 -1.2617,1.69336 -0.7834,1.1802 -1.6199,2.61478 -2.5937,4.38867 -1.9477,3.54778 -4.3932,8.40215 -7.1446,14.19922 -1.9273,4.06077 -3.6002,7.4797 -5.1836,10.70898 -2.7015,-8.15438 -4.9733,-14.61172 -6.7773,-18.99609 -0.9493,-2.30714 -1.7677,-4.10664 -2.6426,-5.63477 -0.4374,-0.76407 -0.8689,-1.46025 -1.5429,-2.23828 -0.6741,-0.77803 -1.513,-1.98562 -4.1231,-2.48828 -0.7076,-0.13627 -3.9653,-0.21467 -5.9433,1.30664 -1.9781,1.52131 -2.403,2.8224 -3.0489,4.24219 -1.2917,2.83957 -2.7646,7.12606 -5.7637,15.69922 -2.1304,6.09001 -4.2521,11.50729 -6.1718,16.23828 -0.8475,-2.3288 -1.2765,-3.25417 -2.4629,-6.70313 -2.3296,-6.772 -3.5068,-10.49826 -5.7227,-13.73047 -0.5539,-0.80805 -1.2034,-1.66922 -2.4394,-2.50976 -1.236,-0.84054 -3.4111,-1.50781 -5.3399,-1.13867 -3.8576,0.73826 -4.7577,2.96846 -5.582,4.32031 -1.3751,2.25524 -4.9789,8.93073 -9.0684,16.51953 -2.7782,5.1556 -4.6774,8.78836 -6.6992,12.63086 -0.2449,-0.63923 -0.441,-1.04663 -0.6875,-1.71289 -1.2366,-3.34309 -2.4581,-6.47639 -3.459,-8.89649 -0.5004,-1.21005 -0.9411,-2.23528 -1.332,-3.07812 -0.1954,-0.42142 -0.3744,-0.79139 -0.584,-1.18164 -0.2095,-0.39025 -0.022,-0.53934 -1.3262,-1.84375 -1.7759,-1.77598 -5.1777,-2.06898 -6.7343,-1.55078 -1.5566,0.51819 -2.2402,1.15441 -2.8731,1.71289 -1.2658,1.11694 -2.1335,2.24896 -3.1777,3.69726 -2.0885,2.89661 -4.5554,6.96825 -7.502,12.28711 -2.1926,3.95799 -3.7895,6.57538 -5.4629,9.36914 -0.7646,-2.51559 -1.3208,-4.09269 -2.3613,-7.84961 -0.6386,-2.30589 -1.1345,-4.00436 -2.1875,-5.83203 -0.5265,-0.91383 -1.2203,-1.96224 -2.625,-2.91211 -1.4047,-0.94987 -3.7006,-1.43387 -5.3906,-1.10156 -2.8585,0.56208 -3.3617,1.68273 -3.9785,2.36523 -0.6168,0.68251 -1.0373,1.29624 -1.4707,1.97071 -0.8669,1.34894 -1.7087,2.92686 -2.6367,4.82422 -1.8562,3.79472 -3.9839,8.80487 -6.1192,14.46679 -1.1356,3.01117 -2.4727,6.2197 -3.7558,9.32422 -1.8377,-5.55748 -3.3484,-10.05086 -4.4082,-12.69726 -0.6104,-1.52412 -1.0972,-2.65577 -1.8204,-3.83008 -0.3615,-0.58716 -0.7635,-1.20972 -1.5898,-1.95899 -0.8263,-0.74927 -2.3957,-1.77343 -4.5,-1.77343 -2.3364,0 -3.9681,1.35242 -4.6387,2.13281 -0.6705,0.78038 -0.8574,1.2705 -1.0117,1.63477 -0.3087,0.72852 -0.3476,1.03731 -0.4062,1.32226 -0.1173,0.5699 -0.1477,0.91507 -0.1875,1.32813 -0.08,0.82611 -0.133,1.78418 -0.1836,3.01367 -0.1012,2.45898 -0.1776,5.9268 -0.2305,10.32226 -0.1059,8.79093 -0.1177,21.25207 -0.023,36.11719 0.1759,27.73882 0.1334,40.91693 1.1425,49.08594 1.0092,8.169 4.7226,12.35593 8.2129,15.66797 1.7271,1.6388 4.0179,3.28567 7.0762,5.42382 3.0583,2.13816 6.6838,4.53867 10.2227,6.74219 16.3768,10.19728 30.7748,19.1878 50.9882,31.83985 l 1.3887,0.86914 -33.1621,0 -39.5,0 a 6.0833805,6.0833805 0 0 0 -6.082,6.05859 l -0.2578,68.85742 -0.2559,68.85742 a 6.0833805,6.0833805 0 0 0 1.0039,3.37305 l 5.207,7.89258 c 1.5289,2.31739 3.0474,4.40896 4.3868,6.05859 0.6696,0.82482 1.2738,1.52822 1.9589,2.20117 0.3426,0.33648 0.6884,0.66459 1.2559,1.07032 0.5675,0.40573 1.0787,1.29492 3.8848,1.29492 2.2357,0 3.46,-0.87814 4.2734,-1.50781 0.2072,-0.16036 0.2749,-0.30517 0.4453,-0.46094 4.8051,6.98192 11.263,16.12784 15.1231,21.2832 1.1743,1.56833 2.3206,2.9809 3.3398,4.11914 0.5096,0.56913 0.9696,1.0597 1.5176,1.56055 0.274,0.25042 0.5529,0.50062 1.043,0.83594 0.49,0.33531 0.7938,1.16992 3.6699,1.16992 1.3678,0 3.2036,-0.5823 4.414,-1.57617 1.2105,-0.99388 1.8091,-2.09744 2.1875,-2.99219 0.7569,-1.7895 0.8874,-3.16294 1.0586,-4.97461 0.3425,-3.62334 0.4082,-8.88118 0.4082,-17.56055 0,-1.01344 0.045,-1.64663 0.053,-2.61914 6.0288,8.995 10.5034,15.50902 13.6523,19.77735 1.6122,2.1854 2.8906,3.81694 4.0371,5.10156 0.5733,0.64231 1.1011,1.19718 1.7696,1.76172 0.6684,0.56454 1.2754,1.33218 3.4902,1.77148 1.5036,0.29824 3.7204,-0.0725 5.1367,-1.01172 1.4163,-0.93919 2.0892,-2.01342 2.5527,-2.88476 0.9271,-1.74268 1.2266,-3.17463 1.6289,-5.14063 0.8048,-3.93198 1.5633,-9.84632 2.6778,-19.53906 0.5735,-4.98769 1.3951,-10.7041 1.8437,-13.30664 3.4512,5.11586 7.2271,10.82695 15.3946,23.63281 2.0075,3.14762 3.647,5.61405 5.1504,7.58789 1.5033,1.97385 2.5908,3.55083 5.1816,4.89844 1.2954,0.6738 3.3593,1.21513 5.416,0.69531 2.0568,-0.51981 3.4876,-1.8638 4.2969,-2.94922 1.6184,-2.17083 1.9628,-3.89611 2.5039,-5.96484 0.6551,-2.50455 2.0614,-7.58723 3.0742,-11.10547 1.0333,-3.58965 2.7674,-9.6623 3.8613,-13.52539 1.5788,-5.57508 2.1505,-7.2946 3.1016,-10.48242 2.0412,3.9746 4.1787,8.15075 6.6738,13.37891 3.2849,6.88293 6.3854,13.25332 8.7481,18 1.1813,2.37333 2.1762,4.33547 2.9355,5.7871 0.3797,0.72582 0.696,1.31853 0.9766,1.81641 0.1403,0.24894 0.2683,0.47123 0.4258,0.72266 0.1574,0.25142 0.044,0.32929 1.0195,1.30469 0.528,0.52797 1.2909,1.40598 3.1797,2 1.8888,0.59401 4.778,-0.0376 6.1699,-1.07422 2.7839,-2.07326 2.9475,-3.61479 3.8652,-5.83008 1.8355,-4.43059 4.2503,-11.98801 8.7559,-26.21485 1.0847,-3.42412 1.8752,-6.78438 2.1504,-18.29687 0.2751,-11.51249 0.2773,-32.23598 0.2773,-73.25195 0,-40.87332 -0.01,-61.59811 -0.2754,-73 -0.1349,-5.70095 -0.324,-9.08097 -0.6757,-11.6875 -0.3518,-2.60654 -0.9879,-4.53733 -1.5293,-5.98438 -2.8764,-7.68776 -8.3381,-13.53485 -16.627,-18.4043 -11.2457,-6.60647 -29.02,-17.30239 -44.2715,-26.58398 -4.0972,-2.49347 -7.112,-4.36133 -10.6719,-6.54492 6.6541,0.17558 15.8797,0.26953 27.4688,0.26953 11.702,0 21.0695,-0.0925 27.7363,-0.27148 3.3334,-0.0895 5.9826,-0.1993 7.9864,-0.3379 1.0019,-0.0693 1.8328,-0.14307 2.5996,-0.24609 0.7667,-0.10302 0.9554,0.25749 3.1152,-0.89844 0.5548,-0.29699 1.9165,-1.21394 2.7598,-2.4375 0.8433,-1.22355 1.183,-2.38852 1.4121,-3.45703 0.4582,-2.13702 0.5813,-4.44665 0.709,-8.64453 0.2553,-8.39576 0.2636,-23.99162 0.2636,-54.39648 0,-28.32279 -0.034,-43.92815 -0.2558,-52.61133 -0.1109,-4.34159 -0.2317,-6.86204 -0.5489,-8.9043 -0.1585,-1.02113 -0.2052,-1.91204 -1.1308,-3.49805 -0.4628,-0.793 -1.3049,-1.87424 -2.7246,-2.5957 -0.7099,-0.36073 -1.4994,-0.55625 -2.2442,-0.63476 z m -133.4316,67.57617 c -0.1244,0.15296 -0.2911,0.35803 -0.2773,0.34375 0.011,-0.0117 0.024,-0.13823 0.2773,-0.34375 z m 46.4609,247.55664 c -0.013,0.10243 -0.034,0.37145 -0.043,0.42383 -0.02,0.12357 -0.1373,0.0271 0.043,-0.42383 z"
         id="path4504"
         style="fill:#1a1a1a;fill-opacity:1"
         inkscape:original="M 2992.4102 472.03906 C 2991.4523 472.23381 2987.2346 479.91648 2981.8027 491.36133 C 2976.843 501.81133 2972.3094 510.947 2971.7285 511.66211 C 2970.1037 513.6622 2968.719 511.52516 2965.7012 502.36133 C 2959.9487 484.8935 2956.4447 476.37817 2954.8867 476.07812 C 2953.2291 475.7589 2953.0182 476.22457 2947.0234 493.36133 C 2941.9348 507.90756 2936.343 521.24831 2935.1719 521.63867 C 2933.8742 522.07125 2932.1707 518.20525 2926.8945 502.86719 C 2922.2965 489.50096 2920.9052 487.4711 2918.7559 490.99609 C 2916.9677 493.92889 2903.0231 519.80583 2900.0664 525.67773 C 2898.8713 528.05122 2897.4238 529.83722 2896.8516 529.64648 C 2896.2793 529.45573 2893.8279 523.93461 2891.4023 517.37695 C 2888.9766 510.8193 2886.5926 505.05546 2886.1055 504.56836 C 2885.0959 503.55873 2881.2022 508.95898 2875.4395 519.36133 C 2869.0431 530.90774 2864.4139 538.22531 2863.2617 538.60938 C 2862.2469 538.94763 2860.2975 533.50846 2856.4336 519.55664 C 2855.2631 515.32999 2854.4002 513.83354 2853.2656 514.05664 C 2851.897 514.32575 2847.7406 522.82386 2843.5781 533.86133 C 2840.3505 542.41959 2835.6314 553.47218 2834.7012 554.6543 C 2833.1874 556.57796 2832.439 555.28705 2829.0215 544.86133 C 2824.4251 530.83907 2822.8325 526.86133 2821.8125 526.86133 C 2821.2662 526.86133 2821.0247 546.93147 2821.2129 576.61133 C 2821.5648 632.10717 2821.3024 629.99735 2828.6738 636.99219 C 2830.7778 638.98871 2838.125 644.12544 2845 648.40625 C 2861.3808 658.60597 2875.784 667.60026 2896 680.25391 L 2912.5 690.58008 L 2912.7598 736.35742 C 2912.9471 769.32349 2912.7044 782.51523 2911.8887 783.49805 C 2910.1901 785.54474 2905.5618 785.14046 2903.4043 782.75781 C 2901.6084 780.77448 2901.4714 778.12653 2901 736.50781 L 2900.5 692.36133 L 2861 692.36133 L 2821.5 692.36133 L 2821.2422 761.21875 L 2820.9863 830.07617 L 2826.1934 837.96875 C 2829.0574 842.31 2831.9406 845.86133 2832.6016 845.86133 C 2833.2626 845.86133 2834.2744 844.51133 2834.8496 842.86133 C 2835.4247 841.21133 2836.3087 839.86133 2836.8125 839.86133 C 2837.3163 839.86133 2839.026 841.77232 2840.6133 844.10742 C 2845.364 851.09619 2853.1248 862.01844 2857.3125 867.61133 C 2859.4746 870.49883 2861.5895 872.86133 2862.0137 872.86133 C 2863.6452 872.86133 2864 869.11529 2864 851.83984 C 2864 842.01728 2864.3907 833.7398 2864.8672 833.44531 C 2866.0418 832.71936 2867.7951 834.80869 2874.8613 845.36133 C 2887.3304 863.98268 2892.7804 871.37104 2894.2676 871.66602 C 2895.9309 871.99593 2896.8173 867.66677 2899.0371 848.36133 C 2899.6695 842.86133 2900.595 836.20207 2901.0938 833.5625 C 2901.5925 830.92293 2902 827.23655 2902 825.37109 C 2902 823.50562 2902.3855 821.74168 2902.8555 821.45117 C 2904.4464 820.46798 2907.1045 824.21549 2927.4473 856.11133 C 2935.3306 868.47183 2937.0807 869.38213 2938.9824 862.11133 C 2939.6657 859.49883 2941.0666 854.43633 2942.0957 850.86133 C 2943.1248 847.28633 2944.859 841.21133 2945.9492 837.36133 C 2951.5673 817.52261 2952.656 814.36133 2953.8711 814.36133 C 2954.5846 814.36133 2960.5234 825.58311 2967.0684 839.29688 C 2973.6133 853.01065 2979.4257 864.68736 2979.9844 865.24609 C 2981.9461 867.20774 2982.8526 865.01911 2991.8555 836.5918 C 2993.9768 829.89515 2994 828.90972 2994 746.87891 C 2994 665.13381 2993.969 663.85618 2991.9043 658.33789 C 2989.4823 651.86454 2985.4945 647.51274 2977.8926 643.04688 C 2955.2836 629.76481 2906.7914 600.25388 2904.2148 598.20898 L 2901.5 596.05469 L 2901.2109 567.20898 C 2901.0518 551.34369 2901.295 536.56871 2901.752 534.37695 C 2902.8873 528.93198 2906.591 526.70953 2910.3848 529.19531 L 2913 530.9082 L 2913 563.84961 C 2913 595.39471 2913.0813 596.83487 2914.9336 597.82617 C 2916.1659 598.4857 2930.1613 598.86133 2953.5 598.86133 C 2976.8387 598.86133 2990.8341 598.4857 2992.0664 597.82617 C 2993.9467 596.81965 2994 595.06008 2994 534.25391 C 2994 477.61905 2993.8503 471.74625 2992.4102 472.03906 z "
         inkscape:radius="6.0827723"
         sodipodi:type="inkscape:offset"
         transform="translate(-3235.7071,126.65139)" />
      <path
         style="fill:#ffb81c;fill-opacity:1"
         d="m -378.39493,994.2636 c -4.1877,-5.59289 -11.9475,-16.5156 -16.6982,-23.50437 -1.5873,-2.3351 -3.2982,-4.24563 -3.802,-4.24563 -0.5038,0 -1.3867,1.35 -1.9618,3 -0.5752,1.65 -1.5867,3 -2.2477,3 -0.661,0 -3.5451,-3.55193 -6.4091,-7.89318 l -5.2072,-7.89318 0.2569,-68.85682 0.2569,-68.85682 39.5,0 39.5,0 0.5,44.14622 c 0.4714,41.61872 0.6091,44.26667 2.405,46.25 2.1575,2.38265 6.7841,2.78574 8.4827,0.73905 0.8157,-0.98282 1.0598,-14.17456 0.8725,-47.14063 l -0.2602,-45.77591 -16.5,-10.32771 c -20.216,-12.65365 -34.6192,-21.64793 -51,-31.84765 -6.875,-4.28081 -14.2214,-9.41681 -16.3254,-11.41333 -7.3714,-6.99484 -7.1105,-4.8842 -7.4624,-60.38004 -0.1882,-29.67986 0.054,-49.75 0.6003,-49.75 1.02,0 2.6132,3.97774 7.2096,18 3.4175,10.42572 4.1659,11.71604 5.6797,9.79238 0.9302,-1.18212 5.6479,-12.23412 8.8755,-20.79238 4.1625,-11.03747 8.3206,-19.53739 9.6892,-19.8065 1.1346,-0.2231 1.9963,1.27335 3.1668,5.5 3.8639,13.95182 5.8131,19.39103 6.8279,19.05278 1.1522,-0.38407 5.781,-7.69987 12.1774,-19.24628 5.7627,-10.40235 9.6574,-15.80404 10.667,-14.79441 0.4871,0.4871 2.8702,6.25099 5.2959,12.80864 2.4256,6.55766 4.8784,12.07908 5.4507,12.26983 0.5722,0.19074 2.0182,-1.59514 3.2133,-3.96863 2.9567,-5.8719 16.9015,-31.74816 18.6897,-34.68096 2.1493,-3.52499 3.5411,-1.49482 8.1391,11.87141 5.2762,15.33806 6.9806,19.2025 8.2783,18.76992 1.1711,-0.39036 6.7613,-13.72957 11.8499,-28.2758 5.9948,-17.13676 6.2067,-17.60251 7.8643,-17.28328 1.558,0.30004 5.0616,8.81545 10.8141,26.28328 3.0178,9.16383 4.4023,11.30028 6.0271,9.30019 0.5809,-0.71511 5.1142,-9.85019 10.0739,-20.30019 5.4319,-11.44485 9.65,-19.12857 10.6079,-19.32332 1.4401,-0.29281 1.5902,5.57995 1.5902,62.21481 0,60.80617 -0.054,62.56681 -1.9343,63.57333 -1.2323,0.65953 -15.227,1.03518 -38.5657,1.03518 -23.3387,0 -37.3334,-0.37565 -38.5657,-1.03518 -1.8523,-0.9913 -1.9343,-2.43185 -1.9343,-33.97695 l 0,-32.94176 -2.6152,-1.71357 c -3.7938,-2.48578 -7.4971,-0.26254 -8.6324,5.18243 -0.457,2.19176 -0.7008,16.96573 -0.5417,32.83102 l 0.2893,28.84599 2.714,2.15401 c 2.5766,2.0449 51.0696,31.55584 73.6786,44.83791 7.6019,4.46587 11.5905,8.81872 14.0125,15.29207 2.0647,5.51829 2.0949,6.79544 2.0949,88.54054 0,82.03081 -0.023,83.01584 -2.1443,89.71249 -9.0029,28.42731 -9.9099,30.61678 -11.8716,28.65513 -0.5587,-0.55873 -6.3708,-12.23623 -12.9157,-25.95 -6.545,-13.71377 -12.4836,-24.93413 -13.1971,-24.93413 -1.2151,0 -2.304,3.16128 -7.9221,23 -1.0902,3.85 -2.8242,9.925 -3.8533,13.5 -1.0291,3.575 -2.4301,8.6375 -3.1134,11.25 -1.9017,7.2708 -3.6519,6.3605 -11.5352,-6 -20.3428,-31.89584 -23.0018,-35.64335 -24.5927,-34.66016 -0.47,0.29051 -0.8546,2.05449 -0.8546,3.91996 0,1.86546 -0.4081,5.55141 -0.9069,8.19098 -0.4988,2.63957 -1.4243,9.29922 -2.0567,14.79922 -2.2198,19.30544 -3.1056,23.63407 -4.7689,23.30416 -1.4872,-0.29498 -6.9379,-7.68281 -19.407,-26.30416 -7.0662,-10.55264 -8.8195,-12.64335 -9.9941,-11.9174 -0.4765,0.29449 -0.8664,8.57207 -0.8664,18.39463 0,17.27545 -0.3539,21.02277 -1.9854,21.02277 -0.4242,0 -2.5403,-2.3625 -4.7024,-5.25 z"
         id="path4496"
         inkscape:connector-curvature="0" />
    </g>
  </g>
</svg>
