<?xml version="1.0" encoding="UTF-8" standalone="no"?>
<!-- Created with Inkscape (http://www.inkscape.org/) -->

<svg
   xmlns:dc="http://purl.org/dc/elements/1.1/"
   xmlns:cc="http://creativecommons.org/ns#"
   xmlns:rdf="http://www.w3.org/1999/02/22-rdf-syntax-ns#"
   xmlns:svg="http://www.w3.org/2000/svg"
   xmlns="http://www.w3.org/2000/svg"
   xmlns:sodipodi="http://sodipodi.sourceforge.net/DTD/sodipodi-0.dtd"
   xmlns:inkscape="http://www.inkscape.org/namespaces/inkscape"
   width="200"
   height="150"
   viewBox="0 0 200 150"
   id="svg2"
   version="1.1"
   inkscape:version="0.91 r13725"
   sodipodi:docname="Sharks.svg">
  <defs
     id="defs4">
    <pattern
       y="0"
       x="0"
       height="6"
       width="6"
       patternUnits="userSpaceOnUse"
       id="EMFhbasepattern" />
    <pattern
       y="0"
       x="0"
       height="6"
       width="6"
       patternUnits="userSpaceOnUse"
       id="EMFhbasepattern-5" />
    <pattern
       y="0"
       x="0"
       height="6"
       width="6"
       patternUnits="userSpaceOnUse"
       id="EMFhbasepattern-52" />
    <pattern
       y="0"
       x="0"
       height="6"
       width="6"
       patternUnits="userSpaceOnUse"
       id="EMFhbasepattern-2" />
    <pattern
       y="0"
       x="0"
       height="6"
       width="6"
       patternUnits="userSpaceOnUse"
       id="EMFhbasepattern-1" />
    <pattern
       y="0"
       x="0"
       height="6"
       width="6"
       patternUnits="userSpaceOnUse"
       id="EMFhbasepattern-8" />
    <pattern
       y="0"
       x="0"
       height="6"
       width="6"
       patternUnits="userSpaceOnUse"
       id="EMFhbasepattern-4" />
    <inkscape:path-effect
       effect="spiro"
       id="path-effect5209"
       is_visible="true" />
    <inkscape:path-effect
       effect="spiro"
       id="path-effect5205"
       is_visible="true" />
    <inkscape:path-effect
       effect="spiro"
       id="path-effect4424"
       is_visible="true" />
    <inkscape:path-effect
       effect="spiro"
       id="path-effect4427"
       is_visible="true" />
    <inkscape:path-effect
       effect="spiro"
       id="path-effect4421"
       is_visible="true" />
    <inkscape:path-effect
       effect="spiro"
       id="path-effect4418"
       is_visible="true" />
    <inkscape:path-effect
       effect="spiro"
       id="path-effect4415"
       is_visible="true" />
    <inkscape:path-effect
       effect="spiro"
       id="path-effect4412"
       is_visible="true" />
    <inkscape:path-effect
       effect="spiro"
       id="path-effect4409"
       is_visible="true" />
    <inkscape:path-effect
       effect="spiro"
       id="path-effect4406"
       is_visible="true" />
    <inkscape:path-effect
       effect="spiro"
       id="path-effect4403"
       is_visible="true" />
    <inkscape:path-effect
       effect="spiro"
       id="path-effect4400"
       is_visible="true" />
    <inkscape:path-effect
       effect="spiro"
       id="path-effect4397"
       is_visible="true" />
    <inkscape:path-effect
       bendpath3-nodetypes="cc"
       bendpath1-nodetypes="cc"
       bendpath4="m 3891.1499,385.42868 0,249.32803"
       bendpath3="m 3891.1499,634.75671 c 295.7883,-59.23432 591.5766,-30.4308 887.3649,0"
       bendpath2="m 4778.5148,385.42868 0,249.32803"
       bendpath1="m 3891.1499,385.42868 c 288.2315,50.03249 570.3325,87.45506 887.3649,0"
       xx="true"
       yy="true"
       is_visible="true"
       id="path-effect4351"
       effect="envelope" />
  </defs>
  <sodipodi:namedview
     id="base"
     pagecolor="#ffffff"
     bordercolor="#666666"
     borderopacity="1.0"
     inkscape:pageopacity="0.0"
     inkscape:pageshadow="2"
     inkscape:zoom="0.49497475"
     inkscape:cx="80.175643"
     inkscape:cy="-26.197565"
     inkscape:document-units="px"
     inkscape:current-layer="layer1"
     showgrid="false"
     fit-margin-top="0"
     fit-margin-left="0"
     fit-margin-right="0"
     fit-margin-bottom="0"
     units="px"
     inkscape:window-width="1440"
     inkscape:window-height="837"
     inkscape:window-x="1432"
     inkscape:window-y="-8"
     inkscape:window-maximized="1" />
  <metadata
     id="metadata7">
    <rdf:RDF>
      <cc:Work
         rdf:about="">
        <dc:format>image/svg+xml</dc:format>
        <dc:type
           rdf:resource="http://purl.org/dc/dcmitype/StillImage" />
        <dc:title />
      </cc:Work>
    </rdf:RDF>
  </metadata>
  <g
     inkscape:label="Layer 1"
     inkscape:groupmode="layer"
     id="layer1"
     transform="translate(536.30539,-546.064)">
    <g
       id="g4186"
       transform="matrix(0.23700848,0,0,0.23700848,-325.59637,449.38732)">
      <path
         inkscape:connector-curvature="0"
         id="path5519"
         d="m -595.70806,407.90572 c -6.465,-0.1497 -9.4227,8.9619 -4.8164,13.1113 16.0297,28.5377 26.3491,60.4398 28.9433,93.1211 -39.8974,14.7092 -81.9242,25.3652 -118.0058,48.7325 -7.165,5.0266 -16.229,8.6561 -21.0196,16.2832 -0.3341,4.2821 -6.7012,2.6294 -9.7369,4.3629 -51.5661,13.1906 -103.5116,26.5817 -152.3822,47.93 -5.063,3.5138 -2.5933,13.207 4.0859,12.295 93.5742,-9.1563 186.9905,-20.2187 280.7963,-26.2431 5.4683,-0.36 10.8593,-0.667 16.3346,-0.8546 -0.2845,5.3397 1.5779,13.3615 8.457,12.791 6.4009,-0.3664 8.8053,-7.7698 7.8161,-13.1906 -0.2244,-2.4717 3.8016,0.072 5.4984,-0.9774 5.317,0.2509 10.7031,-1.5748 15.8906,-0.5371 0.4198,5.3389 0.623,14.3304 8.0195,14.7032 6.6904,0.7631 9.9802,-7.0648 8.6231,-12.6328 -0.5811,-6.7579 10.5081,-1.6832 15.0449,-3.252 3.7558,-0.1992 8.3337,-1.1382 6.6855,4.1797 -0.7125,5.773 3.4713,13.5058 10.1934,11.4805 5.4811,-1.3315 6.973,-7.5569 6.0463,-12.4273 -0.6307,-3.296 0.3527,-2.9753 2.4771,-1.6372 5.5529,1.7643 11.519,1.3171 17.1797,2.3984 2.1421,-0.2472 4.2892,-1.6396 3.2461,2 -0.7331,5.7076 3.8194,12.6688 10.1817,10.6524 4.0328,-1.2026 6.6231,-5.6265 6.0742,-9.7363 6.2071,3.9877 13.827,6.0771 21.082,7.1308 2.2674,-1.2689 2.4596,0.3244 3.2598,2.1758 1.9894,3.8987 7.3626,4.7786 10.8574,2.4336 -1.5386,5.2784 5.1456,5.8404 7.796,9.2741 4.1912,4.3423 13.4283,5.867 15.6727,-1.1472 4.0241,-16.2858 18.7209,-27.4075 34.3614,-31.3671 21.4305,-5.6253 44.1135,-3.3126 65.9433,-1.6348 26.9072,2.1599 52.4476,12.7841 79.5567,14.4433 -9.6631,10.5996 -23.5073,16.7686 -37.7012,18.0098 -2.3012,0.4525 -4.6664,1.4595 -6.9629,1.5449 1.6908,-3.3593 2.1443,-10.3613 -3.4629,-9.58 -7.3957,0.2299 -15.4636,0.9228 -22.5234,-0.1055 0.492,-5.1708 -4.784,-8.8533 -9.5762,-8.1367 -5.6567,-0.8714 -12.3172,-0.023 -17.3164,-1.3692 0.9004,-4.9554 -4.1371,-9.2217 -8.9101,-7.8866 -16.3285,-0.2311 -35.5015,-0.273 -47.6426,12.4062 -3.4537,5.5986 3.1749,11.6637 8.7754,10.9316 4.9751,1.0154 10.7245,0.5479 15.289,1.8438 -1.0194,5.8102 4.6035,9.9353 9.9121,9.9726 4.6966,1.1945 10.5446,0.8522 14.3184,2.7539 -2.1614,4.6707 0.5914,10.7298 5.8789,11.457 4.685,1.8085 9.8941,1.94 14.5137,3.7989 -0.8208,4.4641 -1.9318,9.0821 -2.4473,13.7011 44.4737,-3.5382 88.4221,-20.63 121.1278,-51.4386 11.4159,-9.8903 23.9033,-19.1206 33.5343,-30.7235 1.988,-6.9496 -6.1122,-10.232 -11.3515,-11.7187 -58.5696,-23.1418 -114.3708,-54.1344 -175.9979,-68.9068 -44.996,-11.8963 -91.4846,-17.4263 -137.8459,-19.6967 -5.8534,-3.5803 -8.6878,-10.489 -13.9657,-14.8413 -28.1478,-31.245 -60.7179,-62.0605 -102.3781,-73.3619 -6.3646,-1.5217 -12.8983,-2.2596 -19.4296,-2.5156 z m 55.8945,51.0488 c 25.0641,15.7156 41.2811,41.3418 57.3242,65.5118 9.1494,7.9173 22.1804,3.0458 32.9414,5.3906 12.5076,0.966 24.8007,2.3336 37.1778,4.3184 -50.5334,0.3936 -101.2435,4.2356 -150.709,14.9335 17.0892,-5.6368 35.0149,-9.3747 51.955,-15.3476 4.8108,-3.6228 2.2694,-11.6933 -3.3652,-12.8418 -4.2001,-2.1693 -8.9083,-3.1665 -13.0254,-5.5098 -2.3658,-19.1704 -4.2875,-38.9071 -12.5742,-56.6269 l 0.2754,0.1718 z m 201.6523,113.295 c 5.7079,3.5471 14.5115,7.3029 18.5391,10.2226 -6.6517,1.5421 -13.5758,-1.0961 -17.1895,-6.9902 -0.483,-0.9463 -5.1868,-6.0159 -1.3496,-3.2324 z m -74.1015,1.5234 c 3.7089,5.9377 -2.945,1.9116 0,0 z m -78.7188,0.4141 c 4.4613,7.7294 -7.0476,-0.82 0,0 z m -75.4961,0.5019 c 1.9305,7.7103 -6.8668,-3.2818 0,0 z m 38.3868,0.4727 c -0.086,7.1627 -7.4966,-4.0528 0,0 z m -125.3926,52.9238 c -30.8688,2.1367 -61.7608,4.2745 -92.4727,8.1289 -10.6205,12.9324 -6.0378,32.8993 -18.4922,44.7305 -19.6174,27.242 -26.7725,61.3446 -28.8359,94.2773 0.1676,5.5287 6.7319,9.1638 11.4023,5.9102 8.599,-4.2429 17.1915,-8.9997 24.6641,-15.002 1.3205,-1.1168 2.5195,-3.6944 3.2363,-4.3789 9.1288,37.1177 32.4902,69.1281 60.5792,94.3787 3.1225,3.6243 8.3992,6.29688 10.3091,10.30778 -2.5508,35.5644 -3.9249,71.5186 0.4217,106.9859 3.7669,22.5135 8.6179,45.7765 21.1998,65.1675 3.7259,4.0262 11.6216,2.3485 12.1489,-3.5554 10.7908,-35.1532 21.6867,-70.9625 41.1109,-102.4915 5.3735,-9.6841 17.7553,-8.8798 27.0081,-11.0774 33.5583,-4.7982 67.7043,-2.832 101.3805,-1.4871 18.584,1.4731 37.1143,6.3757 55.7559,6.252 6.5655,-2.661 3.748,-12.1542 -1.8164,-14.2759 -35.2992,-27.3147 -78.1836,-43.2833 -120.8535,-54.18108 7.5283,-0.01 15.9653,-3.8992 17.2402,-12.0586 1.1381,-6.9599 1.3684,-14.785 -1.6875,-21.2598 -2.2933,-3.5992 -6.3861,-5.6836 -10.4102,-6.5957 4.0729,-7.478 3.2071,-16.8469 0.8614,-24.668 -1.1232,-1.4735 3.0913,-1.0109 3.9511,-2.2402 6.2051,-2.9738 7.6493,-10.3305 6.8555,-16.5469 0.6901,-5.8147 0.1762,-12.7117 -3.8027,-16.9883 6.8898,-7.078 5.3445,-18.2341 3.5508,-26.9863 -4.0036,-8.9859 -15.4052,-9.0731 -23.7696,-8.1797 -9.581,6e-4 -22.5393,-2.6934 -29.0371,6.4766 -3.9102,7.4148 -3.7203,16.8611 -0.8711,24.5976 1.0682,2.3944 3.7341,3.9823 0.9024,6.1856 -4.8274,7.8277 -2.8477,18.3321 -1.6602,26.1738 -9.6908,1.6987 -12.1913,13.2704 -11.3281,21.6153 -0.3397,7.1466 3.0137,15.5646 10.8769,16.8593 3.7724,-0.057 -0.4557,3.5394 -0.1953,5.7696 -1.1062,6.6124 -1.2794,13.9016 1.8496,20.0117 -11.1526,-2.1089 -23.112,-1.9521 -33.6992,-5.9766 -7.8731,-7.3546 -13.4001,-16.8569 -19.9844,-25.3223 -14.1908,-20.8647 -22.9771,-45.0536 -27.3222,-69.7636 -2.5987,-5.4022 -12.1968,-4.2103 -12.291,2.2129 -1.993,24.2342 -1.9786,48.9808 3.9668,72.7031 -23.4765,-27.812 -43.6723,-62.2365 -43.1819,-99.697 0.3024,-27.1457 14.3311,-54.5243 37.7518,-69.1307 9.1724,-6.3357 19.9186,-10.0565 29.473,-15.4965 3.8483,-4.0275 0.9617,-11.4954 -4.7851,-11.3848 z m 88.1816,18.082 c -33.0277,0.6855 -66.1823,13.9964 -89.4199,37.5801 -3.2151,6.3036 5.9828,11.9709 10.9625,7.7198 25.8017,-11.1933 54.6869,-16.1034 82.5824,-13.042 58.1348,5.149 110.7647,35.3815 168.9063,41.1718 28.7776,1.8498 59.4512,-6.5586 80.291,-27.1289 3.8661,-5.9468 -4.5426,-12.9673 -10.1992,-9.7246 -40.5589,8.4202 -82.6965,3.7255 -122.1319,-8.5235 -39.5836,-11.446 -79.0949,-28.0064 -120.9912,-28.0527 z m 19.6738,90.795 c 3.8018,0.3325 0.8961,5.2469 1.8457,7.5527 0.6452,4.645 -5.2152,1.4469 -7.5947,2.5616 -6.0857,0.181 -12.182,0.023 -18.251,-0.46 -0.1144,-3.0445 -1.028,-6.6681 0.3457,-9.2969 7.8741,-0.5544 15.7793,0.1084 23.6543,-0.3574 z m 55.1856,20.0683 c -16.6773,-1.8467 -33.502,11.4494 -34.4746,28.3965 -1.7719,16.7835 12.8334,31.2525 28.6816,33.8418 5.0218,1.3738 14.0678,4.4124 11.9063,11.1445 -5.0729,7.5332 -16.9723,2.9591 -20.127,-4.2636 -6.085,-6.6487 -16.4167,-1.4352 -20.9453,4.5058 -4.256,7.6646 3.3239,14.9733 8.2188,20.0742 16.3897,15.81078 48.6206,11.20078 57.7539,-10.373 6.849,-14.7212 0.1849,-34.224 -15.0743,-40.5684 -6.9088,-4.0641 -15.7647,-4.1976 -22.0039,-9.2734 -4.9099,-5.1485 4.5171,-11.2723 9.1016,-7.3789 5.333,2.1305 6.4586,11.317 13.0273,10.5137 5.6355,-2.776 14.8608,-4.2449 15.2715,-12.1622 -2.3789,-14.1551 -17.2552,-24.8129 -31.3359,-24.457 z m 393.208996,0.045 c -17.988796,0.2753 -33.158796,18.6084 -29.275396,36.3653 2.7519,14.5165 16.6029,24.1293 30.498096,26.4917 4.82,1.1137 13.3002,6.0911 8.8222,11.6509 -6.08,6.1199 -16.530796,0.9515 -19.445296,-6.1114 -3.8952,-5.1238 -11.2879,-3.142 -15.4434,0.5469 -5.5206,2.7904 -9.1631,10.1373 -4.5996,15.457 7.005,12.1396 20.974,20.2104 35.109396,18.3867 16.5393,0.024 32.5965,-13.5963 32.707,-30.6503 1.0039,-15.1445 -10.4721,-28.9074 -24.8613,-32.5723 -5.5795,-2.1169 -14.0423,-2.7466 -16.2285,-9.1563 0.9501,-7.0147 12.015,-6.8972 14.125,-0.4902 3.0488,4.7642 9.43,7.8971 14.6406,4.502 5.9725,-1.6673 12.8573,-7.9825 9.1406,-14.5918 -5.4989,-12.683 -19.1728,-21.0033 -32.9902,-19.8249 -0.733,0 -1.4662,-0.033 -2.1992,0 z m -40.912096,0.8789 c -5.5338,0.1808 -12.3231,-1.1654 -16.0977,4.1016 -6.4345,8.0498 -14.1875,15.8726 -20.7344,23.1465 -0.061,-8.0802 1.7382,-17.974 -3.7949,-24.6934 -6.7,-4.9597 -15.1823,-0.2313 -22.5605,-2.4375 -0.1994,33.6036 -0.3987,67.2071 -0.5996,100.8106 8.2517,-2.8758 18.4424,2.3434 25.4277,-4.6055 3.1169,-10.314 0.7278,-21.7334 1.7402,-31.8652 8.2995,12.1037 16.9272,23.9761 25.3633,35.9844 7.6787,-1.9177 18.3556,2.9044 23.7773,-4.9239 2.4086,-7.9035 -6.026,-12.9161 -8.8046,-19.3613 -7.1797,-10.3338 -15.2431,-20.0754 -21.5664,-30.9863 9.772,-12.3372 22.218,-23.0406 30.1035,-36.627 0.5989,-6.7373 -6.857,-9.0366 -12.2539,-8.543 z m -192.459,0 c -7.7836,0.098 -12.5412,7.6483 -13.6805,14.5736 -9.1193,26.2872 -19.9231,52.3144 -27.0383,79.1099 1.5351,7.1152 10.0556,6.3221 15.5684,6.3946 7.7803,1.8953 13.2658,-6.0577 14.1641,-12.8301 1.9612,-4.0732 2.1712,-9.3964 5.0097,-12.7188 6.4668,0.1488 13.4542,-0.9352 19.6153,0.016 3.3179,7.9609 4.5292,17.6839 10.9648,23.8164 6.7908,2.3852 15.9897,3.477 21.6367,-1.7266 4.0603,-7.0308 -2.738,-13.9932 -3.7121,-20.91 -8.8371,-24.2646 -16.0579,-49.4004 -27.1414,-72.6837 -4.0733,-4.0525 -10.2847,-2.5686 -15.3867,-3.041 z m -107.7285,0.051 c -8.5498,-0.01 -10.8982,10.1341 -10.3536,16.9766 -0.1979,26.2386 -0.6709,52.5002 0.6563,78.7187 5.1681,6.3746 14.4419,4.4019 21.4121,3.545 7.9175,-3.7225 5.2141,-14.0688 5.7223,-20.9864 -0.012,-5.0304 -0.1089,-10.0097 0.2523,-14.9746 6.3819,-0.3215 12.9985,-0.3386 19.4688,0.086 1.014,12.2103 0.345,24.4792 0.9941,36.75 8.4691,-2.2551 18.0794,2.1533 25.8223,-3.1992 -0.634,-30.0979 1.877,-60.3422 -0.7754,-90.3458 -3.5357,-8.0082 -14.5307,-7.5813 -21.3262,-4.8359 -6.5846,5.0472 -3.4017,14.3 -4.5873,21.3118 -0.1031,4.8247 -0.1584,9.6502 -0.235,14.4753 -6.3482,-0.249 -13.6606,0.6088 -19.375,-0.3847 -0.6756,-11.1913 2.1916,-23.7037 -3.5859,-33.9102 -3.5715,-3.9204 -9.3463,-3.0996 -14.0898,-3.2266 z m 169.2968,0.1172 c -5.5321,-0.4924 -13.1835,2.4154 -12.171,9.1984 1.1543,28.8034 -0.6889,57.806 1.2882,86.6434 5.3874,6.2467 14.5915,3.7054 21.5332,3.0156 7.2034,-3.6348 3.0245,-12.5723 4.2285,-18.6855 0.1625,-2.8494 0.086,-5.7044 0.1153,-8.5566 6.9982,9.7752 14.8603,18.8936 21.9258,28.6191 7.9359,-1.8513 18.4391,2.7833 24.4179,-4.5156 2.6715,-7.6906 -5.7807,-12.4963 -8.8044,-18.4704 -3.0648,-4.7512 -8.7571,-10.0324 -10.2776,-14.5843 9.8819,-4.8193 17.2112,-14.7856 16.9043,-26.0449 1.5638,-14.1087 -6.4748,-29.4116 -20.6406,-33.459 -12.4138,-4.0943 -25.7937,-2.3553 -38.5196,-3.1602 z m -291.0918,9.9649 c 4.9391,0.3994 10.4553,-0.5316 15.0293,0.5644 0.1682,3.2445 0.8805,6.6377 -0.062,9.8379 -8.0317,0.2621 -16.9527,1.7971 -24.5175,-0.6328 0.2272,-3.2251 -2.5937,-10.9698 3.3579,-9.6158 1.9521,-0.1127 4.0828,-0.1435 6.1928,-0.1537 z m 310.8008,15.834 c 6.042,-0.5021 14.6006,3.416 12.0078,10.7207 -3.2916,5.7961 -11.4719,5.0038 -16.9941,4.2656 0,-2.9737 1.271,-6.5571 0.4043,-9.7969 -0.4786,-2.7044 -0.5243,-6.4113 3.4004,-5.1523 0.3932,-0.028 0.7876,-0.034 1.1816,-0.037 z m -317.2246,16.1093 c 3.6235,0.6117 8.5987,-1.0875 11.4746,0.9785 -0.5611,2.9924 1.9816,9.6606 -2.8553,8.579 -7.3153,0.1235 -14.5692,0.8052 -21.8732,-0.079 0.2883,-3.4809 -2.0168,-11.0972 4.2012,-9.4336 3.0137,-0.058 6.0443,-0.209 9.0527,-0.045 z m 239.5039,3.3028 c 0.967,2.148 1.6826,4.7242 -1.5176,3.8515 0.353,-0.6657 1.0208,-6.0535 1.5176,-3.8515 z m -219.1172,28.7148 c 4.0505,-0.6657 1.6278,2.8444 2.1856,4.8848 0.3092,2.8006 1.0722,7.0497 -3.2653,5.8757 -7.3038,0.4368 -15.0331,0.6217 -22.3207,-0.2058 0.1044,-2.9707 -1.6377,-8.4924 0.9536,-9.9669 7.461,-0.6935 14.9711,-0.2796 22.4468,-0.5878 z m -81.9922,55.83588 c 14.1464,-0.01 28.2288,0.686 42.2911,1.9063 -12.0669,1.1146 -24.6021,1.69 -36.2168,4.5781 -5.7061,5.74 -10.0307,12.6459 -14.2676,19.4902 0.506,-8.5933 1.4038,-17.5598 3.4277,-25.9179 1.5882,-0.048 3.177,-0.041 4.7656,-0.057 z"
         style="fill:#ffffff;fill-opacity:1" />
      <path
         id="path5362"
         d="m -503.54746,852.46872 c -7.1563,-2.6351 -17.3242,-13.0655 -17.3242,-17.7716 0,-0.9311 2.0927,-2.6756 4.9414,-4.1191 5.3154,-2.6935 6.4656,-2.3748 9.0835,2.5169 1.8545,3.465 9.5965,7.1842 14.9551,7.1842 12.0417,0 18.331,-11.2513 10.9734,-19.6311 -2.9813,-3.3955 -5.8245,-4.7518 -16.9534,-8.0877 -13.1759,-3.9495 -21,-12.9221 -21,-24.0826 0,-15.0253 10.7657,-25.3975 26.384,-25.4196 3.7862,-0.01 8.6857,0.53 10.8877,1.1898 7.2893,2.1839 18.0661,13.9996 16.447,18.0324 -0.28,0.6974 -2.6409,2.1247 -5.2464,3.1719 l -4.7373,1.9038 -3.5594,-4.2851 c -1.9577,-2.3568 -5.0337,-4.901 -6.8354,-5.6538 -9.4488,-3.948 -18.3402,1.3668 -18.3402,10.9629 0,5.5278 4.5746,9.1426 16.0531,12.6847 18.1139,5.5897 24.9663,13.1473 24.9194,27.4836 -0.031,9.3651 -5.3555,17.5589 -14.4725,22.2704 -6.3028,3.2572 -19.5441,4.0918 -26.1758,1.65 z"
         style="fill:#000000;fill-opacity:1"
         inkscape:connector-curvature="0" />
      <path
         id="path5360"
         d="m -105.54746,852.46872 c -7.1563,-2.6351 -17.3242,-13.0655 -17.3242,-17.7716 0,-1.2894 8.3712,-6.6488 10.3852,-6.6488 0.2484,0 1.4275,1.579 2.6203,3.5088 3.105,5.0241 9.877796,8.722 15.974496,8.722 12.0417,0 18.331,-11.2513 10.9734,-19.6311 -2.9813,-3.3955 -5.8245,-4.7518 -16.9534,-8.0877 -13.175896,-3.9495 -20.999996,-12.9221 -20.999996,-24.0826 0,-15.0253 10.7657,-25.3975 26.383996,-25.4196 3.7862,-0.01 8.6695,0.5252 10.8518,1.179 6.6981,2.0068 16.7642,12.3434 16.7642,17.2147 0,1.4077 -7.907,5.6427 -10.3771,5.558 -0.6176,-0.021 -2.0229,-1.4461 -3.1229,-3.1664 -2.9004,-4.5362 -6.6577,-6.9458 -11.7201,-7.5164 -8.009296,-0.9028 -13.779896,4.1621 -13.779896,12.0947 0,5.5047 4.0194,8.6804 15.759596,12.4515 11.6439,3.7402 17.392,7.279 21.3177,13.1242 6.3642,9.4761 4.6301,24.4186 -3.7357,32.1909 -5.4958,5.1059 -11.1447,7.1936 -20.3416,7.5181 -5.8281,0.2056 -9.812596,-0.1834 -12.675796,-1.2377 z"
         style="fill:#000000;fill-opacity:1"
         inkscape:connector-curvature="0" />
      <path
         id="path5358"
         d="m -556.58896,823.05422 c -20.6271,0.01 -23.2832,1.6629 -23.2832,14.5097 0,9.0419 1.761,12.0389 8,13.6153 4.1751,1.0549 26.2513,0.9266 30.2207,-0.1758 5.4878,-1.5242 6.7793,-4.0478 6.7793,-13.2442 0,-4.3137 -0.4858,-8.7509 -1.0801,-9.8613 -1.9707,-3.6824 -6.9446,-4.8537 -20.6367,-4.8437 z m 4.9863,3.0585 c 13.6873,-0.1161 13.7305,1.1827 13.7305,11.3868 0,6.3081 -0.391,8.7972 -1.5703,9.9765 -1.3007,1.3007 -4.3951,1.5723 -17.9649,1.5723 -15.1842,0 -16.4707,-0.142 -17.4296,-1.9336 -1.2926,-2.4157 -1.3378,-17.0386 -0.059,-19.0664 0.7601,-1.2048 4.0192,-1.5642 16.5527,-1.8223 2.5518,-0.053 4.7849,-0.097 6.7402,-0.1133 z"
         style="fill:#000000;fill-opacity:1"
         inkscape:connector-curvature="0" />
      <path
         id="path5354"
         d="m -442.20496,851.38162 c -0.3667,-0.3666 -0.6667,-19.7008 -0.6667,-42.9648 0,-47.8749 -0.6515,-44.3685 8.2431,-44.3685 7.6246,0 7.6948,0.1756 7.9933,20 l 0.2636,17.5 15.5,0 15.5,0 0.2739,-17.9558 c 0.1957,-12.831 0.6239,-18.178 1.5,-18.7347 1.944,-1.2349 10.174,-0.9341 12.0479,0.4405 1.5664,1.149 1.6828,4.6832 1.4411,43.75 l -0.2629,42.5 -7,0 -7,0 -0.2745,-17.4561 c -0.1955,-12.431 -0.6273,-17.6803 -1.5,-18.2347 -1.4395,-0.9146 -26.8284,-1.0907 -29.1437,-0.2022 -1.3529,0.5191 -1.5818,2.967 -1.5818,16.9182 0,8.9712 -0.2731,17.023 -0.607,17.893 -0.4702,1.2255 -2.1223,1.5818 -7.3333,1.5818 -3.6995,0 -7.0264,-0.3 -7.393,-0.6667 z"
         style="fill:#000000;fill-opacity:1"
         inkscape:connector-curvature="0" />
      <path
         id="path5352"
         d="m -326.78426,764.04832 c -7.5556,0 -8.2486,0.4352 -10.4805,6.5859 -17.2397,47.5092 -28.4767,79.8179 -28.0176,80.5606 0.3189,0.5161 3.8054,0.8071 7.7461,0.6465 l 7.1641,-0.293 4.5332,-12.5 4.5332,-12.5 14.0977,-0.2773 14.0976,-0.2754 4.3008,11.7754 c 2.365,6.4772 4.7222,12.3398 5.2402,13.0273 0.5934,0.7875 3.4873,1.25 7.8203,1.25 5.4684,0 6.877,-0.3086 6.877,-1.5098 0,-2.3317 -27.6098,-80.0262 -30.0762,-84.6347 -0.8192,-1.5307 -2.1936,-1.8555 -7.8359,-1.8555 z m -0.6289,20.8848 c 1.2633,0.014 8.8878,24.7679 8.1894,26.5879 -0.4467,1.1641 -2.198,1.5237 -7.3671,1.5117 -10.3116,-0.023 -10.1813,0.3194 -5.627,-14.9414 2.1613,-7.2423 4.3232,-13.1582 4.8047,-13.1582 z"
         style="fill:#000000;fill-opacity:1"
         inkscape:connector-curvature="0" />
      <path
         id="path5348"
         d="m -265.75496,764.12452 c -3.3078,0.012 -5.7257,0.1113 -6.457,0.2949 l -2.6602,0.668 0,42.8125 c 0,23.5478 0.3198,43.1342 0.709,43.5234 0.3892,0.3897 3.6517,0.578 7.25,0.418 l 6.541,-0.291 0.2754,-16.25 0.2754,-16.25 2.8769,0 c 2.0676,0 3.3963,0.804 4.7246,2.8593 1.0165,1.5726 6.5727,8.9965 12.3477,16.4981 l 10.5,13.6406 8.25,0 c 5.4071,9e-4 8.25,-0.3836 8.25,-1.1152 0,-0.614 -5.2034,-7.8393 -11.5645,-16.0547 -6.361,-8.2153 -11.4235,-15.3441 -11.25,-15.8418 0.1736,-0.4977 3.2397,-2.3849 6.8145,-4.1953 8.8961,-4.5055 12.3194,-9.9684 12.8516,-20.5078 0.5253,-10.4029 -1.1925,-15.7198 -6.9278,-21.4551 -6.3764,-6.3764 -11.4288,-7.7661 -31.0136,-8.5235 -4.2875,-0.166 -8.4852,-0.2421 -11.793,-0.2304 z m 12.0117,13.9277 c 0.9224,-0.01 1.983,7e-4 3.2031,0 12.5221,0.011 18.6298,4.0178 19.3535,12.6972 0.4797,5.7541 -0.9922,8.914 -5.5976,12.0176 -2.9531,1.9901 -4.6349,2.2793 -13.2344,2.2793 l -9.8535,0 0,-12.8926 c 0,-12.9142 -0.3281,-14.0324 6.1289,-14.1035 z"
         style="fill:#000000;fill-opacity:1"
         inkscape:connector-curvature="0" />
      <path
         id="path5344"
         d="m -195.63216,808.29832 0.2605,-43.75 5.8344,-0.3024 c 3.4411,-0.1784 6.415,0.1795 7.25,0.8724 1.1154,0.9257 1.4156,4.6484 1.4156,17.5524 0,9.6152 0.3902,16.3776 0.9449,16.3776 0.5197,0 4.2021,-3.7125 8.1831,-8.25 3.9811,-4.5375 11.0517,-12.4125 15.7125,-17.5 l 8.4743,-9.25 7.8426,0 c 5.8684,0 7.8426,0.3356 7.8426,1.3332 0,0.7332 -6.773,8.9457 -15.0512,18.25 -8.2781,9.3042 -15.4596,17.6403 -15.959,18.5245 -0.6979,1.2359 2.8978,6.8577 15.5512,24.3133 9.0524,12.4881 16.459,23.3521 16.459,24.1423 0,1.1267 -1.6907,1.4367 -7.835,1.4367 l -7.8351,0 -11.5261,-16.25 c -6.3393,-8.9375 -12.3153,-17.4875 -13.28,-19 -2.1591,-3.3854 -2.602,-3.3965 -6.4471,-0.1611 l -3.0767,2.5889 0,14.8293 c 0,8.1561 -0.2731,15.5411 -0.607,16.4111 -0.4724,1.231 -2.1379,1.5818 -7.5105,1.5818 l -6.9035,0 z"
         style="fill:#000000;fill-opacity:1"
         inkscape:connector-curvature="0" />
      <path
         id="path5342"
         d="m -559.80186,791.16942 c -2.3005,-0.01 -5.1961,0.031 -8.9082,0.096 l -16.3398,0.2832 -2.4102,2.8066 c -2.1312,2.48 -2.4069,3.757 -2.3789,11 0.033,8.3617 0.7264,10.3097 4.4668,12.5215 1.3752,0.8132 7.2245,1.1033 18.7246,0.9278 15.7479,-0.2403 16.8541,-0.3848 18.9336,-2.4668 1.645,-1.6469 2.3191,-3.7444 2.6426,-8.2168 0.6573,-9.0866 -0.3554,-12.8224 -4.1055,-15.1524 -2.1781,-1.3533 -3.7235,-1.7791 -10.625,-1.7988 z m -7.4004,2.7851 c 8.2541,0.047 16.4706,0.5578 17.2461,1.4922 0.7495,0.9031 1.0595,4.715 0.8731,10.75 l -0.2891,9.3516 -17.5605,0.2715 c -9.6586,0.1498 -17.8711,-0.037 -18.25,-0.416 -1.2273,-1.2272 -0.7794,-18.8652 0.5117,-20.1563 0.9246,-0.9246 9.2147,-1.3403 17.4687,-1.293 z"
         style="fill:#000000;fill-opacity:1"
         inkscape:connector-curvature="0" />
      <path
         id="path5338"
         d="m -575.72566,760.04832 -2.0742,2.6348 c -1.7237,2.1912 -2.0723,4.0503 -2.0723,11.0449 0,7.5964 0.2382,8.6483 2.4551,10.8652 2.4126,2.4126 2.7441,2.4551 19.3652,2.4551 15.5938,0 17.1152,-0.1611 19.5449,-2.0723 2.5136,-1.9772 2.6348,-2.5065 2.6348,-11.5 0,-13.7816 0.5782,-13.4277 -21.9277,-13.4277 l -17.9258,0 z m 18.3535,2 c 8.1735,0 15.4859,0.4569 16.5664,1.0352 1.7024,0.9111 1.9336,2.1654 1.9336,10.4648 0,8.2993 -0.2312,9.5537 -1.9336,10.4648 -2.505,1.3405 -31.0035,1.3022 -33.3164,-0.045 -1.4706,-0.8565 -1.75,-2.5218 -1.75,-10.4336 0,-8.285 0.2334,-9.5402 1.9355,-10.4511 1.0805,-0.5783 8.391,-1.0352 16.5645,-1.0352 z"
         style="fill:#000000;fill-opacity:1"
         inkscape:connector-curvature="0" />
      <path
         id="path5334"
         d="m -556.96196,728.04832 c -16.2741,0 -16.884,0.075 -19.5782,2.3926 -2.4924,2.1439 -2.8205,3.1645 -3.1582,9.8515 -0.4616,9.1421 1.2431,13.2407 6.0899,14.6407 5.3653,1.5498 29.2778,1.3327 33.1875,-0.3008 4.6446,-1.9407 5.5488,-4.1504 5.5488,-13.5664 0,-7.4893 -0.2021,-8.3009 -2.6445,-10.5645 -2.5904,-2.4002 -3.0004,-2.4531 -19.4453,-2.4531 z m 0.2558,3 c 19.5814,0 18.834,-0.4358 18.834,11 0,3.9223 -0.4658,8.0026 -1.0352,9.0664 -0.9602,1.7943 -2.2474,1.9336 -17.7988,1.9336 -11.706,0 -17.1269,-0.3613 -17.9648,-1.1992 -1.6207,-1.6207 -1.6207,-17.9809 0,-19.6016 0.8379,-0.8379 6.2588,-1.1992 17.9648,-1.1992 z"
         style="fill:#000000;fill-opacity:1"
         inkscape:connector-curvature="0" />
      <path
         d="m -488.81836,622.61222 c -0.7361,-0.8869 -1.0049,-8.4586 -0.8232,-23.1905 0.2606,-21.117 0.3391,-21.8736 2.2699,-21.8736 1.9332,0 2.009,0.7561 2.2685,22.6359 0.2252,18.9928 0.036,22.7252 -1.1769,23.1905 -0.795,0.3051 -1.9372,-0.038 -2.5383,-0.7623 z m -38,0 c -0.7361,-0.8869 -1.0049,-8.4586 -0.8232,-23.1905 0.2606,-21.117 0.3391,-21.8736 2.2699,-21.8736 1.9332,0 2.009,0.7561 2.2685,22.6359 0.2252,18.9928 0.036,22.7252 -1.1769,23.1905 -0.795,0.3051 -1.9372,-0.038 -2.5383,-0.7623 z m -37.9405,0.072 c -0.8116,-0.9779 -1.0727,-7.8593 -0.8827,-23.2623 0.2606,-21.117 0.3391,-21.8736 2.2699,-21.8736 1.9316,0 2.0092,0.7562 2.2688,22.112 0.2172,17.8738 0,22.3324 -1.1174,23.2623 -1.0587,0.8787 -1.6583,0.8224 -2.5386,-0.2384 z m 115.0091,1.086 c -1.365,-1.365 -1.5565,-43.4871 -0.2075,-45.6176 0.4861,-0.7677 1.6042,-1.1193 2.4847,-0.7814 1.4034,0.5386 1.6009,3.4417 1.6009,23.5387 0,18.5539 -0.2627,23.0252 -1.3781,23.4533 -0.758,0.2908 -1.883,0.024 -2.5,-0.593 z m 39,3 c -1.3658,-1.3658 -1.558,-45.4848 -0.2075,-47.6176 0.4861,-0.7677 1.6042,-1.1193 2.4847,-0.7814 1.4061,0.5396 1.6009,3.5248 1.6009,24.5387 0,19.4035 -0.2604,24.0244 -1.3781,24.4533 -0.758,0.2908 -1.883,0.024 -2.5,-0.593 z m -183.6244,-212.718 c -1.5544,0.041 -2.498,0.2644 -2.498,0.709 0,0.5497 2.3047,5.0031 5.1211,9.8945 11.248,19.5354 22.889,56.2335 25.3418,79.8926 0.3422,3.3 0.8408,7.4189 1.1074,9.1523 0.3193,2.0758 -0.058,3.6931 -1.1035,4.7383 -0.8729,0.8729 -14.4979,5.8004 -30.2773,10.9512 -33.7643,11.0214 -50.2764,17.3909 -66.6895,25.7226 -17.5207,8.8943 -41.5,23.872 -41.5,25.9219 0,1.0921 2.6297,2.0137 5.748,2.0137 1.4217,0 2.3414,0.2446 2.043,0.543 -0.2983,0.2984 -16.4602,4.5261 -35.916,9.3964 -50.212,12.5697 -83.8732,22.9443 -125.8164,38.7735 -11.9937,4.5263 -14.3042,6.8071 -5.9199,5.8437 2.9491,-0.3389 37.3113,-3.9634 76.3613,-8.0546 95.5408,-10.0097 125.8795,-12.7383 198,-17.8067 l 17,-1.1953 0.5,-18.7891 c 0.4052,-15.2265 0.7844,-18.9674 2,-19.7343 0.825,-0.5204 4.5065,-0.951 8.1797,-0.961 9.9423,-0.023 9.8203,-0.2758 9.8203,20.5957 l 0,17.4668 8.75,-0.289 8.75,-0.2891 0.5,-17.7891 c 0.403,-14.3361 0.7911,-17.9716 2,-18.7343 1.9463,-1.2279 14.0532,-1.2277 16,0 1.2052,0.7601 1.5982,4.343 2,18.2343 l 0.5,17.2891 8.5,0 8.5,0 0.5,-17.2891 c 0.4017,-13.8909 0.7948,-17.474 2,-18.2343 2.0225,-1.2762 13.6523,-1.2335 16.0664,0.059 1.8015,0.9641 1.9336,2.2604 1.9336,18.8925 0,15.0894 0.2374,17.9484 1.5273,18.4434 0.8396,0.3222 5.0784,0.882 9.42,1.2441 l 7.8945,0.6582 0.3281,-19.0547 c 0.1813,-10.4807 0.6927,-19.4165 1.1348,-19.8574 1.3388,-1.3354 14.247,-1.6718 16.5644,-0.4316 2.0703,1.1081 2.1309,1.7356 2.1309,21.9824 0,15.4967 0.3206,21.089 1.25,21.8008 2.1722,1.6637 16.7604,6.3999 17.7773,5.7715 0.5869,-0.3628 0.9727,-10.0891 0.9727,-24.5078 0,-27.418 -0.5273,-25.9766 9.5,-25.9766 10.17,0 9.5,-2.2435 9.5,31.8223 l 0,29.75 5.0293,3.7558 c 4.8489,3.62 6.9707,4.0002 6.9707,1.2481 0,-2.6455 7.0665,-15.1942 10.6914,-18.9864 7.8676,-8.2304 20.0304,-14.1048 36.8086,-17.7754 3.9875,-0.8722 13.2115,-1.2882 27.5,-1.2402 25.4571,0.085 47.7829,2.9765 72.5,9.3906 16.6674,4.3252 24.3471,5.6414 38.7852,6.6504 5.381,0.376 10.0474,1.1131 10.3711,1.6368 0.8438,1.3652 -12.0921,14.1537 -19.0352,18.8183 -6.7429,4.5301 -14.5247,7.1026 -30.0645,9.9356 -14.2634,2.6003 -14.9579,2.5869 -14.1484,-0.2559 0.3524,-1.2375 0.9117,-3.4875 1.2422,-5 l 0.5996,-2.75 -14.625,0 c -9.4147,0 -14.625,-0.3688 -14.625,-1.0352 0,-0.5693 0.7135,-2.1235 1.5859,-3.455 0.8724,-1.3315 1.3363,-2.8275 1.0293,-3.3243 -0.3069,-0.4967 -6.8845,-1.132 -14.6172,-1.4101 -7.7327,-0.2781 -14.3602,-0.8036 -14.7265,-1.1699 -0.3664,-0.3663 0.098,-1.9604 1.0312,-3.5411 0.9336,-1.5803 1.6973,-3.2047 1.6973,-3.6093 0,-0.4045 -6.1875,-0.4889 -13.75,-0.1875 -10.0178,0.3993 -15.2429,1.0809 -19.25,2.5117 -7.1227,2.5432 -13.1842,6.1647 -12.7109,7.5937 0.2262,0.6832 5.5467,1.5456 13.5234,2.1914 7.2329,0.5858 13.4817,1.3957 13.8848,1.7989 0.4032,0.4032 0.1832,1.4993 -0.4883,2.4355 -2.0853,2.9067 -2.508,4.3025 -1.582,5.2285 0.4908,0.4908 5.388,1.594 10.8828,2.4532 17.3847,2.7185 17.5477,2.8205 13.5605,8.4199 -1.0612,1.4903 -1.6237,3.187 -1.25,3.7695 0.3737,0.5826 5.4047,2.1483 11.1797,3.4805 11.5174,2.6568 10.9922,2.0889 9.4453,10.1816 l 0,0 -0.7344,3.832 4.8946,-0.6875 c 39.5547,-5.5585 70.2052,-18.918 99.0039,-43.1543 14.4748,-12.1817 36.8729,-31.7016 37.5996,-32.7676 1.0108,-1.483 0.5418,-1.7348 -12.209,-6.5273 -11.0721,-4.1616 -19.3855,-7.79 -62.1445,-27.1231 -33.3586,-15.0827 -60.4218,-25.6513 -83.8555,-32.75 -50.7295,-15.3674 -95.3013,-22.9931 -150.0918,-25.6777 -7.4762,-0.3664 -14.0364,-0.9616 -14.5762,-1.3223 -0.5398,-0.3608 -4.3034,-4.4812 -8.3652,-9.1562 -37.9032,-43.6261 -68.7372,-67.2884 -100.9668,-77.4863 -6.677,-2.113 -16.8385,-3.6329 -21.502,-3.5098 z m 42.9043,32.3242 c 0.7039,-0.083 4.2775,1.5032 8.2989,3.7031 22.1743,12.1299 40.0912,30.9173 59.7011,62.5997 6.3216,10.2134 6.5846,10.3609 18.4727,10.3789 15.502,0.024 47.6279,3.6481 67.125,7.5722 15.6207,3.1439 35,8.3803 35,9.4571 0,0.4465 -13.3875,0.5571 -29.75,0.2461 -88.9893,-1.6914 -171.8195,9.9269 -230.5859,32.3437 -10.3269,3.9392 -12.222,4.1654 -8.3438,0.9922 14.5312,-11.89 50.7075,-26.7474 91.6797,-37.6504 27.5126,-7.3212 26.4493,-6.962 24.8945,-8.4102 -0.7669,-0.7143 -4.7695,-2.5616 -8.8945,-4.1054 -4.125,-1.5437 -8.0509,-3.2937 -8.7246,-3.8907 -0.7108,-0.6295 -1.6569,-6.1172 -2.2539,-13.0742 -1.7219,-20.0631 -5.0817,-33.1446 -12.7617,-49.6914 -2.5092,-5.4061 -4.29,-10.1005 -3.959,-10.4316 0.021,-0.021 0.055,-0.034 0.1015,-0.039 z m 199.9844,111.0371 c 0.7515,0.088 5.1637,2.6535 10.25,5.9785 5.4254,3.5467 15.8258,9.2621 23.1133,12.7012 7.2875,3.4392 13.25,6.5818 13.25,6.9824 0,1.1965 -2.2821,2.6443 -6,3.8067 -6.1304,1.9166 -18.1503,2.3703 -21.5645,0.8144 -3.8888,-1.7721 -11.5498,-10.6945 -14.7421,-17.1699 -2.8898,-5.8618 -5.093,-12.4109 -4.4063,-13.0976 0.017,-0.017 0.05,-0.021 0.1,-0.016 z m -46.1456,155.5727 c -17.2098,-1.9475 -35.115,-6.544 -75.7406,-19.4439 -55.7242,-17.694 -75.0397,-21.7129 -104.5,-21.743 -23.5056,-0.024 -41.4159,3.4069 -61.7715,11.8331 -4.6555,1.9271 -8.9522,3.3413 -9.5483,3.1426 -1.3101,-0.4367 7.2636,-7.3758 16.6963,-13.5131 16.5355,-10.7587 33.8333,-17.3821 51.6235,-19.767 13.4617,-1.8046 21.5414,-1.7979 37.0061,0.031 16.164,1.9113 30.5886,5.5044 62.5263,15.5749 48.9458,15.4335 69.4269,20.4873 93.2953,23.0214 13.6904,1.4535 45.2899,0.6527 56.1723,-1.4236 4.125,-0.787 9.2453,-1.7662 11.3785,-2.1759 5.6478,-1.0847 4.44,1.0144 -3.9451,6.8568 -21.3935,14.9059 -45.6016,20.7294 -73.1928,17.607 z m -255.9911,-78.9008 c -17.746,0.8721 -88.6991,7.0116 -89.4258,7.7383 -1.1598,1.1598 -6.1923,18.6038 -7.9883,27.6875 -0.9809,4.9612 -2.1491,7.1187 -6.9511,12.8379 -10.9019,12.984 -20.1809,35.2362 -25.3086,60.6992 -2.8756,14.2797 -4.7821,32.0877 -3.5723,33.3613 0.8225,0.8658 15.9202,-7.5615 23.6426,-13.1972 3.6907,-2.6933 4.2267,-3.6121 4.8691,-8.3457 0.8176,-6.0248 4.2024,-15.8184 5.4668,-15.8184 0.4608,0 1.3684,3.2625 2.0176,7.25 4.9894,30.647 16.6357,55.5203 37.8105,80.75 7.7336,9.2145 21.6863,23.2646 31.4825,31.7012 l 4.7929,4.12688 -1.2441,15.336 c -1.6856,20.7847 -1.7066,72.3998 -0.035,85.8359 3.3913,27.2621 11.8393,56.6417 19.7676,68.75 l 0,0 c 0.8103,1.2375 1.8647,2.25 2.3418,2.25 0.4771,0 1.8669,-3.7125 3.0898,-8.25 11.4445,-42.4634 33.2327,-93.1461 44.6699,-103.9121 2.1286,-2.0037 5.1736,-3.162 12.3262,-4.6895 23.4052,-4.9985 31.4886,-5.647 69.5,-5.584 37.9155,0.063 49.9596,0.9821 85.7813,6.5586 7.5801,1.18 14.105,1.8203 14.5,1.4219 1.6712,-1.6858 -23.4292,-18.6688 -40.2813,-27.2539 -36.9286,-18.8128 -87.9681,-33.99798 -133.5,-39.71868 -21.5704,-2.7101 -18.9039,-1.5068 -27.9883,-12.6172 -21.2536,-25.9936 -34.2788,-51.725 -39.4629,-77.9551 -0.9239,-4.675 -1.9415,-9.4 -2.2617,-10.5 -1.3732,-4.7178 -2.1498,2.6332 -2.2148,21 -0.096,27.0984 1.9691,41.6211 8.8086,61.9746 1.657,4.9308 2.7648,9.2047 2.4628,9.4961 -1.4721,1.4204 -24.7697,-25.9831 -34.832,-40.9707 -7.0978,-10.5721 -17.5322,-31.8683 -20.8594,-42.5742 -11.9271,-38.3784 -4.9862,-73.5066 19.5782,-99.0879 9.0316,-9.4054 24.4709,-19.2614 38.248,-24.416 3.0367,-1.1362 5.5215,-2.4837 5.5215,-2.9942 0,-0.5104 -0.3375,-0.9106 -0.75,-0.8906 z m 27.8398,247.80658 c 11.0477,0.08 27.3427,0.7125 37.5645,1.6387 30.2129,2.7379 61.1233,7.167 59.6797,8.5508 -0.4581,0.4391 -12.534,1.2987 -26.834,1.9102 -24.2881,1.0387 -60.1049,4.1331 -63.5,5.4863 -0.825,0.3289 -5.55,6.9068 -10.5,14.6172 -12.0467,18.7649 -11.9987,18.7023 -12.834,16.5254 -2.0155,-5.2522 1.8595,-45.4298 4.6504,-48.2207 0.4059,-0.4059 5.1448,-0.556 11.7734,-0.5079 z"
         style="fill:#000000;fill-opacity:1"
         id="path5311"
         inkscape:connector-curvature="0" />
    </g>
  </g>
</svg>
