<?xml version="1.0" encoding="UTF-8" standalone="no"?>
<!-- Created with Inkscape (http://www.inkscape.org/) -->

<svg
   xmlns:dc="http://purl.org/dc/elements/1.1/"
   xmlns:cc="http://creativecommons.org/ns#"
   xmlns:rdf="http://www.w3.org/1999/02/22-rdf-syntax-ns#"
   xmlns:svg="http://www.w3.org/2000/svg"
   xmlns="http://www.w3.org/2000/svg"
   xmlns:sodipodi="http://sodipodi.sourceforge.net/DTD/sodipodi-0.dtd"
   xmlns:inkscape="http://www.inkscape.org/namespaces/inkscape"
   width="200"
   height="150"
   viewBox="0 0 200 150"
   id="svg2"
   version="1.1"
   inkscape:version="0.91 r13725"
   sodipodi:docname="Spartans.svg">
  <defs
     id="defs4">
    <pattern
       y="0"
       x="0"
       height="6"
       width="6"
       patternUnits="userSpaceOnUse"
       id="EMFhbasepattern" />
    <pattern
       y="0"
       x="0"
       height="6"
       width="6"
       patternUnits="userSpaceOnUse"
       id="EMFhbasepattern-5" />
  </defs>
  <sodipodi:namedview
     id="base"
     pagecolor="#ffffff"
     bordercolor="#666666"
     borderopacity="1.0"
     inkscape:pageopacity="0.0"
     inkscape:pageshadow="2"
     inkscape:zoom="1.979899"
     inkscape:cx="110.574"
     inkscape:cy="35.722924"
     inkscape:document-units="px"
     inkscape:current-layer="layer1"
     showgrid="false"
     fit-margin-top="0"
     fit-margin-left="0"
     fit-margin-right="0"
     fit-margin-bottom="0"
     units="px"
     inkscape:window-width="1440"
     inkscape:window-height="837"
     inkscape:window-x="1432"
     inkscape:window-y="-8"
     inkscape:window-maximized="1" />
  <metadata
     id="metadata7">
    <rdf:RDF>
      <cc:Work
         rdf:about="">
        <dc:format>image/svg+xml</dc:format>
        <dc:type
           rdf:resource="http://purl.org/dc/dcmitype/StillImage" />
        <dc:title></dc:title>
      </cc:Work>
    </rdf:RDF>
  </metadata>
  <g
     inkscape:label="Layer 1"
     inkscape:groupmode="layer"
     id="layer1"
     transform="translate(536.30539,-546.064)">
    <g
       id="g4246"
       transform="matrix(1.0253922,0,0,1.0253922,24.021054,73.571717)">
      <path
         style="fill:#ffffff;fill-opacity:1;fill-rule:nonzero;stroke:none"
         d="m -435.72663,460.79431 c -11.76867,-0.0847 -23.41034,1.94732 -33.90872,6.15944 -12.08617,4.86831 -24.55325,13.39842 -31.96153,22.14011 -3.04797,3.59833 -6.41344,8.59367 -8.14911,12.29783 -1.6933,3.59834 -3.64064,9.22867 -4.52961,13.10217 -2.62466,11.17572 -1.905,24.04505 1.82031,37.46472 2.75164,9.90572 2.9633,11.17572 2.75164,17.44105 -0.16934,4.7625 -0.55031,6.39233 -2.11664,9.60967 -0.889,1.79916 -0.93134,1.86266 -3.15381,4.02166 -1.48166,1.43934 -2.34949,2.26484 -3.13265,3.34434 -0.78316,1.0795 -1.26999,2.51883 -1.43932,3.45016 -0.33866,1.82034 0.0635,3.2385 0.65616,4.52939 0.59266,1.29116 1.41816,2.49766 2.92098,3.429 0.61383,0.381 1.69333,0.86783 2.68814,1.016 0.99483,0.14816 1.778,0.10583 2.8575,0.0423 10.54091,-0.48683 19.93877,-9.92688 24.38377,-21.90722 1.4605,-3.89466 2.26483,-7.45066 2.81517,-12.14966 0.254,-2.11667 0.6985,-5.99017 0.99483,-8.61484 0.59267,-5.14321 1.05833,-8.19121 1.4605,-9.67288 0.381,-1.48167 0.10583,-0.86783 0.27517,-0.9525 -0.10584,0.0423 0.127,0 0.33866,0 0.0847,0.381 0.14817,0.8255 0.21167,1.31233 0.33867,3.51367 1.22767,8.02217 2.32833,12.00122 1.88384,6.83683 2.2225,8.78417 2.2225,12.53067 0.0212,3.15383 -0.0423,3.66183 -0.80433,7.0485 -0.55033,2.51883 -0.889,4.23333 -0.9525,5.88433 -0.0423,1.651 0.4445,3.51367 1.24883,4.74133 0.80434,1.2065 2.032,2.3495 3.51367,2.96334 1.4605,0.61383 2.96333,0.6985 4.42383,0.5715 3.34434,-0.23284 9.84222,-1.651 13.88506,-2.81517 1.56633,-0.4445 4.86833,-1.41817 7.34483,-2.13783 3.89467,-1.12184 5.73617,-1.43934 6.81567,-1.31234 1.0795,0.127 2.30716,0.71967 5.207,2.64584 11.40855,7.53505 25.71721,15.28205 33.35838,17.58921 2.794,0.84667 5.63033,0.5715 8.14917,-0.33866 2.54,-0.93134 4.91066,-2.51884 6.26533,-5.18584 l 0,0 c 0.76172,-1.48166 0.90988,-2.794 0.95222,-4.16983 0.0423,-1.37583 -0.0423,-2.70933 -0.67705,-4.21188 -1.18534,-2.83634 -3.19617,-4.55084 -5.99017,-5.54567 -0.74083,-0.27517 -0.80433,-0.3175 -0.97367,-0.381 -0.0847,-0.3175 -0.381,-1.22767 -0.6985,-2.64583 -0.381,-1.67217 -0.78316,-3.7465 -1.16416,-5.7785 -0.35984,-2.032 -0.6985,-4.02167 -0.91017,-5.54567 -0.0635,-0.52917 -0.10583,-0.889 -0.14817,-1.27 0.14817,0 0.1905,-0.0635 1.4605,0.16933 2.54,0.42334 4.699,0.74084 6.4135,0.9525 1.7145,0.1905 2.49739,0.4445 4.31772,0.10584 1.82033,-0.33867 3.00567,-1.24884 3.97933,-2.286 0.99484,-1.03717 1.79917,-2.24367 2.0955,-4.0005 0.48684,-2.8575 -0.93133,-5.67267 -2.94216,-8.001 -4.445,-5.12205 -8.42405,-11.51439 -13.60989,-22.11889 -3.7465,-7.66233 -5.588,-10.71033 -8.61483,-14.05466 -6.90033,-7.64089 -15.3035,-12.17056 -26.39455,-14.35072 -0.61383,-0.127 -0.97367,-0.23284 -1.41817,-0.33867 0.0635,-0.10583 0.0635,-0.1905 0.14817,-0.27517 0.67733,-0.91016 1.7145,-1.79916 2.39183,-2.159 1.79917,-0.9525 2.18017,-1.05833 5.39722,-1.31233 1.67217,-0.127 3.09033,-0.23283 4.699,-1.0795 0.889,-0.48683 1.5875,-1.2065 2.13783,-1.9685 0.0847,0.0212 0.10584,0.0212 0.1905,0.0423 1.03717,0.3175 2.4765,0.84667 4.21217,1.56633 1.41817,0.5715 2.58233,1.01601 4.1275,1.10067 1.524,0.0847 3.19617,-0.55033 4.21217,-1.22767 0.4445,-0.29633 1.18533,-0.889 1.7145,-1.56633 0.508,-0.67733 0.93133,-1.397 1.43933,-2.37067 1.016,-1.94733 2.4765,-5.10116 5.22817,-11.07008 1.31233,-2.81514 2.30716,-5.0588 3.00566,-6.73094 0.35984,-0.84667 0.61384,-1.524 0.8255,-2.13783 0.21167,-0.59264 0.48684,-0.63498 0.48684,-2.22248 0,-1.7145 -1.31234,-4.33913 -3.02684,-5.52447 -1.69333,-1.1853 -3.683,-1.96847 -6.90033,-3.23847 -11.07017,-4.31793 -22.987,-6.51924 -34.75538,-6.60391 z"
         id="path4235"
         inkscape:connector-curvature="0" />
      <path
         style="fill:#2d3b3a;fill-opacity:1;fill-rule:nonzero;stroke:none"
         d="m -400.25158,602.88501 c -6.477,-1.94733 -21.209,-9.73638 -32.34239,-17.12355 -5.969,-3.937 -7.28133,-4.08516 -15.21883,-1.79916 -2.4765,0.71966 -5.7785,1.69333 -7.32367,2.13783 -3.683,1.05833 -10.75238,2.49767 -13.10188,2.68817 -2.2225,0.16933 -3.47134,-0.35984 -4.46617,-1.8415 -0.86783,-1.31234 -0.8255,-2.77284 0.254,-7.6835 0.78317,-3.47134 0.91017,-4.61434 0.91017,-7.874 -0.0212,-4.04284 -0.46567,-6.62517 -2.37067,-13.54667 -1.03717,-3.74622 -1.905,-8.19122 -2.2225,-11.36622 -0.14817,-1.41816 -0.4445,-2.75166 -0.6985,-3.15383 -1.05833,-1.5875 -3.83117,-2.13783 -5.60917,-1.10067 -1.8415,1.10067 -2.39183,3.15384 -3.59833,13.50434 -0.29633,2.64555 -0.74083,6.51905 -0.99483,8.61455 -0.52917,4.48733 -1.24884,7.62 -2.6035,11.26066 -4.02158,10.83734 -12.86919,19.02855 -20.95478,19.40955 -2.07433,0.10584 -2.54,0.0423 -3.34433,-0.46566 -1.20647,-0.76172 -2.09547,-2.68789 -1.84147,-4.00022 0.29633,-1.54517 0.59267,-1.94733 3.4713,-4.7625 2.30714,-2.26483 2.94214,-3.06917 3.91581,-5.08 1.75683,-3.57717 2.3283,-6.1595 2.5188,-11.176 0.21167,-6.4135 -0.127,-8.61483 -2.8998,-18.60522 -3.57714,-12.93283 -4.19097,-25.16716 -1.77797,-35.55972 0.8043,-3.429 2.79397,-9.16516 4.27561,-12.34016 1.43933,-3.09034 4.82597,-8.17034 7.59877,-11.45117 6.81564,-8.02205 19.00756,-16.44633 30.47989,-21.03947 19.95989,-8.02209 44.61877,-7.85276 65.82777,0.4445 6.32883,2.4765 7.47183,3.25964 7.47183,5.18581 0,0.61383 -1.35466,3.9158 -3.937,9.48258 -5.50333,11.91675 -5.9055,12.67875 -7.02733,13.41958 -1.29117,0.84667 -2.20133,0.80433 -4.78367,-0.23283 -3.59833,-1.4605 -6.0325,-2.2225 -7.02733,-2.2225 -0.80433,0 -1.016,0.127 -1.3335,0.91016 -0.762,1.8415 -1.54517,2.24367 -4.61433,2.49767 -3.38639,0.254 -4.78339,0.59267 -6.90005,1.73567 -2.68817,1.41816 -5.29167,4.84716 -5.29167,6.985 0,1.5875 0.84667,2.05316 5.22817,2.921 10.49838,2.07433 17.88555,6.096 24.27788,13.16538 2.81517,3.1115 4.318,5.588 8.04333,13.18684 5.24934,10.75266 9.398,17.4625 14.13905,22.94438 1.7145,1.98967 2.30717,3.3655 2.07434,4.84717 -0.23284,1.37583 -1.69334,2.89983 -3.00567,3.15383 -0.93133,0.16933 -4.40238,-0.23283 -9.39772,-1.0795 -1.86266,-0.3175 -2.794,-0.35983 -3.57716,-0.14817 -1.12184,0.29634 -2.11667,1.3335 -2.413,2.4765 -0.33867,1.31234 2.37066,16.002 3.38666,18.45734 0.40217,0.97366 0.8255,1.24883 3.1115,2.05316 1.54517,0.55034 3.175,2.032 3.7465,3.429 0.5715,1.37555 0.48684,3.87322 -0.16933,5.16439 -1.50283,2.96333 -6.24417,4.67783 -9.88483,3.57716 z m 1.12183,-4.699 c 0,-0.16933 -0.635,-2.68816 -1.397,-5.63005 -3.175,-11.8745 -4.55083,-20.97616 -5.31283,-34.8615 l -0.1905,-3.66155 -3.53484,-0.16933 c -2.75166,-0.14817 -4.02166,-0.35983 -5.7785,-0.9525 -3.02683,-1.016 -6.20183,-2.70933 -7.874,-4.16983 -1.22738,-1.0795 -1.35438,-1.29117 -1.05833,-1.82034 0.16933,-0.33866 1.10067,-1.12183 2.05317,-1.75683 4.78366,-3.19617 11.6205,-3.2385 16.48883,-0.0847 4.3815,2.83633 6.45583,7.13317 6.81567,14.11788 0.14816,3.28084 0.21166,3.49251 0.80433,3.72534 1.0795,0.42333 11.38767,2.07433 11.59933,1.88383 0.10584,-0.10583 -0.0847,-0.55033 -0.42333,-0.97366 -2.49767,-3.09034 -6.26533,-8.36056 -7.95867,-11.15456 -1.12183,-1.82033 -4.04283,-7.366 -6.49816,-12.319 -4.91067,-9.8425 -6.26534,-11.938 -10.07534,-15.57866 -5.334,-5.10117 -11.57816,-8.12772 -20.10805,-9.73639 -10.64683,-2.01083 -18.923,-0.65617 -26.52183,4.38122 -2.3495,1.54517 -5.92639,5.12233 -7.85255,7.8105 -3.97934,5.60917 -5.99017,11.2395 -5.99017,16.91217 0,4.0005 0.4445,6.477 2.413,13.67338 0.86783,3.15384 1.778,6.77334 1.98967,8.04334 0.78316,4.40266 0.4445,9.652 -1.016,15.8115 -0.33867,1.37583 -0.48684,2.58233 -0.35984,2.7305 0.55034,0.52916 8.42406,-1.2065 18.52056,-4.10634 3.53483,-1.016 7.91633,-2.159 9.69433,-2.56116 2.96333,-0.67734 3.302,-0.6985 3.85233,-0.29634 0.33867,0.23284 1.778,1.29117 3.21734,2.32834 5.79966,4.2545 17.01771,10.90083 25.61138,15.17621 6.13833,3.048 8.89,4.064 8.89,3.2385 z m -108.9229,-7.95838 c 5.52447,-1.62983 11.32408,-8.10683 14.26622,-15.91733 1.03716,-2.75167 1.98966,-7.02734 2.53991,-11.38767 0.59267,-4.7625 0.4445,-8.31822 -0.71958,-16.93305 -1.524,-11.2395 -1.41817,-14.986 0.59258,-20.99733 4.74133,-14.26606 17.50483,-26.26756 33.54889,-31.60156 7.83166,-2.6035 13.843,-3.429 22.96583,-3.21733 8.40317,0.21167 15.36672,1.54517 23.05022,4.42383 2.01083,0.74084 3.7465,1.27 3.89466,1.18534 0.35984,-0.23284 8.78417,-18.309 8.97467,-19.2615 0.14817,-0.6985 0.0212,-0.78317 -3.02683,-2.07433 -19.38867,-8.19142 -40.25872,-9.08042 -60.11305,-2.58231 -8.31822,2.73047 -18.37239,8.23378 -25.14572,13.80056 -7.45058,6.11708 -11.57803,11.04891 -14.92236,17.84341 -2.37064,4.826 -3.95814,9.54617 -4.95295,14.73172 -0.67733,3.40783 -0.76199,4.6355 -0.78316,9.82133 -0.0423,8.17034 0.78316,13.22917 4.02164,24.59567 2.2648,7.97955 2.8998,13.14422 2.30714,19.15555 -0.71967,7.47183 -3.19614,13.05983 -7.59878,17.12383 -0.93133,0.86784 -1.60864,1.651 -1.52397,1.75684 0.16933,0.16933 0.97364,0.0212 2.62464,-0.46567 z m 20.23513,-47.37072 c 0.0847,-0.3175 0.65617,-1.60866 1.24883,-2.83633 1.88384,-3.89467 4.8895,-6.2865 8.97467,-7.112 1.79917,-0.35983 2.56117,-0.93133 2.56117,-1.905 0,-0.65617 -0.0635,-0.65617 -6.43467,-1.56633 -3.302,-0.46567 -5.54567,-0.65617 -5.715,-0.508 -0.8255,0.84666 -1.905,14.52033 -1.143,14.52033 0.1905,0 0.42333,-0.27517 0.508,-0.59267 z m 15.0495,-16.65816 c 0.33867,-0.635 0.48683,-1.27 0.35983,-1.397 -0.127,-0.127 -1.12183,-0.55034 -2.20133,-0.97367 -3.34433,-1.24883 -9.69433,-3.51367 -9.88483,-3.51367 -0.21167,0 -1.43934,2.68817 -1.67217,3.72534 -0.21167,0.97366 0.127,1.143 3.51367,1.73566 1.4605,0.27517 3.8735,0.71967 5.35516,0.99484 3.91584,0.762 3.85234,0.762 4.52967,-0.5715 z m 3.47133,-4.42384 c 0.40217,-0.4445 0.74084,-0.97366 0.74084,-1.2065 0,-0.23283 -1.16417,-1.24883 -2.58234,-2.24366 -1.43933,-1.01572 -3.81,-2.68789 -5.29166,-3.72506 -1.4605,-1.05833 -2.87867,-1.905 -3.1115,-1.905 -0.48684,0 -2.83634,3.32317 -2.83634,4.0005 0,0.4445 10.77384,5.79939 11.72634,5.84172 0.3175,0.0212 0.93133,-0.33866 1.35466,-0.762 z m 4.7625,-4.44472 c 0.84667,-0.80433 1.016,-1.12183 0.80434,-1.48166 -0.14817,-0.27517 -2.3495,-2.62467 -4.86834,-5.24934 l -4.61433,-4.74133 -1.18533,0.9525 c -0.67734,0.52917 -1.60867,1.43933 -2.0955,2.032 l -0.889,1.0795 0.9525,0.74083 c 2.87866,2.24367 10.32933,7.64089 10.56216,7.66206 0.14817,0 0.762,-0.44422 1.3335,-0.99456 z m 5.58772,-3.38666 c 0.61384,-0.381 1.12184,-0.80434 1.10067,-0.91017 0,-0.10583 -1.56633,-2.81517 -3.47133,-5.99017 -2.41272,-4.064 -3.59806,-5.82083 -4.00022,-5.86316 -0.8255,-0.127 -4.99534,2.413 -4.80484,2.921 0.27517,0.71966 9.31306,10.56216 9.69406,10.56216 0.1905,0 0.86783,-0.3175 1.48166,-0.71966 z m 6.26534,-2.64584 c 0.46566,-0.16933 0.78316,-0.508 0.78316,-0.80433 0,-0.29633 -0.65616,-2.6035 -1.43933,-5.16467 -0.80433,-2.56116 -1.651,-5.31283 -1.88383,-6.13833 -0.23284,-0.84667 -0.61384,-1.5875 -0.8255,-1.67217 -0.78317,-0.29633 -5.73617,1.4605 -5.73617,2.05317 0,0.3175 1.79917,3.72533 5.56683,10.541 0.9525,1.69333 1.03717,1.778 1.88384,1.651 0.48683,-0.0847 1.22766,-0.29633 1.651,-0.46567 z m 6.49816,-1.60866 c 0.42334,-0.127 0.48684,-0.55034 0.48684,-3.302 0,-1.73567 0.0847,-4.953 0.1905,-7.1755 0.16933,-3.59834 0.14816,-4.02167 -0.27517,-4.191 -0.52917,-0.1905 -5.48217,0.61383 -6.096,1.016 -0.33867,0.1905 -0.35983,0.46566 -0.0847,1.60866 0.1905,0.74084 0.889,3.72534 1.5875,6.62517 0.67733,2.89983 1.3335,5.41867 1.43933,5.60917 0.1905,0.29633 1.37584,0.21166 2.75167,-0.1905 z m 6.5405,-2.2225 c 0.9525,-2.9845 1.75684,-4.33917 3.81,-6.37117 2.58234,-2.6035 5.715,-4.0005 10.287,-4.6355 0.97367,-0.127 1.29089,-0.27517 1.0795,-0.48683 -0.91016,-0.91017 -12.8905,-2.2225 -15.72683,-1.73567 l -1.397,0.254 -0.254,7.3025 c -0.254,7.747 -0.254,7.89517 1.05833,7.72583 0.381,-0.0635 0.6985,-0.635 1.143,-2.05316 z"
         id="path4237"
         inkscape:connector-curvature="0" />
    </g>
  </g>
</svg>
