<?xml version="1.0" encoding="UTF-8" standalone="no"?>
<!-- Created with Inkscape (http://www.inkscape.org/) -->

<svg
   xmlns:dc="http://purl.org/dc/elements/1.1/"
   xmlns:cc="http://creativecommons.org/ns#"
   xmlns:rdf="http://www.w3.org/1999/02/22-rdf-syntax-ns#"
   xmlns:svg="http://www.w3.org/2000/svg"
   xmlns="http://www.w3.org/2000/svg"
   xmlns:sodipodi="http://sodipodi.sourceforge.net/DTD/sodipodi-0.dtd"
   xmlns:inkscape="http://www.inkscape.org/namespaces/inkscape"
   width="200"
   height="150"
   viewBox="0 0 200 150"
   id="svg2"
   version="1.1"
   inkscape:version="0.91 r13725"
   sodipodi:docname="Steelers.svg">
  <defs
     id="defs4">
    <pattern
       y="0"
       x="0"
       height="6"
       width="6"
       patternUnits="userSpaceOnUse"
       id="EMFhbasepattern" />
    <pattern
       y="0"
       x="0"
       height="6"
       width="6"
       patternUnits="userSpaceOnUse"
       id="EMFhbasepattern-5" />
    <pattern
       y="0"
       x="0"
       height="6"
       width="6"
       patternUnits="userSpaceOnUse"
       id="EMFhbasepattern-52" />
    <pattern
       y="0"
       x="0"
       height="6"
       width="6"
       patternUnits="userSpaceOnUse"
       id="EMFhbasepattern-2" />
    <pattern
       y="0"
       x="0"
       height="6"
       width="6"
       patternUnits="userSpaceOnUse"
       id="EMFhbasepattern-1" />
    <pattern
       y="0"
       x="0"
       height="6"
       width="6"
       patternUnits="userSpaceOnUse"
       id="EMFhbasepattern-8" />
    <pattern
       y="0"
       x="0"
       height="6"
       width="6"
       patternUnits="userSpaceOnUse"
       id="EMFhbasepattern-4" />
    <inkscape:path-effect
       effect="spiro"
       id="path-effect5209"
       is_visible="true" />
    <inkscape:path-effect
       effect="spiro"
       id="path-effect5205"
       is_visible="true" />
    <inkscape:path-effect
       effect="spiro"
       id="path-effect4424"
       is_visible="true" />
    <inkscape:path-effect
       effect="spiro"
       id="path-effect4427"
       is_visible="true" />
    <inkscape:path-effect
       effect="spiro"
       id="path-effect4421"
       is_visible="true" />
    <inkscape:path-effect
       effect="spiro"
       id="path-effect4418"
       is_visible="true" />
    <inkscape:path-effect
       effect="spiro"
       id="path-effect4415"
       is_visible="true" />
    <inkscape:path-effect
       effect="spiro"
       id="path-effect4412"
       is_visible="true" />
    <inkscape:path-effect
       effect="spiro"
       id="path-effect4409"
       is_visible="true" />
    <inkscape:path-effect
       effect="spiro"
       id="path-effect4406"
       is_visible="true" />
    <inkscape:path-effect
       effect="spiro"
       id="path-effect4403"
       is_visible="true" />
    <inkscape:path-effect
       effect="spiro"
       id="path-effect4400"
       is_visible="true" />
    <inkscape:path-effect
       effect="spiro"
       id="path-effect4397"
       is_visible="true" />
    <inkscape:path-effect
       bendpath3-nodetypes="cc"
       bendpath1-nodetypes="cc"
       bendpath4="m 3891.1499,385.42868 0,249.32803"
       bendpath3="m 3891.1499,634.75671 c 295.7883,-59.23432 591.5766,-30.4308 887.3649,0"
       bendpath2="m 4778.5148,385.42868 0,249.32803"
       bendpath1="m 3891.1499,385.42868 c 288.2315,50.03249 570.3325,87.45506 887.3649,0"
       xx="true"
       yy="true"
       is_visible="true"
       id="path-effect4351"
       effect="envelope" />
  </defs>
  <sodipodi:namedview
     id="base"
     pagecolor="#ffffff"
     bordercolor="#666666"
     borderopacity="1.0"
     inkscape:pageopacity="0.0"
     inkscape:pageshadow="2"
     inkscape:zoom="0.98994949"
     inkscape:cx="-126.1553"
     inkscape:cy="109.7295"
     inkscape:document-units="px"
     inkscape:current-layer="layer1"
     showgrid="false"
     fit-margin-top="0"
     fit-margin-left="0"
     fit-margin-right="0"
     fit-margin-bottom="0"
     units="px"
     inkscape:window-width="1440"
     inkscape:window-height="837"
     inkscape:window-x="1432"
     inkscape:window-y="-8"
     inkscape:window-maximized="1" />
  <metadata
     id="metadata7">
    <rdf:RDF>
      <cc:Work
         rdf:about="">
        <dc:format>image/svg+xml</dc:format>
        <dc:type
           rdf:resource="http://purl.org/dc/dcmitype/StillImage" />
        <dc:title></dc:title>
      </cc:Work>
    </rdf:RDF>
  </metadata>
  <g
     inkscape:label="Layer 1"
     inkscape:groupmode="layer"
     id="layer1"
     transform="translate(536.30539,-546.064)">
    <g
       id="g4246"
       transform="matrix(0.57363614,0,0,0.57363614,-244.55324,244.95493)">
      <path
         inkscape:export-ydpi="150.05879"
         inkscape:export-xdpi="150.05879"
         inkscape:export-filename="/home/chrx/Sites/sjtfl-env/sjtfl/static/img/Steelers.png"
         id="path4297"
         d="m -329.46493,524.9164 c -14.5972,0.2917 -12.4287,-0.2743 -19.207,1.4903 -5.0475,1.1111 -9.8873,2.2107 -14.6016,3.9804 -10.7231,4.0252 -20.5125,10.3485 -28.6308,18.4668 -8.4318,8.4318 -14.5488,18.5232 -18.5,30.2442 -7.9078,23.461 -4.8937,50.8791 7.291,72.8086 3.4718,6.2487 8.0766,11.9499 13.5859,17.25 a 2.8254874,2.8254874 0 0 1 -1.9589,4.8593 l -5.0157,0 c -8.6587,0 -15.6569,6.8946 -15.789,15.5528 l -0.2285,15.1426 c -0.2737,18.309 5.2065,38.1484 16.2695,52.5566 9.8682,12.8521 25.8263,29.1348 64.2558,29.1348 23.7317,0 40.5791,-8.0093 52.5567,-19.4454 11.966,-11.425 19.0286,-26.4023 22.5039,-40.2929 3.4636,-15.2673 3.2853,-31.2426 0.3672,-46.1055 -3.7342,-19.0177 -12.8308,-35.9865 -26.0684,-48.8047 a 2.8254874,2.8254874 0 0 1 1.9258,-4.8535 c 0.9746,-0.014 2.152,0 2.9063,-0.021 a 2.8254874,2.8254874 0 0 1 0.01,0 c 2.0531,-0.042 3.8222,-0.094 5.3613,-0.1738 0.7782,-0.04 1.4415,-0.079 2.2676,-0.1621 0.6086,-0.061 1.2211,0.053 1.3145,0.07 0.093,0.017 -0.1481,-3e-4 -0.09,-0.01 0.1154,-0.011 1.1803,-0.2261 3.5899,-1.1484 a 2.8254874,2.8254874 0 0 1 0.049,-0.021 c 8.5629,-3.291 9.3385,-8.1518 10.3555,-11.4824 0.8703,-2.8501 0.977,-4.5654 1.0957,-6.6231 0.227,-3.9367 -0.023,-7.6393 -0.4942,-11.7792 -0.9433,-8.2801 -2.6279,-16.9829 -5.8906,-25.0606 -8.3527,-20.6804 -25.068,-36.2211 -46.1582,-42.5898 -4.7654,-1.4393 -15.4158,-2.6147 -15.5098,-2.625 -0.084,-0.01 -5.1586,-0.315 -7.5625,-0.3614 z m 64.9395,100.3536 c -0.012,6e-4 -0.056,0.01 -0.066,0.01 a 2.8254874,2.8254874 0 0 1 0.066,-0.01 z m -2.0645,1.1718 c -0.085,0.1006 0.233,-0.3785 0,0 z"
         style="fill:#f9f9f9"
         inkscape:connector-curvature="0" />
      <path
         inkscape:export-ydpi="150.05879"
         inkscape:export-xdpi="150.05879"
         inkscape:export-filename="/home/chrx/Sites/sjtfl-env/sjtfl/static/img/Steelers.png"
         style="fill:#800080;fill-opacity:1"
         d="m -344.93356,769.9816 c -20.6524,-2.9781 -38.1189,-14.6274 -46.05,-30.7128 -5.0136,-10.1669 -6.0183,-16.1697 -5.747,-34.3186 l 0.2292,-15.1435 23.7052,0 23.7059,0 0.5028,8.9322 c 0.621,10.9298 2.6077,15.6151 7.8054,18.3995 1.8276,0.979 3.5999,2.1545 3.9385,2.6122 0.3401,0.4584 0.6211,11.7047 0.6285,24.9946 0,24.1104 -0.2366,26.3624 -2.8569,26.0578 -0.4806,-0.074 -3.1194,-0.4288 -5.8638,-0.8214 z m 18.0321,0.281 c -0.7246,-0.244 -0.9811,-6.9041 -0.9811,-25.5144 l 0,-25.1876 3.9511,-2.0066 c 4.3178,-2.1922 7.6937,-7.3418 7.6937,-11.7358 0,-3.6569 -2.9049,-8.4848 -7.4734,-12.419 l -4.1707,-3.591 0,-32.7512 -7e-4,-32.7512 2.5345,0.5028 c 3.4631,0.695 13.1442,5.0084 18.9105,8.4293 17.9197,10.632 30.0636,28.4268 34.3711,50.3649 1.5659,7.9754 1.3981,32.2218 -0.2736,39.5843 -6.0198,26.5081 -23.4937,43.3284 -48.5312,46.7154 -2.777,0.3771 -5.4905,0.5397 -6.0302,0.3549 z m -19.9323,-90.815 c -19.6572,-10.4345 -36.4391,-24.3455 -42.4744,-35.2081 -9.3861,-16.8927 -12.0145,-42.6511 -6.1337,-60.0984 3.4136,-10.1262 7.6383,-17.0577 14.7043,-24.1237 6.4656,-6.4656 14.5076,-11.6537 23.0146,-14.847 6.1781,-2.3193 19.4103,-5.032 20.6894,-4.2416 0.5249,0.3253 0.8332,8.8671 0.8332,22.9629 l 0,22.4475 -2.618,1.4166 c -7.6797,4.1559 -11.2242,10.1247 -10.4981,17.6802 0.4732,4.9463 3.7419,10.1646 8.1565,13.0304 1.5837,1.0277 3.3478,2.2646 3.9201,2.7482 0.797,0.6728 1.0395,8.0508 1.0395,31.6214 0,28.7306 -0.096,30.7424 -1.4558,30.7269 -0.8007,0 -4.9307,-1.8602 -9.1776,-4.1153 z m 34.2314,-68.8694 c -0.5175,-0.3401 -1.2133,-2.9862 -1.5467,-5.8882 -0.8917,-7.7588 -3.9896,-13.1465 -9.1599,-15.9338 l -4.1574,-2.2418 0,-22.7921 0,-22.7921 5.2739,0.1479 c 2.9012,0.081 7.9539,0.959 11.2293,1.9482 17.1552,5.1799 29.1853,16.3117 36.0827,33.3885 4.5655,11.3033 7.0475,33.0884 3.906,34.2935 -1.8839,0.7246 -40.5018,0.5989 -41.6279,-0.1331 z"
         id="path4294"
         inkscape:connector-curvature="0"
         sodipodi:nodetypes="ccccccccccccccsccsccccccscccccccsccscccccsccccccccccsccc" />
    </g>
  </g>
</svg>
