<?xml version="1.0" encoding="UTF-8" standalone="no"?>
<!-- Created with Inkscape (http://www.inkscape.org/) -->

<svg
   xmlns:dc="http://purl.org/dc/elements/1.1/"
   xmlns:cc="http://creativecommons.org/ns#"
   xmlns:rdf="http://www.w3.org/1999/02/22-rdf-syntax-ns#"
   xmlns:svg="http://www.w3.org/2000/svg"
   xmlns="http://www.w3.org/2000/svg"
   xmlns:sodipodi="http://sodipodi.sourceforge.net/DTD/sodipodi-0.dtd"
   xmlns:inkscape="http://www.inkscape.org/namespaces/inkscape"
   width="200"
   height="150"
   viewBox="0 0 200 150"
   id="svg2"
   version="1.1"
   inkscape:version="0.91 r13725"
   sodipodi:docname="Storm.svg">
  <defs
     id="defs4">
    <pattern
       y="0"
       x="0"
       height="6"
       width="6"
       patternUnits="userSpaceOnUse"
       id="EMFhbasepattern" />
    <pattern
       y="0"
       x="0"
       height="6"
       width="6"
       patternUnits="userSpaceOnUse"
       id="EMFhbasepattern-5" />
    <pattern
       y="0"
       x="0"
       height="6"
       width="6"
       patternUnits="userSpaceOnUse"
       id="EMFhbasepattern-52" />
    <pattern
       y="0"
       x="0"
       height="6"
       width="6"
       patternUnits="userSpaceOnUse"
       id="EMFhbasepattern-2" />
    <pattern
       y="0"
       x="0"
       height="6"
       width="6"
       patternUnits="userSpaceOnUse"
       id="EMFhbasepattern-1" />
    <pattern
       y="0"
       x="0"
       height="6"
       width="6"
       patternUnits="userSpaceOnUse"
       id="EMFhbasepattern-8" />
    <pattern
       y="0"
       x="0"
       height="6"
       width="6"
       patternUnits="userSpaceOnUse"
       id="EMFhbasepattern-4" />
    <inkscape:path-effect
       effect="spiro"
       id="path-effect5209"
       is_visible="true" />
    <inkscape:path-effect
       effect="spiro"
       id="path-effect5205"
       is_visible="true" />
    <inkscape:path-effect
       effect="spiro"
       id="path-effect4424"
       is_visible="true" />
    <inkscape:path-effect
       effect="spiro"
       id="path-effect4427"
       is_visible="true" />
    <inkscape:path-effect
       effect="spiro"
       id="path-effect4421"
       is_visible="true" />
    <inkscape:path-effect
       effect="spiro"
       id="path-effect4418"
       is_visible="true" />
    <inkscape:path-effect
       effect="spiro"
       id="path-effect4415"
       is_visible="true" />
    <inkscape:path-effect
       effect="spiro"
       id="path-effect4412"
       is_visible="true" />
    <inkscape:path-effect
       effect="spiro"
       id="path-effect4409"
       is_visible="true" />
    <inkscape:path-effect
       effect="spiro"
       id="path-effect4406"
       is_visible="true" />
    <inkscape:path-effect
       effect="spiro"
       id="path-effect4403"
       is_visible="true" />
    <inkscape:path-effect
       effect="spiro"
       id="path-effect4400"
       is_visible="true" />
    <inkscape:path-effect
       effect="spiro"
       id="path-effect4397"
       is_visible="true" />
    <inkscape:path-effect
       bendpath3-nodetypes="cc"
       bendpath1-nodetypes="cc"
       bendpath4="m 3891.1499,385.42868 0,249.32803"
       bendpath3="m 3891.1499,634.75671 c 295.7883,-59.23432 591.5766,-30.4308 887.3649,0"
       bendpath2="m 4778.5148,385.42868 0,249.32803"
       bendpath1="m 3891.1499,385.42868 c 288.2315,50.03249 570.3325,87.45506 887.3649,0"
       xx="true"
       yy="true"
       is_visible="true"
       id="path-effect4351"
       effect="envelope" />
  </defs>
  <sodipodi:namedview
     id="base"
     pagecolor="#ffffff"
     bordercolor="#666666"
     borderopacity="1.0"
     inkscape:pageopacity="0.0"
     inkscape:pageshadow="2"
     inkscape:zoom="0.98994949"
     inkscape:cx="-126.1553"
     inkscape:cy="109.7295"
     inkscape:document-units="px"
     inkscape:current-layer="layer1"
     showgrid="false"
     fit-margin-top="0"
     fit-margin-left="0"
     fit-margin-right="0"
     fit-margin-bottom="0"
     units="px"
     inkscape:window-width="1440"
     inkscape:window-height="837"
     inkscape:window-x="1432"
     inkscape:window-y="-8"
     inkscape:window-maximized="1" />
  <metadata
     id="metadata7">
    <rdf:RDF>
      <cc:Work
         rdf:about="">
        <dc:format>image/svg+xml</dc:format>
        <dc:type
           rdf:resource="http://purl.org/dc/dcmitype/StillImage" />
        <dc:title></dc:title>
      </cc:Work>
    </rdf:RDF>
  </metadata>
  <g
     inkscape:label="Layer 1"
     inkscape:groupmode="layer"
     id="layer1"
     transform="translate(536.30539,-546.064)">
    <g
       id="g4215"
       transform="matrix(0.2184724,0,0,0.2184724,-295.74428,483.77949)">
      <path
         d="m 4707.791,314.39062 c 0,0 -6.2386,0.005 -6.9043,0.17774 -0.6656,0.17231 -1.552,0.40112 -2.4394,0.63086 -0.8875,0.22974 -1.7758,0.46049 -2.4414,0.63281 -0.6657,0.17232 -1.1094,0.28711 -1.1094,0.28711 a 10.771403,10.771403 0 0 0 -4.5059,2.41992 c 0,0 -0.1979,0.2592 -0.2402,0.31446 -12.1239,2.0287 -24.277,4.10391 -36.4102,6.39257 -7.0155,1.32348 -12.7792,7.64437 -13.4511,14.75196 -0.9157,9.68282 -6.6112,33.34558 -13.1211,56.91211 -0.4337,1.56996 -0.8321,2.93526 -1.2657,4.49414 -5.9862,-21.27524 -13.148,-41.39959 -24.207,-56.38672 -3.7033,-5.01819 -10.4032,-7.62929 -16.5254,-6.43946 -19.9003,3.8681 -39.4431,7.57144 -59.3457,11.04102 a 10.771403,10.771403 0 0 0 -0,0 c -9.2026,1.60542 -15.7256,12.14998 -13.0547,21.10156 1.3324,4.46577 2.3382,12.89392 2.6699,22.78516 0.2703,8.06085 7.3797,15.09563 15.2969,15.91406 -0.01,1.67261 -0.014,2.60797 -0.024,4.4961 -0.068,14.25364 -0.1522,33.58153 -0.2363,53.10156 -0.084,19.5196 -0.1695,39.2294 -0.2422,54.23828 -0.018,3.70055 -0.033,6.00203 -0.049,9.05664 -3.7663,0.28894 -7.3536,1.93858 -10.1328,4.52734 -2.9267,-3.2274 -7.0004,-5.41239 -11.3653,-5.60937 0.3537,-16.29039 0.3877,-34.40957 0.4043,-49.96875 0,-3.90237 -1.5079,-7.72355 -4.0195,-10.70508 2.5373,-2.96166 4.0711,-6.7785 4.0957,-10.68164 0.1463,-23.01936 0.83,-51.71046 -0.2578,-68.77344 -0.3557,-5.56943 -3.7274,-10.85496 -8.6289,-13.52344 a 10.771403,10.771403 0 0 0 -0,-0.002 c -12.2158,-6.64721 -25.0831,-11.87991 -38.6738,-15.03515 a 10.771403,10.771403 0 0 0 -0,0 c -1.0758,-0.24944 -2.1774,-0.39065 -3.2813,-0.42188 l -0.01,0 c -0.8644,-0.0247 -1.7303,0.0188 -2.5879,0.12891 a 10.771403,10.771403 0 0 0 -0.016,0.002 c -39.0989,5.07813 -77.4069,8.28701 -116.5957,9.31641 -7.8806,0.20748 -14.7459,7.00038 -15.9082,14.67187 -11.3831,-5.84014 -22.8234,-10.58414 -34.3086,-13.89844 -1.3551,-0.39097 -2.76,-0.60978 -4.1699,-0.64648 a 10.771403,10.771403 0 0 0 -0,0 c -0.356,-0.009 -0.7342,-0.0185 -1.1348,-0.0293 a 10.771403,10.771403 0 0 0 -0,0 c -3.8367,-0.10345 -7.6734,-0.22803 -11.5117,-0.37304 -21.6648,-0.81852 -43.2077,-2.26122 -64.875,-4.23438 a 10.771403,10.771403 0 0 0 -0.01,0 c -0.5455,-0.0493 -1.0948,-0.0712 -1.6426,-0.0664 l -0,0 c -1.0455,0.009 -2.0919,0.11699 -3.1172,0.32227 a 10.771403,10.771403 0 0 0 -0.01,0 c -12.0826,2.42601 -23.8018,6.59466 -35.1934,11.95312 0.646,-8.40462 -5.823,-17.14377 -14.3281,-18.2207 -50.3212,-6.379 -98.8219,-14.64075 -149.3887,-22.96484 a 10.771403,10.771403 0 0 0 -0.012,-0.002 c -1.0916,-0.17851 -2.2013,-0.24685 -3.3066,-0.20507 l -0,0 c -6.954,0.26194 -13.4573,5.37388 -15.3515,12.07031 a 10.771403,10.771403 0 0 0 -0,0.004 c -1.0339,3.66029 -1.8146,7.47654 -2.4902,11.35742 -8.3639,-8.76856 -16.4732,-17.60003 -23.2754,-26.02344 a 10.771403,10.771403 0 0 0 -0,-0.002 c -2.5713,-3.18249 -6.3561,-5.35747 -10.4004,-5.97657 l -0,0 c -25.066,-3.83752 -50.1294,-7.35665 -75.3262,-10.24218 a 10.771403,10.771403 0 0 0 -0,0 c -0.5482,-0.0626 -1.1007,-0.0977 -1.6524,-0.10547 l -0.01,0 c -3.6774,-0.0506 -7.361,1.16447 -10.2871,3.39258 a 10.771403,10.771403 0 0 0 -0,0.002 c -13.4538,10.25008 -25.3732,21.58373 -36.2383,33.16797 a 10.771403,10.771403 0 0 0 -0,0.002 c -2.8076,2.99573 -4.4408,7.06449 -4.4863,11.16992 -0.075,6.71078 0.6578,26.19802 1.3828,46.90625 0.725,20.71488 1.4767,42.3941 1.5058,45.60547 0.035,3.90046 1.4987,7.77261 4.0528,10.72071 a 10.771403,10.771403 0 0 0 0,0.002 c 10.0216,11.56201 18.2575,21.32475 28,32.7832 -5.6973,0.0744 -11.4433,0.20096 -17.0879,0.23438 a 10.771403,10.771403 0 0 0 -0,0 c -8.3941,0.0515 -16.0793,7.42203 -16.4805,15.80664 a 10.771403,10.771403 0 0 0 0,0.006 c -0.6956,14.65515 -1.5304,30.94979 -1.3691,46.41211 0.043,4.1357 1.7001,8.23235 4.5429,11.23632 a 10.771403,10.771403 0 0 0 0,0.002 c 10.8583,11.47142 22.7048,22.57775 36.0196,32.62695 3.3885,2.55775 7.7834,3.74119 11.998,3.23047 24.5045,-2.96594 50.2321,-6.46491 74.6016,-9.73828 l -0,0.002 c 4.077,-0.54651 7.921,-2.67265 10.5528,-5.83398 a 10.771403,10.771403 0 0 0 0,-0.002 c 7.8259,-9.40515 17.2531,-19.36385 26.9043,-29.14257 a 10.771403,10.771403 0 0 0 0,-0.002 c 3.2553,-3.29996 5.0274,-8.01132 4.7539,-12.63867 -1.0519,-17.82638 -0.1922,-49.01651 0.018,-72.42187 0.04,-4.30146 -1.6718,-8.59337 -4.6602,-11.6875 a 10.771403,10.771403 0 0 0 -0,-0.002 c -7.0864,-7.33144 -14.9117,-15.61627 -22.5371,-23.66211 3.3268,0.0877 6.6122,0.15047 9.9551,0.24414 8.5245,0.23841 16.3695,-7.20598 16.9473,-15.65429 1.7802,0.81048 3.6855,1.33472 5.6582,1.42382 a 10.771403,10.771403 0 0 0 0,0 c 13.074,0.58846 26.1642,1.22023 39.3555,1.87305 -0.04,10.36424 -0.086,20.26097 -0.1094,31.69141 -0.037,17.86554 -0.05,35.77569 -0.031,49.81445 0.01,5.56324 0.043,7.29152 0.066,10.61914 -0.1965,0.0102 -0.3914,0.019 -0.5879,0.0293 a 10.771403,10.771403 0 0 0 -0,0 c -8.6064,0.45179 -16.0546,8.61491 -15.7188,17.22656 a 10.771403,10.771403 0 0 0 0,0.002 c 0.4679,11.95503 1.4276,23.47213 4.2168,34.14844 a 10.771403,10.771403 0 0 0 0,0.002 c 1.9967,7.63753 10.063,13.17644 17.9082,12.29883 24.3296,-2.71966 48.3354,-5.03423 72.6875,-6.875 9.5759,-0.7242 17.1559,-11.17402 14.8731,-20.50195 -1.2133,-4.95873 -2.1015,-13.57673 -2.4863,-23.5332 -0.3188,-8.25704 -7.7555,-15.45759 -15.9551,-15.86133 -0.1705,-19.11342 -0.1081,-53.52091 0.07,-85.26758 12.3019,0.61863 24.6171,1.23002 36.9961,1.8125 a 10.771403,10.771403 0 0 0 0,0 c 2.7175,0.12699 5.3553,-0.59609 7.7578,-1.82031 -0.3532,40.18785 -0.2482,93.06149 0.4355,107.81836 0.2474,5.34378 3.2565,10.48448 7.795,13.3164 11.7718,7.34543 23.8053,13.62679 36.1621,18.4668 2.0256,0.79327 4.2078,1.18184 6.3828,1.13867 21.6759,-0.43005 43.2289,-0.42046 64.9101,0.006 3.846,0.0756 7.6874,0.16249 11.5274,0.26367 a 10.771403,10.771403 0 0 0 0.2754,0.004 l -0.2715,-0.002 c 0.3533,0.009 0.7347,0.0185 1.1367,0.0293 2.2074,0.0598 4.4252,-0.32645 6.4824,-1.1289 a 10.771403,10.771403 0 0 0 0.01,-0.002 c 10.8951,-4.25735 21.7239,-9.77514 32.5313,-16.14843 -0.027,0.22386 -0.043,0.62077 -0.07,0.83203 -1.1698,9.02461 6.4607,18.20806 15.5469,18.71094 a 10.771403,10.771403 0 0 0 0,0 c 24.3509,1.34546 48.5563,3.10426 72.9414,5.1621 a 10.771403,10.771403 0 0 0 0,0 c 3.3948,0.2859 6.7079,-0.79957 9.6231,-2.54492 2.5283,2.29108 5.6633,3.86787 9.0898,4.17578 24.4012,2.19413 48.6546,4.61801 73.1074,7.13282 a 10.771403,10.771403 0 0 0 0,0.002 c 4.4011,0.45121 8.7274,-1.24536 12.1309,-4.05469 2.6998,3.45203 6.5518,5.98563 10.9316,6.44141 a 10.771403,10.771403 0 0 0 0,0 c 23.1412,2.40441 46.2829,4.82062 69.4824,7.0957 a 10.771403,10.771403 0 0 0 0,0 c 7.8838,0.77098 15.8952,-4.92662 17.7539,-12.62695 0.9434,-3.90878 1.6342,-7.86621 2.2304,-11.83594 6.8325,0.32166 13.6529,0.62851 20.4727,0.92188 -0.4059,2.85142 -0.6888,5.82393 -1.2598,8.51367 -1.948,9.17856 5.4903,19.19929 14.8399,19.99023 a 10.771403,10.771403 0 0 0 0,0 c 16.7591,1.41297 33.3882,2.51028 49.959,3.57227 l 0.1386,0.0391 c 0,0 2.2429,0.20964 2.3262,0.20898 0.083,-6.5e-4 0.2015,-0.003 0.3399,-0.004 0.1529,-0.001 0.3501,-0.002 0.5351,-0.004 4.2694,0.2903 8.8183,0.70199 13.7129,0.98047 8.0735,0.45888 15.9757,-5.85324 17.3145,-13.82812 l 0,-0.002 c 2.7303,-16.27309 3.2175,-32.32239 3.0429,-47.46875 -0.096,-8.32856 -7.4328,-15.82423 -15.7129,-16.32422 -0.1287,-31.93227 -0.2506,-53.79373 -0.375,-78.96289 l 0,-0.002 0,-0.0215 c 0,-0.002 0,-0.005 0,-0.008 a 10.771403,10.771403 0 0 0 0,-0.0234 l 0,-0.0625 c 0.1463,-22.18529 0.2796,-39.54906 0.4336,-64.76368 8.3045,-0.46738 15.5778,-8.06176 15.6739,-16.38086 a 10.771403,10.771403 0 0 0 0,-0.002 c 0.1723,-15.18298 -0.317,-31.14992 -3.1172,-47.0625 l 0,-0.002 c -1.4838,-8.42731 -10.3669,-14.81563 -18.8282,-13.53906 -1.5285,0.23084 -2.9447,0.47806 -4.414,0.7207 l -1.918,-1.15235 z m -813.1621,79.90626 c 7.1106,0.38374 14.234,0.79047 21.375,1.23828 0.023,10.89464 0.1056,22.07235 0.3086,32.58007 0.014,0.73615 0.1547,1.45274 0.2773,2.17188 -7.0042,-0.0485 -14.0956,-0.1121 -21.0761,-0.14453 -0.3275,-11.95845 -0.6391,-24.18458 -0.8848,-35.8457 z m 539.6719,23.31835 c 0.032,6.5098 0.042,13.24835 0,20.61329 -6.2052,0.11218 -12.4227,0.21112 -18.6446,0.29882 0.03,-7.04527 0.026,-13.59642 -0,-19.84765 6.2245,-0.32511 12.4414,-0.68283 18.6485,-1.06446 z M 4230.332,419.125 c 9.0494,0.41397 18.1145,0.777 27.1953,1.08203 -0.1674,25.17047 -0.286,71.9243 -0.3515,100.40235 -9.0474,-0.11712 -18.0895,-0.1978 -27.1231,-0.24415 -0.1365,-26.13058 0.01,-77.4259 0.2793,-101.24023 z m 102.6641,0.0312 c 1.9649,1.05726 4.1019,1.71168 6.3301,1.875 0.018,22.45215 -0.1824,75.80541 -0.5098,101.62305 -2.2203,0.14842 -4.3552,0.78087 -6.3242,1.8164 0.3057,-30.16497 0.4857,-78.89333 0.5039,-105.31445 z m -416.791,87.89063 c -0.1658,8.42037 -0.2676,16.69273 -0.3106,24.94531 -7.1348,0.42137 -14.2418,0.82179 -21.3457,1.21093 0.1082,-5.2279 0.1728,-10.43971 0.3516,-15.63281 0.1287,-3.73372 -1.272,-7.31749 -3.5352,-10.26758 8.3125,-0.0835 16.509,-0.15734 24.8399,-0.25585 z m 499.1445,2.7832 c 6.2062,0.0312 12.4078,0.0552 18.5977,0.0742 -0.043,5.60139 -0.1289,10.94182 -0.2422,16.19922 -3.2328,0.0219 -6.3543,1.10523 -9.0196,2.93359 -2.683,-2.18761 -5.9506,-3.62576 -9.4257,-3.76758 a 10.771403,10.771403 0 0 0 -0,0 c -0.04,-0.002 -0.081,-0.002 -0.1211,-0.004 0.096,-5.03807 0.1719,-10.13831 0.2148,-15.43554 z"
         id="path4383"
         style="font-style:normal;font-variant:normal;font-weight:normal;font-stretch:normal;font-size:medium;line-height:125%;font-family:'College Block';-inkscape-font-specification:'College Block';letter-spacing:0px;word-spacing:0px;fill:#ffffff;fill-opacity:1;stroke:none;stroke-width:1px;stroke-linecap:butt;stroke-linejoin:miter;stroke-opacity:1"
         inkscape:original="M 4704.6953 324.70703 C 4704.6952 324.707 4697.5958 326.54484 4697.5957 326.54492 C 4697.5956 326.54501 4696.7187 328.26542 4696.7188 328.26562 C 4696.7187 328.26576 4696.664 328.47819 4696.6191 328.65234 C 4682.9862 330.91054 4669.3281 333.26628 4655.7363 335.83008 A 5.8315334 5.8315334 0 0 0 4651.0117 341.01172 C 4649.8926 352.84615 4644.1051 376.04278 4637.5488 399.77734 C 4633.3915 414.82733 4629.2302 429.3669 4625.457 442.74023 C 4617.055 408.27828 4608.3428 372.1649 4593.0293 351.41211 A 5.8315334 5.8315334 0 0 0 4587.2246 349.15039 C 4567.2916 353.02484 4547.6784 356.74116 4527.6738 360.22852 A 5.8315334 5.8315334 0 0 0 4523.0879 367.64062 C 4524.9528 373.89114 4525.8554 382.8343 4526.2012 393.14453 A 5.8315334 5.8315334 0 0 0 4532.6074 398.75195 C 4535.6002 398.45425 4538.581 398.14702 4541.5664 397.84375 C 4541.5419 401.80038 4541.513 407.19261 4541.4805 413.9668 C 4541.4121 428.21597 4541.3282 447.54465 4541.2441 467.06445 C 4541.1601 486.58426 4541.0747 506.29491 4541.002 521.30859 C 4540.9656 528.81543 4540.9328 535.14774 4540.9043 539.69141 C 4540.8999 540.38562 4540.8967 540.73139 4540.8926 541.33984 C 4537.7432 541.21249 4534.5965 541.08661 4531.4414 540.95703 A 5.8315334 5.8315334 0 0 0 4525.377 546.49805 C 4524.7948 558.3929 4523.6134 569.40521 4521.2324 578.42383 A 5.8315334 5.8315334 0 0 0 4526.2676 585.71094 C 4549.4125 588.11574 4572.5329 590.53011 4595.6875 592.80078 A 5.8315334 5.8315334 0 0 0 4601.9238 588.36523 C 4604.3655 578.24881 4605.4175 567.39319 4606.0312 556.36523 C 4606.6472 558.73486 4607.5289 561.83394 4607.9746 563.73047 A 5.8315334 5.8315334 0 0 0 4613.375 568.2207 C 4622.0772 568.63296 4630.7544 569.02511 4639.4316 569.39062 A 5.8315334 5.8315334 0 0 0 4645.2188 565.38281 C 4646.1674 562.49181 4647.0633 558.8686 4647.9902 555.63867 C 4647.6118 567.73462 4646.7222 579.6521 4644.3711 590.72852 A 5.8315334 5.8315334 0 0 0 4649.584 597.75 C 4666.6102 599.18549 4683.5623 600.30654 4700.5059 601.39062 C 4700.6297 601.43682 4700.8886 601.5332 4700.8887 601.5332 C 4700.8888 601.53322 4701.6602 601.52726 4702.3184 601.52148 C 4706.8683 601.82458 4711.5124 602.24893 4716.3027 602.52148 A 5.8315334 5.8315334 0 0 0 4722.3848 597.66406 C 4724.9577 582.33024 4725.4501 566.92406 4725.2793 552.10156 A 5.8315334 5.8315334 0 0 0 4719.5176 546.33789 C 4716.2201 546.29907 4712.9171 546.25062 4709.6152 546.20508 C 4709.4659 505.6805 4709.3324 485.24336 4709.1914 456.6875 L 4709.1914 456.6582 C 4709.1913 456.64574 4709.1915 456.63161 4709.1914 456.61914 C 4709.3608 430.89849 4709.5011 415.07428 4709.6914 381.66406 C 4713.0554 381.45557 4716.4213 381.2375 4719.7793 381.05859 A 5.8315334 5.8315334 0 0 0 4725.2988 375.30273 C 4725.4674 360.44507 4724.9666 345.13192 4722.3438 330.22852 A 5.8315334 5.8315334 0 0 0 4715.7305 325.47266 C 4712.7497 325.92283 4709.8288 326.42399 4706.8887 326.91602 C 4706.0756 326.09791 4704.6954 324.70705 4704.6953 324.70703 z M 3871.5391 327.72461 A 5.8315334 5.8315334 0 0 0 3867.9238 328.91602 C 3855.0759 338.70448 3843.587 349.61165 3833.0137 360.88477 A 5.8315334 5.8315334 0 0 0 3831.4375 364.80859 C 3831.3764 370.29038 3832.0895 390.50868 3832.8145 411.21875 C 3833.5394 431.92882 3834.2884 452.9308 3834.3262 457.10352 A 5.8315334 5.8315334 0 0 0 3835.75 460.86914 C 3846.1238 472.83757 3854.5359 482.81586 3864.6504 494.70703 A 5.8315334 5.8315334 0 0 0 3869.1309 496.75977 C 3887.8892 496.63598 3907.8463 496.3948 3927.1094 496.16406 C 3926.8059 511.18462 3926.4294 527.93113 3926.5371 542.17578 C 3912.1842 543.04618 3897.7557 543.8763 3883.5195 544.61523 C 3883.6154 535.60246 3883.823 526.31001 3884.1367 517.19922 A 5.8315334 5.8315334 0 0 0 3878.1914 511.16797 C 3864.949 511.43481 3851.6854 511.6334 3838.5879 511.71094 A 5.8315334 5.8315334 0 0 0 3832.7988 517.26367 C 3832.102 531.94415 3831.285 548.06221 3831.4414 563.05273 A 5.8315334 5.8315334 0 0 0 3833.0371 567 C 3843.5924 578.15139 3855.0027 588.83525 3867.7227 598.43555 A 5.8315334 5.8315334 0 0 0 3871.9375 599.57031 C 3896.3314 596.61776 3922.0187 593.12463 3946.4004 589.84961 A 5.8315334 5.8315334 0 0 0 3950.1074 587.80078 C 3958.2585 578.00477 3967.8712 567.86312 3977.625 557.98047 A 5.8315334 5.8315334 0 0 0 3979.2949 553.54102 C 3978.1818 534.67663 3979.0869 503.59673 3979.2949 480.38477 A 5.8315334 5.8315334 0 0 0 3977.6582 476.2793 C 3967.6674 465.94311 3956.1646 453.78005 3946.0078 443.05078 A 5.8315334 5.8315334 0 0 0 3941.8359 441.22852 C 3922.5166 441.02126 3903.9085 440.91451 3885.0039 440.8418 C 3884.6175 424.18638 3883.7306 398.82067 3883.5742 382.86719 C 3897.8922 383.57011 3912.2424 384.4051 3926.6758 385.36719 C 3926.5078 398.94477 3926.8128 414.06967 3927.0801 427.90625 A 5.8315334 5.8315334 0 0 0 3932.7891 433.62305 C 3946.1881 433.9011 3959.5804 434.23189 3973.1211 434.61133 A 5.8315334 5.8315334 0 0 0 3979.1152 428.70898 C 3978.8806 410.24056 3978.5434 390.24577 3979.5898 374.81445 A 5.8315334 5.8315334 0 0 0 3977.9668 370.37109 C 3968.2702 360.32395 3958.7559 350.02801 3950.6973 340.04883 A 5.8315334 5.8315334 0 0 0 3947.043 337.94922 C 3922.0646 334.12509 3897.1373 330.62657 3872.1211 327.76172 A 5.8315334 5.8315334 0 0 0 3871.5391 327.72461 z M 4000.6035 346.63477 A 5.8315334 5.8315334 0 0 0 3995.207 350.875 C 3990.2377 368.46693 3990.2118 391.47834 3990.3438 414.5957 A 5.8315334 5.8315334 0 0 0 3995.9121 420.38672 C 4009.5019 420.99839 4023.0937 421.65207 4036.8027 422.33203 A 5.8315334 5.8315334 0 0 0 4042.9219 416.50781 C 4042.9219 408.88141 4043.0947 401.75842 4043.3145 394.82031 C 4044.1504 394.89336 4044.986 394.96793 4045.8223 395.04102 C 4045.7394 399.33123 4045.6719 404.42362 4045.6133 415.23828 C 4045.5384 429.068 4045.4801 446.87625 4045.4434 464.73242 C 4045.4067 482.58859 4045.3932 500.49224 4045.4121 514.51172 C 4045.4269 525.4918 4045.4781 530.88742 4045.543 535.38281 C 4041.9219 535.56286 4038.2987 535.74091 4034.6816 535.92969 A 5.8315334 5.8315334 0 0 0 4029.1602 541.98047 C 4029.6149 553.59995 4030.5835 564.44382 4033.0352 573.82812 A 5.8315334 5.8315334 0 0 0 4039.3262 578.14844 C 4063.7623 575.41687 4087.8998 573.08817 4112.3984 571.23633 A 5.8315334 5.8315334 0 0 0 4117.623 564.03516 C 4116.0625 557.65729 4115.2337 548.64844 4114.8359 538.35742 A 5.8315334 5.8315334 0 0 0 4108.8203 532.75391 C 4105.5078 532.8611 4102.2033 532.98236 4098.8965 533.09961 C 4098.5158 514.30979 4098.7693 416.53261 4099.1855 399.63672 C 4099.5938 399.67089 4100.0019 399.70613 4100.4102 399.74023 C 4100.1832 406.18097 4099.9974 412.78686 4099.957 419.96484 A 5.8315334 5.8315334 0 0 0 4105.4922 425.82227 C 4119.3627 426.52359 4133.2588 427.2105 4147.2148 427.86719 A 5.8315334 5.8315334 0 0 0 4153.3184 422.08398 C 4153.4572 402.08686 4154.2237 384.28515 4156.3926 377.22852 A 5.8315334 5.8315334 0 0 0 4151.5508 369.73047 C 4100.9355 363.31419 4052.2938 355.02478 4001.7656 346.70703 A 5.8315334 5.8315334 0 0 0 4000.6035 346.63477 z M 4458.0137 370.88477 A 5.8315334 5.8315334 0 0 0 4457.0977 370.92969 C 4417.6825 376.04889 4378.9909 379.29398 4339.3984 380.33398 A 5.8315334 5.8315334 0 0 0 4333.7754 386.96875 C 4334.1801 389.86909 4334.4329 396.38164 4334.5156 404.61133 A 5.8315334 5.8315334 0 0 0 4340.4141 410.38281 C 4343.6617 410.34435 4346.9056 410.28071 4350.1504 410.22461 C 4350.2362 426.50454 4349.9626 512.22061 4349.5293 533.61719 C 4346.3152 533.51255 4343.1021 533.40669 4339.8867 533.30664 A 5.8315334 5.8315334 0 0 0 4333.877 538.98438 C 4333.6247 548.74318 4333.189 557.12029 4332.4551 562.7832 A 5.8315334 5.8315334 0 0 0 4337.916 569.35547 C 4362.3905 570.70776 4386.702 572.47423 4411.1699 574.53906 A 5.8315334 5.8315334 0 0 0 4417.3438 570.0293 C 4419.1145 562.28785 4419.9296 552.76307 4420.4082 542.11914 A 5.8315334 5.8315334 0 0 0 4414.8203 536.03125 C 4411.2902 535.88823 4407.7545 535.74944 4404.2207 535.60938 C 4404.5632 524.45555 4404.6875 511.77196 4404.7305 499.01758 C 4418.1677 499.09991 4431.518 499.15398 4444.8789 499.17969 C 4444.8519 512.42835 4444.7244 525.70757 4444.3066 537.25586 C 4440.8551 537.10956 4437.4053 536.96282 4433.9492 536.81836 A 5.8315334 5.8315334 0 0 0 4427.8809 542.36523 C 4427.3755 552.91296 4426.4429 562.23668 4424.7988 568.99023 A 5.8315334 5.8315334 0 0 0 4429.9434 576.17578 C 4454.4154 578.37627 4478.7145 580.80539 4503.1875 583.32227 A 5.8315334 5.8315334 0 0 0 4509.418 579.01953 C 4512.0126 569.26275 4513.161 558.04423 4513.7676 546.10938 A 5.8315334 5.8315334 0 0 0 4508.1895 539.98633 C 4504.7048 539.83878 4501.2164 539.6901 4497.7285 539.54102 C 4498.393 521.65428 4498.3 498.22193 4498.3203 479.25 A 5.8315334 5.8315334 0 0 0 4496.4316 474.94727 C 4494.15 472.85512 4491.8605 470.78682 4489.5723 468.70898 C 4491.925 466.45698 4494.2811 464.2029 4496.6016 461.97852 A 5.8315334 5.8315334 0 0 0 4498.3965 457.80664 C 4498.5437 434.64778 4499.1774 405.74236 4498.1602 389.78711 A 5.8315334 5.8315334 0 0 0 4495.1289 385.03711 C 4483.6173 378.77311 4471.6625 373.93396 4459.168 371.0332 A 5.8315334 5.8315334 0 0 0 4458.0137 370.88477 z M 4205.6426 375.75977 A 5.8315334 5.8315334 0 0 0 4204.5469 375.87305 C 4192.5982 378.27218 4180.8613 382.49943 4169.3379 388.13672 A 5.8315334 5.8315334 0 0 0 4166.082 392.99023 C 4165.0113 409.20148 4164.7285 523.93382 4165.6641 544.125 A 5.8315334 5.8315334 0 0 0 4168.4023 548.80273 C 4179.7151 555.86172 4191.1708 561.82546 4202.791 566.37695 A 5.8315334 5.8315334 0 0 0 4205.0332 566.77734 C 4226.8539 566.34442 4248.5489 566.35418 4270.3672 566.7832 C 4274.2348 566.85925 4278.1005 566.94695 4281.9668 567.04883 A 5.8315334 5.8315334 0 0 0 4281.9688 567.04883 C 4282.3419 567.05858 4282.7246 567.06961 4283.1133 567.08008 A 5.8315334 5.8315334 0 0 0 4285.3926 566.68359 C 4296.4396 562.36686 4307.5585 556.72854 4318.7559 549.97266 A 5.8315334 5.8315334 0 0 0 4321.5723 545.12891 C 4322.0231 527.38697 4322.3358 409.18037 4322.2656 399.33984 A 5.8315334 5.8315334 0 0 0 4319.1191 394.20312 C 4307.9795 388.43005 4296.8909 383.85568 4285.9121 380.6875 A 5.8315334 5.8315334 0 0 0 4284.4473 380.46094 C 4284.0717 380.45117 4283.6898 380.44021 4283.3008 380.42969 A 5.8315334 5.8315334 0 0 0 4283.2988 380.42969 C 4279.4217 380.32516 4275.5467 380.1992 4271.6699 380.05273 C 4249.7977 379.22638 4228.0624 377.77188 4206.2246 375.7832 A 5.8315334 5.8315334 0 0 0 4205.6426 375.75977 z M 4445.0703 406.21289 C 4445.2771 417.97777 4445.1833 433.59479 4445.0703 448.82617 C 4431.7029 449.09741 4418.3372 449.31289 4404.8906 449.4707 C 4404.9764 434.69925 4405.0442 419.74765 4404.8789 408.50781 C 4418.3195 407.8782 4431.6973 407.10648 4445.0703 406.21289 z M 4219.5938 407.91992 C 4235.8292 408.7253 4252.0443 409.40579 4268.334 409.85938 C 4268.1214 432.54073 4267.9706 504.06924 4267.9062 531.47852 C 4251.6574 531.21085 4235.4738 531.07639 4219.2539 531.03711 C 4219.007 508.32445 4219.2242 426.94917 4219.5938 407.91992 z M 4594.6387 515.95898 C 4597.5487 525.82505 4600.2617 535.14293 4602.7363 543.96289 A 5.8315334 5.8315334 0 0 0 4600.8633 543.57812 C 4598.7181 543.50616 4596.5702 543.43118 4594.4238 543.35742 C 4594.6237 535.25569 4594.6952 526.01575 4594.6387 515.95898 z M 4657.043 519.71094 C 4657.243 530.20476 4657.3912 539.43804 4657.4043 545.2168 C 4656.3374 545.19106 4655.2727 545.16696 4654.2051 545.14062 A 5.8315334 5.8315334 0 0 0 4650.6641 546.24023 C 4652.8588 537.79629 4654.9963 528.89078 4657.043 519.71094 z "
         inkscape:radius="10.770326"
         sodipodi:type="inkscape:offset"
         transform="translate(-4921.7569,109.51767)" />
      <path
         transform="translate(-4925.9995,110.93189)"
         d="m 4274.5801,305.11914 c -6.9352,0.1231 -13.806,1.04196 -20.459,2.6582 -18.4179,4.47432 -34.7811,13.94919 -48.5254,25.65039 -13.7059,11.66841 -24.8054,25.44466 -34.3828,39.58008 -23.2338,34.29111 -39.2701,73.56596 -45.7774,114.68164 -2.954,18.66519 -4.0687,38.41323 -0.4023,58.19532 2.8063,15.14158 8.5264,30.17452 17.7656,43.17187 -7.5962,9.34502 -16.5123,17.64174 -26.4804,24.375 -2.5718,1.73714 -5.2719,3.27946 -7.9727,4.81641 l 1.9297,-3.06641 a 14.224606,14.224606 0 0 0 -20.8633,-18.73047 c -31.1441,24.63341 -66.7218,43.72624 -104.4668,56.05664 -42.3499,13.83469 -87.5325,19.16525 -131.9394,15.56641 a 14.224606,14.224606 0 0 0 -6.2266,27.46094 c 32.3301,12.35729 67.4784,16.9325 101.8945,13.26367 6.6545,-0.70938 13.2543,-1.80474 19.8086,-3.11914 a 14.224606,14.224606 0 0 0 9.9981,24.0664 c 51.8321,0.88221 103.7408,-9.30949 151.3906,-29.72656 42.5374,-18.22647 81.5378,-44.51603 114.3906,-77.10937 a 14.224606,14.224606 0 0 0 0.6192,-0.67969 c 18.3618,-5.66786 34.662,-16.12925 48.3105,-28.40039 31.1549,-28.0106 50.6731,-65.75642 62.5938,-104.19141 6.2827,-20.25697 10.8093,-41.59444 11.3847,-63.61133 0.5765,-22.06098 -2.9018,-44.74062 -12.2773,-65.59765 -9.0141,-20.05299 -24.0679,-38.97695 -45.9551,-48.64453 -11.0111,-4.86361 -22.7966,-6.87121 -34.3574,-6.66602 z"
         id="path4579"
         style="fill:#ffffff;fill-opacity:1;fill-rule:evenodd;stroke:none;stroke-width:8.5055685;stroke-linecap:butt;stroke-linejoin:miter;stroke-miterlimit:4;stroke-dasharray:none;stroke-opacity:1"
         inkscape:original="M 4274.832 319.33984 C 4268.9898 319.44354 4263.1453 320.22101 4257.4785 321.59766 C 4241.6878 325.43374 4227.1896 333.72391 4214.8164 344.25781 C 4202.4431 354.79171 4192.1032 367.53349 4182.9883 380.98633 C 4160.8811 413.6147 4145.6454 450.98422 4139.4844 489.91211 C 4136.6892 507.57348 4135.759 525.7112 4139.0176 543.29297 C 4142.2762 560.87475 4149.9426 577.93558 4162.5898 590.57617 C 4162.9141 590.90023 4163.2458 591.21582 4163.5762 591.5332 L 4159.7324 590.375 C 4150.168 604.01853 4138.0865 615.89224 4124.2793 625.21875 C 4109.1424 635.44342 4091.9391 642.59318 4074.0137 646.10742 L 4098.2363 607.60742 C 4065.7645 633.29094 4028.7158 653.17116 3989.3613 666.02734 C 3945.2009 680.45347 3898.1626 686.00268 3851.8574 682.25 C 3882.0626 693.79511 3915.0118 698.08396 3947.166 694.65625 C 3977.8376 691.38659 4007.7421 681.11156 4033.9453 664.83789 L 3978.7227 715.52539 C 4028.5261 716.37307 4078.4848 706.56321 4124.2695 686.94531 C 4165.1465 669.43028 4202.6737 644.13359 4234.2441 612.8125 L 4229.5332 611.39453 C 4249.7691 607.9863 4268.3524 597.03611 4283.6816 583.25391 C 4312.2842 557.53802 4330.8072 522.16256 4342.2012 485.42578 C 4348.2168 466.03016 4352.4206 445.95639 4352.9512 425.65625 C 4353.4817 405.3561 4350.2457 384.78356 4341.9199 366.26172 C 4333.9884 348.61703 4320.8874 332.61126 4303.1914 324.79492 C 4294.3007 320.86791 4284.5691 319.16702 4274.832 319.33984 z "
         inkscape:radius="14.223184"
         sodipodi:type="inkscape:offset" />
      <path
         d="m 4704.6953,324.70703 c -1e-4,-3e-5 -7.0995,1.83781 -7.0996,1.83789 -1e-4,9e-5 -0.8769,1.7205 -0.8769,1.7207 -10e-5,1.3e-4 -0.055,0.21257 -0.1,0.38672 -13.6329,2.2582 -27.291,4.61394 -40.8828,7.17774 a 5.8315334,5.8315334 0 0 0 -4.7246,5.18164 c -1.1191,11.83443 -6.9066,35.03106 -13.4629,58.76562 -4.1573,15.04999 -8.3186,29.58956 -12.0918,42.96289 -8.402,-34.46195 -17.1142,-70.57533 -32.4277,-91.32812 a 5.8315334,5.8315334 0 0 0 -5.8047,-2.26172 c -19.933,3.87445 -39.5462,7.59077 -59.5508,11.07813 a 5.8315334,5.8315334 0 0 0 -4.5859,7.4121 c 1.8649,6.25052 2.7675,15.19368 3.1133,25.50391 a 5.8315334,5.8315334 0 0 0 6.4062,5.60742 c 2.9928,-0.2977 5.9736,-0.60493 8.959,-0.9082 -0.024,3.95663 -0.053,9.34886 -0.086,16.12305 -0.068,14.24917 -0.1523,33.57785 -0.2364,53.09765 -0.084,19.51981 -0.1694,39.23046 -0.2421,54.24414 -0.036,7.50684 -0.069,13.83915 -0.098,18.38282 -0,0.69421 -0.01,1.03998 -0.012,1.64843 -3.1494,-0.12735 -6.2961,-0.25323 -9.4512,-0.38281 a 5.8315334,5.8315334 0 0 0 -6.0644,5.54102 c -0.5822,11.89485 -1.7636,22.90716 -4.1446,31.92578 a 5.8315334,5.8315334 0 0 0 5.0352,7.28711 c 23.1449,2.4048 46.2653,4.81917 69.4199,7.08984 a 5.8315334,5.8315334 0 0 0 6.2363,-4.43555 c 2.4417,-10.11642 3.4937,-20.97204 4.1074,-32 0.616,2.36963 1.4977,5.46871 1.9434,7.36524 a 5.8315334,5.8315334 0 0 0 5.4004,4.49023 c 8.7022,0.41226 17.3794,0.8044 26.0566,1.16992 a 5.8315334,5.8315334 0 0 0 5.7872,-4.00781 c 0.9486,-2.891 1.8445,-6.51421 2.7714,-9.74414 -0.3784,12.09595 -1.268,24.01343 -3.6191,35.08985 a 5.8315334,5.8315334 0 0 0 5.2129,7.02148 c 17.0262,1.43549 33.9783,2.55653 50.9219,3.64062 0.1238,0.0462 0.3827,0.14258 0.3828,0.14258 10e-5,2e-5 0.7715,-0.006 1.4297,-0.0117 4.5499,0.3031 9.194,0.72745 13.9843,1 a 5.8315334,5.8315334 0 0 0 6.0821,-4.85742 c 2.5729,-15.33382 3.0653,-30.74 2.8945,-45.5625 a 5.8315334,5.8315334 0 0 0 -5.7617,-5.76367 c -3.2975,-0.0388 -6.6005,-0.0873 -9.9024,-0.13281 -0.1493,-40.52458 -0.2828,-60.96172 -0.4238,-89.51758 l 0,-0.0293 c -10e-5,-0.0125 1e-4,-0.0266 0,-0.0391 0.1694,-25.72065 0.3097,-41.54486 0.5,-74.95508 3.364,-0.20849 6.7299,-0.42656 10.0879,-0.60547 a 5.8315334,5.8315334 0 0 0 5.5195,-5.75586 c 0.1686,-14.85766 -0.3322,-30.17081 -2.955,-45.07421 a 5.8315334,5.8315334 0 0 0 -6.6133,-4.75586 c -2.9808,0.45017 -5.9017,0.95133 -8.8418,1.44336 -0.8131,-0.81811 -2.1933,-2.20897 -2.1934,-2.20899 z m -833.1562,3.01758 a 5.8315334,5.8315334 0 0 0 -3.6153,1.19141 c -12.8479,9.78846 -24.3368,20.69563 -34.9101,31.96875 a 5.8315334,5.8315334 0 0 0 -1.5762,3.92382 c -0.061,5.48179 0.652,25.70009 1.377,46.41016 0.7249,20.71007 1.4739,41.71205 1.5117,45.88477 a 5.8315334,5.8315334 0 0 0 1.4238,3.76562 c 10.3738,11.96843 18.7859,21.94672 28.9004,33.83789 a 5.8315334,5.8315334 0 0 0 4.4805,2.05274 c 18.7583,-0.12379 38.7154,-0.36497 57.9785,-0.59571 -0.3035,15.02056 -0.68,31.76707 -0.5723,46.01172 -14.3529,0.8704 -28.7814,1.70052 -43.0176,2.43945 0.096,-9.01277 0.3035,-18.30522 0.6172,-27.41601 a 5.8315334,5.8315334 0 0 0 -5.9453,-6.03125 c -13.2424,0.26684 -26.506,0.46543 -39.6035,0.54297 a 5.8315334,5.8315334 0 0 0 -5.7891,5.55273 c -0.6968,14.68048 -1.5138,30.79854 -1.3574,45.78906 A 5.8315334,5.8315334 0 0 0 3833.0371,567 c 10.5553,11.15139 21.9656,21.83525 34.6856,31.43555 a 5.8315334,5.8315334 0 0 0 4.2148,1.13476 c 24.3939,-2.95255 50.0812,-6.44568 74.4629,-9.7207 a 5.8315334,5.8315334 0 0 0 3.707,-2.04883 c 8.1511,-9.79601 17.7638,-19.93766 27.5176,-29.82031 a 5.8315334,5.8315334 0 0 0 1.6699,-4.43945 c -1.1131,-18.86439 -0.208,-49.94429 0,-73.15625 a 5.8315334,5.8315334 0 0 0 -1.6367,-4.10547 c -9.9908,-10.33619 -21.4936,-22.49925 -31.6504,-33.22852 a 5.8315334,5.8315334 0 0 0 -4.1719,-1.82226 c -19.3193,-0.20726 -37.9274,-0.31401 -56.832,-0.38672 -0.3864,-16.65542 -1.2733,-42.02113 -1.4297,-57.97461 14.318,0.70292 28.6682,1.53791 43.1016,2.5 -0.168,13.57758 0.137,28.70248 0.4043,42.53906 a 5.8315334,5.8315334 0 0 0 5.709,5.7168 c 13.399,0.27805 26.7913,0.60884 40.332,0.98828 a 5.8315334,5.8315334 0 0 0 5.9941,-5.90235 c -0.2346,-18.46842 -0.5718,-38.46321 0.4746,-53.89453 a 5.8315334,5.8315334 0 0 0 -1.623,-4.44336 c -9.6966,-10.04714 -19.2109,-20.34308 -27.2695,-30.32226 a 5.8315334,5.8315334 0 0 0 -3.6543,-2.09961 c -24.9784,-3.82413 -49.9057,-7.32265 -74.9219,-10.1875 a 5.8315334,5.8315334 0 0 0 -0.582,-0.0371 z m 836.6171,5.53516 c 2e-4,0.005 0,0.0327 0,0.0371 0,0.0433 -0,0.0201 -0,-0.0137 0,-0.004 10e-5,-0.0186 0,-0.0234 z m -707.5527,13.375 a 5.8315334,5.8315334 0 0 0 -5.3965,4.24023 c -4.9693,17.59193 -4.9952,40.60334 -4.8632,63.7207 a 5.8315334,5.8315334 0 0 0 5.5683,5.79102 c 13.5898,0.61167 27.1816,1.26535 40.8906,1.94531 a 5.8315334,5.8315334 0 0 0 6.1192,-5.82422 c 0,-7.6264 0.1728,-14.74939 0.3926,-21.6875 0.8359,0.073 1.6715,0.14762 2.5078,0.22071 -0.083,4.29021 -0.1504,9.3826 -0.209,20.19726 -0.075,13.82972 -0.1332,31.63797 -0.1699,49.49414 -0.037,17.85617 -0.05,35.75982 -0.031,49.7793 0.015,10.98008 0.066,16.3757 0.1309,20.87109 -3.6211,0.18005 -7.2443,0.3581 -10.8614,0.54688 a 5.8315334,5.8315334 0 0 0 -5.5214,6.05078 c 0.4547,11.61948 1.4233,22.46335 3.875,31.84765 a 5.8315334,5.8315334 0 0 0 6.291,4.32032 c 24.4361,-2.73157 48.5736,-5.06027 73.0722,-6.91211 a 5.8315334,5.8315334 0 0 0 5.2246,-7.20117 c -1.5605,-6.37787 -2.3893,-15.38672 -2.7871,-25.67774 a 5.8315334,5.8315334 0 0 0 -6.0156,-5.60351 c -3.3125,0.10719 -6.617,0.22845 -9.9238,0.3457 -0.3807,-18.78982 -0.1272,-116.567 0.289,-133.46289 0.4083,0.0342 0.8164,0.0694 1.2247,0.10351 -0.227,6.44074 -0.4128,13.04663 -0.4532,20.22461 a 5.8315334,5.8315334 0 0 0 5.5352,5.85743 c 13.8705,0.70132 27.7666,1.38823 41.7226,2.04492 a 5.8315334,5.8315334 0 0 0 6.1036,-5.78321 c 0.1388,-19.99712 0.9053,-37.79883 3.0742,-44.85546 a 5.8315334,5.8315334 0 0 0 -4.8418,-7.49805 c -50.6153,-6.41628 -99.257,-14.70569 -149.7852,-23.02344 a 5.8315334,5.8315334 0 0 0 -1.1621,-0.0723 z m 457.4102,24.25 a 5.8315334,5.8315334 0 0 0 -0.916,0.0449 c -39.4152,5.1192 -78.1068,8.36429 -117.6993,9.40429 a 5.8315334,5.8315334 0 0 0 -5.623,6.63477 c 0.4047,2.90034 0.6575,9.41289 0.7402,17.64258 a 5.8315334,5.8315334 0 0 0 5.8985,5.77148 c 3.2476,-0.0385 6.4915,-0.1021 9.7363,-0.1582 0.086,16.27993 -0.1878,101.996 -0.6211,123.39258 -3.2141,-0.10464 -6.4272,-0.2105 -9.6426,-0.31055 a 5.8315334,5.8315334 0 0 0 -6.0097,5.67774 c -0.2523,9.7588 -0.688,18.13591 -1.4219,23.79882 a 5.8315334,5.8315334 0 0 0 5.4609,6.57227 c 24.4745,1.35229 48.786,3.11876 73.2539,5.18359 a 5.8315334,5.8315334 0 0 0 6.1739,-4.50976 c 1.7707,-7.74145 2.5858,-17.26623 3.0644,-27.91016 a 5.8315334,5.8315334 0 0 0 -5.5879,-6.08789 c -3.5301,-0.14302 -7.0658,-0.2818 -10.5996,-0.42187 0.3425,-11.15383 0.4668,-23.83742 0.5098,-36.5918 13.4372,0.0823 26.7875,0.1364 40.1484,0.16211 -0.027,13.24866 -0.1545,26.52788 -0.5723,38.07617 -3.4515,-0.1463 -6.9013,-0.29304 -10.3574,-0.4375 a 5.8315334,5.8315334 0 0 0 -6.0683,5.54687 c -0.5054,10.54773 -1.438,19.87145 -3.0821,26.625 a 5.8315334,5.8315334 0 0 0 5.1446,7.18555 c 24.472,2.20049 48.7711,4.62961 73.2441,7.14649 a 5.8315334,5.8315334 0 0 0 6.2305,-4.30274 c 2.5946,-9.75678 3.743,-20.9753 4.3496,-32.91015 a 5.8315334,5.8315334 0 0 0 -5.5781,-6.12305 c -3.4847,-0.14755 -6.9731,-0.29623 -10.461,-0.44531 0.6645,-17.88674 0.5715,-41.31909 0.5918,-60.29102 a 5.8315334,5.8315334 0 0 0 -1.8887,-4.30273 c -2.2816,-2.09215 -4.5711,-4.16045 -6.8593,-6.23829 2.3527,-2.252 4.7088,-4.50608 7.0293,-6.73046 a 5.8315334,5.8315334 0 0 0 1.7949,-4.17188 c 0.1472,-23.15886 0.7809,-52.06428 -0.2363,-68.01953 a 5.8315334,5.8315334 0 0 0 -3.0313,-4.75 c -11.5116,-6.264 -23.4664,-11.10315 -35.9609,-14.00391 a 5.8315334,5.8315334 0 0 0 -1.1543,-0.14843 z m -252.3711,4.875 a 5.8315334,5.8315334 0 0 0 -1.0957,0.11328 c -11.9487,2.39913 -23.6856,6.62638 -35.209,12.26367 a 5.8315334,5.8315334 0 0 0 -3.2559,4.85351 c -1.0707,16.21125 -1.3535,130.94359 -0.4179,151.13477 a 5.8315334,5.8315334 0 0 0 2.7382,4.67773 c 11.3128,7.05899 22.7685,13.02273 34.3887,17.57422 a 5.8315334,5.8315334 0 0 0 2.2422,0.40039 c 21.8207,-0.43292 43.5157,-0.42316 65.334,0.006 3.8676,0.0761 7.7333,0.16375 11.5996,0.26563 a 5.8315334,5.8315334 0 0 0 0,0 c 0.3731,0.01 0.7558,0.0208 1.1445,0.0312 a 5.8315334,5.8315334 0 0 0 2.2793,-0.39649 c 11.047,-4.31673 22.1659,-9.95505 33.3633,-16.71093 a 5.8315334,5.8315334 0 0 0 2.8164,-4.84375 c 0.4508,-17.74194 0.7635,-135.94854 0.6933,-145.78907 a 5.8315334,5.8315334 0 0 0 -3.1465,-5.13672 c -11.1396,-5.77308 -22.2282,-10.34744 -33.207,-13.51562 a 5.8315334,5.8315334 0 0 0 -1.4648,-0.22656 c -0.3756,-0.01 -0.7575,-0.0207 -1.1465,-0.0312 a 5.8315334,5.8315334 0 0 0 -0,0 c -3.8771,-0.10453 -7.7521,-0.23049 -11.6289,-0.37696 -21.8722,-0.82635 -43.6075,-2.28085 -65.4453,-4.26953 a 5.8315334,5.8315334 0 0 0 -0.582,-0.0234 z m 239.4277,30.45312 c 0.2068,11.76488 0.113,27.3819 0,42.61328 -13.3674,0.27124 -26.7331,0.48672 -40.1797,0.64453 0.086,-14.77145 0.1536,-29.72305 -0.012,-40.96289 13.4406,-0.62961 26.8184,-1.40133 40.1914,-2.29492 z m -225.4765,1.70703 c 16.2354,0.80538 32.4505,1.48588 48.7402,1.93946 -0.2126,22.68135 -0.3635,94.20986 -0.4278,121.61914 -16.2488,-0.26767 -32.4324,-0.40213 -48.6523,-0.44141 -0.2469,-22.71266 -0.03,-104.08794 0.3399,-123.11719 z m 375.0449,108.03906 c 2.91,9.86607 5.623,19.18395 8.0976,28.00391 a 5.8315334,5.8315334 0 0 0 -1.873,-0.38477 c -2.1452,-0.072 -4.2931,-0.14694 -6.4395,-0.2207 0.1999,-8.10173 0.2714,-17.34167 0.2149,-27.39844 z m 62.4043,3.75196 c 0.2,10.49382 0.3482,19.7271 0.3613,25.50586 -1.0669,-0.0257 -2.1316,-0.0498 -3.1992,-0.0762 a 5.8315334,5.8315334 0 0 0 -3.541,1.09961 c 2.1947,-8.44394 4.3322,-17.34945 6.3789,-26.52929 z m 50.6894,76.90625 c 0.028,-0.18805 0.049,-0.26681 -0.019,0.10351 -0,0.0248 -0.025,0.10505 -0.031,0.13672 0,-0.0389 0.046,-0.21075 0.051,-0.24023 z"
         id="path4378"
         style="font-style:normal;font-variant:normal;font-weight:normal;font-stretch:normal;font-size:medium;line-height:125%;font-family:'College Block';-inkscape-font-specification:'College Block';letter-spacing:0px;word-spacing:0px;fill:#5eff00;fill-opacity:1;stroke:none;stroke-width:1px;stroke-linecap:butt;stroke-linejoin:miter;stroke-opacity:1"
         inkscape:original="M 4702.2793 330.02344 C 4702.2634 330.22584 4702.2557 333.19706 4702.2402 333.58398 C 4687.0984 336.05491 4671.9142 338.71267 4656.8164 341.56055 C 4654.3721 367.40746 4633.4255 433.70754 4625.1465 465.74023 C 4614.7292 425.60709 4605.191 377.71417 4588.3379 354.875 C 4568.387 358.75292 4548.7354 362.47571 4528.6758 365.97266 C 4530.813 373.13571 4531.6767 382.43531 4532.0293 392.94922 C 4537.1818 392.43667 4542.3207 391.91521 4547.459 391.38672 C 4547.3559 388.17177 4546.8043 544.46608 4546.666 547.41016 C 4541.5157 547.20487 4536.3627 546.99518 4531.2012 546.7832 C 4530.6092 558.87897 4529.426 570.23461 4526.8711 579.91211 C 4550.018 582.31711 4573.1256 584.72976 4596.2559 586.99805 C 4599.0536 575.40653 4600.1966 562.58991 4600.668 549.40625 C 4596.6327 549.27086 4592.5956 549.13267 4588.5527 548.99023 C 4589.2999 529.75308 4588.5637 495.82208 4588.5137 474.60742 C 4594.781 496.33053 4608.9722 542.49045 4613.6504 562.39648 C 4622.3439 562.80832 4631.0121 563.19941 4639.6777 563.56445 C 4647.9137 538.46554 4655.6167 497.40616 4662.0059 469.5918 C 4662.0599 483.51697 4663.5093 538.20489 4663.3184 551.19141 C 4660.2349 551.12071 4657.1488 551.04688 4654.0605 550.9707 C 4653.8045 564.92171 4652.8554 578.83697 4650.0742 591.93945 C 4667.3861 593.39902 4684.6509 594.54423 4701.9375 595.64844 C 4701.9551 596.0387 4701.9734 595.54512 4701.9922 595.65234 C 4706.8727 595.96397 4711.7479 596.42117 4716.6348 596.69922 C 4719.122 581.87646 4719.618 566.81276 4719.4492 552.16797 C 4714.2424 552.10667 4709.0337 552.03693 4703.8125 551.95898 C 4703.651 505.611 4703.5115 487.07851 4703.3613 456.64844 C 4703.5433 428.99886 4703.6848 415.31316 4703.8984 376.16992 C 4709.0932 375.82451 4714.2848 375.51252 4719.4688 375.23633 C 4719.6353 360.55805 4719.1276 345.5916 4716.6016 331.23828 C 4711.862 331.95408 4707.0912 332.7924 4702.334 333.56836 C 4702.3176 333.57781 4702.2953 329.82002 4702.2793 330.02344 z M 3871.457 333.55469 C 3858.9374 343.09301 3847.6827 353.76862 3837.2676 364.87305 C 3837.1625 374.29913 3840.0722 447.76556 3840.1562 457.05078 C 3850.5588 469.05238 3858.9866 479.04945 3869.0918 490.92969 C 3889.776 490.7932 3911.9913 490.52454 3933.0625 490.27148 C 3932.7555 508.21431 3932.0151 531.28428 3932.3438 547.6875 C 3914.1282 548.80111 3895.5936 549.89536 3877.5508 550.79492 C 3877.5328 539.89933 3877.9241 528.16367 3878.3086 516.99805 C 3865.0457 517.2653 3851.7558 517.46327 3838.623 517.54102 C 3837.9256 532.23394 3837.1178 548.25886 3837.2715 562.99219 C 3847.6623 573.96985 3858.8383 584.42391 3871.2363 593.78125 C 3895.5703 590.83595 3921.2368 587.34621 3945.625 584.07031 C 3953.9513 574.06367 3963.6662 563.82277 3973.4746 553.88477 C 3972.329 534.47059 3973.2578 503.43452 3973.4648 480.33203 C 3963.4395 469.96014 3951.9284 457.78599 3941.7734 447.05859 C 3920.5496 446.8309 3900.1817 446.70137 3879.334 446.63281 C 3879.0491 429.68391 3877.5403 392.84096 3877.6133 376.68164 C 3895.853 377.52339 3914.1091 378.60593 3932.5176 379.86719 C 3932.1471 394.41255 3932.6063 412.05974 3932.9102 427.79297 C 3946.3248 428.07135 3959.732 428.40341 3973.2852 428.7832 C 3973.0508 410.33566 3972.6967 390.26897 3973.7715 374.41992 C 3964.0172 364.31297 3954.3959 353.91132 3946.1602 343.71289 C 3921.2296 339.89608 3896.3751 336.4083 3871.457 333.55469 z M 4000.8184 352.46094 C 3996.2253 368.72103 3996.0422 391.4979 3996.1738 414.5625 C 4009.7752 415.17469 4023.3766 415.82754 4037.0918 416.50781 C 4037.0918 406.71176 4037.1818 397.06178 4037.5996 388.46875 C 4042.296 388.87861 4046.9995 389.28993 4051.7051 389.70117 C 4051.3226 397.35908 4051.0365 531.75111 4051.4043 540.92578 C 4045.9226 541.1911 4040.4547 541.46655 4034.9863 541.75195 C 4035.4335 553.17842 4036.4134 563.6863 4038.6777 572.35352 C 4063.1715 569.6155 4087.381 567.27972 4111.959 565.42188 C 4110.2191 558.31079 4109.414 549.03874 4109.0098 538.58203 C 4103.6958 538.75399 4098.3897 538.93986 4093.0859 539.13672 C 4092.5506 525.6918 4092.8324 404.45364 4093.4043 393.30273 C 4097.7207 393.66761 4102.0383 394.02922 4106.3613 394.38672 C 4105.9724 402.03354 4105.8386 410.85043 4105.7871 419.99805 C 4119.6535 420.69917 4133.5417 421.38673 4147.4883 422.04297 C 4147.6276 401.98329 4148.0722 384.45079 4150.8184 375.51562 C 4100.044 369.07918 4051.3256 360.77523 4000.8184 352.46094 z M 4457.8496 376.71289 C 4418.263 381.85436 4379.3618 385.11637 4339.5508 386.16211 C 4340.0568 389.78844 4340.2623 396.25723 4340.3457 404.55273 C 4345.5638 404.49093 4350.7767 404.40608 4355.9902 404.29883 C 4356.136 414.20835 4355.8187 523.01233 4355.3086 539.63867 C 4350.1092 539.46385 4344.9088 539.29669 4339.7051 539.13477 C 4339.4508 548.9745 4339.0267 557.45 4338.2383 563.5332 C 4362.7797 564.88919 4387.1475 566.6599 4411.6602 568.72852 C 4413.2804 561.64522 4414.1123 552.34845 4414.584 541.85742 C 4409.1457 541.63709 4403.7035 541.41966 4398.2578 541.20703 C 4398.8243 527.63984 4398.8863 509.77154 4398.9336 493.16406 C 4416.3173 493.28094 4433.4802 493.3505 4450.7363 493.37305 C 4450.7093 510.38959 4450.6886 529.0263 4449.9766 543.33203 C 4444.5571 543.10156 4439.1334 542.87143 4433.7051 542.64453 C 4433.1918 553.35818 4432.274 562.93716 4430.4648 570.36914 C 4454.975 572.57306 4479.2991 575.00346 4503.7832 577.52148 C 4506.1983 568.43965 4507.3468 557.55105 4507.9434 545.8125 C 4502.5579 545.58447 4497.1737 545.35416 4491.7773 545.12305 C 4492.6933 527.28993 4492.4678 500.17827 4492.4902 479.24414 C 4488.6742 475.745 4484.8406 472.25488 4481.0254 468.81836 C 4484.8358 465.17884 4488.7547 461.42344 4492.5664 457.76953 C 4492.7141 434.54025 4493.3196 405.49434 4492.3418 390.1582 C 4481.2114 384.10162 4469.7509 379.47592 4457.8496 376.71289 z M 4205.6953 381.58984 C 4194.3209 383.87367 4183.0532 387.919 4171.9004 393.375 C 4170.9624 407.57644 4170.6074 524.84411 4171.4883 543.85547 C 4182.5519 550.75899 4193.6971 556.55217 4204.918 560.94727 C 4226.8171 560.51279 4248.5899 560.52264 4270.4824 560.95312 C 4274.3628 561.02942 4278.2416 561.11847 4282.1211 561.2207 C 4282.5036 561.2307 4282.8871 561.24165 4283.2695 561.25195 C 4293.9485 557.07901 4304.7808 551.59512 4315.7441 544.98047 C 4316.1794 527.85169 4316.5022 408.73424 4316.4355 399.38086 C 4305.5824 393.75625 4294.8408 389.33231 4284.2949 386.28906 C 4283.9106 386.27906 4283.5269 386.26821 4283.1426 386.25781 C 4279.2441 386.15271 4275.3466 386.02615 4271.4492 385.87891 C 4249.4647 385.04831 4227.6254 383.58693 4205.6953 381.58984 z M 4450.8477 400.04297 C 4451.2812 413.26139 4450.9797 435.72565 4450.8613 454.56445 C 4433.6183 454.93394 4416.4402 455.21332 4399.0625 455.39453 C 4399.1545 436.96276 4399.359 415.42957 4399.0469 403 C 4416.3966 402.23797 4433.6018 401.24491 4450.8477 400.04297 z M 4213.8066 401.85547 C 4232.8362 402.84602 4251.8107 403.61782 4270.8945 404.12695 C 4271.991 404.15595 4273.087 404.18374 4274.1836 404.21094 C 4273.9471 423.04542 4273.7757 512.85735 4273.7148 537.39062 C 4272.6207 537.37113 4271.5258 537.35053 4270.4316 537.33203 C 4251.3833 537.00461 4232.4471 536.82698 4213.4316 536.81445 C 4213.1063 518.23705 4213.3613 415.75076 4213.8066 401.85547 z "
         inkscape:radius="5.8309503"
         sodipodi:type="inkscape:offset"
         transform="translate(-4921.7569,109.51767)" />
      <g
         transform="matrix(0.9878397,0,0,1.0692049,-4921.7569,28.165805)"
         style="font-style:normal;font-variant:normal;font-weight:normal;font-stretch:normal;font-size:318.94055176px;line-height:125%;font-family:'College Block';-inkscape-font-specification:'College Block';letter-spacing:0px;word-spacing:0px;fill:#000000;fill-opacity:1;stroke:none;stroke-width:1px;stroke-linecap:butt;stroke-linejoin:miter;stroke-opacity:1"
         id="g4339"
         inkscape:path-effect="#path-effect4351">
        <path
           d="m 3919.1151,388.0521 c -12.6737,8.92095 -24.0676,18.90534 -34.6109,29.29103 -0.1064,8.81597 2.8402,77.52604 2.9253,86.21027 10.5307,11.22479 19.0616,20.57512 29.2912,31.6864 20.9388,-0.12765 43.4278,-0.37795 64.7584,-0.61463 -0.3108,16.78147 -1.0609,38.35783 -0.7283,53.69934 -18.4398,1.04153 -37.2031,2.06549 -55.468,2.90683 -0.018,-10.19037 0.3782,-21.1675 0.7674,-31.61042 -13.4261,0.24995 -26.8801,0.43637 -40.1746,0.50909 -0.706,13.74191 -1.523,28.72942 -1.3674,42.50913 10.5187,10.26712 21.832,20.04469 34.3826,28.79637 24.6335,-2.75466 50.6157,-6.0186 75.3041,-9.08247 8.4288,-9.35895 18.2637,-18.93834 28.1928,-28.2331 -1.1597,-18.15759 -0.2196,-47.18452 -0.01,-68.79169 -10.1487,-9.70056 -21.8007,-21.08719 -32.0807,-31.12025 -21.4851,-0.21296 -42.1049,-0.33377 -63.2092,-0.39789 -0.2884,-15.85187 -1.8147,-50.30945 -1.7408,-65.42285 18.4642,0.78727 36.944,1.79912 55.5792,2.97874 -0.3751,13.6039 0.091,30.11001 0.3987,44.8249 13.5797,0.26036 27.1508,0.56985 40.8708,0.92506 -0.2373,-17.25351 -0.5946,-36.02129 0.4934,-50.8445 -9.8744,-9.45277 -19.6151,-19.1809 -27.9522,-28.71923 -25.2375,-3.56977 -50.3975,-6.83122 -75.6224,-9.50013 z"
           id="path4341"
           inkscape:original-d="m 3923.0751,385.74014 -31.9252,32.08093 0,86.12018 31.1465,31.76947 66.9651,0 0,57.30963 -56.3752,0 0,-32.54813 -41.7364,0 0,42.35929 31.9252,31.9252 75.8418,0 31.9252,-31.9252 0,-76.46475 -32.7038,-32.23667 -65.252,0 0,-66.65359 56.3752,0 0,48.1214 41.5806,0 0,-57.77683 -31.9252,-32.08093 -75.8418,0 z"
           inkscape:connector-curvature="0" />
        <path
           d="m 4101.2775,582.00003 c -5.5492,0.24814 -11.0852,0.50597 -16.621,0.7729 0.4528,10.68688 1.4457,20.5156 3.7379,28.62183 24.7953,-2.5608 49.3031,-4.74707 74.1837,-6.48466 -1.7613,-6.65082 -2.5773,-15.32114 -2.9865,-25.10104 -5.3794,0.16083 -10.7498,0.33344 -16.1189,0.51756 -0.5419,-12.57469 -0.2582,-125.96527 0.3208,-136.39443 4.3695,0.34126 8.7413,0.67945 13.1175,1.01381 -0.3937,7.15187 -0.5301,15.39765 -0.5822,23.95319 14.0371,0.65574 28.0973,1.29968 42.2156,1.91344 0.141,-18.76131 0.5912,-35.15901 3.3713,-43.51584 -51.3995,-6.01985 -100.7192,-13.78719 -151.8482,-21.56333 -4.6496,15.20764 -4.8332,36.51114 -4.7,58.08287 13.7688,0.57256 27.5373,1.18342 41.4214,1.81966 0,-9.162 0.091,-18.18772 0.514,-26.22456 4.7542,0.38333 9.516,0.76816 14.2796,1.15278 -0.3872,7.16225 -0.6774,132.85498 -0.305,141.43582 z"
           id="path4343"
           inkscape:original-d="m 4109.9543,593.17609 -16.5076,0 0,41.58062 74.1287,0 0,-41.58062 -15.8847,0 0,-165.54386 12.9258,0 0,32.54814 41.4249,0 0,-74.44023 -151.6836,0 0,74.44023 41.4249,0 0,-32.54814 14.1716,0 0,165.54386 z"
           inkscape:connector-curvature="0" />
        <path
           d="m 4326.3236,578.69321 c -1.1076,-0.0182 -2.2153,-0.036 -3.323,-0.0533 -19.2828,-0.30622 -38.4526,-0.4738 -57.7022,-0.48552 -0.3293,-17.37496 -0.071,-113.22613 0.3799,-126.22204 19.2639,0.92643 38.4718,1.64797 57.7905,2.12415 1.11,0.0271 2.22,0.0533 3.3301,0.0787 -0.2394,17.61541 -0.4137,101.61269 -0.4753,124.55803 z m -68.8569,-145.71587 c -11.5144,2.13601 -22.9194,5.92051 -34.2095,11.02337 -0.9496,13.28224 -1.3091,122.95977 -0.4174,140.74061 11.1998,6.45668 22.4816,11.87325 33.8406,15.98387 22.1687,-0.40635 44.2099,-0.39607 66.3719,0.007 3.9282,0.0714 7.8553,0.155 11.7826,0.25062 0.3872,0.009 0.7744,0.019 1.1615,0.0286 10.8105,-3.90285 21.7759,-9.03123 32.8742,-15.21774 0.4406,-16.02011 0.7676,-127.42823 0.7001,-136.17621 -10.9867,-5.26055 -21.8603,-9.39878 -32.5361,-12.24505 -0.389,-0.009 -0.7781,-0.0188 -1.1672,-0.0285 -3.9464,-0.0983 -7.8918,-0.21631 -11.8372,-0.35402 -22.2551,-0.77684 -44.3635,-2.14446 -66.5635,-4.01229 z"
           id="path4345"
           inkscape:original-d="m 4330.6276,593.02035 -59.4899,0 0,-165.38812 59.4899,0 0,165.38812 z m -69.3011,-207.12448 -31.9252,32.08094 0,184.8547 31.9252,31.9252 78.9565,0 31.9252,-31.9252 0,-184.8547 -31.9252,-32.08094 -78.9565,0 z"
           inkscape:connector-curvature="0" />
        <path
           d="m 4505.6525,501.22802 c -17.456,0.34559 -34.8451,0.60688 -52.4375,0.77637 0.093,-17.23877 0.3008,-37.37673 -0.015,-49.00179 17.5633,-0.71271 34.9802,-1.64265 52.4384,-2.76679 0.4389,12.36285 0.134,33.37276 0.014,50.99221 z m -0.8968,83.02289 c -5.4862,-0.21556 -10.9775,-0.42992 -16.4726,-0.64214 -0.5196,10.02021 -1.4474,18.97834 -3.2789,25.92928 24.8119,2.06127 49.4348,4.33509 74.2203,6.69013 2.4449,-8.494 3.6082,-18.67841 4.2122,-29.65718 -5.4518,-0.21327 -10.9022,-0.42811 -16.365,-0.64426 0.9272,-16.67886 0.698,-42.03698 0.7207,-61.61613 -3.863,-3.27266 -7.7427,-6.536 -11.6049,-9.75009 3.8573,-3.40395 7.8247,-6.91731 11.6833,-10.33472 0.1495,-21.72575 0.7618,-48.89165 -0.228,-63.23515 -11.2674,-5.66457 -22.8685,-9.99083 -34.9163,-12.57502 -40.0739,4.80869 -79.4552,7.86023 -119.7563,8.83829 0.5123,3.39161 0.7202,9.44109 0.8046,17.19966 5.2824,-0.0578 10.5605,-0.13695 15.8382,-0.23725 0.1476,9.26812 -0.1744,111.03079 -0.6908,126.58098 -5.2634,-0.1635 -10.5278,-0.32128 -15.7956,-0.47272 -0.2574,9.20284 -0.6871,17.1306 -1.4852,22.82007 24.8435,1.26822 49.5123,2.92458 74.3267,4.85931 1.6402,-6.62483 2.481,-15.31994 2.9585,-25.13193 -5.5053,-0.20607 -11.0135,-0.40893 -16.5263,-0.6078 0.5735,-12.68904 0.6368,-29.40211 0.6846,-44.93466 17.5977,0.10932 34.9706,0.17574 52.4391,0.19683 -0.027,15.91513 -0.048,33.34471 -0.7683,46.7245 z"
           id="path4347"
           inkscape:original-d="m 4505.0482,494.75302 -51.3918,0 0,-67.12079 51.3918,0 0,67.12079 z m 0,98.42307 -16.1962,0 0,41.58062 74.1287,0 0,-41.58062 -16.1962,0 0,-71.48131 -11.5242,-11.05702 11.5242,-11.36849 0,-81.29246 -32.0809,-32.54813 -118.9798,0 0,42.04782 15.4176,0 0,165.69959 -15.4176,0 0,41.58062 74.1288,0 0,-41.58062 -16.1962,0 0,-56.84244 51.3918,0 0,56.84244 z"
           inkscape:connector-curvature="0" />
        <path
           d="m 4644.9978,519.97522 c 6.3444,20.31707 20.7104,63.48898 25.4462,82.10658 8.8005,0.38518 17.5757,0.74982 26.348,1.09123 8.3374,-23.47437 16.1358,-61.87579 22.6037,-87.88985 0.055,13.02386 1.5205,64.17163 1.3272,76.31759 -3.1215,-0.0661 -6.2446,-0.13483 -9.3709,-0.20608 -0.2592,13.04802 -1.2207,26.06349 -4.0361,38.3179 22.4913,1.75195 44.8936,3.26971 67.3813,4.45184 2.5178,-13.86335 3.02,-27.953 2.8491,-41.6499 -5.2709,-0.0573 -10.5444,-0.12232 -15.8299,-0.19523 -2.4384,-646.454066 -3.7292,481.5693 0.087,-164.40997 5.2587,-0.32305 10.5141,-0.61638 15.7618,-0.8747 0.1687,-13.72822 -0.3451,-27.72522 -2.9022,-41.14951 -20.1005,2.80472 -40.4043,6.14808 -60.5213,9.65397 -2.4744,24.17395 -23.6791,86.18325 -32.06,116.14261 -10.5455,-37.5355 -20.2011,-82.3282 -37.2617,-103.68909 -20.1965,3.62692 -40.0902,7.10804 -60.3967,10.37865 2.1635,6.69942 3.0389,15.39708 3.3959,25.23047 5.2159,-0.47938 10.4172,-0.96661 15.6188,-1.46089 -0.1044,-3.00686 -0.6636,143.17057 -0.8036,145.9241 -5.2137,-0.19201 -10.4293,-0.38733 -15.6543,-0.58559 -0.5993,11.31287 -1.7961,21.93266 -4.3824,30.98378 23.4318,2.24934 46.8233,4.50507 70.2384,6.62654 2.8321,-10.84125 3.9886,-22.8274 4.4658,-35.15774 -4.085,-0.12663 -8.1722,-0.25663 -12.2649,-0.38985 0.7564,-17.99201 0.011,-49.72533 -0.039,-69.56686 z"
           id="path4349"
           inkscape:original-d="m 4644.2732,518.73586 26.1631,87.52177 26.4745,0 23.6714,-90.94789 0,77.86635 -9.4997,0 0,41.58062 67.4323,0 0,-41.58062 -16.1962,0 0,-165.69959 16.1962,0 0,-41.73636 -61.3587,0 -35.0399,125.20908 -35.0398,-125.20908 -60.7358,0 0,41.73636 15.5733,0 0,165.69959 -15.5733,0 0,41.58062 70.2355,0 0,-41.58062 -12.3029,0 0,-74.44023 z"
           inkscape:connector-curvature="0" />
      </g>
      <g
         transform="translate(-4925.9995,-604.66018)"
         id="g4398">
        <path
           style="fill:#5eff00;fill-opacity:1;fill-rule:evenodd;stroke:#000000;stroke-width:8.5055685;stroke-linecap:butt;stroke-linejoin:miter;stroke-miterlimit:4;stroke-dasharray:none;stroke-opacity:1"
           d="m 4159.7326,1305.968 c -9.5644,13.6435 -21.6454,25.5169 -35.4526,34.8434 -15.1369,10.2247 -32.3417,17.3741 -50.2671,20.8883 l 24.2244,-38.4997 c -32.4718,25.6835 -69.5208,45.5628 -108.8753,58.419 -44.1604,14.4261 -91.2003,19.9761 -137.5055,16.2234 30.2052,11.5451 63.1557,15.8343 95.3099,12.4066 30.6716,-3.2697 60.5755,-13.5452 86.7787,-29.8189 l -55.2218,50.6869 c 49.8034,0.8477 99.7622,-8.9625 145.5469,-28.5804 40.877,-17.515 78.4037,-42.8114 109.9741,-74.1325"
           id="path4401"
           inkscape:path-effect="#path-effect4424"
           inkscape:original-d="m 4159.7326,1305.968 c 0,0 -21.641,25.6898 -35.4526,34.8434 -15.1247,10.0239 -50.2671,20.8883 -50.2671,20.8883 l 24.2244,-38.4997 c 0,0 -69.5896,46.0528 -108.8753,58.419 -44.0236,13.8575 -137.5055,16.2234 -137.5055,16.2234 0,0 63.4344,15.6296 95.3099,12.4066 30.4312,-3.0769 86.7787,-29.8189 86.7787,-29.8189 l -55.2218,50.6869 c 0,0 99.8837,-9.6226 145.5469,-28.5804 40.83,-16.9513 109.9741,-74.1325 109.9741,-74.1325"
           inkscape:connector-curvature="0"
           sodipodi:nodetypes="caccacaccac" />
        <path
           style="fill:#5eff00;fill-opacity:1;fill-rule:evenodd;stroke:#000000;stroke-width:8.5055685;stroke-linecap:butt;stroke-linejoin:miter;stroke-miterlimit:4;stroke-dasharray:none;stroke-opacity:1"
           d="m 4162.5896,1306.1678 c -12.6472,-12.6406 -20.3141,-29.7017 -23.5727,-47.2834 -3.2586,-17.5818 -2.3285,-35.7193 0.4667,-53.3807 6.161,-38.9279 21.3967,-76.2973 43.5039,-108.9257 9.1149,-13.4528 19.4562,-26.1934 31.8295,-36.7273 12.3732,-10.5339 26.8713,-18.8244 42.662,-22.6605 15.1114,-3.6711 31.4868,-3.0867 45.7119,3.1965 17.696,7.8163 30.7979,23.8216 38.7294,41.4663 8.3258,18.5218 11.5605,39.0949 11.03,59.395 -0.5306,20.3001 -4.7343,40.3741 -10.7499,59.7697 -11.394,36.7368 -29.9155,72.1115 -58.5181,97.8274 -16.6559,14.975 -37.1522,26.6147 -59.4374,28.8598 -22.3843,2.255 -45.7429,-5.6331 -61.6553,-21.5371 z"
           id="path4403"
           inkscape:path-effect="#path-effect4427"
           inkscape:original-d="m 4162.5896,1306.1678 c -22.9631,-25.6503 -25.7604,-66.3393 -23.106,-100.6641 3.0144,-38.981 20.1909,-77.5393 43.5039,-108.9257 18.9353,-25.4928 44.1692,-49.9541 74.4915,-59.3878 14.5849,-4.5376 31.9227,-3.3739 45.7119,3.1965 17.0741,8.1356 31.77,23.8799 38.7294,41.4663 14.6161,36.9348 10.8125,80.8648 0.2801,119.1647 -10.0753,36.6378 -30.5058,72.1534 -58.5181,97.8274 -16.2366,14.8812 -37.45,27.5836 -59.4374,28.8598 -21.733,1.2615 -47.1349,-5.3176 -61.6553,-21.5371 z"
           inkscape:connector-curvature="0"
           sodipodi:nodetypes="aaaaaaaaaa" />
        <path
           style="fill:none;fill-rule:evenodd;stroke:#000000;stroke-width:8.5055685;stroke-linecap:butt;stroke-linejoin:miter;stroke-miterlimit:4;stroke-dasharray:none;stroke-opacity:1"
           d="m 4190.0608,1323.879 c -21.5081,25.7855 -47.4397,47.8717 -76.3196,65.002 -40.4076,23.9681 -86.5909,38.1208 -133.4895,40.9074"
           id="path4405"
           inkscape:path-effect="#path-effect4421"
           inkscape:original-d="m 4190.0608,1323.879 c 0,0 -47.0167,48.9396 -76.3196,65.002 -40.81,22.37 -133.4895,40.9074 -133.4895,40.9074"
           inkscape:connector-curvature="0"
           sodipodi:nodetypes="cac" />
        <path
           style="fill:#000000;fill-opacity:1;fill-rule:evenodd;stroke:#000000;stroke-width:2.83518934px;stroke-linecap:butt;stroke-linejoin:miter;stroke-opacity:1"
           d="m 4170.381,1194.7449 c 9.5892,-29.9673 26.4173,-57.5905 48.6486,-79.8562 8.7497,-8.7632 18.5305,-16.8335 30.0313,-21.4249 5.7504,-2.2957 11.892,-3.6874 18.0833,-3.7624 6.1913,-0.075 12.4325,1.1909 17.9659,3.9693 8.1504,4.0924 14.469,11.3345 18.4532,19.5383 3.9842,8.2038 5.7626,17.338 6.3107,26.4416 1.4628,24.2949 -5.5598,48.3057 -14.2845,71.0271 -10.3736,27.0155 -23.2638,53.0641 -38.4494,77.6984 19.0015,-34.2088 31.4462,-72.0444 36.4613,-110.8535 1.4305,-11.07 2.2447,-22.4576 -0.4932,-33.2787 -1.369,-5.4105 -3.6351,-10.6278 -6.9558,-15.1135 -3.3207,-4.4856 -7.7211,-8.2217 -12.8398,-10.4459 -7.9929,-3.4731 -17.2848,-3.0642 -25.5704,-0.3627 -8.2856,2.7015 -15.7081,7.5361 -22.6689,12.7798 -22.5153,16.961 -41.311,38.8329 -54.6923,63.6433 z"
           id="path4407"
           inkscape:path-effect="#path-effect4418"
           inkscape:original-d="m 4170.381,1194.7449 c 0,0 24.1627,-60.5699 48.6486,-79.8562 18.174,-14.3148 45.3188,-32.6454 66.0805,-21.218 18.0069,9.9111 23.6405,23.0371 24.7639,45.9799 1.1235,22.9429 -10.5345,50.8178 -14.2845,71.0271 -5.6087,30.2264 -38.4494,77.6984 -38.4494,77.6984 0,0 36.7393,-71.9559 36.4613,-110.8535 -0.1482,-20.7455 -2.0173,-49.0123 -20.2888,-58.8381 -14.6235,-7.864 -34.14,3.6478 -48.2393,12.4171 -23.7522,14.7731 -54.6923,63.6433 -54.6923,63.6433 z"
           inkscape:connector-curvature="0"
           sodipodi:nodetypes="cassscaaac" />
        <path
           style="fill:none;fill-rule:evenodd;stroke:#000000;stroke-width:8.5055685;stroke-linecap:butt;stroke-linejoin:miter;stroke-miterlimit:4;stroke-dasharray:none;stroke-opacity:1"
           d="m 4144.768,1191.5183 c 1.6852,7.6566 6.1023,14.6824 12.2721,19.5195 6.1325,4.8079 13.9513,7.4195 21.7422,7.2623"
           id="path4410"
           inkscape:path-effect="#path-effect4415"
           inkscape:original-d="m 4144.768,1191.5183 c 0,0 6.2287,14.7713 12.2721,19.5195 6.0084,4.7206 21.7422,7.2623 21.7422,7.2623"
           inkscape:connector-curvature="0"
           sodipodi:nodetypes="cac" />
        <path
           style="fill:none;fill-rule:evenodd;stroke:#000000;stroke-width:8.5055685;stroke-linecap:butt;stroke-linejoin:miter;stroke-miterlimit:4;stroke-dasharray:none;stroke-opacity:1"
           d="m 4155.3923,1171.5872 c 1.6852,7.6566 6.1024,14.6824 12.2722,19.5195 6.1325,4.8078 13.9512,7.4195 21.7421,7.2623"
           id="path4412"
           inkscape:path-effect="#path-effect4412"
           inkscape:original-d="m 4155.3923,1171.5872 c 0,0 6.2288,14.7713 12.2722,19.5195 6.0083,4.7206 21.7421,7.2623 21.7421,7.2623"
           inkscape:connector-curvature="0"
           sodipodi:nodetypes="cac" />
        <path
           style="fill:none;fill-rule:evenodd;stroke:#000000;stroke-width:8.5055685;stroke-linecap:butt;stroke-linejoin:miter;stroke-miterlimit:4;stroke-dasharray:none;stroke-opacity:1"
           d="m 4167.7043,1149.4804 c 1.6852,7.6566 6.1023,14.6824 12.2721,19.5195 6.1325,4.8079 13.9513,7.4195 21.7422,7.2623"
           id="path4414"
           inkscape:path-effect="#path-effect4409"
           inkscape:original-d="m 4167.7043,1149.4804 c 0,0 6.2287,14.7713 12.2721,19.5195 6.0084,4.7206 21.7422,7.2623 21.7422,7.2623"
           inkscape:connector-curvature="0"
           sodipodi:nodetypes="cac" />
        <path
           style="fill:none;fill-rule:evenodd;stroke:#000000;stroke-width:8.5055685;stroke-linecap:butt;stroke-linejoin:miter;stroke-miterlimit:4;stroke-dasharray:none;stroke-opacity:1"
           d="m 4182.3738,1134.7159 c 1.6852,7.6566 6.1025,14.6823 12.2722,19.5194 6.1325,4.8079 13.9512,7.4195 21.7421,7.2624"
           id="path4416"
           inkscape:path-effect="#path-effect4406"
           inkscape:original-d="m 4182.3738,1134.7159 c 0,0 6.2288,14.7713 12.2722,19.5194 6.0083,4.7207 21.7421,7.2624 21.7421,7.2624"
           inkscape:connector-curvature="0"
           sodipodi:nodetypes="cac" />
        <path
           style="fill:#000000;fill-opacity:1;fill-rule:evenodd;stroke:#000000;stroke-width:2.83518934px;stroke-linecap:butt;stroke-linejoin:miter;stroke-opacity:1"
           d="m 4223.6654,1315.4628 c 22.6976,-8.9448 42.9058,-24.1154 57.8305,-43.4142 15.4493,-19.9771 25.0476,-43.8494 32.4992,-67.979 5.6172,-18.1895 10.1574,-36.9955 9.6597,-56.0261 -0.4995,-19.1008 -6.191,-38.0408 -16.3031,-54.253 12.2654,3.7191 22.8303,12.7204 28.4502,24.2395 6.7799,13.8969 6.2708,30.2028 3.996,45.4971 -3.636,24.446 -11.4255,48.2608 -22.8508,70.1763 -7.8663,15.0887 -17.4866,29.3306 -29.2227,41.6518 -17.5586,18.4339 -39.8073,32.3639 -64.059,40.1076 z"
           id="path4418"
           inkscape:path-effect="#path-effect4403"
           inkscape:original-d="m 4223.6654,1315.4628 c 0,0 42.5543,-24.7687 57.8305,-43.4142 15.9174,-19.4281 24.8769,-44.0475 32.4992,-67.979 5.7513,-18.0571 10.8072,-37.11 9.6597,-56.0261 -1.1435,-18.8486 -16.3031,-54.253 -16.3031,-54.253 0,0 22.7371,13.1679 28.4502,24.2395 6.9812,13.5291 5.7216,30.3711 3.996,45.4971 -2.7885,24.4424 -11.8567,48.1687 -22.8508,70.1763 -7.5795,15.1724 -16.92,29.9774 -29.2227,41.6518 -18.2747,17.3412 -64.059,40.1076 -64.059,40.1076 z"
           inkscape:connector-curvature="0"
           sodipodi:nodetypes="caaacaaaac" />
        <path
           style="fill:#000000;fill-opacity:1;fill-rule:evenodd;stroke:#000000;stroke-width:2.83518934px;stroke-linecap:butt;stroke-linejoin:miter;stroke-opacity:1"
           d="m 4229.099,1094.0605 c 5.5003,-5.7406 11.6486,-10.8598 18.2907,-15.2291 2.3823,-1.5671 4.8405,-3.0477 6.9726,-4.9413 2.132,-1.8935 3.9487,-4.2633 4.6545,-7.0261 0.5936,-2.3235 0.3542,-4.8507 -0.6652,-7.0214 -1.0194,-2.1707 -2.8112,-3.9689 -4.9783,-4.9959 7.4517,-0.3283 14.99,2.6018 20.2638,7.8766 4.0015,4.0022 6.6933,9.2934 7.572,14.8843 -5.6269,0.7428 -11.2136,1.7905 -16.7274,3.1368 -12.2718,2.9965 -24.1802,7.4782 -35.3827,13.3161 z"
           id="path4422"
           inkscape:path-effect="#path-effect4400"
           inkscape:original-d="m 4229.099,1094.0605 c 0,0 13.9228,-8.6061 18.2907,-15.2291 2.2965,-3.4821 26.7158,-5.7222 11.6271,-11.9674 -4.8147,-1.9928 -5.6435,-12.0173 -5.6435,-12.0173 0,0 14.89,3.0144 20.2638,7.8766 4.1277,3.7348 7.572,14.8843 7.572,14.8843 0,0 -11.264,1.6091 -16.7274,3.1368 -12.1363,3.3936 -35.3827,13.3161 -35.3827,13.3161 z"
           inkscape:connector-curvature="0"
           sodipodi:nodetypes="csscacac" />
        <path
           style="fill:#000000;fill-opacity:1;fill-rule:evenodd;stroke:#000000;stroke-width:2.83518934px;stroke-linecap:butt;stroke-linejoin:miter;stroke-opacity:1"
           d="m 4269.6862,1047.3745 c 13.8656,-0 27.6854,4.8263 38.5345,13.4607 9.8653,7.8514 17.2361,18.7908 20.8082,30.8824 -4.5215,-8.0009 -12.8268,-13.7517 -21.907,-15.1689 -5.335,-0.8326 -10.8887,-0.219 -15.9132,1.7582 0.567,-5.1856 -0.3157,-10.5222 -2.5224,-15.249 -3.5907,-7.6915 -10.7675,-13.6155 -19.0001,-15.6834 z"
           id="path4424"
           inkscape:path-effect="#path-effect4397"
           inkscape:original-d="m 4269.6862,1047.3745 c 0,0 27.7607,5.1512 38.5345,13.4607 9.8291,7.5808 20.8082,30.8824 20.8082,30.8824 0,0 -13.2962,-12.9905 -21.907,-15.1689 -5.1737,-1.3089 -15.9132,1.7582 -15.9132,1.7582 0,0 0.048,-10.7839 -2.5224,-15.249 -4.0972,-7.1172 -19.0001,-15.6834 -19.0001,-15.6834 z"
           inkscape:connector-curvature="0"
           sodipodi:nodetypes="cacacac" />
      </g>
    </g>
  </g>
</svg>
