<svg width="1929" height="459" viewBox="0 0 1929 459" fill="none" xmlns="http://www.w3.org/2000/svg">
<path d="M153 354H0L21 289.5H45.5L121 71.5H80L67 87.5H0L34 0H353.5L332 58.5001L300.5 87.5H261L266 71.5H220L148 289.5H175L153 354Z" transform="translate(392.5 40.9365)" fill="white"/>
<path d="M26.5 265.072L0 339.572C8.83333 350.072 58.5 382.572 143 382.572C227.5 382.572 318 337.072 327 257.072C340.612 136.072 171.407 148.072 176.5 111.572C179.081 93.0723 205.8 76.0723 241 76.0723C276.2 76.0723 293.833 83.0716 295 86.0716L290 101.572H352.5L377 34.0716C375.5 23.5717 350.7 2.07185 263.5 0.0718528C154.5 -2.42815 64.5 60.5715 64.5 148.072C64.5 235.572 216.5 225.073 216.5 257.072C216.5 289.072 187.5 298.122 158 301.072C119.5 304.922 96 291.405 85.5 287.072L91.5 265.072H26.5Z" transform="translate(12 25.8652)" fill="white"/>
<path d="M19 290L0 359.5H138.5L164 290H138.5L184 147.5L191 290H247.5L360.5 147.5L307 290H289L266.5 359.5H406L428 290H406L480.5 65.5H502L519 0H378L266.5 147.5L262.5 0H112L90 65.5H112L39.5 290H19Z" transform="translate(1409 36.9375)" fill="white"/>
<path fill-rule="evenodd" clip-rule="evenodd" d="M94 114.5L116.5 65H92.5L120.5 0H347.5C372.333 12.833 413.8 82.7998 393 138C376.512 181.755 341.552 199.393 315.812 212.38C309.078 215.776 302.976 218.855 298 222L326.5 297.5H352L331 361H216L198.5 239H157L135.5 297.5H157L135.5 361H0L5 342L94 114.5ZM176.5 164L211 76.5H274.5C285.833 79.833 300.5 99.2998 290.5 124.5C280.5 149.7 257.833 159.167 245 164H176.5Z" transform="translate(1042 35.4375)" fill="white"/>
<path d="M0.177672 37.5C1.77767 51.9 16.8443 61.1667 24.1777 64C19.1777 56 18.7777 55.1 13.1777 41.5C7.57762 27.9 10.8443 4.33333 13.1777 0C8.17767 6.5 -1.42233 23.1 0.177672 37.5Z" transform="translate(801 201)" fill="white"/>
<path d="M0.177672 37.5C1.77767 51.9 16.8443 61.1667 24.1777 64C19.1777 56 18.7777 55.1 13.1777 41.5C7.57762 27.9 10.8443 4.33333 13.1777 0C8.17767 6.5 -1.42233 23.1 0.177672 37.5Z" transform="translate(854 179)" fill="white"/>
<path d="M0.177672 37.5C1.77767 51.9 16.8443 61.1667 24.1777 64C19.1777 56 18.7777 55.1 13.1777 41.5C7.57762 27.9 10.8443 4.33333 13.1777 0C8.17767 6.5 -1.42233 23.1 0.177672 37.5Z" transform="translate(909 167)" fill="white"/>
<path d="M153 373.936H0L21 309.436H45.5L121 91.4365H80L67 107.436H0L34 19.9365H353.5L332 78.4366C388.5 33.9375 535 -34.0624 664.5 19.9365C414.5 31.161 254 226.936 342.5 289.436C431 351.937 564.5 281.937 611.5 226.936C429.5 571.438 37.5 391.938 300.5 107.436H261L266 91.4365H220L148 309.436H175L153 373.936Z" transform="translate(383.5 2.5625)" fill="#263884" stroke="white" stroke-width="4"/>
<path d="M268.712 0C-9.78732 93 -28.7873 392.5 302.712 281C-63.7878 544 -123.788 73.5 268.712 0Z" transform="translate(620.788 30.5)" fill="#134780" stroke="#F2F2F2" stroke-width="5"/>
<path d="M26.5 265.072L0 339.572C8.83333 350.072 58.5 382.572 143 382.572C227.5 382.572 318 337.072 327 257.072C340.612 136.072 171.407 148.072 176.5 111.572C179.081 93.0723 205.8 76.0723 241 76.0723C276.2 76.0723 293.833 83.0716 295 86.0716L290 101.572H352.5L377 34.0716C375.5 23.5717 350.7 2.07185 263.5 0.0718528C154.5 -2.42815 64.5 60.5715 64.5 148.072C64.5 235.572 216.5 225.073 216.5 257.072C216.5 289.072 187.5 298.122 158 301.072C119.5 304.922 96 291.405 85.5 287.072L91.5 265.072H26.5Z" transform="translate(3 7.42773)" fill="#263884" stroke="white" stroke-width="4"/>
<path d="M19 290L0 359.5H138.5L164 290H138.5L184 147.5L191 290H247.5L360.5 147.5L307 290H289L266.5 359.5H406L428 290H406L480.5 65.5H502L519 0H378L266.5 147.5L262.5 0H112L90 65.5H112L39.5 290H19Z" transform="translate(1400 18.5)" fill="#263884" stroke="white" stroke-width="4"/>
<path d="M106 13.2768C44.4 30.4768 7.5 54.7769 0 73.2763C32.5 56.7769 50 48.468 98.5 32.7769C168.478 10.137 209.5 5.77686 234.5 1.77625C212.5 -0.223753 167.6 -3.92322 106 13.2768Z" transform="translate(746 192.223)" fill="white"/>
<path fill-rule="evenodd" clip-rule="evenodd" d="M438.5 114.5L461 65H437L465 0H692C716.833 12.833 758.3 82.7998 737.5 138C721.012 181.755 686.052 199.393 660.312 212.38C653.578 215.776 647.476 218.855 642.5 222L671 297.5H696.5L675.5 361H560.5L543 239H501.5L480 297.5H501.5L480 361H344.5L349.5 342C187.1 467.2 48.8333 445.5 0 419C195 424.28 374.618 269.5 344.5 176C314.382 82.5 120.5 123 56.5 208C88 80 367 -76 438.5 114.5ZM521 164L555.5 76.5H619C630.333 79.833 645 99.2998 635 124.5C625 149.7 602.333 159.167 589.5 164H521Z" transform="translate(688.5 17)" fill="#263884" stroke="white" stroke-width="4"/>
<path d="M0 73.2985C297.5 -159.705 456.5 224.795 29 366.298C381.5 178.295 206 -5.20459 0 73.2985Z" transform="translate(825 64.7051)" fill="#134780" stroke="#F2F2F2" stroke-width="5"/>
<path d="M0.543791 0C0.543791 0 -14.9558 75 119.544 56.5C36.5442 56.5 4.74705 27.5 0.543791 0Z" transform="translate(655.456 319)" fill="white"/>
<path d="M0.543791 0C0.543791 0 -14.9558 75 119.544 56.5C36.5442 56.5 4.74705 27.5 0.543791 0Z" transform="translate(1085.54 143.436) rotate(-180)" fill="white"/>
</svg>
