<svg width="419" height="241" viewBox="0 0 419 241" fill="none" xmlns="http://www.w3.org/2000/svg">
<path d="M98.0008 82C46.5177 70.285 30.5159 54.601 36.5008 2C16.3111 16.7948 12.0057 28.5346 9.50075 52L5.50075 42C-2.56702 63.9578 -0.43645 77.2051 12.0008 102L2.50075 96.5C11.3683 121.769 23.6234 131.837 54.0008 145C50.8899 145.853 48.661 146.273 44.5008 147C68.6264 158.955 83.353 162.87 113.001 162L113.501 165.5C90.8488 169.009 108.534 200.933 137.001 186.5C135.416 186.387 117.051 176.074 131.501 176.5C136.1 177.773 138.774 178.054 144.001 176.5L138.501 171C144.623 169.316 147.566 170.577 152.001 176.5C146.195 180.116 142.417 180.979 135.001 181C144.348 188.385 151.076 188.405 164.501 184.5C161.271 187.852 159.157 189.353 155.001 191.5C171.572 215.646 184.022 225.572 209.501 239.5C235.71 225.8 247.463 214.984 264.501 191.5C259.408 189.604 257.523 187.962 255.001 184.5C269.327 188.151 275.97 187.98 283.501 181C276.369 180.617 272.772 179.612 267.001 176.5C271.504 170.186 274.492 169.281 280.501 171.5L275.001 176.5C280.742 177.363 283.558 177.107 288.501 176.5C297.38 176.576 295.1 179.277 281.501 187.5C294.171 196.486 337.88 180.043 305.001 165.5C305.677 164.399 305.875 163.628 306.001 162C339.041 161.704 354.311 158.423 375.001 146.5C370.635 146.46 368.508 146.249 366.001 145C396.002 132.15 407.91 121.979 417.001 96.5C412.837 99.8251 410.573 101.371 407.001 102C419.197 77.3561 421.583 64.1476 413.001 42.5C412.157 46.9542 411.592 49.3437 409.001 52C409.001 29.0141 401.672 19.1043 383.501 3.5C389.922 59.8379 367.868 78.1512 282.501 87C271.841 86.814 266.435 87.19 258.001 89C256.169 89.1329 255.498 88.6766 255.001 87L250.001 71.5C247.843 66.1096 245.15 63.7799 239.501 60C214.328 50.9559 200.552 51.667 176.501 62C171.504 65.7565 169.701 68.4165 168.001 74L163.501 87.5C162.942 88.7023 162.355 89.0349 160.501 88.5C151.175 87.0368 146.282 86.8059 138.001 87C122.404 86.4189 113.665 85.3218 98.0008 82Z" fill="#1B2587" stroke="black"/>
<path d="M175 130.004C169.507 122.377 167.244 118.04 165 110.004C163.235 105.417 161.195 103.609 156 103.003C54.067 94.6193 28.0081 78.0433 22.5002 33.0039C15.4191 46.4053 17.1016 59.1077 26.5002 89.0039L28 92C22.3305 88.7307 19.0543 87.1942 15 79C13.8471 76.1718 13.5781 74.4853 13.0002 71.5032C10.9912 95.0762 20.6923 106.446 58.0002 124.003C46.3266 123.726 40.4777 121.602 30.5002 116.504C43.6995 134.979 58.4234 140.659 99.5 141.504C92.6738 144.897 87.8781 145.941 78.0002 146.504C87.1397 151.212 95.1315 152.184 112.5 152.004C115.893 146.93 118.701 145.987 124.5 146.004L131 141.504C134.261 127.981 149.513 133.834 149.5 137.504C151.948 138.87 153.498 138.763 156.5 137.504C155.439 133.823 156.569 132.664 160.5 131.504C158.871 129.735 157.655 129.236 154.5 130.004C118.613 131.231 102.758 129.485 83.0002 121.004C108.003 126.027 123.731 126.619 153.5 125.504L148.5 118.504C71.7065 109.483 46.7733 99.5164 33.0002 74.5039C57.3213 98.8127 86.3216 105.287 149.5 111.504C156.098 122.822 161.688 127.114 175 130.004Z" fill="#7FC8F1"/>
<path d="M167.993 195.504C169.024 198.298 169.772 199.735 171.493 202.004C177.734 197.689 180.665 194.412 185.493 188.004L186.993 188.504C184.045 195.828 182.436 199.92 179.993 207.004C182.902 212.343 185.083 214.21 188.993 217.504L200.993 191.004C201.604 204.131 201.852 211.208 201.993 223.004C203.951 226.079 205.405 227.832 209.993 231.004L222.993 223.004L218.493 191.004C223.451 200.826 226.592 206.231 233.493 215.504C237.577 212.315 239.744 210.323 243.492 206.504C237.384 197.702 235.416 193.775 232.993 187.504C238.176 192.545 241.444 195.377 249.492 200.504L254.492 193.504C243.324 185.679 238.645 178.471 231.493 163.504C215.761 173.027 206.957 173.661 191.493 166.004C183.875 179.218 178.796 185.715 167.993 195.504Z" fill="#7FC8F1"/>
<path d="M253.992 110.004C251.749 118.04 249.486 122.377 243.992 130.004C257.304 127.114 262.894 122.822 269.492 111.504C332.67 105.287 361.67 98.8127 385.991 74.5039C372.218 99.5164 347.286 109.483 270.492 118.504L265.492 125.504C295.262 126.619 310.988 126.027 335.992 121.004C316.233 129.485 300.379 131.231 264.492 130.004C261.337 129.236 260.121 129.735 258.492 131.504C262.424 132.664 263.553 133.823 262.492 137.504C265.495 138.763 267.044 138.87 269.492 137.504C269.479 133.834 284.731 127.981 287.992 141.504L294.492 146.004C300.291 145.987 303.098 146.93 306.492 152.004C323.86 152.184 331.852 151.212 340.991 146.504C331.114 145.941 326.318 144.897 319.492 141.504C360.568 140.659 375.292 134.979 388.491 116.504C378.514 121.602 372.665 123.726 360.991 124.003C398.299 106.446 408 95.0762 405.991 71.5032C401.426 79.875 398.132 83.8954 392.491 89.0039C401.89 59.1077 403.572 46.4053 396.491 33.0039C390.983 78.0433 364.925 94.6193 262.992 103.003C257.797 103.609 255.757 105.417 253.992 110.004Z" fill="#7FC8F1"/>
<path d="M237.492 152.004V164.504C240.515 156.248 242.508 151.802 247.992 145.004H244.992C247.377 142.094 249.265 140.888 253.992 140.004C253.014 139.131 252.244 138.766 249.992 138.504C251.509 137.375 253.076 136.717 256.492 135.504C254.326 134.527 244.295 136.708 238.298 142.598C236.53 145.698 235.346 149.766 233.993 155.504C235.261 153.472 235.988 152.396 237.492 152.004Z" fill="#7FC8F1"/>
<path d="M257.492 161.504C258.034 157.878 258.161 155.877 259.992 152.004L256.992 154.004C258.925 147.1 261.988 144.492 268.492 140.504C268.29 145.17 268.667 147.548 271.992 150.504C265.884 152.255 262.782 155.051 257.492 161.504Z" fill="#7FC8F1"/>
<path d="M249.492 174.504C247.495 171.672 247.026 170.004 247.492 167.504C247.958 165.004 252.937 161.985 256.492 166.504C252.1 167.832 250.259 170.681 249.492 174.504Z" fill="#7FC8F1"/>
<path d="M161.5 161.504C160.959 157.878 160.832 155.877 159 152.004L162 154.004C160.068 147.1 157.004 144.492 150.5 140.504C150.702 145.17 150.325 147.548 147 150.504C153.108 152.255 156.211 155.051 161.5 161.504Z" fill="#7FC8F1"/>
<path d="M169.5 174.504C171.498 171.672 171.967 170.004 171.5 167.504C171.034 165.004 166.056 161.985 162.5 166.504C166.892 167.832 168.734 170.681 169.5 174.504Z" fill="#7FC8F1"/>
<path d="M181.5 164.504V152.004C183.005 152.396 183.732 153.472 185 155.504C183.647 149.766 182.463 145.698 180.694 142.598C174.698 136.708 164.667 134.527 162.5 135.504C165.693 136.301 167.032 137 169 138.504C166.748 138.766 165.978 139.131 165 140.004C169.467 141.013 171.452 142.085 174 145.004H171C176.485 151.802 178.478 156.248 181.5 164.504Z" fill="#7FC8F1"/>
<path d="M168.493 103.003C170.608 108.351 172.152 110.819 175.993 113.503C176.907 110.181 177.468 108.786 178.493 106.503C179.871 115.852 184.051 119.408 194.993 124.003C201.42 127.902 204.491 131.184 209.493 138.003C214.355 131.704 217.233 128.286 224.493 124.003C235.263 118.227 239.534 114.544 240.992 106.503L243.492 113.503C247.17 110.436 248.736 108.276 249.992 103.003C247.126 96.7378 246.253 92.326 245.492 83.5032C239.302 70.6442 234.637 68.3791 223.993 74.0032L226.993 70.0032C214.623 66.4351 207.332 66.5513 193.493 71.5032L195.98 76.9741C193.176 70.8622 174.718 64.8764 174.993 89.5032C173.872 92.4752 172.979 94.744 171.996 96.8275C171.205 98.7842 170.064 100.695 168.493 103.003Z" fill="#7FC8F1"/>
<path d="M193.493 71.5032C207.332 66.5513 214.623 66.4351 226.993 70.0032L223.993 74.0032C234.637 68.3791 239.302 70.6442 245.492 83.5032C242.942 72.474 240.24 68.4942 230.993 69.0039C212.005 61.3013 202.81 61.4146 188.993 69.5039C179.211 67.7072 175.487 70.9142 173.493 88.0039C173.463 91.6703 173.024 94.2878 171.996 96.8275C172.979 94.744 173.872 92.4752 174.993 89.5032C174.718 64.8764 193.176 70.8622 195.98 76.9741L193.493 71.5032Z" fill="#FFFFFB"/>
<path d="M156 103.003C161.195 103.609 163.235 105.417 165 110.004C164.42 104.392 164.53 100.876 159 99.5039C109.514 95.4365 71.5002 89.0039 55.0002 79.5039C38.5002 70.0039 26.0342 53.8388 26.0002 28.0039L22.5002 33.0039C28.0081 78.0433 54.067 94.6193 156 103.003Z" fill="#FFFFFB"/>
<path d="M253.992 110.004C255.757 105.417 257.797 103.609 262.992 103.003C364.925 94.6193 390.983 78.0433 396.491 33.0039L392.991 28.0039C392.957 53.8388 380.491 70.0039 363.991 79.5039C347.491 89.0039 309.478 95.4365 259.992 99.5039C254.462 100.876 254.572 104.392 253.992 110.004Z" fill="#FFFFFB"/>
<path d="M171.493 202.004C169.772 199.735 169.024 198.298 167.993 195.504C178.796 185.715 183.875 179.218 191.493 166.004L186.993 163.004C181.292 176.637 177.025 183.661 164.493 193.504C166.529 197.713 168.099 199.543 171.493 202.004Z" fill="#FFFFFB"/>
<path d="M188.993 217.504C185.083 214.21 182.902 212.343 179.993 207.004C182.436 199.92 184.045 195.828 186.993 188.504L185.493 188.004C182.833 194.79 180.676 198.791 174.993 206.504C180.015 212.142 183.132 214.394 188.993 217.504Z" fill="#FFFFFB"/>
<path d="M209.993 231.004C205.405 227.832 203.951 226.079 201.993 223.004C201.852 211.208 201.604 204.131 200.993 191.004C199.701 205.386 198.767 212.886 195.993 223.004C201.423 227.188 204.449 229.095 209.993 231.004Z" fill="#FFFFFB"/>
<path d="M233.493 215.504C226.592 206.231 223.451 200.826 218.493 191.004C221.794 202.666 224.589 208.438 230.493 218.004L233.493 215.504Z" fill="#FFFFFB"/>
<path d="M249.492 200.504C241.444 195.377 238.176 192.545 232.993 187.504C237.605 193.124 240.049 196.262 246.992 202.004C248.188 201.749 248.761 201.471 249.492 200.504Z" fill="#FFFFFB"/>
<path d="M187.493 130.504L179.993 126.504C186.093 143.178 189.893 151.246 198.493 159.504C207.496 165.217 212.252 164.47 220.493 159.504C229.017 151.874 232.874 143.203 239.492 126.504L231.493 130.504V126.004C220.46 132.537 215.403 137.355 209.493 149.004C203.498 137.558 198.352 132.826 187.493 126.004V130.504Z" fill="#7FC8F1"/>
<path d="M185 155.504C183.647 149.766 182.463 145.698 180.694 142.598C183.939 145.785 186.003 150.058 185 155.504Z" fill="#7FC8F1"/>
<path d="M159.5 135.004L162.5 135.504C164.667 134.527 174.698 136.708 180.694 142.598C178.438 138.642 175.229 136.262 169.5 134.004C165.482 132.636 164.293 132.944 159.5 135.004Z" fill="#FFFFFB"/>
<path d="M238.298 142.598C236.53 145.698 235.346 149.766 233.993 155.504C232.99 150.058 235.054 145.785 238.298 142.598Z" fill="#7FC8F1"/>
<path d="M256.492 135.504L259.492 135.004C254.699 132.944 253.511 132.636 249.492 134.004C243.764 136.262 240.555 138.642 238.298 142.598C244.295 136.708 254.326 134.527 256.492 135.504Z" fill="#FFFFFB"/>
<path d="M190.5 74.9953C184.967 70.9908 182.304 73.0216 178 80.9953C181.698 77.4136 183.7 76.5532 187 78.9953C182.75 87.5705 184.927 90.2242 193 92.9953C188.225 97.88 186.522 100.454 189.5 103.995C187.125 109.12 189.47 111.572 197.5 115.495C203.165 117.941 205.761 120.889 209.5 128.495C212.909 120.781 215.63 118.128 222 115.495C228.846 111.715 231.888 109.44 230 103.995C232.61 99.4387 230.914 97.0973 226.5 92.9953C231.922 89.8588 237.711 90.0614 232 78.9953C234.794 76.2974 236.934 76.988 241.5 80.9953C237.3 73.7071 234.755 70.4931 228 74.9953C225.323 77.9373 223.623 79.4848 220 81.9953H214.5C212.017 80.7693 210.892 79.814 209.5 77.4953C208.356 79.3353 207.537 80.4183 205 81.9953H198C195.242 80.2622 193.588 78.6628 190.5 74.9953Z" fill="#172785"/>
<path d="M209.5 118.499C204.334 104.742 201.488 96.8187 192 101.499C192.11 96.8714 194.194 94.5898 201 90.9993L204 92.9993V88.4993C208.171 84.5722 210.581 84.9219 215 88.4993V92.9993L217.5 90.9993C224.541 94.5015 227.451 96.637 226.5 101.499C216.766 97.6723 214.175 105.097 209.619 118.157L209.5 118.499Z" fill="#FFD224"/>
<path d="M206 116.5C202.877 113.29 201.066 111.634 197.5 109.5C193.221 107.751 193.9 106.243 195.5 103.5C201.818 101.761 203.072 107.82 206 116.5Z" fill="#FFD224"/>
<path d="M213.5 116.5C216.18 113.028 217.918 111.28 222.5 109.5C224.805 107.48 225.104 106.089 223.5 103.5C217.266 103.099 215.785 107.602 213.5 116.5Z" fill="#FFD224"/>
<path d="M147.999 165.006C141.372 160.511 138.172 157.416 134.999 149.006V141.006C136.997 136.239 150.048 134.609 144.499 147.006L142.999 143.006C142.295 149.943 143.52 154.841 147.999 165.006Z" fill="#FFD224"/>
<path d="M137 174.999C125.798 170.937 120.584 167.861 116.5 158.499C115.678 154.287 116.492 153.8 119.457 152.025L119.5 151.999C122.5 150.203 125.921 150.325 127.5 153.999V158.499L124.5 155.999C127.213 164.519 130.668 168.314 137 174.999Z" fill="#FFD224"/>
<path d="M129.999 186.999C118.994 187.145 113.876 185.841 108.499 178.499C107.323 174.236 107.874 172.534 111.499 170.999C117.038 170.513 118.025 171.977 117.999 175.999L114.999 174.999C119.52 180.303 123.177 182.754 129.999 186.999Z" fill="#FFD224"/>
<path d="M156.5 174.999C156.65 169.551 160.46 169.169 165 171.999C169.111 177.767 162.5 183.999 157 184.499C151.5 184.999 148.646 184.477 144.499 182.999C151.995 181.236 155.436 179.322 160 173.999C158.812 173.856 158.039 174.091 156.5 174.999Z" fill="#FFD224"/>
<path d="M271 165.006C277.627 160.511 280.827 157.416 284 149.006V141.006C282.002 136.239 268.952 134.609 274.5 147.006L276 143.006C276.704 149.943 275.479 154.841 271 165.006Z" fill="#FFD224"/>
<path d="M262.499 174.999C262.349 169.551 258.54 169.169 253.999 171.999C249.888 177.767 256.499 183.999 261.999 184.499C267.499 184.999 270.354 184.477 274.5 182.999C267.004 181.236 263.564 179.322 258.999 173.999C260.187 173.856 260.961 174.091 262.499 174.999Z" fill="#FFD224"/>
<path d="M281.999 174.999C293.201 170.937 298.415 167.861 302.499 158.499C303.321 154.287 302.507 153.8 299.542 152.025L299.499 151.999C296.499 150.203 293.078 150.325 291.499 153.999V158.499L294.499 155.999C291.787 164.519 288.331 168.314 281.999 174.999Z" fill="#FFD224"/>
<path d="M289 186.999C300.005 187.145 305.123 185.841 310.5 178.499C311.676 174.236 311.126 172.534 307.5 170.999C301.962 170.513 300.974 171.977 301 175.999L304 174.999C299.479 180.303 295.822 182.754 289 186.999Z" fill="#FFD224"/>
<path d="M192 90.5C186.702 86.8856 186.578 84.6851 190 80.5C193.871 83.8488 195.197 85.8225 195 89.4992C194.427 90.3444 193.902 90.6437 192 90.5Z" fill="#FFFFFB"/>
<path d="M224 89.4992C224.168 84.7954 225.804 83.0884 229.5 80.5C232.923 84.4369 233.215 86.6455 227 90.5C225.764 90.6568 225.07 90.577 224 89.4992Z" fill="#FFFFFB"/>
</svg>
