<svg width="272" height="225" viewBox="0 0 272 225" fill="none" xmlns="http://www.w3.org/2000/svg">
<path d="M40.5 45.5C25.7125 63.9173 17.3476 73.9817 0 83.5C7.61584 86.5829 11.8853 86.4737 19.5 86C-1.7496 137.059 2.04593 159.184 26 191.5C29.3011 183.367 32.1768 179.871 40.5 177C58.7151 206.205 74.8702 217.007 116 224.5C120.268 205.2 126.724 198.468 144 192.5C145.345 196.072 144.896 201.285 140.5 207.5C150.434 206.132 156.146 203.024 166.5 195C174.783 188.441 179.507 188.215 188 191.5C201.497 198.198 207.94 198.266 217 191.5C225.794 191.92 230.721 191.419 239.5 189C240.358 191.178 240.075 192.547 239.5 195C247.23 192.379 250.784 189.875 256 184C258.5 184.667 261.693 189.382 262.5 188C263.563 186.18 264.369 177.653 263.5 174.5C267.395 169.679 267.398 165.759 266 158C269.558 148.327 270.647 141.821 272 129.5C264.354 120.424 259.462 116.203 250 109.5C250.778 106.097 250.799 103.823 250 99.5C248.065 92.165 249.748 89.3792 256 86C244.436 66.9533 237.145 57.6362 221.5 45.5C220.673 30.8708 218.504 23.63 208 14.5C199.692 16.4541 195.926 18.7071 190.5 24.5C157.205 14.5816 137.224 12.7069 98.5 18C95.782 9.45682 92.1748 5.87298 84 0.5C55.6656 9.74155 48.026 20.9743 40.5 45.5Z" fill="#091E37"/>
<path d="M24 92.5C10.0456 126.173 9.42136 144.704 24 177L34 160C19.323 141.72 18.1816 126.164 24 92.5Z" fill="#FFF200"/>
<path d="M57 86C38.1365 101.319 32.5301 112.587 40.5 142.5L48 134.5C59.756 160.602 69.6708 168.705 91 176C89.0196 171.234 88.6291 168.7 90 164.5C95.3219 172.643 99.2862 175.408 107.5 178.5C109.503 170.437 114.431 167.597 139 169.5C158.061 170.728 168.533 173.557 187 181C190.04 175.283 192.583 173.557 198.5 172.5C204.51 170.359 206.672 166.387 208 153.5C215.416 159.033 217.372 162.322 218 168.5C230.114 165.5 237.081 165.129 250 168.5C260.552 157.607 263.129 149.261 263.5 131.5C251.366 117.043 242.029 111.134 219.5 101.5C229.711 103.343 235.144 104.047 244 109L243.995 108.658C243.9 102.756 243.846 99.3495 240 94C241.233 92.557 241.677 91.3102 242.436 89.1792L242.5 89C237.91 88.5154 235.921 88.4989 234 89C235.72 90.4539 236.172 91.3384 235.5 93C233.073 94.9043 231.769 96.0756 229.5 98.5C232.705 99.462 233.861 100.143 235 101.5C209.925 97.9425 197.075 98.0218 180.5 109C180.5 109 181.854 102.996 185 100.5C180.603 99.9637 179.138 99.1639 177 97.5C167.087 104.452 161.332 106.786 150.5 106C150.934 108.988 152.282 109.91 155.5 111C140.778 110.839 136.667 107.179 133 97.5C151.113 104.885 159.243 104.845 171.5 94C171.103 91.8677 170.433 91.5606 168.5 92.5C159.183 102.782 152.068 100.601 138 91C139.931 88.4855 142.997 87.4762 150 86C138.261 83.8013 132.045 84.0004 122 88C120.128 89.8377 126.5 91 126.5 91C95.8563 110.185 131.5 134.5 166.5 121C162.884 124.695 155.244 141.175 159 146C150.845 147.257 147.739 144.542 142.5 139C133.066 144.95 132.638 149.989 140.5 162C113.925 163.635 100.886 162.138 88 146C84.9411 148.615 83.9904 151.632 83 158.5C78.6992 149.872 76.7919 143.806 74 131.5C71.0392 139.356 70.6059 144.232 72 153.5C64.2022 146.269 60.5693 139.683 57 118C53.2178 119.319 51.2327 120.415 48 123.5C45.3951 110.674 48.4615 102.135 57 86Z" fill="#FFF200"/>
<path d="M42.5 55.5C37.4672 62.7366 34.3937 66.6623 27.5 73C36.0084 74.75 40.4257 73.13 48 68C43.7355 65.0773 42.8374 62.0573 42.5 55.5Z" fill="#FFF200"/>
<path d="M55.5 57.5C58.0643 61.9014 59.962 63.5401 65 63.5C63.7461 60.3827 63.847 58.6132 65 55.5C71.6597 59.3703 75.027 59.2015 80.5 55.5C76.7802 54.841 75.3712 53.9722 74 51.5C81.3359 51.6719 84.5994 50.9817 87 46.5C84.5366 46.9131 83.2677 46.4324 81.5 42.5L83 36C80.7619 37.0818 79.4435 38.1396 77 41C76.4103 37.8333 76.664 35.3723 78 30C72.9091 33.5224 70.3333 36.4231 66 42.5C71 21 82.5203 2.59249 89 25.5C88.5999 31.4512 88.1947 34.4766 87 39C90.3633 40.1847 92.5078 39.968 96.5 39L95 36C114.544 31.3224 123.048 34.2213 135.5 45.5C121.178 47.1586 114.208 49.7016 105 59C96.9325 68.542 92.2276 72.9092 83 76.5C75.8414 77.999 71.268 77.6094 62.5 74C70.9564 96.0421 80.9166 101.182 104 103C104.093 99.8765 104.442 97.919 106.5 93.5L109.5 96.5C126.515 77.0443 139.868 71.9001 184 93.5C187.159 92.8846 188.3 90.5519 189 82C191.524 86.0608 192.157 89.0142 192 95.5C199.456 94.4933 203.217 93.083 208.5 87.5C211.005 89.2327 212.758 90.3592 217 93C216.607 88.8232 216.054 86.8438 214.5 84C217.937 85.7057 219.095 87.2087 221 90C230.64 82.2337 235.409 82.9464 243.5 87.5C244.715 87.3437 245.369 86.5529 246.5 84.5C231.251 67.4051 220.768 45.5349 209 50.5L203 55.5C189.69 27.6357 169.728 26.545 135.5 23C166.902 29.1729 176.004 38.0432 186.5 57.5C176.238 48.8818 170.371 45.0089 159 45.5C139.227 26.4974 124.374 24.2753 94 29C92.6467 17.4975 90.2142 12.9035 83 8C62.8604 14.2873 57.3815 25.8434 55.5 57.5Z" fill="#FFF200"/>
<path d="M197 31C200.489 31.9013 201.84 33.0904 204 35.5C204.868 26.4737 206.695 25.8559 212 31.5C211.669 26.7112 210.689 24.3271 206.5 21C202.301 22.8799 200.176 24.9153 197 31Z" fill="#FFF200"/>
<path d="M216.5 180.5C206.007 189.478 200.381 190.198 191 181.5C194.005 178.368 208.171 176.676 212.5 177.5C213.915 174.541 251.319 164.464 257 178C254.978 178.647 253.827 178.848 251.5 177.5C249.312 180.711 248.049 182.328 245.5 183.5C244.862 180.844 244.199 179.81 242 179.5C232.949 184.13 227.655 185.929 217 185C217.934 182.849 217.794 181.874 216.5 180.5Z" fill="#FFF200"/>
<path d="M210.5 162C209.037 166.302 208.031 168.663 204.5 172.5C206.842 174.494 208.412 174.997 212 174C215.878 169.19 214.976 166.575 210.5 162Z" fill="white"/>
<path d="M261 161.5C259.754 165.078 258.731 167.008 255 170L259.5 173.5C263.105 169.194 262.735 166.473 261 161.5Z" fill="white"/>
<path d="M173.5 75.5012C171.579 74.8343 170.522 74.3122 169 71.0012C176.143 69.5674 178.749 71.3196 182 77.0012C178.658 75.9178 176.775 75.1636 173.5 75.5012Z" fill="#091E37"/>
<path d="M222.5 73.5012C217.975 72.9144 216.754 74.2762 216 78.5012H221C221.782 77.1875 222.111 76.096 222.5 73.5012Z" fill="#091E37"/>
<path d="M253 124.5C227.073 106.005 214.75 100.542 202.5 112.5C206.348 119.145 209.801 120.078 217 119.5C215.946 124.913 216.192 127.369 218.5 130.5C227.667 124.721 235.751 123.836 253 124.5Z" fill="#091E37"/>
<path d="M225 132.5C220.259 140.103 222.629 143.12 231 147.5C234.933 141.663 238.5 142.5 238.5 150.5H242L240 163.5C243.263 157.748 244.048 156.113 246 150.5C254.245 148.203 257.391 144.514 259.5 132.5C246.433 127.405 238.947 126.486 225 132.5Z" fill="#091E37"/>
<ellipse cx="146.414" cy="91.5557" rx="2.44427" ry="1.58629" transform="rotate(24.0367 146.414 91.5557)" fill="white"/>
<ellipse cx="230.454" cy="92.4893" rx="2" ry="1.5" transform="rotate(132.072 230.454 92.4893)" fill="white"/>
<ellipse cx="235" cy="136.5" rx="6" ry="2.5" fill="white"/>
</svg>
